mtllib material.mtl
usemtl camera
v -0.08087900 -0.01560000 -0.05281900
v -0.08121900 -0.01560000 -0.05670400
v -0.08155900 -0.01560000 -0.06058900
v -0.08189900 -0.01560000 -0.06447500
v -0.08223900 -0.01560000 -0.06836000
v -0.08257900 -0.01560000 -0.07224500
v -0.08291900 -0.01560000 -0.07613000
v -0.08325900 -0.01560000 -0.08001500
v -0.08359800 -0.01560000 -0.08390000
v -0.08087900 -0.01170000 -0.05281900
v -0.08121900 -0.01170000 -0.05670400
v -0.08155900 -0.01170000 -0.06058900
v -0.08189900 -0.01170000 -0.06447500
v -0.08257900 -0.01170000 -0.07224500
v -0.08291900 -0.01170000 -0.07613000
v -0.08325900 -0.01170000 -0.08001500
v -0.08359800 -0.01170000 -0.08390000
v -0.08087900 -0.00780000 -0.05281900
v -0.08121900 -0.00780000 -0.05670400
v -0.08155900 -0.00780000 -0.06058900
v -0.08291900 -0.00780000 -0.07613000
v -0.08325900 -0.00780000 -0.08001500
v -0.08359800 -0.00780000 -0.08390000
v -0.08087900 -0.00390000 -0.05281900
v -0.08121900 -0.00390000 -0.05670400
v -0.08155900 -0.00390000 -0.06058900
v -0.08189900 -0.00390000 -0.06447500
v -0.08223900 -0.00390000 -0.06836000
v -0.08257900 -0.00390000 -0.07224500
v -0.08291900 -0.00390000 -0.07613000
v -0.08325900 -0.00390000 -0.08001500
v -0.08359800 -0.00390000 -0.08390000
v -0.08087900 -0.00000000 -0.05281900
v -0.08121900 -0.00000000 -0.05670400
v -0.08155900 -0.00000000 -0.06058900
v -0.08189900 -0.00000000 -0.06447500
v -0.08223900 -0.00000000 -0.06836000
v -0.08257900 -0.00000000 -0.07224500
v -0.08291900 -0.00000000 -0.07613000
v -0.08325900 -0.00000000 -0.08001500
v -0.08359800 -0.00000000 -0.08390000
v -0.08087900 0.00390000 -0.05281900
v -0.08121900 0.00390000 -0.05670400
v -0.08155900 0.00390000 -0.06058900
v -0.08189900 0.00390000 -0.06447500
v -0.08223900 0.00390000 -0.06836000
v -0.08257900 0.00390000 -0.07224500
v -0.08291900 0.00390000 -0.07613000
v -0.08325900 0.00390000 -0.08001500
v -0.08359800 0.00390000 -0.08390000
v -0.08087900 0.00780000 -0.05281900
v -0.08121900 0.00780000 -0.05670400
v -0.08155900 0.00780000 -0.06058900
v -0.08291900 0.00780000 -0.07613000
v -0.08325900 0.00780000 -0.08001500
v -0.08359800 0.00780000 -0.08390000
v -0.08087900 0.01170000 -0.05281900
v -0.08121900 0.01170000 -0.05670400
v -0.08155900 0.01170000 -0.06058900
v -0.08189900 0.01170000 -0.06447500
v -0.08257900 0.01170000 -0.07224500
v -0.08291900 0.01170000 -0.07613000
v -0.08325900 0.01170000 -0.08001500
v -0.08359800 0.01170000 -0.08390000
v -0.08087900 0.01560000 -0.05281900
v -0.08121900 0.01560000 -0.05670400
v -0.08155900 0.01560000 -0.06058900
v -0.08189900 0.01560000 -0.06447500
v -0.08223900 0.01560000 -0.06836000
v -0.08257900 0.01560000 -0.07224500
v -0.08291900 0.01560000 -0.07613000
v -0.08325900 0.01560000 -0.08001500
v -0.08359800 0.01560000 -0.08390000
v -0.08223900 0.00500000 -0.06836000
v -0.08234700 0.00519600 -0.06959100
v -0.08244400 0.00576400 -0.07070200
v -0.08252100 0.00664900 -0.07158400
v -0.08257000 0.00776400 -0.07215000
v -0.08258700 0.00900000 -0.07234500
v -0.08257000 0.01023600 -0.07215000
v -0.08252100 0.01135100 -0.07158400
v -0.08244400 0.01223600 -0.07070200
v -0.08234700 0.01280400 -0.06959100
v -0.08223900 0.01300000 -0.06836000
v -0.08206900 0.00390000 -0.06641700
v -0.08240900 0.00390000 -0.07030200
v -0.08274900 0.01170000 -0.07418800
v -0.08291900 0.00975000 -0.07613000
v -0.08274900 0.00780000 -0.07418800
v -0.08274900 0.00975000 -0.07418800
v -0.08240900 0.01560000 -0.07030200
v -0.08257900 0.01365000 -0.07224500
v -0.08223900 0.01365000 -0.06836000
v -0.08240900 0.01365000 -0.07030200
v -0.08206900 0.01560000 -0.06641700
v -0.08189900 0.01365000 -0.06447500
v -0.08206900 0.01365000 -0.06641700
v -0.08213100 0.01280400 -0.06712800
v -0.08203400 0.01223600 -0.06601800
v -0.08195700 0.01135100 -0.06513600
v -0.08190700 0.01023600 -0.06457000
v -0.08189000 0.00900000 -0.06437500
v -0.08190700 0.00776400 -0.06457000
v -0.08195700 0.00664900 -0.06513600
v -0.08203400 0.00576400 -0.06601800
v -0.08213100 0.00519600 -0.06712800
v -0.08172900 0.01170000 -0.06253200
v -0.08172900 0.00780000 -0.06253200
v -0.08155900 0.00975000 -0.06058900
v -0.08172900 0.00975000 -0.06253200
v -0.08223900 -0.01300000 -0.06836000
v -0.08234700 -0.01280400 -0.06959100
v -0.08244400 -0.01223600 -0.07070200
v -0.08252100 -0.01135100 -0.07158400
v -0.08257000 -0.01023600 -0.07215000
v -0.08258700 -0.00900000 -0.07234500
v -0.08257000 -0.00776400 -0.07215000
v -0.08252100 -0.00664900 -0.07158400
v -0.08244400 -0.00576400 -0.07070200
v -0.08234700 -0.00519600 -0.06959100
v -0.08223900 -0.00500000 -0.06836000
v -0.08223900 -0.01365000 -0.06836000
v -0.08206900 -0.01560000 -0.06641700
v -0.08189900 -0.01365000 -0.06447500
v -0.08206900 -0.01365000 -0.06641700
v -0.08257900 -0.01365000 -0.07224500
v -0.08240900 -0.01560000 -0.07030200
v -0.08240900 -0.01365000 -0.07030200
v -0.08274900 -0.00780000 -0.07418800
v -0.08291900 -0.00975000 -0.07613000
v -0.08274900 -0.01170000 -0.07418800
v -0.08274900 -0.00975000 -0.07418800
v -0.08240900 -0.00390000 -0.07030200
v -0.08206900 -0.00390000 -0.06641700
v -0.08213100 -0.00519600 -0.06712800
v -0.08203400 -0.00576400 -0.06601800
v -0.08195700 -0.00664900 -0.06513600
v -0.08190700 -0.00776400 -0.06457000
v -0.08189000 -0.00900000 -0.06437500
v -0.08190700 -0.01023600 -0.06457000
v -0.08195700 -0.01135100 -0.06513600
v -0.08203400 -0.01223600 -0.06601800
v -0.08213100 -0.01280400 -0.06712800
v -0.08172900 -0.00780000 -0.06253200
v -0.08172900 -0.01170000 -0.06253200
v -0.08155900 -0.00975000 -0.06058900
v -0.08172900 -0.00975000 -0.06253200
v -0.08393800 -0.01300000 -0.08778600
v -0.08391900 -0.01468200 -0.08756500
v -0.08386200 -0.01625000 -0.08691800
v -0.08377200 -0.01759600 -0.08588900
v -0.08365500 -0.01862900 -0.08454800
v -0.08351900 -0.01927900 -0.08298600
v -0.08337200 -0.01950000 -0.08131000
v -0.08312000 -0.01950000 -0.07843200
v -0.08286800 -0.01950000 -0.07555500
v -0.08261700 -0.01950000 -0.07267700
v -0.08236500 -0.01950000 -0.06979900
v -0.08211300 -0.01950000 -0.06692100
v -0.08186100 -0.01950000 -0.06404300
v -0.08160900 -0.01950000 -0.06116500
v -0.08135800 -0.01950000 -0.05828700
v -0.08110600 -0.01950000 -0.05540900
v -0.08095900 -0.01927900 -0.05373300
v -0.08082300 -0.01862900 -0.05217200
v -0.08070500 -0.01759600 -0.05083100
v -0.08061500 -0.01625000 -0.04980200
v -0.08055900 -0.01468200 -0.04915500
v -0.08053900 -0.01300000 -0.04893400
v -0.08053900 -0.01011100 -0.04893400
v -0.08053900 -0.00722200 -0.04893400
v -0.08053900 -0.00433300 -0.04893400
v -0.08053900 -0.00144400 -0.04893400
v -0.08053900 0.00144400 -0.04893400
v -0.08053900 0.00433300 -0.04893400
v -0.08053900 0.00722200 -0.04893400
v -0.08053900 0.01011100 -0.04893400
v -0.08053900 0.01300000 -0.04893400
v -0.08055900 0.01468200 -0.04915500
v -0.08061500 0.01625000 -0.04980200
v -0.08070500 0.01759600 -0.05083100
v -0.08082300 0.01862900 -0.05217200
v -0.08095900 0.01927900 -0.05373300
v -0.08110600 0.01950000 -0.05540900
v -0.08135800 0.01950000 -0.05828700
v -0.08160900 0.01950000 -0.06116500
v -0.08186100 0.01950000 -0.06404300
v -0.08211300 0.01950000 -0.06692100
v -0.08236500 0.01950000 -0.06979900
v -0.08261700 0.01950000 -0.07267700
v -0.08286800 0.01950000 -0.07555500
v -0.08312000 0.01950000 -0.07843200
v -0.08337200 0.01950000 -0.08131000
v -0.08351900 0.01927900 -0.08298600
v -0.08365500 0.01862900 -0.08454800
v -0.08377200 0.01759600 -0.08588900
v -0.08386200 0.01625000 -0.08691800
v -0.08391900 0.01468200 -0.08756500
v -0.08393800 0.01300000 -0.08778600
v -0.08393800 0.01011100 -0.08778600
v -0.08393800 0.00722200 -0.08778600
v -0.08393800 0.00433300 -0.08778600
v -0.08393800 0.00144400 -0.08778600
v -0.08393800 -0.00144400 -0.08778600
v -0.08393800 -0.00433300 -0.08778600
v -0.08393800 -0.00722200 -0.08778600
v -0.08393800 -0.01011100 -0.08778600
v -0.07994800 0.00500000 -0.06856000
v -0.08005500 0.00519600 -0.06979200
v -0.08015300 0.00576400 -0.07090200
v -0.08023000 0.00664900 -0.07178400
v -0.08027900 0.00776400 -0.07235000
v -0.08029600 0.00900000 -0.07254500
v -0.08027900 0.01023600 -0.07235000
v -0.08023000 0.01135100 -0.07178400
v -0.08015300 0.01223600 -0.07090200
v -0.08005500 0.01280400 -0.06979200
v -0.07994800 0.01300000 -0.06856000
v -0.07994800 0.00900000 -0.06856000
v -0.07994800 0.00700000 -0.06856000
v -0.07977300 0.00900000 -0.06656800
v -0.07977300 0.00700000 -0.06656800
v -0.08012200 0.00900000 -0.07055300
v -0.08012200 0.00700000 -0.07055300
v -0.07994800 0.01100000 -0.06856000
v -0.08012200 0.01100000 -0.07055300
v -0.07977300 0.01100000 -0.06656800
v -0.07984000 0.01280400 -0.06732900
v -0.07974300 0.01223600 -0.06621800
v -0.07966600 0.01135100 -0.06533700
v -0.07961600 0.01023600 -0.06477100
v -0.07959900 0.00900000 -0.06457500
v -0.07961600 0.00776400 -0.06477100
v -0.07966600 0.00664900 -0.06533700
v -0.07974300 0.00576400 -0.06621800
v -0.07984000 0.00519600 -0.06732900
v -0.07994800 0.01300000 -0.06856000
v -0.08223900 0.00500000 -0.06836000
v -0.07994800 0.00500000 -0.06856000
v -0.08109300 0.00500000 -0.06846000
v -0.08223900 0.01300000 -0.06836000
v -0.08109300 0.01300000 -0.06846000
v -0.08005500 0.01280400 -0.06979200
v -0.08015300 0.01223600 -0.07090200
v -0.08023000 0.01135100 -0.07178400
v -0.08027900 0.01023600 -0.07235000
v -0.08029600 0.00900000 -0.07254500
v -0.08027900 0.00776400 -0.07235000
v -0.08023000 0.00664900 -0.07178400
v -0.08015300 0.00576400 -0.07090200
v -0.08005500 0.00519600 -0.06979200
v -0.08234700 0.00519600 -0.06959100
v -0.08244400 0.00576400 -0.07070200
v -0.08252100 0.00664900 -0.07158400
v -0.08257000 0.00776400 -0.07215000
v -0.08258700 0.00900000 -0.07234500
v -0.08257000 0.01023600 -0.07215000
v -0.08252100 0.01135100 -0.07158400
v -0.08244400 0.01223600 -0.07070200
v -0.08234700 0.01280400 -0.06959100
v -0.07994800 0.00500000 -0.06856000
v -0.08223900 0.01300000 -0.06836000
v -0.08223900 0.00500000 -0.06836000
v -0.08109300 0.00500000 -0.06846000
v -0.07994800 0.01300000 -0.06856000
v -0.08109300 0.01300000 -0.06846000
v -0.07984000 0.00519600 -0.06732900
v -0.07974300 0.00576400 -0.06621800
v -0.07966600 0.00664900 -0.06533700
v -0.07961600 0.00776400 -0.06477100
v -0.07959900 0.00900000 -0.06457500
v -0.07961600 0.01023600 -0.06477100
v -0.07966600 0.01135100 -0.06533700
v -0.07974300 0.01223600 -0.06621800
v -0.07984000 0.01280400 -0.06732900
v -0.08213100 0.01280400 -0.06712800
v -0.08203400 0.01223600 -0.06601800
v -0.08195700 0.01135100 -0.06513600
v -0.08190700 0.01023600 -0.06457000
v -0.08189000 0.00900000 -0.06437500
v -0.08190700 0.00776400 -0.06457000
v -0.08195700 0.00664900 -0.06513600
v -0.08203400 0.00576400 -0.06601800
v -0.08213100 0.00519600 -0.06712800
v -0.07994800 -0.00500000 -0.06856000
v -0.08005500 -0.00519600 -0.06979200
v -0.08015300 -0.00576400 -0.07090200
v -0.08023000 -0.00664900 -0.07178400
v -0.08027900 -0.00776400 -0.07235000
v -0.08029600 -0.00900000 -0.07254500
v -0.08027900 -0.01023600 -0.07235000
v -0.08023000 -0.01135100 -0.07178400
v -0.08015300 -0.01223600 -0.07090200
v -0.08005500 -0.01280400 -0.06979200
v -0.07994800 -0.01300000 -0.06856000
v -0.07994800 -0.00900000 -0.06856000
v -0.07994800 -0.00700000 -0.06856000
v -0.07977300 -0.00900000 -0.06656800
v -0.07977300 -0.00700000 -0.06656800
v -0.08012200 -0.00900000 -0.07055300
v -0.08012200 -0.00700000 -0.07055300
v -0.07994800 -0.01100000 -0.06856000
v -0.08012200 -0.01100000 -0.07055300
v -0.07977300 -0.01100000 -0.06656800
v -0.07984000 -0.01280400 -0.06732900
v -0.07974300 -0.01223600 -0.06621800
v -0.07966600 -0.01135100 -0.06533700
v -0.07961600 -0.01023600 -0.06477100
v -0.07959900 -0.00900000 -0.06457500
v -0.07961600 -0.00776400 -0.06477100
v -0.07966600 -0.00664900 -0.06533700
v -0.07974300 -0.00576400 -0.06621800
v -0.07984000 -0.00519600 -0.06732900
v -0.07994800 -0.00500000 -0.06856000
v -0.08223900 -0.01300000 -0.06836000
v -0.07994800 -0.01300000 -0.06856000
v -0.08109300 -0.01300000 -0.06846000
v -0.08223900 -0.00500000 -0.06836000
v -0.08109300 -0.00500000 -0.06846000
v -0.08005500 -0.00519600 -0.06979200
v -0.08015300 -0.00576400 -0.07090200
v -0.08023000 -0.00664900 -0.07178400
v -0.08027900 -0.00776400 -0.07235000
v -0.08029600 -0.00900000 -0.07254500
v -0.08027900 -0.01023600 -0.07235000
v -0.08023000 -0.01135100 -0.07178400
v -0.08015300 -0.01223600 -0.07090200
v -0.08005500 -0.01280400 -0.06979200
v -0.08234700 -0.01280400 -0.06959100
v -0.08244400 -0.01223600 -0.07070200
v -0.08252100 -0.01135100 -0.07158400
v -0.08257000 -0.01023600 -0.07215000
v -0.08258700 -0.00900000 -0.07234500
v -0.08257000 -0.00776400 -0.07215000
v -0.08252100 -0.00664900 -0.07158400
v -0.08244400 -0.00576400 -0.07070200
v -0.08234700 -0.00519600 -0.06959100
v -0.07994800 -0.01300000 -0.06856000
v -0.08223900 -0.00500000 -0.06836000
v -0.08223900 -0.01300000 -0.06836000
v -0.08109300 -0.01300000 -0.06846000
v -0.07994800 -0.00500000 -0.06856000
v -0.08109300 -0.00500000 -0.06846000
v -0.07984000 -0.01280400 -0.06732900
v -0.07974300 -0.01223600 -0.06621800
v -0.07966600 -0.01135100 -0.06533700
v -0.07961600 -0.01023600 -0.06477100
v -0.07959900 -0.00900000 -0.06457500
v -0.07961600 -0.00776400 -0.06477100
v -0.07966600 -0.00664900 -0.06533700
v -0.07974300 -0.00576400 -0.06621800
v -0.07984000 -0.00519600 -0.06732900
v -0.08213100 -0.00519600 -0.06712800
v -0.08203400 -0.00576400 -0.06601800
v -0.08195700 -0.00664900 -0.06513600
v -0.08190700 -0.00776400 -0.06457000
v -0.08189000 -0.00900000 -0.06437500
v -0.08190700 -0.01023600 -0.06457000
v -0.08195700 -0.01135100 -0.06513600
v -0.08203400 -0.01223600 -0.06601800
v -0.08213100 -0.01280400 -0.06712800
vn -0.99620000 -0.00000000 0.08720000
vn -0.99620000 -0.00000000 0.08720000
vn -0.99620000 -0.00000000 0.08720000
vn -0.99620000 -0.00000000 0.08720000
vn -0.99620000 -0.00000000 0.08720000
vn -0.99620000 -0.00000000 0.08720000
vn -0.99620000 -0.00000000 0.08720000
vn -0.99620000 -0.00000000 0.08720000
vn -0.99620000 -0.00000000 0.08720000
vn -0.99620000 -0.00000000 0.08720000
vn -0.99620000 -0.00000000 0.08720000
vn -0.99620000 -0.00000000 0.08720000
vn -0.99620000 -0.00000000 0.08720000
vn -0.99620000 -0.00000000 0.08720000
vn -0.99620000 -0.00000000 0.08720000
vn -0.99620000 -0.00000000 0.08720000
vn -0.99620000 -0.00000000 0.08720000
vn -0.99620000 -0.00000000 0.08720000
vn -0.99620000 -0.00000000 0.08720000
vn -0.99620000 -0.00000000 0.08720000
vn -0.99620000 -0.00000000 0.08720000
vn -0.99620000 -0.00000000 0.08720000
vn -0.99620000 -0.00000000 0.08720000
vn -0.99620000 -0.00000000 0.08720000
vn -0.99620000 -0.00000000 0.08720000
vn -0.99620000 -0.00000000 0.08720000
vn -0.99620000 -0.00000000 0.08720000
vn -0.99620000 -0.00000000 0.08720000
vn -0.99620000 -0.00000000 0.08720000
vn -0.99620000 -0.00000000 0.08720000
vn -0.99620000 -0.00000000 0.08720000
vn -0.99620000 -0.00000000 0.08720000
vn -0.99620000 -0.00000000 0.08720000
vn -0.99620000 -0.00000000 0.08720000
vn -0.99620000 -0.00000000 0.08720000
vn -0.99620000 -0.00000000 0.08720000
vn -0.99620000 -0.00000000 0.08720000
vn -0.99620000 -0.00000000 0.08720000
vn -0.99620000 -0.00000000 0.08720000
vn -0.99620000 -0.00000000 0.08720000
vn -0.99620000 -0.00000000 0.08720000
vn -0.99620000 -0.00000000 0.08720000
vn -0.99620000 -0.00000000 0.08720000
vn -0.99620000 -0.00000000 0.08720000
vn -0.99620000 -0.00000000 0.08720000
vn -0.99620000 -0.00000000 0.08720000
vn -0.99620000 -0.00000000 0.08720000
vn -0.99620000 -0.00000000 0.08720000
vn -0.99620000 -0.00000000 0.08720000
vn -0.99620000 -0.00000000 0.08720000
vn -0.99620000 -0.00000000 0.08720000
vn -0.99620000 -0.00000000 0.08720000
vn -0.99620000 -0.00000000 0.08720000
vn -0.99620000 -0.00000000 0.08720000
vn -0.99620000 -0.00000000 0.08720000
vn -0.99620000 -0.00000000 0.08720000
vn -0.99620000 -0.00000000 0.08720000
vn -0.99620000 -0.00000000 0.08720000
vn -0.99620000 -0.00000000 0.08720000
vn -0.99620000 -0.00000000 0.08720000
vn -0.99620000 -0.00000000 0.08720000
vn -0.99620000 -0.00000000 0.08720000
vn -0.99620000 -0.00000000 0.08720000
vn -0.99620000 -0.00000000 0.08720000
vn -0.99620000 -0.00000000 0.08720000
vn -0.99620000 -0.00000000 0.08720000
vn -0.99620000 -0.00000000 0.08720000
vn -0.99620000 -0.00000000 0.08720000
vn -0.99620000 -0.00000000 0.08720000
vn -0.99620000 -0.00000000 0.08720000
vn -0.99620000 -0.00000000 0.08720000
vn -0.99620000 -0.00000000 0.08720000
vn -0.99620000 -0.00000000 0.08720000
vn -0.99620000 -0.00000000 0.08720000
vn -0.99620000 -0.00000000 0.08720000
vn -0.99620000 -0.00000000 0.08720000
vn -0.99620000 -0.00000000 0.08720000
vn -0.99620000 -0.00000000 0.08720000
vn -0.99620000 -0.00000000 0.08720000
vn -0.99620000 -0.00000000 0.08720000
vn -0.99620000 -0.00000000 0.08720000
vn -0.99620000 -0.00000000 0.08720000
vn -0.99620000 -0.00000000 0.08720000
vn -0.99620000 -0.00000000 0.08720000
vn -0.99620000 -0.00000000 0.08720000
vn -0.99620000 -0.00000000 0.08720000
vn -0.99620000 -0.00000000 0.08720000
vn -0.99620000 -0.00000000 0.08720000
vn -0.99620000 -0.00000000 0.08720000
vn -0.99620000 -0.00000000 0.08720000
vn -0.99620000 -0.00000000 0.08720000
vn -0.99620000 -0.00000000 0.08720000
vn -0.99620000 -0.00000000 0.08720000
vn -0.99620000 -0.00000000 0.08720000
vn -0.99620000 -0.00000000 0.08720000
vn -0.99620000 -0.00000000 0.08720000
vn -0.99620000 -0.00000000 0.08720000
vn -0.99620000 -0.00000000 0.08720000
vn -0.99620000 -0.00000000 0.08720000
vn -0.99620000 -0.00000000 0.08720000
vn -0.99620000 -0.00000000 0.08720000
vn -0.99620000 -0.00000000 0.08720000
vn -0.99620000 -0.00000000 0.08720000
vn -0.99620000 -0.00000000 0.08720000
vn -0.99620000 -0.00000000 0.08720000
vn -0.99620000 -0.00000000 0.08720000
vn -0.99620000 -0.00000000 0.08720000
vn -0.99620000 -0.00000000 0.08720000
vn -0.99620000 -0.00000000 0.08720000
vn -0.99620000 -0.00000000 0.08720000
vn -0.99620000 -0.00000000 0.08720000
vn -0.99620000 -0.00000000 0.08720000
vn -0.99620000 -0.00000000 0.08720000
vn -0.99620000 -0.00000000 0.08720000
vn -0.99620000 -0.00000000 0.08720000
vn -0.99620000 -0.00000000 0.08720000
vn -0.99620000 -0.00000000 0.08720000
vn -0.99620000 -0.00000000 0.08720000
vn -0.99620000 -0.00000000 0.08720000
vn -0.99620000 -0.00000000 0.08720000
vn -0.99620000 -0.00000000 0.08720000
vn -0.99620000 -0.00000000 0.08720000
vn -0.99620000 -0.00000000 0.08720000
vn -0.99620000 -0.00000000 0.08720000
vn -0.99620000 -0.00000000 0.08720000
vn -0.99620000 -0.00000000 0.08720000
vn -0.99620000 -0.00000000 0.08720000
vn -0.99620000 -0.00000000 0.08720000
vn -0.99620000 -0.00000000 0.08720000
vn -0.99620000 -0.00000000 0.08720000
vn -0.99620000 -0.00000000 0.08720000
vn -0.99620000 -0.00000000 0.08720000
vn -0.99620000 -0.00000000 0.08720000
vn -0.99620000 -0.00000000 0.08720000
vn -0.99620000 -0.00000000 0.08720000
vn -0.99620000 -0.00000000 0.08720000
vn -0.99620000 -0.00000000 0.08720000
vn -0.99620000 -0.00000000 0.08720000
vn -0.99620000 -0.00000000 0.08720000
vn -0.99620000 -0.00000000 0.08720000
vn -0.99620000 -0.00000000 0.08720000
vn -0.99620000 -0.00000000 0.08720000
vn -0.99620000 -0.00000000 0.08720000
vn -0.99620000 -0.00000000 0.08720000
vn -0.99620000 -0.00000000 0.08720000
vn -0.99620000 -0.00000000 0.08720000
vn -0.99620000 -0.00000000 0.08720000
vn -0.99620000 -0.00000000 0.08720000
vn -0.99620000 -0.00000000 0.08720000
vn -0.99620000 -0.00000000 0.08720000
vn -0.99620000 -0.00000000 0.08720000
vn -0.99620000 -0.00000000 0.08720000
vn -0.99620000 -0.00000000 0.08720000
vn -0.99620000 -0.00000000 0.08720000
vn -0.99620000 -0.00000000 0.08720000
vn -0.99620000 -0.00000000 0.08720000
vn -0.99620000 -0.00000000 0.08720000
vn -0.99620000 -0.00000000 0.08720000
vn -0.99620000 -0.00000000 0.08720000
vn -0.99620000 -0.00000000 0.08720000
vn -0.99620000 -0.00000000 0.08720000
vn -0.99620000 -0.00000000 0.08720000
vn -0.99620000 -0.00000000 0.08720000
vn -0.99620000 -0.00000000 0.08720000
vn -0.99620000 -0.00000000 0.08720000
vn -0.99620000 -0.00000000 0.08720000
vn -0.99620000 -0.00000000 0.08720000
vn -0.99620000 -0.00000000 0.08720000
vn -0.99620000 -0.00000000 0.08720000
vn -0.99620000 -0.00000000 0.08720000
vn -0.99620000 -0.00000000 0.08720000
vn -0.99620000 -0.00000000 0.08720000
vn -0.99620000 -0.00000000 0.08720000
vn -0.99620000 -0.00000000 0.08720000
vn -0.99620000 -0.00000000 0.08720000
vn -0.99620000 -0.00000000 0.08720000
vn -0.99620000 -0.00000000 0.08720000
vn -0.99620000 -0.00000000 0.08720000
vn -0.99620000 -0.00000000 0.08720000
vn -0.99620000 -0.00000000 0.08720000
vn -0.99620000 -0.00000000 0.08720000
vn -0.99620000 -0.00000000 0.08720000
vn -0.99620000 -0.00000000 0.08720000
vn -0.99620000 -0.00000000 0.08720000
vn -0.99620000 -0.00000000 0.08720000
vn -0.99620000 -0.00000000 0.08720000
vn -0.99620000 -0.00000000 0.08720000
vn -0.99620000 -0.00000000 0.08720000
vn -0.99620000 -0.00000000 0.08720000
vn -0.99620000 -0.00000000 0.08720000
vn -0.99620000 -0.00000000 0.08720000
vn -0.99620000 -0.00000000 0.08720000
vn -0.99620000 -0.00000000 0.08720000
vn -0.99620000 -0.00000000 0.08720000
vn -0.99620000 -0.00000000 0.08720000
vn -0.99620000 -0.00000000 0.08720000
vn -0.99620000 -0.00000000 0.08720000
vn -0.99620000 -0.00000000 0.08720000
vn -0.99620000 -0.00000000 0.08720000
vn -0.99620000 -0.00000000 0.08720000
vn -0.99620000 -0.00000000 0.08720000
vn -0.99620000 -0.00000000 0.08720000
vn -0.99620000 -0.00000000 0.08720000
vn -0.99620000 -0.00000000 0.08720000
vn -0.99620000 -0.00000000 0.08720000
vn -0.99620000 -0.00000000 0.08720000
vn -0.99620000 -0.00000000 0.08720000
vn -0.99620000 -0.00000000 0.08720000
vn -0.99620000 -0.00000000 0.08720000
vn -0.99620000 -0.00000000 0.08720000
vn -0.99620000 -0.00000000 0.08720000
vn -0.99620000 -0.00000000 0.08720000
vn -0.99620000 -0.00000000 0.08720000
vn -0.99620000 -0.00000000 0.08720000
vn -0.99620000 -0.00000000 0.08720000
vn -0.99620000 -0.00000000 0.08720000
vn -0.99620000 -0.00000000 0.08720000
vn -0.99620000 -0.00000000 0.08720000
vn -0.99620000 -0.00000000 0.08720000
vn -0.99620000 -0.00000000 0.08720000
vn -0.99620000 -0.00000000 0.08720000
vn -0.99620000 -0.00000000 0.08720000
vn -0.99620000 -0.00000000 0.08720000
vn -0.99620000 -0.00000000 0.08720000
vn -0.99620000 -0.00000000 0.08720000
vn -0.99620000 -0.00000000 0.08720000
vn -0.99620000 -0.00000000 0.08720000
vn -0.99620000 -0.00000000 0.08720000
vn -0.99620000 -0.00000000 0.08720000
vn -0.99620000 -0.00000000 0.08720000
vn -0.99620000 -0.00000000 0.08720000
vn -0.99620000 -0.00000000 0.08720000
vn -0.99620000 -0.00000000 0.08720000
vn -0.99620000 -0.00000000 0.08720000
vn -0.99620000 -0.00000000 0.08720000
vn -0.99620000 -0.00000000 0.08720000
vn -0.00000000 -1.00000000 -0.00000000
vn -0.00000000 1.00000000 -0.00000000
vn -0.00000000 1.00000000 -0.00000000
vn -0.00000000 1.00000000 -0.00000000
vn -0.00000000 -1.00000000 -0.00000000
vn -0.00000000 -1.00000000 -0.00000000
vn 0.02690000 -0.95110000 0.30780000
vn 0.05120000 -0.80900000 0.58550000
vn 0.07050000 -0.58780000 0.80590000
vn 0.08290000 -0.30900000 0.94740000
vn 0.08720000 -0.00000000 0.99620000
vn 0.08290000 0.30900000 0.94740000
vn 0.07050000 0.58780000 0.80590000
vn 0.05120000 0.80900000 0.58550000
vn 0.02690000 0.95110000 0.30780000
vn 0.02690000 0.95110000 0.30780000
vn 0.05120000 0.80900000 0.58550000
vn 0.07050000 0.58780000 0.80590000
vn 0.08290000 0.30900000 0.94740000
vn 0.08720000 -0.00000000 0.99620000
vn 0.08290000 -0.30900000 0.94740000
vn 0.07050000 -0.58780000 0.80590000
vn 0.05120000 -0.80900000 0.58550000
vn 0.02690000 -0.95110000 0.30780000
vn -0.00000000 1.00000000 -0.00000000
vn -0.00000000 -1.00000000 -0.00000000
vn -0.00000000 1.00000000 -0.00000000
vn -0.00000000 1.00000000 -0.00000000
vn -0.00000000 -1.00000000 -0.00000000
vn -0.00000000 -1.00000000 -0.00000000
vn -0.02690000 0.95110000 -0.30780000
vn -0.05120000 0.80900000 -0.58550000
vn -0.07050000 0.58780000 -0.80590000
vn -0.08290000 0.30900000 -0.94740000
vn -0.08720000 -0.00000000 -0.99620000
vn -0.08290000 -0.30900000 -0.94740000
vn -0.07050000 -0.58780000 -0.80590000
vn -0.05120000 -0.80900000 -0.58550000
vn -0.02690000 -0.95110000 -0.30780000
vn -0.02690000 -0.95110000 -0.30780000
vn -0.05120000 -0.80900000 -0.58550000
vn -0.07050000 -0.58780000 -0.80590000
vn -0.08290000 -0.30900000 -0.94740000
vn -0.08720000 -0.00000000 -0.99620000
vn -0.08290000 0.30900000 -0.94740000
vn -0.07050000 0.58780000 -0.80590000
vn -0.05120000 0.80900000 -0.58550000
vn -0.02690000 0.95110000 -0.30780000
vn -0.99620000 -0.00000000 0.08720000
vn -0.99620000 -0.00000000 0.08720000
vn -0.99620000 -0.00000000 0.08720000
vn -0.99620000 -0.00000000 0.08720000
vn -0.99620000 -0.00000000 0.08720000
vn -0.99620000 -0.00000000 0.08720000
vn -0.99620000 -0.00000000 0.08720000
vn -0.99620000 -0.00000000 0.08720000
vn -0.99620000 -0.00000000 0.08720000
vn -0.99620000 -0.00000000 0.08720000
vn -0.99620000 -0.00000000 0.08720000
vn -0.99620000 -0.00000000 0.08720000
vn -0.99620000 -0.00000000 0.08720000
vn -0.99620000 -0.00000000 0.08720000
vn -0.99620000 -0.00000000 0.08720000
vn -0.99620000 -0.00000000 0.08720000
vn -0.99620000 -0.00000000 0.08720000
vn -0.99620000 -0.00000000 0.08720000
vn -0.99620000 -0.00000000 0.08720000
vn -0.99620000 -0.00000000 0.08720000
vn -0.99620000 -0.00000000 0.08720000
vn -0.99620000 -0.00000000 0.08720000
vn -0.99620000 -0.00000000 0.08720000
vn -0.99620000 -0.00000000 0.08720000
vn -0.99620000 -0.00000000 0.08720000
vn -0.99620000 -0.00000000 0.08720000
vn -0.99620000 -0.00000000 0.08720000
vn -0.99620000 -0.00000000 0.08720000
vn -0.99620000 -0.00000000 0.08720000
vn -0.00000000 -1.00000000 -0.00000000
vn -0.00000000 1.00000000 -0.00000000
vn -0.00000000 1.00000000 -0.00000000
vn -0.00000000 1.00000000 -0.00000000
vn -0.00000000 -1.00000000 -0.00000000
vn -0.00000000 -1.00000000 -0.00000000
vn 0.02690000 -0.95110000 0.30780000
vn 0.05120000 -0.80900000 0.58550000
vn 0.07050000 -0.58780000 0.80590000
vn 0.08290000 -0.30900000 0.94740000
vn 0.08720000 -0.00000000 0.99620000
vn 0.08290000 0.30900000 0.94740000
vn 0.07050000 0.58780000 0.80590000
vn 0.05120000 0.80900000 0.58550000
vn 0.02690000 0.95110000 0.30780000
vn 0.02690000 0.95110000 0.30780000
vn 0.05120000 0.80900000 0.58550000
vn 0.07050000 0.58780000 0.80590000
vn 0.08290000 0.30900000 0.94740000
vn 0.08720000 -0.00000000 0.99620000
vn 0.08290000 -0.30900000 0.94740000
vn 0.07050000 -0.58780000 0.80590000
vn 0.05120000 -0.80900000 0.58550000
vn 0.02690000 -0.95110000 0.30780000
vn -0.00000000 1.00000000 -0.00000000
vn -0.00000000 -1.00000000 -0.00000000
vn -0.00000000 1.00000000 -0.00000000
vn -0.00000000 1.00000000 -0.00000000
vn -0.00000000 -1.00000000 -0.00000000
vn -0.00000000 -1.00000000 -0.00000000
vn -0.02690000 0.95110000 -0.30780000
vn -0.05120000 0.80900000 -0.58550000
vn -0.07050000 0.58780000 -0.80590000
vn -0.08290000 0.30900000 -0.94740000
vn -0.08720000 -0.00000000 -0.99620000
vn -0.08290000 -0.30900000 -0.94740000
vn -0.07050000 -0.58780000 -0.80590000
vn -0.05120000 -0.80900000 -0.58550000
vn -0.02690000 -0.95110000 -0.30780000
vn -0.02690000 -0.95110000 -0.30780000
vn -0.05120000 -0.80900000 -0.58550000
vn -0.07050000 -0.58780000 -0.80590000
vn -0.08290000 -0.30900000 -0.94740000
vn -0.08720000 -0.00000000 -0.99620000
vn -0.08290000 0.30900000 -0.94740000
vn -0.07050000 0.58780000 -0.80590000
vn -0.05120000 0.80900000 -0.58550000
vn -0.02690000 0.95110000 -0.30780000
vt 0.89287300 0.27163800
vt 0.81210600 0.27163800
vt 0.73134000 0.27163800
vt 0.65057300 0.27163800
vt 0.56980700 0.27163800
vt 0.48904100 0.27163800
vt 0.40827400 0.27163800
vt 0.32750800 0.27163800
vt 0.24674200 0.27163800
vt 0.89287300 0.35240400
vt 0.81210600 0.35240400
vt 0.73134000 0.35240400
vt 0.65057300 0.35240400
vt 0.48904100 0.35240400
vt 0.40827400 0.35240400
vt 0.32750800 0.35240400
vt 0.24674200 0.35240400
vt 0.89287300 0.43317100
vt 0.81210600 0.43317100
vt 0.73134000 0.43317100
vt 0.40827400 0.43317100
vt 0.32750800 0.43317100
vt 0.24674200 0.43317100
vt 0.89287300 0.51393700
vt 0.81210600 0.51393700
vt 0.73134000 0.51393700
vt 0.65057300 0.51393700
vt 0.56980700 0.51393700
vt 0.48904100 0.51393700
vt 0.40827400 0.51393700
vt 0.32750800 0.51393700
vt 0.24674200 0.51393700
vt 0.89287300 0.59470300
vt 0.81210600 0.59470300
vt 0.73134000 0.59470300
vt 0.65057300 0.59470300
vt 0.56980700 0.59470300
vt 0.48904100 0.59470300
vt 0.40827400 0.59470300
vt 0.32750800 0.59470300
vt 0.24674200 0.59470300
vt 0.89287300 0.67547000
vt 0.81210600 0.67547000
vt 0.73134000 0.67547000
vt 0.65057300 0.67547000
vt 0.56980700 0.67547000
vt 0.48904100 0.67547000
vt 0.40827400 0.67547000
vt 0.32750800 0.67547000
vt 0.24674200 0.67547000
vt 0.89287300 0.75623600
vt 0.81210600 0.75623600
vt 0.73134000 0.75623600
vt 0.40827400 0.75623600
vt 0.32750800 0.75623600
vt 0.24674200 0.75623600
vt 0.89287300 0.83700200
vt 0.81210600 0.83700200
vt 0.73134000 0.83700200
vt 0.65057300 0.83700200
vt 0.48904100 0.83700200
vt 0.40827400 0.83700200
vt 0.32750800 0.83700200
vt 0.24674200 0.83700200
vt 0.89287300 0.91776900
vt 0.81210600 0.91776900
vt 0.73134000 0.91776900
vt 0.65057300 0.91776900
vt 0.56980700 0.91776900
vt 0.48904100 0.91776900
vt 0.40827400 0.91776900
vt 0.32750800 0.91776900
vt 0.24674200 0.91776900
vt 0.56980700 0.69825000
vt 0.54420900 0.70230400
vt 0.52111600 0.71407000
vt 0.50279000 0.73239700
vt 0.49102400 0.75548900
vt 0.48697000 0.78108700
vt 0.49102400 0.80668500
vt 0.50279000 0.82977800
vt 0.52111600 0.84810400
vt 0.54420900 0.85987000
vt 0.56980700 0.86392500
vt 0.61019000 0.67547000
vt 0.52942400 0.67547000
vt 0.44865700 0.83700200
vt 0.40827400 0.79661900
vt 0.44865700 0.75623600
vt 0.44865700 0.79661900
vt 0.52942400 0.91776900
vt 0.48904100 0.87738600
vt 0.56980700 0.87738600
vt 0.52942400 0.87738600
vt 0.61019000 0.91776900
vt 0.65057300 0.87738600
vt 0.61019000 0.87738600
vt 0.59540500 0.85987000
vt 0.61849800 0.84810400
vt 0.63682400 0.82977800
vt 0.64859000 0.80668500
vt 0.65264400 0.78108700
vt 0.64859000 0.75548900
vt 0.63682400 0.73239700
vt 0.61849800 0.71407000
vt 0.59540500 0.70230400
vt 0.69095700 0.83700200
vt 0.69095700 0.75623600
vt 0.73134000 0.79661900
vt 0.69095700 0.79661900
vt 0.56980700 0.32548200
vt 0.54420900 0.32953600
vt 0.52111600 0.34130300
vt 0.50279000 0.35962900
vt 0.49102400 0.38272100
vt 0.48697000 0.40831900
vt 0.49102400 0.43391700
vt 0.50279000 0.45701000
vt 0.52111600 0.47533600
vt 0.54420900 0.48710200
vt 0.56980700 0.49115700
vt 0.56980700 0.31202100
vt 0.61019000 0.27163800
vt 0.65057300 0.31202100
vt 0.61019000 0.31202100
vt 0.48904100 0.31202100
vt 0.52942400 0.27163800
vt 0.52942400 0.31202100
vt 0.44865700 0.43317100
vt 0.40827400 0.39278700
vt 0.44865700 0.35240400
vt 0.44865700 0.39278700
vt 0.52942400 0.51393700
vt 0.61019000 0.51393700
vt 0.59540500 0.48710200
vt 0.61849800 0.47533600
vt 0.63682400 0.45701000
vt 0.64859000 0.43391700
vt 0.65264400 0.40831900
vt 0.64859000 0.38272100
vt 0.63682400 0.35962900
vt 0.61849800 0.34130300
vt 0.59540500 0.32953600
vt 0.69095700 0.43317100
vt 0.69095700 0.35240400
vt 0.73134000 0.39278700
vt 0.69095700 0.39278700
vt 0.16597500 0.32548200
vt 0.17056200 0.29064200
vt 0.18401000 0.25817700
vt 0.20540200 0.23029800
vt 0.23328000 0.20890600
vt 0.26574600 0.19545800
vt 0.30058600 0.19087100
vt 0.36041300 0.19087100
vt 0.42024000 0.19087100
vt 0.48006700 0.19087100
vt 0.53989400 0.19087100
vt 0.59972000 0.19087100
vt 0.65954700 0.19087100
vt 0.71937400 0.19087100
vt 0.77920100 0.19087100
vt 0.83902800 0.19087100
vt 0.87386800 0.19545800
vt 0.90633400 0.20890600
vt 0.93421200 0.23029800
vt 0.95560400 0.25817700
vt 0.96905200 0.29064200
vt 0.97363900 0.32548200
vt 0.97363900 0.38530900
vt 0.97363900 0.44513600
vt 0.97363900 0.50496300
vt 0.97363900 0.56479000
vt 0.97363900 0.62461700
vt 0.97363900 0.68444400
vt 0.97363900 0.74427100
vt 0.97363900 0.80409800
vt 0.97363900 0.86392500
vt 0.96905200 0.89876400
vt 0.95560400 0.93123000
vt 0.93421200 0.95910900
vt 0.90633400 0.98050100
vt 0.87386800 0.99394800
vt 0.83902800 0.99853500
vt 0.77920100 0.99853500
vt 0.71937400 0.99853500
vt 0.65954700 0.99853500
vt 0.59972000 0.99853500
vt 0.53989400 0.99853500
vt 0.48006700 0.99853500
vt 0.42024000 0.99853500
vt 0.36041300 0.99853500
vt 0.30058600 0.99853500
vt 0.26574600 0.99394800
vt 0.23328000 0.98050100
vt 0.20540200 0.95910900
vt 0.18401000 0.93123000
vt 0.17056200 0.89876400
vt 0.16597500 0.86392500
vt 0.16597500 0.80409800
vt 0.16597500 0.74427100
vt 0.16597500 0.68444400
vt 0.16597500 0.62461700
vt 0.16597500 0.56479000
vt 0.16597500 0.50496300
vt 0.16597500 0.44513600
vt 0.16597500 0.38530900
vt 0.16451000 0.08298800
vt 0.16048400 0.10863200
vt 0.14880100 0.13176600
vt 0.13060300 0.15012600
vt 0.10767300 0.16191300
vt 0.08225500 0.16597500
vt 0.05683700 0.16191300
vt 0.03390700 0.15012600
vt 0.01570900 0.13176600
vt 0.00402600 0.10863200
vt 0.00000000 0.08298800
vt 0.08225500 0.08298800
vt 0.12338300 0.08298800
vt 0.08225500 0.04149400
vt 0.12338300 0.04149400
vt 0.08225500 0.12448100
vt 0.12338300 0.12448100
vt 0.04112800 0.08298800
vt 0.04112800 0.12448100
vt 0.04112800 0.04149400
vt 0.00402600 0.05734300
vt 0.01570900 0.03420900
vt 0.03390700 0.01584900
vt 0.05683700 0.00406200
vt 0.08225500 0.00000000
vt 0.10767300 0.00406200
vt 0.13060300 0.01584900
vt 0.14880100 0.03420900
vt 0.16048400 0.05734300
vt 0.16597500 0.04771800
vt 0.42669400 0.09397100
vt 0.42669400 0.04771800
vt 0.42669400 0.07084400
vt 0.16597500 0.09397100
vt 0.16597500 0.07084400
vt 0.19204700 0.04771800
vt 0.21811900 0.04771800
vt 0.24419100 0.04771800
vt 0.27026300 0.04771800
vt 0.29633500 0.04771800
vt 0.32240700 0.04771800
vt 0.34847900 0.04771800
vt 0.37455100 0.04771800
vt 0.40062200 0.04771800
vt 0.40062200 0.09397100
vt 0.37455100 0.09397100
vt 0.34847900 0.09397100
vt 0.32240700 0.09397100
vt 0.29633500 0.09397100
vt 0.27026300 0.09397100
vt 0.24419100 0.09397100
vt 0.21811900 0.09397100
vt 0.19204700 0.09397100
vt 0.16597500 0.14315400
vt 0.42669400 0.18940700
vt 0.16597500 0.18940700
vt 0.16597500 0.16628000
vt 0.42669400 0.14315400
vt 0.42669400 0.16628000
vt 0.19204700 0.14315400
vt 0.21811900 0.14315400
vt 0.24419100 0.14315400
vt 0.27026300 0.14315400
vt 0.29633500 0.14315400
vt 0.32240700 0.14315400
vt 0.34847900 0.14315400
vt 0.37455100 0.14315400
vt 0.40062200 0.14315400
vt 0.40062200 0.18940700
vt 0.37455100 0.18940700
vt 0.34847900 0.18940700
vt 0.32240700 0.18940700
vt 0.29633500 0.18940700
vt 0.27026300 0.18940700
vt 0.24419100 0.18940700
vt 0.21811900 0.18940700
vt 0.19204700 0.18940700
vt 0.16451000 0.58298800
vt 0.16048400 0.60863200
vt 0.14880100 0.63176600
vt 0.13060300 0.65012600
vt 0.10767300 0.66191300
vt 0.08225500 0.66597500
vt 0.05683700 0.66191300
vt 0.03390700 0.65012600
vt 0.01570900 0.63176600
vt 0.00402600 0.60863200
vt 0.00000000 0.58298800
vt 0.08225500 0.58298800
vt 0.12338300 0.58298800
vt 0.08225500 0.54149400
vt 0.12338300 0.54149400
vt 0.08225500 0.62448100
vt 0.12338300 0.62448100
vt 0.04112800 0.58298800
vt 0.04112800 0.62448100
vt 0.04112800 0.54149400
vt 0.00402600 0.55734300
vt 0.01570900 0.53420900
vt 0.03390700 0.51584900
vt 0.05683700 0.50406200
vt 0.08225500 0.50000000
vt 0.10767300 0.50406200
vt 0.13060300 0.51584900
vt 0.14880100 0.53420900
vt 0.16048400 0.55734300
vt 0.16597500 0.00000000
vt 0.42669400 0.04625300
vt 0.42669400 0.00000000
vt 0.42669400 0.02312600
vt 0.16597500 0.04625300
vt 0.16597500 0.02312600
vt 0.19204700 0.00000000
vt 0.21811900 0.00000000
vt 0.24419100 0.00000000
vt 0.27026300 0.00000000
vt 0.29633500 0.00000000
vt 0.32240700 0.00000000
vt 0.34847900 0.00000000
vt 0.37455100 0.00000000
vt 0.40062200 0.00000000
vt 0.40062200 0.04625300
vt 0.37455100 0.04625300
vt 0.34847900 0.04625300
vt 0.32240700 0.04625300
vt 0.29633500 0.04625300
vt 0.27026300 0.04625300
vt 0.24419100 0.04625300
vt 0.21811900 0.04625300
vt 0.19204700 0.04625300
vt 0.16597500 0.09543600
vt 0.42669400 0.14168900
vt 0.16597500 0.14168900
vt 0.16597500 0.11856200
vt 0.42669400 0.09543600
vt 0.42669400 0.11856200
vt 0.19204700 0.09543600
vt 0.21811900 0.09543600
vt 0.24419100 0.09543600
vt 0.27026300 0.09543600
vt 0.29633500 0.09543600
vt 0.32240700 0.09543600
vt 0.34847900 0.09543600
vt 0.37455100 0.09543600
vt 0.40062200 0.09543600
vt 0.40062200 0.14168900
vt 0.37455100 0.14168900
vt 0.34847900 0.14168900
vt 0.32240700 0.14168900
vt 0.29633500 0.14168900
vt 0.27026300 0.14168900
vt 0.24419100 0.14168900
vt 0.21811900 0.14168900
vt 0.19204700 0.14168900
f 11/11/11 2/2/2 1/1/1
f 1/1/1 10/10/10 11/11/11
f 12/12/12 3/3/3 2/2/2
f 2/2/2 11/11/11 12/12/12
f 145/145/145 13/13/13 124/124/124
f 124/124/124 4/4/4 3/3/3
f 3/3/3 12/12/12 145/145/145
f 145/145/145 124/124/124 3/3/3
f 122/122/122 5/5/5 123/123/123
f 123/123/123 125/125/125 122/122/122
f 125/125/125 123/123/123 4/4/4
f 4/4/4 124/124/124 125/125/125
f 126/126/126 6/6/6 127/127/127
f 127/127/127 128/128/128 126/126/126
f 128/128/128 127/127/127 5/5/5
f 5/5/5 122/122/122 128/128/128
f 126/126/126 14/14/14 131/131/131
f 131/131/131 15/15/15 7/7/7
f 7/7/7 6/6/6 126/126/126
f 126/126/126 131/131/131 7/7/7
f 16/16/16 8/8/8 7/7/7
f 7/7/7 15/15/15 16/16/16
f 17/17/17 9/9/9 8/8/8
f 8/8/8 16/16/16 17/17/17
f 19/19/19 11/11/11 10/10/10
f 10/10/10 18/18/18 19/19/19
f 146/146/146 12/12/12 11/11/11
f 19/19/19 20/20/20 146/146/146
f 11/11/11 19/19/19 146/146/146
f 147/147/147 145/145/145 12/12/12
f 12/12/12 146/146/146 147/147/147
f 144/144/144 147/147/147 146/146/146
f 146/146/146 20/20/20 144/144/144
f 21/21/21 130/130/130 132/132/132
f 132/132/132 129/129/129 21/21/21
f 130/130/130 15/15/15 131/131/131
f 131/131/131 132/132/132 130/130/130
f 130/130/130 21/21/21 22/22/22
f 16/16/16 15/15/15 130/130/130
f 22/22/22 16/16/16 130/130/130
f 23/23/23 17/17/17 16/16/16
f 16/16/16 22/22/22 23/23/23
f 25/25/25 19/19/19 18/18/18
f 18/18/18 24/24/24 25/25/25
f 26/26/26 20/20/20 19/19/19
f 19/19/19 25/25/25 26/26/26
f 31/31/31 22/22/22 21/21/21
f 21/21/21 30/30/30 31/31/31
f 32/32/32 23/23/23 22/22/22
f 22/22/22 31/31/31 32/32/32
f 34/34/34 25/25/25 24/24/24
f 24/24/24 33/33/33 34/34/34
f 35/35/35 26/26/26 25/25/25
f 25/25/25 34/34/34 35/35/35
f 36/36/36 27/27/27 26/26/26
f 26/26/26 35/35/35 36/36/36
f 134/134/134 27/27/27 36/36/36
f 37/37/37 28/28/28 134/134/134
f 36/36/36 37/37/37 134/134/134
f 133/133/133 28/28/28 37/37/37
f 38/38/38 29/29/29 133/133/133
f 37/37/37 38/38/38 133/133/133
f 39/39/39 30/30/30 29/29/29
f 29/29/29 38/38/38 39/39/39
f 40/40/40 31/31/31 30/30/30
f 30/30/30 39/39/39 40/40/40
f 41/41/41 32/32/32 31/31/31
f 31/31/31 40/40/40 41/41/41
f 43/43/43 34/34/34 33/33/33
f 33/33/33 42/42/42 43/43/43
f 44/44/44 35/35/35 34/34/34
f 34/34/34 43/43/43 44/44/44
f 45/45/45 36/36/36 35/35/35
f 35/35/35 44/44/44 45/45/45
f 85/85/85 46/46/46 37/37/37
f 36/36/36 45/45/45 85/85/85
f 37/37/37 36/36/36 85/85/85
f 86/86/86 47/47/47 38/38/38
f 37/37/37 46/46/46 86/86/86
f 38/38/38 37/37/37 86/86/86
f 48/48/48 39/39/39 38/38/38
f 38/38/38 47/47/47 48/48/48
f 49/49/49 40/40/40 39/39/39
f 39/39/39 48/48/48 49/49/49
f 50/50/50 41/41/41 40/40/40
f 40/40/40 49/49/49 50/50/50
f 52/52/52 43/43/43 42/42/42
f 42/42/42 51/51/51 52/52/52
f 53/53/53 44/44/44 43/43/43
f 43/43/43 52/52/52 53/53/53
f 55/55/55 49/49/49 48/48/48
f 48/48/48 54/54/54 55/55/55
f 56/56/56 50/50/50 49/49/49
f 49/49/49 55/55/55 56/56/56
f 58/58/58 52/52/52 51/51/51
f 51/51/51 57/57/57 58/58/58
f 109/109/109 53/53/53 52/52/52
f 58/58/58 59/59/59 109/109/109
f 52/52/52 58/58/58 109/109/109
f 110/110/110 108/108/108 53/53/53
f 53/53/53 109/109/109 110/110/110
f 107/107/107 110/110/110 109/109/109
f 109/109/109 59/59/59 107/107/107
f 62/62/62 88/88/88 90/90/90
f 90/90/90 87/87/87 62/62/62
f 88/88/88 54/54/54 89/89/89
f 89/89/89 90/90/90 88/88/88
f 88/88/88 62/62/62 63/63/63
f 55/55/55 54/54/54 88/88/88
f 63/63/63 55/55/55 88/88/88
f 64/64/64 56/56/56 55/55/55
f 55/55/55 63/63/63 64/64/64
f 66/66/66 58/58/58 57/57/57
f 57/57/57 65/65/65 66/66/66
f 67/67/67 59/59/59 58/58/58
f 58/58/58 66/66/66 67/67/67
f 96/96/96 60/60/60 107/107/107
f 107/107/107 59/59/59 67/67/67
f 67/67/67 68/68/68 96/96/96
f 96/96/96 107/107/107 67/67/67
f 69/69/69 93/93/93 97/97/97
f 97/97/97 95/95/95 69/69/69
f 95/95/95 97/97/97 96/96/96
f 96/96/96 68/68/68 95/95/95
f 70/70/70 92/92/92 94/94/94
f 94/94/94 91/91/91 70/70/70
f 91/91/91 94/94/94 93/93/93
f 93/93/93 69/69/69 91/91/91
f 87/87/87 61/61/61 92/92/92
f 92/92/92 70/70/70 71/71/71
f 71/71/71 62/62/62 87/87/87
f 87/87/87 92/92/92 71/71/71
f 72/72/72 63/63/63 62/62/62
f 62/62/62 71/71/71 72/72/72
f 73/73/73 64/64/64 63/63/63
f 63/63/63 72/72/72 73/73/73
f 165/165/165 1/1/1 164/164/164
f 2/2/2 163/163/163 164/164/164
f 2/2/2 162/162/162 163/163/163
f 166/166/166 1/1/1 165/165/165
f 168/168/168 1/1/1 167/167/167
f 169/169/169 10/10/10 168/168/168
f 168/168/168 10/10/10 1/1/1
f 1/1/1 2/2/2 164/164/164
f 10/10/10 169/169/169 170/170/170
f 167/167/167 1/1/1 166/166/166
f 2/2/2 3/3/3 161/161/161
f 161/161/161 162/162/162 2/2/2
f 3/3/3 4/4/4 160/160/160
f 160/160/160 161/161/161 3/3/3
f 159/159/159 160/160/160 4/4/4
f 4/4/4 123/123/123 159/159/159
f 142/142/142 125/125/125 124/124/124
f 143/143/143 122/122/122 125/125/125
f 142/142/142 143/143/143 125/125/125
f 5/5/5 159/159/159 123/123/123
f 142/142/142 124/124/124 13/13/13
f 122/122/122 143/143/143 111/111/111
f 171/171/171 18/18/18 170/170/170
f 140/140/140 145/145/145 147/147/147
f 170/170/170 18/18/18 10/10/10
f 171/171/171 172/172/172 24/24/24
f 24/24/24 18/18/18 171/171/171
f 24/24/24 172/172/172 173/173/173
f 173/173/173 33/33/33 24/24/24
f 33/33/33 173/173/173 174/174/174
f 26/26/26 144/144/144 20/20/20
f 140/140/140 13/13/13 145/145/145
f 139/139/139 147/147/147 144/144/144
f 138/138/138 139/139/139 144/144/144
f 140/140/140 147/147/147 139/139/139
f 13/13/13 140/140/140 141/141/141
f 138/138/138 144/144/144 137/137/137
f 142/142/142 13/13/13 141/141/141
f 136/136/136 137/137/137 27/27/27
f 144/144/144 27/27/27 137/137/137
f 134/134/134 136/136/136 27/27/27
f 28/28/28 121/121/121 135/135/135
f 136/136/136 134/134/134 135/135/135
f 134/134/134 28/28/28 135/135/135
f 27/27/27 144/144/144 26/26/26
f 127/127/127 158/158/158 5/5/5
f 159/159/159 5/5/5 158/158/158
f 156/156/156 157/157/157 6/6/6
f 6/6/6 7/7/7 156/156/156
f 157/157/157 158/158/158 127/127/127
f 127/127/127 6/6/6 157/157/157
f 128/128/128 122/122/122 112/112/112
f 112/112/112 122/122/122 111/111/111
f 113/113/113 128/128/128 112/112/112
f 113/113/113 126/126/126 128/128/128
f 154/154/154 8/8/8 153/153/153
f 151/151/151 152/152/152 9/9/9
f 152/152/152 153/153/153 9/9/9
f 8/8/8 154/154/154 155/155/155
f 8/8/8 9/9/9 153/153/153
f 9/9/9 17/17/17 149/149/149
f 151/151/151 9/9/9 150/150/150
f 150/150/150 9/9/9 149/149/149
f 17/17/17 148/148/148 149/149/149
f 7/7/7 8/8/8 155/155/155
f 155/155/155 156/156/156 7/7/7
f 113/113/113 14/14/14 126/126/126
f 115/115/115 131/131/131 14/14/14
f 114/114/114 115/115/115 14/14/14
f 116/116/116 132/132/132 115/115/115
f 129/129/129 116/116/116 117/117/117
f 113/113/113 114/114/114 14/14/14
f 133/133/133 120/120/120 28/28/28
f 119/119/119 120/120/120 133/133/133
f 29/29/29 118/118/118 119/119/119
f 133/133/133 29/29/29 119/119/119
f 129/129/129 117/117/117 118/118/118
f 118/118/118 29/29/29 129/129/129
f 115/115/115 132/132/132 131/131/131
f 116/116/116 129/129/129 132/132/132
f 17/17/17 23/23/23 206/206/206
f 206/206/206 207/207/207 17/17/17
f 148/148/148 17/17/17 207/207/207
f 21/21/21 129/129/129 30/30/30
f 32/32/32 41/41/41 204/204/204
f 204/204/204 205/205/205 32/32/32
f 23/23/23 32/32/32 205/205/205
f 205/205/205 206/206/206 23/23/23
f 30/30/30 129/129/129 29/29/29
f 120/120/120 121/121/121 28/28/28
f 174/174/174 175/175/175 42/42/42
f 42/42/42 33/33/33 174/174/174
f 175/175/175 176/176/176 51/51/51
f 51/51/51 42/42/42 175/175/175
f 57/57/57 51/51/51 176/176/176
f 176/176/176 177/177/177 57/57/57
f 178/178/178 57/57/57 177/177/177
f 102/102/102 108/108/108 110/110/110
f 44/44/44 53/53/53 108/108/108
f 107/107/107 101/101/101 110/110/110
f 45/45/45 44/44/44 108/108/108
f 105/105/105 106/106/106 85/85/85
f 74/74/74 46/46/46 106/106/106
f 85/85/85 106/106/106 46/46/46
f 74/74/74 75/75/75 46/46/46
f 105/105/105 85/85/85 45/45/45
f 103/103/103 104/104/104 108/108/108
f 110/110/110 101/101/101 102/102/102
f 45/45/45 104/104/104 105/105/105
f 60/60/60 100/100/100 101/101/101
f 108/108/108 104/104/104 45/45/45
f 103/103/103 108/108/108 102/102/102
f 57/57/57 179/179/179 65/65/65
f 183/183/183 66/66/66 65/65/65
f 67/67/67 66/66/66 185/185/185
f 185/185/185 186/186/186 67/67/67
f 65/65/65 179/179/179 180/180/180
f 65/65/65 181/181/181 182/182/182
f 183/183/183 65/65/65 182/182/182
f 184/184/184 185/185/185 66/66/66
f 184/184/184 66/66/66 183/183/183
f 65/65/65 180/180/180 181/181/181
f 99/99/99 60/60/60 96/96/96
f 101/101/101 107/107/107 60/60/60
f 99/99/99 97/97/97 98/98/98
f 84/84/84 98/98/98 93/93/93
f 96/96/96 97/97/97 99/99/99
f 60/60/60 99/99/99 100/100/100
f 186/186/186 187/187/187 68/68/68
f 68/68/68 67/67/67 186/186/186
f 95/95/95 68/68/68 187/187/187
f 187/187/187 188/188/188 95/95/95
f 93/93/93 98/98/98 97/97/97
f 188/188/188 69/69/69 95/95/95
f 57/57/57 178/178/178 179/179/179
f 76/76/76 86/86/86 75/75/75
f 46/46/46 75/75/75 86/86/86
f 77/77/77 47/47/47 76/76/76
f 86/86/86 76/76/76 47/47/47
f 89/89/89 47/47/47 77/77/77
f 61/61/61 80/80/80 81/81/81
f 90/90/90 89/89/89 79/79/79
f 78/78/78 79/79/79 89/89/89
f 79/79/79 80/80/80 90/90/90
f 61/61/61 87/87/87 80/80/80
f 61/61/61 81/81/81 82/82/82
f 77/77/77 78/78/78 89/89/89
f 48/48/48 47/47/47 89/89/89
f 202/202/202 203/203/203 41/41/41
f 41/41/41 50/50/50 202/202/202
f 201/201/201 202/202/202 50/50/50
f 50/50/50 56/56/56 201/201/201
f 204/204/204 41/41/41 203/203/203
f 89/89/89 54/54/54 48/48/48
f 80/80/80 87/87/87 90/90/90
f 200/200/200 201/201/201 56/56/56
f 56/56/56 64/64/64 200/200/200
f 94/94/94 83/83/83 93/93/93
f 92/92/92 82/82/82 94/94/94
f 83/83/83 94/94/94 82/82/82
f 91/91/91 69/69/69 189/189/189
f 188/188/188 189/189/189 69/69/69
f 189/189/189 190/190/190 70/70/70
f 70/70/70 91/91/91 189/189/189
f 190/190/190 191/191/191 71/71/71
f 71/71/71 70/70/70 190/190/190
f 72/72/72 71/71/71 191/191/191
f 191/191/191 192/192/192 72/72/72
f 199/199/199 64/64/64 198/198/198
f 73/73/73 198/198/198 64/64/64
f 197/197/197 198/198/198 73/73/73
f 73/73/73 72/72/72 194/194/194
f 200/200/200 64/64/64 199/199/199
f 72/72/72 193/193/193 194/194/194
f 195/195/195 73/73/73 194/194/194
f 197/197/197 73/73/73 196/196/196
f 196/196/196 73/73/73 195/195/195
f 192/192/192 193/193/193 72/72/72
f 82/82/82 92/92/92 61/61/61
f 83/83/83 84/84/84 93/93/93
f 224/224/224 220/220/220 219/219/219
f 219/219/219 223/223/223 224/224/224
f 223/223/223 219/219/219 225/225/225
f 225/225/225 226/226/226 223/223/223
f 219/219/219 221/221/221 227/227/227
f 227/227/227 225/225/225 219/219/219
f 220/220/220 222/222/222 221/221/221
f 221/221/221 219/219/219 220/220/220
f 218/218/218 225/225/225 228/228/228
f 229/229/229 228/228/228 227/227/227
f 227/227/227 231/231/231 230/230/230
f 227/227/227 228/228/228 225/225/225
f 231/231/231 227/227/227 221/221/221
f 221/221/221 232/232/232 231/231/231
f 229/229/229 227/227/227 230/230/230
f 215/215/215 226/226/226 216/216/216
f 217/217/217 216/216/216 226/226/226
f 217/217/217 226/226/226 225/225/225
f 213/213/213 223/223/223 214/214/214
f 226/226/226 214/214/214 223/223/223
f 215/215/215 214/214/214 226/226/226
f 225/225/225 218/218/218 217/217/217
f 221/221/221 222/222/222 233/233/233
f 234/234/234 233/233/233 222/222/222
f 235/235/235 222/222/222 236/236/236
f 222/222/222 220/220/220 236/236/236
f 234/234/234 222/222/222 235/235/235
f 208/208/208 236/236/236 220/220/220
f 212/212/212 223/223/223 213/213/213
f 212/212/212 224/224/224 223/223/223
f 210/210/210 209/209/209 224/224/224
f 220/220/220 224/224/224 209/209/209
f 224/224/224 211/211/211 210/210/210
f 212/212/212 211/211/211 224/224/224
f 209/209/209 208/208/208 220/220/220
f 221/221/221 233/233/233 232/232/232
f 242/242/242 243/243/243 237/237/237
f 243/243/243 242/242/242 260/260/260
f 243/243/243 260/260/260 259/259/259
f 259/259/259 244/244/244 243/243/243
f 244/244/244 259/259/259 258/258/258
f 258/258/258 245/245/245 244/244/244
f 245/245/245 258/258/258 257/257/257
f 257/257/257 246/246/246 245/245/245
f 242/242/242 241/241/241 260/260/260
f 256/256/256 247/247/247 246/246/246
f 246/246/246 257/257/257 256/256/256
f 247/247/247 256/256/256 255/255/255
f 255/255/255 248/248/248 247/247/247
f 248/248/248 255/255/255 254/254/254
f 254/254/254 249/249/249 248/248/248
f 250/250/250 253/253/253 252/252/252
f 252/252/252 251/251/251 250/250/250
f 240/240/240 239/239/239 251/251/251
f 249/249/249 254/254/254 253/253/253
f 253/253/253 250/250/250 249/249/249
f 238/238/238 240/240/240 252/252/252
f 240/240/240 251/251/251 252/252/252
f 264/264/264 267/267/267 261/261/261
f 267/267/267 284/284/284 283/283/283
f 283/283/283 268/268/268 267/267/267
f 269/269/269 282/282/282 281/281/281
f 281/281/281 270/270/270 269/269/269
f 270/270/270 281/281/281 280/280/280
f 280/280/280 271/271/271 270/270/270
f 268/268/268 283/283/283 282/282/282
f 282/282/282 269/269/269 268/268/268
f 263/263/263 284/284/284 264/264/264
f 284/284/284 267/267/267 264/264/264
f 272/272/272 279/279/279 278/278/278
f 278/278/278 273/273/273 272/272/272
f 273/273/273 278/278/278 277/277/277
f 277/277/277 274/274/274 273/273/273
f 266/266/266 265/265/265 275/275/275
f 274/274/274 277/277/277 276/276/276
f 276/276/276 275/275/275 274/274/274
f 276/276/276 266/266/266 275/275/275
f 279/279/279 272/272/272 271/271/271
f 271/271/271 280/280/280 279/279/279
f 266/266/266 276/276/276 262/262/262
f 301/301/301 300/300/300 296/296/296
f 296/296/296 297/297/297 301/301/301
f 300/300/300 303/303/303 302/302/302
f 302/302/302 296/296/296 300/300/300
f 296/296/296 302/302/302 304/304/304
f 304/304/304 298/298/298 296/296/296
f 297/297/297 296/296/296 298/298/298
f 298/298/298 299/299/299 297/297/297
f 295/295/295 305/305/305 302/302/302
f 306/306/306 304/304/304 305/305/305
f 298/298/298 304/304/304 308/308/308
f 306/306/306 307/307/307 304/304/304
f 308/308/308 304/304/304 307/307/307
f 304/304/304 302/302/302 305/305/305
f 292/292/292 293/293/293 303/303/303
f 294/294/294 303/303/303 293/293/293
f 294/294/294 302/302/302 303/303/303
f 303/303/303 300/300/300 291/291/291
f 291/291/291 300/300/300 290/290/290
f 292/292/292 303/303/303 291/291/291
f 302/302/302 294/294/294 295/295/295
f 308/308/308 309/309/309 298/298/298
f 299/299/299 298/298/298 310/310/310
f 309/309/309 310/310/310 298/298/298
f 311/311/311 299/299/299 310/310/310
f 299/299/299 312/312/312 313/313/313
f 299/299/299 313/313/313 297/297/297
f 312/312/312 299/299/299 311/311/311
f 313/313/313 285/285/285 297/297/297
f 301/301/301 289/289/289 300/300/300
f 290/290/290 300/300/300 289/289/289
f 287/287/287 301/301/301 286/286/286
f 297/297/297 286/286/286 301/301/301
f 301/301/301 287/287/287 288/288/288
f 289/289/289 301/301/301 288/288/288
f 286/286/286 297/297/297 285/285/285
f 319/319/319 320/320/320 314/314/314
f 320/320/320 319/319/319 337/337/337
f 320/320/320 337/337/337 336/336/336
f 336/336/336 321/321/321 320/320/320
f 321/321/321 336/336/336 335/335/335
f 335/335/335 322/322/322 321/321/321
f 322/322/322 335/335/335 334/334/334
f 334/334/334 323/323/323 322/322/322
f 319/319/319 318/318/318 337/337/337
f 333/333/333 324/324/324 323/323/323
f 323/323/323 334/334/334 333/333/333
f 324/324/324 333/333/333 332/332/332
f 332/332/332 325/325/325 324/324/324
f 325/325/325 332/332/332 331/331/331
f 331/331/331 326/326/326 325/325/325
f 327/327/327 330/330/330 329/329/329
f 329/329/329 328/328/328 327/327/327
f 317/317/317 316/316/316 328/328/328
f 326/326/326 331/331/331 330/330/330
f 330/330/330 327/327/327 326/326/326
f 315/315/315 317/317/317 329/329/329
f 317/317/317 328/328/328 329/329/329
f 341/341/341 344/344/344 338/338/338
f 344/344/344 361/361/361 360/360/360
f 360/360/360 345/345/345 344/344/344
f 346/346/346 359/359/359 358/358/358
f 358/358/358 347/347/347 346/346/346
f 347/347/347 358/358/358 357/357/357
f 357/357/357 348/348/348 347/347/347
f 345/345/345 360/360/360 359/359/359
f 359/359/359 346/346/346 345/345/345
f 340/340/340 361/361/361 341/341/341
f 361/361/361 344/344/344 341/341/341
f 349/349/349 356/356/356 355/355/355
f 355/355/355 350/350/350 349/349/349
f 350/350/350 355/355/355 354/354/354
f 354/354/354 351/351/351 350/350/350
f 343/343/343 342/342/342 352/352/352
f 351/351/351 354/354/354 353/353/353
f 353/353/353 352/352/352 351/351/351
f 353/353/353 343/343/343 352/352/352
f 356/356/356 349/349/349 348/348/348
f 348/348/348 357/357/357 356/356/356
f 343/343/343 353/353/353 339/339/339

