mtllib material.mtl
usemtl ??_(11).003
v 0.08990100 -0.05716800 -0.02006500
v 0.08817000 -0.05404600 -0.02006500
v 0.08644000 -0.05092400 -0.02006400
v 0.08990700 -0.05716700 -0.00016900
v 0.08817600 -0.05404500 -0.00016800
v 0.08644500 -0.05092300 -0.00016800
v 0.08991200 -0.05716600 0.01972800
v 0.08818200 -0.05404400 0.01972800
v 0.08645100 -0.05092200 0.01972800
v 0.09157000 -0.06016700 -0.00016900
v 0.09157300 -0.06016700 0.01078500
v 0.09157600 -0.06016600 0.02174000
v 0.09157700 -0.06016600 0.02721700
v 0.09157800 -0.06016600 0.02995500
v 0.09157800 -0.06016600 0.03132500
v 0.09157900 -0.06016600 0.03200900
v 0.09157800 -0.06016500 0.03235100
v 0.09157700 -0.06016300 0.03252300
v 0.09157500 -0.06015900 0.03269400
v 0.09157100 -0.06015200 0.03286500
v 0.09156600 -0.06014300 0.03303600
v 0.09155200 -0.06011600 0.03337600
v 0.09150200 -0.06002700 0.03405300
v 0.09131600 -0.05968900 0.03536500
v 0.09100900 -0.05913500 0.03657600
v 0.09058900 -0.05837600 0.03763300
v 0.09007300 -0.05744500 0.03849000
v 0.08948400 -0.05638200 0.03911700
v 0.08884700 -0.05523400 0.03949700
v 0.08851900 -0.05464100 0.03959300
v 0.08818700 -0.05404300 0.03962500
v 0.08802100 -0.05374400 0.03961700
v 0.08785600 -0.05344500 0.03959300
v 0.08752700 -0.05285200 0.03949700
v 0.08689000 -0.05170400 0.03911700
v 0.08658800 -0.05115900 0.03883400
v 0.08644300 -0.05089600 0.03866900
v 0.08630100 -0.05064100 0.03849000
v 0.08578500 -0.04971000 0.03763400
v 0.08536400 -0.04895100 0.03657700
v 0.08505600 -0.04839700 0.03536600
v 0.08486900 -0.04806000 0.03405400
v 0.08481900 -0.04797000 0.03337800
v 0.08479600 -0.04792800 0.03269500
v 0.08479200 -0.04792200 0.03235300
v 0.08479100 -0.04792100 0.03201100
v 0.08479100 -0.04792100 0.03132600
v 0.08479100 -0.04792100 0.02995700
v 0.08479000 -0.04792100 0.02721800
v 0.08478900 -0.04792100 0.02174100
v 0.08478600 -0.04792200 0.01078700
v 0.08478200 -0.04792300 -0.00016800
v 0.08477900 -0.04792300 -0.01112200
v 0.08477600 -0.04792400 -0.02207600
v 0.08477500 -0.04792400 -0.02755300
v 0.08477400 -0.04792400 -0.03029200
v 0.08477400 -0.04792400 -0.03166100
v 0.08477300 -0.04792400 -0.03234600
v 0.08477400 -0.04792500 -0.03268800
v 0.08477700 -0.04793100 -0.03303000
v 0.08478600 -0.04794700 -0.03337200
v 0.08480000 -0.04797400 -0.03371300
v 0.08485000 -0.04806300 -0.03439000
v 0.08503600 -0.04840100 -0.03570100
v 0.08534300 -0.04895500 -0.03691300
v 0.08576300 -0.04971400 -0.03796900
v 0.08588400 -0.04993200 -0.03820400
v 0.08601100 -0.05016000 -0.03842500
v 0.08614300 -0.05039800 -0.03863300
v 0.08628000 -0.05064500 -0.03882600
v 0.08686800 -0.05170800 -0.03945300
v 0.08750500 -0.05285700 -0.03983400
v 0.08783300 -0.05344900 -0.03992900
v 0.08799900 -0.05374800 -0.03995300
v 0.08816500 -0.05404700 -0.03996100
v 0.08833100 -0.05434700 -0.03995300
v 0.08849600 -0.05464500 -0.03992900
v 0.08882500 -0.05523800 -0.03983400
v 0.08946200 -0.05638600 -0.03945300
v 0.09005100 -0.05744900 -0.03882700
v 0.09056700 -0.05838000 -0.03797000
v 0.09098800 -0.05913900 -0.03691400
v 0.09129600 -0.05969300 -0.03570300
v 0.09148300 -0.06003000 -0.03439100
v 0.09153300 -0.06012000 -0.03371400
v 0.09155600 -0.06016200 -0.03303100
v 0.09156000 -0.06016800 -0.03268900
v 0.09156100 -0.06016900 -0.03234700
v 0.09156100 -0.06016900 -0.03166200
v 0.09156100 -0.06016900 -0.03029300
v 0.09156200 -0.06016900 -0.02755400
v 0.09156300 -0.06016900 -0.02207700
v 0.09156700 -0.06016800 -0.01112300
v 0.08991500 -0.05716600 0.02967600
v 0.09077800 -0.05872800 0.01972800
v 0.09078100 -0.05872700 0.02967600
v 0.09078200 -0.05872700 0.03465000
v 0.09121300 -0.05950800 0.02967600
v 0.09121500 -0.05950700 0.03465000
v 0.09121400 -0.05950800 0.03216300
v 0.09143000 -0.05989800 0.02967600
v 0.09143000 -0.05989800 0.03216300
v 0.09077900 -0.05872700 0.02470200
v 0.09121000 -0.05950800 0.01972800
v 0.09121200 -0.05950800 0.02470200
v 0.08991000 -0.05716700 0.00978000
v 0.09077200 -0.05872900 -0.00016900
v 0.09077500 -0.05872800 0.00977900
v 0.09153800 -0.06009300 0.03216300
v 0.09143000 -0.05989800 0.03091900
v 0.09153800 -0.06009300 0.02967600
v 0.09153800 -0.06009300 0.03091900
v 0.09121300 -0.05950800 0.02718900
v 0.09142800 -0.05989800 0.02470200
v 0.09142900 -0.05989800 0.02718900
v 0.08991700 -0.05716600 0.03465000
v 0.09034800 -0.05794600 0.02967600
v 0.09034900 -0.05794600 0.03465000
v 0.08818400 -0.05404300 0.02967600
v 0.08904700 -0.05560500 0.01972800
v 0.08905000 -0.05560500 0.02967600
v 0.08905100 -0.05560400 0.03465000
v 0.08948200 -0.05638500 0.02967600
v 0.08948400 -0.05638500 0.03465000
v 0.08818600 -0.05404300 0.03465000
v 0.08861700 -0.05482400 0.02967600
v 0.08861900 -0.05482400 0.03465000
v 0.08645400 -0.05092100 0.02967700
v 0.08731600 -0.05248300 0.01972800
v 0.08731900 -0.05248200 0.02967700
v 0.08861900 -0.05482400 0.03713700
v 0.08883500 -0.05521400 0.03465000
v 0.08905200 -0.05560400 0.03713700
v 0.08883600 -0.05521400 0.03713700
v 0.08818700 -0.05404300 0.03713800
v 0.08840200 -0.05443300 0.03465000
v 0.08840300 -0.05443300 0.03713700
v 0.08732000 -0.05248200 0.03465100
v 0.08775200 -0.05326300 0.02967600
v 0.08775300 -0.05326300 0.03465100
v 0.08775400 -0.05326200 0.03713800
v 0.08796900 -0.05365300 0.03465000
v 0.08797000 -0.05365300 0.03713800
v 0.08797100 -0.05365300 0.03838100
v 0.08807800 -0.05384800 0.03713800
v 0.08818700 -0.05404300 0.03838100
v 0.08807900 -0.05384800 0.03838100
v 0.08775400 -0.05326200 0.03838100
v 0.08786200 -0.05345800 0.03713800
v 0.08786200 -0.05345800 0.03838100
v 0.08732100 -0.05248200 0.03713800
v 0.08753700 -0.05287200 0.03465100
v 0.08753800 -0.05287200 0.03713800
v 0.08645500 -0.05092100 0.03465100
v 0.08688600 -0.05170200 0.02967700
v 0.08688800 -0.05170100 0.03465100
v 0.08558600 -0.04936000 0.01972900
v 0.08558800 -0.04936000 0.02967700
v 0.08688800 -0.05170100 0.03713800
v 0.08710400 -0.05209200 0.03465100
v 0.08710500 -0.05209200 0.03713800
v 0.08645600 -0.05092100 0.03713800
v 0.08667100 -0.05131100 0.03465100
v 0.08667200 -0.05131100 0.03713800
v 0.08559000 -0.04936000 0.03465100
v 0.08602100 -0.05014000 0.02967700
v 0.08602200 -0.05014000 0.03465100
v 0.08656400 -0.05111600 0.03713800
v 0.08667200 -0.05131100 0.03838100
v 0.08656400 -0.05111600 0.03838100
v 0.08602300 -0.05014000 0.03713800
v 0.08623900 -0.05053000 0.03465100
v 0.08623900 -0.05053000 0.03713800
v 0.08634800 -0.05072500 0.03713800
v 0.08634800 -0.05072500 0.03838100
v 0.08515600 -0.04857900 0.02967700
v 0.08515700 -0.04857900 0.03465100
v 0.08493900 -0.04818900 0.02967700
v 0.08515600 -0.04857900 0.03216400
v 0.08494000 -0.04818900 0.03216400
v 0.08515300 -0.04858000 0.01972900
v 0.08558700 -0.04936000 0.02470300
v 0.08515400 -0.04857900 0.02470300
v 0.08558000 -0.04936100 -0.00016800
v 0.08644800 -0.05092200 0.00978000
v 0.08558300 -0.04936100 0.00978000
v 0.08483200 -0.04799400 0.03216400
v 0.08483100 -0.04799400 0.02967700
v 0.08494000 -0.04818900 0.03092000
v 0.08483100 -0.04799400 0.03092100
v 0.08493800 -0.04818900 0.02470300
v 0.08515500 -0.04857900 0.02719000
v 0.08493900 -0.04818900 0.02719000
v 0.08557400 -0.04936200 -0.02006400
v 0.08643700 -0.05092400 -0.03001200
v 0.08557200 -0.04936300 -0.03001200
v 0.08513900 -0.04858200 -0.03001200
v 0.08557000 -0.04936300 -0.03498600
v 0.08513700 -0.04858300 -0.03498600
v 0.08492200 -0.04819200 -0.03001200
v 0.08513800 -0.04858300 -0.03249900
v 0.08492200 -0.04819200 -0.03249900
v 0.08514200 -0.04858200 -0.02006400
v 0.08557300 -0.04936300 -0.02503800
v 0.08514000 -0.04858200 -0.02503800
v 0.08644200 -0.05092300 -0.01011600
v 0.08557700 -0.04936200 -0.01011600
v 0.08481400 -0.04799700 -0.03001200
v 0.08481400 -0.04799700 -0.03249900
v 0.08492200 -0.04819200 -0.03125600
v 0.08481400 -0.04799700 -0.03125600
v 0.08492400 -0.04819200 -0.02503800
v 0.08514000 -0.04858200 -0.02752500
v 0.08492300 -0.04819200 -0.02752500
v 0.08600400 -0.05014400 -0.03001200
v 0.08643500 -0.05092400 -0.03498700
v 0.08600300 -0.05014400 -0.03498700
v 0.08730500 -0.05248500 -0.02006400
v 0.08816800 -0.05404700 -0.03001300
v 0.08730200 -0.05248500 -0.03001300
v 0.08578600 -0.04975400 -0.03498600
v 0.08600200 -0.05014400 -0.03747400
v 0.08578600 -0.04975400 -0.03747400
v 0.08535400 -0.04897300 -0.03498600
v 0.08589400 -0.04994900 -0.03747400
v 0.08621900 -0.05053400 -0.03498700
v 0.08643500 -0.05092500 -0.03747400
v 0.08621800 -0.05053400 -0.03747400
v 0.08687000 -0.05170500 -0.03001300
v 0.08730100 -0.05248600 -0.03498700
v 0.08686800 -0.05170500 -0.03498700
v 0.08611000 -0.05033900 -0.03747400
v 0.08632700 -0.05072900 -0.03747400
v 0.08643400 -0.05092500 -0.03871700
v 0.08632600 -0.05073000 -0.03871700
v 0.08665200 -0.05131500 -0.03498700
v 0.08686700 -0.05170500 -0.03747400
v 0.08665100 -0.05131500 -0.03747400
v 0.08773500 -0.05326600 -0.03001300
v 0.08816600 -0.05404700 -0.03498700
v 0.08773400 -0.05326600 -0.03498700
v 0.08903600 -0.05560700 -0.02006500
v 0.08989800 -0.05716900 -0.03001300
v 0.08903300 -0.05560800 -0.03001300
v 0.08751700 -0.05287600 -0.03498700
v 0.08730000 -0.05248600 -0.03747400
v 0.08773300 -0.05326600 -0.03747400
v 0.08751600 -0.05287600 -0.03747400
v 0.08795000 -0.05365700 -0.03498700
v 0.08816600 -0.05404700 -0.03747400
v 0.08794900 -0.05365700 -0.03747400
v 0.08860000 -0.05482700 -0.03001300
v 0.08903200 -0.05560800 -0.03498700
v 0.08859900 -0.05482700 -0.03498700
v 0.08784100 -0.05346200 -0.03747400
v 0.08773200 -0.05326600 -0.03871700
v 0.08794900 -0.05365700 -0.03871700
v 0.08784100 -0.05346200 -0.03871700
v 0.08805700 -0.05385200 -0.03747400
v 0.08816500 -0.05404700 -0.03871700
v 0.08805700 -0.05385200 -0.03871700
v 0.08838300 -0.05443700 -0.03498700
v 0.08859800 -0.05482800 -0.03747400
v 0.08838200 -0.05443700 -0.03747400
v 0.08827400 -0.05424200 -0.03747400
v 0.08838200 -0.05443700 -0.03871800
v 0.08827300 -0.05424200 -0.03871800
v 0.08849000 -0.05463200 -0.03747400
v 0.08859800 -0.05482800 -0.03871800
v 0.08849000 -0.05463300 -0.03871800
v 0.08881500 -0.05521800 -0.03498700
v 0.08903100 -0.05560800 -0.03747400
v 0.08881500 -0.05521800 -0.03747400
v 0.08946600 -0.05638800 -0.03001300
v 0.08989700 -0.05716900 -0.03498700
v 0.08946400 -0.05638900 -0.03498700
v 0.09076700 -0.05873000 -0.02006500
v 0.09076400 -0.05873000 -0.03001300
v 0.09033100 -0.05795000 -0.03001300
v 0.09076200 -0.05873000 -0.03498700
v 0.09033000 -0.05795000 -0.03498700
v 0.09119600 -0.05951100 -0.03001300
v 0.09119500 -0.05951100 -0.03498700
v 0.09141300 -0.05990100 -0.03001300
v 0.09119600 -0.05951100 -0.03250000
v 0.09141200 -0.05990100 -0.03250000
v 0.09119900 -0.05951000 -0.02006500
v 0.09076500 -0.05873000 -0.02503900
v 0.09119800 -0.05951100 -0.02503900
v 0.08990400 -0.05716800 -0.01011700
v 0.09076900 -0.05872900 -0.01011700
v 0.09152000 -0.06009600 -0.03250000
v 0.09141200 -0.05990100 -0.03374400
v 0.09152100 -0.06009600 -0.03001300
v 0.09141200 -0.05990100 -0.03125700
v 0.09152100 -0.06009600 -0.03125700
v 0.09141400 -0.05990100 -0.02503900
v 0.09119700 -0.05951100 -0.02752600
v 0.09141300 -0.05990100 -0.02752600
vn 0.87470000 0.48480000 -0.00030000
vn 0.87460000 0.48490000 -0.00030000
vn 0.87460000 0.48480000 -0.00020000
vn 0.87470000 0.48470000 -0.00030000
vn 0.87460000 0.48490000 -0.00030000
vn 0.87470000 0.48470000 -0.00030000
vn 0.87460000 0.48480000 -0.00020000
vn 0.87460000 0.48490000 -0.00030000
vn 0.87450000 0.48500000 -0.00030000
vn 0.87470000 0.48470000 -0.00030000
vn 0.87460000 0.48490000 -0.00020000
vn 0.87470000 0.48470000 -0.00030000
vn 0.87460000 0.48480000 -0.00030000
vn 0.87460000 0.48480000 -0.00030000
vn 0.87460000 0.48480000 -0.00030000
vn 0.87470000 0.48470000 -0.00030000
vn 0.87470000 0.48470000 -0.00030000
vn 0.87460000 0.48490000 -0.00030000
vn 0.87460000 0.48480000 -0.00030000
vn 0.87460000 0.48480000 -0.00030000
vn 0.87450000 0.48500000 -0.00030000
vn 0.87470000 0.48470000 -0.00030000
vn 0.87460000 0.48480000 -0.00030000
vn 0.87470000 0.48460000 -0.00020000
vn 0.87460000 0.48480000 -0.00040000
vn 0.87470000 0.48470000 -0.00020000
vn 0.87460000 0.48490000 -0.00030000
vn 0.87450000 0.48500000 -0.00020000
vn 0.87470000 0.48470000 -0.00030000
vn 0.87470000 0.48470000 -0.00030000
vn 0.87460000 0.48480000 -0.00030000
vn 0.87460000 0.48480000 -0.00030000
vn 0.87460000 0.48480000 -0.00030000
vn 0.87460000 0.48480000 -0.00030000
vn 0.87470000 0.48470000 -0.00040000
vn 0.87460000 0.48480000 -0.00030000
vn 0.87460000 0.48480000 -0.00030000
vn 0.87460000 0.48480000 -0.00030000
vn 0.87460000 0.48490000 -0.00030000
vn 0.87460000 0.48490000 -0.00030000
vn 0.87460000 0.48480000 -0.00030000
vn 0.87460000 0.48480000 -0.00030000
vn 0.87470000 0.48470000 -0.00030000
vn 0.87470000 0.48470000 -0.00030000
vn 0.87450000 0.48490000 -0.00030000
vn 0.87460000 0.48490000 -0.00030000
vn 0.87460000 0.48480000 -0.00030000
vn 0.87460000 0.48480000 -0.00030000
vn 0.87460000 0.48480000 -0.00030000
vn 0.87460000 0.48490000 -0.00030000
vn 0.87450000 0.48490000 -0.00030000
vn 0.87470000 0.48470000 -0.00030000
vn 0.87460000 0.48490000 -0.00020000
vn 0.87460000 0.48480000 -0.00030000
vn 0.87460000 0.48480000 -0.00030000
vn 0.87460000 0.48480000 -0.00030000
vn 0.87460000 0.48490000 -0.00030000
vn 0.87460000 0.48480000 -0.00030000
vn 0.87460000 0.48490000 -0.00030000
vn 0.87460000 0.48480000 -0.00030000
vn 0.87460000 0.48480000 -0.00030000
vn 0.87460000 0.48480000 -0.00030000
vn 0.87460000 0.48490000 -0.00030000
vn 0.87470000 0.48470000 -0.00020000
vn 0.87460000 0.48490000 -0.00010000
vn 0.87460000 0.48480000 -0.00030000
vn 0.87460000 0.48480000 -0.00030000
vn 0.87460000 0.48480000 -0.00030000
vn 0.87460000 0.48480000 -0.00010000
vn 0.87460000 0.48480000 -0.00030000
vn 0.87460000 0.48480000 -0.00040000
vn 0.87460000 0.48480000 -0.00030000
vn 0.87460000 0.48480000 -0.00030000
vn 0.87460000 0.48490000 -0.00030000
vn 0.87460000 0.48490000 -0.00040000
vn 0.87450000 0.48490000 -0.00020000
vn 0.87460000 0.48480000 -0.00030000
vn 0.87470000 0.48470000 -0.00030000
vn 0.87460000 0.48490000 -0.00020000
vn 0.87460000 0.48490000 -0.00030000
vn 0.87480000 0.48460000 -0.00030000
vn 0.87460000 0.48480000 -0.00030000
vn 0.87460000 0.48480000 -0.00030000
vn 0.87460000 0.48490000 -0.00030000
vn 0.87460000 0.48480000 -0.00030000
vn 0.87460000 0.48490000 -0.00030000
vn 0.87460000 0.48490000 -0.00030000
vn 0.87460000 0.48480000 -0.00030000
vn 0.87460000 0.48480000 -0.00030000
vn 0.87460000 0.48490000 -0.00030000
vn 0.87460000 0.48480000 -0.00030000
vn 0.87460000 0.48490000 -0.00030000
vn 0.87460000 0.48480000 -0.00030000
vn 0.87480000 0.48450000 -0.00030000
vn 0.87470000 0.48470000 -0.00030000
vn 0.87460000 0.48480000 -0.00030000
vn 0.87470000 0.48470000 -0.00030000
vn 0.87460000 0.48490000 -0.00020000
vn 0.87470000 0.48470000 -0.00040000
vn 0.87460000 0.48480000 -0.00030000
vn 0.87460000 0.48480000 -0.00030000
vn 0.87480000 0.48450000 -0.00030000
vn 0.87460000 0.48480000 -0.00030000
vn 0.87470000 0.48460000 -0.00030000
vn 0.87470000 0.48460000 -0.00030000
vn 0.87460000 0.48480000 -0.00030000
vn 0.87460000 0.48490000 -0.00030000
vn 0.87460000 0.48480000 -0.00030000
vn 0.87460000 0.48480000 -0.00030000
vn 0.87460000 0.48490000 -0.00010000
vn 0.87460000 0.48480000 -0.00030000
vn 0.87460000 0.48480000 -0.00030000
vn 0.87460000 0.48490000 -0.00030000
vn 0.87450000 0.48490000 -0.00030000
vn 0.87470000 0.48470000 -0.00030000
vn 0.87460000 0.48480000 -0.00030000
vn 0.87470000 0.48470000 -0.00030000
vn 0.87460000 0.48480000 -0.00030000
vn 0.87470000 0.48470000 -0.00020000
vn 0.87470000 0.48470000 -0.00030000
vn 0.87470000 0.48470000 -0.00030000
vn 0.87470000 0.48460000 -0.00030000
vn 0.87470000 0.48470000 -0.00030000
vn 0.87460000 0.48480000 -0.00030000
vn 0.87460000 0.48490000 -0.00030000
vn 0.87460000 0.48490000 -0.00030000
vn 0.87460000 0.48490000 -0.00030000
vn 0.87460000 0.48490000 -0.00030000
vn 0.87460000 0.48490000 -0.00030000
vn 0.87470000 0.48470000 -0.00030000
vn 0.87460000 0.48480000 -0.00020000
vn 0.87470000 0.48470000 -0.00030000
vn 0.87470000 0.48470000 -0.00020000
vn 0.87460000 0.48480000 -0.00030000
vn 0.87470000 0.48470000 -0.00030000
vn 0.87470000 0.48470000 -0.00030000
vn 0.87460000 0.48480000 -0.00030000
vn 0.87470000 0.48470000 -0.00030000
vn 0.87450000 0.48500000 -0.00040000
vn 0.87460000 0.48490000 -0.00030000
vn 0.87460000 0.48490000 -0.00030000
vn 0.87460000 0.48480000 -0.00030000
vn 0.87470000 0.48460000 -0.00010000
vn 0.87460000 0.48480000 -0.00030000
vn 0.87460000 0.48480000 -0.00030000
vn 0.87470000 0.48470000 -0.00050000
vn 0.87450000 0.48500000 -0.00020000
vn 0.87460000 0.48480000 -0.00030000
vn 0.87460000 0.48480000 -0.00030000
vn 0.87460000 0.48480000 -0.00050000
vn 0.87470000 0.48470000 -0.00030000
vn 0.87470000 0.48470000 -0.00030000
vn 0.87450000 0.48500000 -0.00030000
vn 0.87460000 0.48480000 -0.00030000
vn 0.87450000 0.48500000 -0.00030000
vn 0.87460000 0.48490000 -0.00030000
vn 0.87460000 0.48490000 -0.00030000
vn 0.87470000 0.48470000 -0.00020000
vn 0.87460000 0.48490000 -0.00010000
vn 0.87460000 0.48490000 -0.00030000
vn 0.87450000 0.48500000 -0.00040000
vn 0.87460000 0.48480000 -0.00030000
vn 0.87460000 0.48480000 -0.00030000
vn 0.87460000 0.48490000 -0.00040000
vn 0.87460000 0.48480000 -0.00030000
vn 0.87470000 0.48470000 -0.00030000
vn 0.87470000 0.48480000 -0.00030000
vn 0.87460000 0.48480000 -0.00030000
vn 0.87470000 0.48460000 -0.00020000
vn 0.87460000 0.48480000 -0.00030000
vn 0.87470000 0.48470000 -0.00030000
vn 0.87470000 0.48470000 -0.00020000
vn 0.87460000 0.48480000 -0.00030000
vn 0.87450000 0.48500000 -0.00020000
vn 0.87460000 0.48480000 -0.00030000
vn 0.87460000 0.48480000 -0.00030000
vn 0.87470000 0.48470000 -0.00030000
vn 0.87470000 0.48480000 -0.00030000
vn 0.87460000 0.48490000 -0.00030000
vn 0.87470000 0.48470000 -0.00040000
vn 0.87450000 0.48500000 -0.00030000
vn 0.87460000 0.48490000 -0.00030000
vn 0.87470000 0.48480000 -0.00030000
vn 0.87460000 0.48490000 -0.00030000
vn 0.87450000 0.48500000 -0.00030000
vn 0.87470000 0.48470000 -0.00030000
vn 0.87460000 0.48480000 -0.00030000
vn 0.87460000 0.48480000 -0.00030000
vn 0.87450000 0.48500000 -0.00030000
vn 0.87460000 0.48480000 -0.00030000
vn 0.87460000 0.48480000 -0.00030000
vn 0.87470000 0.48470000 -0.00020000
vn 0.87470000 0.48480000 -0.00030000
vn 0.87470000 0.48470000 -0.00030000
vn 0.87470000 0.48470000 -0.00030000
vn 0.87460000 0.48490000 -0.00030000
vn 0.87460000 0.48490000 -0.00030000
vn 0.87470000 0.48470000 -0.00030000
vn 0.87460000 0.48480000 -0.00030000
vn 0.87460000 0.48490000 -0.00030000
vn 0.87450000 0.48490000 -0.00030000
vn 0.87460000 0.48490000 -0.00030000
vn 0.87470000 0.48470000 -0.00030000
vn 0.87470000 0.48470000 -0.00020000
vn 0.87460000 0.48490000 -0.00020000
vn 0.87460000 0.48480000 -0.00030000
vn 0.87460000 0.48480000 -0.00030000
vn 0.87460000 0.48480000 -0.00030000
vn 0.87470000 0.48470000 -0.00030000
vn 0.87450000 0.48490000 -0.00040000
vn 0.87460000 0.48480000 -0.00030000
vn 0.87460000 0.48480000 -0.00020000
vn 0.87460000 0.48490000 -0.00030000
vn 0.87470000 0.48460000 -0.00030000
vn 0.87470000 0.48470000 -0.00030000
vn 0.87460000 0.48480000 -0.00020000
vn 0.87460000 0.48480000 -0.00030000
vn 0.87450000 0.48500000 -0.00040000
vn 0.87470000 0.48470000 -0.00020000
vn 0.87470000 0.48470000 -0.00030000
vn 0.87460000 0.48480000 -0.00020000
vn 0.87450000 0.48500000 -0.00030000
vn 0.87460000 0.48480000 -0.00030000
vn 0.87460000 0.48480000 -0.00030000
vn 0.87450000 0.48490000 -0.00020000
vn 0.87460000 0.48490000 -0.00030000
vn 0.87460000 0.48480000 -0.00030000
vn 0.87460000 0.48480000 -0.00030000
vn 0.87470000 0.48470000 -0.00030000
vn 0.87460000 0.48490000 -0.00030000
vn 0.87470000 0.48460000 -0.00030000
vn 0.87470000 0.48480000 -0.00030000
vn 0.87460000 0.48480000 -0.00030000
vn 0.87460000 0.48480000 -0.00030000
vn 0.87460000 0.48480000 -0.00030000
vn 0.87460000 0.48480000 -0.00030000
vn 0.87450000 0.48500000 -0.00030000
vn 0.87460000 0.48490000 -0.00020000
vn 0.87460000 0.48490000 -0.00030000
vn 0.87450000 0.48500000 -0.00030000
vn 0.87460000 0.48490000 -0.00030000
vn 0.87460000 0.48490000 -0.00030000
vn 0.87450000 0.48500000 -0.00030000
vn 0.87450000 0.48500000 -0.00030000
vn 0.87460000 0.48480000 -0.00030000
vn 0.87470000 0.48470000 -0.00030000
vn 0.87460000 0.48480000 -0.00000000
vn 0.87460000 0.48490000 -0.00030000
vn 0.87470000 0.48470000 -0.00030000
vn 0.87470000 0.48470000 -0.00030000
vn 0.87460000 0.48490000 -0.00030000
vn 0.87450000 0.48500000 -0.00040000
vn 0.87470000 0.48470000 -0.00030000
vn 0.87460000 0.48480000 -0.00030000
vn 0.87460000 0.48490000 -0.00030000
vn 0.87460000 0.48480000 -0.00030000
vn 0.87460000 0.48480000 -0.00030000
vn 0.87460000 0.48480000 -0.00040000
vn 0.87460000 0.48480000 -0.00030000
vn 0.87470000 0.48470000 -0.00030000
vn 0.87450000 0.48500000 -0.00020000
vn 0.87470000 0.48470000 -0.00030000
vn 0.87450000 0.48500000 -0.00030000
vn 0.87470000 0.48470000 -0.00030000
vn 0.87450000 0.48500000 -0.00040000
vn 0.87450000 0.48510000 -0.00040000
vn 0.87470000 0.48470000 -0.00030000
vn 0.87460000 0.48480000 -0.00030000
vn 0.87470000 0.48470000 -0.00030000
vn 0.87460000 0.48480000 -0.00030000
vn 0.87450000 0.48500000 -0.00020000
vn 0.87460000 0.48480000 -0.00020000
vn 0.87460000 0.48480000 -0.00030000
vn 0.87470000 0.48470000 -0.00030000
vn 0.87460000 0.48490000 -0.00020000
vn 0.87470000 0.48470000 -0.00020000
vn 0.87470000 0.48470000 -0.00030000
vn 0.87470000 0.48470000 -0.00020000
vn 0.87470000 0.48470000 -0.00030000
vn 0.87460000 0.48480000 -0.00030000
vn 0.87460000 0.48480000 -0.00030000
vn 0.87460000 0.48480000 -0.00030000
vn 0.87460000 0.48480000 -0.00030000
vn 0.87460000 0.48480000 -0.00030000
vn 0.87470000 0.48470000 -0.00020000
vn 0.87470000 0.48470000 -0.00050000
vn 0.87460000 0.48490000 -0.00030000
vn 0.87460000 0.48480000 -0.00030000
vn 0.87470000 0.48460000 -0.00030000
vn 0.87470000 0.48470000 -0.00030000
vn 0.87460000 0.48490000 -0.00030000
vn 0.87460000 0.48480000 -0.00030000
vn 0.87470000 0.48470000 -0.00030000
vn 0.87460000 0.48480000 -0.00030000
vn 0.87460000 0.48490000 -0.00030000
vn 0.87460000 0.48480000 -0.00030000
vn 0.87450000 0.48500000 -0.00030000
vn 0.87450000 0.48500000 -0.00040000
vn 0.87470000 0.48470000 -0.00030000
vt 0.25000000 0.25000000
vt 0.25000000 0.50000000
vt 0.25000000 0.75000000
vt 0.50000000 0.25000000
vt 0.50000000 0.50000000
vt 0.50000000 0.75000000
vt 0.75000000 0.25000000
vt 0.75000000 0.50000000
vt 0.75000000 0.75000000
vt 0.50000000 0.00980400
vt 0.63764100 0.00980400
vt 0.77528200 0.00980400
vt 0.84410000 0.00980400
vt 0.87851200 0.00980400
vt 0.89571800 0.00980400
vt 0.90431900 0.00980400
vt 0.90862100 0.00986200
vt 0.91077100 0.01003700
vt 0.91292100 0.01037200
vt 0.91506800 0.01089400
vt 0.91721700 0.01162200
vt 0.92149900 0.01374900
vt 0.93000100 0.02092400
vt 0.94648400 0.04794000
vt 0.96170400 0.09231900
vt 0.97498000 0.15304900
vt 0.98574400 0.22762500
vt 0.99361900 0.31270800
vt 0.99839900 0.40466500
vt 0.99960000 0.45212500
vt 1.00000000 0.50000800
vt 0.99990000 0.52395600
vt 0.99960000 0.54787200
vt 0.99839900 0.59532800
vt 0.99361900 0.68729000
vt 0.99005900 0.73091900
vt 0.98799500 0.75194700
vt 0.98574500 0.77237100
vt 0.97498000 0.84695200
vt 0.96170400 0.90767800
vt 0.94648400 0.95205900
vt 0.93000400 0.97907300
vt 0.92150100 0.98625000
vt 0.91292100 0.98962800
vt 0.90862200 0.99013800
vt 0.90432100 0.99019600
vt 0.89571700 0.99019600
vt 0.87851300 0.99019600
vt 0.84410200 0.99019600
vt 0.77528200 0.99019600
vt 0.63764100 0.99019600
vt 0.50000000 0.99019600
vt 0.36236100 0.99019600
vt 0.22471900 0.99019600
vt 0.15589900 0.99019600
vt 0.12148900 0.99019600
vt 0.10428300 0.99019600
vt 0.09568000 0.99019600
vt 0.09138000 0.99013800
vt 0.08707900 0.98962800
vt 0.08278300 0.98837800
vt 0.07850000 0.98625100
vt 0.06999700 0.97907300
vt 0.05351600 0.95206000
vt 0.03829700 0.90768400
vt 0.02502200 0.84696300
vt 0.02207500 0.82948500
vt 0.01929600 0.81120000
vt 0.01668800 0.79214400
vt 0.01425600 0.77237300
vt 0.00638100 0.68730000
vt 0.00160000 0.59532700
vt 0.00040000 0.54787400
vt 0.00010000 0.52397100
vt 0.00000000 0.50000000
vt 0.00010000 0.47603000
vt 0.00040000 0.45212600
vt 0.00160100 0.40467100
vt 0.00638100 0.31271200
vt 0.01425500 0.22763100
vt 0.02502000 0.15304600
vt 0.03829700 0.09231800
vt 0.05351500 0.04794300
vt 0.06999600 0.02092800
vt 0.07849900 0.01375000
vt 0.08707900 0.01037200
vt 0.09138000 0.00986200
vt 0.09567900 0.00980400
vt 0.10428300 0.00980400
vt 0.12148700 0.00980400
vt 0.15589700 0.00980400
vt 0.22471900 0.00980400
vt 0.36235900 0.00980400
vt 0.87500000 0.25000000
vt 0.75000000 0.12500000
vt 0.87500000 0.12500000
vt 0.93750000 0.12500000
vt 0.87500000 0.06250000
vt 0.93750000 0.06250000
vt 0.90625000 0.06250000
vt 0.87500000 0.03125000
vt 0.90625000 0.03125000
vt 0.81250000 0.12500000
vt 0.75000000 0.06250000
vt 0.81250000 0.06250000
vt 0.62500000 0.25000000
vt 0.50000000 0.12500000
vt 0.62500000 0.12500000
vt 0.90625000 0.01562500
vt 0.89062500 0.03125000
vt 0.87500000 0.01562500
vt 0.89062500 0.01562500
vt 0.84375000 0.06250000
vt 0.81250000 0.03125000
vt 0.84375000 0.03125000
vt 0.93750000 0.25000000
vt 0.87500000 0.18750000
vt 0.93750000 0.18750000
vt 0.87500000 0.50000000
vt 0.75000000 0.37500000
vt 0.87500000 0.37500000
vt 0.93750000 0.37500000
vt 0.87500000 0.31250000
vt 0.93750000 0.31250000
vt 0.93750000 0.50000000
vt 0.87500000 0.43750000
vt 0.93750000 0.43750000
vt 0.87500000 0.75000000
vt 0.75000000 0.62500000
vt 0.87500000 0.62500000
vt 0.96875000 0.43750000
vt 0.93750000 0.40625000
vt 0.96875000 0.37500000
vt 0.96875000 0.40625000
vt 0.96875000 0.50000000
vt 0.93750000 0.46875000
vt 0.96875000 0.46875000
vt 0.93750000 0.62500000
vt 0.87500000 0.56250000
vt 0.93750000 0.56250000
vt 0.96875000 0.56250000
vt 0.93750000 0.53125000
vt 0.96875000 0.53125000
vt 0.98437500 0.53125000
vt 0.96875000 0.51562500
vt 0.98437500 0.50000000
vt 0.98437500 0.51562500
vt 0.98437500 0.56250000
vt 0.96875000 0.54687500
vt 0.98437500 0.54687500
vt 0.96875000 0.62500000
vt 0.93750000 0.59375000
vt 0.96875000 0.59375000
vt 0.93750000 0.75000000
vt 0.87500000 0.68750000
vt 0.93750000 0.68750000
vt 0.75000000 0.87500000
vt 0.87500000 0.87500000
vt 0.96875000 0.68750000
vt 0.93750000 0.65625000
vt 0.96875000 0.65625000
vt 0.96875000 0.75000000
vt 0.93750000 0.71875000
vt 0.96875000 0.71875000
vt 0.93750000 0.87500000
vt 0.87500000 0.81250000
vt 0.93750000 0.81250000
vt 0.96875000 0.73437500
vt 0.98437500 0.71875000
vt 0.98437500 0.73437500
vt 0.96875000 0.81250000
vt 0.93750000 0.78125000
vt 0.96875000 0.78125000
vt 0.96875000 0.76562500
vt 0.98437500 0.76562500
vt 0.87500000 0.93750000
vt 0.93750000 0.93750000
vt 0.87500000 0.96875000
vt 0.90625000 0.93750000
vt 0.90625000 0.96875000
vt 0.75000000 0.93750000
vt 0.81250000 0.87500000
vt 0.81250000 0.93750000
vt 0.50000000 0.87500000
vt 0.62500000 0.75000000
vt 0.62500000 0.87500000
vt 0.90625000 0.98437500
vt 0.87500000 0.98437500
vt 0.89062500 0.96875000
vt 0.89062500 0.98437500
vt 0.81250000 0.96875000
vt 0.84375000 0.93750000
vt 0.84375000 0.96875000
vt 0.25000000 0.87500000
vt 0.12500000 0.75000000
vt 0.12500000 0.87500000
vt 0.12500000 0.93750000
vt 0.06250000 0.87500000
vt 0.06250000 0.93750000
vt 0.12500000 0.96875000
vt 0.09375000 0.93750000
vt 0.09375000 0.96875000
vt 0.25000000 0.93750000
vt 0.18750000 0.87500000
vt 0.18750000 0.93750000
vt 0.37500000 0.75000000
vt 0.37500000 0.87500000
vt 0.12500000 0.98437500
vt 0.09375000 0.98437500
vt 0.10937500 0.96875000
vt 0.10937500 0.98437500
vt 0.18750000 0.96875000
vt 0.15625000 0.93750000
vt 0.15625000 0.96875000
vt 0.12500000 0.81250000
vt 0.06250000 0.75000000
vt 0.06250000 0.81250000
vt 0.25000000 0.62500000
vt 0.12500000 0.50000000
vt 0.12500000 0.62500000
vt 0.06250000 0.84375000
vt 0.03125000 0.81250000
vt 0.03125000 0.84375000
vt 0.06250000 0.90625000
vt 0.03125000 0.82812500
vt 0.06250000 0.78125000
vt 0.03125000 0.75000000
vt 0.03125000 0.78125000
vt 0.12500000 0.68750000
vt 0.06250000 0.62500000
vt 0.06250000 0.68750000
vt 0.03125000 0.79687500
vt 0.03125000 0.76562500
vt 0.01562500 0.75000000
vt 0.01562500 0.76562500
vt 0.06250000 0.71875000
vt 0.03125000 0.68750000
vt 0.03125000 0.71875000
vt 0.12500000 0.56250000
vt 0.06250000 0.50000000
vt 0.06250000 0.56250000
vt 0.25000000 0.37500000
vt 0.12500000 0.25000000
vt 0.12500000 0.37500000
vt 0.06250000 0.59375000
vt 0.03125000 0.62500000
vt 0.03125000 0.56250000
vt 0.03125000 0.59375000
vt 0.06250000 0.53125000
vt 0.03125000 0.50000000
vt 0.03125000 0.53125000
vt 0.12500000 0.43750000
vt 0.06250000 0.37500000
vt 0.06250000 0.43750000
vt 0.03125000 0.54687500
vt 0.01562500 0.56250000
vt 0.01562500 0.53125000
vt 0.01562500 0.54687500
vt 0.03125000 0.51562500
vt 0.01562500 0.50000000
vt 0.01562500 0.51562500
vt 0.06250000 0.46875000
vt 0.03125000 0.43750000
vt 0.03125000 0.46875000
vt 0.03125000 0.48437500
vt 0.01562500 0.46875000
vt 0.01562500 0.48437500
vt 0.03125000 0.45312500
vt 0.01562500 0.43750000
vt 0.01562500 0.45312500
vt 0.06250000 0.40625000
vt 0.03125000 0.37500000
vt 0.03125000 0.40625000
vt 0.12500000 0.31250000
vt 0.06250000 0.25000000
vt 0.06250000 0.31250000
vt 0.25000000 0.12500000
vt 0.12500000 0.12500000
vt 0.12500000 0.18750000
vt 0.06250000 0.12500000
vt 0.06250000 0.18750000
vt 0.12500000 0.06250000
vt 0.06250000 0.06250000
vt 0.12500000 0.03125000
vt 0.09375000 0.06250000
vt 0.09375000 0.03125000
vt 0.25000000 0.06250000
vt 0.18750000 0.12500000
vt 0.18750000 0.06250000
vt 0.37500000 0.25000000
vt 0.37500000 0.12500000
vt 0.09375000 0.01562500
vt 0.07812500 0.03125000
vt 0.12500000 0.01562500
vt 0.10937500 0.03125000
vt 0.10937500 0.01562500
vt 0.18750000 0.03125000
vt 0.15625000 0.06250000
vt 0.15625000 0.03125000
f 279/279/279 288/288/288 278/278/278
f 288/288/288 1/1/1 277/277/277
f 1/1/1 279/279/279 243/243/243
f 279/279/279 1/1/1 288/288/288
f 243/243/243 279/279/279 281/281/281
f 281/281/281 275/275/275 243/243/243
f 279/279/279 278/278/278 280/280/280
f 280/280/280 281/281/281 279/279/279
f 285/285/285 278/278/278 282/282/282
f 280/280/280 285/285/285 283/283/283
f 278/278/278 285/285/285 280/280/280
f 295/295/295 282/282/282 284/284/284
f 285/285/285 295/295/295 286/286/286
f 282/282/282 295/295/295 285/285/285
f 292/292/292 293/293/293 286/286/286
f 284/284/284 294/294/294 296/296/296
f 296/296/296 295/295/295 284/284/284
f 295/295/295 296/296/296 292/292/292
f 292/292/292 286/286/286 295/295/295
f 277/277/277 287/287/287 289/289/289
f 289/289/289 288/288/288 277/277/277
f 298/298/298 288/288/288 289/289/289
f 278/278/278 298/298/298 282/282/282
f 288/288/288 298/298/298 278/278/278
f 289/289/289 297/297/297 299/299/299
f 299/299/299 298/298/298 289/289/289
f 298/298/298 299/299/299 284/284/284
f 284/284/284 282/282/282 298/298/298
f 252/252/252 242/242/242 244/244/244
f 2/2/2 252/252/252 219/219/219
f 242/242/242 252/252/252 2/2/2
f 262/262/262 252/252/252 254/254/254
f 219/219/219 262/262/262 240/240/240
f 252/252/252 262/262/262 219/219/219
f 265/265/265 262/262/262 264/264/264
f 240/240/240 265/265/265 250/250/250
f 262/262/262 265/265/265 240/240/240
f 250/250/250 265/265/265 267/267/267
f 267/267/267 260/260/260 250/250/250
f 265/265/265 264/264/264 266/266/266
f 266/266/266 267/267/267 265/265/265
f 264/264/264 268/268/268 270/270/270
f 270/270/270 266/266/266 264/264/264
f 268/268/268 263/263/263 269/269/269
f 269/269/269 270/270/270 268/268/268
f 268/268/268 254/254/254 263/263/263
f 262/262/262 268/268/268 264/264/264
f 254/254/254 268/268/268 262/262/262
f 254/254/254 271/271/271 273/273/273
f 273/273/273 263/263/263 254/254/254
f 271/271/271 253/253/253 272/272/272
f 272/272/272 273/273/273 271/271/271
f 271/271/271 244/244/244 253/253/253
f 252/252/252 271/271/271 254/254/254
f 244/244/244 271/271/271 252/252/252
f 244/244/244 274/274/274 276/276/276
f 276/276/276 253/253/253 244/244/244
f 274/274/274 243/243/243 275/275/275
f 275/275/275 276/276/276 274/274/274
f 274/274/274 1/1/1 243/243/243
f 242/242/242 274/274/274 244/244/244
f 1/1/1 274/274/274 242/242/242
f 229/229/229 218/218/218 220/220/220
f 3/3/3 229/229/229 195/195/195
f 218/218/218 229/229/229 3/3/3
f 236/236/236 229/229/229 231/231/231
f 195/195/195 236/236/236 216/216/216
f 229/229/229 236/236/236 195/195/195
f 216/216/216 236/236/236 238/238/238
f 238/238/238 227/227/227 216/216/216
f 236/236/236 231/231/231 237/237/237
f 237/237/237 238/238/238 236/236/236
f 229/229/229 220/220/220 230/230/230
f 230/230/230 231/231/231 229/229/229
f 245/245/245 239/239/239 241/241/241
f 220/220/220 245/245/245 230/230/230
f 239/239/239 245/245/245 220/220/220
f 230/230/230 245/245/245 248/248/248
f 248/248/248 246/246/246 230/230/230
f 245/245/245 241/241/241 247/247/247
f 247/247/247 248/248/248 245/245/245
f 255/255/255 249/249/249 251/251/251
f 241/241/241 255/255/255 247/247/247
f 249/249/249 255/255/255 241/241/241
f 247/247/247 255/255/255 258/258/258
f 258/258/258 256/256/256 247/247/247
f 255/255/255 251/251/251 257/257/257
f 257/257/257 258/258/258 255/255/255
f 251/251/251 259/259/259 261/261/261
f 261/261/261 257/257/257 251/251/251
f 259/259/259 250/250/250 260/260/260
f 260/260/260 261/261/261 259/259/259
f 259/259/259 240/240/240 250/250/250
f 249/249/249 259/259/259 251/251/251
f 240/240/240 259/259/259 249/249/249
f 249/249/249 219/219/219 240/240/240
f 239/239/239 249/249/249 241/241/241
f 219/219/219 249/249/249 239/239/239
f 239/239/239 2/2/2 219/219/219
f 218/218/218 239/239/239 220/220/220
f 2/2/2 239/239/239 218/218/218
f 214/214/214 213/213/213 197/197/197
f 197/197/197 200/200/200 214/214/214
f 212/212/212 205/205/205 213/213/213
f 213/213/213 214/214/214 212/212/212
f 213/213/213 196/196/196 197/197/197
f 204/204/204 213/213/213 205/205/205
f 196/196/196 213/213/213 204/204/204
f 203/203/203 194/194/194 204/204/204
f 204/204/204 205/205/205 203/203/203
f 211/211/211 210/210/210 202/202/202
f 202/202/202 209/209/209 211/211/211
f 208/208/208 200/200/200 210/210/210
f 210/210/210 211/211/211 208/208/208
f 210/210/210 201/201/201 202/202/202
f 197/197/197 210/210/210 200/200/200
f 201/201/201 210/210/210 197/197/197
f 201/201/201 224/224/224 199/199/199
f 224/224/224 196/196/196 198/198/198
f 196/196/196 201/201/201 197/197/197
f 201/201/201 196/196/196 224/224/224
f 221/221/221 215/215/215 217/217/217
f 196/196/196 221/221/221 198/198/198
f 215/215/215 221/221/221 196/196/196
f 225/225/225 217/217/217 222/222/222
f 221/221/221 225/225/225 223/223/223
f 217/217/217 225/225/225 221/221/221
f 232/232/232 226/226/226 228/228/228
f 217/217/217 232/232/232 222/222/222
f 226/226/226 232/232/232 217/217/217
f 233/233/233 227/227/227 234/234/234
f 234/234/234 235/235/235 233/233/233
f 233/233/233 216/216/216 227/227/227
f 226/226/226 233/233/233 228/228/228
f 216/216/216 233/233/233 226/226/226
f 226/226/226 195/195/195 216/216/216
f 215/215/215 226/226/226 217/217/217
f 195/195/195 226/226/226 215/215/215
f 204/204/204 215/215/215 196/196/196
f 215/215/215 3/3/3 195/195/195
f 3/3/3 204/204/204 194/194/194
f 204/204/204 3/3/3 215/215/215
f 4/4/4 107/107/107 291/291/291
f 291/291/291 290/290/290 4/4/4
f 290/290/290 291/291/291 277/277/277
f 277/277/277 1/1/1 290/290/290
f 242/242/242 290/290/290 1/1/1
f 290/290/290 5/5/5 4/4/4
f 5/5/5 242/242/242 2/2/2
f 242/242/242 5/5/5 290/290/290
f 206/206/206 218/218/218 3/3/3
f 218/218/218 5/5/5 2/2/2
f 5/5/5 206/206/206 6/6/6
f 206/206/206 5/5/5 218/218/218
f 207/207/207 206/206/206 3/3/3
f 3/3/3 194/194/194 207/207/207
f 184/184/184 6/6/6 206/206/206
f 206/206/206 207/207/207 184/184/184
f 7/7/7 95/95/95 108/108/108
f 108/108/108 106/106/106 7/7/7
f 106/106/106 108/108/108 107/107/107
f 107/107/107 4/4/4 106/106/106
f 106/106/106 120/120/120 7/7/7
f 120/120/120 5/5/5 8/8/8
f 5/5/5 106/106/106 4/4/4
f 106/106/106 5/5/5 120/120/120
f 129/129/129 185/185/185 9/9/9
f 185/185/185 5/5/5 6/6/6
f 5/5/5 129/129/129 8/8/8
f 129/129/129 5/5/5 185/185/185
f 186/186/186 185/185/185 6/6/6
f 6/6/6 184/184/184 186/186/186
f 157/157/157 9/9/9 185/185/185
f 185/185/185 186/186/186 157/157/157
f 116/116/116 118/118/118 117/117/117
f 117/117/117 94/94/94 116/116/116
f 118/118/118 97/97/97 96/96/96
f 96/96/96 117/117/117 118/118/118
f 103/103/103 117/117/117 96/96/96
f 117/117/117 7/7/7 94/94/94
f 7/7/7 103/103/103 95/95/95
f 103/103/103 7/7/7 117/117/117
f 113/113/113 96/96/96 98/98/98
f 103/103/103 113/113/113 105/105/105
f 96/96/96 113/113/113 103/103/103
f 103/103/103 105/105/105 104/104/104
f 104/104/104 95/95/95 103/103/103
f 98/98/98 101/101/101 115/115/115
f 115/115/115 113/113/113 98/98/98
f 113/113/113 115/115/115 114/114/114
f 114/114/114 105/105/105 113/113/113
f 100/100/100 97/97/97 99/99/99
f 96/96/96 100/100/100 98/98/98
f 97/97/97 100/100/100 96/96/96
f 110/110/110 100/100/100 102/102/102
f 98/98/98 110/110/110 101/101/101
f 100/100/100 110/110/110 98/98/98
f 102/102/102 109/109/109 112/112/112
f 112/112/112 110/110/110 102/102/102
f 110/110/110 112/112/112 111/111/111
f 111/111/111 101/101/101 110/110/110
f 135/135/135 137/137/137 136/136/136
f 136/136/136 125/125/125 135/135/135
f 137/137/137 131/131/131 127/127/127
f 127/127/127 136/136/136 137/137/137
f 136/136/136 119/119/119 125/125/125
f 126/126/126 136/136/136 127/127/127
f 119/119/119 136/136/136 126/126/126
f 132/132/132 126/126/126 127/127/127
f 121/121/121 132/132/132 122/122/122
f 126/126/126 132/132/132 121/121/121
f 131/131/131 134/134/134 132/132/132
f 132/132/132 127/127/127 131/131/131
f 134/134/134 133/133/133 122/122/122
f 122/122/122 132/132/132 134/134/134
f 126/126/126 8/8/8 119/119/119
f 120/120/120 126/126/126 121/121/121
f 8/8/8 126/126/126 120/120/120
f 123/123/123 120/120/120 121/121/121
f 7/7/7 123/123/123 94/94/94
f 120/120/120 123/123/123 7/7/7
f 122/122/122 124/124/124 123/123/123
f 123/123/123 121/121/121 122/122/122
f 124/124/124 116/116/116 94/94/94
f 94/94/94 123/123/123 124/124/124
f 162/162/162 170/170/170 168/168/168
f 170/170/170 169/169/169 164/164/164
f 164/164/164 168/168/168 170/170/170
f 168/168/168 154/154/154 162/162/162
f 163/163/163 168/168/168 164/164/164
f 154/154/154 168/168/168 163/163/163
f 164/164/164 159/159/159 156/156/156
f 156/156/156 163/163/163 164/164/164
f 163/163/163 128/128/128 154/154/154
f 155/155/155 163/163/163 156/156/156
f 128/128/128 163/163/163 155/155/155
f 160/160/160 155/155/155 156/156/156
f 130/130/130 160/160/160 138/138/138
f 155/155/155 160/160/160 130/130/130
f 159/159/159 161/161/161 160/160/160
f 160/160/160 156/156/156 159/159/159
f 161/161/161 151/151/151 138/138/138
f 138/138/138 160/160/160 161/161/161
f 155/155/155 9/9/9 128/128/128
f 129/129/129 155/155/155 130/130/130
f 9/9/9 155/155/155 129/129/129
f 139/139/139 129/129/129 130/130/130
f 8/8/8 139/139/139 119/119/119
f 129/129/129 139/139/139 8/8/8
f 151/151/151 153/153/153 152/152/152
f 152/152/152 138/138/138 151/151/151
f 153/153/153 141/141/141 140/140/140
f 140/140/140 152/152/152 153/153/153
f 152/152/152 130/130/130 138/138/138
f 139/139/139 152/152/152 140/140/140
f 130/130/130 152/152/152 139/139/139
f 142/142/142 139/139/139 140/140/140
f 119/119/119 142/142/142 125/125/125
f 139/139/139 142/142/142 119/119/119
f 148/148/148 150/150/150 149/149/149
f 149/149/149 141/141/141 148/148/148
f 150/150/150 144/144/144 143/143/143
f 143/143/143 149/149/149 150/150/150
f 149/149/149 140/140/140 141/141/141
f 142/142/142 149/149/149 143/143/143
f 140/140/140 149/149/149 142/142/142
f 145/145/145 142/142/142 143/143/143
f 125/125/125 145/145/145 135/135/135
f 142/142/142 145/145/145 125/125/125
f 144/144/144 147/147/147 145/145/145
f 145/145/145 143/143/143 144/144/144
f 147/147/147 146/146/146 135/135/135
f 135/135/135 145/145/145 147/147/147
f 190/190/190 189/189/189 178/178/178
f 178/178/178 188/188/188 190/190/190
f 187/187/187 180/180/180 189/189/189
f 189/189/189 190/190/190 187/187/187
f 189/189/189 176/176/176 178/178/178
f 179/179/179 189/189/189 180/180/180
f 176/176/176 189/189/189 179/179/179
f 179/179/179 158/158/158 176/176/176
f 165/165/165 179/179/179 177/177/177
f 158/158/158 179/179/179 165/165/165
f 193/193/193 192/192/192 183/183/183
f 183/183/183 191/191/191 193/193/193
f 178/178/178 176/176/176 192/192/192
f 192/192/192 193/193/193 178/178/178
f 183/183/183 182/182/182 157/157/157
f 157/157/157 181/181/181 183/183/183
f 192/192/192 182/182/182 183/183/183
f 158/158/158 192/192/192 176/176/176
f 182/182/182 192/192/192 158/158/158
f 166/166/166 182/182/182 158/158/158
f 182/182/182 9/9/9 157/157/157
f 9/9/9 166/166/166 128/128/128
f 166/166/166 9/9/9 182/182/182
f 165/165/165 167/167/167 166/166/166
f 166/166/166 158/158/158 165/165/165
f 172/172/172 166/166/166 167/167/167
f 128/128/128 172/172/172 154/154/154
f 166/166/166 172/172/172 128/128/128
f 171/171/171 173/173/173 172/172/172
f 172/172/172 167/167/167 171/171/171
f 174/174/174 172/172/172 173/173/173
f 154/154/154 174/174/174 162/162/162
f 172/172/172 174/174/174 154/154/154
f 175/175/175 162/162/162 174/174/174
f 79/79/79 272/272/272 276/276/276
f 275/275/275 80/80/80 79/79/79
f 273/273/273 78/78/78 269/269/269
f 79/79/79 78/78/78 272/272/272
f 272/272/272 78/78/78 273/273/273
f 77/77/77 269/269/269 78/78/78
f 81/81/81 80/80/80 281/281/281
f 283/283/283 83/83/83 82/82/82
f 293/293/293 83/83/83 283/283/283
f 280/280/280 283/283/283 82/82/82
f 280/280/280 81/81/81 281/281/281
f 269/269/269 263/263/263 273/273/273
f 82/82/82 81/81/81 280/280/280
f 77/77/77 76/76/76 266/266/266
f 269/269/269 77/77/77 270/270/270
f 267/267/267 76/76/76 75/75/75
f 74/74/74 261/261/261 75/75/75
f 257/257/257 74/74/74 73/73/73
f 266/266/266 270/270/270 77/77/77
f 76/76/76 267/267/267 266/266/266
f 75/75/75 260/260/260 267/267/267
f 74/74/74 257/257/257 261/261/261
f 73/73/73 256/256/256 258/258/258
f 73/73/73 258/258/258 257/257/257
f 75/75/75 261/261/261 260/260/260
f 72/72/72 256/256/256 73/73/73
f 87/87/87 86/86/86 292/292/292
f 88/88/88 87/87/87 292/292/292
f 85/85/85 84/84/84 293/293/293
f 86/86/86 85/85/85 292/292/292
f 85/85/85 293/293/293 292/292/292
f 292/292/292 89/89/89 88/88/88
f 90/90/90 89/89/89 296/296/296
f 91/91/91 90/90/90 294/294/294
f 294/294/294 90/90/90 296/296/296
f 92/92/92 91/91/91 297/297/297
f 299/299/299 91/91/91 294/294/294
f 292/292/292 296/296/296 89/89/89
f 92/92/92 287/287/287 93/93/93
f 285/285/285 293/293/293 283/283/283
f 79/79/79 276/276/276 275/275/275
f 272/272/272 253/253/253 276/276/276
f 285/285/285 286/286/286 293/293/293
f 80/80/80 275/275/275 281/281/281
f 294/294/294 284/284/284 299/299/299
f 91/91/91 299/299/299 297/297/297
f 287/287/287 277/277/277 291/291/291
f 287/287/287 297/297/297 289/289/289
f 287/287/287 92/92/92 297/297/297
f 293/293/293 84/84/84 83/83/83
f 72/72/72 248/248/248 256/256/256
f 247/247/247 256/256/256 248/248/248
f 246/246/246 72/72/72 71/71/71
f 234/234/234 71/71/71 70/70/70
f 71/71/71 234/234/234 238/238/238
f 235/235/235 234/234/234 70/70/70
f 72/72/72 246/246/246 248/248/248
f 237/237/237 231/231/231 230/230/230
f 230/230/230 246/246/246 237/237/237
f 71/71/71 237/237/237 246/246/246
f 234/234/234 227/227/227 238/238/238
f 71/71/71 238/238/238 237/237/237
f 228/228/228 70/70/70 69/69/69
f 235/235/235 70/70/70 233/233/233
f 232/232/232 69/69/69 68/68/68
f 67/67/67 222/222/222 68/68/68
f 223/223/223 67/67/67 66/66/66
f 228/228/228 233/233/233 70/70/70
f 69/69/69 232/232/232 228/228/228
f 68/68/68 222/222/222 232/232/232
f 67/67/67 223/223/223 225/225/225
f 66/66/66 198/198/198 223/223/223
f 65/65/65 64/64/64 199/199/199
f 65/65/65 198/198/198 66/66/66
f 67/67/67 225/225/225 222/222/222
f 223/223/223 198/198/198 221/221/221
f 65/65/65 224/224/224 198/198/198
f 63/63/63 202/202/202 64/64/64
f 201/201/201 199/199/199 202/202/202
f 199/199/199 64/64/64 202/202/202
f 65/65/65 199/199/199 224/224/224
f 207/207/207 203/203/203 53/53/53
f 212/212/212 203/203/203 205/205/205
f 62/62/62 202/202/202 63/63/63
f 214/214/214 200/200/200 208/208/208
f 212/212/212 54/54/54 203/203/203
f 212/212/212 214/214/214 55/55/55
f 61/61/61 209/209/209 62/62/62
f 202/202/202 62/62/62 209/209/209
f 60/60/60 209/209/209 61/61/61
f 60/60/60 59/59/59 209/209/209
f 58/58/58 209/209/209 59/59/59
f 58/58/58 57/57/57 209/209/209
f 211/211/211 57/57/57 56/56/56
f 209/209/209 57/57/57 211/211/211
f 208/208/208 211/211/211 56/56/56
f 55/55/55 208/208/208 56/56/56
f 55/55/55 214/214/214 208/208/208
f 212/212/212 55/55/55 54/54/54
f 54/54/54 53/53/53 203/203/203
f 207/207/207 194/194/194 203/203/203
f 93/93/93 287/287/287 291/291/291
f 10/10/10 108/108/108 11/11/11
f 11/11/11 104/104/104 12/12/12
f 111/111/111 14/14/14 13/13/13
f 14/14/14 111/111/111 112/112/112
f 114/114/114 13/13/13 12/12/12
f 115/115/115 111/111/111 13/13/13
f 15/15/15 109/109/109 16/16/16
f 16/16/16 109/109/109 17/17/17
f 19/19/19 18/18/18 109/109/109
f 109/109/109 18/18/18 17/17/17
f 112/112/112 15/15/15 14/14/14
f 20/20/20 19/19/19 109/109/109
f 107/107/107 10/10/10 291/291/291
f 104/104/104 114/114/114 12/12/12
f 11/11/11 108/108/108 104/104/104
f 108/108/108 10/10/10 107/107/107
f 104/104/104 108/108/108 95/95/95
f 105/105/105 114/114/114 104/104/104
f 101/101/101 111/111/111 115/115/115
f 13/13/13 114/114/114 115/115/115
f 15/15/15 112/112/112 109/109/109
f 102/102/102 100/100/100 99/99/99
f 22/22/22 109/109/109 102/102/102
f 20/20/20 109/109/109 21/21/21
f 93/93/93 291/291/291 10/10/10
f 102/102/102 23/23/23 22/22/22
f 23/23/23 102/102/102 24/24/24
f 25/25/25 99/99/99 97/97/97
f 26/26/26 97/97/97 118/118/118
f 102/102/102 99/99/99 24/24/24
f 97/97/97 26/26/26 25/25/25
f 118/118/118 27/27/27 26/26/26
f 28/28/28 116/116/116 124/124/124
f 116/116/116 28/28/28 27/27/27
f 116/116/116 27/27/27 118/118/118
f 133/133/133 28/28/28 124/124/124
f 24/24/24 99/99/99 25/25/25
f 124/124/124 122/122/122 133/133/133
f 29/29/29 133/133/133 134/134/134
f 30/30/30 131/131/131 137/137/137
f 146/146/146 137/137/137 135/135/135
f 131/131/131 29/29/29 134/134/134
f 137/137/137 31/31/31 30/30/30
f 29/29/29 131/131/131 30/30/30
f 146/146/146 31/31/31 137/137/137
f 32/32/32 147/147/147 144/144/144
f 147/147/147 32/32/32 31/31/31
f 31/31/31 146/146/146 147/147/147
f 33/33/33 32/32/32 144/144/144
f 29/29/29 28/28/28 133/133/133
f 21/21/21 109/109/109 22/22/22
f 207/207/207 52/52/52 184/184/184
f 186/186/186 184/184/184 52/52/52
f 191/191/191 183/183/183 181/181/181
f 186/186/186 181/181/181 157/157/157
f 51/51/51 181/181/181 186/186/186
f 179/179/179 180/180/180 177/177/177
f 178/178/178 193/193/193 188/188/188
f 180/180/180 42/42/42 41/41/41
f 49/49/49 193/193/193 191/191/191
f 43/43/43 42/42/42 180/180/180
f 181/181/181 50/50/50 191/191/191
f 52/52/52 51/51/51 186/186/186
f 193/193/193 49/49/49 188/188/188
f 51/51/51 50/50/50 181/181/181
f 49/49/49 191/191/191 50/50/50
f 188/188/188 49/49/49 48/48/48
f 48/48/48 190/190/190 188/188/188
f 187/187/187 190/190/190 47/47/47
f 180/180/180 187/187/187 43/43/43
f 43/43/43 187/187/187 44/44/44
f 46/46/46 187/187/187 47/47/47
f 187/187/187 46/46/46 45/45/45
f 187/187/187 45/45/45 44/44/44
f 48/48/48 47/47/47 190/190/190
f 53/53/53 52/52/52 207/207/207
f 148/148/148 141/141/141 153/153/153
f 34/34/34 153/153/153 151/151/151
f 35/35/35 161/161/161 159/159/159
f 169/169/169 159/159/159 164/164/164
f 161/161/161 34/34/34 151/151/151
f 148/148/148 33/33/33 150/150/150
f 144/144/144 150/150/150 33/33/33
f 34/34/34 33/33/33 148/148/148
f 35/35/35 169/169/169 36/36/36
f 35/35/35 159/159/159 169/169/169
f 161/161/161 35/35/35 34/34/34
f 34/34/34 148/148/148 153/153/153
f 36/36/36 169/169/169 170/170/170
f 39/39/39 165/165/165 40/40/40
f 41/41/41 40/40/40 177/177/177
f 165/165/165 177/177/177 40/40/40
f 180/180/180 41/41/41 177/177/177
f 162/162/162 175/175/175 37/37/37
f 36/36/36 170/170/170 37/37/37
f 38/38/38 37/37/37 175/175/175
f 174/174/174 38/38/38 175/175/175
f 171/171/171 167/167/167 39/39/39
f 38/38/38 173/173/173 171/171/171
f 171/171/171 39/39/39 38/38/38
f 173/173/173 38/38/38 174/174/174
f 167/167/167 165/165/165 39/39/39
f 170/170/170 162/162/162 37/37/37

