####
#
# OBJ File Generated by Meshlab
#
####
# Object left_arm_link1_0.obj
#
# Vertices: 193
# Faces: 314
#
####
mtllib ./left_arm_link1_0.obj.mtl

vn -1.9960422200880246 -0.8004537927229598 -2.0487329254944600
v -0.0324620000000000 -0.0438583076923077 -0.0323659743589744
vn 3.4715074446607752 -1.9518647377204223 4.1998272551916607
v 0.0302410000000000 -0.0436240000000000 0.0300480000000000
vn -2.6789035764247622 -4.0026706353276182 1.1352368599594458
v 0.0315604074074074 -0.0441176296296296 0.0306105925925926
vn -2.6643356714608450 -4.5359089756937756 -0.8483369979755012
v 0.0288206206896552 -0.0441274252873563 0.0297555632183908
vn -1.9351506059099655 -0.2025208921839113 -2.2743908572390890
v 0.0291156206896552 -0.0438453448275862 0.0290862758620690
vn -1.0751132675322306 -4.2569501417894653 -2.6648870862572065
v 0.0298161891891892 -0.0441384459459459 0.0287852162162162
vn 0.0419799176885257 -2.5833390488587731 0.0846959772582298
v 0.0324337631578947 -0.0439558157894737 0.0323519473684211
vn -1.5061500761453965 -5.2612540803623808 -1.0370346194975459
v 0.0315800967741936 -0.0439930000000000 0.0316409032258065
vn 0.3198348446904908 -2.4971995011613259 0.3749862117523529
v -0.0291101320754717 -0.0439395283018868 -0.0290910754716981
vn -1.5974601186161053 -5.1393385852832871 -1.2716101505476067
v -0.0299382903225807 -0.0439940000000000 -0.0298773225806451
vn 2.5368089316322022 -4.4342547256365235 -0.6066648868342092
v -0.0315585925925926 -0.0441151111111111 -0.0306058518518518
vn -0.4630891448301067 -3.8068194221379326 2.9687902450940156
v -0.0308288000000000 -0.0441264500000000 -0.0316260000000000
vn 3.4157675356312871 -1.4881293129292699 4.0001557307633746
v -0.0312770000000000 -0.0436250000000000 -0.0314700000000000
vn 0.0502168333975318 -2.8424544674674879 0.0800277130007464
v -0.0298135615384615 -0.0439735153846154 -0.0287174384615385
vn 0.0000000000000000 0.0000000000000000 0.0000000000000000
v 0.0316320000000000 -0.0436170000000000 0.0306600000000000
vn 1.0597346079359722 -5.7872819655718599 1.0518041861172660
v 0.0298520833333333 -0.0441264583333333 0.0298305000000000
vn 1.4781128381381623 -4.1534584819844165 -2.7700237723906227
v 0.0307157692307692 -0.0439714615384615 0.0316160000000000
vn -1.9820969850901566 -2.6239829351648778 -2.2279676709404592
v 0.0291067083333333 -0.0441349583333333 0.0290991250000000
vn -0.9754684902497567 -1.4054112355928989 -2.4092915541627744
v 0.0297878870967742 -0.0438689516129032 0.0286435967741935
vn -2.5264307297658979 -1.3182731780295813 -0.8741012172906037
v 0.0286645161290323 -0.0438565806451613 0.0297428387096774
vn -2.0588233864930219 -3.3308004368019444 -2.2280903208261793
v -0.0324008378378378 -0.0441349189189189 -0.0323337027027027
vn 0.2886474843424715 -2.9538553855181813 0.3071846369906651
v -0.0287538926174497 -0.0439925637583892 -0.0297481073825504
vn 0.8783412925138385 -5.9025478764004786 0.8325050910492319
v -0.0316661666666667 -0.0441274583333333 -0.0316882916666667
vn -2.5697006040944377 0.0956487501635309 4.7550315026326730
v -0.0304050000000000 -0.0436260000000000 -0.0315660000000000
vn 0.0000000000000000 0.0000000000000000 0.0000000000000000
v -0.0316310000000000 -0.0436160000000000 -0.0306670000000000
vn 0.0129693301587985 -2.7679320924497244 0.0300457919384664
v -0.0307244166666667 -0.0439824090909091 -0.0285423636363636
vn 0.2502493592804624 -5.9364440496881663 1.2532287936775286
v 0.0290090000000000 -0.0441110000000000 0.0312120000000000
vn -0.4813929795959677 -4.4182517861574935 2.6907424893404395
v 0.0307558076923077 -0.0441269615384615 0.0297678461538461
vn 2.4093649775338974 -4.8148811722340472 -0.1826181497135068
v 0.0297534814814815 -0.0441159259259259 0.0307397407407407
vn -0.1240118030601533 -6.2080389010661357 0.3850411954095782
v 0.0297699473684210 -0.0441046315789474 0.0317722631578947
vn -2.2354848304819916 -1.4684925644595839 -0.0358285874541542
v 0.0284267818181818 -0.0438326545454546 0.0307290363636364
vn 0.0089128317540590 -1.6593558810791922 -2.3283699488483607
v 0.0307637884615385 -0.0438656346153846 0.0284236346153846
vn 0.8951182903991681 -4.6208151022588035 -2.5729688870365619
v 0.0316387023809524 -0.0441383333333333 0.0287853095238095
vn 2.1048629785781041 -1.5973242963505576 0.0009796296918620
v -0.0284250363636364 -0.0438327818181818 -0.0307306909090909
vn 2.7338606540870463 -4.2133792933853451 -0.9860053063033443
v -0.0287819189189189 -0.0441273918918919 -0.0317005675675676
vn -2.5789353748491766 -4.1663782288549900 1.0148863218105253
v -0.0298331470588235 -0.0441174411764706 -0.0308319705882353
vn -0.0490604506139403 -6.1912443170968352 0.3914812230390443
v -0.0317483157894737 -0.0441053684210526 -0.0297467368421053
vn -0.0158524558209593 -2.8301877450375752 0.2207071287467898
v -0.0316508561151079 -0.0439813597122302 -0.0287144388489209
vn 4.7049763387443448 -1.5052707259745834 -1.5185363066161686
v 0.0298880000000000 -0.0436150000000000 0.0308510000000000
vn -3.3666772610647291 -0.6739419868989713 4.2927933278608039
v 0.0311140000000000 -0.0436250000000000 0.0299530000000000
vn 2.1302364329922483 -3.9295330284959054 -1.9153887919227939
v 0.0301470000000000 -0.0441110000000000 0.0312110000000000
vn -0.0001461005045633 -6.2827797152740112 0.0713829076230475
v 0.0317500526315789 -0.0441273684210526 0.0297510000000000
vn -2.7383253963192451 -4.5795171244077721 0.0786486386762234
v 0.0286155180722891 -0.0441162409638554 0.0307298915662650
vn -0.5350895479978830 -2.8927182396335569 0.4010207328332056
v 0.0287199705882353 -0.0439814338235294 0.0317159632352941
vn 0.8403670718339072 -1.4661745739326713 -2.3804877299602873
v 0.0316731818181818 -0.0438567818181818 0.0286114909090909
vn -0.1254418903382068 -4.6863687462899204 -2.6668282230416893
v 0.0307017375000000 -0.0441401875000000 0.0286235250000000
vn 2.4256735059757335 -1.4064966488574970 -0.9202720640748581
v -0.0286433387096774 -0.0438569032258065 -0.0317318548387097
vn 2.5393019305230542 -4.7470625653939909 0.1735670644909526
v -0.0286405730337079 -0.0441168202247191 -0.0307575280898876
vn 1.2329921035946669 -4.6342477890708729 -2.3168861454578105
v -0.0308350625000000 -0.0439965625000000 -0.0297984687500000
vn 0.0001247725286300 -6.2827733644778307 0.0718982015683453
v -0.0297679473684210 -0.0441283684210526 -0.0317672631578947
vn -5.6226434404705739 -0.8265875929172664 0.9316279689737732
v -0.0298860000000000 -0.0436180000000000 -0.0308580000000000
vn -0.2947863118969705 -2.5757280038618608 0.3148885646009263
v -0.0323505657894737 -0.0439555000000000 -0.0290846447368421
vn 2.7128512723291496 -2.8457407961435957 -0.7211592552232393
v 0.0300671176470588 -0.0431150000000000 0.0308258235294118
vn -0.6051270147698108 -3.0666034778412130 2.9014865885986216
v 0.0307961818181818 -0.0431250000000000 0.0299819090909091
vn -0.3407189016189077 -2.5014531943676643 0.3385475184101038
v 0.0290923396226415 -0.0439384905660377 0.0324080188679245
vn 2.0412552378633313 -0.7704619718005472 -2.0291028793205683
v 0.0323661538461539 -0.0438585128205128 0.0290549743589744
vn 2.7765382368751501 -4.0916922770384234 -0.8892179788775709
v 0.0327365000000000 -0.0441264459459459 0.0298178108108108
vn 0.8360747311839086 -4.5914865086641079 -2.6113236568372069
v -0.0297530459770115 -0.0441386551724138 -0.0326906896551724
vn 2.2750248061159457 -0.2032602040312569 -1.9325293210015988
v -0.0290861724137931 -0.0438456896551724 -0.0324043793103448
vn -3.0476488868571869 -3.4544543037062287 -0.2782254580185259
v -0.0300147272727273 -0.0431143636363636 -0.0305716363636364
vn 1.0730350097307133 -2.8871883439951187 -2.6888915553171611
v -0.0307949090909091 -0.0431080000000000 -0.0299999090909091
vn -0.5033888033696188 -2.8498883115865716 0.2755273640774911
v -0.0327982941176470 -0.0439823308823529 -0.0298025073529412
vn -0.1932545168975011 -2.7417392340774907 0.3445236369321345
v 0.0297503221476510 -0.0439802953020134 0.0327613355704698
vn 2.2237045494815586 -3.3766871627751476 -2.0767408512482204
v 0.0323370000000000 -0.0441345135135135 0.0291191621621622
vn 2.3736215264447615 -1.4715813981344388 -0.8006964289426989
v 0.0328749516129032 -0.0438559032258065 0.0297863548387097
vn 0.8494391654807479 -1.3792241286206184 -2.5044520272465229
v -0.0297426612903226 -0.0438697741935484 -0.0328552419354839
vn 2.2535013987796608 -2.6263625518160580 -1.9523293316036752
v -0.0290961250000000 -0.0441358333333333 -0.0324096666666667
vn -2.4327781249993725 -2.9364103636226928 1.8298414002878942
v -0.0301450000000000 -0.0431220000000000 -0.0312170000000000
vn -2.0424633011805811 -0.7604556421605065 0.4284140302228140
v -0.0330836896551724 -0.0438268275862069 -0.0307409655172414
vn 1.1359089084987555 -2.6059070739321153 -2.6434660388053497
v 0.0307119000000000 -0.0431070000000000 0.0315201000000000
vn -2.8917762528347897 -2.9527376556954916 0.7751741614916812
v 0.0314528823529412 -0.0431165882352941 0.0306743529411765
vn 0.1004824340507247 -2.9400387498753893 0.0496617934125520
v 0.0307004509803922 -0.0439978039215686 0.0328706960784314
vn 1.9392951949589579 -0.7931410011913284 -0.5026616284862964
v 0.0330853103448276 -0.0438264827586207 0.0307390689655172
vn 0.1999865673176513 -0.2953976010884704 -0.0704509457476807
v 0.0331061500000000 -0.0441163000000000 0.0307094500000000
vn -0.2005949488911071 -0.2949850582949004 0.0776226861313052
v -0.0331041500000000 -0.0441162000000000 -0.0307047500000000
vn -2.6666961542959497 -4.5328742569766085 -0.7966182045412816
v -0.0327402023809524 -0.0441268809523810 -0.0316362976190476
vn -0.9060761712063836 -4.4020600694648131 -2.6382979102490038
v -0.0316650750000000 -0.0441391000000000 -0.0327160625000000
vn -0.0680589042157281 -1.6482377894191025 -2.0407170654732694
v -0.0307312500000000 -0.0438430000000000 -0.0330831875000000
vn -0.0128282244058546 -0.0653206538864832 -0.0421832337448666
v -0.0307550666666667 -0.0441440000000000 -0.0331044666666667
vn -0.2753670462062750 -3.0421852567795415 3.0763777983943048
v -0.0307320000000000 -0.0431252500000000 -0.0315357500000000
vn 2.7908272827633374 -2.5139356286914238 -0.5754208010351811
v -0.0314512222222222 -0.0431162222222222 -0.0307135555555555
vn -1.9888760389454530 -5.4158116094209197 0.3488527987361884
v -0.0327671212121212 -0.0441165454545455 -0.0307217727272727
vn -0.8447179810867999 -1.6270449870593093 -2.2379630695938273
v -0.0317306935483871 -0.0438698225806451 -0.0328746935483871
vn -2.4247331386205397 -1.4193519757858297 -0.8073168454841977
v -0.0329052727272727 -0.0438437454545455 -0.0316734545454545
vn -0.8595769424627751 0.7537829448571116 -1.1059490305654187
v -0.0331051739130435 -0.0438564782608696 -0.0307923913043478
vn 1.7013249690272565 -1.8739742554068519 1.9231613098693658
v 0.0302410000000000 -0.0431240000000000 0.0300420000000000
vn -1.7351268981698622 -2.9308562734609085 -2.1191235286314747
v 0.0312790000000000 -0.0431080000000000 0.0314580000000000
vn -0.1727295280716712 -9.5207651887953553 33.0519019752533865
v 0.0307667674418605 -0.0439494651162791 0.0331062558139535
vn 0.0425453172934131 -2.6985306935938302 0.0001880821072433
v 0.0316830000000000 -0.0439781397058824 0.0327882426470588
vn 0.8586976825018118 0.7773297203734423 1.0797408504661923
v 0.0331070869565218 -0.0438546956521739 0.0307909565217391
vn 0.3010762763243005 -2.9298069460509977 0.2897208270195264
v 0.0328071151079137 -0.0439934316546762 0.0316532230215827
vn 2.0394036121993331 -5.3446215647106943 0.1501972580798600
v 0.0327687424242424 -0.0441163484848485 0.0307263787878788
vn 0.2367878932318532 0.3597262520614183 -1.0620087751351641
v -0.0307258695652174 -0.0438827826086956 -0.0331067826086957
vn -0.0481409256490760 -5.2013361176792783 -2.3123880036817113
v -0.0307034800000000 -0.0441398400000000 -0.0327915200000000
vn -1.5705834102640501 -3.1249002252268285 -2.3848154662695071
v -0.0302400000000000 -0.0431090000000000 -0.0300600000000000
vn 1.7037123477666323 -1.8815503799178528 1.9342220400907020
v -0.0312770000000000 -0.0431250000000000 -0.0314760000000000
vn 1.7012249341020498 -1.8812951535925941 1.9323604063076989
v 0.0302410000000000 -0.0431240000000000 -0.0314760000000000
vn -1.5695831487539369 -3.1234107755542055 -2.3810668451363264
v 0.0312790000000000 -0.0431080000000000 -0.0300600000000000
vn 0.0647122288087686 -2.8718480434844134 -0.1391145208136395
v 0.0327643154362416 -0.0439916375838926 -0.0297481073825503
vn -2.1135869248923713 -3.3762040102795190 -2.1874301081089174
v 0.0291174324324324 -0.0441339189189189 -0.0323337027027027
vn -0.8464501062506740 -1.4715195956675924 -2.3647014254418637
v 0.0297878870967742 -0.0438689516129032 -0.0328746935483871
vn 1.6959870537302293 -1.8927903219577358 1.9529553529156944
v -0.0312770000000000 -0.0431250000000000 0.0300420000000000
vn -1.7326657673775541 -2.9515209521799939 -2.1233271920797230
v -0.0302400000000000 -0.0431090000000000 0.0314580000000000
vn 0.0525521358829674 -2.6592474359444469 0.0251081423888451
v -0.0298135615384615 -0.0439735153846154 0.0328009923076923
vn -2.5386112555026004 -1.3253667826201905 -0.8474671956552674
v -0.0328539677419355 -0.0438575483870968 0.0297428387096774
vn -1.9277647764030268 -2.5903866920551444 -2.2509311530568903
v -0.0324115000000000 -0.0441359583333333 0.0290991250000000
vn -3.0622890664590496 -3.2899033180494821 -0.2503149658672962
v 0.0315088000000000 -0.0431135000000000 -0.0305826000000000
vn -0.2938632381941995 -3.0324959761485060 3.0744150969535280
v 0.0307961818181818 -0.0431250000000000 -0.0315368181818182
vn -0.3216683937255192 0.3535491039573235 0.1912547681115068
v 0.0331061500000000 -0.0441163000000000 -0.0308090000000000
vn 2.7767552833802993 -4.0913527144196298 -0.8893617182432034
v 0.0327365000000000 -0.0441264459459459 -0.0317005675675676
vn 1.4966907728312897 -2.9308162942564713 -0.3115403173170482
v 0.0329786666666666 -0.0438857380952381 -0.0306241428571429
vn 0.8408392748274330 -4.6003803875797038 -2.5946014277137435
v 0.0316387023809524 -0.0441384166666667 -0.0327330357142857
vn 0.0217391813625345 -0.2615681274393497 -0.1688200347274726
v 0.0307636666666667 -0.0441430000000000 -0.0331044666666667
vn -0.4330126043282364 -1.1236144685867524 -2.1519169245320811
v 0.0307409655172414 -0.0438525517241379 -0.0330852758620690
vn 2.7543810210993138 -2.7091014705383758 -0.5692061982214910
v -0.0314559411764706 -0.0431164705882353 0.0307814117647059
vn 1.1752873765347693 -2.5617665428268017 -2.6063146301166666
v -0.0308068000000000 -0.0431080000000000 0.0315201000000000
vn -0.1193810680173968 -6.0083919675002271 1.0813645963798433
v -0.0325090000000000 -0.0441120000000000 0.0312120000000000
vn 0.1149514705885158 -3.0002494901723766 0.0367533685353895
v -0.0307280526315790 -0.0440043578947369 0.0328657473684211
vn -1.9206137109170176 -1.2992598669129074 0.0005477007778251
v -0.0330814687500000 -0.0438170000000000 0.0307310937500000
vn -0.0635304740893064 -0.0996729315281100 0.0535688282789000
v -0.0331041500000000 -0.0441162000000000 0.0308140000000000
vn -2.4359580638689482 -2.9026624449663760 1.8285232848474824
v 0.0313730000000000 -0.0431210000000000 -0.0312170000000000
vn 2.4466941501591735 -4.6289710412489482 0.9475629962111820
v 0.0327687424242424 -0.0441163484848485 -0.0307919696969697
vn -0.5085486915802883 -0.5886054978299686 0.0694174315727960
v 0.0331070869565218 -0.0438546956521739 -0.0307271304347826
vn 2.3188784713021149 -1.3491842072187237 -0.7728979968713742
v 0.0328749516129032 -0.0438559354838710 -0.0317318548387097
vn -0.1611629273452055 -5.2949116063053836 -2.1977142386522437
v 0.0307119154929577 -0.0441389014084507 -0.0327886197183099
vn 0.8110349344747758 -1.4676628993512781 -2.3904289767526627
v 0.0316731818181818 -0.0438567818181818 -0.0329067636363636
vn 0.9630685952667069 0.7792960960896675 -0.8093560646050407
v 0.0307925652173913 -0.0438821304347826 -0.0331067826086957
vn -0.1730845730303576 -9.5182234096989866 33.0517976183465052
v -0.0307513488372093 -0.0439504651162790 0.0331062558139535
vn -0.1612250837778851 -2.6996157836536230 0.3397454708403173
v -0.0316508561151079 -0.0439813597122302 0.0328038848920863
vn -0.5418885788446997 -2.8233462821758328 0.3306787164730453
v -0.0327982941176470 -0.0439823308823529 0.0317159632352941
vn -1.7962966268919687 0.5567601016491285 -0.6809245948314815
v -0.0331051739130435 -0.0438564782608696 0.0307261739130435
vn -2.2260986395117754 -5.3243891240474515 0.1050082799637550
v -0.0327714285714286 -0.0441177142857143 0.0306873714285714
vn -0.4777905234827294 -3.8123644700295967 2.9598314849773093
v 0.0306894500000000 -0.0441254500000000 -0.0316260000000000
vn -0.1101984802481451 -6.2069005586940271 0.3195318984918728
v 0.0297699473684210 -0.0441046315789474 -0.0297467368421053
vn -2.6791716327996560 -3.7062856377193314 1.1641299319810918
v 0.0315676153846154 -0.0441175000000000 -0.0308961923076923
vn 2.0408481827715916 -0.7710148005097938 -2.0291277511880743
v 0.0323661538461539 -0.0438585128205128 -0.0324633076923077
vn -0.3407968691138598 -2.5013092502237653 0.3384980225996292
v 0.0290923396226415 -0.0439384905660377 -0.0291102830188679
vn 2.7677553486033886 -4.1516308334048615 -0.2141505859734936
v -0.0316242500000000 -0.0441162000000000 0.0308079000000000
vn -0.1553443291634466 -6.2103516627917319 0.3491515921792260
v -0.0317483157894737 -0.0441053684210526 0.0317722631578947
vn -0.2949326120867340 -2.5757493416088413 0.3150733934056016
v -0.0323505657894737 -0.0439555000000000 0.0324336973684211
vn 0.8809657617006252 -4.6068962395177913 -2.5932056865098918
v -0.0297530459770115 -0.0441386551724138 0.0288275977011494
vn 2.2754853316817014 -0.2021036218795987 -1.9321708507911475
v -0.0290861724137931 -0.0438456206896552 0.0291140000000000
vn 2.7059871361358692 -4.2486853963282138 -1.0415085102009862
v -0.0287819189189189 -0.0441273918918919 0.0298178108108108
vn 2.7936880646711284 -2.7136423982483349 -0.5989467809325983
v 0.0300669444444444 -0.0431152222222222 -0.0307135555555556
vn 1.1204347188209081 -2.8169021460995003 -2.6509675549659462
v 0.0306973333333333 -0.0431070000000000 -0.0299970000000000
vn 0.3205841651254653 -2.4692635068018118 0.3732863151488729
v 0.0324083396226415 -0.0439385283018868 -0.0290910754716981
vn -0.9728818914953836 -4.1356595669189256 -2.7145925262092110
v 0.0298161891891892 -0.0441384459459459 -0.0327330135135135
vn -2.0375972671522664 -0.7688609285814686 -2.0333946886512337
v 0.0290565384615384 -0.0438573076923077 -0.0323659743589744
vn -0.6045950368446432 -3.0644842292461774 2.8972249476098400
v -0.0307220909090909 -0.0431252727272727 0.0299819090909091
vn -2.8782744285201360 -3.1331403009822072 0.7846555794711326
v -0.0300655294117647 -0.0431175882352941 0.0306743529411765
vn -1.8904457540115249 -0.2435223930003938 -2.2927288288155911
v -0.0324028275862069 -0.0438463448275862 0.0290862758620690
vn -2.6835792381641390 -4.5200450982664142 -0.7953536089806006
v -0.0326977931034483 -0.0441282988505747 0.0297555632183908
vn 0.0700099488123200 -2.6425674033168747 0.1036903520881166
v -0.0290846710526316 -0.0439568157894737 0.0323519473684211
vn 0.0000000000000000 0.0000000000000000 0.0000000000000000
v 0.0298880000000000 -0.0436150000000000 -0.0306670000000000
vn 0.9133149886180710 -5.8611591263355960 0.9433657382256024
v 0.0298520833333333 -0.0441264583333333 -0.0316882916666667
vn 1.2739158168428877 -4.6086611295947479 -2.4420914248392211
v 0.0306833750000000 -0.0439955625000000 -0.0297984687500000
vn -2.6192331384592320 -4.5834587472196642 0.3372323176233233
v 0.0286124810126582 -0.0441152405063291 -0.0306951139240506
vn -2.4153857778671446 -1.4169017770600405 -0.8373654767112875
v 0.0286131272727273 -0.0438427818181818 -0.0316734545454545
vn 0.0434494610148699 -2.8715654386083851 0.0781275802645479
v 0.0316830000000000 -0.0439781397058824 -0.0287301691176471
vn 0.0000000000000000 0.0000000000000000 0.0000000000000000
v -0.0298860000000000 -0.0436180000000000 0.0306600000000000
vn -3.3168021531385077 -0.7489158874486332 4.3950002565712412
v -0.0304050000000000 -0.0436260000000000 0.0299530000000000
vn 1.0211192217147709 -5.8437245275109309 0.9021143734931226
v -0.0316661666666667 -0.0441274583333333 0.0298305000000000
vn -0.9535847943723951 -1.5910844971162812 -2.2725907391465858
v -0.0317306935483871 -0.0438698225806451 0.0286435967741935
vn 0.0090809406927635 -4.6629945925573075 -2.6783488198263168
v -0.0307242976190476 -0.0441410119047619 0.0286260238095238
vn 0.4442441280832624 -2.8602496225422298 0.3939220999513761
v -0.0286984496124031 -0.0439852868217054 0.0316850232558140
vn 2.7685757486295621 -4.4028314777701771 0.2911800704222747
v -0.0286110759493671 -0.0441175569620253 0.0306997974683544
vn 3.2900814227053932 -1.6040409909221334 4.2159968533599717
v 0.0302410000000000 -0.0436240000000000 -0.0314700000000000
vn 2.3657298193380338 -4.7785492243578815 -0.4148052165505506
v 0.0298345000000000 -0.0441149117647059 -0.0306816470588235
vn -1.4977355976801059 -5.1675778007590960 -1.2035065485534937
v 0.0315800967741936 -0.0439930000000000 -0.0298773225806451
vn -2.6439078111043175 -4.5537915486024003 -0.8607844477530712
v 0.0287781666666667 -0.0441260119047620 -0.0316362976190476
vn -2.2504991987696785 -1.5037717925803489 -0.0413577054722221
v 0.0284249807692308 -0.0438390961538461 -0.0307637115384615
vn 0.0631363334932983 -2.7315723994435155 0.1104750019227741
v 0.0307277625899280 -0.0439784388489208 -0.0285443093525180
vn 3.6221075451897162 -1.8018341514267036 3.9984842077194571
v -0.0312770000000000 -0.0436250000000000 0.0300480000000000
vn -0.4622588961824633 -4.4102309733255902 2.7072361693223139
v -0.0307623846153846 -0.0441279615384615 0.0297678461538461
vn -0.9982953475967346 -4.5161624306035506 -2.5781765692851448
v -0.0316650750000000 -0.0441391000000000 0.0288021500000000
vn 0.0006829153050493 -1.6247135450552856 -2.3080387612825768
v -0.0307290000000000 -0.0438596363636364 0.0284253454545455
vn 2.0522213558320819 -1.6617433238785093 0.1532878905681231
v -0.0284232500000000 -0.0438398076923077 0.0307620192307692
vn 1.3251543216715431 -5.7389794506118168 0.7669586110133777
v -0.0288736000000000 -0.0441110000000000 0.0312430000000000
vn -1.5398885159190938 -5.2502725586785752 -1.0385612398716308
v -0.0299282333333333 -0.0440068333333333 0.0316468000000000
vn -2.6066800340493526 -4.4112036701809281 0.9023198200847458
v -0.0298331470588235 -0.0441174411764706 0.0306862352941176
vn -2.6170065631727408 0.1478006851939146 4.6840115791652952
v 0.0311140000000000 -0.0436250000000000 -0.0315660000000000
vn -4.8481919828493334 0.1068596141005531 -0.0386289154757227
v 0.0316320000000000 -0.0436170000000000 -0.0308580000000000
vn -0.0005038896201113 -6.2827728967534977 0.0719795467536553
v 0.0317500526315789 -0.0441273684210526 -0.0317672631578947
vn 2.2230266844068605 -3.3775000207500945 -2.0758737684915474
v 0.0323370000000000 -0.0441347297297297 -0.0323989459459459
vn -0.4973259679415137 -2.9138803677314260 0.3424151629455008
v 0.0287199705882353 -0.0439814338235294 -0.0298025073529412
vn -0.1833424502576529 -2.8427254733246703 0.3571120597937879
v 0.0297503221476510 -0.0439803288590604 -0.0287569932885906
vn 3.4055220704878231 -0.7928289480093907 0.1592178300651703
v -0.0316310000000000 -0.0436160000000000 0.0308510000000000
vn 2.1811834069806961 -3.9684752121780895 -1.8403499287034208
v -0.0313710000000000 -0.0441120000000000 0.0312110000000000
vn 0.0002705759839406 -6.2827732846122943 0.0719094990102846
v -0.0297679473684210 -0.0441283684210526 0.0297510000000000
vn 1.4857021409928599 -4.1433122377837224 -2.7774564519672542
v -0.0307980740740741 -0.0439774814814815 0.0316123333333333
vn 0.8755540475313379 -1.3727784190759682 -2.4918554037054461
v -0.0297426612903226 -0.0438697741935484 0.0286629838709678
vn 2.4265465513388307 -1.3826365507986549 -0.9725950325146246
v -0.0286433387096774 -0.0438569032258065 0.0297863548387097
vn 2.2533210372706964 -2.6249464035351542 -1.9521930862602932
v -0.0290961250000000 -0.0441358333333333 0.0291085000000000
# 193 vertices, 0 vertices normals


usemtl material_0
vt 0.1834769994020462 0.0000000000000000
vt 0.1962890028953552 0.0000000000000000
vt 0.1962890028953552 0.0077990000136197
f 145/1/145 144/2/144 98/3/98
vt 0.1834769994020462 0.0327299982309341
vt 0.1962890028953552 0.0155950002372265
vt 0.1962890028953552 0.0233919993042946
f 167/4/167 155/5/155 133/6/133
vt 0.1962890028953552 0.0311910007148981
f 167/4/167 168/6/168 155/7/155
f 144/1/144 154/3/154 168/5/168
vt 0.1834769994020462 0.0485690012574196
vt 0.1962890028953552 0.0389919988811016
vt 0.1962890028953552 0.0467960014939308
f 144/8/144 168/9/168 154/10/154
vt 0.1834769994020462 0.0644079968333244
vt 0.1962890028953552 0.0546009987592697
vt 0.1962890028953552 0.0624080002307892
f 144/11/144 156/12/156 168/13/168
vt 0.1962890028953552 0.0702150017023087
f 145/11/145 156/13/156 144/14/144
f 145/8/145 98/10/98 169/12/169
f 107/4/107 135/7/135 169/9/169
vt 0.1834769994020462 0.0801680013537407
vt 0.1962890028953552 0.0780209973454475
vt 0.1962890028953552 0.0858250036835670
f 182/15/182 121/16/121 181/17/181
vt 0.1834769994020462 0.0955739989876747
vt 0.1962890028953552 0.0936259999871254
vt 0.1962890028953552 0.1014249995350838
f 182/18/182 107/19/107 121/20/121
vt 0.1834769994020462 0.1109799966216087
vt 0.1962890028953552 0.1092220023274422
f 181/21/181 121/20/121 108/22/108
f 133/18/133 135/17/135 181/19/181
vt 0.1834769994020462 0.1263860017061234
vt 0.1962890028953552 0.1170179992914200
vt 0.1962890028953552 0.1248169988393784
f 182/23/182 181/24/181 135/25/135
vt 0.1834769994020462 0.1417919993400574
vt 0.1962890028953552 0.1326159983873367
vt 0.1962890028953552 0.1404120028018951
f 186/26/186 137/27/137 185/28/185
vt 0.1962890028953552 0.1482090055942535
f 156/26/156 134/28/134 168/29/168
f 155/23/155 170/25/170 100/27/100
f 155/21/155 100/22/100 147/24/147
f 157/15/157 170/14/170 168/16/168
vt 0.1706639975309372 0.0157329998910427
f 155/4/155 168/30/168 170/5/170
f 133/5/133 147/30/147 125/1/125
f 185/8/185 157/12/157 168/11/168
f 125/9/125 112/8/112 183/4/183
f 112/11/112 184/14/184 183/15/183
vt 0.1706639975309372 0.0624080002307892
f 186/8/186 185/11/185 134/31/134
vt 0.1706639975309372 0.0546550005674362
f 185/31/185 168/32/168 134/8/134
vt 0.1962890028953552 0.1560070067644119
vt 0.1834769994020462 0.1571979969739914
f 110/33/110 135/34/135 183/29/183
vt 0.1706639975309372 0.0468979999423027
f 184/4/184 110/8/110 183/35/183
vt 0.1706639975309372 0.0391310006380081
f 172/35/172 186/36/186 134/4/134
vt 0.1706639975309372 0.0934650003910065
f 110/15/110 122/18/122 135/37/135
vt 0.1706639975309372 0.0856859982013702
f 169/37/169 111/38/111 99/15/99
f 111/18/111 99/15/99 122/17/122
vt 0.1706639975309372 0.1248169988393784
f 111/21/111 122/23/122 99/39/99
vt 0.1706639975309372 0.1169330030679703
f 159/39/159 169/40/169 99/21/99
f 36/23/36 12/21/12 50/24/50
f 23/26/23 76/23/76 21/27/21
vt 0.1706639975309372 0.1405500024557114
f 11/23/11 62/26/62 82/41/82
vt 0.1706639975309372 0.1327009946107864
f 37/41/37 52/42/52 62/23/62
f 173/18/173 162/20/162 174/21/174
vt 0.1706639975309372 0.1090840026736259
f 32/18/32 46/21/46 19/43/19
vt 0.1706639975309372 0.1012630015611649
f 12/43/12 77/44/77 94/18/94
f 169/29/169 122/34/122 111/26/111
vt 0.1706639975309372 0.0779189988970757
f 22/11/22 10/15/10 48/45/48
vt 0.1706639975309372 0.0701619982719421
f 22/45/22 14/46/14 10/11/10
vt 0.1834769994020462 0.1726039946079254
vt 0.1962890028953552 0.1638090014457703
vt 0.1962890028953552 0.1716119945049286
f 58/47/58 66/48/66 67/49/67
vt 0.1834769994020462 0.1880100071430206
vt 0.1962890028953552 0.1794179975986481
vt 0.1962890028953552 0.1872249990701675
f 71/50/71 54/51/54 40/52/40
vt 0.1962890028953552 0.1950320005416870
f 159/50/159 172/52/172 156/53/156
f 42/47/42 33/49/33 64/51/64
vt 0.1706639975309372 0.1717150062322617
f 77/34/77 83/47/83 94/54/94
vt 0.1706639975309372 0.1639479994773865
f 59/54/59 47/55/47 35/34/35
f 78/47/78 94/34/94 93/48/93
vt 0.1834769994020462 0.2034160047769547
f 89/56/89 17/50/17 8/53/8
vt 0.1962890028953552 0.2028380036354065
f 79/53/79 78/57/78 93/56/93
f 58/51/58 78/50/78 66/47/66
vt 0.1962890028953552 0.2106419950723648
f 71/58/71 3/56/3 15/57/15
vt 0.1706639975309372 0.2027360051870346
f 71/50/71 15/56/15 3/59/3
vt 0.1706639975309372 0.1949789971113205
f 69/59/69 76/60/76 82/50/82
vt 0.1706639975309372 0.1872249990701675
f 42/47/42 28/50/28 33/61/33
vt 0.1706639975309372 0.1794719994068146
f 13/61/13 12/62/12 80/47/80
f 106/33/106 151/48/151 175/34/175
vt 0.1706639975309372 0.1561689972877502
f 21/26/21 1/34/1 77/63/77
vt 0.1706639975309372 0.1483709961175919
f 77/63/77 1/64/1 83/26/83
vt 0.1834769994020462 0.2188220024108887
vt 0.1962890028953552 0.2184430062770844
f 21/65/21 76/58/76 84/66/84
vt 0.1834769994020462 0.2351700067520142
vt 0.1962890028953552 0.2262420058250427
vt 0.1962890028953552 0.2340389937162399
f 34/67/34 22/68/22 48/69/48
vt 0.1962890028953552 0.2418349981307983
f 139/67/139 140/69/140 130/70/130
f 69/65/69 85/66/85 75/68/75
vt 0.1962890028953552 0.2496339976787567
vt 0.1834769994020462 0.2496339976787567
f 6/71/6 28/72/28 16/70/16
vt 0.1962890028953552 0.2652289867401123
vt 0.1834769994020462 0.2665250003337860
vt 0.1962890028953552 0.2574329972267151
f 73/73/73 91/74/91 92/75/92
vt 0.1962890028953552 0.2730259895324707
f 86/76/86 87/74/87 70/73/70
f 71/75/71 87/72/87 54/71/54
f 60/72/60 95/67/95 61/70/61
vt 0.1962890028953552 0.2886259853839874
vt 0.1834769994020462 0.2823640108108521
vt 0.1962890028953552 0.2808240056037903
f 152/77/152 132/78/132 119/79/119
vt 0.1962890028953552 0.3042350113391876
vt 0.1834769994020462 0.2982029914855957
vt 0.1962890028953552 0.2964290082454681
f 65/80/65 73/81/73 92/82/92
vt 0.1962890028953552 0.3120419979095459
vt 0.1834769994020462 0.3140420019626617
f 62/83/62 69/84/69 82/80/82
f 179/82/179 103/81/103 150/77/150
vt 0.1962890028953552 0.3276549875736237
vt 0.1834769994020462 0.3298020064830780
vt 0.1962890028953552 0.3198490142822266
f 54/85/54 86/86/86 2/87/2
vt 0.1962890028953552 0.3432599902153015
vt 0.1834769994020462 0.3452079892158508
vt 0.1962890028953552 0.3354589939117432
f 2/88/2 29/89/29 16/90/16
vt 0.1962890028953552 0.3510589897632599
f 164/91/164 189/89/189 174/88/174
f 47/90/47 48/86/48 35/85/35
f 139/87/139 190/84/190 118/83/118
f 2/79/2 86/78/86 53/76/53
vt 0.1962890028953552 0.3666520118713379
vt 0.1834769994020462 0.3606140017509460
vt 0.1962890028953552 0.3588559925556183
f 37/92/37 62/93/62 11/94/11
vt 0.1962890028953552 0.3822489976882935
vt 0.1834769994020462 0.3760200142860413
vt 0.1962890028953552 0.3744510114192963
f 41/95/41 29/96/29 39/97/39
vt 0.1962890028953552 0.3900460004806519
vt 0.1834769994020462 0.3914259970188141
f 22/98/22 9/99/9 14/95/14
f 41/97/41 39/96/39 53/92/53
vt 0.1706639975309372 0.2339009940624237
f 124/65/124 122/67/122 110/100/110
vt 0.1706639975309372 0.2260800004005432
f 79/100/79 94/101/94 78/65/78
f 159/65/159 156/68/156 169/67/169
vt 0.1962890028953552 0.4056409895420074
vt 0.1834769994020462 0.4068320095539093
vt 0.1962890028953552 0.3978430032730103
f 102/102/102 149/103/149 103/104/103
vt 0.1962890028953552 0.4134419858455658
f 41/105/41 53/103/53 17/102/17
f 119/104/119 132/99/132 131/98/131
vt 0.1962890028953552 0.4212459921836853
vt 0.1834769994020462 0.4222379922866821
f 70/105/70 17/106/17 53/107/53
f 56/91/56 64/94/64 45/93/45
vt 0.1962890028953552 0.4290519952774048
f 50/108/50 94/107/94 58/106/58
vt 0.1962890028953552 0.4446659982204437
vt 0.1834769994020462 0.4376440048217773
vt 0.1962890028953552 0.4368590116500854
f 70/109/70 8/110/8 17/111/17
vt 0.1962890028953552 0.4524720013141632
vt 0.1834769994020462 0.4530499875545502
f 89/112/89 72/113/72 17/109/17
f 91/111/91 8/110/8 92/108/92
vt 0.1962890028953552 0.4680770039558411
vt 0.1834769994020462 0.4684560000896454
vt 0.1962890028953552 0.4602760076522827
f 142/114/142 192/115/192 143/116/143
vt 0.1962890028953552 0.4836719930171967
vt 0.1834769994020462 0.4848040044307709
vt 0.1962890028953552 0.4758760035037994
f 180/117/180 150/118/150 161/119/161
vt 0.1962890028953552 0.4914689958095551
f 182/120/182 135/118/135 107/117/107
f 5/119/5 6/115/6 18/114/18
f 23/116/23 21/113/21 77/112/77
vt 0.1962890028953552 0.4992679953575134
vt 0.1834769994020462 0.4992679953575134
f 177/121/177 178/122/178 166/120/166
f 73/56/73 74/58/74 92/65/92
vt 0.1706639975309372 0.2182819992303848
f 43/56/43 44/65/44 31/123/31
vt 0.1706639975309372 0.2105019986629486
f 114/123/114 127/124/127 113/56/113
vt 0.1706639975309372 0.0078840004280210
vt 0.1706639975309372 0.0000000000000000
f 165/125/165 178/126/178 166/1/166
vt 0.1706639975309372 0.0235539991408587
f 165/127/165 166/30/166 178/4/178
vt 0.1706639975309372 0.0313519984483719
f 158/128/158 100/127/100 170/4/170
f 40/125/40 28/1/28 3/30/3
f 49/46/49 10/31/10 14/11/14
f 65/35/65 57/8/57 56/32/56
f 144/128/144 168/4/168 167/36/167
f 58/38/58 67/45/67 35/15/35
f 79/75/79 93/74/93 94/72/94
f 37/76/37 38/78/38 52/74/52
f 6/42/6 19/39/19 46/23/46
vt 0.1706639975309372 0.2653670012950897
f 4/72/4 16/74/16 43/129/43
vt 0.1706639975309372 0.2575170099735260
f 49/129/49 61/130/61 10/72/10
f 133/44/133 125/37/125 183/18/183
f 12/40/12 24/43/24 80/21/80
vt 0.1706639975309372 0.2809860110282898
f 159/74/159 99/78/99 146/131/146
vt 0.1706639975309372 0.2731879949569702
f 33/131/33 45/132/45 64/74/64
vt 0.1706639975309372 0.2496339976787567
f 68/67/68 60/72/60 80/133/80
vt 0.1706639975309372 0.2417500019073486
f 92/133/92 8/134/8 3/67/3
f 176/55/176 164/63/164 163/34/163
f 133/41/133 181/26/181 108/64/108
f 86/62/86 70/54/70 53/47/53
f 43/60/43 27/61/27 44/50/44
f 5/134/5 18/100/18 20/67/20
f 59/123/59 67/65/67 66/101/66
f 41/72/41 30/130/30 29/133/29
f 50/74/50 12/132/12 94/129/94
f 6/59/6 46/56/46 28/124/28
vt 0.1706639975309372 0.2887650132179260
f 73/131/73 90/78/90 74/135/74
vt 0.1706639975309372 0.2965309917926788
f 80/81/80 60/136/60 61/135/61
f 5/78/5 19/81/19 6/135/6
vt 0.1706639975309372 0.3120419979095459
f 90/81/90 92/84/92 74/137/74
vt 0.1706639975309372 0.3042890131473541
f 4/137/4 31/138/31 20/81/20
f 101/87/101 114/86/114 125/84/125
f 4/90/4 20/89/20 18/86/18
vt 0.1706639975309372 0.3275530040264130
f 50/84/50 58/86/58 35/139/35
vt 0.1706639975309372 0.3197950124740601
f 4/139/4 43/140/43 31/84/31
f 172/84/172 134/81/134 156/80/156
vt 0.1706639975309372 0.3353190124034882
f 72/86/72 30/141/30 17/139/17
f 85/81/85 82/138/82 75/136/75
f 63/84/63 55/140/55 44/137/44
vt 0.1706639975309372 0.3430989980697632
f 32/86/32 45/89/45 33/142/33
f 69/142/69 84/141/84 76/86/76
vt 0.1706639975309372 0.3587180078029633
f 73/89/73 92/93/92 90/143/90
vt 0.1706639975309372 0.3508970141410828
f 42/143/42 57/144/57 3/89/3
f 43/92/43 29/96/29 27/93/27
vt 0.1706639975309372 0.3901839852333069
f 78/96/78 94/99/94 83/145/83
vt 0.1706639975309372 0.3823339939117432
f 2/145/2 16/146/16 28/96/28
f 39/104/39 29/103/29 53/99/53
f 63/105/63 44/107/44 30/103/30
vt 0.1706639975309372 0.4058020114898682
f 12/99/12 23/103/23 77/147/77
vt 0.1706639975309372 0.3980050086975098
f 29/147/29 44/148/44 27/99/27
f 177/99/177 165/96/165 178/95/178
vt 0.1706639975309372 0.3744510114192963
f 28/93/28 46/96/46 33/149/33
vt 0.1706639975309372 0.3665669858455658
f 167/149/167 108/150/108 97/93/97
vt 0.1706639975309372 0.4368590116500854
f 57/107/57 64/110/64 56/151/56
vt 0.1706639975309372 0.4291059970855713
f 4/151/4 6/152/6 16/107/16
f 121/109/121 107/113/107 108/110/108
vt 0.1706639975309372 0.4679160118103027
f 138/113/138 132/115/132 162/153/162
vt 0.1706639975309372 0.4601359963417053
f 36/153/36 48/154/48 10/113/10
f 2/119/2 53/118/53 29/115/29
f 91/120/91 7/122/7 8/118/8
vt 0.1706639975309372 0.4835340082645416
f 139/115/139 138/118/138 188/155/188
vt 0.1706639975309372 0.4757139980792999
f 42/155/42 3/156/3 28/115/28
f 32/115/32 33/113/33 46/116/46
vt 0.1706639975309372 0.4523699879646301
f 71/110/71 40/113/40 3/157/3
vt 0.1706639975309372 0.4446119964122772
f 29/157/29 30/158/30 44/110/44
f 127/110/127 125/107/125 113/108/113
vt 0.1706639975309372 0.4213480055332184
f 144/103/144 167/107/167 97/159/97
vt 0.1706639975309372 0.4135819971561432
f 124/159/124 111/160/111 122/103/122
f 63/93/63 30/89/30 72/91/72
vt 0.1706639975309372 0.4992679953575134
f 36/118/36 35/122/35 48/161/48
vt 0.1706639975309372 0.4913839995861053
f 65/161/65 92/162/92 57/118/57
f 4/93/4 18/150/18 6/143/6
f 58/144/58 94/142/94 78/89/78
f 36/96/36 24/146/24 12/149/12
f 11/99/11 13/148/13 81/145/81
f 96/110/96 80/158/80 81/151/81
f 71/152/71 3/159/3 8/107/8
f 133/113/133 155/154/155 147/157/147
f 187/118/187 190/162/190 188/155/188
f 54/156/54 2/153/2 28/115/28
f 71/160/71 8/147/8 87/103/87
f 36/81/36 10/78/10 60/77/60
vt 0.1962890028953552 0.5070660114288330
f 120/122/120 131/121/131 132/163/132
vt 0.1834769994020462 0.5161589980125427
vt 0.1962890028953552 0.5148630142211914
f 43/164/43 16/163/16 29/165/29
vt 0.1834769994020462 0.5319979786872864
vt 0.1962890028953552 0.5226590037345886
vt 0.1962890028953552 0.5304579734802246
f 11/166/11 82/167/82 23/168/23
vt 0.1962890028953552 0.5382590293884277
f 171/166/171 158/168/158 170/169/170
f 68/164/68 24/165/24 36/167/36
vt 0.1834769994020462 0.5478370189666748
vt 0.1962890028953552 0.5460630059242249
vt 0.1962890028953552 0.5538690090179443
f 152/170/152 106/171/106 175/172/175
vt 0.1834769994020462 0.5636749863624573
vt 0.1962890028953552 0.5616760253906250
vt 0.1962890028953552 0.5694829821586609
f 106/173/106 105/174/105 151/175/151
vt 0.1834769994020462 0.5794360041618347
vt 0.1962890028953552 0.5772889852523804
f 68/176/68 80/175/80 24/177/24
f 68/173/68 51/172/51 60/174/60
f 68/170/68 36/169/36 51/171/51
vt 0.1834769994020462 0.5948420166969299
vt 0.1962890028953552 0.5850930213928223
vt 0.1962890028953552 0.5928940176963806
f 36/178/36 60/179/60 51/180/51
vt 0.1834769994020462 0.6102480292320251
vt 0.1962890028953552 0.6006929874420166
vt 0.1962890028953552 0.6084889769554138
f 145/181/145 169/182/169 156/183/156
vt 0.1962890028953552 0.6162859797477722
f 104/181/104 179/183/179 153/184/153
f 49/178/49 11/180/11 81/182/81
vt 0.1834769994020462 0.6256539821624756
vt 0.1962890028953552 0.6240839958190918
vt 0.1962890028953552 0.6318830251693726
f 49/185/49 81/186/81 61/187/61
vt 0.1834769994020462 0.6410599946975708
vt 0.1962890028953552 0.6396800279617310
vt 0.1962890028953552 0.6474760174751282
f 115/188/115 116/189/116 190/190/190
vt 0.1834769994020462 0.6564660072326660
vt 0.1962890028953552 0.6552749872207642
f 164/191/164 141/190/141 189/192/189
f 13/188/13 23/187/23 12/189/12
f 69/185/69 82/184/82 85/186/85
f 171/176/171 170/177/170 157/179/157
vt 0.1706639975309372 0.5306190252304077
f 11/164/11 25/166/25 81/193/81
vt 0.1706639975309372 0.5228220224380493
f 11/193/11 81/194/81 25/164/25
f 179/166/179 190/164/190 116/167/116
vt 0.1706639975309372 0.5616760253906250
f 10/170/10 95/173/95 60/195/60
vt 0.1706639975309372 0.5539230108261108
f 11/195/11 23/196/23 13/170/13
f 13/173/13 96/170/96 81/172/81
f 13/176/13 80/173/80 96/175/96
vt 0.1706639975309372 0.5771870017051697
f 174/173/174 161/176/161 149/197/149
vt 0.1706639975309372 0.5694289803504944
f 192/197/192 177/198/177 166/173/166
f 80/166/80 61/169/61 81/170/81
vt 0.1706639975309372 0.5461649894714355
f 130/166/130 119/170/119 132/199/132
vt 0.1706639975309372 0.5383989810943604
f 120/199/120 132/200/132 119/166/119
vt 0.1706639975309372 0.6083509922027588
f 120/178/120 119/181/119 131/201/131
vt 0.1706639975309372 0.6005309820175171
f 152/201/152 119/202/119 105/178/105
f 123/181/123 122/178/122 109/182/109
vt 0.1706639975309372 0.6398180127143860
f 175/185/175 151/188/151 163/203/163
vt 0.1706639975309372 0.6319680213928223
f 49/203/49 26/204/26 38/185/38
f 152/188/152 105/185/105 106/187/106
f 92/191/92 3/188/3 57/190/57
vt 0.1706639975309372 0.6554359793663025
f 176/188/176 141/191/141 164/205/164
vt 0.1706639975309372 0.6476380228996277
f 36/205/36 50/206/50 35/188/35
f 142/181/142 143/184/143 193/185/193
vt 0.1706639975309372 0.6240839958190918
f 167/181/167 133/185/133 108/207/108
vt 0.1706639975309372 0.6162009835243225
f 40/207/40 54/208/54 28/181/28
f 69/176/69 75/179/75 82/178/82
vt 0.1706639975309372 0.5927330255508423
f 173/176/173 174/178/174 149/209/149
vt 0.1706639975309372 0.5849530100822449
f 87/209/87 8/210/8 70/176/70
vt 0.1834769994020462 0.6718720197677612
vt 0.1962890028953552 0.6630759835243225
vt 0.1962890028953552 0.6708800196647644
f 114/211/114 125/212/125 127/213/127
vt 0.1834769994020462 0.6872779726982117
vt 0.1962890028953552 0.6786860227584839
vt 0.1962890028953552 0.6864929795265198
f 23/214/23 82/215/82 76/216/76
vt 0.1962890028953552 0.6942999958992004
f 191/214/191 142/216/142 193/217/193
f 175/211/175 163/213/163 164/215/164
vt 0.1706639975309372 0.6864929795265198
f 169/211/169 135/214/135 122/218/122
vt 0.1706639975309372 0.6787400245666504
f 139/218/139 118/219/118 129/211/129
f 191/214/191 193/211/193 141/215/141
vt 0.1834769994020462 0.7026839852333069
vt 0.1962890028953552 0.7021059989929199
vt 0.1962890028953552 0.7099099755287170
f 49/220/49 37/221/37 11/222/11
vt 0.1834769994020462 0.7180889844894409
f 192/223/192 166/220/166 143/222/143
vt 0.1962890028953552 0.7177109718322754
f 158/222/158 148/224/148 100/223/100
f 165/220/165 153/214/153 179/217/179
f 166/217/166 178/221/178 180/220/180
vt 0.1706639975309372 0.7020040154457092
f 59/214/59 35/220/35 67/225/67
vt 0.1706639975309372 0.6942459940910339
f 180/225/180 160/226/160 150/214/150
f 180/191/180 150/212/150 160/211/160
f 178/212/178 179/191/179 180/192/180
vt 0.1706639975309372 0.6709820032119751
f 165/191/165 179/211/179 178/227/178
vt 0.1706639975309372 0.6632159948348999
f 104/227/104 118/228/118 190/191/190
vt 0.1706639975309372 0.5150009989738464
f 143/122/143 166/164/166 180/229/180
vt 0.1706639975309372 0.5071510076522827
f 107/229/107 169/230/169 98/122/98
vt 0.1962890028953552 0.7255100011825562
f 139/223/139 129/224/129 140/231/140
vt 0.1834769994020462 0.7344369888305664
vt 0.1962890028953552 0.7333059906959534
vt 0.1962890028953552 0.7411029934883118
f 141/232/141 143/233/143 189/234/189
vt 0.1834769994020462 0.7489010095596313
vt 0.1962890028953552 0.7489010095596313
f 143/235/143 180/234/180 189/236/189
f 139/232/139 130/231/130 138/233/138
vt 0.1834769994020462 0.7657930254936218
vt 0.1962890028953552 0.7566999793052673
f 138/237/138 130/235/130 117/238/117
vt 0.1962890028953552 0.7644969820976257
f 108/238/108 107/239/107 98/237/98
vt 0.1962890028953552 0.7722929716110229
f 138/240/138 117/237/117 132/239/132
vt 0.1962890028953552 0.7800920009613037
vt 0.1834769994020462 0.7816320061683655
f 152/241/152 175/242/175 162/240/162
f 117/235/117 130/236/130 132/238/132
vt 0.1962890028953552 0.7956969738006592
vt 0.1834769994020462 0.7974699735641479
vt 0.1962890028953552 0.7878929972648621
f 21/243/21 84/244/84 1/245/1
vt 0.1962890028953552 0.8113099932670593
vt 0.1834769994020462 0.8133090138435364
vt 0.1962890028953552 0.8035029768943787
f 42/246/42 64/247/64 57/248/57
vt 0.1962890028953552 0.8191170096397400
f 175/249/175 164/247/164 174/246/174
f 180/248/180 174/244/174 189/243/189
vt 0.1962890028953552 0.8347269892692566
vt 0.1834769994020462 0.8290699720382690
vt 0.1962890028953552 0.8269230127334595
f 187/250/187 115/251/115 190/252/190
vt 0.1962890028953552 0.8503260016441345
vt 0.1834769994020462 0.8444759845733643
vt 0.1962890028953552 0.8425279855728149
f 144/253/144 97/254/97 98/255/98
vt 0.1962890028953552 0.8581230044364929
vt 0.1834769994020462 0.8598819971084595
f 152/256/152 162/257/162 132/253/132
f 49/255/49 38/254/38 37/250/37
f 114/252/114 126/251/126 112/249/112
f 114/245/114 113/242/113 125/241/125
vt 0.1962890028953552 0.8737180233001709
vt 0.1834769994020462 0.8752880096435547
vt 0.1962890028953552 0.8659200072288513
f 104/258/104 190/259/190 179/260/179
vt 0.1962890028953552 0.8893129825592041
vt 0.1834769994020462 0.8906930088996887
vt 0.1962890028953552 0.8815169930458069
f 49/261/49 14/262/14 26/263/26
vt 0.1962890028953552 0.8971099853515625
f 139/264/139 188/262/188 190/261/190
f 141/263/141 193/259/193 143/258/143
vt 0.1706639975309372 0.7331680059432983
f 175/223/175 174/232/174 162/265/162
vt 0.1706639975309372 0.7253469824790955
f 180/265/180 161/266/161 174/223/174
f 47/223/47 34/231/34 48/232/48
vt 0.1962890028953552 0.9049090147018433
vt 0.1962890028953552 0.9127100110054016
vt 0.1834769994020462 0.9060990214347839
f 179/267/179 116/268/116 103/269/103
f 187/235/187 188/232/188 138/234/138
vt 0.1962890028953552 0.9205139875411987
vt 0.1834769994020462 0.9215049743652344
f 187/268/187 138/270/138 115/271/115
f 115/269/115 173/264/173 102/267/102
vt 0.1706639975309372 0.7489010095596313
f 173/232/173 138/235/138 162/272/162
vt 0.1706639975309372 0.7410179972648621
f 161/272/161 150/273/150 149/232/149
f 173/260/173 149/257/149 102/256/102
vt 0.1962890028953552 0.9283199906349182
f 115/274/115 138/271/138 173/270/173
vt 0.1962890028953552 0.9439340233802795
vt 0.1834769994020462 0.9369109869003296
vt 0.1962890028953552 0.9361270070075989
f 54/275/54 87/276/87 86/277/86
vt 0.1962890028953552 0.9517400264739990
vt 0.1834769994020462 0.9523169994354248
f 41/278/41 17/279/17 30/275/30
f 115/277/115 103/276/103 116/274/116
vt 0.1962890028953552 0.9673449993133545
vt 0.1834769994020462 0.9677230119705200
vt 0.1962890028953552 0.9595429897308350
f 150/280/150 103/281/103 149/282/149
vt 0.1962890028953552 0.9829400181770325
vt 0.1834769994020462 0.9840710163116455
vt 0.1962890028953552 0.9751430153846741
f 185/283/185 171/284/171 157/285/157
vt 0.1962890028953552 0.9907360076904297
f 148/286/148 101/284/101 147/283/147
f 148/285/148 147/281/147 100/280/100
f 133/282/133 183/279/183 135/278/135
vt 0.1962890028953552 0.9985349774360657
vt 0.1834769994020462 0.9985349774360657
f 126/287/126 136/288/136 184/286/184
vt 0.1706639975309372 0.7175499796867371
f 97/220/97 108/223/108 98/289/98
vt 0.1706639975309372 0.7097700238227844
f 111/289/111 122/290/122 123/220/123
f 179/161/179 150/122/150 180/230/180
f 126/194/126 184/229/184 112/164/112
f 176/198/176 191/195/191 141/173/141
f 136/199/136 124/170/124 110/196/110
f 136/193/136 110/166/110 184/200/184
f 101/210/101 125/197/125 147/176/147
f 7/202/7 89/209/89 8/178/8
f 114/240/114 112/242/112 125/237/125
f 111/204/111 123/207/123 109/185/109
f 115/201/115 102/181/102 103/208/103
vt 0.1706639975309372 0.7802529931068420
f 10/237/10 61/242/61 95/291/95
vt 0.1706639975309372 0.7724549770355225
f 111/291/111 109/292/109 122/237/122
# 314 faces, 292 coords texture

# End of File
