mtllib material.mtl
usemtl camera.008
v -0.00008100 -0.00001600 -0.00005300
v -0.00008100 -0.00001600 -0.00005700
v -0.00008200 -0.00001600 -0.00006100
v -0.00008200 -0.00001600 -0.00006400
v -0.00008200 -0.00001600 -0.00006800
v -0.00008300 -0.00001600 -0.00007200
v -0.00008300 -0.00001600 -0.00007600
v -0.00008300 -0.00001600 -0.00008000
v -0.00008400 -0.00001600 -0.00008400
v -0.00008100 -0.00001200 -0.00005300
v -0.00008100 -0.00001200 -0.00005700
v -0.00008200 -0.00001200 -0.00006100
v -0.00008200 -0.00001200 -0.00006400
v -0.00008300 -0.00001200 -0.00007200
v -0.00008300 -0.00001200 -0.00007200
v -0.00008300 -0.00001200 -0.00007200
v -0.00008300 -0.00001200 -0.00007600
v -0.00008300 -0.00001200 -0.00008000
v -0.00008400 -0.00001200 -0.00008400
v -0.00008100 -0.00000800 -0.00005300
v -0.00008100 -0.00000800 -0.00005700
v -0.00008200 -0.00000800 -0.00006100
v -0.00008300 -0.00000800 -0.00007600
v -0.00008300 -0.00000800 -0.00008000
v -0.00008400 -0.00000800 -0.00008400
v -0.00008100 -0.00000400 -0.00005300
v -0.00008100 -0.00000400 -0.00005700
v -0.00008200 -0.00000400 -0.00006100
v -0.00008200 -0.00000400 -0.00006400
v -0.00008200 -0.00000400 -0.00006800
v -0.00008300 -0.00000400 -0.00007200
v -0.00008300 -0.00000400 -0.00007600
v -0.00008300 -0.00000400 -0.00008000
v -0.00008400 -0.00000400 -0.00008400
v -0.00008100 -0.00000000 -0.00005300
v -0.00008100 -0.00000000 -0.00005700
v -0.00008200 -0.00000000 -0.00006100
v -0.00008200 -0.00000000 -0.00006400
v -0.00008200 -0.00000000 -0.00006800
v -0.00008300 -0.00000000 -0.00007200
v -0.00008300 -0.00000000 -0.00007600
v -0.00008300 -0.00000000 -0.00008000
v -0.00008400 -0.00000000 -0.00008400
v -0.00008100 0.00000400 -0.00005300
v -0.00008100 0.00000400 -0.00005700
v -0.00008200 0.00000400 -0.00006100
v -0.00008200 0.00000400 -0.00006400
v -0.00008200 0.00000400 -0.00006800
v -0.00008300 0.00000400 -0.00007200
v -0.00008300 0.00000400 -0.00007600
v -0.00008300 0.00000400 -0.00008000
v -0.00008400 0.00000400 -0.00008400
v -0.00008100 0.00000800 -0.00005300
v -0.00008100 0.00000800 -0.00005700
v -0.00008200 0.00000800 -0.00006100
v -0.00008300 0.00000800 -0.00007600
v -0.00008300 0.00000800 -0.00008000
v -0.00008400 0.00000800 -0.00008400
v -0.00008100 0.00001200 -0.00005300
v -0.00008100 0.00001200 -0.00005700
v -0.00008200 0.00001200 -0.00006100
v -0.00008200 0.00001200 -0.00006400
v -0.00008300 0.00001200 -0.00007200
v -0.00008300 0.00001200 -0.00007200
v -0.00008300 0.00001200 -0.00007600
v -0.00008300 0.00001200 -0.00008000
v -0.00008400 0.00001200 -0.00008400
v -0.00008100 0.00001600 -0.00005300
v -0.00008100 0.00001600 -0.00005700
v -0.00008200 0.00001600 -0.00006100
v -0.00008200 0.00001600 -0.00006400
v -0.00008200 0.00001600 -0.00006800
v -0.00008300 0.00001600 -0.00007200
v -0.00008300 0.00001600 -0.00007600
v -0.00008300 0.00001600 -0.00008000
v -0.00008400 0.00001600 -0.00008400
v -0.00008200 0.00000500 -0.00006800
v -0.00008200 0.00000500 -0.00007000
v -0.00008200 0.00000600 -0.00007100
v -0.00008300 0.00000700 -0.00007200
v -0.00008300 0.00000800 -0.00007200
v -0.00008300 0.00000900 -0.00007200
v -0.00008300 0.00001000 -0.00007200
v -0.00008300 0.00001000 -0.00007200
v -0.00008300 0.00001100 -0.00007200
v -0.00008300 0.00001100 -0.00007200
v -0.00008200 0.00001200 -0.00007100
v -0.00008200 0.00001300 -0.00007000
v -0.00008200 0.00001300 -0.00007000
v -0.00008200 0.00001300 -0.00006800
v -0.00008200 0.00000400 -0.00006600
v -0.00008200 0.00000400 -0.00007000
v -0.00008300 0.00001200 -0.00007400
v -0.00008300 0.00001000 -0.00007600
v -0.00008300 0.00000800 -0.00007400
v -0.00008300 0.00001000 -0.00007400
v -0.00008200 0.00001600 -0.00007000
v -0.00008300 0.00001400 -0.00007200
v -0.00008200 0.00001400 -0.00006800
v -0.00008200 0.00001400 -0.00007000
v -0.00008200 0.00001600 -0.00006600
v -0.00008200 0.00001400 -0.00006400
v -0.00008200 0.00001400 -0.00006600
v -0.00008200 0.00001300 -0.00006700
v -0.00008200 0.00001200 -0.00006600
v -0.00008200 0.00001100 -0.00006500
v -0.00008200 0.00001000 -0.00006500
v -0.00008200 0.00001000 -0.00006500
v -0.00008200 0.00000900 -0.00006400
v -0.00008200 0.00000800 -0.00006500
v -0.00008200 0.00000700 -0.00006500
v -0.00008200 0.00000600 -0.00006600
v -0.00008200 0.00000500 -0.00006700
v -0.00008200 0.00001200 -0.00006300
v -0.00008200 0.00000800 -0.00006300
v -0.00008200 0.00001000 -0.00006100
v -0.00008200 0.00001000 -0.00006300
v -0.00008200 -0.00001300 -0.00006800
v -0.00008200 -0.00001300 -0.00007000
v -0.00008200 -0.00001200 -0.00007100
v -0.00008300 -0.00001100 -0.00007200
v -0.00008300 -0.00001100 -0.00007200
v -0.00008300 -0.00001000 -0.00007200
v -0.00008300 -0.00001000 -0.00007200
v -0.00008300 -0.00000900 -0.00007200
v -0.00008300 -0.00000800 -0.00007200
v -0.00008300 -0.00000700 -0.00007200
v -0.00008200 -0.00000600 -0.00007100
v -0.00008200 -0.00000500 -0.00007000
v -0.00008200 -0.00000500 -0.00007000
v -0.00008200 -0.00000500 -0.00006800
v -0.00008200 -0.00001400 -0.00006800
v -0.00008200 -0.00001600 -0.00006600
v -0.00008200 -0.00001400 -0.00006400
v -0.00008200 -0.00001400 -0.00006600
v -0.00008300 -0.00001400 -0.00007200
v -0.00008200 -0.00001600 -0.00007000
v -0.00008200 -0.00001400 -0.00007000
v -0.00008300 -0.00000800 -0.00007400
v -0.00008300 -0.00001000 -0.00007600
v -0.00008300 -0.00001200 -0.00007400
v -0.00008300 -0.00001000 -0.00007400
v -0.00008200 -0.00000400 -0.00007000
v -0.00008200 -0.00000400 -0.00007000
v -0.00008200 -0.00000400 -0.00006600
v -0.00008200 -0.00000500 -0.00006700
v -0.00008200 -0.00000600 -0.00006600
v -0.00008200 -0.00000700 -0.00006500
v -0.00008200 -0.00000800 -0.00006500
v -0.00008200 -0.00000900 -0.00006400
v -0.00008200 -0.00001000 -0.00006500
v -0.00008200 -0.00001000 -0.00006500
v -0.00008200 -0.00001100 -0.00006500
v -0.00008200 -0.00001200 -0.00006600
v -0.00008200 -0.00001300 -0.00006700
v -0.00008200 -0.00000800 -0.00006300
v -0.00008200 -0.00001200 -0.00006300
v -0.00008200 -0.00001000 -0.00006100
v -0.00008200 -0.00001000 -0.00006300
v -0.00008400 -0.00001300 -0.00008800
v -0.00008400 -0.00001500 -0.00008800
v -0.00008400 -0.00001600 -0.00008700
v -0.00008400 -0.00001800 -0.00008600
v -0.00008400 -0.00001900 -0.00008500
v -0.00008400 -0.00001900 -0.00008300
v -0.00008300 -0.00002000 -0.00008100
v -0.00008300 -0.00002000 -0.00007800
v -0.00008300 -0.00002000 -0.00007600
v -0.00008300 -0.00002000 -0.00007300
v -0.00008200 -0.00002000 -0.00007000
v -0.00008200 -0.00002000 -0.00006700
v -0.00008200 -0.00002000 -0.00006400
v -0.00008200 -0.00002000 -0.00006100
v -0.00008100 -0.00002000 -0.00005800
v -0.00008100 -0.00002000 -0.00005500
v -0.00008100 -0.00001900 -0.00005400
v -0.00008100 -0.00001900 -0.00005200
v -0.00008100 -0.00001800 -0.00005100
v -0.00008100 -0.00001600 -0.00005000
v -0.00008100 -0.00001500 -0.00004900
v -0.00008100 -0.00001300 -0.00004900
v -0.00008100 -0.00001000 -0.00004900
v -0.00008100 -0.00000700 -0.00004900
v -0.00008100 -0.00000400 -0.00004900
v -0.00008100 -0.00000100 -0.00004900
v -0.00008100 0.00000100 -0.00004900
v -0.00008100 0.00000400 -0.00004900
v -0.00008100 0.00000700 -0.00004900
v -0.00008100 0.00001000 -0.00004900
v -0.00008100 0.00001300 -0.00004900
v -0.00008100 0.00001500 -0.00004900
v -0.00008100 0.00001600 -0.00005000
v -0.00008100 0.00001800 -0.00005100
v -0.00008100 0.00001900 -0.00005200
v -0.00008100 0.00001900 -0.00005400
v -0.00008100 0.00001900 -0.00005500
v -0.00008100 0.00001900 -0.00005800
v -0.00008200 0.00001900 -0.00006100
v -0.00008200 0.00001900 -0.00006400
v -0.00008200 0.00001900 -0.00006700
v -0.00008200 0.00001900 -0.00007000
v -0.00008300 0.00001900 -0.00007300
v -0.00008300 0.00001900 -0.00007600
v -0.00008300 0.00001900 -0.00007800
v -0.00008300 0.00001900 -0.00008100
v -0.00008400 0.00001900 -0.00008300
v -0.00008400 0.00001900 -0.00008500
v -0.00008400 0.00001800 -0.00008600
v -0.00008400 0.00001600 -0.00008700
v -0.00008400 0.00001500 -0.00008800
v -0.00008400 0.00001300 -0.00008800
v -0.00008400 0.00001000 -0.00008800
v -0.00008400 0.00000700 -0.00008800
v -0.00008400 0.00000400 -0.00008800
v -0.00008400 0.00000100 -0.00008800
v -0.00008400 -0.00000100 -0.00008800
v -0.00008400 -0.00000400 -0.00008800
v -0.00008400 -0.00000700 -0.00008800
v -0.00008400 -0.00001000 -0.00008800
v -0.00008000 0.00000500 -0.00006900
v -0.00008000 0.00000500 -0.00007000
v -0.00008000 0.00000500 -0.00007000
v -0.00008000 0.00000600 -0.00007100
v -0.00008000 0.00000700 -0.00007200
v -0.00008000 0.00000800 -0.00007200
v -0.00008000 0.00000900 -0.00007300
v -0.00008000 0.00001000 -0.00007200
v -0.00008000 0.00001100 -0.00007200
v -0.00008000 0.00001200 -0.00007100
v -0.00008000 0.00001300 -0.00007000
v -0.00008000 0.00001300 -0.00006900
v -0.00008000 0.00000900 -0.00006900
v -0.00008000 0.00000700 -0.00006900
v -0.00008000 0.00000900 -0.00006700
v -0.00008000 0.00000700 -0.00006700
v -0.00008000 0.00000900 -0.00007100
v -0.00008000 0.00000700 -0.00007100
v -0.00008000 0.00001100 -0.00006900
v -0.00008000 0.00001100 -0.00007100
v -0.00008000 0.00001100 -0.00006700
v -0.00008000 0.00001300 -0.00006700
v -0.00008000 0.00001200 -0.00006600
v -0.00008000 0.00001100 -0.00006500
v -0.00008000 0.00001000 -0.00006500
v -0.00008000 0.00000900 -0.00006500
v -0.00008000 0.00000800 -0.00006500
v -0.00008000 0.00000700 -0.00006500
v -0.00008000 0.00000600 -0.00006600
v -0.00008000 0.00000500 -0.00006700
v -0.00008000 0.00001300 -0.00006900
v -0.00008200 0.00000500 -0.00006800
v -0.00008000 0.00000500 -0.00006900
v -0.00008100 0.00000500 -0.00006800
v -0.00008200 0.00001300 -0.00006800
v -0.00008100 0.00001300 -0.00006800
v -0.00008000 0.00001300 -0.00007000
v -0.00008000 0.00001300 -0.00007000
v -0.00008000 0.00001200 -0.00007100
v -0.00008000 0.00001100 -0.00007200
v -0.00008000 0.00001000 -0.00007200
v -0.00008000 0.00000900 -0.00007300
v -0.00008000 0.00000800 -0.00007200
v -0.00008000 0.00000700 -0.00007200
v -0.00008000 0.00000600 -0.00007100
v -0.00008000 0.00000500 -0.00007000
v -0.00008000 0.00000500 -0.00007000
v -0.00008200 0.00000500 -0.00007000
v -0.00008200 0.00000600 -0.00007100
v -0.00008300 0.00000700 -0.00007200
v -0.00008300 0.00000800 -0.00007200
v -0.00008300 0.00000900 -0.00007200
v -0.00008300 0.00001000 -0.00007200
v -0.00008300 0.00001100 -0.00007200
v -0.00008200 0.00001200 -0.00007100
v -0.00008200 0.00001300 -0.00007000
v -0.00008000 0.00000500 -0.00006900
v -0.00008200 0.00001300 -0.00006800
v -0.00008200 0.00000500 -0.00006800
v -0.00008100 0.00000500 -0.00006800
v -0.00008000 0.00001300 -0.00006900
v -0.00008100 0.00001300 -0.00006800
v -0.00008000 0.00000500 -0.00006700
v -0.00008000 0.00000600 -0.00006600
v -0.00008000 0.00000700 -0.00006500
v -0.00008000 0.00000800 -0.00006500
v -0.00008000 0.00000900 -0.00006500
v -0.00008000 0.00001000 -0.00006500
v -0.00008000 0.00001100 -0.00006500
v -0.00008000 0.00001200 -0.00006600
v -0.00008000 0.00001300 -0.00006700
v -0.00008200 0.00001300 -0.00006700
v -0.00008200 0.00001200 -0.00006600
v -0.00008200 0.00001100 -0.00006500
v -0.00008200 0.00001000 -0.00006500
v -0.00008200 0.00000900 -0.00006400
v -0.00008200 0.00000800 -0.00006500
v -0.00008200 0.00000700 -0.00006500
v -0.00008200 0.00000600 -0.00006600
v -0.00008200 0.00000500 -0.00006700
v -0.00008000 -0.00000500 -0.00006900
v -0.00008000 -0.00000500 -0.00007000
v -0.00008000 -0.00000600 -0.00007100
v -0.00008000 -0.00000700 -0.00007200
v -0.00008000 -0.00000800 -0.00007200
v -0.00008000 -0.00000900 -0.00007300
v -0.00008000 -0.00001000 -0.00007200
v -0.00008000 -0.00001100 -0.00007200
v -0.00008000 -0.00001200 -0.00007100
v -0.00008000 -0.00001300 -0.00007000
v -0.00008000 -0.00001300 -0.00007000
v -0.00008000 -0.00001300 -0.00006900
v -0.00008000 -0.00000900 -0.00006900
v -0.00008000 -0.00000700 -0.00006900
v -0.00008000 -0.00000900 -0.00006700
v -0.00008000 -0.00000700 -0.00006700
v -0.00008000 -0.00000900 -0.00007100
v -0.00008000 -0.00000700 -0.00007100
v -0.00008000 -0.00001100 -0.00006900
v -0.00008000 -0.00001100 -0.00007100
v -0.00008000 -0.00001100 -0.00006700
v -0.00008000 -0.00001300 -0.00006700
v -0.00008000 -0.00001200 -0.00006600
v -0.00008000 -0.00001100 -0.00006500
v -0.00008000 -0.00001000 -0.00006500
v -0.00008000 -0.00000900 -0.00006500
v -0.00008000 -0.00000800 -0.00006500
v -0.00008000 -0.00000700 -0.00006500
v -0.00008000 -0.00000600 -0.00006600
v -0.00008000 -0.00000500 -0.00006700
v -0.00008000 -0.00000500 -0.00006900
v -0.00008200 -0.00001300 -0.00006800
v -0.00008000 -0.00001300 -0.00006900
v -0.00008100 -0.00001300 -0.00006800
v -0.00008200 -0.00000500 -0.00006800
v -0.00008100 -0.00000500 -0.00006800
v -0.00008000 -0.00000500 -0.00007000
v -0.00008000 -0.00000500 -0.00007000
v -0.00008000 -0.00000600 -0.00007100
v -0.00008000 -0.00000700 -0.00007200
v -0.00008000 -0.00000800 -0.00007200
v -0.00008000 -0.00000900 -0.00007300
v -0.00008000 -0.00001000 -0.00007200
v -0.00008000 -0.00001100 -0.00007200
v -0.00008000 -0.00001200 -0.00007100
v -0.00008000 -0.00001300 -0.00007000
v -0.00008000 -0.00001300 -0.00007000
v -0.00008200 -0.00001300 -0.00007000
v -0.00008200 -0.00001200 -0.00007100
v -0.00008300 -0.00001100 -0.00007200
v -0.00008300 -0.00001000 -0.00007200
v -0.00008300 -0.00000900 -0.00007200
v -0.00008300 -0.00000800 -0.00007200
v -0.00008300 -0.00000700 -0.00007200
v -0.00008200 -0.00000600 -0.00007100
v -0.00008200 -0.00000500 -0.00007000
v -0.00008000 -0.00001300 -0.00006900
v -0.00008200 -0.00000500 -0.00006800
v -0.00008200 -0.00001300 -0.00006800
v -0.00008100 -0.00001300 -0.00006800
v -0.00008000 -0.00000500 -0.00006900
v -0.00008100 -0.00000500 -0.00006800
v -0.00008000 -0.00001300 -0.00006700
v -0.00008000 -0.00001200 -0.00006600
v -0.00008000 -0.00001100 -0.00006500
v -0.00008000 -0.00001000 -0.00006500
v -0.00008000 -0.00000900 -0.00006500
v -0.00008000 -0.00000800 -0.00006500
v -0.00008000 -0.00000700 -0.00006500
v -0.00008000 -0.00000600 -0.00006600
v -0.00008000 -0.00000500 -0.00006700
v -0.00008200 -0.00000500 -0.00006700
v -0.00008200 -0.00000600 -0.00006600
v -0.00008200 -0.00000700 -0.00006500
v -0.00008200 -0.00000800 -0.00006500
v -0.00008200 -0.00000900 -0.00006400
v -0.00008200 -0.00001000 -0.00006500
v -0.00008200 -0.00001100 -0.00006500
v -0.00008200 -0.00001200 -0.00006600
v -0.00008200 -0.00001300 -0.00006700
vn -0.99620000 -0.00000000 0.08710000
vn -0.99620000 -0.00000000 0.08720000
vn -0.99620000 -0.00000000 0.08710000
vn -0.99620000 -0.00000000 0.08720000
vn -0.99620000 -0.00000000 0.08720000
vn -0.99620000 -0.00000000 0.08720000
vn -0.99620000 -0.00010000 0.08720000
vn -0.99620000 -0.00000000 0.08710000
vn -0.99620000 0.00010000 0.08700000
vn -0.99620000 -0.00000000 0.08720000
vn -0.99620000 -0.00000000 0.08720000
vn -0.99620000 -0.00000000 0.08720000
vn -0.99620000 0.00010000 0.08720000
vn -0.99620000 -0.00000000 0.08710000
vn -0.99620000 -0.00000000 0.08720000
vn -0.99620000 -0.00010000 0.08720000
vn -0.99620000 -0.00000000 0.08720000
vn -0.99620000 -0.00000000 0.08710000
vn -0.99620000 -0.00000000 0.08710000
vn -0.99620000 -0.00000000 0.08720000
vn -0.99620000 -0.00000000 0.08720000
vn -0.99620000 -0.00000000 0.08720000
vn -0.99620000 -0.00000000 0.08720000
vn -0.99620000 -0.00000000 0.08710000
vn -0.99620000 -0.00000000 0.08700000
vn -0.99620000 -0.00000000 0.08720000
vn -0.99620000 -0.00000000 0.08720000
vn -0.99620000 -0.00000000 0.08720000
vn -0.99620000 -0.00000000 0.08720000
vn -0.99620000 -0.00000000 0.08720000
vn -0.99620000 -0.00000000 0.08720000
vn -0.99620000 -0.00000000 0.08720000
vn -0.99620000 -0.00000000 0.08710000
vn -0.99620000 -0.00000000 0.08700000
vn -0.99620000 -0.00000000 0.08720000
vn -0.99620000 -0.00000000 0.08720000
vn -0.99620000 -0.00000000 0.08720000
vn -0.99620000 -0.00000000 0.08720000
vn -0.99620000 -0.00000000 0.08700000
vn -0.99620000 -0.00000000 0.08720000
vn -0.99620000 -0.00000000 0.08720000
vn -0.99620000 -0.00000000 0.08710000
vn -0.99620000 -0.00000000 0.08700000
vn -0.99620000 -0.00000000 0.08720000
vn -0.99620000 -0.00000000 0.08720000
vn -0.99620000 -0.00000000 0.08720000
vn -0.99620000 -0.00000000 0.08720000
vn -0.99620000 -0.00000000 0.08720000
vn -0.99620000 -0.00000000 0.08720000
vn -0.99620000 -0.00000000 0.08720000
vn -0.99620000 -0.00000000 0.08710000
vn -0.99620000 -0.00000000 0.08700000
vn -0.99620000 -0.00000000 0.08720000
vn -0.99620000 -0.00000000 0.08720000
vn -0.99620000 -0.00000000 0.08720000
vn -0.99620000 -0.00000000 0.08720000
vn -0.99620000 -0.00000000 0.08710000
vn -0.99620000 -0.00000000 0.08700000
vn -0.99620000 -0.00000000 0.08720000
vn -0.99620000 -0.00000000 0.08720000
vn -0.99620000 -0.00000000 0.08720000
vn -0.99620000 -0.00010000 0.08720000
vn -0.99620000 -0.00020000 0.08720000
vn -0.99620000 -0.00010000 0.08710000
vn -0.99620000 -0.00000000 0.08720000
vn -0.99620000 -0.00000000 0.08710000
vn -0.99620000 -0.00000000 0.08710000
vn -0.99620000 -0.00000000 0.08710000
vn -0.99620000 -0.00000000 0.08720000
vn -0.99620000 -0.00000000 0.08710000
vn -0.99620000 -0.00000000 0.08720000
vn -0.99620000 -0.00000000 0.08720000
vn -0.99620000 -0.00000000 0.08720000
vn -0.99620000 0.00010000 0.08720000
vn -0.99620000 -0.00000000 0.08710000
vn -0.99620000 -0.00010000 0.08700000
vn -0.99620000 -0.00000000 0.08700000
vn -0.99620000 -0.00010000 0.08710000
vn -0.99620000 -0.00000000 0.08740000
vn -0.99620000 0.00020000 0.08720000
vn -0.99620000 -0.00000000 0.08720000
vn -0.99620000 -0.00000000 0.08720000
vn -0.99620000 -0.00000000 0.08720000
vn -0.99620000 -0.00000000 0.08710000
vn -0.99620000 -0.00000000 0.08710000
vn -0.99620000 0.00010000 0.08720000
vn -0.99620000 -0.00000000 0.08710000
vn -0.99620000 -0.00000000 0.08710000
vn -0.99620000 0.00020000 0.08710000
vn -0.99620000 -0.00000000 0.08700000
vn -0.99620000 -0.00000000 0.08720000
vn -0.99620000 -0.00000000 0.08720000
vn -0.99620000 -0.00010000 0.08720000
vn -0.99620000 -0.00000000 0.08720000
vn -0.99620000 0.00010000 0.08730000
vn -0.99620000 -0.00000000 0.08740000
vn -0.99620000 -0.00000000 0.08720000
vn -0.99620000 -0.00000000 0.08720000
vn -0.99620000 -0.00000000 0.08720000
vn -0.99620000 -0.00000000 0.08710000
vn -0.99620000 -0.00000000 0.08720000
vn -0.99620000 -0.00000000 0.08720000
vn -0.99620000 -0.00010000 0.08720000
vn -0.99620000 -0.00020000 0.08710000
vn -0.99620000 -0.00000000 0.08710000
vn -0.99620000 -0.00000000 0.08740000
vn -0.99620000 -0.00010000 0.08710000
vn -0.99620000 -0.00000000 0.08710000
vn -0.99620000 -0.00000000 0.08700000
vn -0.99620000 -0.00010000 0.08730000
vn -0.99620000 0.00010000 0.08710000
vn -0.99620000 -0.00000000 0.08710000
vn -0.99620000 0.00010000 0.08710000
vn -0.99620000 -0.00000000 0.08710000
vn -0.99620000 -0.00000000 0.08710000
vn -0.99620000 -0.00000000 0.08720000
vn -0.99620000 -0.00000000 0.08710000
vn -0.99620000 -0.00000000 0.08700000
vn -0.99620000 -0.00020000 0.08710000
vn -0.99620000 -0.00000000 0.08710000
vn -0.99620000 -0.00000000 0.08710000
vn -0.99620000 -0.00000000 0.08720000
vn -0.99620000 -0.00000000 0.08720000
vn -0.99620000 -0.00000000 0.08710000
vn -0.99620000 -0.00000000 0.08720000
vn -0.99620000 -0.00010000 0.08730000
vn -0.99620000 -0.00020000 0.08720000
vn -0.99620000 -0.00000000 0.08710000
vn -0.99620000 -0.00000000 0.08710000
vn -0.99620000 0.00010000 0.08710000
vn -0.99620000 -0.00000000 0.08700000
vn -0.99620000 -0.00000000 0.08720000
vn -0.99620000 -0.00000000 0.08720000
vn -0.99620000 -0.00000000 0.08720000
vn -0.99620000 0.00010000 0.08720000
vn -0.99620000 -0.00000000 0.08720000
vn -0.99620000 -0.00000000 0.08720000
vn -0.99620000 -0.00000000 0.08710000
vn -0.99620000 -0.00010000 0.08730000
vn -0.99620000 -0.00000000 0.08720000
vn -0.99620000 0.00010000 0.08720000
vn -0.99620000 -0.00000000 0.08740000
vn -0.99620000 -0.00000000 0.08730000
vn -0.99620000 -0.00000000 0.08720000
vn -0.99620000 -0.00000000 0.08720000
vn -0.99620000 -0.00010000 0.08710000
vn -0.99620000 -0.00000000 0.08710000
vn -0.99620000 -0.00010000 0.08710000
vn -0.99620000 0.00010000 0.08730000
vn -0.99620000 -0.00000000 0.08730000
vn -0.99620000 0.00010000 0.08710000
vn -0.99620000 -0.00000000 0.08710000
vn -0.99620000 -0.00000000 0.08740000
vn -0.99620000 -0.00000000 0.08710000
vn -0.99620000 0.00020000 0.08710000
vn -0.99620000 -0.00000000 0.08710000
vn -0.99620000 -0.00000000 0.08710000
vn -0.99620000 -0.00000000 0.08720000
vn -0.99620000 -0.00000000 0.08710000
vn -0.99620000 -0.00020000 0.08730000
vn -0.99620000 -0.00000000 0.08720000
vn -0.99620000 -0.00010000 0.08720000
vn -0.99620000 0.00010000 0.08710000
vn -0.99620000 -0.00000000 0.08690000
vn -0.99620000 0.00010000 0.08700000
vn -0.99620000 -0.00010000 0.08730000
vn -0.99620000 -0.00000000 0.08720000
vn -0.99620000 -0.00000000 0.08710000
vn -0.99620000 -0.00000000 0.08710000
vn -0.99620000 -0.00000000 0.08720000
vn -0.99620000 -0.00000000 0.08720000
vn -0.99620000 -0.00000000 0.08720000
vn -0.99620000 -0.00000000 0.08710000
vn -0.99620000 0.00010000 0.08710000
vn -0.99620000 0.00010000 0.08730000
vn -0.99620000 -0.00000000 0.08710000
vn -0.99620000 0.00020000 0.08700000
vn -0.99620000 0.00010000 0.08730000
vn -0.99620000 -0.00020000 0.08710000
vn -0.99620000 -0.00000000 0.08710000
vn -0.99620000 0.00020000 0.08730000
vn -0.99620000 -0.00000000 0.08720000
vn -0.99620000 -0.00000000 0.08720000
vn -0.99620000 -0.00000000 0.08720000
vn -0.99620000 -0.00000000 0.08720000
vn -0.99620000 -0.00000000 0.08720000
vn -0.99620000 -0.00000000 0.08720000
vn -0.99620000 -0.00000000 0.08720000
vn -0.99620000 -0.00000000 0.08720000
vn -0.99620000 -0.00020000 0.08730000
vn -0.99620000 -0.00000000 0.08710000
vn -0.99620000 0.00020000 0.08710000
vn -0.99620000 -0.00010000 0.08730000
vn -0.99620000 -0.00020000 0.08700000
vn -0.99620000 -0.00010000 0.08710000
vn -0.99620000 -0.00010000 0.08730000
vn -0.99620000 -0.00010000 0.08710000
vn -0.99620000 -0.00000000 0.08710000
vn -0.99620000 0.00010000 0.08720000
vn -0.99620000 -0.00000000 0.08720000
vn -0.99620000 -0.00000000 0.08720000
vn -0.99620000 -0.00000000 0.08710000
vn -0.99620000 0.00010000 0.08710000
vn -0.99620000 0.00010000 0.08720000
vn -0.99620000 0.00010000 0.08730000
vn -0.99620000 -0.00010000 0.08700000
vn -0.99620000 -0.00020000 0.08690000
vn -0.99620000 -0.00010000 0.08710000
vn -0.99620000 0.00010000 0.08720000
vn -0.99620000 -0.00000000 0.08720000
vn -0.99620000 0.00020000 0.08730000
vn -0.99620000 -0.00000000 0.08720000
vn -0.99620000 -0.00000000 0.08720000
vn -0.99620000 -0.00000000 0.08720000
vn -0.99620000 -0.00000000 0.08720000
vn -0.99620000 -0.00000000 0.08720000
vn -0.99620000 -0.00000000 0.08720000
vn -0.99620000 -0.00000000 0.08720000
vn -0.99620000 -0.00000000 0.08720000
vn -0.99620000 -0.00000000 0.08730000
vn -0.99620000 -0.00000000 0.08710000
vn -0.99620000 -0.00010000 0.08710000
vn -0.99620000 -0.00000000 0.08720000
vn -0.99620000 -0.00000000 0.08720000
vn -0.99620000 0.00010000 0.08710000
vn -0.99620000 -0.00000000 0.08740000
vn -0.99620000 0.00010000 0.08730000
vn -0.99620000 -0.00000000 0.08720000
vn -0.99620000 -0.00000000 0.08730000
vn -0.99620000 0.00010000 0.08710000
vn -0.99620000 -0.00000000 0.08700000
vn -0.99620000 -0.00000000 0.08720000
vn -0.99620000 -0.00000000 0.08720000
vn -0.99620000 -0.00000000 0.08730000
vn -0.99620000 0.00020000 0.08710000
vn -0.99620000 -0.00000000 0.08700000
vn -0.99620000 0.00010000 0.08720000
vn -0.99620000 -0.00000000 0.08720000
vn -0.99620000 -0.00010000 0.08720000
vn -0.99620000 -0.00020000 0.08710000
vn -0.99620000 -0.00010000 0.08730000
vn -0.99620000 -0.00000000 0.08720000
vn -0.99620000 -0.00010000 0.08710000
vn -0.99620000 -0.00010000 0.08690000
vn -0.99620000 -0.00000000 0.08730000
vn -0.99620000 0.00010000 0.08690000
vn -0.99620000 -0.00000000 0.08720000
vn -0.99620000 0.00010000 0.08710000
vn -0.99620000 0.00010000 0.08730000
vn -0.00000000 -1.00000000 -0.00000000
vn -0.00000000 1.00000000 -0.00000000
vn -0.00000000 1.00000000 -0.00000000
vn -0.00000000 1.00000000 -0.00000000
vn -0.00000000 -1.00000000 -0.00000000
vn -0.00000000 -1.00000000 -0.00000000
vn 0.02690000 -0.95100000 0.30800000
vn 0.02690000 -0.95100000 0.30790000
vn 0.05120000 -0.80910000 0.58540000
vn 0.07080000 -0.58760000 0.80600000
vn 0.08310000 -0.30900000 0.94740000
vn 0.08730000 -0.00000000 0.99620000
vn 0.08310000 0.30900000 0.94740000
vn 0.07040000 0.58790000 0.80590000
vn 0.05120000 0.80910000 0.58540000
vn 0.02690000 0.95100000 0.30800000
vn 0.02690000 0.95100000 0.30790000
vn 0.02690000 0.95100000 0.30790000
vn 0.05120000 0.80900000 0.58550000
vn 0.07080000 0.58770000 0.80600000
vn 0.08270000 0.30900000 0.94750000
vn 0.08750000 -0.00000000 0.99620000
vn 0.08310000 -0.30900000 0.94740000
vn 0.07070000 -0.58770000 0.80600000
vn 0.05120000 -0.80900000 0.58550000
vn 0.02690000 -0.95100000 0.30790000
vn -0.00000000 1.00000000 -0.00000000
vn -0.00000000 -1.00000000 -0.00000000
vn -0.00000000 1.00000000 -0.00000000
vn -0.00000000 1.00000000 -0.00000000
vn -0.00000000 -1.00000000 -0.00000000
vn -0.00000000 -1.00000000 -0.00000000
vn -0.02690000 0.95100000 -0.30790000
vn -0.05120000 0.80900000 -0.58560000
vn -0.07060000 0.58780000 -0.80590000
vn -0.08290000 0.30890000 -0.94750000
vn -0.08730000 -0.00000000 -0.99620000
vn -0.08290000 -0.30890000 -0.94750000
vn -0.07060000 -0.58780000 -0.80590000
vn -0.05120000 -0.80900000 -0.58560000
vn -0.02700000 -0.95100000 -0.30790000
vn -0.02690000 -0.95100000 -0.30790000
vn -0.05120000 -0.80900000 -0.58560000
vn -0.07030000 -0.58790000 -0.80590000
vn -0.08290000 -0.30890000 -0.94750000
vn -0.08720000 -0.00000000 -0.99620000
vn -0.08290000 0.30880000 -0.94750000
vn -0.07060000 0.58780000 -0.80590000
vn -0.05120000 0.80900000 -0.58560000
vn -0.02690000 0.95100000 -0.30790000
vn -0.99620000 -0.00000000 0.08730000
vn -0.99620000 0.00010000 0.08710000
vn -0.99620000 -0.00000000 0.08720000
vn -0.99620000 -0.00000000 0.08720000
vn -0.99620000 -0.00010000 0.08710000
vn -0.99620000 -0.00000000 0.08740000
vn -0.99620000 -0.00010000 0.08730000
vn -0.99620000 -0.00000000 0.08720000
vn -0.99620000 -0.00000000 0.08730000
vn -0.99620000 -0.00010000 0.08710000
vn -0.99620000 -0.00000000 0.08710000
vn -0.99620000 -0.00000000 0.08700000
vn -0.99620000 -0.00000000 0.08720000
vn -0.99620000 -0.00000000 0.08720000
vn -0.99620000 -0.00000000 0.08730000
vn -0.99620000 -0.00020000 0.08710000
vn -0.99620000 -0.00000000 0.08700000
vn -0.99620000 -0.00010000 0.08720000
vn -0.99620000 -0.00000000 0.08720000
vn -0.99620000 0.00010000 0.08720000
vn -0.99620000 0.00020000 0.08710000
vn -0.99620000 0.00010000 0.08730000
vn -0.99620000 -0.00000000 0.08720000
vn -0.99620000 -0.00000000 0.08720000
vn -0.99620000 0.00010000 0.08690000
vn -0.99620000 -0.00000000 0.08730000
vn -0.99620000 -0.00010000 0.08690000
vn -0.99620000 -0.00000000 0.08720000
vn -0.99620000 -0.00000000 0.08720000
vn -0.99620000 -0.00010000 0.08730000
vn -0.00000000 -1.00000000 -0.00000000
vn -0.00000000 1.00000000 -0.00000000
vn -0.00000000 1.00000000 -0.00000000
vn -0.00000000 1.00000000 -0.00000000
vn -0.00000000 -1.00000000 -0.00000000
vn -0.00000000 -1.00000000 -0.00000000
vn 0.02690000 -0.95100000 0.30800000
vn 0.02690000 -0.95100000 0.30790000
vn 0.05120000 -0.80910000 0.58540000
vn 0.07080000 -0.58760000 0.80600000
vn 0.08310000 -0.30900000 0.94740000
vn 0.08730000 -0.00000000 0.99620000
vn 0.08310000 0.30900000 0.94740000
vn 0.07040000 0.58790000 0.80590000
vn 0.05120000 0.80910000 0.58540000
vn 0.02690000 0.95100000 0.30790000
vn 0.02690000 0.95100000 0.30800000
vn 0.02690000 0.95100000 0.30790000
vn 0.05120000 0.80900000 0.58550000
vn 0.07080000 0.58770000 0.80600000
vn 0.08310000 0.30900000 0.94740000
vn 0.08750000 -0.00000000 0.99620000
vn 0.08270000 -0.30900000 0.94750000
vn 0.07070000 -0.58770000 0.80600000
vn 0.05120000 -0.80900000 0.58550000
vn 0.02690000 -0.95100000 0.30790000
vn -0.00000000 1.00000000 -0.00000000
vn -0.00000000 -1.00000000 -0.00000000
vn -0.00000000 1.00000000 -0.00000000
vn -0.00000000 1.00000000 -0.00000000
vn -0.00000000 -1.00000000 -0.00000000
vn -0.00000000 -1.00000000 -0.00000000
vn -0.02700000 0.95100000 -0.30790000
vn -0.05120000 0.80900000 -0.58560000
vn -0.07020000 0.58790000 -0.80590000
vn -0.08290000 0.30890000 -0.94750000
vn -0.08730000 -0.00000000 -0.99620000
vn -0.08290000 -0.30890000 -0.94750000
vn -0.07060000 -0.58780000 -0.80590000
vn -0.05120000 -0.80900000 -0.58560000
vn -0.02690000 -0.95100000 -0.30790000
vn -0.02690000 -0.95100000 -0.30790000
vn -0.05120000 -0.80900000 -0.58560000
vn -0.07030000 -0.58790000 -0.80590000
vn -0.08300000 -0.30920000 -0.94740000
vn -0.08720000 -0.00000000 -0.99620000
vn -0.08290000 0.30880000 -0.94750000
vn -0.07030000 0.58790000 -0.80590000
vn -0.05120000 0.80900000 -0.58560000
vn -0.02690000 0.95100000 -0.30790000
vt 0.89287300 0.27163800
vt 0.81210600 0.27163800
vt 0.73134000 0.27163800
vt 0.65057300 0.27163800
vt 0.56980700 0.27163800
vt 0.48904100 0.27163800
vt 0.40827400 0.27163800
vt 0.32750800 0.27163800
vt 0.24674200 0.27163800
vt 0.89287300 0.35240400
vt 0.81210600 0.35240400
vt 0.73134000 0.35240400
vt 0.65057300 0.35240400
vt 0.48904100 0.35240400
vt 0.48904100 0.35240400
vt 0.48904100 0.35240400
vt 0.40827400 0.35240400
vt 0.32750800 0.35240400
vt 0.24674200 0.35240400
vt 0.89287300 0.43317100
vt 0.81210600 0.43317100
vt 0.73134000 0.43317100
vt 0.40827400 0.43317100
vt 0.32750800 0.43317100
vt 0.24674200 0.43317100
vt 0.89287300 0.51393700
vt 0.81210600 0.51393700
vt 0.73134000 0.51393700
vt 0.65057300 0.51393700
vt 0.56980700 0.51393700
vt 0.48904100 0.51393700
vt 0.40827400 0.51393700
vt 0.32750800 0.51393700
vt 0.24674200 0.51393700
vt 0.89287300 0.59470300
vt 0.81210600 0.59470300
vt 0.73134000 0.59470300
vt 0.65057300 0.59470300
vt 0.56980700 0.59470300
vt 0.48904100 0.59470300
vt 0.40827400 0.59470300
vt 0.32750800 0.59470300
vt 0.24674200 0.59470300
vt 0.89287300 0.67547000
vt 0.81210600 0.67547000
vt 0.73134000 0.67547000
vt 0.65057300 0.67547000
vt 0.56980700 0.67547000
vt 0.48904100 0.67547000
vt 0.40827400 0.67547000
vt 0.32750800 0.67547000
vt 0.24674200 0.67547000
vt 0.89287300 0.75623600
vt 0.81210600 0.75623600
vt 0.73134000 0.75623600
vt 0.40827400 0.75623600
vt 0.32750800 0.75623600
vt 0.24674200 0.75623600
vt 0.89287300 0.83700200
vt 0.81210600 0.83700200
vt 0.73134000 0.83700200
vt 0.65057300 0.83700200
vt 0.48904100 0.83700200
vt 0.48904100 0.83700200
vt 0.40827400 0.83700200
vt 0.32750800 0.83700200
vt 0.24674200 0.83700200
vt 0.89287300 0.91776900
vt 0.81210600 0.91776900
vt 0.73134000 0.91776900
vt 0.65057300 0.91776900
vt 0.56980700 0.91776900
vt 0.48904100 0.91776900
vt 0.40827400 0.91776900
vt 0.32750800 0.91776900
vt 0.24674200 0.91776900
vt 0.56980700 0.69825000
vt 0.54420900 0.70230400
vt 0.52111600 0.71407000
vt 0.50279000 0.73239700
vt 0.49102400 0.75548900
vt 0.48697000 0.78108700
vt 0.49102400 0.80668500
vt 0.49102400 0.80668500
vt 0.50279000 0.82977800
vt 0.50279000 0.82977800
vt 0.52111600 0.84810400
vt 0.54420900 0.85987000
vt 0.54420900 0.85987000
vt 0.56980700 0.86392500
vt 0.61019000 0.67547000
vt 0.52942400 0.67547000
vt 0.44865700 0.83700200
vt 0.40827400 0.79661900
vt 0.44865700 0.75623600
vt 0.44865700 0.79661900
vt 0.52942400 0.91776900
vt 0.48904100 0.87738600
vt 0.56980700 0.87738600
vt 0.52942400 0.87738600
vt 0.61019000 0.91776900
vt 0.65057300 0.87738600
vt 0.61019000 0.87738600
vt 0.59540500 0.85987000
vt 0.61849800 0.84810400
vt 0.63682400 0.82977800
vt 0.64859000 0.80668500
vt 0.64859000 0.80668500
vt 0.65264400 0.78108700
vt 0.64859000 0.75548900
vt 0.63682400 0.73239700
vt 0.61849800 0.71407000
vt 0.59540500 0.70230400
vt 0.69095700 0.83700200
vt 0.69095700 0.75623600
vt 0.73134000 0.79661900
vt 0.69095700 0.79661900
vt 0.56980700 0.32548200
vt 0.54420900 0.32953600
vt 0.52111600 0.34130300
vt 0.50279000 0.35962900
vt 0.50279000 0.35962900
vt 0.49102400 0.38272100
vt 0.49102400 0.38272100
vt 0.48697000 0.40831900
vt 0.49102400 0.43391700
vt 0.50279000 0.45701000
vt 0.52111600 0.47533600
vt 0.54420900 0.48710200
vt 0.54420900 0.48710200
vt 0.56980700 0.49115700
vt 0.56980700 0.31202100
vt 0.61019000 0.27163800
vt 0.65057300 0.31202100
vt 0.61019000 0.31202100
vt 0.48904100 0.31202100
vt 0.52942400 0.27163800
vt 0.52942400 0.31202100
vt 0.44865700 0.43317100
vt 0.40827400 0.39278700
vt 0.44865700 0.35240400
vt 0.44865700 0.39278700
vt 0.52942400 0.51393700
vt 0.52942400 0.51393700
vt 0.61019000 0.51393700
vt 0.59540500 0.48710200
vt 0.61849800 0.47533600
vt 0.63682400 0.45701000
vt 0.64859000 0.43391700
vt 0.65264400 0.40831900
vt 0.64859000 0.38272100
vt 0.64859000 0.38272100
vt 0.63682400 0.35962900
vt 0.61849800 0.34130300
vt 0.59540500 0.32953600
vt 0.69095700 0.43317100
vt 0.69095700 0.35240400
vt 0.73134000 0.39278700
vt 0.69095700 0.39278700
vt 0.16597500 0.32548200
vt 0.17056200 0.29064200
vt 0.18401000 0.25817700
vt 0.20540200 0.23029800
vt 0.23328000 0.20890600
vt 0.26574600 0.19545800
vt 0.30058600 0.19087100
vt 0.36041300 0.19087100
vt 0.42024000 0.19087100
vt 0.48006700 0.19087100
vt 0.53989400 0.19087100
vt 0.59972000 0.19087100
vt 0.65954700 0.19087100
vt 0.71937400 0.19087100
vt 0.77920100 0.19087100
vt 0.83902800 0.19087100
vt 0.87386800 0.19545800
vt 0.90633400 0.20890600
vt 0.93421200 0.23029800
vt 0.95560400 0.25817700
vt 0.96905200 0.29064200
vt 0.97363900 0.32548200
vt 0.97363900 0.38530900
vt 0.97363900 0.44513600
vt 0.97363900 0.50496300
vt 0.97363900 0.56479000
vt 0.97363900 0.62461700
vt 0.97363900 0.68444400
vt 0.97363900 0.74427100
vt 0.97363900 0.80409800
vt 0.97363900 0.86392500
vt 0.96905200 0.89876400
vt 0.95560400 0.93123000
vt 0.93421200 0.95910900
vt 0.90633400 0.98050100
vt 0.87386800 0.99394800
vt 0.83902800 0.99853500
vt 0.77920100 0.99853500
vt 0.71937400 0.99853500
vt 0.65954700 0.99853500
vt 0.59972000 0.99853500
vt 0.53989400 0.99853500
vt 0.48006700 0.99853500
vt 0.42024000 0.99853500
vt 0.36041300 0.99853500
vt 0.30058600 0.99853500
vt 0.26574600 0.99394800
vt 0.23328000 0.98050100
vt 0.20540200 0.95910900
vt 0.18401000 0.93123000
vt 0.17056200 0.89876400
vt 0.16597500 0.86392500
vt 0.16597500 0.80409800
vt 0.16597500 0.74427100
vt 0.16597500 0.68444400
vt 0.16597500 0.62461700
vt 0.16597500 0.56479000
vt 0.16597500 0.50496300
vt 0.16597500 0.44513600
vt 0.16597500 0.38530900
vt 0.16451000 0.08298800
vt 0.16048400 0.10863200
vt 0.16048400 0.10863200
vt 0.14880100 0.13176600
vt 0.13060300 0.15012600
vt 0.10767300 0.16191300
vt 0.08225500 0.16597500
vt 0.05683700 0.16191300
vt 0.03390700 0.15012600
vt 0.01570900 0.13176600
vt 0.00402600 0.10863200
vt 0.00000000 0.08298800
vt 0.08225500 0.08298800
vt 0.12338300 0.08298800
vt 0.08225500 0.04149400
vt 0.12338300 0.04149400
vt 0.08225500 0.12448100
vt 0.12338300 0.12448100
vt 0.04112800 0.08298800
vt 0.04112800 0.12448100
vt 0.04112800 0.04149400
vt 0.00402600 0.05734300
vt 0.01570900 0.03420900
vt 0.03390700 0.01584900
vt 0.05683700 0.00406200
vt 0.08225500 0.00000000
vt 0.10767300 0.00406200
vt 0.13060300 0.01584900
vt 0.14880100 0.03420900
vt 0.16048400 0.05734300
vt 0.16597500 0.04771800
vt 0.42669400 0.09397100
vt 0.42669400 0.04771800
vt 0.42669400 0.07084400
vt 0.16597500 0.09397100
vt 0.16597500 0.07084400
vt 0.19204700 0.04771800
vt 0.19204700 0.04771800
vt 0.21811900 0.04771800
vt 0.24419100 0.04771800
vt 0.27026300 0.04771800
vt 0.29633500 0.04771800
vt 0.32240700 0.04771800
vt 0.34847900 0.04771800
vt 0.37455100 0.04771800
vt 0.40062200 0.04771800
vt 0.40062200 0.04771800
vt 0.40062200 0.09397100
vt 0.37455100 0.09397100
vt 0.34847900 0.09397100
vt 0.32240700 0.09397100
vt 0.29633500 0.09397100
vt 0.27026300 0.09397100
vt 0.24419100 0.09397100
vt 0.21811900 0.09397100
vt 0.19204700 0.09397100
vt 0.16597500 0.14315400
vt 0.42669400 0.18940700
vt 0.16597500 0.18940700
vt 0.16597500 0.16628000
vt 0.42669400 0.14315400
vt 0.42669400 0.16628000
vt 0.19204700 0.14315400
vt 0.21811900 0.14315400
vt 0.24419100 0.14315400
vt 0.27026300 0.14315400
vt 0.29633500 0.14315400
vt 0.32240700 0.14315400
vt 0.34847900 0.14315400
vt 0.37455100 0.14315400
vt 0.40062200 0.14315400
vt 0.40062200 0.18940700
vt 0.37455100 0.18940700
vt 0.34847900 0.18940700
vt 0.32240700 0.18940700
vt 0.29633500 0.18940700
vt 0.27026300 0.18940700
vt 0.24419100 0.18940700
vt 0.21811900 0.18940700
vt 0.19204700 0.18940700
vt 0.16451000 0.58298800
vt 0.16048400 0.60863200
vt 0.14880100 0.63176600
vt 0.13060300 0.65012600
vt 0.10767300 0.66191300
vt 0.08225500 0.66597500
vt 0.05683700 0.66191300
vt 0.03390700 0.65012600
vt 0.01570900 0.63176600
vt 0.00402600 0.60863200
vt 0.00402600 0.60863200
vt 0.00000000 0.58298800
vt 0.08225500 0.58298800
vt 0.12338300 0.58298800
vt 0.08225500 0.54149400
vt 0.12338300 0.54149400
vt 0.08225500 0.62448100
vt 0.12338300 0.62448100
vt 0.04112800 0.58298800
vt 0.04112800 0.62448100
vt 0.04112800 0.54149400
vt 0.00402600 0.55734300
vt 0.01570900 0.53420900
vt 0.03390700 0.51584900
vt 0.05683700 0.50406200
vt 0.08225500 0.50000000
vt 0.10767300 0.50406200
vt 0.13060300 0.51584900
vt 0.14880100 0.53420900
vt 0.16048400 0.55734300
vt 0.16597500 0.00000000
vt 0.42669400 0.04625300
vt 0.42669400 0.00000000
vt 0.42669400 0.02312600
vt 0.16597500 0.04625300
vt 0.16597500 0.02312600
vt 0.19204700 0.00000000
vt 0.19204700 0.00000000
vt 0.21811900 0.00000000
vt 0.24419100 0.00000000
vt 0.27026300 0.00000000
vt 0.29633500 0.00000000
vt 0.32240700 0.00000000
vt 0.34847900 0.00000000
vt 0.37455100 0.00000000
vt 0.40062200 0.00000000
vt 0.40062200 0.00000000
vt 0.40062200 0.04625300
vt 0.37455100 0.04625300
vt 0.34847900 0.04625300
vt 0.32240700 0.04625300
vt 0.29633500 0.04625300
vt 0.27026300 0.04625300
vt 0.24419100 0.04625300
vt 0.21811900 0.04625300
vt 0.19204700 0.04625300
vt 0.16597500 0.09543600
vt 0.42669400 0.14168900
vt 0.16597500 0.14168900
vt 0.16597500 0.11856200
vt 0.42669400 0.09543600
vt 0.42669400 0.11856200
vt 0.19204700 0.09543600
vt 0.21811900 0.09543600
vt 0.24419100 0.09543600
vt 0.27026300 0.09543600
vt 0.29633500 0.09543600
vt 0.32240700 0.09543600
vt 0.34847900 0.09543600
vt 0.37455100 0.09543600
vt 0.40062200 0.09543600
vt 0.40062200 0.14168900
vt 0.37455100 0.14168900
vt 0.34847900 0.14168900
vt 0.32240700 0.14168900
vt 0.29633500 0.14168900
vt 0.27026300 0.14168900
vt 0.24419100 0.14168900
vt 0.21811900 0.14168900
vt 0.19204700 0.14168900
f 11/11/11 2/2/2 1/1/1
f 1/1/1 10/10/10 11/11/11
f 12/12/12 3/3/3 2/2/2
f 2/2/2 11/11/11 12/12/12
f 157/157/157 13/13/13 134/134/134
f 134/134/134 4/4/4 3/3/3
f 3/3/3 12/12/12 157/157/157
f 157/157/157 134/134/134 3/3/3
f 132/132/132 5/5/5 133/133/133
f 133/133/133 135/135/135 132/132/132
f 135/135/135 133/133/133 4/4/4
f 4/4/4 134/134/134 135/135/135
f 136/136/136 6/6/6 137/137/137
f 137/137/137 138/138/138 136/136/136
f 138/138/138 137/137/137 5/5/5
f 5/5/5 132/132/132 138/138/138
f 136/136/136 16/16/16 141/141/141
f 141/141/141 17/17/17 7/7/7
f 7/7/7 6/6/6 136/136/136
f 136/136/136 141/141/141 7/7/7
f 18/18/18 8/8/8 7/7/7
f 7/7/7 17/17/17 18/18/18
f 19/19/19 9/9/9 8/8/8
f 8/8/8 18/18/18 19/19/19
f 21/21/21 11/11/11 10/10/10
f 10/10/10 20/20/20 21/21/21
f 158/158/158 12/12/12 11/11/11
f 21/21/21 22/22/22 158/158/158
f 11/11/11 21/21/21 158/158/158
f 159/159/159 157/157/157 12/12/12
f 12/12/12 158/158/158 159/159/159
f 156/156/156 159/159/159 158/158/158
f 158/158/158 22/22/22 156/156/156
f 23/23/23 140/140/140 142/142/142
f 142/142/142 139/139/139 23/23/23
f 140/140/140 17/17/17 141/141/141
f 141/141/141 142/142/142 140/140/140
f 140/140/140 23/23/23 24/24/24
f 18/18/18 17/17/17 140/140/140
f 24/24/24 18/18/18 140/140/140
f 25/25/25 19/19/19 18/18/18
f 18/18/18 24/24/24 25/25/25
f 27/27/27 21/21/21 20/20/20
f 20/20/20 26/26/26 27/27/27
f 28/28/28 22/22/22 21/21/21
f 21/21/21 27/27/27 28/28/28
f 33/33/33 24/24/24 23/23/23
f 23/23/23 32/32/32 33/33/33
f 34/34/34 25/25/25 24/24/24
f 24/24/24 33/33/33 34/34/34
f 36/36/36 27/27/27 26/26/26
f 26/26/26 35/35/35 36/36/36
f 37/37/37 28/28/28 27/27/27
f 27/27/27 36/36/36 37/37/37
f 38/38/38 29/29/29 28/28/28
f 28/28/28 37/37/37 38/38/38
f 145/145/145 29/29/29 38/38/38
f 39/39/39 30/30/30 145/145/145
f 38/38/38 39/39/39 145/145/145
f 143/143/143 30/30/30 39/39/39
f 40/40/40 31/31/31 143/143/143
f 39/39/39 40/40/40 143/143/143
f 41/41/41 32/32/32 31/31/31
f 31/31/31 40/40/40 41/41/41
f 42/42/42 33/33/33 32/32/32
f 32/32/32 41/41/41 42/42/42
f 43/43/43 34/34/34 33/33/33
f 33/33/33 42/42/42 43/43/43
f 45/45/45 36/36/36 35/35/35
f 35/35/35 44/44/44 45/45/45
f 46/46/46 37/37/37 36/36/36
f 36/36/36 45/45/45 46/46/46
f 47/47/47 38/38/38 37/37/37
f 37/37/37 46/46/46 47/47/47
f 91/91/91 48/48/48 39/39/39
f 38/38/38 47/47/47 91/91/91
f 39/39/39 38/38/38 91/91/91
f 92/92/92 49/49/49 40/40/40
f 39/39/39 48/48/48 92/92/92
f 40/40/40 39/39/39 92/92/92
f 50/50/50 41/41/41 40/40/40
f 40/40/40 49/49/49 50/50/50
f 51/51/51 42/42/42 41/41/41
f 41/41/41 50/50/50 51/51/51
f 52/52/52 43/43/43 42/42/42
f 42/42/42 51/51/51 52/52/52
f 54/54/54 45/45/45 44/44/44
f 44/44/44 53/53/53 54/54/54
f 55/55/55 46/46/46 45/45/45
f 45/45/45 54/54/54 55/55/55
f 57/57/57 51/51/51 50/50/50
f 50/50/50 56/56/56 57/57/57
f 58/58/58 52/52/52 51/51/51
f 51/51/51 57/57/57 58/58/58
f 60/60/60 54/54/54 53/53/53
f 53/53/53 59/59/59 60/60/60
f 116/116/116 55/55/55 54/54/54
f 60/60/60 61/61/61 116/116/116
f 54/54/54 60/60/60 116/116/116
f 117/117/117 115/115/115 55/55/55
f 55/55/55 116/116/116 117/117/117
f 114/114/114 117/117/117 116/116/116
f 116/116/116 61/61/61 114/114/114
f 65/65/65 94/94/94 96/96/96
f 96/96/96 93/93/93 65/65/65
f 94/94/94 56/56/56 95/95/95
f 95/95/95 96/96/96 94/94/94
f 94/94/94 65/65/65 66/66/66
f 57/57/57 56/56/56 94/94/94
f 66/66/66 57/57/57 94/94/94
f 67/67/67 58/58/58 57/57/57
f 57/57/57 66/66/66 67/67/67
f 69/69/69 60/60/60 59/59/59
f 59/59/59 68/68/68 69/69/69
f 70/70/70 61/61/61 60/60/60
f 60/60/60 69/69/69 70/70/70
f 102/102/102 62/62/62 114/114/114
f 114/114/114 61/61/61 70/70/70
f 70/70/70 71/71/71 102/102/102
f 102/102/102 114/114/114 70/70/70
f 72/72/72 99/99/99 103/103/103
f 103/103/103 101/101/101 72/72/72
f 101/101/101 103/103/103 102/102/102
f 102/102/102 71/71/71 101/101/101
f 73/73/73 98/98/98 100/100/100
f 100/100/100 97/97/97 73/73/73
f 97/97/97 100/100/100 99/99/99
f 99/99/99 72/72/72 97/97/97
f 93/93/93 63/63/63 98/98/98
f 98/98/98 73/73/73 74/74/74
f 74/74/74 65/65/65 93/93/93
f 93/93/93 98/98/98 74/74/74
f 75/75/75 66/66/66 65/65/65
f 65/65/65 74/74/74 75/75/75
f 76/76/76 67/67/67 66/66/66
f 66/66/66 75/75/75 76/76/76
f 177/177/177 1/1/1 176/176/176
f 2/2/2 175/175/175 176/176/176
f 2/2/2 174/174/174 175/175/175
f 178/178/178 1/1/1 177/177/177
f 180/180/180 1/1/1 179/179/179
f 181/181/181 10/10/10 180/180/180
f 180/180/180 10/10/10 1/1/1
f 1/1/1 2/2/2 176/176/176
f 10/10/10 181/181/181 182/182/182
f 179/179/179 1/1/1 178/178/178
f 2/2/2 3/3/3 173/173/173
f 173/173/173 174/174/174 2/2/2
f 3/3/3 4/4/4 172/172/172
f 172/172/172 173/173/173 3/3/3
f 171/171/171 172/172/172 4/4/4
f 4/4/4 133/133/133 171/171/171
f 154/154/154 135/135/135 134/134/134
f 155/155/155 132/132/132 135/135/135
f 154/154/154 155/155/155 135/135/135
f 5/5/5 171/171/171 133/133/133
f 154/154/154 134/134/134 13/13/13
f 132/132/132 155/155/155 118/118/118
f 183/183/183 20/20/20 182/182/182
f 151/151/151 157/157/157 159/159/159
f 182/182/182 20/20/20 10/10/10
f 183/183/183 184/184/184 26/26/26
f 26/26/26 20/20/20 183/183/183
f 26/26/26 184/184/184 185/185/185
f 185/185/185 35/35/35 26/26/26
f 35/35/35 185/185/185 186/186/186
f 28/28/28 156/156/156 22/22/22
f 151/151/151 13/13/13 157/157/157
f 150/150/150 159/159/159 156/156/156
f 149/149/149 150/150/150 156/156/156
f 152/152/152 159/159/159 150/150/150
f 13/13/13 151/151/151 153/153/153
f 149/149/149 156/156/156 148/148/148
f 154/154/154 13/13/13 153/153/153
f 147/147/147 148/148/148 29/29/29
f 156/156/156 29/29/29 148/148/148
f 145/145/145 147/147/147 29/29/29
f 30/30/30 131/131/131 146/146/146
f 147/147/147 145/145/145 146/146/146
f 145/145/145 30/30/30 146/146/146
f 29/29/29 156/156/156 28/28/28
f 137/137/137 170/170/170 5/5/5
f 171/171/171 5/5/5 170/170/170
f 168/168/168 169/169/169 6/6/6
f 6/6/6 7/7/7 168/168/168
f 169/169/169 170/170/170 137/137/137
f 137/137/137 6/6/6 169/169/169
f 138/138/138 132/132/132 119/119/119
f 119/119/119 132/132/132 118/118/118
f 120/120/120 138/138/138 119/119/119
f 120/120/120 136/136/136 138/138/138
f 166/166/166 8/8/8 165/165/165
f 163/163/163 164/164/164 9/9/9
f 164/164/164 165/165/165 9/9/9
f 8/8/8 166/166/166 167/167/167
f 8/8/8 9/9/9 165/165/165
f 9/9/9 19/19/19 161/161/161
f 163/163/163 9/9/9 162/162/162
f 162/162/162 9/9/9 161/161/161
f 19/19/19 160/160/160 161/161/161
f 7/7/7 8/8/8 167/167/167
f 167/167/167 168/168/168 7/7/7
f 120/120/120 16/16/16 136/136/136
f 123/123/123 141/141/141 16/16/16
f 121/121/121 124/124/124 14/14/14
f 125/125/125 142/142/142 123/123/123
f 139/139/139 125/125/125 126/126/126
f 120/120/120 122/122/122 15/15/15
f 143/143/143 129/129/129 30/30/30
f 128/128/128 130/130/130 144/144/144
f 31/31/31 127/127/127 128/128/128
f 143/143/143 31/31/31 128/128/128
f 139/139/139 126/126/126 127/127/127
f 127/127/127 31/31/31 139/139/139
f 123/123/123 142/142/142 141/141/141
f 125/125/125 139/139/139 142/142/142
f 19/19/19 25/25/25 218/218/218
f 218/218/218 219/219/219 19/19/19
f 160/160/160 19/19/19 219/219/219
f 23/23/23 139/139/139 32/32/32
f 34/34/34 43/43/43 216/216/216
f 216/216/216 217/217/217 34/34/34
f 25/25/25 34/34/34 217/217/217
f 217/217/217 218/218/218 25/25/25
f 32/32/32 139/139/139 31/31/31
f 129/129/129 131/131/131 30/30/30
f 186/186/186 187/187/187 44/44/44
f 44/44/44 35/35/35 186/186/186
f 187/187/187 188/188/188 53/53/53
f 53/53/53 44/44/44 187/187/187
f 59/59/59 53/53/53 188/188/188
f 188/188/188 189/189/189 59/59/59
f 190/190/190 59/59/59 189/189/189
f 109/109/109 115/115/115 117/117/117
f 46/46/46 55/55/55 115/115/115
f 114/114/114 108/108/108 117/117/117
f 47/47/47 46/46/46 115/115/115
f 112/112/112 113/113/113 91/91/91
f 77/77/77 48/48/48 113/113/113
f 91/91/91 113/113/113 48/48/48
f 77/77/77 78/78/78 48/48/48
f 112/112/112 91/91/91 47/47/47
f 110/110/110 111/111/111 115/115/115
f 117/117/117 107/107/107 109/109/109
f 47/47/47 111/111/111 112/112/112
f 62/62/62 106/106/106 107/107/107
f 115/115/115 111/111/111 47/47/47
f 110/110/110 115/115/115 109/109/109
f 59/59/59 191/191/191 68/68/68
f 195/195/195 69/69/69 68/68/68
f 70/70/70 69/69/69 197/197/197
f 197/197/197 198/198/198 70/70/70
f 68/68/68 191/191/191 192/192/192
f 68/68/68 193/193/193 194/194/194
f 195/195/195 68/68/68 194/194/194
f 196/196/196 197/197/197 69/69/69
f 196/196/196 69/69/69 195/195/195
f 68/68/68 192/192/192 193/193/193
f 105/105/105 62/62/62 102/102/102
f 108/108/108 114/114/114 62/62/62
f 105/105/105 103/103/103 104/104/104
f 90/90/90 104/104/104 99/99/99
f 102/102/102 103/103/103 105/105/105
f 62/62/62 105/105/105 106/106/106
f 198/198/198 199/199/199 71/71/71
f 71/71/71 70/70/70 198/198/198
f 101/101/101 71/71/71 199/199/199
f 199/199/199 200/200/200 101/101/101
f 99/99/99 104/104/104 103/103/103
f 200/200/200 72/72/72 101/101/101
f 59/59/59 190/190/190 191/191/191
f 79/79/79 92/92/92 78/78/78
f 48/48/48 78/78/78 92/92/92
f 80/80/80 49/49/49 79/79/79
f 92/92/92 79/79/79 49/49/49
f 95/95/95 49/49/49 80/80/80
f 64/64/64 84/84/84 85/85/85
f 96/96/96 95/95/95 82/82/82
f 81/81/81 82/82/82 95/95/95
f 82/82/82 83/83/83 96/96/96
f 63/63/63 93/93/93 83/83/83
f 63/63/63 86/86/86 87/87/87
f 80/80/80 81/81/81 95/95/95
f 50/50/50 49/49/49 95/95/95
f 214/214/214 215/215/215 43/43/43
f 43/43/43 52/52/52 214/214/214
f 213/213/213 214/214/214 52/52/52
f 52/52/52 58/58/58 213/213/213
f 216/216/216 43/43/43 215/215/215
f 95/95/95 56/56/56 50/50/50
f 83/83/83 93/93/93 96/96/96
f 212/212/212 213/213/213 58/58/58
f 58/58/58 67/67/67 212/212/212
f 100/100/100 88/88/88 99/99/99
f 98/98/98 87/87/87 100/100/100
f 89/89/89 100/100/100 87/87/87
f 97/97/97 72/72/72 201/201/201
f 200/200/200 201/201/201 72/72/72
f 201/201/201 202/202/202 73/73/73
f 73/73/73 97/97/97 201/201/201
f 202/202/202 203/203/203 74/74/74
f 74/74/74 73/73/73 202/202/202
f 75/75/75 74/74/74 203/203/203
f 203/203/203 204/204/204 75/75/75
f 211/211/211 67/67/67 210/210/210
f 76/76/76 210/210/210 67/67/67
f 209/209/209 210/210/210 76/76/76
f 76/76/76 75/75/75 206/206/206
f 212/212/212 67/67/67 211/211/211
f 75/75/75 205/205/205 206/206/206
f 207/207/207 76/76/76 206/206/206
f 209/209/209 76/76/76 208/208/208
f 208/208/208 76/76/76 207/207/207
f 204/204/204 205/205/205 75/75/75
f 87/87/87 98/98/98 63/63/63
f 88/88/88 90/90/90 99/99/99
f 237/237/237 233/233/233 232/232/232
f 232/232/232 236/236/236 237/237/237
f 236/236/236 232/232/232 238/238/238
f 238/238/238 239/239/239 236/236/236
f 232/232/232 234/234/234 240/240/240
f 240/240/240 238/238/238 232/232/232
f 233/233/233 235/235/235 234/234/234
f 234/234/234 232/232/232 233/233/233
f 231/231/231 238/238/238 241/241/241
f 242/242/242 241/241/241 240/240/240
f 240/240/240 244/244/244 243/243/243
f 240/240/240 241/241/241 238/238/238
f 244/244/244 240/240/240 234/234/234
f 234/234/234 245/245/245 244/244/244
f 242/242/242 240/240/240 243/243/243
f 228/228/228 239/239/239 229/229/229
f 230/230/230 229/229/229 239/239/239
f 230/230/230 239/239/239 238/238/238
f 226/226/226 236/236/236 227/227/227
f 239/239/239 227/227/227 236/236/236
f 228/228/228 227/227/227 239/239/239
f 238/238/238 231/231/231 230/230/230
f 234/234/234 235/235/235 246/246/246
f 247/247/247 246/246/246 235/235/235
f 248/248/248 235/235/235 249/249/249
f 235/235/235 233/233/233 249/249/249
f 247/247/247 235/235/235 248/248/248
f 220/220/220 249/249/249 233/233/233
f 225/225/225 236/236/236 226/226/226
f 225/225/225 237/237/237 236/236/236
f 223/223/223 222/222/222 237/237/237
f 233/233/233 237/237/237 221/221/221
f 237/237/237 224/224/224 223/223/223
f 225/225/225 224/224/224 237/237/237
f 221/221/221 220/220/220 233/233/233
f 234/234/234 246/246/246 245/245/245
f 255/255/255 257/257/257 250/250/250
f 256/256/256 255/255/255 275/275/275
f 256/256/256 275/275/275 274/274/274
f 274/274/274 258/258/258 256/256/256
f 258/258/258 274/274/274 273/273/273
f 273/273/273 259/259/259 258/258/258
f 259/259/259 273/273/273 272/272/272
f 272/272/272 260/260/260 259/259/259
f 255/255/255 254/254/254 275/275/275
f 271/271/271 261/261/261 260/260/260
f 260/260/260 272/272/272 271/271/271
f 261/261/261 271/271/271 270/270/270
f 270/270/270 262/262/262 261/261/261
f 262/262/262 270/270/270 269/269/269
f 269/269/269 263/263/263 262/262/262
f 264/264/264 268/268/268 267/267/267
f 267/267/267 265/265/265 264/264/264
f 253/253/253 252/252/252 266/266/266
f 263/263/263 269/269/269 268/268/268
f 268/268/268 264/264/264 263/263/263
f 251/251/251 253/253/253 267/267/267
f 253/253/253 265/265/265 267/267/267
f 279/279/279 282/282/282 276/276/276
f 282/282/282 299/299/299 298/298/298
f 298/298/298 283/283/283 282/282/282
f 284/284/284 297/297/297 296/296/296
f 296/296/296 285/285/285 284/284/284
f 285/285/285 296/296/296 295/295/295
f 295/295/295 286/286/286 285/285/285
f 283/283/283 298/298/298 297/297/297
f 297/297/297 284/284/284 283/283/283
f 278/278/278 299/299/299 279/279/279
f 299/299/299 282/282/282 279/279/279
f 287/287/287 294/294/294 293/293/293
f 293/293/293 288/288/288 287/287/287
f 288/288/288 293/293/293 292/292/292
f 292/292/292 289/289/289 288/288/288
f 281/281/281 280/280/280 290/290/290
f 289/289/289 292/292/292 291/291/291
f 291/291/291 290/290/290 289/289/289
f 291/291/291 281/281/281 290/290/290
f 294/294/294 287/287/287 286/286/286
f 286/286/286 295/295/295 294/294/294
f 281/281/281 291/291/291 277/277/277
f 317/317/317 316/316/316 312/312/312
f 312/312/312 313/313/313 317/317/317
f 316/316/316 319/319/319 318/318/318
f 318/318/318 312/312/312 316/316/316
f 312/312/312 318/318/318 320/320/320
f 320/320/320 314/314/314 312/312/312
f 313/313/313 312/312/312 314/314/314
f 314/314/314 315/315/315 313/313/313
f 311/311/311 321/321/321 318/318/318
f 322/322/322 320/320/320 321/321/321
f 314/314/314 320/320/320 324/324/324
f 322/322/322 323/323/323 320/320/320
f 324/324/324 320/320/320 323/323/323
f 320/320/320 318/318/318 321/321/321
f 307/307/307 308/308/308 319/319/319
f 309/309/309 319/319/319 308/308/308
f 310/310/310 318/318/318 319/319/319
f 319/319/319 316/316/316 306/306/306
f 306/306/306 316/316/316 305/305/305
f 307/307/307 319/319/319 306/306/306
f 318/318/318 310/310/310 311/311/311
f 324/324/324 325/325/325 314/314/314
f 315/315/315 314/314/314 326/326/326
f 325/325/325 326/326/326 314/314/314
f 327/327/327 315/315/315 326/326/326
f 315/315/315 328/328/328 329/329/329
f 315/315/315 329/329/329 313/313/313
f 328/328/328 315/315/315 327/327/327
f 329/329/329 300/300/300 313/313/313
f 317/317/317 304/304/304 316/316/316
f 305/305/305 316/316/316 304/304/304
f 302/302/302 317/317/317 301/301/301
f 313/313/313 301/301/301 317/317/317
f 317/317/317 302/302/302 303/303/303
f 304/304/304 317/317/317 303/303/303
f 301/301/301 313/313/313 300/300/300
f 335/335/335 337/337/337 330/330/330
f 336/336/336 335/335/335 355/355/355
f 336/336/336 355/355/355 354/354/354
f 354/354/354 338/338/338 336/336/336
f 338/338/338 354/354/354 353/353/353
f 353/353/353 339/339/339 338/338/338
f 339/339/339 353/353/353 352/352/352
f 352/352/352 340/340/340 339/339/339
f 335/335/335 334/334/334 355/355/355
f 351/351/351 341/341/341 340/340/340
f 340/340/340 352/352/352 351/351/351
f 341/341/341 351/351/351 350/350/350
f 350/350/350 342/342/342 341/341/341
f 342/342/342 350/350/350 349/349/349
f 349/349/349 343/343/343 342/342/342
f 344/344/344 348/348/348 347/347/347
f 347/347/347 346/346/346 344/344/344
f 333/333/333 332/332/332 345/345/345
f 343/343/343 349/349/349 348/348/348
f 348/348/348 344/344/344 343/343/343
f 331/331/331 333/333/333 347/347/347
f 333/333/333 346/346/346 347/347/347
f 359/359/359 362/362/362 356/356/356
f 362/362/362 379/379/379 378/378/378
f 378/378/378 363/363/363 362/362/362
f 364/364/364 377/377/377 376/376/376
f 376/376/376 365/365/365 364/364/364
f 365/365/365 376/376/376 375/375/375
f 375/375/375 366/366/366 365/365/365
f 363/363/363 378/378/378 377/377/377
f 377/377/377 364/364/364 363/363/363
f 358/358/358 379/379/379 359/359/359
f 379/379/379 362/362/362 359/359/359
f 367/367/367 374/374/374 373/373/373
f 373/373/373 368/368/368 367/367/367
f 368/368/368 373/373/373 372/372/372
f 372/372/372 369/369/369 368/368/368
f 361/361/361 360/360/360 370/370/370
f 369/369/369 372/372/372 371/371/371
f 371/371/371 370/370/370 369/369/369
f 371/371/371 361/361/361 370/370/370
f 374/374/374 367/367/367 366/366/366
f 366/366/366 375/375/375 374/374/374
f 361/361/361 371/371/371 357/357/357

