####
#
# OBJ File Generated by Meshlab
#
####
# Object left_arm_link3_0.obj
#
# Vertices: 224
# Faces: 332
#
####
mtllib ./left_arm_link3_0.obj.mtl

vn -1.6160029051282847 -3.2397110722361493 2.5825273689188046
v 0.0283520000000000 -0.0380420000000000 -0.0285780000000000
vn 2.0526107111375667 -3.6171858323805663 -2.0662074592074253
v 0.0265539166666667 -0.0380420000000000 -0.0267020000000000
vn -0.3563911106064834 -0.2588546522268053 -5.2108551754378478
v 0.0276560000000000 -0.0373920000000000 -0.0261440000000000
vn -4.5186428408222685 0.1864642367150806 2.9719803072000852
v 0.0287790000000000 -0.0373920000000000 -0.0283620000000000
vn -0.5187583555694427 -2.5223655426252396 0.5485204731003150
v -0.0295708000000000 -0.0379686000000000 0.0294635000000000
vn 0.1229824669113901 -2.5953437736454088 -0.1251196526124400
v -0.0256088734177215 -0.0380048481012658 0.0257330759493671
vn 1.6160176955599801 -3.2397102582912263 -2.5824723197384376
v -0.0283520000000000 -0.0380420000000000 0.0285780000000000
vn -2.0266511299267265 -3.5783432315606176 2.1116105084689996
v -0.0265730769230769 -0.0380420000000000 0.0266923076923077
vn 4.5185953660263865 0.1863031114580880 -2.9728460648812103
v -0.0287790000000000 -0.0373920000000000 0.0283620000000000
vn 0.3551784540395716 -0.2832174595524899 5.2179430521729531
v -0.0276560000000000 -0.0373920000000000 0.0261440000000000
vn 0.5205970350928063 -2.5237309018265521 -0.5513478826951330
v 0.0295708000000000 -0.0379686000000000 -0.0294635000000000
vn -0.1248722350743997 -2.6029159405647122 0.1269377153695960
v 0.0256088734177215 -0.0380048481012658 -0.0257330759493671
vn -2.2770456316707977 -2.0935001185623494 1.4877636385487258
v 0.0287790000000000 -0.0367420000000000 -0.0283620000000000
vn -1.1063681118745763 -3.0578728718089248 2.9028961192060536
v 0.0281380000000000 -0.0367420000000000 -0.0286860000000000
vn 3.1350760203853345 -3.0411399523146039 -0.1342327984621336
v 0.0263360000000000 -0.0367420000000000 -0.0275090000000000
vn 0.8779683538791478 -2.9611116999426388 -2.9332481988875339
v 0.0271905454545455 -0.0367420000000000 -0.0263796363636364
vn 1.2394987006736136 -2.2029860033058228 -0.2606114829826032
v 0.0303190000000000 -0.0379420000000000 -0.0277850000000000
vn -0.0180991252865682 -2.8720615855246088 0.1667296487592025
v 0.0272989549549549 -0.0380094954954955 -0.0248987207207207
vn -0.0597833208036989 -3.4378210766474582 0.0941546597286749
v 0.0263747356321839 -0.0380213103448275 -0.0253172413793104
vn -0.0832501611498318 -2.8900674437301683 0.0891331598984599
v -0.0289762585034014 -0.0380112789115646 0.0298295238095238
vn -0.1049867591099743 -2.9192788902140587 0.1037602369014068
v -0.0298207971530249 -0.0380098149466193 0.0290375409252669
vn 0.1592387591893318 -2.8659972096267117 -0.0210332257975277
v -0.0249028468468469 -0.0380094954954955 0.0272572522522522
vn 0.0894066376586876 -3.2163935228653413 -0.0645737296065216
v -0.0253020584795322 -0.0380150526315789 0.0262463216374269
vn 0.0599199046131772 -3.4500555463595854 -0.0937570428099734
v -0.0263747356321839 -0.0380213103448275 0.0253217701149425
vn 0.0184011466530530 -2.8720740300846441 -0.1664324914033632
v -0.0272989549549549 -0.0380094954954955 0.0248987207207207
vn -1.2395676535175668 -2.2030103683624387 0.2606151659865776
v -0.0303190000000000 -0.0379420000000000 0.0277850000000000
vn 1.1063681118745761 -3.0578728718089252 -2.9028961192060541
v -0.0281380000000000 -0.0367420000000000 0.0286860000000000
vn 2.2770415944781779 -2.0935471103454879 -1.4878373425817795
v -0.0287790000000000 -0.0367420000000000 0.0283620000000000
vn -3.1368283487199671 -3.1390662833295457 0.1729293307057073
v -0.0263360000000000 -0.0367420000000000 0.0275090000000000
vn -0.8779683538791576 -2.9611116999426281 2.9332481988875312
v -0.0271905454545454 -0.0367420000000000 0.0263796363636364
vn 0.1047732946132697 -2.9156007418979781 -0.1036487725643168
v 0.0298221459074733 -0.0380098149466193 -0.0290375160142349
vn 0.0833402651422414 -2.8936725924683429 -0.0892005212585530
v 0.0289762585034014 -0.0380112789115646 -0.0298295238095238
vn -0.1593783876452551 -2.8659917473334398 0.0209043724995437
v 0.0249028468468469 -0.0380094954954955 -0.0272572522522522
vn -0.0896009681330894 -3.2090374756807032 0.0644136315735194
v 0.0252998479532164 -0.0380150526315789 -0.0262463216374269
vn -0.7730636271658625 -3.6373909105292213 2.7734759200306205
v -0.0271462727272727 -0.0380420000000000 -0.0288457272727273
vn -2.5762268865962517 -3.2245965666683478 1.6681185780296619
v -0.0265470769230769 -0.0380420000000000 -0.0282723846153846
vn 2.6877515919659718 -3.7536979026009130 -0.9689440649447458
v -0.0288909090909091 -0.0380420000000000 -0.0273161818181818
vn 1.5520081125834633 -3.3112680143447983 -2.4871022088541141
v -0.0281943888888889 -0.0380420000000000 -0.0264597777777778
vn -1.1803424646560365 -3.4042851929265634 2.6847302137503908
v 0.0281533333333333 -0.0380420000000000 0.0264390000000000
vn 2.5573237782954874 -3.2279751205808012 -1.6905321400235895
v 0.0265588333333333 -0.0380420000000000 0.0282903333333333
vn 0.7285478454725325 -3.5966326992345818 -2.8032207683636283
v 0.0271680000000000 -0.0380420000000000 0.0288445000000000
vn -2.7697560863580755 -3.5578178745528688 0.9103860272804218
v 0.0288790000000000 -0.0380420000000000 0.0272980000000000
vn -2.9457358681691415 0.1860533636010115 -4.5384662894167782
v -0.0267920000000000 -0.0373920000000000 -0.0263760000000000
vn 2.8448485153752610 -3.2387437342024494 1.1245411556751024
v -0.0287940000000000 -0.0380420000000000 -0.0279250000000000
vn 0.9845568048929992 -3.5786030020308170 2.7424556099285637
v -0.0281413846153846 -0.0380420000000000 -0.0287904615384615
vn -2.9055781164154051 -3.6461088180623262 -0.3682638257112139
v -0.0262421818181818 -0.0380420000000000 -0.0274619090909091
vn -0.3597692723328304 -3.2647945419160376 -3.0848105875294358
v -0.0272700000000000 -0.0380420000000000 -0.0263490000000000
vn 2.9472963235755949 0.1859380286406204 4.5383793050022909
v 0.0267920000000000 -0.0373920000000000 0.0263760000000000
vn 0.2473630621690288 -3.3584237381786708 3.0820248229643914
v 0.0272700000000000 -0.0380420000000000 0.0263490000000000
vn 2.9039232486216839 -3.6496085848566153 0.3614607691945591
v 0.0262421818181818 -0.0380420000000000 0.0274619090909091
vn -2.8493015498275476 -3.2457868287866809 -1.1035654256377003
v 0.0287940000000000 -0.0380420000000000 0.0279250000000000
vn -0.9836852960597322 -3.5786584811760744 -2.7422295029563726
v 0.0281413846153846 -0.0380420000000000 0.0287910000000000
vn 5.2082185298241868 -0.2817891446388561 -0.3123646634468046
v -0.0290100000000000 -0.0373920000000000 -0.0274980000000000
vn 2.4508868592243744 0.4727544619674356 -4.6744799147918563
v -0.0282250000000000 -0.0373920000000000 -0.0262970000000000
vn -2.4294922793024645 -0.2594197638816937 4.6522946013887436
v -0.0269290000000000 -0.0373920000000000 -0.0288580000000000
vn 0.0829982906278058 -2.6474341930415974 -0.1071604288873524
v -0.0257885094339623 -0.0380078867924528 -0.0296071698113208
vn -0.1690597844136318 -2.6337356856625402 0.1358351069222461
v -0.0296246212121212 -0.0380025454545454 -0.0258075757575758
vn 2.4143185558523368 -0.2770673557582559 -4.6373290851970577
v 0.0269290000000000 -0.0373920000000000 0.0288580000000000
vn -1.9281839785858916 0.6144043459722350 4.6527202377058252
v 0.0282250000000000 -0.0373920000000000 0.0262970000000000
vn -5.2513810786248198 -0.3174443428134122 0.2453496854803518
v 0.0290100000000000 -0.0373920000000000 0.0274980000000000
vn 0.1690419233264545 -2.6336903247915662 -0.1358256786549085
v 0.0296246212121212 -0.0380025454545454 0.0258075757575758
vn -0.0829982906276212 -2.6474341930416379 0.1071604288870884
v 0.0257885094339623 -0.0380078867924528 0.0296071698113208
vn -2.5605828858570492 -2.9817350082125715 1.6523040905304671
v -0.0265370000000000 -0.0367420000000000 -0.0282570000000000
vn -0.4197631372798397 -2.9347419177749936 3.0233883736477174
v -0.0274070000000000 -0.0367420000000000 -0.0288313333333333
vn 1.2289636317708841 -2.0958175639729180 -2.4285650737066633
v -0.0282250000000000 -0.0367420000000000 -0.0262970000000000
vn 2.8228157902213153 -2.9473907599954763 -1.1748487355270114
v -0.0287356000000000 -0.0367420000000000 -0.0270773000000000
vn -0.0502920627975018 -2.4939506531240467 -0.7355574806289437
v -0.0275550000000000 -0.0379673333333333 -0.0303223333333333
vn -0.5812184334872180 -1.9313175734981571 -0.0385927229256634
v -0.0303215000000000 -0.0379610000000000 -0.0275422500000000
vn -0.0448507495994332 -2.9359145202339181 0.2135823100344184
v -0.0281482792792793 -0.0380094954954955 -0.0249452702702703
vn 0.2322291143517518 -2.9536776942317489 -0.0623925598049926
v -0.0249635384615385 -0.0380111623931624 -0.0282083333333333
vn 0.0371181115591947 -2.9425805247528967 -0.0553069189919930
v -0.0264100149253731 -0.0380150746268657 -0.0299109626865671
vn 0.1712558303209164 -3.3162943175689099 -0.1202054490318282
v -0.0253885702479339 -0.0380177355371901 -0.0290540909090909
vn -0.0574010739946833 -2.9198317360569006 0.0399346566298427
v -0.0299440965517242 -0.0380167862068965 -0.0264813103448276
vn -0.0963151500665946 -3.2381484308628794 0.1250820183821693
v -0.0290357457627119 -0.0380181694915254 -0.0253776016949152
vn 0.3741414752191658 -2.9622821471436991 -3.0392103244919713
v 0.0274504545454545 -0.0367420000000000 0.0288289090909091
vn 2.5464617139748036 -2.9780438875617858 -1.6639572543720815
v 0.0265370000000000 -0.0367420000000000 0.0282570000000000
vn -1.2289636317708807 -2.0958175639729220 2.4285650737066691
v 0.0282250000000000 -0.0367420000000000 0.0262970000000000
vn -2.8228157902213118 -2.9473907599954599 1.1748487355270172
v 0.0287356000000000 -0.0367420000000000 0.0270773000000000
vn 0.0448547593357248 -2.9359146101600713 -0.2135791415924942
v 0.0281482792792793 -0.0380094954954955 0.0249452702702703
vn 0.0957134491686793 -3.2382877409138588 -0.1242919455175585
v 0.0290357457627119 -0.0380181694915254 0.0253776440677966
vn 0.0570899244712992 -2.9198361683461833 -0.0399414184939624
v 0.0299440965517242 -0.0380167862068965 0.0264813103448276
vn 0.5812184334867810 -1.9313175734981958 0.0385927229256981
v 0.0303215000000000 -0.0379610000000000 0.0275422500000000
vn -0.2322292543784868 -2.9536826114572921 0.0623926569098637
v 0.0249635384615385 -0.0380111623931624 0.0282083333333334
vn -0.1715946050668485 -3.3162858650089544 0.1204497546897609
v 0.0253885702479339 -0.0380177355371901 0.0290540909090909
vn -0.0368411763708650 -2.9425855783027872 0.0551909671965528
v 0.0264100149253731 -0.0380150746268657 0.0299109626865672
vn 0.0502920627974642 -2.4939506531241191 0.7355574806285696
v 0.0275550000000000 -0.0379673333333333 0.0303223333333333
vn 0.8184212210162538 -2.3898691129238374 -0.3927201945644541
v -0.0251146666666667 -0.0379673333333333 -0.0287900000000000
vn -0.2582983192807131 -2.5695932275145781 0.5817752959991664
v -0.0287110000000000 -0.0379852000000000 -0.0250878000000000
vn 0.0076810526658898 -3.4215790599681295 -0.1921423817368055
v -0.0272250000000000 -0.0380190625000000 -0.0301244843750000
vn 0.1847363373050173 -6.2756922491855374 -0.0687616591031618
v -0.0254740000000000 -0.0380420000000000 -0.0281380000000000
vn -0.2800047504415722 -3.6325526230573639 -0.0093899290537766
v -0.0301359603174603 -0.0380210158730159 -0.0273331269841270
vn -0.0721293715587054 -6.2749075733515802 0.1921002927353943
v -0.0281450000000000 -0.0380420000000000 -0.0254659230769231
vn 0.0734065859764849 -6.2748747055927838 -0.1903408783722857
v 0.0281450000000000 -0.0380420000000000 0.0254659230769231
vn 0.2582643043449021 -2.5695540576246478 -0.5816476787131742
v 0.0287110000000000 -0.0379852000000000 0.0250878000000000
vn 0.2796288451792656 -3.6325579724094319 0.0095610463700868
v 0.0301359603174603 -0.0380210158730158 0.0273331269841270
vn -0.8184212210159135 -2.3898691129240093 0.3927201945643376
v 0.0251146666666667 -0.0379673333333333 0.0287900000000000
vn -0.0078083611142239 -3.4215818982514286 0.1919252661473690
v 0.0272250000000000 -0.0380190625000000 0.0301244843750000
vn -0.1852855108979022 -6.2757020165529021 0.0683154027682989
v 0.0254740000000000 -0.0380420000000000 0.0281380000000000
vn -1.4889374110697768 -2.0951616626632767 -2.2778375672016287
v -0.0267920000000000 -0.0367420000000000 -0.0263760000000000
vn 0.2062981316224625 -2.5301052949118610 0.0611012214269241
v -0.0250237916666667 -0.0380043333333333 -0.0266629166666667
vn 0.0480228840017096 -2.7494461363090750 0.1607724738270716
v -0.0265996315789474 -0.0380067719298245 -0.0250527017543860
vn -0.0443636563182733 -3.3680267747049966 -0.2403010818811693
v -0.0281333812949640 -0.0380182014388489 -0.0301103165467626
vn -0.1416934132900242 -3.1999005465809640 -0.0301287838677693
v -0.0300892672413793 -0.0380187241379310 -0.0281510258620690
vn 0.1653500104310854 -6.2769473742240107 0.0510126226877120
v -0.0254723200000000 -0.0380420000000000 -0.0273804400000000
vn 0.0410419825045125 -6.2769454999601262 0.1848949106885770
v -0.0273810000000000 -0.0380420000000000 -0.0254740000000000
vn 1.4889374110697768 -2.0951616626632767 2.2778375672016287
v 0.0267920000000000 -0.0367420000000000 0.0263760000000000
vn -0.0410419825045923 -6.2769454999601200 -0.1848949106886682
v 0.0273810000000000 -0.0380420000000000 0.0254740000000000
vn -0.0480228840015924 -2.7494461363090354 -0.1607724738265829
v 0.0265996315789474 -0.0380067719298245 0.0250527017543860
vn 0.1415120506290266 -3.1999043251845691 0.0299332340902358
v 0.0300892672413793 -0.0380187241379310 0.0281510258620690
vn -0.2062893120163746 -2.5300875007671872 -0.0610932853284716
v 0.0250237916666667 -0.0380043333333333 0.0266629166666667
vn 0.0443665898821627 -3.3680443154371837 0.2403224285079867
v 0.0281333812949640 -0.0380182014388489 0.0301103165467626
vn -0.1653512601944561 -6.2769472938305766 -0.0510137339111181
v 0.0254723200000000 -0.0380420000000000 0.0273804400000000
vn -5.2193035177744020 -0.2876144073216117 0.3541336873940640
v -0.0261440000000000 -0.0373920000000000 -0.0276560000000000
vn 2.9752054448740441 0.1873249302284760 4.5209017150783479
v -0.0283620000000000 -0.0373920000000000 -0.0287780000000000
vn -0.5513478826945223 -2.5237309018268008 -0.5205970350924877
v -0.0294635000000000 -0.0379686000000000 -0.0295708000000000
vn 2.5816616657112106 -3.2408622179167761 1.6171402651404136
v -0.0285780000000000 -0.0380420000000000 -0.0283520000000000
vn -2.1117319326951498 -3.5783458139526894 -2.0267021399148923
v -0.0266923076923077 -0.0380420000000000 -0.0265730769230769
vn 0.1269151520669253 -2.6028026625984970 0.1248385013836454
v -0.0257330759493671 -0.0380048481012658 -0.0256088734177215
vn 5.2179430521729566 -0.2832174595525019 -0.3551784540395719
v 0.0261440000000000 -0.0373920000000000 0.0276560000000000
vn -2.9718380263566315 0.1864409329409385 -4.5189241848270694
v 0.0283620000000000 -0.0373920000000000 0.0287790000000000
vn 2.1117319326950299 -3.5783458139526574 2.0267021399148288
v 0.0266923076923077 -0.0380420000000000 0.0265730769230769
vn -2.5824578491050496 -3.2393565992259656 -1.6161403952170788
v 0.0285780000000000 -0.0380420000000000 0.0283520000000000
vn 0.5513859669222992 -2.5237488983704912 0.5206217731588745
v 0.0294635000000000 -0.0379686000000000 0.0295708000000000
vn -0.1269151520664918 -2.6028026625985290 -0.1248385013832210
v 0.0257330759493671 -0.0380048481012658 0.0256088734177215
vn 1.4866161237228472 -2.0900447961248685 2.2765042434082461
v -0.0283620000000000 -0.0367420000000000 -0.0287790000000000
vn 2.9003622065468733 -3.0612952905797162 1.1212656360223037
v -0.0286860000000000 -0.0367420000000000 -0.0281380000000000
vn -0.1729293307057073 -3.1390662833295453 -3.1368283487199675
v -0.0275090000000000 -0.0367420000000000 -0.0263360000000000
vn -2.9332481988875321 -2.9611116999426219 -0.8779683538791460
v -0.0263796363636364 -0.0367420000000000 -0.0271905454545455
vn -0.2606114829825906 -2.2029860033056750 -1.2394987006738600
v -0.0277850000000000 -0.0379420000000000 -0.0303190000000000
vn 0.1667220937187582 -2.8720619027037610 0.0181068209276379
v -0.0248987207207207 -0.0380094954954955 -0.0272989549549549
vn 0.0209043724995018 -2.8659917473333900 0.1593783876452204
v -0.0272572522522522 -0.0380094954954955 -0.0249028468468469
vn -0.1036384788509229 -2.9156011608090848 -0.1047582024170803
v -0.0290375160142349 -0.0380098149466192 -0.0298221459074733
vn -0.0891935750880733 -2.8936726942820790 -0.0833409379945905
v -0.0298295238095238 -0.0380112789115646 -0.0289762585034014
vn 0.0939190408125710 -3.4381369554801178 0.0596729990542178
v -0.0253173563218391 -0.0380213103448276 -0.0263747356321839
vn 0.0643900506415172 -3.2090413112640110 0.0893989948823045
v -0.0262463216374269 -0.0380150526315790 -0.0252998479532164
vn 2.9332481988875307 -2.9611116999426281 0.8779683538791574
v 0.0263796363636364 -0.0367420000000000 0.0271905454545454
vn 0.1380355896614515 -3.0500270693748313 3.1355367412355077
v 0.0275090000000000 -0.0367420000000000 0.0263360000000000
vn -1.4877636385487276 -2.0935001185623472 -2.2770456316707950
v 0.0283620000000000 -0.0367420000000000 0.0287790000000000
vn -2.9005844298807975 -3.0620507134511916 -1.1208259964902350
v 0.0286860000000000 -0.0367420000000000 0.0281380000000000
vn -0.0209043724995439 -2.8659917473334398 -0.1593783876452549
v 0.0272572522522522 -0.0380094954954955 0.0249028468468469
vn 0.0892011478816730 -2.8936726044807575 0.0833396501578085
v 0.0298295238095238 -0.0380112789115646 0.0289762585034014
vn 0.1036473484677472 -2.9155519932962495 0.1047704821343909
v 0.0290375160142349 -0.0380098149466193 0.0298221637010676
vn -0.0643900506415544 -3.2090413112640546 -0.0893989948822642
v 0.0262463216374269 -0.0380150526315789 0.0252998479532164
vn -0.0939194332932896 -3.4381369428944120 -0.0596720913814195
v 0.0253173563218391 -0.0380213103448275 0.0263747356321839
vn -0.1667236435543709 -2.8720756466072892 -0.0181042918298895
v 0.0248987207207207 -0.0380094954954955 0.0272990180180180
vn 0.2606114829826030 -2.2029860033058153 1.2394987006736515
v 0.0277850000000000 -0.0379420000000000 0.0303190000000000
vn -0.0503081009961888 -6.2769643362047631 0.1664033536746305
v 0.0273804400000000 -0.0380420000000000 -0.0254723200000000
vn -0.1849232227851176 -6.2769459995591497 0.0410011482225567
v 0.0254740000000000 -0.0380420000000000 -0.0273810000000000
vn 2.2778375672016238 -2.0951616626632736 -1.4889374110697793
v 0.0263760000000000 -0.0367420000000000 -0.0267920000000000
vn 0.2403221073695421 -3.3680264519695795 -0.0443667700029002
v 0.0301103165467626 -0.0380182014388489 -0.0281333812949640
vn -0.0611253874601479 -2.5302904765060141 0.2064133828897543
v 0.0266629166666667 -0.0380043333333333 -0.0250237916666667
vn -0.0303672571139909 -3.2081856687479560 0.1415239290767190
v -0.0281510258620690 -0.0380187241379310 0.0300860000000000
vn 0.1584345050798777 -2.7454061002113481 -0.0474733888159013
v -0.0250527017543860 -0.0380067719298245 0.0265996315789474
vn 0.0601907099084494 -2.5230417606726170 -0.2019593375535590
v -0.0266629166666667 -0.0380043333333333 0.0250237916666667
vn -0.2402793517894167 -3.3666138484654504 0.0443772567866761
v -0.0301103165467626 -0.0380182014388489 0.0281334244604317
vn 0.1848062885405339 -6.2769480570437892 -0.0418876108051201
v -0.0254740000000000 -0.0380420000000000 0.0273810000000000
vn 0.0512716818744691 -6.2769339575213916 -0.1655515135781808
v -0.0273804400000000 -0.0380420000000000 0.0254723200000000
vn -2.2778375672016287 -2.0951616626632763 1.4889374110697768
v -0.0263760000000000 -0.0367420000000000 0.0267920000000000
vn 0.0299332340902360 -3.1999043251845589 -0.1415120506290266
v 0.0281510258620690 -0.0380187241379310 -0.0300892672413793
vn -0.1607724738265854 -2.7494461363090443 0.0480228840015930
v 0.0250527017543860 -0.0380067719298245 -0.0265996315789474
vn 0.0683154027682983 -6.2757020165529021 0.1852855108979023
v 0.0281380000000000 -0.0380420000000000 -0.0254740000000000
vn -0.1911112213854163 -6.2748890063351483 -0.0728577489477241
v 0.0254659230769231 -0.0380420000000000 -0.0281450000000000
vn 0.1919252661473691 -3.4215818982514277 0.0078083611142226
v 0.0301244843750000 -0.0380190625000000 -0.0272250000000000
vn 0.3927201945643376 -2.3898691129240093 0.8184212210159135
v 0.0287900000000000 -0.0379673333333333 -0.0251146666666667
vn -0.0106396865526452 -3.6354031696876454 0.2798013498609021
v -0.0273331269841270 -0.0380210158730158 0.0301359603174603
vn 0.5816476787131742 -2.5695540576246478 0.2582643043449021
v -0.0250878000000000 -0.0379852000000000 0.0287110000000000
vn -0.3960853967857110 -2.3903478277911936 -0.8312344767186991
v -0.0287900000000000 -0.0379673333333333 0.0251146666666667
vn -0.1922049454893690 -3.4248287713217564 -0.0076371304875048
v -0.0301244843750000 -0.0380190625000000 0.0272250000000000
vn 0.1987683987872197 -6.2743349593014806 0.0720599008365651
v -0.0254513846153846 -0.0380420000000000 0.0281450000000000
vn -0.0680487203738892 -6.2757167115185846 -0.1851384088129380
v -0.0281380000000000 -0.0380420000000000 0.0254740000000000
vn 0.0095610463700863 -3.6325579724094048 -0.2796288451792653
v 0.0273331269841270 -0.0380210158730158 -0.0301359603174603
vn -0.5816476787131742 -2.5695540576246478 -0.2582643043449021
v 0.0250878000000000 -0.0379852000000000 -0.0287110000000000
vn -3.0392103244919708 -2.9622821471436969 -0.3741414752191647
v 0.0288289090909091 -0.0367420000000000 -0.0274504545454545
vn -1.6639572543720798 -2.9780438875617854 -2.5464617139748040
v 0.0282570000000000 -0.0367420000000000 -0.0265370000000000
vn 2.4286431225325895 -2.0958769450693424 1.2289125561422556
v 0.0262970000000000 -0.0367420000000000 -0.0282250000000000
vn 1.2450113967855156 -2.8761034809845536 2.7900209821054669
v 0.0270472500000000 -0.0367420000000000 -0.0287160000000000
vn 0.7355574806285604 -2.4939506531241222 -0.0502920627974694
v 0.0303223333333333 -0.0379673333333333 -0.0275550000000000
vn 0.0551909671965528 -2.9425855783027872 0.0368411763708650
v 0.0299109626865672 -0.0380150746268657 -0.0264100149253731
vn 0.1204497546897608 -3.3162858650089539 0.1715946050668485
v 0.0290540909090909 -0.0380177355371901 -0.0253885702479339
vn 0.0623925598050169 -2.9536776942317844 0.2322291143517637
v 0.0282083333333334 -0.0380111623931624 -0.0249635384615385
vn -0.0406886697648307 -1.9277036835605708 0.5776871054456304
v -0.0275422500000000 -0.0379610000000000 0.0303215000000000
vn 0.0398336389377484 -2.9138443616108143 0.0570313306293799
v -0.0264813103448276 -0.0380167862068965 0.0299467103448276
vn 0.1245809714737942 -3.2383324889335414 0.0965042681046852
v -0.0253776440677966 -0.0380181694915254 0.0290357457627119
vn 0.2172927932772235 -2.9356974702203367 0.0446419679445458
v -0.0249452702702703 -0.0380094954954955 0.0281482792792793
vn -0.0620095237469357 -2.9536741482320616 -0.2325244949161278
v -0.0282083333333334 -0.0380111623931624 0.0249635384615385
vn -0.1201932312062282 -3.3068515912646186 -0.1723913828196306
v -0.0290540909090909 -0.0380177355371901 0.0253854462809918
vn -0.0553054237703083 -2.9356650708831955 -0.0369535917139768
v -0.0299137910447761 -0.0380150746268657 0.0264100149253731
vn -0.7355592102167936 -2.4939503338532480 0.0502889717491259
v -0.0303223333333333 -0.0379673333333333 0.0275550000000000
vn -1.2450113967855214 -2.8761034809845465 -2.7900209821054620
v -0.0270472500000000 -0.0367420000000000 0.0287160000000000
vn -2.4286431225325926 -2.0958769450693335 -1.2289125561422480
v -0.0262970000000000 -0.0367420000000000 0.0282250000000000
vn 1.6523005078839994 -2.9828422290578742 2.5605846963295580
v -0.0282570000000000 -0.0367420000000000 0.0265370000000000
vn 3.0234498472994824 -2.9364831250237216 0.4208806477488767
v -0.0288313333333333 -0.0367420000000000 0.0274070000000000
vn 0.0385927229256981 -1.9313175734981960 -0.5812184334867813
v 0.0275422500000000 -0.0379610000000000 -0.0303215000000000
vn -0.0399315276153448 -2.9198350289097101 -0.0571757191460641
v 0.0264813103448276 -0.0380167862068965 -0.0299440965517241
vn -0.1245702236813631 -3.2382801068718230 -0.0959602634746662
v 0.0253776440677966 -0.0380181694915254 -0.0290357457627119
vn -0.2135791415924941 -2.9359146101600708 -0.0448547593357248
v 0.0249452702702703 -0.0380094954954955 -0.0281482792792793
vn 0.2477060778870426 -0.3463379784914329 5.2384850446278666
v 0.0274980000000000 -0.0373920000000000 -0.0290100000000000
vn 4.2991255476548922 0.8123580973624389 2.0228944716934629
v 0.0262970000000000 -0.0373920000000000 -0.0282250000000000
vn -4.6373290851970568 -0.2770673557582559 -2.4143185558523368
v 0.0288580000000000 -0.0373920000000000 -0.0269290000000000
vn 0.1071604288870884 -2.6474341930416379 0.0829982906276212
v 0.0296071698113208 -0.0380078867924528 -0.0257885094339623
vn 0.1369383182307844 -2.6365891557266052 0.1699093029027744
v -0.0258075757575758 -0.0380025454545454 0.0296246969696970
vn -0.1087447445203185 -2.6546954177759656 -0.0843515616525925
v -0.0296071698113208 -0.0380078867924528 0.0257885094339623
vn -0.2477060778870150 -0.3463379784914443 -5.2384850446278861
v -0.0274980000000000 -0.0373920000000000 0.0290100000000000
vn -4.3914280045433074 0.6961345613321027 -2.4285071449281270
v -0.0262970000000000 -0.0373920000000000 0.0282250000000000
vn 4.6555253380009498 -0.2642454569107202 2.4295432459612476
v -0.0288580000000000 -0.0373920000000000 0.0269290000000000
vn -0.1358256786548978 -2.6336903247915378 -0.1690419233264460
v 0.0258075757575758 -0.0380025454545454 -0.0296246212121212
vn 0.9891714646651828 -3.6289010141263685 2.7115636778417982
v 0.0272980000000000 -0.0380420000000000 -0.0288790000000000
vn 2.5582171869552055 -3.5966685582289033 1.3474985082374944
v 0.0264525789473684 -0.0380420000000000 -0.0281708947368421
vn -1.6788660121068304 -3.2311252431928859 -2.5625306665793635
v 0.0282903333333333 -0.0380420000000000 -0.0265588333333333
vn -2.8032207683636283 -3.5966326992345841 -0.7285478454725276
v 0.0288445000000000 -0.0380420000000000 -0.0271680000000000
vn -2.5478236012163635 -3.5267241236751969 -1.3439965419412390
v -0.0264525789473684 -0.0380420000000000 0.0281708947368421
vn -0.9892792407315796 -3.6289014321528623 -2.7115574242720548
v -0.0272980000000000 -0.0380420000000000 0.0288790000000000
vn 2.7782760624439935 -3.6325645286873676 0.7680518463556943
v -0.0288457272727273 -0.0380420000000000 0.0271462727272727
vn 1.6801277243221588 -3.2240023526419503 2.5673339016005610
v -0.0282903333333333 -0.0380420000000000 0.0265588333333333
vn -1.1037028821602364 -3.2461414094484624 2.8492319865633911
v 0.0279250000000000 -0.0380420000000000 -0.0287940000000000
vn 3.0867055657535021 -3.3604929413968856 -0.2077902591737903
v 0.0263490000000000 -0.0380420000000000 -0.0272700000000000
vn 4.5417369298436165 0.1683183275170278 -2.9495046299305683
v 0.0263760000000000 -0.0373920000000000 -0.0267920000000000
vn 0.4065815334189519 -3.6127802508676941 -2.9102829698315702
v 0.0274425000000000 -0.0380420000000000 -0.0262520000000000
vn -2.7422292499587977 -3.5786584732018190 0.9836850758375130
v 0.0287910000000000 -0.0380420000000000 -0.0281413846153846
vn 1.1036597953809901 -3.2461384243524511 -2.8490902523334798
v -0.0279250000000000 -0.0380420000000000 0.0287940000000000
vn 2.7421846180196412 -3.5780544285801863 -0.9841454710102794
v -0.0287910000000000 -0.0380420000000000 0.0281413846153846
vn -3.0468415055489499 -3.6836630907144019 0.0937992883230174
v -0.0263490000000000 -0.0380420000000000 0.0272700000000000
vn -0.3614107528122210 -3.6496080346139363 2.9039114913633060
v -0.0274619090909091 -0.0380420000000000 0.0262421818181818
vn -4.5399052709168801 0.2277766341365455 2.8614636736899355
v -0.0263760000000000 -0.0373920000000000 0.0267920000000000
# 224 vertices, 0 vertices normals


usemtl material_0
vt 0.8290629982948303 0.0269300006330013
vt 0.8290629982948303 0.0134650003165007
vt 0.8309770226478577 0.0134650003165007
f 44/1/44 126/2/126 53/3/53
vt 0.8309770226478577 0.0269300006330013
f 126/3/126 114/4/114 125/1/125
vt 0.8253800272941589 0.0269300006330013
vt 0.8253800272941589 0.0134650003165007
vt 0.8272219896316528 0.0134650003165007
f 116/5/116 45/6/45 114/7/114
vt 0.8272219896316528 0.0269300006330013
f 44/7/44 53/8/53 37/5/37
f 66/8/66 65/7/65 54/2/54
f 53/2/53 38/1/38 37/8/37
vt 0.8217179775238037 0.0269300006330013
vt 0.8217179775238037 0.0134650003165007
vt 0.8235489726066589 0.0134650003165007
f 43/9/43 47/10/47 54/11/54
vt 0.8235489726066589 0.0269300006330013
f 43/11/43 117/12/117 47/9/47
f 54/12/54 47/11/47 38/6/38
f 99/6/99 43/5/43 127/12/127
vt 0.8180549740791321 0.0269300006330013
vt 0.8180549740791321 0.0134650003165007
vt 0.8198869824409485 0.0134650003165007
f 113/13/113 117/14/117 43/15/43
vt 0.8198869824409485 0.0269300006330013
f 128/15/128 43/16/43 99/13/99
f 63/16/63 36/15/36 113/10/113
f 128/10/128 63/9/63 113/16/113
vt 0.8290629982948303 0.0511519983410835
f 63/8/63 55/1/55 36/17/36
vt 0.8253800272941589 0.0511519983410835
f 64/18/64 114/5/114 55/8/55
f 55/17/55 45/18/45 35/8/35
f 126/12/126 125/5/125 64/18/64
vt 0.8217179775238037 0.0511519983410835
f 128/19/128 126/9/126 63/12/63
f 127/18/127 65/19/65 66/12/66
f 67/16/67 102/9/102 129/19/129
vt 0.8180549740791321 0.0511519983410835
f 87/20/87 70/13/70 72/16/72
f 88/19/88 74/20/74 69/16/69
vt 0.8253800272941589 0.0757810026407242
f 115/21/115 132/18/132 133/17/133
vt 0.8290629982948303 0.0757810026407242
f 116/17/116 103/22/103 133/21/133
vt 0.8217179775238037 0.0757810026407242
f 116/23/116 133/19/133 45/18/45
f 44/18/44 37/21/37 103/23/103
vt 0.8180549740791321 0.0757810026407242
f 37/24/37 91/20/91 103/19/103
f 35/19/35 89/23/89 71/24/71
vt 0.8253800272941589 0.1004099994897842
f 104/25/104 90/21/90 70/22/70
vt 0.8290629982948303 0.1004099994897842
f 36/22/36 35/26/35 71/25/71
vt 0.8217179775238037 0.1004099994897842
f 90/27/90 72/23/72 70/21/70
f 38/21/38 47/25/47 105/27/105
vt 0.8180549740791321 0.1004099994897842
f 37/28/37 73/24/73 91/23/91
f 38/23/38 74/27/74 73/28/73
vt 0.8253800272941589 0.1250399947166443
f 38/29/38 105/25/105 92/26/92
vt 0.8290629982948303 0.1250399947166443
f 128/26/128 66/30/66 126/29/126
vt 0.8217179775238037 0.1250399947166443
f 38/31/38 92/27/92 74/25/74
f 57/25/57 73/29/73 74/31/74
vt 0.8180549740791321 0.1250399947166443
f 69/32/69 92/28/92 105/27/105
f 68/27/68 103/31/103 91/32/91
vt 0.8253800272941589 0.1493819952011108
f 104/33/104 70/29/70 130/30/130
vt 0.8290629982948303 0.1493819952011108
f 64/30/64 55/34/55 63/33/63
vt 0.8217179775238037 0.1493819952011108
f 104/35/104 134/31/134 46/29/46
f 186/29/186 187/33/187 202/35/202
vt 0.8180549740791321 0.1493819952011108
f 223/36/223 170/32/170 157/31/157
f 159/31/159 171/35/171 193/36/193
vt 0.8253800272941589 0.1733379960060120
f 18/37/18 147/33/147 180/34/180
vt 0.8290629982948303 0.1733379960060120
f 157/34/157 185/38/185 25/37/25
vt 0.8217179775238037 0.1733379960060120
f 3/39/3 16/35/16 174/33/174
f 24/33/24 6/37/6 23/39/23
vt 0.8180549740791321 0.1733379960060120
f 98/40/98 112/36/112 50/35/50
f 8/35/8 24/39/24 23/40/23
vt 0.8253800272941589 0.1972939968109131
f 192/41/192 27/37/27 28/38/28
vt 0.8290629982948303 0.1972939968109131
f 110/38/110 144/42/144 145/41/145
vt 0.8217179775238037 0.1972939968109131
f 8/43/8 23/39/23 156/37/156
f 221/37/221 155/41/155 168/43/168
vt 0.8180549740791321 0.1972939968109131
f 221/44/221 20/40/20 21/39/21
f 221/39/221 21/43/21 155/44/155
vt 0.8253800272941589 0.2212509959936142
f 220/45/220 152/41/152 7/42/7
vt 0.8290629982948303 0.2212509959936142
f 134/42/134 117/46/117 46/45/46
vt 0.8217179775238037 0.2212509959936142
f 169/47/169 211/43/211 156/41/156
f 211/41/211 182/45/182 212/47/212
vt 0.8180549740791321 0.2212509959936142
f 211/48/211 183/44/183 182/43/182
f 201/43/201 182/47/182 183/48/183
vt 0.8253800272941589 0.2452069967985153
f 120/49/120 122/45/122 52/46/52
vt 0.8290629982948303 0.2452069967985153
f 186/46/186 214/50/214 187/49/187
vt 0.8217179775238037 0.2452069967985153
f 49/51/49 107/47/107 39/45/39
f 188/45/188 155/49/155 26/51/26
vt 0.8180549740791321 0.2452069967985153
f 7/52/7 152/48/152 20/47/20
f 30/47/30 10/51/10 224/52/224
vt 0.8253800272941589 0.2691639959812164
f 185/53/185 186/49/186 167/50/167
vt 0.8290629982948303 0.2691639959812164
f 106/50/106 137/54/137 136/53/136
vt 0.8217179775238037 0.2691639959812164
f 69/55/69 105/51/105 131/49/131
f 139/49/139 76/53/76 136/55/136
vt 0.8180549740791321 0.2691639959812164
f 187/56/187 214/52/214 213/51/213
f 85/51/85 41/55/41 97/56/97
vt 0.8253800272941589 0.2931199967861176
f 139/57/139 75/53/75 76/54/76
vt 0.8290629982948303 0.2931199967861176
f 119/54/119 136/58/136 76/57/76
vt 0.8217179775238037 0.2931199967861176
f 58/59/58 76/55/76 75/53/75
f 139/53/139 136/57/136 78/59/78
vt 0.8180549740791321 0.2931199967861176
f 119/60/119 40/56/40 50/55/50
f 127/55/127 54/59/54 65/60/65
vt 0.8253800272941589 0.3170770108699799
f 185/61/185 170/57/170 186/58/186
vt 0.8290629982948303 0.3170770108699799
f 197/58/197 215/62/215 14/61/14
vt 0.8217179775238037 0.3170770108699799
f 209/63/209 179/59/179 161/57/161
f 119/57/119 48/61/48 136/63/136
vt 0.8180549740791321 0.3170770108699799
f 217/64/217 149/60/149 16/59/16
f 121/59/121 119/63/119 50/64/50
vt 0.8253800272941589 0.3410330116748810
f 148/65/148 34/61/34 33/62/33
vt 0.8290629982948303 0.3410330116748810
f 223/62/223 214/66/214 170/65/170
vt 0.8217179775238037 0.3410330116748810
f 49/67/49 137/63/137 48/61/48
f 198/61/198 175/65/175 15/67/15
vt 0.8180549740791321 0.3410330116748810
f 59/68/59 77/64/77 137/63/137
f 168/63/168 155/67/155 188/68/188
vt 0.8253800272941589 0.3649890124797821
f 212/69/212 152/65/152 220/66/220
vt 0.8290629982948303 0.3649890124797821
f 81/66/81 39/70/39 80/69/80
vt 0.8217179775238037 0.3649890124797821
f 4/71/4 219/67/219 173/65/173
f 81/65/81 42/69/42 39/71/39
vt 0.8180549740791321 0.3649890124797821
f 122/72/122 51/68/51 109/67/109
f 36/67/36 72/71/72 90/72/90
vt 0.8253800272941589 0.3889459967613220
f 194/73/194 208/69/208 195/70/195
vt 0.8290629982948303 0.3889459967613220
f 78/70/78 137/74/137 77/73/77
vt 0.8217179775238037 0.3889459967613220
f 42/75/42 95/71/95 109/69/109
f 45/69/45 102/73/102 89/75/89
vt 0.8180549740791321 0.3889459967613220
f 45/76/45 133/72/133 132/71/132
f 14/71/14 13/75/13 173/76/173
vt 0.8253800272941589 0.4142509996891022
f 116/77/116 114/73/114 126/74/126
vt 0.8290629982948303 0.4142509996891022
f 141/74/141 123/78/123 142/77/142
vt 0.8217179775238037 0.4142509996891022
f 218/79/218 2/75/2 217/73/217
f 218/73/218 161/77/161 147/79/147
vt 0.8180549740791321 0.4142509996891022
f 120/80/120 75/76/75 138/75/138
f 121/75/121 50/79/50 144/80/144
vt 0.8253800272941589 0.4395290017127991
f 79/81/79 80/77/80 93/78/93
vt 0.8290629982948303 0.4395290017127991
f 54/78/54 38/82/38 53/81/53
vt 0.8217179775238037 0.4395290017127991
f 135/83/135 117/79/117 134/77/134
f 81/77/81 80/81/80 61/83/61
vt 0.8180549740791321 0.4395290017127991
f 83/84/83 98/80/98 84/79/84
f 98/79/98 50/83/50 40/84/40
vt 0.8253800272941589 0.4620819985866547
f 127/85/127 43/81/43 54/82/54
vt 0.8290629982948303 0.4620819985866547
f 42/82/42 59/86/59 39/85/39
vt 0.8217179775238037 0.4620819985866547
f 199/87/199 209/83/209 3/81/3
f 223/81/223 157/85/157 24/87/24
vt 0.8180549740791321 0.4620819985866547
f 83/88/83 112/84/112 98/83/98
f 86/83/86 111/87/111 146/88/146
vt 0.8253800272941589 0.4876739978790283
f 189/89/189 29/85/29 190/86/190
vt 0.8290629982948303 0.4876739978790283
f 105/86/105 47/90/47 117/89/117
vt 0.8217179775238037 0.4876739978790283
f 156/91/156 23/87/23 22/85/22
f 120/85/120 52/89/52 75/91/75
vt 0.8180549740791321 0.4876739978790283
f 212/92/212 182/88/182 165/87/165
f 3/87/3 218/91/218 217/92/217
vt 0.8253800272941589 0.5123029947280884
f 2/93/2 34/89/34 148/90/148
vt 0.8290629982948303 0.5123029947280884
f 58/90/58 75/94/75 41/93/41
vt 0.8217179775238037 0.5123029947280884
f 82/95/82 109/91/109 95/89/95
f 52/89/52 97/93/97 41/95/41
vt 0.8180549740791321 0.5123029947280884
f 62/96/62 84/92/84 85/91/85
f 196/91/196 162/95/162 148/96/148
vt 0.8253800272941589 0.5369330048561096
f 222/97/222 156/93/156 211/94/211
vt 0.8290629982948303 0.5369330048561096
f 79/94/79 94/98/94 80/97/80
vt 0.8217179775238037 0.5369330048561096
f 85/99/85 40/95/40 41/93/41
f 30/93/30 158/97/158 29/99/29
vt 0.8180549740791321 0.5369330048561096
f 36/100/36 90/96/90 46/95/46
f 96/95/96 83/99/83 84/100/84
vt 0.8253800272941589 0.5615620017051697
f 135/101/135 101/97/101 131/98/131
vt 0.8290629982948303 0.5615620017051697
f 86/98/86 97/102/97 111/101/111
vt 0.8217179775238037 0.5615620017051697
f 60/103/60 51/99/51 122/97/122
f 8/97/8 223/101/223 24/103/24
vt 0.8180549740791321 0.5615620017051697
f 143/104/143 121/100/121 144/99/144
f 67/99/67 89/103/89 102/104/102
vt 0.8253800272941589 0.5861909985542297
f 42/105/42 109/101/109 51/102/51
vt 0.8290629982948303 0.5861909985542297
f 169/102/169 156/106/156 184/105/184
vt 0.8217179775238037 0.5861909985542297
f 221/107/221 9/103/9 7/101/7
f 79/101/79 107/105/107 140/107/140
vt 0.8180549740791321 0.5861909985542297
f 52/108/52 41/104/41 75/103/75
f 208/103/208 207/107/207 176/108/176
vt 0.8253800272941589 0.6101970076560974
f 186/109/186 170/105/170 214/106/214
vt 0.8290629982948303 0.6101970076560974
f 145/106/145 112/110/112 83/109/83
vt 0.8217179775238037 0.6101970076560974
f 119/111/119 58/107/58 40/105/40
f 3/105/3 217/109/217 16/111/16
vt 0.8180549740791321 0.6101970076560974
f 22/112/22 23/108/23 153/107/153
f 223/107/223 10/111/10 214/112/214
vt 0.8253800272941589 0.6341530084609985
f 16/113/16 14/109/14 174/110/174
vt 0.8290629982948303 0.6341530084609985
f 81/110/81 95/114/95 42/113/42
vt 0.8217179775238037 0.6341530084609985
f 219/115/219 31/111/31 150/109/150
f 120/109/120 139/113/139 60/115/60
vt 0.8180549740791321 0.6341530084609985
f 60/116/60 42/112/42 51/111/51
f 169/111/169 183/115/183 211/116/211
vt 0.8253800272941589 0.6581100225448608
f 111/117/111 52/113/52 142/114/142
vt 0.8290629982948303 0.6581100225448608
f 49/114/49 48/118/48 121/117/121
vt 0.8217179775238037 0.6581100225448608
f 120/119/120 60/115/60 122/113/122
f 24/113/24 25/117/25 154/119/154
vt 0.8180549740791321 0.6581100225448608
f 60/120/60 78/116/78 59/115/59
f 143/115/143 144/119/144 124/120/124
vt 0.8253800272941589 0.6820660233497620
f 157/121/157 25/117/25 24/118/24
vt 0.8290629982948303 0.6820660233497620
f 4/118/4 173/122/173 13/121/13
vt 0.8217179775238037 0.6820660233497620
f 139/123/139 138/119/138 75/117/75
f 128/117/128 99/121/99 127/123/127
vt 0.8180549740791321 0.6820660233497620
f 195/124/195 196/120/196 172/119/172
f 163/119/163 150/123/150 177/124/177
vt 0.8253800272941589 0.7060220241546631
f 121/125/121 48/121/48 119/122/119
vt 0.8290629982948303 0.7060220241546631
f 143/122/143 108/126/108 140/125/140
vt 0.8217179775238037 0.7060220241546631
f 113/127/113 36/123/36 46/121/46
f 199/121/199 173/125/173 210/127/210
vt 0.8180549740791321 0.7060220241546631
f 205/128/205 191/124/191 192/123/192
f 78/123/78 77/127/77 59/128/59
vt 0.8253800272941589 0.7299789786338806
f 144/129/144 50/125/50 112/126/112
vt 0.8290629982948303 0.7299789786338806
f 9/126/9 27/130/27 7/129/7
vt 0.8217179775238037 0.7299789786338806
f 106/131/106 136/127/136 48/125/48
f 221/125/221 168/129/168 213/131/213
vt 0.8180549740791321 0.7299789786338806
f 135/132/135 134/128/134 118/127/118
f 168/127/168 187/131/187 213/132/213
vt 0.8253800272941589 0.7539349794387817
f 203/133/203 220/129/220 27/130/27
vt 0.8290629982948303 0.7539349794387817
f 222/130/222 8/134/8 156/133/156
vt 0.8217179775238037 0.7539349794387817
f 145/135/145 144/131/144 112/129/112
f 221/129/221 213/133/213 205/135/205
vt 0.8180549740791321 0.7539349794387817
f 216/136/216 208/132/208 15/131/15
f 143/131/143 140/135/140 107/136/107
vt 0.8253800272941589 0.7778919935226440
f 52/137/52 141/133/141 142/134/142
vt 0.8290629982948303 0.7778919935226440
f 139/134/139 78/138/78 60/137/60
vt 0.8217179775238037 0.7778919935226440
f 66/139/66 54/135/54 53/133/53
f 44/133/44 103/137/103 116/139/116
vt 0.8180549740791321 0.7778919935226440
f 60/140/60 59/136/59 42/135/42
f 84/135/84 98/139/98 40/140/40
vt 0.8253800272941589 0.8018479943275452
f 217/141/217 15/137/15 149/138/149
vt 0.8290629982948303 0.8018479943275452
f 2/138/2 19/142/19 34/141/34
vt 0.8217179775238037 0.8018479943275452
f 21/143/21 20/139/20 5/137/5
f 119/137/119 76/141/76 58/143/58
vt 0.8180549740791321 0.8018479943275452
f 189/144/189 204/140/204 211/139/211
f 169/139/169 184/143/184 183/144/183
vt 0.8253800272941589 0.8258039951324463
f 122/145/122 109/141/109 141/142/141
vt 0.8290629982948303 0.8258039951324463
f 78/142/78 136/146/136 137/145/137
vt 0.8217179775238037 0.8258039951324463
f 211/147/211 204/143/204 224/141/224
f 216/141/216 148/145/148 208/147/208
vt 0.8180549740791321 0.8258039951324463
f 106/148/106 48/144/48 137/143/137
f 203/143/203 212/147/212 220/148/220
vt 0.8253800272941589 0.8497610092163086
f 157/149/157 170/145/170 185/146/185
vt 0.8290629982948303 0.8497610092163086
f 195/146/195 208/150/208 162/149/162
vt 0.8217179775238037 0.8497610092163086
f 66/151/66 53/147/53 126/145/126
f 27/145/27 220/149/220 7/151/7
vt 0.8180549740791321 0.8497610092163086
f 203/152/203 27/148/27 189/147/189
f 9/147/9 28/151/28 27/152/27
vt 0.8272219896316528 0.8753060102462769
vt 0.8253800272941589 0.8753060102462769
f 105/153/105 135/154/135 131/149/131
vt 0.8290629982948303 0.8753060102462769
f 152/150/152 165/155/165 181/153/181
f 189/149/189 190/150/190 204/153/204
vt 0.8235489726066589 0.8753060102462769
vt 0.8217179775238037 0.8753060102462769
f 189/156/189 211/157/211 212/151/212
f 222/149/222 224/154/224 8/156/8
f 222/151/222 211/149/211 224/156/224
vt 0.8198869824409485 0.8753060102462769
vt 0.8180549740791321 0.8753060102462769
f 224/158/224 29/159/29 158/152/158
f 190/151/190 29/157/29 204/158/204
f 212/152/212 165/151/165 152/158/152
vt 0.8290629982948303 0.8864899873733521
vt 0.8309770226478577 0.8753060102462769
f 204/160/204 29/155/29 224/161/224
vt 0.8309770226478577 0.8864899873733521
f 8/161/8 10/162/10 223/160/223
vt 0.8253800272941589 0.8864899873733521
f 151/163/151 19/154/19 18/153/18
vt 0.8272219896316528 0.8864899873733521
f 217/153/217 216/164/216 15/163/15
f 30/164/30 224/153/224 158/155/158
f 4/155/4 14/160/14 1/164/1
vt 0.8217179775238037 0.8864899873733521
f 128/165/128 113/157/113 43/156/43
vt 0.8235489726066589 0.8864899873733521
f 219/156/219 210/166/210 173/165/173
f 8/166/8 224/156/224 10/154/10
f 183/154/183 184/163/184 166/166/166
vt 0.8180549740791321 0.8864899873733521
f 221/167/221 205/159/205 9/158/9
vt 0.8198869824409485 0.8864899873733521
f 134/158/134 130/168/130 100/167/100
f 205/168/205 213/158/213 214/157/214
f 30/157/30 191/165/191 10/168/10
vt 0.8328909873962402 0.0000000000000000
vt 0.8328909873962402 0.0187020003795624
f 156/3/156 22/169/22 184/170/184
vt 0.8328909873962402 0.0374029986560345
f 221/4/221 7/170/7 20/171/20
vt 0.8328909873962402 0.0561049990355968
f 199/172/199 3/17/3 174/171/174
vt 0.8328909873962402 0.0748059973120689
f 35/172/35 45/173/45 89/22/89
f 205/22/205 10/17/10 191/172/191
f 218/17/218 19/4/19 2/171/2
vt 0.8291820287704468 0.0000000000000000
f 171/3/171 207/2/207 194/174/194
f 58/169/58 41/3/41 40/174/40
f 192/4/192 28/3/28 9/170/9
vt 0.8328909873962402 0.1122089996933937
vt 0.8328909873962402 0.0935079976916313
f 113/175/113 46/26/46 117/176/117
vt 0.8328909873962402 0.1309109926223755
vt 0.8328909873962402 0.1496119946241379
f 205/177/205 192/178/192 9/34/9
f 31/34/31 32/30/32 11/177/11
f 126/177/126 64/30/64 63/175/63
f 180/173/180 161/176/161 179/26/179
f 209/26/209 161/22/161 218/173/218
vt 0.8328909873962402 0.1683139950037003
f 30/178/30 27/179/27 191/38/191
f 30/38/30 29/34/29 189/178/189
vt 0.8328909873962402 0.1870149970054626
f 49/180/49 121/38/121 107/179/107
vt 0.8328909873962402 0.2057169973850250
f 159/181/159 1/42/1 215/180/215
vt 0.8328909873962402 0.2244179993867874
vt 0.8328909873962402 0.2431199997663498
f 111/182/111 97/183/97 52/50/52
f 180/50/180 179/46/179 164/182/164
vt 0.8328909873962402 0.2805230021476746
vt 0.8328909873962402 0.2618210017681122
f 44/184/44 116/54/116 126/185/126
f 177/183/177 150/185/150 17/54/17
f 64/54/64 125/50/125 114/183/114
f 16/181/16 149/182/149 15/46/15
f 159/46/159 207/42/207 171/181/171
vt 0.8328909873962402 0.2992250025272369
vt 0.8328909873962402 0.3179259896278381
f 16/186/16 15/187/15 176/62/176
f 191/62/191 27/58/27 192/186/192
vt 0.8328909873962402 0.3366279900074005
f 199/187/199 210/188/210 209/66/209
f 15/66/15 175/62/175 176/187/176
vt 0.8328909873962402 0.3740310072898865
vt 0.8328909873962402 0.3553290069103241
f 16/189/16 176/70/176 14/190/14
vt 0.8328909873962402 0.3927319943904877
vt 0.8328909873962402 0.4114339947700500
f 52/191/52 122/192/122 141/78/141
f 14/78/14 173/74/173 174/191/174
f 199/189/199 174/191/174 173/74/173
f 3/74/3 209/70/209 218/189/218
f 217/190/217 2/66/2 216/188/216
f 198/186/198 15/58/15 208/184/208
vt 0.8328909873962402 0.4301350116729736
f 198/193/198 176/78/176 175/192/175
vt 0.8254730105400085 0.0000000000000000
f 56/194/56 72/174/72 71/2/71
f 197/2/197 176/7/176 207/194/207
f 198/7/198 208/6/208 176/194/176
f 197/4/197 207/17/207 215/1/215
vt 0.8180549740791321 0.0000000000000000
vt 0.8217639923095703 0.0000000000000000
f 197/195/197 14/196/14 176/10/176
f 120/10/120 138/15/138 139/195/139
f 30/6/30 189/11/189 27/194/27
f 219/11/219 1/196/1 32/194/32
f 59/196/59 137/11/137 39/10/39
f 4/195/4 13/15/13 14/14/14
f 4/42/4 1/38/1 219/180/219
f 32/193/32 1/82/1 159/78/159
f 215/70/215 1/66/1 14/190/14
f 80/58/80 39/54/39 93/184/93
f 34/30/34 19/26/19 12/175/12
vt 0.8328909873962402 0.4488370120525360
f 128/82/128 127/193/127 66/197/66
vt 0.8328909873962402 0.4675379991531372
f 69/197/69 74/198/74 92/86/92
f 33/86/33 34/82/34 160/197/160
vt 0.8328909873962402 0.4862399995326996
f 55/198/55 35/199/35 36/90/36
f 19/90/19 147/86/147 18/198/18
vt 0.8328909873962402 0.5236430168151855
vt 0.8328909873962402 0.5049409866333008
f 104/200/104 46/94/46 90/201/90
vt 0.8328909873962402 0.5423449873924255
vt 0.8328909873962402 0.5610460042953491
f 2/202/2 148/203/148 216/102/216
f 38/102/38 73/98/73 37/202/37
f 218/202/218 147/98/147 19/200/19
f 36/199/36 71/201/71 72/94/72
f 205/94/205 214/90/214 10/199/10
vt 0.8328909873962402 0.5984489917755127
vt 0.8328909873962402 0.5797479748725891
f 196/204/196 148/106/148 33/205/33
vt 0.8328909873962402 0.6171510219573975
f 143/206/143 107/110/107 121/204/121
vt 0.8328909873962402 0.6358519792556763
vt 0.8328909873962402 0.6545540094375610
f 194/207/194 195/208/195 206/118/206
f 208/118/208 148/114/148 162/207/162
vt 0.8328909873962402 0.6919569969177246
vt 0.8328909873962402 0.6732550263404846
f 194/209/194 207/122/207 208/210/208
f 209/208/209 178/210/178 179/122/179
f 219/122/219 163/118/163 210/208/210
f 49/206/49 39/207/39 137/114/137
f 195/114/195 162/110/162 196/206/196
f 104/203/104 130/205/130 134/106/134
f 114/106/114 45/102/45 55/203/55
vt 0.8328909873962402 0.7106580138206482
vt 0.8328909873962402 0.7293599843978882
f 45/211/45 132/212/132 102/130/102
f 210/130/210 178/126/178 209/211/209
vt 0.8328909873962402 0.7480610013008118
f 203/212/203 189/213/189 212/134/212
f 180/134/180 147/130/147 161/212/161
vt 0.8328909873962402 0.7854639887809753
vt 0.8328909873962402 0.7667629718780518
f 79/214/79 93/138/93 107/215/107
vt 0.8328909873962402 0.8041660189628601
vt 0.8328909873962402 0.8228679895401001
f 85/216/85 84/217/84 40/146/40
f 179/146/179 178/142/178 200/216/200
f 210/214/210 163/216/163 178/142/178
f 159/142/159 215/138/215 207/214/207
f 219/215/219 32/134/32 31/213/31
vt 0.8328909873962402 0.8602709770202637
vt 0.8328909873962402 0.8415690064430237
f 219/218/219 150/150/150 163/219/163
vt 0.8328909873962402 0.8789719939231873
f 93/220/93 39/161/39 107/218/107
f 105/150/105 117/218/117 135/161/135
# 332 faces, 220 coords texture

# End of File
