# Blender 4.3.2
# www.blender.org
mtllib head_link1.mtl
o head_link1
v 0.003101 -0.031152 -0.037594
v -0.001419 -0.028837 -0.096011
v 0.006780 -0.029162 -0.089457
v -0.005294 -0.030674 -0.037864
v -0.008100 -0.030074 -0.037129
v -0.008100 -0.030074 -0.037129
v 0.006180 0.026722 0.028109
v -0.018018 0.026768 0.022745
v 0.014479 0.035657 -0.038020
v -0.004655 0.028367 -0.096643
v -0.014584 0.035675 -0.038087
v -0.018018 0.026768 0.022745
v 0.006180 0.026722 0.028109
v -0.001786 0.034295 0.027260
v -0.027405 0.034093 0.007192
v -0.018018 0.026768 0.022745
v -0.001786 0.034295 0.027260
v 0.025745 0.031935 0.012673
v 0.028188 0.033999 -0.001115
v -0.001786 0.034295 0.027260
v -0.027405 0.034093 0.007192
v -0.017306 -0.024399 -0.089894
v -0.026980 -0.015524 -0.036385
v -0.027716 -0.010419 -0.090979
v -0.017306 -0.024399 -0.089894
v 0.027555 -0.011119 -0.090483
v 0.023386 -0.021020 -0.037625
v 0.017422 -0.024367 -0.090915
v -0.001419 -0.028837 -0.096011
v 0.027555 -0.011119 -0.090483
v 0.017422 -0.024367 -0.090915
v 0.012624 -0.028783 -0.037771
v -0.030850 -0.001458 -0.036428
v -0.024265 0.017503 -0.089858
v -0.004655 0.028367 -0.096643
v -0.028664 0.005133 -0.091803
v -0.028664 0.005133 -0.091803
v 0.025347 0.014978 -0.091614
v -0.004655 0.028367 -0.096643
v 0.016499 0.024748 -0.090437
v 0.016499 0.024748 -0.090437
v 0.028188 0.033999 -0.001115
v 0.025347 0.014978 -0.091614
v 0.025745 0.031935 0.012673
v -0.001786 0.034295 0.027260
v 0.018575 0.026697 0.021796
v 0.006180 0.026722 0.028109
v 0.012624 -0.028783 -0.037771
v 0.023386 -0.021020 -0.037625
v 0.018575 0.026697 0.021796
v 0.029718 -0.007935 -0.036055
v 0.030578 0.005804 -0.038048
v 0.028188 0.033999 -0.001115
v 0.029718 -0.007935 -0.036055
v 0.029162 -0.000350 -0.091961
v 0.025347 0.014978 -0.091614
v 0.029162 -0.000350 -0.091961
v -0.017256 -0.026173 -0.037095
v -0.026980 -0.015524 -0.036385
v -0.017256 -0.026173 -0.037095
v -0.017256 -0.026173 -0.037095
v -0.028012 0.033898 -0.003274
v -0.027405 0.034093 0.007192
v -0.028012 0.033898 -0.003274
v -0.024265 0.017503 -0.089858
v -0.018018 0.026768 0.022745
v -0.027405 0.034093 0.007192
v -0.026967 0.027001 0.009903
v -0.018018 0.026768 0.022745
v -0.026967 0.027001 0.009903
v -0.026967 0.027001 0.009903
v -0.006897 -0.026844 -0.097061
v -0.017306 -0.024399 -0.089894
v -0.027716 -0.010419 -0.090979
v -0.006897 -0.026844 -0.097061
v -0.028664 0.005133 -0.091803
v -0.006897 -0.026844 -0.097061
v -0.027716 -0.010419 -0.090979
v -0.006897 -0.026844 -0.097061
v -0.017301 0.024206 -0.090233
v -0.014584 0.035675 -0.038087
v -0.004655 0.028367 -0.096643
v -0.017301 0.024206 -0.090233
v -0.028012 0.033898 -0.003274
v -0.024265 0.017503 -0.089858
v 0.025745 0.031935 0.012673
v 0.026437 0.026834 0.011140
v 0.025745 0.031935 0.012673
v 0.018575 0.026697 0.021796
v 0.026437 0.026834 0.011140
v 0.026437 0.026834 0.011140
v 0.029718 -0.007935 -0.036055
v -0.005294 -0.030674 -0.037864
v 0.003101 -0.031152 -0.037594
v -0.001419 -0.028837 -0.096011
v 0.017422 -0.024367 -0.090915
v 0.006780 -0.029162 -0.089457
vn 0.0594 -0.9977 -0.0317
vn -0.1790 -0.9819 -0.0625
vn 0.2161 -0.9758 -0.0333
vn -0.1385 -0.9895 -0.0405
vn -0.3007 -0.9527 -0.0430
vn -0.1420 -0.7768 0.6136
vn 0.0817 -0.7451 0.6619
vn -0.3635 -0.6959 0.6193
vn 0.1600 0.9834 -0.0858
vn 0.1110 0.9811 -0.1582
vn -0.0458 0.9987 -0.0214
vn -0.2151 -0.1176 0.9695
vn -0.4687 0.6558 0.5918
vn 0.1764 0.9684 0.1762
vn 0.1081 0.9887 0.1039
vn 0.0470 0.9968 0.0640
vn -0.0922 0.9957 0.0087
vn -0.3322 -0.9403 -0.0737
vn -0.8859 -0.4622 0.0406
vn -0.9473 -0.3183 -0.0357
vn -0.7702 -0.6369 -0.0336
vn 0.9134 -0.4058 -0.0312
vn 0.7760 -0.6302 -0.0258
vn 0.6079 -0.7932 -0.0356
vn 0.2533 -0.1391 -0.9573
vn 0.2923 -0.1854 -0.9382
vn 0.2995 -0.1987 -0.9332
vn 0.4158 -0.9091 -0.0249
vn -0.9954 -0.0809 0.0518
vn -0.4894 0.3991 -0.7754
vn -0.4894 0.3992 -0.7753
vn -0.4538 0.2937 -0.8413
vn -0.9894 0.1319 -0.0609
vn 0.2623 0.2362 -0.9356
vn 0.1144 0.1249 -0.9856
vn 0.3202 0.3937 -0.8617
vn 0.5009 0.8477 -0.1749
vn 0.6255 0.7635 -0.1609
vn 0.7213 0.6730 -0.1641
vn 0.4101 0.6137 0.6747
vn 0.4030 0.5587 0.7249
vn 0.4030 0.5587 0.7248
vn 0.3937 0.5006 0.7710
vn 0.3320 -0.7109 0.6199
vn 0.6667 -0.5607 0.4911
vn 0.4975 -0.6505 0.5739
vn 0.9006 -0.4346 -0.0104
vn 0.9999 0.0087 0.0134
vn 0.9959 0.0719 0.0551
vn 0.9960 -0.0801 0.0404
vn 0.1990 -0.0363 -0.9793
vn 0.9667 0.2425 -0.0813
vn 0.9982 0.0416 -0.0436
vn -0.4655 -0.6658 0.5831
vn -0.6599 -0.5602 0.5007
vn -0.3919 -0.9195 -0.0305
vn -0.7390 -0.6733 -0.0219
vn -0.1551 0.9879 -0.0094
vn -0.9970 0.0012 0.0778
vn -0.9865 0.1616 -0.0255
vn -0.9315 0.3479 -0.1062
vn -0.8076 0.1664 0.5658
vn -0.7036 -0.5232 0.4808
vn -0.9754 -0.1419 0.1689
vn -0.3153 -0.9390 -0.1375
vn -0.5716 -0.4774 -0.6673
vn -0.2721 -0.0271 -0.9619
vn 0.1143 0.1249 -0.9856
vn -0.3302 -0.0700 -0.9413
vn 0.1555 -0.0215 -0.9876
vn -0.5168 0.4980 -0.6963
vn -0.4551 0.8743 -0.1686
vn -0.3881 0.9042 -0.1786
vn -0.5381 0.8259 -0.1685
vn -0.6077 0.7776 -0.1615
vn -0.6887 0.7064 -0.1636
vn 0.9797 0.0773 0.1851
vn 0.9890 0.0111 0.1478
vn 0.8032 -0.0689 0.5917
vn 0.7497 -0.4952 0.4390
vn 0.8138 -0.4394 0.3803
vn -0.0652 -0.8804 0.4697
vn 0.0291 -0.8001 0.5991
vn 0.3182 -0.8399 -0.4397
s 1
usemtl diffuse_Black
f 1//1 2//2 3//3
f 4//4 5//5 2//2
f 6//6 7//7 8//8
f 9//9 10//10 11//11
f 12//12 13//12 14//12
f 15//13 16//13 17//13
f 18//14 19//15 20//16
f 19//15 9//9 20//16
f 11//11 21//17 20//16
f 9//9 11//11 20//16
f 2//2 5//5 22//18
f 23//19 24//20 25//21
f 26//22 27//23 28//24
f 29//25 30//26 31//27
f 27//23 32//28 28//24
f 24//20 23//19 33//29
f 34//30 35//31 36//32
f 24//20 33//29 37//33
f 38//34 39//35 40//36
f 10//10 9//9 41//37
f 42//38 43//39 41//37
f 9//9 42//38 41//37
f 44//40 45//41 46//42
f 45//41 47//43 46//42
f 48//44 49//45 50//46
f 7//7 48//44 50//46
f 27//23 26//22 51//47
f 52//48 53//49 54//50
f 30//26 29//25 55//51
f 39//35 38//34 55//51
f 56//52 53//49 57//53
f 53//49 52//48 57//53
f 54//50 26//22 57//53
f 52//48 54//50 57//53
f 6//6 8//8 58//54
f 8//8 59//55 58//54
f 22//18 5//5 60//56
f 23//19 25//21 61//57
f 21//17 11//11 62//58
f 33//29 63//59 64//60
f 65//61 37//33 64//60
f 37//33 33//29 64//60
f 66//62 67//62 68//62
f 59//55 69//63 70//63
f 33//29 23//19 71//64
f 63//59 33//29 71//64
f 2//2 22//18 72//65
f 73//66 74//66 75//66
f 76//67 39//68 77//67
f 78//69 76//67 77//67
f 39//35 55//51 79//70
f 55//51 29//25 79//70
f 35//31 34//30 80//71
f 81//72 82//73 83//74
f 84//75 81//72 83//74
f 85//76 84//75 83//74
f 53//49 86//77 87//78
f 88//79 89//79 90//79
f 50//46 49//45 91//80
f 49//45 92//81 91//80
f 54//50 53//49 87//78
f 6//6 93//82 94//83
f 7//7 6//6 94//83
f 4//4 2//2 1//1
f 48//44 7//7 94//83
f 32//28 1//1 3//3
f 95//84 96//84 97//84
f 28//24 32//28 3//3
