####
#
# OBJ File Generated by Meshlab
#
####
# Object right_arm_link3_0.obj
#
# Vertices: 224
# Faces: 332
#
####
mtllib ./right_arm_link3_0.obj.mtl

vn 1.6160029051282847 3.2397110722361488 2.5825273689188046
v -0.0283520000000000 0.0380420000000000 -0.0285780000000000
vn -2.0526104938844449 3.6171857659480890 -2.0662033434817384
v -0.0265539166666667 0.0380420000000000 -0.0267020000000000
vn 0.5187260754323815 2.5223589228001431 0.5484688115592434
v 0.0295708000000000 0.0379686000000000 0.0294635000000000
vn -0.1230353687516829 2.5955260480841691 -0.1251549010330621
v 0.0256088734177215 0.0380048481012658 0.0257330759493671
vn -1.6160176955599805 3.2397102582912258 -2.5824723197384380
v 0.0283520000000000 0.0380420000000000 0.0285780000000000
vn 2.0266513705394278 3.5783432989282082 2.1116146749929658
v 0.0265730769230769 0.0380420000000000 0.0266923076923077
vn -0.5206295478242957 2.5237373809295773 -0.5513999384534675
v -0.0295708000000000 0.0379686000000000 -0.0294635000000000
vn 0.1248182656339881 2.6027346882418101 0.1269016166226475
v -0.0256088734177215 0.0380048481012658 -0.0257330759493671
vn -4.5417369298436157 -0.1683183275170278 -2.9495046299305687
v -0.0263760000000000 0.0373920000000000 -0.0267920000000000
vn 2.2770456316707977 2.0935001185623494 1.4877636385487258
v -0.0287790000000000 0.0367420000000000 -0.0283620000000000
vn 1.1063681118745763 3.0578728718089252 2.9028961192060536
v -0.0281380000000000 0.0367420000000000 -0.0286860000000000
vn -3.1350760203853345 3.0411399523146039 -0.1342327984621336
v -0.0263360000000000 0.0367420000000000 -0.0275090000000000
vn -0.8779683538791478 2.9611116999426379 -2.9332481988875339
v -0.0271905454545455 0.0367420000000000 -0.0263796363636364
vn -1.2395676535175286 2.2030103683624462 -0.2606151659865779
v -0.0303190000000000 0.0379420000000000 -0.0277850000000000
vn 0.0181114375576101 2.8720620929779295 0.1667175610185300
v -0.0272989549549549 0.0380094954954955 -0.0248987207207207
vn 0.0597925551401747 3.4383196425754741 0.0941492940737397
v -0.0263747356321839 0.0380213103448275 -0.0253174252873563
vn 0.0832510555027829 2.8900674256940126 0.0891322615329867
v 0.0289762585034014 0.0380112789115646 0.0298295238095238
vn 0.1049866722038185 2.9192985704419456 0.1037565952422256
v 0.0298207971530249 0.0380098149466193 0.0290375160142349
vn -0.1592387591893318 2.8659972096267117 -0.0210332257975277
v 0.0249028468468469 0.0380094954954955 0.0272572522522522
vn -0.0894097498539954 3.2163935075393337 -0.0645716233831568
v 0.0253020584795322 0.0380150526315789 0.0262463216374269
vn -0.0599107462809373 3.4495607792717311 -0.0937623426638846
v 0.0263747356321839 0.0380213103448275 0.0253215862068966
vn -0.0183889291692121 2.8720735268064006 -0.1664445382509983
v 0.0272989549549549 0.0380094954954955 0.0248987207207207
vn 1.2394987006736515 2.2029860033058153 0.2606114829826030
v 0.0303190000000000 0.0379420000000000 0.0277850000000000
vn -1.1063681118745761 3.0578728718089261 -2.9028961192060541
v 0.0281380000000000 0.0367420000000000 0.0286860000000000
vn -2.2770415944781779 2.0935471103454879 -1.4878373425817795
v 0.0287790000000000 0.0367420000000000 0.0283620000000000
vn 4.5399052709168801 -0.2277766341365455 2.8614636736899355
v 0.0263760000000000 0.0373920000000000 0.0267920000000000
vn 3.1368283487199671 3.1390662833295457 0.1729293307057073
v 0.0263360000000000 0.0367420000000000 0.0275090000000000
vn 0.8779683538791576 2.9611116999426281 2.9332481988875312
v 0.0271905454545454 0.0367420000000000 0.0263796363636364
vn -0.1047733719810193 2.9155809732700542 -0.1036524027319684
v -0.0298221459074733 0.0380098149466193 -0.0290375409252669
vn -0.0833393703741538 2.8936726104985100 -0.0892014191531738
v -0.0289762585034014 0.0380112789115646 -0.0298295238095238
vn 0.1593783876452551 2.8659917473334398 0.0209043724995437
v -0.0249028468468469 0.0380094954954955 -0.0272572522522522
vn 0.0895978314361237 3.2090374916371114 0.0644157339473393
v -0.0252998479532164 0.0380150526315789 -0.0262463216374269
vn 0.7740681392952180 3.6365095723748144 2.7735406519906469
v 0.0271462727272727 0.0380420000000000 -0.0288457272727273
vn 2.5762268865962517 3.2245965666683478 1.6681185780296617
v 0.0265470769230769 0.0380420000000000 -0.0282723846153846
vn -2.6877515919659718 3.7536979026009130 -0.9689440649447458
v 0.0288909090909091 0.0380420000000000 -0.0273161818181818
vn -1.5520078343333679 3.3112680081877786 -2.4871020017001522
v 0.0281943888888889 0.0380420000000000 -0.0264597777777778
vn 1.1803427243178173 3.4042851984128260 2.6847303830976825
v -0.0281533333333333 0.0380420000000000 0.0264390000000000
vn -2.5573237782954874 3.2279751205808020 -1.6905321400235893
v -0.0265588333333333 0.0380420000000000 0.0282903333333333
vn -0.7278169960136108 3.5970212256267189 -2.8031703475306986
v -0.0271680000000000 0.0380420000000000 0.0288445000000000
vn 2.7697560863580750 3.5578178745528688 0.9103860272804217
v -0.0288790000000000 0.0380420000000000 0.0272980000000000
vn -2.8448485153752610 3.2387437342024494 1.1245411556751024
v 0.0287940000000000 0.0380420000000000 -0.0279250000000000
vn -0.9841620367609131 3.5780550234208977 2.7422033670831842
v 0.0281413846153846 0.0380420000000000 -0.0287910000000000
vn 2.9055781164154055 3.6461088180623262 -0.3682638257112139
v 0.0262421818181818 0.0380420000000000 -0.0274619090909091
vn 0.3597692723328304 3.2647945419160376 -3.0848105875294358
v 0.0272700000000000 0.0380420000000000 -0.0263490000000000
vn -0.2473630621690289 3.3584237381786708 3.0820248229643914
v -0.0272700000000000 0.0380420000000000 0.0263490000000000
vn -2.9039232486216844 3.6496085848566153 0.3614607691945591
v -0.0262421818181818 0.0380420000000000 0.0274619090909091
vn 2.8493015498275476 3.2457868287866809 -1.1035654256377001
v -0.0287940000000000 0.0380420000000000 0.0279250000000000
vn 0.9844830592219018 3.5785328291512699 -2.7424596116926088
v -0.0281413846153846 0.0380420000000000 0.0287904615384615
vn -0.0829982906278058 2.6474341930415974 -0.1071604288873524
v 0.0257885094339623 0.0380078867924528 -0.0296071698113208
vn 0.1690419233265145 2.6336903247915568 0.1358256786549095
v 0.0296246212121212 0.0380025454545454 -0.0258075757575758
vn -0.1690597844135718 2.6337356856625491 -0.1358351069222452
v -0.0296246212121212 0.0380025454545454 0.0258075757575758
vn 0.0829982906276212 2.6474341930416379 0.1071604288870884
v -0.0257885094339623 0.0380078867924528 0.0296071698113208
vn 2.5605828858570487 2.9817350082125720 1.6523040905304671
v 0.0265370000000000 0.0367420000000000 -0.0282570000000000
vn 0.4208806477488803 2.9364831250237109 3.0234498472994811
v 0.0274070000000000 0.0367420000000000 -0.0288313333333333
vn -1.2289636317708841 2.0958175639729180 -2.4285650737066633
v 0.0282250000000000 0.0367420000000000 -0.0262970000000000
vn -2.8228157902213149 2.9473907599954767 -1.1748487355270114
v 0.0287356000000000 0.0367420000000000 -0.0270773000000000
vn 0.0502920627975017 2.4939506531240467 -0.7355574806289437
v 0.0275550000000000 0.0379673333333333 -0.0303223333333333
vn 0.5812184334872180 1.9313175734981571 -0.0385927229256634
v 0.0303215000000000 0.0379610000000000 -0.0275422500000000
vn 0.0448547593357051 2.9359146101601041 0.2135791415924604
v 0.0281482792792793 0.0380094954954955 -0.0249452702702703
vn -0.2322292543784748 2.9536826114572574 -0.0623926569098396
v 0.0249635384615385 0.0380111623931624 -0.0282083333333333
vn -0.0371181115591947 2.9425805247528967 -0.0553069189919930
v 0.0264100149253731 0.0380150746268657 -0.0299109626865671
vn -0.1712558303209164 3.3162943175689104 -0.1202054490318281
v 0.0253885702479339 0.0380177355371901 -0.0290540909090909
vn 0.0574006182817899 2.9198317356658854 0.0399351260854689
v 0.0299440965517242 0.0380167862068965 -0.0264813103448276
vn 0.0963185491413202 3.2382679422873704 0.1250782661495335
v 0.0290357457627119 0.0380181694915254 -0.0253776440677966
vn -0.3731592465461526 2.9613729701058835 -3.0391561239037141
v -0.0274504545454545 0.0367420000000000 0.0288289090909091
vn -2.5464617139748036 2.9780438875617858 -1.6639572543720815
v -0.0265370000000000 0.0367420000000000 0.0282570000000000
vn 1.2289636317708807 2.0958175639729220 2.4285650737066691
v -0.0282250000000000 0.0367420000000000 0.0262970000000000
vn 2.8228157902213113 2.9473907599954599 1.1748487355270172
v -0.0287356000000000 0.0367420000000000 0.0270773000000000
vn -0.0448507495994530 2.9359145202338857 -0.2135823100344524
v -0.0281482792792793 0.0380094954954955 0.0249452702702703
vn -0.0957100988736509 3.2381682278894059 -0.1242957213003041
v -0.0290357457627119 0.0380181694915254 0.0253776016949153
vn -0.0570903722476464 2.9198361688330827 -0.0399409529437806
v -0.0299440965517242 0.0380167862068965 0.0264813103448276
vn -0.5812184334867810 1.9313175734981958 0.0385927229256981
v -0.0303215000000000 0.0379610000000000 0.0275422500000000
vn 0.2322291143517638 2.9536776942317835 0.0623925598050168
v -0.0249635384615385 0.0380111623931624 0.0282083333333334
vn 0.1715946050668484 3.3162858650089539 0.1204497546897609
v -0.0253885702479339 0.0380177355371901 0.0290540909090909
vn 0.0368411763708650 2.9425855783027872 0.0551909671965528
v -0.0264100149253731 0.0380150746268657 0.0299109626865672
vn -0.0502920627974642 2.4939506531241191 0.7355574806285696
v -0.0275550000000000 0.0379673333333333 0.0303223333333333
vn -5.2082185298241868 0.2817891446388561 -0.3123646634468046
v 0.0290100000000000 0.0373920000000000 -0.0274980000000000
vn -2.4508868592243744 -0.4727544619674357 -4.6744799147918554
v 0.0282250000000000 0.0373920000000000 -0.0262970000000000
vn 2.4308911607238626 0.2595305543170667 4.6523722967247148
v 0.0269290000000000 0.0373920000000000 -0.0288580000000000
vn -0.8184212210162539 2.3898691129238374 -0.3927201945644542
v 0.0251146666666667 0.0379673333333333 -0.0287900000000000
vn 0.2582643043450470 2.5695540576244960 0.5816476787135677
v 0.0287110000000000 0.0379852000000000 -0.0250878000000000
vn -0.0076873832190144 3.4215789348960532 -0.1921497598056917
v 0.0272250000000000 0.0380190625000000 -0.0301244843750000
vn -0.1847363373050173 6.2756922491855365 -0.0687616591031618
v 0.0254740000000000 0.0380420000000000 -0.0281380000000000
vn 0.2800047504415722 3.6325526230573639 -0.0093899290537766
v 0.0301359603174603 0.0380210158730159 -0.0273331269841270
vn 0.0721335158995213 6.2749073075071777 0.1921031245465321
v 0.0281450000000000 0.0380420000000000 -0.0254659230769231
vn -2.4143185558523368 0.2770673557582558 -4.6373290851970577
v -0.0269290000000000 0.0373920000000000 0.0288580000000000
vn 1.9281839785858919 -0.6144043459722350 4.6527202377058252
v -0.0282250000000000 0.0373920000000000 0.0262970000000000
vn 5.2511917359708260 0.3174651017471118 0.2449755323149354
v -0.0290100000000000 0.0373920000000000 0.0274980000000000
vn -0.0734025300275712 6.2748749691593630 -0.1903379999411123
v -0.0281450000000000 0.0380420000000000 0.0254659230769231
vn -0.2582983192805681 2.5695932275147300 -0.5817752959987728
v -0.0287110000000000 0.0379852000000000 0.0250878000000000
vn -0.2796288451792656 3.6325579724094319 0.0095610463700868
v -0.0301359603174603 0.0380210158730158 0.0273331269841270
vn 0.8184212210159135 2.3898691129240093 0.3927201945643376
v -0.0251146666666667 0.0379673333333333 0.0287900000000000
vn 0.0078020492166120 3.4215820213788266 0.1919179978642347
v -0.0272250000000000 0.0380190625000000 0.0301244843750000
vn 0.1852855108979022 6.2757020165529021 0.0683154027682989
v -0.0254740000000000 0.0380420000000000 0.0281380000000000
vn 5.2193035177744029 0.2876144073216117 0.3541336873940640
v 0.0261440000000000 0.0373920000000000 -0.0276560000000000
vn -2.9728460648812058 -0.1863031114580891 4.5185953660263865
v 0.0283620000000000 0.0373920000000000 -0.0287790000000000
vn 1.4889374110697768 2.0951616626632767 -2.2778375672016287
v 0.0267920000000000 0.0367420000000000 -0.0263760000000000
vn -0.2062893120171055 2.5300875007671011 0.0610932853286677
v 0.0250237916666667 0.0380043333333333 -0.0266629166666667
vn -0.0480228840017096 2.7494461363090750 0.1607724738270717
v 0.0265996315789474 0.0380067719298245 -0.0250527017543860
vn 0.0443665898823217 3.3680443154371504 -0.2403224285080192
v 0.0281333812949640 0.0380182014388489 -0.0301103165467626
vn 0.1416934132900242 3.1999005465809636 -0.0301287838677693
v 0.0300892672413793 0.0380187241379310 -0.0281510258620690
vn -0.1653512601944137 6.2769472938305864 0.0510137339109203
v 0.0254723200000000 0.0380420000000000 -0.0273804400000000
vn -0.0410419825045125 6.2769454999601262 0.1848949106885771
v 0.0273810000000000 0.0380420000000000 -0.0254740000000000
vn -5.2179430521729575 0.2832174595525020 -0.3551784540395719
v -0.0261440000000000 0.0373920000000000 0.0276560000000000
vn -1.4889374110697768 2.0951616626632767 2.2778375672016287
v -0.0267920000000000 0.0367420000000000 0.0263760000000000
vn 2.9756446011194244 -0.1872597682612953 -4.5205116791346764
v -0.0283620000000000 0.0373920000000000 0.0287780000000000
vn 0.0410419825045923 6.2769454999601200 -0.1848949106886681
v -0.0273810000000000 0.0380420000000000 0.0254740000000000
vn 0.0480228840015924 2.7494461363090354 -0.1607724738265829
v -0.0265996315789474 0.0380067719298245 0.0250527017543860
vn -0.1415120506290266 3.1999043251845691 0.0299332340902358
v -0.0300892672413793 0.0380187241379310 0.0281510258620690
vn 0.2062981316217316 2.5301052949119476 -0.0611012214267280
v -0.0250237916666667 0.0380043333333333 0.0266629166666667
vn -0.0443636563181145 3.3680267747050197 0.2403010818811366
v -0.0281333812949640 0.0380182014388489 0.0301103165467626
vn 0.1653500104311278 6.2769473742240001 -0.0510126226879098
v -0.0254723200000000 0.0380420000000000 0.0273804400000000
vn 0.5513859669216702 2.5237488983707239 -0.5206217731585339
v 0.0294635000000000 0.0379686000000000 -0.0295708000000000
vn -2.5825273689188704 3.2397110722361488 1.6160029051282794
v 0.0285780000000000 0.0380420000000000 -0.0283520000000000
vn 2.1117319326951498 3.5783458139526894 -2.0267021399148919
v 0.0266923076923077 0.0380420000000000 -0.0265730769230769
vn -0.1269151520669253 2.6028026625984970 0.1248385013836454
v 0.0257330759493671 0.0380048481012658 -0.0256088734177215
vn -2.1117319326950299 3.5783458139526578 2.0267021399148288
v -0.0266923076923077 0.0380420000000000 0.0265730769230769
vn 2.5816419337380259 3.2411390911617097 -1.6171790354019109
v -0.0285780000000000 0.0380420000000000 0.0283520000000000
vn -0.5513478826951289 2.5237309018265575 0.5205970350928139
v -0.0294635000000000 0.0379686000000000 0.0295708000000000
vn 0.1269151520664918 2.6028026625985290 -0.1248385013832210
v -0.0257330759493671 0.0380048481012658 0.0256088734177215
vn 2.9457358681691415 -0.1860533636010115 -4.5384662894167782
v 0.0267920000000000 0.0373920000000000 -0.0263760000000000
vn -1.4878373425817795 2.0935471103454879 2.2770415944781779
v 0.0283620000000000 0.0367420000000000 -0.0287790000000000
vn -2.9005844667224148 3.0617154718821160 1.1208261276844285
v 0.0286860000000000 0.0367420000000000 -0.0281380000000000
vn 0.1729293307057073 3.1390662833295457 -3.1368283487199675
v 0.0275090000000000 0.0367420000000000 -0.0263360000000000
vn 2.9332481988875325 2.9611116999426219 -0.8779683538791461
v 0.0263796363636364 0.0367420000000000 -0.0271905454545455
vn 0.2606114829825905 2.2029860033056750 -1.2394987006738598
v 0.0277850000000000 0.0379420000000000 -0.0303190000000000
vn -0.1667236435543887 2.8720756466073167 0.0181042918298235
v 0.0248987207207207 0.0380094954954955 -0.0272990180180180
vn -0.0209043724995018 2.8659917473333905 0.1593783876452204
v 0.0272572522522522 0.0380094954954955 -0.0249028468468469
vn 0.1036473484677751 2.9155519932962881 -0.1047704821344600
v 0.0290375160142349 0.0380098149466192 -0.0298221637010676
vn 0.0892011478815620 2.8936726044807788 -0.0833396501579258
v 0.0298295238095238 0.0380112789115646 -0.0289762585034014
vn -0.0939194332933547 3.4381369428944031 0.0596720913813801
v 0.0253173563218391 0.0380213103448276 -0.0263747356321839
vn -0.0643900506415172 3.2090413112640110 0.0893989948823045
v 0.0262463216374269 0.0380150526315790 -0.0252998479532164
vn -2.9332481988875312 2.9611116999426281 0.8779683538791574
v -0.0263796363636364 0.0367420000000000 0.0271905454545454
vn -0.1380355896614516 3.0500270693748313 3.1355367412355077
v -0.0275090000000000 0.0367420000000000 0.0263360000000000
vn -2.9472963235755953 -0.1859380286406203 4.5383793050022909
v -0.0267920000000000 0.0373920000000000 0.0263760000000000
vn 1.4865424118799175 2.0899977982412414 -2.2765082087242181
v -0.0283620000000000 0.0367420000000000 0.0287790000000000
vn 2.9003476079404584 3.0609599871343924 -1.1212945308198741
v -0.0286860000000000 0.0367420000000000 0.0281380000000000
vn 0.0209043724995439 2.8659917473334402 -0.1593783876452549
v -0.0272572522522522 0.0380094954954955 0.0249028468468469
vn -0.0891935750881842 2.8936726942820594 0.0833409379944738
v -0.0298295238095238 0.0380112789115646 0.0289762585034014
vn -0.1036384788508959 2.9156011608090751 0.1047582024170129
v -0.0290375160142349 0.0380098149466193 0.0298221459074733
vn 0.0643900506415544 3.2090413112640550 -0.0893989948822642
v -0.0262463216374269 0.0380150526315789 0.0252998479532164
vn 0.0939190408125059 3.4381369554801289 -0.0596729990542572
v -0.0253173563218391 0.0380213103448275 0.0263747356321839
vn 0.1667220937187404 2.8720619027037348 -0.0181068209277040
v -0.0248987207207207 0.0380094954954955 0.0272989549549549
vn -0.2606114829826030 2.2029860033058153 1.2394987006736515
v -0.0277850000000000 0.0379420000000000 0.0303190000000000
vn 0.0503190723614749 6.2769637740046926 0.1664116136122708
v -0.0273804400000000 0.0380420000000000 -0.0254723200000000
vn 0.1849232227851176 6.2769459995591506 0.0410011482225567
v -0.0254740000000000 0.0380420000000000 -0.0273810000000000
vn 0.3563911106064835 0.2588546522268054 -5.2108551754378478
v -0.0276560000000000 0.0373920000000000 -0.0261440000000000
vn 4.5186428408222685 -0.1864642367150806 2.9719803072000852
v -0.0287790000000000 0.0373920000000000 -0.0283620000000000
vn -2.2778375672016238 2.0951616626632736 -1.4889374110697793
v -0.0263760000000000 0.0367420000000000 -0.0267920000000000
vn -0.2403036844122533 3.3679673289331777 -0.0443636319587241
v -0.0301103165467626 0.0380182014388489 -0.0281334244604317
vn 0.0610867330871360 2.5299942160744937 0.2062290369836675
v -0.0266629166666667 0.0380043333333333 -0.0250237916666667
vn 0.0303672571139909 3.2081856687479560 0.1415239290767189
v 0.0281510258620690 0.0380187241379310 0.0300860000000000
vn -0.1584345050798777 2.7454061002113481 -0.0474733888159013
v 0.0250527017543860 0.0380067719298245 0.0265996315789474
vn -0.0602279802422842 2.5233342297433938 -0.2021368015232889
v 0.0266629166666667 0.0380043333333333 0.0250237916666667
vn 0.2402977755964981 3.3666729937653028 0.0443803952288836
v 0.0301103165467626 0.0380182014388489 0.0281333812949640
vn -0.1848062885405339 6.2769480570437892 -0.0418876108051201
v 0.0254740000000000 0.0380420000000000 0.0273810000000000
vn -0.0512608526452343 6.2769345183048850 -0.1655431164128883
v 0.0273804400000000 0.0380420000000000 0.0254723200000000
vn -4.5185953660263865 -0.1863031114580880 -2.9728460648812103
v 0.0287790000000000 0.0373920000000000 0.0283620000000000
vn 2.2778375672016287 2.0951616626632767 1.4889374110697768
v 0.0263760000000000 0.0367420000000000 0.0267920000000000
vn -0.3551784540395718 0.2832174595524898 5.2179430521729540
v 0.0276560000000000 0.0373920000000000 0.0261440000000000
vn -0.0299332340902360 3.1999043251845589 -0.1415120506290266
v -0.0281510258620690 0.0380187241379310 -0.0300892672413793
vn 0.1607724738265854 2.7494461363090443 0.0480228840015930
v -0.0250527017543860 0.0380067719298245 -0.0265996315789474
vn -0.0683154027682983 6.2757020165529021 0.1852855108979022
v -0.0281380000000000 0.0380420000000000 -0.0254740000000000
vn 0.1911112213854162 6.2748890063351492 -0.0728577489477241
v -0.0254659230769231 0.0380420000000000 -0.0281450000000000
vn -0.2477060778870426 0.3463379784914328 5.2384850446278666
v -0.0274980000000000 0.0373920000000000 -0.0290100000000000
vn -4.2991255476548922 -0.8123580973624390 2.0228944716934629
v -0.0262970000000000 0.0373920000000000 -0.0282250000000000
vn 4.6373290851970568 0.2770673557582559 -2.4143185558523372
v -0.0288580000000000 0.0373920000000000 -0.0269290000000000
vn -0.1919252636944341 3.4215819042116640 0.0078085453468376
v -0.0301244843750000 0.0380190625000000 -0.0272250000000000
vn -0.3927201945643376 2.3898691129240093 0.8184212210159135
v -0.0287900000000000 0.0379673333333333 -0.0251146666666667
vn 0.0106396865526452 3.6354031696876454 0.2798013498609021
v 0.0273331269841270 0.0380210158730158 0.0301359603174603
vn -0.5816476787131742 2.5695540576246478 0.2582643043449021
v 0.0250878000000000 0.0379852000000000 0.0287110000000000
vn 0.3960853967857110 2.3903478277911936 -0.8312344767186991
v 0.0287900000000000 0.0379673333333333 0.0251146666666667
vn 0.1922049479423041 3.4248287653615210 -0.0076369462548899
v 0.0301244843750000 0.0380190625000000 0.0272250000000000
vn -0.1987683987872197 6.2743349593014806 0.0720599008365651
v 0.0254513846153846 0.0380420000000000 0.0281450000000000
vn 0.0680487203738892 6.2757167115185846 -0.1851384088129380
v 0.0281380000000000 0.0380420000000000 0.0254740000000000
vn 0.2477060778870151 0.3463379784914442 -5.2384850446278852
v 0.0274980000000000 0.0373920000000000 0.0290100000000000
vn 4.3914280045433074 -0.6961345613321028 -2.4285071449281270
v 0.0262970000000000 0.0373920000000000 0.0282250000000000
vn -4.6555253380009507 0.2642454569107199 2.4295432459612480
v 0.0288580000000000 0.0373920000000000 0.0269290000000000
vn -0.0095610463700863 3.6325579724094048 -0.2796288451792653
v -0.0273331269841270 0.0380210158730158 -0.0301359603174603
vn 0.5816476787131742 2.5695540576246478 -0.2582643043449021
v -0.0250878000000000 0.0379852000000000 -0.0287110000000000
vn 3.0392103244919708 2.9622821471436964 -0.3741414752191647
v -0.0288289090909091 0.0367420000000000 -0.0274504545454545
vn 1.6639572543720798 2.9780438875617854 -2.5464617139748040
v -0.0282570000000000 0.0367420000000000 -0.0265370000000000
vn -2.4286431225325895 2.0958769450693424 1.2289125561422556
v -0.0262970000000000 0.0367420000000000 -0.0282250000000000
vn -1.2450113967855156 2.8761034809845536 2.7900209821054665
v -0.0270472500000000 0.0367420000000000 -0.0287160000000000
vn -0.7355592102167844 2.4939503338532503 -0.0502889717491311
v -0.0303223333333333 0.0379673333333333 -0.0275550000000000
vn -0.0551909671965528 2.9425855783027872 0.0368411763708650
v -0.0299109626865672 0.0380150746268657 -0.0264100149253731
vn -0.1204497546897608 3.3162858650089539 0.1715946050668485
v -0.0290540909090909 0.0380177355371901 -0.0253885702479339
vn -0.0623925598050169 2.9536776942317844 0.2322291143517637
v -0.0282083333333334 0.0380111623931624 -0.0249635384615385
vn 0.0406886697648307 1.9277036835605708 0.5776871054456304
v 0.0275422500000000 0.0379610000000000 0.0303215000000000
vn -0.0398330884792628 2.9137528447079903 0.0570305247622729
v 0.0264813103448276 0.0380167862068965 0.0299467103448276
vn -0.1245820962306758 3.2382712303504668 0.0965055377678604
v 0.0253776440677966 0.0380181694915254 0.0290357457627119
vn -0.2172927932772235 2.9356974702203367 0.0446419679445458
v 0.0249452702702703 0.0380094954954955 0.0281482792792793
vn 0.0620095237469357 2.9536741482320616 -0.2325244949161278
v 0.0282083333333334 0.0380111623931624 0.0249635384615385
vn 0.1201932312062282 3.3068515912646186 -0.1723913828196306
v 0.0290540909090909 0.0380177355371901 0.0253854462809918
vn 0.0553054237703083 2.9356650708831946 -0.0369535917139768
v 0.0299137910447761 0.0380150746268657 0.0264100149253731
vn 0.7355574806285697 2.4939506531241196 0.0502920627974642
v 0.0303223333333333 0.0379673333333333 0.0275550000000000
vn 1.2450113967855216 2.8761034809845469 -2.7900209821054620
v 0.0270472500000000 0.0367420000000000 0.0287160000000000
vn 2.4286431225325926 2.0958769450693340 -1.2289125561422480
v 0.0262970000000000 0.0367420000000000 0.0282250000000000
vn -1.6523005078839998 2.9828422290578742 2.5605846963295580
v 0.0282570000000000 0.0367420000000000 0.0265370000000000
vn -3.0234498472994824 2.9364831250237216 0.4208806477488770
v 0.0288313333333333 0.0367420000000000 0.0274070000000000
vn -0.0385927229256981 1.9313175734981960 -0.5812184334867813
v -0.0275422500000000 0.0379610000000000 -0.0303215000000000
vn 0.0399320757730174 2.9199268217769827 -0.0571765249567805
v -0.0264813103448276 0.0380167862068965 -0.0299440965517241
vn 0.1245691009795866 3.2383413654895370 -0.0959589926550670
v -0.0253776440677966 0.0380181694915254 -0.0290357457627119
vn 0.2135791415924942 2.9359146101600708 -0.0448547593357248
v -0.0249452702702703 0.0380094954954955 -0.0281482792792793
vn -0.1071604288870884 2.6474341930416379 0.0829982906276212
v -0.0296071698113208 0.0380078867924528 -0.0257885094339623
vn -0.1369912955696932 2.6367349683741246 0.1699737082638020
v 0.0258075757575758 0.0380025454545454 0.0296246212121212
vn 0.1087447445203185 2.6546954177759656 -0.0843515616525925
v 0.0296071698113208 0.0380078867924528 0.0257885094339623
vn 0.1357733108573442 2.6335441306184588 -0.1689780726632261
v -0.0258075757575758 0.0380025454545454 -0.0296246969696970
vn -0.9891714646651830 3.6289010141263685 2.7115636778417977
v -0.0272980000000000 0.0380420000000000 -0.0288790000000000
vn -2.5582171869552055 3.5966685582289033 1.3474985082374948
v -0.0264525789473684 0.0380420000000000 -0.0281708947368421
vn 1.6788660121068302 3.2311252431928859 -2.5625306665793630
v -0.0282903333333333 0.0380420000000000 -0.0265588333333333
vn 2.8032207683636283 3.5966326992345841 -0.7285478454725276
v -0.0288445000000000 0.0380420000000000 -0.0271680000000000
vn 2.5478236012163640 3.5267241236751969 -1.3439965419412387
v 0.0264525789473684 0.0380420000000000 0.0281708947368421
vn 0.9892792407315795 3.6289014321528623 -2.7115574242720544
v 0.0272980000000000 0.0380420000000000 0.0288790000000000
vn -2.7782760624439935 3.6325645286873676 0.7680518463556943
v 0.0288457272727273 0.0380420000000000 0.0271462727272727
vn -1.6801277243221588 3.2240023526419503 2.5673339016005610
v 0.0282903333333333 0.0380420000000000 0.0265588333333333
vn 1.1037028821602364 3.2461414094484624 2.8492319865633911
v -0.0279250000000000 0.0380420000000000 -0.0287940000000000
vn -3.0867055657535016 3.3604929413968856 -0.2077902591737903
v -0.0263490000000000 0.0380420000000000 -0.0272700000000000
vn -0.4065793809991163 3.6127802267211662 -2.9102824041012334
v -0.0274425000000000 0.0380420000000000 -0.0262520000000000
vn 2.7422299410577557 3.5786584913565052 0.9836854385877690
v -0.0287910000000000 0.0380420000000000 -0.0281413846153846
vn -1.1036597953809903 3.2461384243524511 -2.8490902523334802
v 0.0279250000000000 0.0380420000000000 0.0287940000000000
vn -2.7421839254878919 3.5780544103810925 -0.9841451075515516
v 0.0287910000000000 0.0380420000000000 0.0281413846153846
vn 3.0468415055489499 3.6836630907144015 0.0937992883230175
v 0.0263490000000000 0.0380420000000000 0.0272700000000000
vn 0.3614128396232915 3.6496080575820238 2.9039119801981261
v 0.0274619090909091 0.0380420000000000 0.0262421818181818
# 224 vertices, 0 vertices normals


usemtl material_0
vt 0.8290629982948303 0.0269300006330013
vt 0.8290629982948303 0.0134650003165007
vt 0.8309770226478577 0.0134650003165007
f 41/1/41 123/2/123 77/3/77
vt 0.8309770226478577 0.0269300006330013
f 77/3/77 123/4/123 56/1/56
vt 0.8253800272941589 0.0269300006330013
vt 0.8253800272941589 0.0134650003165007
vt 0.8272219896316528 0.0134650003165007
f 41/5/41 114/6/114 123/7/123
vt 0.8272219896316528 0.0269300006330013
f 96/7/96 114/8/114 42/5/42
f 77/8/77 78/7/78 36/2/36
f 77/2/77 56/1/56 78/8/78
vt 0.8217179775238037 0.0269300006330013
vt 0.8217179775238037 0.0134650003165007
vt 0.8235489726066589 0.0134650003165007
f 121/9/121 44/10/44 78/11/78
vt 0.8235489726066589 0.0269300006330013
f 78/11/78 44/12/44 36/9/36
f 121/12/121 124/11/124 97/6/97
f 78/6/78 55/5/55 124/12/124
vt 0.8180549740791321 0.0269300006330013
vt 0.8180549740791321 0.0134650003165007
vt 0.8198869824409485 0.0134650003165007
f 95/13/95 43/14/43 115/15/115
vt 0.8198869824409485 0.0269300006330013
f 95/15/95 115/16/115 121/13/121
f 95/16/95 121/15/121 125/10/125
f 53/10/53 34/9/34 95/16/95
vt 0.8290629982948303 0.0511519983410835
f 53/8/53 54/1/54 79/17/79
vt 0.8253800272941589 0.0511519983410835
f 79/18/79 33/5/33 34/8/34
f 96/17/96 42/18/42 79/8/79
f 96/12/96 79/5/79 54/18/54
vt 0.8217179775238037 0.0511519983410835
f 122/19/122 96/9/96 54/12/54
f 79/18/79 42/19/42 33/12/33
f 53/16/53 123/9/123 54/19/54
vt 0.8180549740791321 0.0511519983410835
f 121/20/121 78/13/78 124/16/124
f 53/19/53 125/20/125 123/16/123
vt 0.8253800272941589 0.0757810026407242
f 124/21/124 55/18/55 56/17/56
vt 0.8290629982948303 0.0757810026407242
f 124/17/124 56/22/56 125/21/125
vt 0.8217179775238037 0.0757810026407242
f 97/23/97 124/19/124 125/18/125
f 59/18/59 81/21/81 64/23/64
vt 0.8180549740791321 0.0757810026407242
f 84/24/84 58/20/58 101/19/101
f 41/19/41 77/23/77 35/24/35
vt 0.8253800272941589 0.1004099994897842
f 42/25/42 129/21/129 100/22/100
vt 0.8290629982948303 0.1004099994897842
f 42/22/42 100/26/100 82/25/82
vt 0.8217179775238037 0.1004099994897842
f 41/27/41 35/23/35 101/21/101
f 61/21/61 49/25/49 62/27/62
vt 0.8180549740791321 0.1004099994897842
f 61/28/61 34/24/34 33/23/33
f 61/23/61 62/27/62 34/28/34
vt 0.8253800272941589 0.1250399947166443
f 43/29/43 83/25/83 102/26/102
vt 0.8290629982948303 0.1250399947166443
f 83/26/83 34/30/34 62/29/62
vt 0.8217179775238037 0.1250399947166443
f 36/31/36 44/27/44 103/25/103
f 36/25/36 103/29/103 85/31/85
vt 0.8180549740791321 0.1250399947166443
f 36/32/36 85/28/85 64/27/64
f 59/27/59 64/31/64 85/32/85
vt 0.8253800272941589 0.1493819952011108
f 82/33/82 100/29/100 57/30/57
vt 0.8290629982948303 0.1493819952011108
f 59/30/59 103/34/103 128/33/128
vt 0.8217179775238037 0.1493819952011108
f 60/35/60 127/31/127 102/29/102
f 115/29/115 43/33/43 131/35/131
vt 0.8180549740791321 0.1493819952011108
f 43/36/43 102/32/102 131/31/131
f 157/31/157 224/35/224 175/36/175
vt 0.8253800272941589 0.1733379960060120
f 193/37/193 175/33/175 194/34/194
vt 0.8290629982948303 0.1733379960060120
f 48/34/48 139/38/139 140/37/140
vt 0.8217179775238037 0.1733379960060120
f 222/39/222 173/35/173 215/33/215
f 27/33/27 177/37/177 198/39/198
vt 0.8180549740791321 0.1733379960060120
f 147/40/147 13/36/13 182/35/182
f 21/35/21 6/39/6 224/40/224
vt 0.8253800272941589 0.1972939968109131
f 20/41/20 156/37/156 6/38/6
vt 0.8290629982948303 0.1972939968109131
f 59/38/59 85/42/85 103/41/103
vt 0.8217179775238037 0.1972939968109131
f 104/43/104 38/39/38 46/37/46
f 195/37/195 216/41/216 215/43/215
vt 0.8180549740791321 0.1972939968109131
f 19/44/19 20/40/20 153/39/153
f 19/39/19 156/43/156 20/44/20
vt 0.8253800272941589 0.2212509959936142
f 155/45/155 173/41/173 222/42/222
vt 0.8290629982948303 0.2212509959936142
f 152/42/152 214/46/214 170/45/170
vt 0.8217179775238037 0.2212509959936142
f 87/47/87 67/43/67 134/41/134
f 131/41/131 127/45/127 98/47/98
vt 0.8180549740791321 0.2212509959936142
f 17/48/17 222/44/222 5/43/5
f 95/43/95 34/47/34 43/48/43
vt 0.8253800272941589 0.2452069967985153
f 152/49/152 5/45/5 221/46/221
vt 0.8290629982948303 0.2452069967985153
f 43/46/43 34/50/34 83/49/83
vt 0.8217179775238037 0.2452069967985153
f 199/51/199 200/47/200 178/45/178
f 196/45/196 155/49/155 23/51/23
vt 0.8180549740791321 0.2452069967985153
f 176/52/176 197/48/197 214/47/214
f 193/47/193 194/51/194 172/52/172
vt 0.8253800272941589 0.2691639959812164
f 194/53/194 175/49/175 216/50/216
vt 0.8290629982948303 0.2691639959812164
f 60/50/60 83/54/83 62/53/62
vt 0.8217179775238037 0.2691639959812164
f 40/55/40 91/51/91 109/49/109
f 3/49/3 18/53/18 17/55/17
vt 0.8180549740791321 0.2691639959812164
f 167/56/167 147/52/147 182/51/182
f 56/51/56 123/55/123 125/56/125
vt 0.8253800272941589 0.2931199967861176
f 104/57/104 117/53/117 135/54/135
vt 0.8290629982948303 0.2931199967861176
f 220/54/220 1/58/1 30/57/30
vt 0.8217179775238037 0.2931199967861176
f 141/59/141 117/55/117 142/53/142
f 192/53/192 156/57/156 19/59/19
vt 0.8180549740791321 0.2931199967861176
f 48/60/48 65/56/65 106/55/106
f 9/55/9 2/59/2 218/60/218
vt 0.8253800272941589 0.3170770108699799
f 104/61/104 133/57/133 66/58/66
vt 0.8290629982948303 0.3170770108699799
f 191/58/191 190/62/190 213/61/213
vt 0.8217179775238037 0.3170770108699799
f 12/63/12 184/59/184 13/57/13
f 66/57/66 65/61/65 86/63/86
vt 0.8180549740791321 0.3170770108699799
f 122/64/122 54/60/54 123/59/123
f 204/59/204 146/63/146 31/64/31
vt 0.8253800272941589 0.3410330116748810
f 105/65/105 133/61/133 135/62/135
vt 0.8290629982948303 0.3410330116748810
f 155/62/155 222/66/222 18/65/18
vt 0.8217179775238037 0.3410330116748810
f 135/67/135 45/63/45 134/61/134
f 146/61/146 164/65/164 210/67/210
vt 0.8180549740791321 0.3410330116748810
f 217/68/217 161/64/161 1/63/1
f 87/63/87 134/67/134 37/68/37
vt 0.8253800272941589 0.3649890124797821
f 88/69/88 106/65/106 137/66/137
vt 0.8290629982948303 0.3649890124797821
f 71/66/71 40/70/40 37/69/37
vt 0.8217179775238037 0.3649890124797821
f 219/71/219 145/67/145 16/65/16
f 175/65/175 224/69/224 216/71/216
vt 0.8180549740791321 0.3649890124797821
f 167/72/167 181/68/181 212/67/212
f 200/67/200 24/71/24 25/72/25
vt 0.8253800272941589 0.3889459967613220
f 94/73/94 73/69/73 112/70/112
vt 0.8290629982948303 0.3889459967613220
f 5/70/5 222/74/222 158/73/158
vt 0.8217179775238037 0.3889459967613220
f 94/75/94 38/71/38 74/69/74
f 104/69/104 66/73/66 86/75/86
vt 0.8180549740791321 0.3889459967613220
f 88/76/88 137/72/137 68/71/68
f 20/71/20 6/75/6 21/76/21
vt 0.8253800272941589 0.4142509996891022
f 91/77/91 72/73/72 109/74/109
vt 0.8290629982948303 0.4142509996891022
f 100/74/100 126/78/126 57/77/57
vt 0.8217179775238037 0.4142509996891022
f 135/79/135 117/75/117 45/73/45
f 206/73/206 190/77/190 191/79/191
vt 0.8180549740791321 0.4142509996891022
f 143/80/143 112/76/112 73/75/73
f 121/75/121 115/79/115 44/80/44
vt 0.8253800272941589 0.4395290017127991
f 60/81/60 62/77/62 80/78/80
vt 0.8290629982948303 0.4395290017127991
f 199/78/199 178/82/178 160/81/160
vt 0.8217179775238037 0.4395290017127991
f 71/83/71 37/79/37 70/77/70
f 78/77/78 56/81/56 55/83/55
vt 0.8180549740791321 0.4395290017127991
f 48/84/48 39/80/39 65/79/65
f 194/79/194 216/83/216 195/84/195
vt 0.8253800272941589 0.4620819985866547
f 82/85/82 61/81/61 33/82/33
vt 0.8290629982948303 0.4620819985866547
f 138/82/138 69/86/69 107/85/107
vt 0.8217179775238037 0.4620819985866547
f 37/87/37 89/83/89 70/81/70
f 94/81/94 74/85/74 73/87/73
vt 0.8180549740791321 0.4620819985866547
f 11/88/11 181/84/181 182/83/182
f 71/83/71 70/87/70 51/88/51
vt 0.8253800272941589 0.4876739978790283
f 69/89/69 70/85/70 89/86/89
vt 0.8290629982948303 0.4876739978790283
f 52/86/52 74/90/74 75/89/75
vt 0.8217179775238037 0.4876739978790283
f 168/91/168 150/87/150 185/85/185
f 20/85/20 21/89/21 4/91/4
vt 0.8180549740791321 0.4876739978790283
f 75/92/75 74/88/74 38/87/38
f 168/87/168 220/91/220 150/92/150
vt 0.8253800272941589 0.5123029947280884
f 160/93/160 224/89/224 6/90/6
vt 0.8290629982948303 0.5123029947280884
f 196/90/196 173/94/173 155/93/155
vt 0.8217179775238037 0.5123029947280884
f 176/95/176 214/91/214 221/89/221
f 104/89/104 46/93/46 117/95/117
vt 0.8180549740791321 0.5123029947280884
f 87/96/87 88/92/88 68/91/68
f 105/91/105 135/95/135 134/96/134
vt 0.8253800272941589 0.5369330048561096
f 188/97/188 187/93/187 169/94/169
vt 0.8290629982948303 0.5369330048561096
f 188/94/188 145/98/145 163/97/163
vt 0.8217179775238037 0.5369330048561096
f 195/99/195 215/95/215 173/93/173
f 67/93/67 68/97/68 134/99/134
vt 0.8180549740791321 0.5369330048561096
f 212/100/212 181/96/181 220/95/220
f 107/95/107 69/99/69 89/100/89
vt 0.8253800272941589 0.5615620017051697
f 191/101/191 213/97/213 174/98/174
vt 0.8290629982948303 0.5615620017051697
f 48/98/48 118/102/118 139/101/139
vt 0.8217179775238037 0.5615620017051697
f 199/103/199 160/99/160 28/97/28
f 53/97/53 79/101/79 34/103/34
vt 0.8180549740791321 0.5615620017051697
f 42/104/42 114/100/114 130/99/130
f 9/99/9 149/103/149 13/104/13
vt 0.8253800272941589 0.5861909985542297
f 218/105/218 210/101/210 12/102/12
vt 0.8290629982948303 0.5861909985542297
f 48/102/48 111/106/111 93/105/93
vt 0.8217179775238037 0.5861909985542297
f 160/107/160 26/103/26 28/101/28
f 149/101/149 12/105/12 13/107/13
vt 0.8180549740791321 0.5861909985542297
f 107/108/107 89/104/89 37/103/37
f 88/103/88 47/107/47 118/108/118
vt 0.8253800272941589 0.6101970076560974
f 84/109/84 101/105/101 35/106/35
vt 0.8290629982948303 0.6101970076560974
f 94/106/94 46/110/46 38/109/38
vt 0.8217179775238037 0.6101970076560974
f 191/111/191 174/107/174 192/105/192
f 107/105/107 45/109/45 117/111/117
vt 0.8180549740791321 0.6101970076560974
f 77/112/77 36/108/36 35/107/35
f 139/107/139 118/111/118 109/112/109
vt 0.8253800272941589 0.6341530084609985
f 5/113/5 158/109/158 24/110/24
vt 0.8290629982948303 0.6341530084609985
f 104/110/104 86/114/86 38/113/38
vt 0.8217179775238037 0.6341530084609985
f 136/115/136 137/111/137 106/109/106
f 63/109/63 84/113/84 35/115/35
vt 0.8180549740791321 0.6341530084609985
f 21/116/21 157/112/157 22/111/22
f 92/111/92 73/115/73 74/116/74
vt 0.8253800272941589 0.6581100225448608
f 48/117/48 140/113/140 111/114/111
vt 0.8290629982948303 0.6581100225448608
f 213/114/213 214/118/214 197/117/197
vt 0.8217179775238037 0.6581100225448608
f 156/119/156 223/115/223 6/113/6
f 68/113/68 133/117/133 134/119/134
vt 0.8180549740791321 0.6581100225448608
f 75/120/75 38/116/38 39/115/39
f 147/115/147 219/119/219 9/120/9
vt 0.8253800272941589 0.6820660233497620
f 122/121/122 123/117/123 96/118/96
vt 0.8290629982948303 0.6820660233497620
f 22/118/22 157/122/157 193/121/193
vt 0.8217179775238037 0.6820660233497620
f 88/123/88 40/119/40 47/117/47
f 119/117/119 140/121/140 139/123/139
vt 0.8180549740791321 0.6820660233497620
f 152/124/152 221/120/221 214/119/214
f 26/119/26 6/123/6 223/124/223
vt 0.8253800272941589 0.7060220241546631
f 38/125/38 86/121/86 39/122/39
vt 0.8290629982948303 0.7060220241546631
f 12/122/12 183/126/183 184/125/184
vt 0.8217179775238037 0.7060220241546631
f 94/127/94 112/123/112 46/121/46
f 193/121/193 157/125/157 175/127/175
vt 0.8180549740791321 0.7060220241546631
f 167/128/167 212/124/212 211/123/211
f 75/123/75 39/127/39 93/128/93
vt 0.8253800272941589 0.7299789786338806
f 76/129/76 111/125/111 144/126/144
vt 0.8290629982948303 0.7299789786338806
f 21/126/21 224/130/224 157/129/157
vt 0.8217179775238037 0.7299789786338806
f 174/131/174 213/127/213 156/125/156
f 71/125/71 91/129/91 40/131/40
vt 0.8180549740791321 0.7299789786338806
f 143/132/143 142/128/142 112/127/112
f 32/127/32 16/131/16 8/132/8
vt 0.8253800272941589 0.7539349794387817
f 118/133/118 47/129/47 109/130/109
vt 0.8290629982948303 0.7539349794387817
f 46/130/46 112/134/112 142/133/142
vt 0.8217179775238037 0.7539349794387817
f 110/135/110 142/131/142 143/129/143
f 138/129/138 107/133/107 141/135/141
vt 0.8180549740791321 0.7539349794387817
f 36/136/36 64/132/64 63/131/63
f 87/131/87 40/135/40 88/136/88
vt 0.8253800272941589 0.7778919935226440
f 178/137/178 215/133/215 216/134/216
vt 0.8290629982948303 0.7778919935226440
f 42/134/42 82/138/82 33/137/33
vt 0.8217179775238037 0.7778919935226440
f 191/139/191 192/135/192 171/133/171
f 136/133/136 65/137/65 137/139/137
vt 0.8180549740791321 0.7778919935226440
f 170/140/170 214/136/214 190/135/190
f 107/135/107 117/139/117 141/140/141
vt 0.8253800272941589 0.8018479943275452
f 217/141/217 165/137/165 209/138/209
vt 0.8290629982948303 0.8018479943275452
f 48/138/48 106/142/106 118/141/118
vt 0.8217179775238037 0.8018479943275452
f 134/143/134 45/139/45 37/137/37
f 88/137/88 118/141/118 106/143/106
vt 0.8180549740791321 0.8018479943275452
f 156/144/156 213/140/213 223/139/223
f 136/139/136 106/143/106 65/144/65
vt 0.8253800272941589 0.8258039951324463
f 221/145/221 5/141/5 24/142/24
vt 0.8290629982948303 0.8258039951324463
f 184/142/184 166/146/166 210/145/210
vt 0.8217179775238037 0.8258039951324463
f 87/147/87 37/143/37 40/141/40
f 25/141/25 24/145/24 158/147/158
vt 0.8180549740791321 0.8258039951324463
f 36/148/36 63/144/63 35/143/35
f 198/143/198 177/147/177 197/148/197
vt 0.8253800272941589 0.8497610092163086
f 190/149/190 214/145/214 213/146/213
vt 0.8290629982948303 0.8497610092163086
f 26/146/26 27/150/27 159/149/159
vt 0.8217179775238037 0.8497610092163086
f 65/151/65 39/147/39 86/145/86
f 11/145/11 1/149/1 148/151/148
vt 0.8180549740791321 0.8497610092163086
f 115/152/115 103/148/103 44/147/44
f 26/147/26 213/151/213 177/152/177
vt 0.8272219896316528 0.8753060102462769
vt 0.8253800272941589 0.8753060102462769
f 194/153/194 195/154/195 207/149/207
vt 0.8290629982948303 0.8753060102462769
f 21/150/21 22/155/22 154/153/154
f 28/149/28 26/150/26 159/153/159
vt 0.8235489726066589 0.8753060102462769
vt 0.8217179775238037 0.8753060102462769
f 137/156/137 66/157/66 133/151/133
f 160/149/160 6/154/6 26/156/26
f 160/151/160 216/149/216 224/156/224
vt 0.8198869824409485 0.8753060102462769
vt 0.8180549740791321 0.8753060102462769
f 76/158/76 93/159/93 111/152/111
f 184/151/184 165/157/165 11/158/11
f 160/152/160 178/151/178 216/158/216
vt 0.8290629982948303 0.8864899873733521
vt 0.8309770226478577 0.8753060102462769
f 141/160/141 142/155/142 120/161/120
vt 0.8309770226478577 0.8864899873733521
f 178/161/178 222/162/222 215/160/215
vt 0.8253800272941589 0.8864899873733521
f 176/163/176 221/154/221 24/153/24
vt 0.8272219896316528 0.8864899873733521
f 115/153/115 131/164/131 132/163/132
f 218/164/218 146/153/146 210/155/210
f 178/155/178 158/160/158 222/164/222
vt 0.8217179775238037 0.8864899873733521
f 199/165/199 28/157/28 24/156/24
vt 0.8235489726066589 0.8864899873733521
f 28/156/28 197/166/197 24/165/24
f 15/166/15 145/156/145 188/154/188
f 199/154/199 24/163/24 200/166/200
vt 0.8180549740791321 0.8864899873733521
f 27/167/27 198/159/198 197/158/197
vt 0.8198869824409485 0.8864899873733521
f 68/158/68 137/168/137 133/167/133
f 28/168/28 159/158/159 27/157/27
f 203/157/203 164/165/164 204/168/204
vt 0.8328909873962402 0.0000000000000000
vt 0.8328909873962402 0.0187020003795624
f 212/3/212 186/169/186 211/170/211
vt 0.8328909873962402 0.0374029986560345
f 90/4/90 70/170/70 69/171/69
vt 0.8328909873962402 0.0561049990355968
f 28/172/28 27/17/27 197/171/197
vt 0.8328909873962402 0.0748059973120689
f 121/172/121 97/173/97 125/22/125
f 103/22/103 132/17/132 128/172/128
f 29/17/29 30/4/30 7/171/7
vt 0.8291820287704468 0.0000000000000000
f 200/3/200 25/2/25 158/174/158
f 138/169/138 141/3/141 108/174/108
f 161/4/161 179/3/179 201/170/201
vt 0.8328909873962402 0.1122089996933937
vt 0.8328909873962402 0.0935079976916313
f 203/175/203 204/26/204 180/176/180
vt 0.8328909873962402 0.1309109926223755
vt 0.8328909873962402 0.1496119946241379
f 204/177/204 164/178/164 146/34/146
f 185/34/185 150/30/150 14/177/14
f 202/177/202 210/30/210 203/175/203
f 176/173/176 24/176/24 197/26/197
f 184/26/184 11/22/11 13/173/13
vt 0.8328909873962402 0.1683139950037003
f 105/178/105 134/179/134 133/38/133
f 11/38/11 182/34/182 13/178/13
vt 0.8328909873962402 0.1870149970054626
f 26/180/26 177/38/177 27/179/27
vt 0.8328909873962402 0.2057169973850250
f 11/181/11 10/42/10 181/180/181
vt 0.8328909873962402 0.2244179993867874
vt 0.8328909873962402 0.2431199997663498
f 181/182/181 10/183/10 148/50/148
f 152/50/152 170/46/170 189/182/189
vt 0.8328909873962402 0.2805230021476746
vt 0.8328909873962402 0.2618210017681122
f 167/184/167 182/54/182 181/185/181
f 147/183/147 211/185/211 219/54/219
f 167/54/167 211/50/211 147/183/147
f 12/181/12 166/182/166 183/46/183
f 219/46/219 2/42/2 9/181/9
vt 0.8328909873962402 0.2992250025272369
vt 0.8328909873962402 0.3179259896278381
f 219/186/219 163/187/163 145/62/145
f 212/62/212 220/58/220 168/186/168
vt 0.8328909873962402 0.3366279900074005
f 147/187/147 9/188/9 13/66/13
f 9/66/9 12/62/12 149/187/149
vt 0.8328909873962402 0.3740310072898865
vt 0.8328909873962402 0.3553290069103241
f 12/189/12 210/70/210 166/190/166
vt 0.8328909873962402 0.3927319943904877
vt 0.8328909873962402 0.4114339947700500
f 9/191/9 218/192/218 12/78/12
f 202/78/202 203/74/203 208/191/208
f 53/189/53 95/191/95 125/74/125
f 17/74/17 18/70/18 222/189/222
f 184/190/184 210/66/210 209/188/209
f 50/186/50 63/58/63 64/184/64
vt 0.8328909873962402 0.4301350116729736
f 220/193/220 30/78/30 29/192/29
vt 0.8254730105400085 0.0000000000000000
f 184/194/184 183/174/183 166/2/166
f 184/2/184 209/7/209 165/194/165
f 42/7/42 130/6/130 129/194/129
f 11/4/11 165/17/165 217/1/217
vt 0.8180549740791321 0.0000000000000000
vt 0.8217639923095703 0.0000000000000000
f 11/195/11 148/196/148 10/10/10
f 46/10/46 142/15/142 117/195/117
f 40/6/40 109/11/109 47/194/47
f 148/11/148 1/196/1 220/194/220
f 1/196/1 161/11/161 30/10/30
f 11/195/11 217/15/217 1/14/1
f 31/42/31 32/38/32 162/180/162
f 41/193/41 101/82/101 114/78/114
f 48/70/48 93/66/93 39/190/39
f 146/58/146 32/54/32 31/184/31
f 104/30/104 135/26/135 133/175/133
vt 0.8328909873962402 0.4488370120525360
f 2/82/2 32/193/32 146/197/146
vt 0.8328909873962402 0.4675379991531372
f 2/197/2 146/198/146 218/86/218
f 15/86/15 151/82/151 16/197/16
vt 0.8328909873962402 0.4862399995326996
f 15/198/15 16/199/16 145/90/145
f 60/90/60 102/86/102 83/198/83
vt 0.8328909873962402 0.5236430168151855
vt 0.8328909873962402 0.5049409866333008
f 219/200/219 16/94/16 2/201/2
vt 0.8328909873962402 0.5423449873924255
vt 0.8328909873962402 0.5610460042953491
f 96/202/96 123/203/123 114/102/114
f 2/102/2 16/98/16 32/202/32
f 181/202/181 148/98/148 220/200/220
f 107/199/107 37/201/37 45/94/45
f 203/94/203 210/90/210 164/199/164
vt 0.8328909873962402 0.5984489917755127
vt 0.8328909873962402 0.5797479748725891
f 202/204/202 179/106/179 209/205/209
vt 0.8328909873962402 0.6171510219573975
f 87/206/87 68/110/68 67/204/67
vt 0.8328909873962402 0.6358519792556763
vt 0.8328909873962402 0.6545540094375610
f 188/207/188 163/208/163 187/118/187
f 211/118/211 163/114/163 219/207/219
vt 0.8328909873962402 0.6919569969177246
vt 0.8328909873962402 0.6732550263404846
f 211/209/211 186/122/186 187/210/187
f 26/208/26 223/210/223 213/122/213
f 187/122/187 186/118/186 205/208/205
f 212/206/212 168/207/168 186/114/186
f 192/114/192 174/110/174 156/206/156
f 209/203/209 179/205/179 161/106/161
f 211/106/211 187/102/187 163/203/163
vt 0.8328909873962402 0.7106580138206482
vt 0.8328909873962402 0.7293599843978882
f 137/211/137 65/212/65 66/130/66
f 217/130/217 209/126/209 161/211/161
vt 0.8328909873962402 0.7480610013008118
f 150/212/150 220/213/220 29/134/29
f 177/134/177 213/130/213 197/212/197
vt 0.8328909873962402 0.7854639887809753
vt 0.8328909873962402 0.7667629718780518
f 116/214/116 132/138/132 131/215/131
vt 0.8328909873962402 0.8041660189628601
vt 0.8328909873962402 0.8228679895401001
f 114/216/114 101/217/101 130/146/130
f 99/146/99 128/142/128 132/216/132
f 17/214/17 5/216/5 152/142/152
f 115/142/115 132/138/132 103/214/103
f 113/215/113 129/134/129 130/213/130
vt 0.8328909873962402 0.8602709770202637
vt 0.8328909873962402 0.8415690064430237
f 200/218/200 158/150/158 178/219/178
vt 0.8328909873962402 0.8789719939231873
f 202/220/202 209/161/209 210/218/210
f 131/150/131 102/218/102 127/161/127
# 332 faces, 220 coords texture

# End of File
