####
#
# OBJ File Generated by Meshlab
#
####
# Object right_arm_link1_0.obj
#
# Vertices: 191
# Faces: 308
#
####
mtllib ./right_arm_link1_0.obj.mtl

vn 0.0663058439502366 2.6579157546320777 -0.0278879321957875
v -0.0298264038461539 0.0439787692307692 0.0327816153846154
vn 0.9136028134317014 5.8610323272399150 0.9434778869819539
v 0.0298520833333333 0.0441264583333333 -0.0316682916666667
vn -2.6191718946311493 4.5834412449331543 0.3371367984450467
v 0.0286124810126582 0.0441152405063291 -0.0306751139240507
vn -0.8455193359166632 1.4648565957989472 -2.3518002805138343
v 0.0297878870967742 0.0438689516129032 -0.0328548225806451
vn 0.0647268317798735 2.8718678923037126 -0.1390938355896272
v 0.0327643154362416 0.0439916375838926 -0.0297281409395973
vn -2.7806981393006032 0.5384530151899720 -1.0910554069722052
v -0.0328550000000000 0.0437284000000000 0.0297708000000000
vn -0.0762127141961226 3.4525502214074595 -3.0377513606996303
v -0.0307688275862069 0.0441423793103448 0.0285398965517241
vn 2.9410145731227137 3.4917101533538060 0.1066677531998114
v -0.0285266333333333 0.0441171000000000 0.0307648666666667
vn 1.1581884326774528 5.8119937634068766 0.8259138849601720
v -0.0316960500000000 0.0441266500000000 0.0299277000000000
vn 2.3656803281021146 4.7785496699019694 -0.4148521844398711
v 0.0298345000000000 0.0441149117647059 -0.0306616470588235
vn -2.6440904482132179 4.5539841138117234 -0.8607045394687474
v 0.0287781666666667 0.0441259523809524 -0.0316164285714286
vn -2.0373719942235038 0.7694215331015906 -2.0332186464453650
v 0.0290565384615384 0.0438573076923077 -0.0323462307692308
vn 0.3205025923973283 2.4691740754774871 0.3732158291161193
v 0.0324083396226415 0.0439385283018868 -0.0290710754716981
vn -1.9624346327020705 0.2159642229596092 -2.2991646843245617
v -0.0324080000000000 0.0437360000000000 0.0291085000000000
vn -1.1890387687457280 4.1471108337413591 -2.6820278567706368
v -0.0316695675675676 0.0441389459459459 0.0288233783783784
vn 0.0488027479293213 2.5216104478169910 0.0868112262064018
v -0.0290312916666667 0.0439490000000000 0.0323615000000000
vn -2.5671156593404176 4.3535738324220805 0.9856306064200161
v -0.0298384687500000 0.0441172812500000 0.0307218125000000
vn -0.4860817256946948 4.6452782685065772 2.5348748415712699
v -0.0306998461538462 0.0441285384615384 0.0297420384615385
vn -0.0034709302314265 0.0052535661360838 0.0002975051612972
v -0.0331055000000000 0.0441170000000000 0.0307705000000000
vn -0.2970054262500804 2.5040365130102442 0.3253920585810716
v -0.0323402500000000 0.0439470000000000 0.0325068333333333
vn -3.0622823455498924 3.2898744583251172 -0.2503602366608831
v 0.0315088000000000 0.0431135000000000 -0.0305626000000000
vn -0.2939342516813733 3.0330452008058209 3.0743850047155772
v 0.0307961818181818 0.0431250000000000 -0.0315168181818182
vn -0.1102346990688821 6.2068834391811096 0.3196265348125359
v 0.0297699473684210 0.0441046315789474 -0.0297267368421053
vn -0.3406222646610123 2.5013508892283438 0.3384143447457187
v 0.0290923396226415 0.0439384905660377 -0.0290903207547170
vn -0.0019652831125201 -0.0195721532172752 0.0127018234139093
v 0.0307636666666667 0.0441430000000000 -0.0330844666666667
vn 0.8527331048301376 4.6080158535968119 -2.5878525647299369
v 0.0316387023809524 0.0441383333333333 -0.0327131666666667
vn 2.0413078716689395 0.7698756620032563 -2.0292823659183910
v 0.0323661538461538 0.0438585128205128 -0.0324433589743590
vn 2.7766376903001007 4.0909547397201909 -0.8896916789121285
v 0.0327365000000000 0.0441264459459459 -0.0316806891891892
vn -0.3227646885535018 -0.3548514849092618 0.1915837911177088
v 0.0331061500000000 0.0441163000000000 -0.0307890000000000
vn 2.2950532035588691 0.2002187792224521 -1.9758435239787797
v -0.0290895000000000 0.0437360000000000 0.0291275000000000
vn -0.0795457769001634 6.2000808040763751 0.3589863492934539
v -0.0316972000000000 0.0441040000000000 0.0318856000000000
vn 1.0965437614286133 2.5312629763234273 -2.6287598860470474
v -0.0308068000000000 0.0431080000000000 0.0315401000000000
vn 2.7633591679935146 2.7235931244261944 -0.5523118092216902
v -0.0314559411764706 0.0431164705882353 0.0308012352941176
vn -2.2569176191703066 5.1834030868884220 0.3867360162969323
v -0.0327340000000000 0.0441172222222222 0.0307474444444444
vn -2.4359580638689455 2.9026624449663880 1.8285232848474844
v 0.0313730000000000 0.0431210000000000 -0.0311970000000000
vn -2.6186906003318233 -0.1468541600413641 4.6841608194555873
v 0.0311140000000000 0.0436250000000000 -0.0315460000000000
vn -4.8481919828493147 -0.1068596141005559 -0.0386289154757635
v 0.0316320000000000 0.0436170000000000 -0.0308380000000000
vn -0.4973124480552366 2.9138768328262143 0.3424391865073434
v 0.0287199705882353 0.0439814338235294 -0.0297825294117647
vn -0.1833868624077497 2.8426664397382519 0.3571938848005995
v 0.0297503221476510 0.0439802953020134 -0.0287370402684564
vn -0.1633450678657412 5.2868494616609576 -2.2467166675971884
v 0.0307119154929577 0.0441389014084507 -0.0327687042253521
vn 2.4472127166996573 4.6286472786297246 0.9476505908229186
v 0.0327687424242424 0.0441163484848485 -0.0307720303030303
vn 1.1259682372841713 0.5108789627419950 -2.7814003709003692
v -0.0297524000000000 0.0437408000000000 0.0286800000000000
vn 2.5493390801246978 1.0352218467817105 -1.1431896546275315
v -0.0286500000000000 0.0437280000000000 0.0297940000000000
vn 1.5519882201303152 4.1751837602961910 -2.8300989545156057
v -0.0308435833333333 0.0439615416666667 0.0316123750000000
vn 3.6131924158873061 0.8092800723743214 0.0396311971862846
v -0.0316310000000000 0.0436160000000000 0.0308710000000000
vn -2.9315891915520553 3.5257195466797442 -0.9151719897897393
v -0.0327847352941176 0.0441276764705882 0.0298262058823529
vn 3.2912382526969508 1.6050391042651413 4.2154894879274201
v 0.0302410000000000 0.0436240000000000 -0.0314500000000000
vn 2.7936880646711266 2.7136423982483251 -0.5989467809325928
v 0.0300669444444444 0.0431152222222222 -0.0306935555555556
vn 1.1202936961509273 2.8167613035100918 -2.6509856756907730
v 0.0306973333333333 0.0431070000000000 -0.0299770000000000
vn -1.4980599176940181 5.1673180005113677 -1.2035212800462074
v 0.0315800967741936 0.0439930000000000 -0.0298574838709678
vn -0.9726503192499512 4.1358116575384907 -2.7146351063923446
v 0.0298161891891892 0.0441384459459459 -0.0327131351351351
vn -2.2505194800910191 1.5038145378819152 -0.0413773780771755
v 0.0284249807692308 0.0438390961538461 -0.0307437115384616
vn 0.0631160017428448 2.7316450927950484 0.1105059096394895
v 0.0307277625899280 0.0439784388489208 -0.0285244100719425
vn 0.0136483446703491 0.6852540531792937 -2.8882783970319235
v -0.0307450000000000 0.0437435000000000 0.0284422500000000
vn 2.5827954117557761 0.6615950589702324 -0.0586235997525094
v -0.0284235000000000 0.0437167500000000 0.0307905000000000
vn -1.6188684749542026 5.1878938798037604 -1.0877761723117774
v -0.0299170769230769 0.0439923461538461 0.0316003846153846
vn -0.6041378909131667 3.1177432784818229 2.8884535518040182
v -0.0307220909090909 0.0431252727272727 0.0300019090909091
vn -2.8781517555222287 3.1218399705566355 0.7927958367939706
v -0.0300655294117647 0.0431175882352941 0.0306943529411765
vn 3.6873767240923283 1.7526923220033224 4.0074964474058881
v -0.0312770000000000 0.0436250000000000 0.0300680000000000
vn 1.7012249341020305 1.8812951535925853 1.9323604063077053
v 0.0302410000000000 0.0431240000000000 -0.0314560000000000
vn 0.0000000000000000 0.0000000000000000 0.0000000000000000
v 0.0298880000000000 0.0436150000000000 -0.0306470000000000
vn -1.5694962020472871 3.1229556022650504 -2.3811285871955499
v 0.0312790000000000 0.0431080000000000 -0.0300400000000000
vn 1.2736556198748177 4.6088223808733702 -2.4420294295920053
v 0.0306833750000000 0.0439955625000000 -0.0297784687500000
vn -2.1136594129542061 3.3768364825121937 -2.1871503687596259
v 0.0291174324324324 0.0441339189189189 -0.0323138648648649
vn -2.4152885415550367 1.4170281332537351 -0.8372426630435752
v 0.0286131272727273 0.0438427454545455 -0.0316536000000000
vn 0.0434499120811475 2.8716347508085356 0.0781304700293552
v 0.0316830000000000 0.0439781397058823 -0.0287102500000000
vn -1.9040281738295679 2.5525863919444101 -2.2657205803367493
v -0.0324100000000000 0.0441360000000000 0.0291140000000000
vn -1.1630908270914400 1.1072854015248845 -2.5038597395023405
v -0.0317414000000000 0.0437408000000000 0.0286688000000000
vn 0.4123481740652296 2.9320148766512837 0.3885932064217070
v -0.0286773658536585 0.0439896341463415 0.0316653658536585
vn -3.6045248317363288 1.0162140326683504 4.3240871977138369
v -0.0304050000000000 0.0436260000000000 0.0299730000000000
vn 0.0000000000000000 0.0000000000000000 0.0000000000000000
v -0.0298860000000000 0.0436180000000000 0.0306800000000000
vn -1.6743823178022610 2.8133982545791216 -2.1616166535682644
v -0.0302400000000000 0.0431090000000000 0.0314780000000000
vn 1.6959670474043331 1.8928438550429232 1.9530416738091012
v -0.0312770000000000 0.0431250000000000 0.0300620000000000
vn -2.0139218153870826 1.4204802734796589 0.0400231742999388
v -0.0330820000000000 0.0437170000000000 0.0307635000000000
vn 0.1422438569783195 3.2280078072333147 -0.0091507368491636
v -0.0308055000000000 0.0440233529411765 0.0327848823529412
vn -0.4775040729723368 3.8143670392877835 2.9592960202393415
v 0.0306894500000000 0.0441254500000000 -0.0316064000000000
vn -2.6792548057628363 3.7062520569023354 1.1640556937275290
v 0.0315676153846154 0.0441175000000000 -0.0308761923076923
vn -0.1191866851701142 2.4188364688754249 -2.1335133046209553
v 0.0307638076923077 0.0438651923076923 -0.0330636923076923
vn 1.4963052029636543 2.9312366356002721 -0.3123569965063441
v 0.0329786666666666 0.0438857380952381 -0.0306041904761905
vn 1.0897734219075597 3.5000892227724973 -2.8709495963620726
v -0.0297970909090909 0.0441399696969697 0.0287483939393939
vn 2.7654329935550246 4.0255398928437511 -1.1318345715175184
v -0.0287889722222222 0.0441272500000000 0.0298648611111111
vn 2.8037271035612834 4.0090340991402167 -0.1162336207752540
v -0.0316081666666667 0.0441165555555556 0.0307970000000000
vn -0.0465026414672772 -0.0475773091240657 0.0001900433455012
v -0.0331045000000000 0.0437170000000000 0.0307635000000000
vn -0.6068832528822445 2.9333104341866845 0.2582098072088755
v -0.0327686862745098 0.0439886078431373 0.0317161176470588
vn -0.1832585691405725 2.5351256963833224 0.3471131357517007
v -0.0316469250000000 0.0439731500000000 0.0328678000000000
vn -0.0423052144065010 3.8318663662104400 12.0189059905717706
v -0.0307704375000000 0.0439400000000000 0.0331264375000000
vn -0.0002094485130870 6.2827780907303179 0.0715240220381554
v 0.0317500526315789 0.0441273684210526 -0.0317472631578948
vn -0.0088714999709942 0.1358561550017263 0.1462317921527565
v 0.0307637692307692 0.0438660769230769 -0.0330860000000000
vn 0.8243861496638535 1.4619741278102112 -2.3796845710578056
v 0.0316731818181818 0.0438567818181818 -0.0328867636363636
vn 2.2235616498599251 3.3761652908172470 -2.0769663771242923
v 0.0323370000000000 0.0441345135135135 -0.0323792432432432
vn 2.3190787328493059 1.3488906015951458 -0.7728161609787416
v 0.0328749516129032 0.0438559032258065 -0.0317118870967742
vn -0.5093753633597912 0.5899210373912475 0.0705772017794006
v 0.0331070869565218 0.0438546956521739 -0.0307074782608696
vn 2.2892260775672910 2.5680473758562936 -1.8954768671356539
v -0.0290910000000000 0.0441360000000000 0.0291300000000000
vn -0.0009944492933685 6.2827659407451737 0.0725813466978005
v -0.0298194000000000 0.0441294000000000 0.0296768000000000
vn 2.2693433985747964 3.9216438442622965 -1.7700390296187665
v -0.0313710000000000 0.0441120000000000 0.0312310000000000
vn 1.6968621938041544 1.8864978389740190 1.9428525841216442
v 0.0302410000000000 0.0431240000000000 0.0300620000000000
vn -1.7351268981698680 2.9308562734609049 -2.1191235286314813
v 0.0312790000000000 0.0431080000000000 0.0314780000000000
vn 0.0000000000000000 0.0000000000000000 0.0000000000000000
v 0.0316320000000000 0.0436170000000000 0.0306800000000000
vn 1.5297510026675885 4.1632594083063621 -2.7971836598506306
v 0.0307042962962963 0.0439579629629629 0.0316338888888889
vn 2.0391985144294615 5.3447434616513680 0.1501726298196487
v 0.0327687424242424 0.0441163484848485 0.0307462121212121
vn -0.9754943904081129 1.4050110817045010 -2.4098010436427351
v 0.0297878870967742 0.0438689516129032 0.0286635967741935
vn -2.5264264363238316 1.3182582367802855 -0.8741896271395091
v 0.0286645161290322 0.0438566129032258 0.0297626774193548
vn 1.7037123477666118 1.8815503799178432 1.9342220400907086
v -0.0312770000000000 0.0431250000000000 -0.0314560000000000
vn 0.0000000000000000 0.0000000000000000 0.0000000000000000
v -0.0316310000000000 0.0436160000000000 -0.0306470000000000
vn -1.5680247936293481 3.1425751653625436 -2.3865824128490467
v -0.0302400000000000 0.0431090000000000 -0.0300400000000000
vn -2.5713619570462822 -0.0946195702715638 4.7552174335664885
v -0.0304050000000000 0.0436260000000000 -0.0315460000000000
vn 0.0641512080882252 2.8417475657362186 0.1086894840993890
v -0.0298135615384615 0.0439735153846154 -0.0286975230769231
vn -1.9888884635118160 5.4157801818479872 0.3487331184561022
v -0.0327671212121212 0.0441165454545455 -0.0307017727272727
vn -0.0761274401632852 5.1839517176886236 -2.3761813805192764
v -0.0307034800000000 0.0441398400000000 -0.0327715200000000
vn 0.3149685403047792 2.9523374529227628 0.3183364727037681
v -0.0287538926174497 0.0439925637583892 -0.0297281409395973
vn 2.7286167133476154 2.8722124599173968 -0.6579992804639536
v 0.0300621250000000 0.0431152500000000 0.0308223125000000
vn -0.6051270147697967 3.0666034778412223 2.9014865885986283
v 0.0307961818181818 0.0431250000000000 0.0300019090909091
vn -0.0951176477382631 6.2044038294905013 0.3822894823501979
v 0.0297699473684210 0.0441046315789474 0.0317920000000000
vn 2.7766970764900298 4.0916987320986395 -0.8891540785104887
v 0.0327365000000000 0.0441264459459459 0.0298377297297297
vn 0.0085908847004487 1.6599017531740101 -2.3275305540704023
v 0.0307637884615385 0.0438656346153846 0.0284434423076923
vn -2.2354643143614470 1.4684820517921779 -0.0356576342482109
v 0.0284267818181818 0.0438326545454546 0.0307489818181818
vn 1.0707108235641352 2.8865422178390099 -2.6947341797753621
v -0.0307850000000000 0.0431080000000000 -0.0299810000000000
vn -3.0474540692639236 3.4643302752835852 -0.2711081874076831
v -0.0300147272727273 0.0431143636363636 -0.0305516363636364
vn -0.1002678011674842 6.1982652513040630 0.3894065670329573
v -0.0317483157894737 0.0441053684210526 -0.0297267368421053
vn 0.0132146846185869 2.7676198550365259 0.0645291267243523
v -0.0307244166666667 0.0439824090909091 -0.0285224696969697
vn 0.8449061803894627 4.5972652728539840 -2.6059768645859016
v -0.0297530459770115 0.0441386551724138 -0.0326708160919540
vn 2.1048871310678092 1.5973294971232961 0.0008450079475530
v -0.0284250363636364 0.0438327818181818 -0.0307108727272728
vn 4.7654053926681286 1.5157766453864370 -1.7203329110575090
v 0.0298880000000000 0.0436150000000000 0.0308710000000000
vn -3.3666772610646616 0.6739419868989495 4.2927933278607826
v 0.0311140000000000 0.0436250000000000 0.0299730000000000
vn 2.2230502547950595 3.3761147533148907 -2.0759471741146651
v 0.0323370000000000 0.0441347297297297 0.0291391621621622
vn 0.8409665624082061 1.4651624274695605 -2.3812125922043537
v 0.0316731818181818 0.0438567818181818 0.0286314909090909
vn -0.5351385078307322 2.8926805776823055 0.4010431580585007
v 0.0287199705882353 0.0439814338235294 0.0317358382352941
vn -5.6226434404705561 0.8265875929172208 0.9316279689736688
v -0.0298860000000000 0.0436180000000000 -0.0308380000000000
vn -2.4327781249993721 2.9364103636227044 1.8298414002878958
v -0.0301450000000000 0.0431220000000000 -0.0311970000000000
vn -0.0312273800139481 2.8292978155106203 0.2364836249496364
v -0.0316508561151079 0.0439813597122302 -0.0286944532374101
vn 2.4258978199962051 1.4063550416141921 -0.9202931605061817
v -0.0286433387096774 0.0438569032258065 -0.0317118870967742
vn 2.2527145269765358 2.6234221438764798 -1.9524090840630230
v -0.0290961250000000 0.0441358333333333 -0.0323901250000000
vn 1.1943855897899562 4.6114831065876167 -2.3016655688532439
v -0.0308214375000000 0.0440121875000000 -0.0297797812500000
vn 0.2502806477238432 5.9362098296120314 1.2535494612430962
v 0.0290090000000000 0.0441110000000000 0.0312320000000000
vn -0.4814565181271288 4.4182509520998297 2.6908141334697238
v 0.0307558076923077 0.0441269615384615 0.0297878461538462
vn 2.4151350631491613 4.8018970007886619 -0.1854188025297857
v 0.0297534814814815 0.0441159259259259 0.0307597407407408
vn 2.0413751529821762 0.7700027138053223 -2.0292073822895604
v 0.0323661538461538 0.0438585128205128 0.0290749743589744
vn 0.8952339516930475 4.6196107875462360 -2.5733863117362397
v 0.0316387023809524 0.0441384166666667 0.0288051785714286
vn -0.3410426812115830 2.5015781854862680 0.3387698957869206
v 0.0290923396226415 0.0439384905660377 0.0324278113207547
vn -0.2948261366684944 2.5758501290600333 0.3149237929031522
v -0.0323505657894737 0.0439555000000000 -0.0290647368421053
vn 2.2755580978337213 0.2008805373827275 -1.9322108379587299
v -0.0290861724137931 0.0438456206896552 -0.0323844482758621
vn 2.7339565667376569 4.2130605816191897 -0.9860954409542807
v -0.0287819189189189 0.0441273918918919 -0.0316806891891892
vn -2.5930471383806646 4.1635050737865882 1.0008414473186404
v -0.0298331470588235 0.0441174411764706 -0.0308119705882353
vn 2.1685940266457830 3.8785724185692732 -1.8742313196052944
v 0.0301470000000000 0.0441110000000000 0.0312310000000000
vn -0.0003744875284956 6.2827739403003227 0.0718905539688811
v 0.0317500526315789 0.0441273684210526 0.0297707368421053
vn 2.3736212116237159 1.4716382247212492 -0.8007098889692394
v 0.0328749516129032 0.0438559354838710 0.0298063064516129
vn -0.1259720839706021 4.6876391960202168 -2.6661904104657799
v 0.0307017375000000 0.0441401875000000 0.0286435250000000
vn -2.7383690387419413 4.5795329355706613 0.0784565307958515
v 0.0286155180722892 0.0441162409638554 0.0307496506024096
vn -0.1932050333472636 2.7416811297744448 0.3443999589582452
v 0.0297503221476510 0.0439803288590604 0.0327812617449664
vn 0.0001208846952225 6.2827733612053365 0.0718978985926083
v -0.0297679473684210 0.0441283684210526 -0.0317472631578948
vn -0.5033917410759150 2.8498502711201930 0.2755390377196776
v -0.0327982941176470 0.0439823308823529 -0.0297825294117647
vn 0.8624560071062557 1.3740084226697546 -2.4976293222950590
v -0.0297426612903226 0.0438697741935484 -0.0328352419354839
vn 2.5494679923159875 4.7481145894512036 0.1656352313714158
v -0.0286405730337079 0.0441168202247191 -0.0307375730337079
vn -2.6788782956196489 4.0026690219512622 1.1352462148827225
v 0.0315604074074074 0.0441176296296296 0.0306305925925926
vn 1.9398083290171522 0.7908455603120786 -0.5033183701849780
v 0.0330853103448276 0.0438264827586207 0.0307589655172414
vn -1.0749085071642361 4.2560773829798171 -2.6653464987436277
v 0.0298161891891892 0.0441384459459459 0.0288051081081081
vn -2.6641352691990901 4.5357085870520804 -0.8483657156041716
v 0.0288206206896552 0.0441274827586207 0.0297754252873563
vn 0.1079562651638346 2.9392585246753447 0.0251063831452044
v 0.0307004509803922 0.0439978039215686 0.0328906960784314
vn -0.4627931373009114 3.8088173650029895 2.9682710665879215
v -0.0308288000000000 0.0441264500000000 -0.0316064000000000
vn 2.5181166924486753 4.4476258243228406 -0.6324419665087523
v -0.0315585925925926 0.0441151111111111 -0.0305858518518519
vn -2.0424683157096224 0.7605063352005816 0.4283726901670239
v -0.0330836896551724 0.0438268275862069 -0.0307209655172414
vn -0.5958674974511176 2.8685912919491883 -1.9117363869520971
v -0.0307060344827586 0.0438533448275862 -0.0330615517241379
vn 1.0598464796037725 5.7872814585931183 1.0518471596462957
v 0.0298520833333333 0.0441264583333333 0.0298505000000000
vn 0.3011177405268184 2.9299159963634702 0.2897254127790698
v 0.0328071151079137 0.0439934316546762 0.0316730647482014
vn 0.8573816448606592 -0.7766444035536200 1.0800073232758796
v 0.0331070869565218 0.0438546956521739 0.0308109565217391
vn -1.9825863189475825 2.6249779471804815 -2.2282663435993588
v 0.0291067083333333 0.0441349583333333 0.0291191250000000
vn -0.1727295280716696 9.5207651887954619 33.0519019752533794
v 0.0307667674418605 0.0439494651162791 0.0331262558139535
vn 0.0322789529495954 2.6989205001767211 -0.0092455839595667
v 0.0316830000000000 0.0439781397058823 0.0328080514705882
vn 0.8786744609009548 5.9024216763175206 0.8325711863442212
v -0.0316661666666667 0.0441274583333333 -0.0316682916666667
vn -0.8595769424629577 -0.7537829448571132 -1.1059490305653994
v -0.0331051739130435 0.0438564782608696 -0.0307723913043478
vn -2.4246347177352692 1.4194771172875251 -0.8072003855766940
v -0.0329052727272727 0.0438437090909091 -0.0316536000000000
vn -0.8436401725524846 1.6202285814007686 -2.2278390334557638
v -0.0317306935483871 0.0438698225806451 -0.0328548225806451
vn -2.0590039757670375 3.3315335614645489 -2.2277420398047334
v -0.0324008378378378 0.0441349189189189 -0.0323138648648649
vn 0.6500085069730942 0.7928953933476836 0.6793875631133917
v -0.0307546153846154 0.0438666538461538 -0.0330860000000000
vn 3.4634226821838516 1.9391328098083254 4.2234387297388327
v 0.0302410000000000 0.0436240000000000 0.0300680000000000
vn 1.1435646057253077 2.6073238476002549 -2.6348670653908077
v 0.0307119000000000 0.0431070000000000 0.0315401000000000
vn -2.8917762528347901 2.9527376556954947 0.7751741614916832
v 0.0314528823529412 0.0431165882352941 0.0306943529411765
vn -1.5318543632968342 5.2602049272082194 -1.0196618085928324
v 0.0315800967741936 0.0439930000000000 0.0316609032258064
vn 0.2003337834788639 0.2958562144433114 -0.0711455843568340
v 0.0331061500000000 0.0441163000000000 0.0307290000000000
vn 0.0419809772683356 2.5830558441710427 0.0846798948946901
v 0.0324337631578947 0.0439558157894737 0.0323719473684210
vn -1.9350028017293732 0.2031254800402420 -2.2743299194701039
v 0.0291156206896552 0.0438453448275862 0.0291061724137931
vn 3.4169340177191176 1.4891260289255017 3.9996452647038656
v -0.0312770000000000 0.0436250000000000 -0.0314500000000000
vn 2.7810526436380751 2.5026051920187471 -0.5889277815944356
v -0.0314512222222222 0.0431162222222222 -0.0306935555555556
vn -0.2754323934833028 3.0427360056613471 3.0763561875246048
v -0.0307320000000000 0.0431252500000000 -0.0315157500000000
vn -1.9958809349410163 0.8009662632692089 -2.0485211236907919
v -0.0324620000000000 0.0438583076923077 -0.0323462307692308
vn -0.2005949488910435 0.2949850582948242 0.0776226861312678
v -0.0331041500000000 0.0441162000000000 -0.0306847500000000
vn -2.6669331609938016 4.5330730305925213 -0.7966043194131609
v -0.0327402023809524 0.0441268214285714 -0.0316164285714286
vn -0.9056905485069811 4.4015216735901781 -2.6386508919928851
v -0.0316650750000000 0.0441391000000000 -0.0326962500000000
vn 0.0401455868121738 -0.2186050694284158 0.1423250081981058
v -0.0307550666666667 0.0441436666666667 -0.0330844666666667
vn 0.3197453879311655 2.4971071146465857 0.3749111032269744
v -0.0291101320754717 0.0439395283018868 -0.0290710754716981
vn -1.5442305162446281 5.1585724505952379 -1.2339335450214959
v -0.0299282333333333 0.0440068333333333 -0.0298515666666667
# 191 vertices, 0 vertices normals


usemtl material_0
vt 0.1834769994020462 0.0000000000000000
vt 0.1962890028953552 0.0077990000136197
vt 0.1962890028953552 0.0000000000000000
f 177/1/177 112/2/112 97/3/97
vt 0.1834769994020462 0.0327299982309341
vt 0.1962890028953552 0.0233919993042946
vt 0.1962890028953552 0.0155950002372265
f 96/4/96 111/5/111 176/6/176
vt 0.1962890028953552 0.0311910007148981
f 96/4/96 97/7/97 112/5/112
f 135/1/135 112/6/112 124/2/124
vt 0.1834769994020462 0.0485690012574196
vt 0.1962890028953552 0.0467960014939308
vt 0.1962890028953552 0.0389919988811016
f 96/8/96 112/9/112 175/10/175
vt 0.1834769994020462 0.0644079968333244
vt 0.1962890028953552 0.0624080002307892
vt 0.1962890028953552 0.0546009987592697
f 135/11/135 163/12/163 175/13/175
vt 0.1962890028953552 0.0702150017023087
f 135/11/135 175/14/175 112/12/112
f 136/8/136 111/13/111 175/9/175
f 136/4/136 175/10/175 163/7/163
vt 0.1834769994020462 0.0801680013537407
vt 0.1962890028953552 0.0858250036835670
vt 0.1962890028953552 0.0780209973454475
f 96/15/96 175/16/175 111/17/111
vt 0.1834769994020462 0.0955739989876747
vt 0.1962890028953552 0.1014249995350838
vt 0.1962890028953552 0.0936259999871254
f 136/18/136 123/19/123 111/20/111
vt 0.1834769994020462 0.1109799966216087
vt 0.1962890028953552 0.1092220023274422
f 136/21/136 144/22/144 123/19/123
f 99/18/99 123/20/123 144/16/144
vt 0.1834769994020462 0.1263860017061234
vt 0.1962890028953552 0.1248169988393784
vt 0.1962890028953552 0.1170179992914200
f 178/23/178 176/24/176 99/25/99
vt 0.1834769994020462 0.1417919993400574
vt 0.1962890028953552 0.1404120028018951
vt 0.1962890028953552 0.1326159983873367
f 178/26/178 97/27/97 176/28/176
vt 0.1962890028953552 0.1482090055942535
f 154/26/154 135/29/135 124/27/124
f 113/23/113 144/28/144 136/24/136
f 177/21/177 124/25/124 112/22/112
f 154/15/154 145/17/145 135/14/135
vt 0.1706639975309372 0.0157329998910427
f 149/4/149 127/6/127 139/30/139
f 99/6/99 144/1/144 113/30/113
f 158/8/158 99/11/99 113/13/113
f 178/10/178 100/4/100 154/8/154
f 148/11/148 136/15/136 163/14/163
vt 0.1706639975309372 0.0546550005674362
vt 0.1706639975309372 0.0624080002307892
f 156/8/156 135/31/135 147/32/147
f 135/32/135 138/11/138 147/8/147
vt 0.1962890028953552 0.1560070067644119
vt 0.1834769994020462 0.1571979969739914
f 148/33/148 127/29/127 134/34/134
vt 0.1706639975309372 0.0391310006380081
vt 0.1706639975309372 0.0468979999423027
f 145/4/145 138/35/138 135/36/135
f 178/36/178 177/8/177 97/4/97
vt 0.1706639975309372 0.0856859982013702
vt 0.1706639975309372 0.0934650003910065
f 145/15/145 125/37/125 138/38/138
f 127/38/127 113/18/113 136/15/136
f 154/18/154 114/16/114 145/15/145
vt 0.1706639975309372 0.1169330030679703
vt 0.1706639975309372 0.1248169988393784
f 158/21/158 113/39/113 149/40/149
f 18/40/18 15/23/15 9/21/9
f 77/23/77 76/25/76 36/21/36
f 178/26/178 180/28/180 164/23/164
vt 0.1706639975309372 0.1327009946107864
vt 0.1706639975309372 0.1405500024557114
f 21/23/21 22/41/22 62/42/62
f 18/42/18 80/26/80 7/23/7
f 105/18/105 117/21/117 191/19/191
vt 0.1706639975309372 0.1012630015611649
vt 0.1706639975309372 0.1090840026736259
f 76/18/76 51/43/51 2/44/2
f 149/44/149 113/21/113 127/18/127
f 108/29/108 161/26/161 170/34/170
vt 0.1706639975309372 0.0701619982719421
vt 0.1706639975309372 0.0779189988970757
f 18/11/18 17/45/17 94/46/94
f 95/46/95 31/15/31 44/11/44
vt 0.1834769994020462 0.1726039946079254
vt 0.1962890028953552 0.1716119945049286
vt 0.1962890028953552 0.1638090014457703
f 1/47/1 56/48/56 44/49/44
vt 0.1834769994020462 0.1880100071430206
vt 0.1962890028953552 0.1872249990701675
vt 0.1962890028953552 0.1794179975986481
f 1/50/1 16/51/16 56/52/56
vt 0.1962890028953552 0.1950320005416870
f 9/50/9 46/53/46 34/51/34
f 33/47/33 59/52/59 82/48/82
vt 0.1706639975309372 0.1639479994773865
vt 0.1706639975309372 0.1717150062322617
f 17/34/17 81/54/81 94/55/94
f 10/55/10 48/47/48 47/34/47
f 64/47/64 65/49/65 11/34/11
vt 0.1834769994020462 0.2034160047769547
vt 0.1962890028953552 0.2028380036354065
f 187/56/187 173/57/173 171/53/171
f 178/53/178 164/50/164 100/56/100
f 10/52/10 47/47/47 2/50/2
vt 0.1962890028953552 0.2106419950723648
f 94/58/94 81/57/81 93/56/93
vt 0.1706639975309372 0.1949789971113205
vt 0.1706639975309372 0.2027360051870346
f 43/50/43 8/59/8 55/60/55
f 93/60/93 81/56/81 30/50/30
vt 0.1706639975309372 0.1794719994068146
vt 0.1706639975309372 0.1872249990701675
f 182/47/182 169/61/169 160/62/160
f 183/62/183 184/50/184 103/47/103
f 68/33/68 7/34/7 54/49/54
vt 0.1706639975309372 0.1483709961175919
vt 0.1706639975309372 0.1561689972877502
f 14/26/14 67/63/67 15/64/15
f 160/64/160 151/34/151 119/26/119
vt 0.1834769994020462 0.2188220024108887
vt 0.1962890028953552 0.2184430062770844
f 14/65/14 6/66/6 67/58/67
vt 0.1834769994020462 0.2351700067520142
vt 0.1962890028953552 0.2340389937162399
vt 0.1962890028953552 0.2262420058250427
f 75/67/75 31/68/31 85/69/85
vt 0.1962890028953552 0.2418349981307983
f 40/67/40 26/70/26 78/68/78
f 169/65/169 188/69/188 173/66/173
vt 0.1962890028953552 0.2496339976787567
vt 0.1834769994020462 0.2496339976787567
f 19/71/19 83/70/83 74/72/74
vt 0.1962890028953552 0.2652289867401123
vt 0.1962890028953552 0.2574329972267151
vt 0.1834769994020462 0.2665250003337860
f 10/73/10 63/74/63 48/75/48
vt 0.1962890028953552 0.2730259895324707
f 48/76/48 62/73/62 60/75/60
f 183/74/183 160/71/160 133/72/133
f 183/72/183 133/70/133 117/67/117
vt 0.1962890028953552 0.2886259853839874
vt 0.1962890028953552 0.2808240056037903
vt 0.1834769994020462 0.2823640108108521
f 43/77/43 81/78/81 8/79/8
vt 0.1962890028953552 0.3042350113391876
vt 0.1962890028953552 0.2964290082454681
vt 0.1834769994020462 0.2982029914855957
f 76/80/76 47/81/47 22/82/22
vt 0.1962890028953552 0.3120419979095459
vt 0.1834769994020462 0.3140420019626617
f 96/83/96 176/80/176 97/84/97
f 36/81/36 76/77/76 22/82/22
vt 0.1962890028953552 0.3276549875736237
vt 0.1962890028953552 0.3198490142822266
vt 0.1834769994020462 0.3298020064830780
f 42/85/42 80/86/80 93/87/93
vt 0.1962890028953552 0.3432599902153015
vt 0.1962890028953552 0.3354589939117432
vt 0.1834769994020462 0.3452079892158508
f 10/88/10 11/89/11 3/90/3
vt 0.1962890028953552 0.3510589897632599
f 92/91/92 29/88/29 41/90/41
f 14/89/14 15/85/15 68/87/68
f 82/86/82 31/83/31 95/84/95
f 119/78/119 140/76/140 130/79/130
vt 0.1962890028953552 0.3666520118713379
vt 0.1962890028953552 0.3588559925556183
vt 0.1834769994020462 0.3606140017509460
f 46/92/46 74/93/74 34/94/34
vt 0.1962890028953552 0.3822489976882935
vt 0.1962890028953552 0.3744510114192963
vt 0.1834769994020462 0.3760200142860413
f 121/95/121 152/96/152 162/97/162
vt 0.1962890028953552 0.3900460004806519
vt 0.1834769994020462 0.3914259970188141
f 15/98/15 7/95/7 68/99/68
f 34/96/34 74/92/74 84/97/84
vt 0.1706639975309372 0.2260800004005432
vt 0.1706639975309372 0.2339009940624237
f 50/65/50 62/100/62 49/101/49
f 34/101/34 74/67/74 83/65/83
f 77/65/77 21/67/21 50/69/50
vt 0.1962890028953552 0.4056409895420074
vt 0.1962890028953552 0.3978430032730103
vt 0.1834769994020462 0.4068320095539093
f 157/102/157 166/103/166 102/104/102
vt 0.1962890028953552 0.4134419858455658
f 31/105/31 84/102/84 20/104/20
f 52/103/52 11/98/11 65/99/65
vt 0.1834769994020462 0.4222379922866821
vt 0.1962890028953552 0.4212459921836853
f 48/105/48 60/106/60 47/107/47
f 77/91/77 36/94/36 37/93/37
vt 0.1962890028953552 0.4290519952774048
f 18/108/18 70/107/70 17/106/17
vt 0.1962890028953552 0.4446659982204437
vt 0.1962890028953552 0.4368590116500854
vt 0.1834769994020462 0.4376440048217773
f 45/109/45 33/110/33 82/111/82
vt 0.1962890028953552 0.4524720013141632
vt 0.1834769994020462 0.4530499875545502
f 60/112/60 62/109/62 22/113/22
f 50/110/50 5/108/5 79/111/79
vt 0.1962890028953552 0.4680770039558411
vt 0.1962890028953552 0.4602760076522827
vt 0.1834769994020462 0.4684560000896454
f 52/114/52 3/115/3 11/116/11
vt 0.1962890028953552 0.4836719930171967
vt 0.1962890028953552 0.4758760035037994
vt 0.1834769994020462 0.4848040044307709
f 64/117/64 11/118/11 2/119/2
vt 0.1962890028953552 0.4914689958095551
f 19/120/19 34/117/34 83/119/83
f 28/118/28 27/114/27 90/116/90
f 117/115/117 133/112/133 191/113/191
vt 0.1962890028953552 0.4992679953575134
vt 0.1834769994020462 0.4992679953575134
f 75/121/75 44/120/44 31/122/31
f 91/56/91 41/65/41 79/58/79
vt 0.1706639975309372 0.2105019986629486
vt 0.1706639975309372 0.2182819992303848
f 40/56/40 78/123/78 88/124/88
f 87/124/87 26/65/26 40/56/40
vt 0.1706639975309372 0.0078840004280210
vt 0.1706639975309372 0.0000000000000000
f 40/125/40 4/1/4 51/126/51
vt 0.1706639975309372 0.0235539991408587
f 160/127/160 169/4/169 108/30/108
vt 0.1706639975309372 0.0313519984483719
f 69/128/69 17/4/17 56/127/56
f 55/125/55 8/30/8 69/1/69
f 59/45/59 18/11/18 9/32/9
f 33/36/33 32/31/32 72/8/72
f 79/128/79 41/35/41 29/4/29
f 38/37/38 24/15/24 39/46/39
f 108/74/108 170/72/170 186/75/186
f 106/76/106 143/75/143 159/79/159
f 63/41/63 49/23/49 48/40/48
vt 0.1706639975309372 0.2575170099735260
vt 0.1706639975309372 0.2653670012950897
f 42/72/42 93/129/93 30/130/30
f 157/130/157 102/75/102 116/72/116
f 5/43/5 41/18/41 79/38/79
f 5/39/5 79/21/79 41/44/41
vt 0.1706639975309372 0.2731879949569702
vt 0.1706639975309372 0.2809860110282898
f 50/75/50 66/131/66 5/132/5
f 108/132/108 187/79/187 161/75/161
vt 0.1706639975309372 0.2417500019073486
vt 0.1706639975309372 0.2496339976787567
f 28/67/28 91/133/91 27/134/27
f 155/134/155 179/72/179 165/67/165
f 27/54/27 89/34/89 90/64/90
f 49/42/49 62/63/62 48/26/48
f 50/61/50 79/47/79 41/55/41
f 37/59/37 35/50/35 21/62/21
f 168/133/168 178/67/178 99/101/99
f 92/124/92 41/100/41 79/65/79
f 121/72/121 142/134/142 132/129/132
f 77/75/77 87/130/87 76/131/76
f 169/60/169 187/123/187 108/56/108
vt 0.1706639975309372 0.2887650132179260
f 46/132/46 6/135/6 74/79/74
vt 0.1706639975309372 0.2965309917926788
f 37/82/37 36/135/36 35/136/35
f 108/79/108 186/135/186 161/82/161
vt 0.1706639975309372 0.3042890131473541
vt 0.1706639975309372 0.3120419979095459
f 183/82/183 104/137/104 160/138/160
f 183/138/183 160/84/160 104/82/104
f 50/86/50 21/84/21 62/87/62
f 10/89/10 2/87/2 11/90/11
vt 0.1706639975309372 0.3197950124740601
vt 0.1706639975309372 0.3275530040264130
f 99/84/99 111/139/111 123/140/123
f 76/140/76 2/87/2 47/84/47
f 64/84/64 2/80/2 51/82/51
vt 0.1706639975309372 0.3353190124034882
f 50/87/50 49/140/49 63/141/63
f 155/82/155 100/136/100 164/137/164
f 31/84/31 20/138/20 85/139/85
vt 0.1706639975309372 0.3430989980697632
f 142/87/142 143/141/143 153/142/153
f 50/142/50 63/90/63 66/87/66
vt 0.1706639975309372 0.3508970141410828
vt 0.1706639975309372 0.3587180078029633
f 40/90/40 51/143/51 76/144/76
f 69/144/69 56/94/56 16/90/16
f 40/92/40 78/94/78 4/97/4
vt 0.1706639975309372 0.3823339939117432
vt 0.1706639975309372 0.3901839852333069
f 77/97/77 37/145/37 21/146/21
f 1/146/1 44/99/44 75/97/75
f 28/103/28 41/99/41 91/104/91
f 45/105/45 82/104/82 95/106/95
vt 0.1706639975309372 0.3980050086975098
vt 0.1706639975309372 0.4058020114898682
f 12/99/12 51/147/51 4/148/4
f 141/148/141 132/104/132 142/99/142
f 101/99/101 156/95/156 147/97/147
vt 0.1706639975309372 0.3665669858455658
vt 0.1706639975309372 0.3744510114192963
f 82/94/82 84/149/84 31/150/31
f 43/150/43 30/97/30 81/94/81
vt 0.1706639975309372 0.4291059970855713
vt 0.1706639975309372 0.4368590116500854
f 90/106/90 26/151/26 87/152/87
f 8/152/8 81/111/81 17/106/17
f 89/109/89 78/111/78 26/113/26
vt 0.1706639975309372 0.4601359963417053
vt 0.1706639975309372 0.4679160118103027
f 82/113/82 9/153/9 34/154/34
f 131/154/131 142/116/142 153/113/153
f 125/118/125 126/116/126 138/119/138
f 90/120/90 89/119/89 26/122/26
vt 0.1706639975309372 0.4757139980792999
vt 0.1706639975309372 0.4835340082645416
f 12/116/12 65/155/65 64/156/64
f 28/156/28 87/119/87 77/116/77
f 156/116/156 163/115/163 135/113/135
vt 0.1706639975309372 0.4446119964122772
vt 0.1706639975309372 0.4523699879646301
f 77/111/77 50/157/50 41/158/41
f 87/158/87 40/113/40 76/111/76
f 28/111/28 77/108/77 41/106/41
vt 0.1706639975309372 0.4135819971561432
vt 0.1706639975309372 0.4213480055332184
f 157/104/157 156/159/156 166/160/166
f 10/160/10 3/106/3 38/104/38
f 119/94/119 151/91/151 140/90/140
vt 0.1706639975309372 0.4913839995861053
vt 0.1706639975309372 0.4992679953575134
f 40/119/40 88/161/88 25/162/25
f 58/162/58 17/122/17 70/119/70
f 182/94/182 184/144/184 159/149/159
f 52/143/52 38/90/38 3/142/3
f 28/97/28 90/150/90 87/145/87
f 154/99/154 98/146/98 177/147/177
f 154/111/154 177/152/177 98/157/98
f 23/151/23 10/106/10 38/160/38
f 18/113/18 94/158/94 80/153/80
f 23/119/23 53/156/53 63/161/63
f 153/155/153 143/116/143 191/154/191
f 110/159/110 107/104/107 190/148/190
f 23/82/23 63/77/63 10/79/10
vt 0.1962890028953552 0.5070660114288330
f 36/122/36 22/163/22 35/121/35
vt 0.1834769994020462 0.5161589980125427
vt 0.1962890028953552 0.5148630142211914
f 166/164/166 181/165/181 102/163/102
vt 0.1834769994020462 0.5319979786872864
vt 0.1962890028953552 0.5304579734802246
vt 0.1962890028953552 0.5226590037345886
f 67/166/67 46/167/46 9/168/9
vt 0.1962890028953552 0.5382590293884277
f 183/166/183 117/169/117 184/167/184
f 23/164/23 39/168/39 53/165/53
vt 0.1834769994020462 0.5478370189666748
vt 0.1962890028953552 0.5538690090179443
vt 0.1962890028953552 0.5460630059242249
f 67/170/67 9/171/9 15/172/15
vt 0.1834769994020462 0.5636749863624573
vt 0.1962890028953552 0.5694829821586609
vt 0.1962890028953552 0.5616760253906250
f 118/173/118 105/174/105 191/175/191
vt 0.1834769994020462 0.5794360041618347
vt 0.1962890028953552 0.5772889852523804
f 178/176/178 154/177/154 177/174/177
f 58/173/58 70/175/70 57/171/57
f 131/170/131 153/172/153 122/169/122
vt 0.1834769994020462 0.5948420166969299
vt 0.1962890028953552 0.5928940176963806
vt 0.1962890028953552 0.5850930213928223
f 125/178/125 137/179/137 126/180/126
vt 0.1834769994020462 0.6102480292320251
vt 0.1962890028953552 0.6084889769554138
vt 0.1962890028953552 0.6006929874420166
f 157/181/157 163/182/163 156/183/156
vt 0.1962890028953552 0.6162859797477722
f 58/181/58 71/184/71 17/182/17
f 58/178/58 17/183/17 71/179/71
vt 0.1834769994020462 0.6256539821624756
vt 0.1962890028953552 0.6318830251693726
vt 0.1962890028953552 0.6240839958190918
f 108/185/108 161/186/161 151/187/151
vt 0.1834769994020462 0.6410599946975708
vt 0.1962890028953552 0.6474760174751282
vt 0.1962890028953552 0.6396800279617310
f 58/188/58 56/189/56 17/190/17
vt 0.1834769994020462 0.6564660072326660
vt 0.1962890028953552 0.6552749872207642
f 23/191/23 38/192/38 39/189/39
f 166/188/166 156/190/156 181/186/181
f 19/185/19 74/187/74 34/184/34
f 63/176/63 53/180/53 66/177/66
vt 0.1706639975309372 0.5228220224380493
vt 0.1706639975309372 0.5306190252304077
f 18/164/18 7/193/7 15/194/15
f 58/194/58 72/166/72 56/164/56
f 56/166/56 72/168/72 32/164/32
vt 0.1706639975309372 0.5539230108261108
vt 0.1706639975309372 0.5616760253906250
f 127/170/127 136/195/136 134/196/134
f 168/196/168 99/173/99 158/170/158
f 45/173/45 95/171/95 44/170/44
f 133/176/133 119/174/119 130/173/130
vt 0.1706639975309372 0.5694289803504944
vt 0.1706639975309372 0.5771870017051697
f 33/173/33 44/197/44 32/198/32
f 109/198/109 188/176/188 159/173/159
f 146/166/146 100/170/100 155/169/155
vt 0.1706639975309372 0.5383989810943604
vt 0.1706639975309372 0.5461649894714355
f 45/166/45 44/199/44 33/200/33
f 59/200/59 9/170/9 82/166/82
vt 0.1706639975309372 0.6005309820175171
vt 0.1706639975309372 0.6083509922027588
f 146/178/146 137/201/137 114/202/114
f 99/202/99 176/181/176 111/178/111
f 185/181/185 188/183/188 172/178/172
vt 0.1706639975309372 0.6319680213928223
vt 0.1706639975309372 0.6398180127143860
f 59/185/59 73/203/73 57/204/57
f 18/204/18 57/188/57 70/185/70
f 141/188/141 152/186/152 132/185/132
f 109/191/109 159/189/159 150/188/150
vt 0.1706639975309372 0.6476380228996277
vt 0.1706639975309372 0.6554359793663025
f 72/188/72 57/205/57 73/206/73
f 183/206/183 103/191/103 182/188/182
f 109/181/109 172/185/172 188/184/188
vt 0.1706639975309372 0.6162009835243225
vt 0.1706639975309372 0.6240839958190918
f 155/181/155 100/207/100 179/208/179
f 33/208/33 72/185/72 73/181/73
f 58/176/58 57/178/57 72/180/72
vt 0.1706639975309372 0.5849530100822449
vt 0.1706639975309372 0.5927330255508423
f 101/176/101 181/209/181 156/210/156
f 173/210/173 185/178/185 171/176/171
vt 0.1834769994020462 0.6718720197677612
vt 0.1962890028953552 0.6708800196647644
vt 0.1962890028953552 0.6630759835243225
f 8/211/8 17/212/17 69/213/69
vt 0.1834769994020462 0.6872779726982117
vt 0.1962890028953552 0.6864929795265198
vt 0.1962890028953552 0.6786860227584839
f 173/214/173 188/215/188 185/216/185
vt 0.1962890028953552 0.6942999958992004
f 47/214/47 60/217/60 22/215/22
f 33/211/33 73/216/73 59/212/59
vt 0.1706639975309372 0.6787400245666504
vt 0.1706639975309372 0.6864929795265198
f 109/211/109 162/218/162 172/219/172
f 13/219/13 5/214/5 66/211/66
f 109/214/109 121/216/121 162/211/162
vt 0.1834769994020462 0.7026839852333069
vt 0.1962890028953552 0.7099099755287170
vt 0.1962890028953552 0.7021059989929199
f 109/220/109 174/221/174 189/222/189
vt 0.1834769994020462 0.7180889844894409
vt 0.1962890028953552 0.7177109718322754
f 54/223/54 80/224/80 42/221/42
f 59/221/59 57/220/57 18/223/18
f 109/220/109 162/222/162 174/217/174
f 109/217/109 189/214/189 162/220/162
vt 0.1706639975309372 0.6942459940910339
vt 0.1706639975309372 0.7020040154457092
f 169/214/169 173/225/173 187/226/187
f 189/226/189 174/220/174 162/214/162
f 141/191/141 142/211/142 131/213/131
f 122/213/122 153/192/153 110/191/110
vt 0.1706639975309372 0.6632159948348999
vt 0.1706639975309372 0.6709820032119751
f 186/191/186 170/227/170 161/228/161
f 110/228/110 191/211/191 107/191/107
vt 0.1706639975309372 0.5071510076522827
vt 0.1706639975309372 0.5150009989738464
f 21/122/21 35/229/35 22/230/22
f 133/230/133 130/164/130 120/122/120
vt 0.1962890028953552 0.7255100011825562
f 110/223/110 153/231/153 191/224/191
vt 0.1834769994020462 0.7344369888305664
vt 0.1962890028953552 0.7411029934883118
vt 0.1962890028953552 0.7333059906959534
f 133/232/133 120/233/120 107/234/107
vt 0.1834769994020462 0.7489010095596313
vt 0.1962890028953552 0.7489010095596313
f 184/235/184 117/236/117 118/233/118
f 129/232/129 184/234/184 118/231/118
vt 0.1834769994020462 0.7657930254936218
vt 0.1962890028953552 0.7644969820976257
vt 0.1962890028953552 0.7566999793052673
f 121/237/121 150/238/150 142/239/142
f 183/239/183 182/235/182 160/237/160
vt 0.1962890028953552 0.7722929716110229
f 10/240/10 61/238/61 48/237/48
vt 0.1962890028953552 0.7800920009613037
vt 0.1834769994020462 0.7816320061683655
f 10/241/10 48/240/48 61/242/61
f 109/235/109 150/239/150 121/236/121
vt 0.1962890028953552 0.7956969738006592
vt 0.1962890028953552 0.7878929972648621
vt 0.1834769994020462 0.7974699735641479
f 142/243/142 150/244/150 143/245/143
vt 0.1962890028953552 0.8113099932670593
vt 0.1962890028953552 0.8035029768943787
vt 0.1834769994020462 0.8133090138435364
f 121/246/121 132/247/132 152/248/152
vt 0.1962890028953552 0.8191170096397400
f 160/249/160 108/246/108 151/248/151
f 154/247/154 100/243/100 114/245/114
vt 0.1962890028953552 0.8347269892692566
vt 0.1962890028953552 0.8269230127334595
vt 0.1834769994020462 0.8290699720382690
f 191/250/191 133/251/133 107/252/107
vt 0.1962890028953552 0.8503260016441345
vt 0.1962890028953552 0.8425279855728149
vt 0.1834769994020462 0.8444759845733643
f 160/253/160 119/254/119 133/255/133
vt 0.1962890028953552 0.8581230044364929
vt 0.1834769994020462 0.8598819971084595
f 148/256/148 134/253/134 136/257/136
f 159/254/159 143/250/143 150/255/150
f 80/251/80 94/249/94 93/252/93
f 159/244/159 188/241/188 169/242/169
vt 0.1962890028953552 0.8737180233001709
vt 0.1962890028953552 0.8659200072288513
vt 0.1834769994020462 0.8752880096435547
f 40/258/40 25/259/25 78/260/78
vt 0.1962890028953552 0.8893129825592041
vt 0.1962890028953552 0.8815169930458069
vt 0.1834769994020462 0.8906930088996887
f 129/261/129 143/262/143 106/263/106
vt 0.1962890028953552 0.8971099853515625
f 129/264/129 106/261/106 184/263/184
f 182/262/182 103/258/103 184/260/184
vt 0.1706639975309372 0.7253469824790955
vt 0.1706639975309372 0.7331680059432983
f 106/223/106 159/265/159 184/266/184
f 92/266/92 79/232/79 29/223/29
f 129/223/129 118/232/118 128/231/128
vt 0.1962890028953552 0.9049090147018433
vt 0.1834769994020462 0.9060990214347839
vt 0.1962890028953552 0.9127100110054016
f 129/267/129 128/268/128 143/269/143
f 25/235/25 88/233/88 78/232/78
vt 0.1834769994020462 0.9215049743652344
vt 0.1962890028953552 0.9205139875411987
f 128/269/128 118/270/118 143/271/143
f 118/268/118 191/267/191 143/264/143
vt 0.1706639975309372 0.7410179972648621
vt 0.1706639975309372 0.7489010095596313
f 82/232/82 34/272/34 84/273/84
f 182/273/182 159/235/159 169/232/169
f 118/259/118 117/256/117 105/257/105
vt 0.1962890028953552 0.9283199906349182
f 67/274/67 6/271/6 46/270/46
vt 0.1962890028953552 0.9439340233802795
vt 0.1962890028953552 0.9361270070075989
vt 0.1834769994020462 0.9369109869003296
f 187/275/187 171/276/171 161/277/161
vt 0.1962890028953552 0.9517400264739990
vt 0.1834769994020462 0.9523169994354248
f 148/278/148 116/275/116 127/279/127
f 148/276/148 157/274/157 116/277/116
vt 0.1962890028953552 0.9673449993133545
vt 0.1962890028953552 0.9595429897308350
vt 0.1834769994020462 0.9677230119705200
f 101/280/101 147/281/147 115/282/115
vt 0.1962890028953552 0.9829400181770325
vt 0.1962890028953552 0.9751430153846741
vt 0.1834769994020462 0.9840710163116455
f 148/283/148 163/284/163 157/285/157
vt 0.1962890028953552 0.9907360076904297
f 115/286/115 138/283/138 126/285/126
f 125/284/125 114/280/114 137/282/137
f 115/281/115 147/278/147 138/279/138
vt 0.1962890028953552 0.9985349774360657
vt 0.1834769994020462 0.9985349774360657
f 12/287/12 64/286/64 51/288/51
vt 0.1706639975309372 0.7097700238227844
vt 0.1706639975309372 0.7175499796867371
f 56/220/56 32/289/32 44/290/44
f 146/290/146 114/223/114 100/220/100
f 155/162/155 165/229/165 100/122/100
f 165/193/165 179/164/179 100/230/100
f 154/197/154 124/173/124 177/196/177
f 145/200/145 114/195/114 125/170/125
f 54/194/54 7/199/7 80/166/80
f 168/209/168 180/176/180 178/198/178
# 308 faces, 290 coords texture

# End of File
