####
#
# OBJ File Generated by Meshlab
#
####
# Object torso_base_link_4.obj
#
# Vertices: 410
# Faces: 556
#
####
mtllib ./torso_base_link_4.obj.mtl

vn 5.5317059169887086 -2.3317787746824514 1.8551158366394631
v 0.1113183478260870 0.0229866521739130 0.0370855217391304
vn 3.3829084727546359 -1.3278277027540093 1.3929824943593021
v 0.1047142698412699 0.0161868571428571 0.0481901375661376
vn 2.7280852723566182 -1.0708532608527619 1.1232771243309199
v 0.1034959551020409 0.0162435061224490 0.0512027591836735
vn 3.0819180677051055 -1.2097151422460097 1.2691515245129374
v 0.1063185057471264 0.0183256206896552 0.0463328965517242
vn 2.3078434662636611 -0.8261637550722674 0.8633234327289065
v 0.1035368000000000 0.0201696000000000 0.0548462000000000
vn 2.4371543099276427 -1.1161962455481051 0.8511543881134546
v 0.1042064285714286 0.0218330000000000 0.0548043571428571
vn 5.4178132887894632 -2.1449515690405025 2.3479741570610284
v 0.1039629666666666 0.0207960333333333 0.0544075333333334
vn 2.5651346056829762 -1.0446984940556030 1.1925937664434816
v 0.1038817268041237 0.0306005979381443 0.0629507422680413
vn 3.0331778347061036 -1.1858314162507677 1.2512400757828643
v 0.1035242677824268 0.0192067698744770 0.0539583138075314
vn 2.9615075751510549 -1.1699982547780907 1.2247187790213183
v 0.1046444738738739 0.0223660450450450 0.0542491099099099
vn 2.6213184682060149 -1.0193540349416368 1.1573367238325840
v 0.1037994324324325 0.0211733603603604 0.0551046846846847
vn 2.1587212525615831 -0.8789982095412199 1.0036384463308636
v 0.1045590454545454 0.0315206590909091 0.0622997443181818
vn 2.2134212980289787 -0.9014900111745281 1.0289291329221912
v 0.1030230473251029 0.0292677613168724 0.0636301913580247
vn 5.3454667045974729 -2.1760868659186308 2.4837567472649287
v 0.1018145384615385 0.0249264615384615 0.0624261794871795
vn 1.9737892566813806 -0.8043624638687118 0.9176882806734400
v 0.1016103571428571 0.0234973367346939 0.0616132040816326
vn 2.0539793207056345 -0.9225801125627633 0.8459669907515294
v 0.1074850833333333 0.0275477222222222 0.0525242777777778
vn 1.8598733859972254 -0.7579967648101784 0.8653766060151037
v 0.1065170000000000 0.0276890000000000 0.0547310000000000
vn 2.5024353635795782 -1.0185508205567677 1.1625093098384793
v 0.1016079752475248 0.0247126485148515 0.0626835594059406
vn -1.6551144761093830 2.2850785272581247 -1.0165065992950495
v 0.1067618641975309 0.0314633703703704 0.0575104444444444
vn 5.2089540216103032 -2.3131927851407981 2.6329791018953381
v 0.1065010000000000 0.0302660000000000 0.0570220000000000
vn 5.3450592686806297 -2.1768152547122681 2.4839953176546090
v 0.1036870000000000 0.0255530000000000 0.0589473333333333
vn 2.8523155321003504 -1.1617684525984939 1.3258661767442039
v 0.1021369330985915 0.0233614788732395 0.0603615492957747
vn 5.3714301412262992 -2.4076317815723036 2.1975997070402413
v 0.1108334255319149 0.0337731276595745 0.0511566382978723
vn 5.3712312897479970 -2.4059616301508040 2.1999183286702886
v 0.1093726470588235 0.0320961764705882 0.0528891764705882
vn 2.4821306047928902 -1.1112144077291859 1.0169369651857876
v 0.1077304326241132 0.0288908605200947 0.0533933546099289
vn 5.3449725368050292 -2.1768093257224170 2.4841868555394560
v 0.1045159000000000 0.0294181000000000 0.0605511000000000
vn 2.5792464261520331 -1.0461283478494321 1.2267062396822122
v 0.1062826854166667 0.0316462375000000 0.0587017416666666
vn 2.8936178630187603 -1.3471119263146945 1.4896105481387896
v 0.1077630844594595 0.0313578006756756 0.0556429020270270
vn 1.9421739656126205 -0.7911722200886299 0.9031159945049945
v 0.1061228024691359 0.0265673209876543 0.0545957160493827
vn 2.3646294971238473 -0.9631970165370620 1.0991030376483650
v 0.1047065167597765 0.0243400363128492 0.0556906731843575
vn 2.3959561134706737 -0.9753302319691215 1.1128614471819835
v 0.1016796942675160 0.0253022993630573 0.0630458853503184
vn 5.3447885453102275 -2.1768574363097364 2.4845411248871909
v 0.1029879047619048 0.0262090000000000 0.0610256190476191
vn 5.3449330840433316 -2.1767344195102796 2.4843379565538983
v 0.1046194000000000 0.0270038000000000 0.0582122000000000
vn 3.9003173531959714 -1.6401256080659499 1.8189910081703067
v 0.1063146086956522 0.0284876695652174 0.0558655478260869
vn 5.3449708513794523 -2.1767440206795445 2.4842482384449993
v 0.1029812983193276 0.0231960630252101 0.0583998193277312
vn 2.2185184645162597 -0.8707414368067999 0.9135541070002653
v 0.1053654770017037 0.0235362385008518 0.0536135826235093
vn 5.3712803956798432 -2.4245231783380250 2.1789898366076681
v 0.1112791111111111 0.0355834814814815 0.0520483148148148
vn 3.4759478000566326 -1.5779219303400236 1.5218009732507443
v 0.1082595022831050 0.0306954383561644 0.0540750684931507
vn 2.4264465567250864 -0.9880675763859760 1.1278078908575193
v 0.1051323932203389 0.0317827694915254 0.0612960508474576
vn 5.3445497513645703 -2.1772942204590793 2.4846720687008017
v 0.1038278846153846 0.0283771153846154 0.0611185000000000
vn 5.3451322614761780 -2.1765426370633039 2.4840771566422615
v 0.1053912058823530 0.0290285882352941 0.0583252941176471
vn 2.4043471713616951 -1.1590096522320565 0.7012436163748584
v 0.1066820326086956 0.0290919673913043 0.0556045434782609
vn 3.0764126350209891 -1.2530469560125417 1.4301077184142821
v 0.1055660000000000 0.0259452328767123 0.0552483470319634
vn 3.7952199435013534 -1.4877383433720697 1.7913528756940051
v 0.1038665826086957 0.0232641043478261 0.0565550260869565
vn 1.9236768597376304 -0.7552246960373261 0.7923196442826268
v 0.1030366147859922 0.0167542568093385 0.0528050661478599
vn 2.5185081961195896 -1.0257370671403561 1.1705944434987969
v 0.1020169271758436 0.0264992877442273 0.0633689236234458
vn 2.7979875782011083 -1.1101329424043092 1.3143255202971973
v 0.1029289075829386 0.0225932914691943 0.0579844857819905
vn 5.5319580109163979 -2.3310492742037452 1.8552806011392209
v 0.1117680000000000 0.0272097727272727 0.0410522272727273
vn 5.5316505348667517 -2.3318479092536082 1.8551938476769174
v 0.1114510000000000 0.0244190000000000 0.0384910000000000
vn 2.7776842408121389 -1.3056488436920946 1.3685421123444845
v 0.1117870180180180 0.0425860090090090 0.0581539369369370
vn 2.2674812948143286 -0.9807691175999601 0.9234459857346349
v 0.1114352500000000 0.0362202500000000 0.0523625000000000
vn 5.3710934506874803 -2.4060300870839351 2.2001778311254183
v 0.1116050000000000 0.0322750000000000 0.0476350000000000
vn 5.1921740336096383 -2.4251134846278810 2.5755397407130731
v 0.1117035000000000 0.0418256562500000 0.0575979375000000
vn -2.4255723884595866 -1.1269994067273474 1.1771795013095443
v -0.1064112884615384 0.0357329711538462 0.0626652884615385
vn -5.5308461920974823 -2.3327548894198737 1.8564462967949478
v -0.1091390000000000 0.0225010000000000 0.0429730000000000
vn -5.5317248571185695 -2.3316715401213726 1.8551941330578936
v -0.1101744800000000 0.0238901600000000 0.0416319600000000
vn -2.1420396592916413 -0.9958099326476217 1.0400170224946428
v -0.1071830000000002 0.0386504491525423 0.0638687648305086
vn -2.7441995795750893 -1.2756401304267615 1.3323622113641642
v -0.1092189444444444 0.0419373162393162 0.0628219914529914
vn -2.2847035207018318 -1.0623984064382852 1.1091958965430044
v -0.1107704515235457 0.0429668227146814 0.0606125955678671
vn -2.7451012075429633 -1.0775563692146455 1.1306899551468723
v -0.1076600500000000 0.0217708590909091 0.0463585909090909
vn -5.4622908046216239 -2.1417051239732028 2.2483047554914704
v -0.1062720000000000 0.0211010000000000 0.0490920000000000
vn -5.4614655860244090 -2.1433954793235377 2.2487033759948405
v -0.1047537419354838 0.0191269677419355 0.0508969354838710
vn -2.1209573881392316 -0.9843109379861774 1.0285038189151365
v -0.1062867333333333 0.0348367333333333 0.0620639333333333
vn -2.2674812948144281 -0.9807691175997090 0.9234459857346361
v -0.1114352500000000 0.0362202500000000 0.0523625000000000
vn -5.3710934506874883 -2.4060300870839249 2.2001778311254099
v -0.1116050000000000 0.0322750000000000 0.0476350000000000
vn -5.5318914430130288 -2.3311368465335978 1.8553690622511274
v -0.1110408648648649 0.0262104054054054 0.0419653783783784
vn -5.5316107357737341 -2.3319317817805998 1.8552073640669462
v -0.1109992105263158 0.0238371578947368 0.0391065789473684
vn -2.3384031068303872 -0.9853846984960842 0.7838586172275975
v -0.1086102738461538 0.0220872630769231 0.0440304200000000
vn -2.3050570539550730 -1.0713755300306538 1.1191180790877082
v -0.1083852850678735 0.0408647647058823 0.0635124162895928
vn -5.1921740336096356 -2.4251134846278912 2.5755397407130669
v -0.1117035000000000 0.0418256562500000 0.0575979375000000
vn -2.6677090938158448 -1.2399120748658079 1.2952876089676213
v -0.1112982432432432 0.0427173513513514 0.0592864054054054
vn -6.6430658809171268 -3.0855653453926224 3.2166632693248798
v -0.1072155000000000 0.0392890000000000 0.0644131250000000
vn -5.4614229729231925 -2.1432750058788446 2.2489217059481152
v -0.1055787321428572 0.0214290892857143 0.0510873035714286
vn -5.4614098923409857 -2.1435050845296386 2.2487341873922997
v -0.1057079534883721 0.0189774418604651 0.0484368139534884
vn -1.9355327074567539 -0.7596068763611449 0.7971070118928636
v -0.1070083000000000 0.0193031400000000 0.0455895650000000
vn -5.4615670143496065 -2.1427283224466729 2.2490920991775334
v -0.1041250000000000 0.0187260000000000 0.0520420000000000
vn -2.0137709315072940 -0.7904104847306573 0.8292247115596896
v -0.1056503990024937 0.0169253516209476 0.0466205486284288
vn -2.1941334584251058 -1.0189793372411542 1.0653417512207830
v -0.1064719918699186 0.0344269674796748 0.0612901707317073
vn -2.6783469433777363 -1.2237028001572239 1.1185245260979149
v -0.1108122939393939 0.0358132090909091 0.0534598333333334
vn 1.3614709201329358 -0.1155438992897790 -0.5471517066761813
v -0.1091255890410960 0.0338995342465754 0.0553581780821918
vn -5.2788304137254558 -2.3989296024389000 2.4080707678448272
v -0.1089860000000000 0.0327050000000000 0.0545000000000000
vn -5.3711017369420375 -2.4059416014739092 2.2002562736137570
v -0.1108601428571429 0.0313375428571429 0.0484272000000000
vn -5.3712510675690233 -2.4056994035522035 2.2001564135498684
v -0.1091880000000000 0.0291860000000000 0.0501580000000000
vn -5.3712124806898629 -2.4061259167472384 2.1997845246841701
v -0.1088830000000000 0.0279430000000000 0.0495430000000000
vn -5.5319580109163908 -2.3310492742037563 1.8552806011392229
v -0.1117680000000000 0.0272097727272727 0.0410522272727273
vn -3.9044037963758829 -1.6487499597313731 1.3943248456635631
v -0.1105027730496453 0.0268478439716312 0.0443705177304965
vn -3.9416783584546327 -1.4554635955466839 1.1462416805077154
v -0.1093066041666667 0.0247995833333333 0.0453631041666667
vn -5.5316505348667482 -2.3318479092536037 1.8551938476769358
v -0.1114510000000000 0.0244190000000000 0.0384910000000000
vn -3.7522765185583324 -1.5245731903416853 1.3549532189177516
v -0.1088720802469135 0.0231998765432099 0.0446484567901235
vn -2.7903344783943167 -1.1763829392498502 0.9359935420904739
v -0.1086682624434389 0.0205549457013575 0.0419315927601810
vn -2.5972707712915901 -1.0927323270548508 0.8708563050494574
v -0.1089857777777778 0.0199397777777778 0.0402118888888889
vn -5.5317507818251190 -2.3316945037382992 1.8550879338647972
v -0.1090320000000000 0.0201500000000000 0.0403380000000000
vn -5.5318191327713055 -2.3316833485766031 1.8548982180550746
v -0.1098921328671329 0.0210284615384615 0.0388771958041958
vn -5.2136364040401411 -2.4238369176821721 2.5340498597415069
v -0.1092450000000000 0.0395080000000000 0.0604440000000000
vn -5.2118572885827508 -2.4242469209090260 2.5372982933317374
v -0.1108650370370371 0.0409666666666667 0.0585030740740741
vn -2.7776842408121345 -1.3056488436920919 1.3685421123444899
v -0.1117870180180180 0.0425860090090090 0.0581539369369370
vn -2.8450693132022846 -1.1166476684531208 1.1716190406426856
v -0.1063502543859648 0.0242592368421053 0.0519111578947368
vn -2.7260523909613164 -1.2076167899522872 1.1036155932820439
v -0.1127421673469387 0.0354878693877551 0.0483717142857143
vn -3.6873470177957568 -1.7841980388297944 1.3878423780168327
v -0.1157207403846154 0.0383419711538461 0.0442622500000000
vn -2.8660214772332147 -1.3984573783479310 1.2125841048529411
v -0.1158777387387387 0.0403222162162162 0.0464672162162162
vn -2.5651346056829709 -1.0446984940556008 1.1925937664434811
v -0.1038817268041237 0.0306005979381443 0.0629507422680413
vn -5.4178132887894588 -2.1449515690405057 2.3479741570610386
v -0.1039629666666666 0.0207960333333333 0.0544075333333334
vn -2.4371543099276378 -1.1161962455478136 0.8511543881138639
v -0.1042064285714286 0.0218330000000000 0.0548043571428571
vn -2.3078434662636611 -0.8261637550722674 0.8633234327289065
v -0.1035368000000000 0.0201696000000000 0.0548462000000000
vn -2.6610916476453568 -1.1912796763506106 1.0884314089338329
v -0.1119026212534059 0.0359909427792915 0.0509713487738419
vn -5.3719219492818073 -2.4057729082403423 2.1984370319464768
v -0.1122610106382979 0.0342382659574468 0.0481798297872341
vn -2.7576020609550524 -1.3443548950562219 1.1250619712057162
v -0.1151612094861663 0.0390590899209485 0.0467026521739129
vn -2.2134212980289822 -0.9014900111745219 1.0289291329221899
v -0.1030230473251029 0.0292677613168724 0.0636301913580247
vn -2.1587212525615795 -0.8789982095412299 1.0036384463308758
v -0.1045590454545454 0.0315206590909091 0.0622997443181818
vn -2.6213184682060193 -1.0193540349416224 1.1573367238326113
v -0.1037994324324325 0.0211733603603604 0.0551046846846847
vn -2.9615075751510442 -1.1699982547780703 1.2247187790213359
v -0.1046444738738739 0.0223660450450450 0.0542491099099099
vn -3.0331778347061036 -1.1858314162507693 1.2512400757828661
v -0.1035242677824268 0.0192067698744770 0.0539583138075314
vn -5.3712803956798343 -2.4245231783381938 2.1789898366074971
v -0.1112791111111111 0.0355834814814815 0.0520483148148148
vn -3.4759478000566268 -1.5779219303400058 1.5218009732506341
v -0.1082595022831050 0.0306954383561644 0.0540750684931507
vn -2.5989496592330230 -1.2581517051773772 0.9877442235618485
v -0.1183066428571429 0.0381578791208791 0.0372227582417582
vn -5.3508776900769313 -2.5905010212715727 2.0336739654394669
v -0.1168284615384616 0.0364497692307692 0.0389365000000000
vn -2.1710764978133428 -1.0588248439163568 0.9184110473121272
v -0.1178987337192475 0.0463830492040522 0.0486759319826338
vn -3.7952199435013538 -1.4877383433720692 1.7913528756940025
v -0.1038665826086957 0.0232641043478261 0.0565550260869565
vn -3.0764126350210002 -1.2530469560125388 1.4301077184142903
v -0.1055660000000000 0.0259452328767123 0.0552483470319634
vn -2.4043471713617608 -1.1590096522322442 0.7012436163744278
v -0.1066820326086956 0.0290919673913043 0.0556045434782609
vn -5.3451322614761798 -2.1765426370633181 2.4840771566422442
v -0.1053912058823530 0.0290285882352941 0.0583252941176471
vn -5.3445497513645748 -2.1772942204590748 2.4846720687007982
v -0.1038278846153846 0.0283771153846154 0.0611185000000000
vn -2.4264465567250744 -0.9880675763859903 1.1278078908575282
v -0.1051323932203389 0.0317827694915254 0.0612960508474576
vn -2.2185184645162663 -0.8707414368068030 0.9135541070002648
v -0.1053654770017037 0.0235362385008518 0.0536135826235093
vn -5.2147626945600321 -2.4236261731983042 2.5319367162522295
v -0.1073199357798165 0.0357632477064220 0.0608223761467890
vn -3.2193178473191857 -1.4249325797208701 1.3177239723249563
v -0.1102242117263845 0.0283134560260586 0.0466733127035831
vn -2.5875406775526124 -1.1623951481991495 1.0749150781153098
v -0.1091766496815287 0.0269958089171975 0.0477899681528662
vn -2.4416712239732425 -1.0886571346413547 0.9980497338194247
v -0.1077982018561485 0.0270641392111369 0.0512366589327147
vn -6.1562210986967596 -2.6102833381191881 2.0703868189881898
v -0.1123280000000000 0.0240694285714286 0.0354362857142857
vn -2.5272666670628681 -1.0652316452935793 0.8476054464008385
v -0.1130221574803152 0.0288417926509186 0.0393641233595801
vn -2.5111542509161300 -1.0584138397325953 0.8420511615944870
v -0.1127769366602688 0.0258688522072937 0.0363589117082534
vn -2.0559768403677996 -0.8667116944026273 0.6894214326950616
v -0.1099656144578313 0.0202177590361446 0.0376388795180723
vn -2.7055437860999194 -1.3100572046627297 1.0284403399356739
v -0.1136419867109635 0.0314917076411960 0.0410058604651163
vn -2.5370363869857568 -1.2280918423423715 0.9640079618682934
v -0.1143281912045887 0.0314338642447419 0.0391265946462715
vn -5.2458268356497619 -2.6007591859530628 2.2784416187710894
v -0.1135176122448979 0.0424878163265306 0.0545430612244898
vn -1.6353466708156528 -0.7990953338596101 0.6918555582077933
v -0.1141770365853659 0.0441316097560975 0.0548787317073171
vn -2.3804468914397789 -1.1606539052796347 1.0072401665887811
v -0.1154888007181328 0.0457596122082585 0.0536543752244168
vn -2.3750238512919175 -1.1033721858499859 1.1561808316644666
v -0.1077317251461989 0.0339507270955166 0.0582391715399610
vn -5.2149406324027110 -2.4238798805770858 2.5313267817014609
v -0.1093368000000000 0.0368248000000000 0.0576844000000000
vn -5.2088472105340680 -2.4539358682018633 2.5142283876650415
v -0.1110062020202020 0.0379837878787879 0.0553562727272728
vn -1.9737892566813797 -0.8043624638687067 0.9176882806734369
v -0.1016103571428571 0.0234973367346939 0.0616132040816326
vn -2.5470866229618783 -0.9999393863588903 1.0489772588770168
v -0.1076658098591549 0.0243315598591549 0.0487853485915493
vn -2.0272057804649450 -0.9077966709482413 0.8310260959467756
v -0.1114887272727273 0.0299606363636364 0.0453880000000000
vn -2.0174421409734928 -0.9769389994331561 0.7667934110292336
v -0.1131224255319149 0.0321055319148936 0.0431550000000000
vn -3.3047473031214598 -1.6218948359117458 1.4270157150329457
v -0.1130208431952663 0.0409965355029586 0.0539984230769232
vn -2.5881359503725427 -1.2030038243175840 1.2565916324232735
v -0.1067260777385162 0.0369549081272085 0.0631861554770318
vn -2.8255470241522564 -1.3195192216563632 1.2493504515824101
v -0.1116158571428571 0.0392292000000000 0.0552928285714286
vn -2.5024353635795666 -1.0185508205567539 1.1625093098384807
v -0.1016079752475248 0.0247126485148515 0.0626835594059406
vn -5.4616415542300816 -2.1431004982396047 2.2485567575746370
v -0.1067648571428571 0.0216216666666667 0.0483899047619048
vn -5.4610960084303617 -2.1439758797113941 2.2490473292183366
v -0.1044490000000000 0.0174720000000000 0.0500590000000000
vn -2.7039439751450054 -1.0612991816705035 1.1134173733507280
v -0.1039806753246752 0.0157119350649351 0.0495189870129870
vn -1.4758899156795460 -0.5794287627606233 0.6076845192180111
v -0.1043110000000000 0.0153991333333333 0.0484184666666667
vn -5.3713648388657802 -2.4056724709354040 2.1999073911535314
v -0.1112757692307692 0.0306728461538462 0.0466866923076923
vn -2.5389046375458331 -1.1361155906597751 1.0391998387560357
v -0.1085489551020409 0.0268807163265306 0.0491967836734694
vn -2.4745015195868261 -1.0432139275168084 0.8298351045620054
v -0.1125211740259741 0.0291240727272727 0.0412128545454546
vn -2.3668505973942660 -0.9978305593246888 0.7934080442037537
v -0.1111238055555555 0.0280402222222222 0.0440174841269841
vn -2.5452536341538048 -1.0728273125028924 0.8536201305326465
v -0.1120254980544745 0.0237464357976654 0.0359319591439688
vn -2.9186105507346838 -1.2301426551298087 0.9789401361911769
v -0.1108085812356979 0.0216056750572082 0.0368700526315789
vn -5.3505109046880586 -2.5912124073981597 2.0337320544460522
v -0.1139684126984127 0.0318317460317460 0.0405805396825397
vn -2.2534150326084603 -1.0891779654913647 0.8563478663358108
v -0.1138123333333333 0.0312493333333333 0.0402493333333333
vn -3.5041992486045652 -1.7462522594052712 1.5713925948543161
v -0.1134621084337346 0.0428955060240964 0.0551409116465864
vn -3.5571335224017018 -1.7350275862760145 1.5053937268763145
v -0.1144683943089430 0.0441384186991869 0.0541979105691057
vn -2.7566877260795328 -1.2807667124891358 1.3381645763468213
v -0.1068346042780749 0.0344105561497327 0.0605275133689839
vn -5.2144435058345184 -2.4205215841943861 2.5355553169391070
v -0.1085703846153846 0.0354978974358974 0.0579930256410256
vn -2.6917833127522339 -1.5439705523613734 1.5246744334753335
v -0.1110993152173914 0.0374892880434783 0.0546911250000000
vn -5.1966857787241540 -2.4416518668276561 2.5514814732169975
v -0.1113660000000000 0.0399000000000000 0.0564500000000000
vn -2.0430187348105466 -0.8019158127177131 0.8412652987956195
v -0.1070494899193547 0.0249163286290323 0.0508395161290323
vn -2.9042907226316084 -1.4058071962222540 1.1035865250330801
v -0.1165500312500001 0.0394479687500000 0.0434889218750000
vn -3.7124728091108459 -1.5213181621821339 1.5483525252484756
v -0.1134915000000000 0.0351412777777778 0.0460584444444444
vn -5.3570180821763280 -2.5870744766669524 2.0216717418803007
v -0.1148080125000000 0.0363304125000000 0.0441011875000000
vn -3.3755573734962727 -1.6343353542066021 1.2541696143361325
v -0.1134005212464589 0.0334302294617564 0.0441109886685552
vn -2.1484970946010153 -1.0480100467934763 0.9088600248546740
v -0.1134787090909091 0.0379717272727272 0.0494293909090910
vn -5.2790308366698406 -2.5734589626145112 2.2332842152014192
v -0.1136121818181818 0.0402789090909091 0.0517739090909091
vn -5.2790332299374603 -2.5737723268473522 2.2329173571350416
v -0.1140400000000000 0.0397300000000000 0.0501300000000000
vn -5.2790375086214434 -2.5741741750206066 2.2324442136689093
v -0.1152861960784314 0.0407298039215686 0.0483354313725490
vn -1.9876383798727177 -0.9692190490622687 0.8408005127233236
v -0.1168033599999999 0.0416173800000000 0.0457720199999999
vn -5.3454667045974649 -2.1760868659186383 2.4837567472649367
v -0.1018145384615385 0.0249264615384615 0.0624261794871795
vn -2.5016001830198418 -1.2108026062508235 0.9506646349251309
v -0.1177726532258066 0.0402984903225806 0.0413546887096774
vn -5.3509081438223474 -2.5905950548534880 2.0334740522934465
v -0.1180986423357665 0.0391103503649635 0.0389832262773723
vn -2.2633888217820903 -1.0956940292856485 0.8601717188851252
v -0.1175654169491524 0.0357615694915254 0.0361206983050848
vn -5.3506043212373715 -2.5912146854740685 2.0334818891626152
v -0.1161650000000000 0.0356440000000000 0.0396550000000000
vn -5.3511394061325817 -2.5903321212078634 2.0332004125146277
v -0.1144976176470588 0.0334588235294117 0.0412606176470588
vn -5.2788008300906073 -2.5741968452092281 2.2329777728317346
v -0.1153565686274510 0.0434060000000000 0.0512541764705883
vn -2.1408035437000725 -1.0439889852717366 0.9057802230417324
v -0.1179672297297297 0.0451806216216216 0.0471281418918919
vn -5.3449708513794549 -2.1767440206795361 2.4842482384450024
v -0.1029812983193276 0.0231960630252101 0.0583998193277312
vn -3.9003173531959447 -1.6401256080659856 1.8189910081702785
v -0.1063146086956522 0.0284876695652174 0.0558655478260869
vn -5.3449330840433360 -2.1767344195102813 2.4843379565538886
v -0.1046194000000000 0.0270038000000000 0.0582122000000000
vn -5.3447885453102320 -2.1768574363097453 2.4845411248871727
v -0.1029879047619048 0.0262090000000000 0.0610256190476191
vn -2.0539793207056483 -0.9225801125627487 0.8459669907515247
v -0.1074850833333333 0.0275477222222222 0.0525242777777778
vn -5.3510870646441520 -2.5903266994568801 2.0333451030352960
v -0.1172780230769230 0.0391474384615384 0.0411902461538461
vn -2.2712809601904089 -1.0994632988486654 0.8631436726603161
v -0.1166928410914929 0.0340237977528090 0.0362031508828250
vn -5.3512148159586195 -2.5902603214768432 2.0330933612558848
v -0.1154604000000000 0.0357690000000000 0.0416698000000000
vn -5.3508266349972349 -2.5906976216451514 2.0335578442333859
v -0.1137490000000000 0.0328720000000000 0.0424830000000000
vn -5.3511426277107521 -2.5900875605792413 2.0335035101111996
v -0.1154128648648649 0.0334223918918919 0.0388052837837838
vn -2.4858931940066640 -1.2035299296094402 0.9446469861343236
v -0.1183894535211268 0.0400786253521127 0.0394516676056338
vn -1.9477411624714613 -0.9430200830125173 0.7402827654004782
v -0.1187002000000000 0.0396145000000000 0.0380427000000000
vn -5.2796695515726926 -2.5732569463741770 2.2320057296170344
v -0.1158695000000000 0.0427845000000000 0.0493255000000000
vn -2.5732379293904444 -1.2547806665526746 1.0888600543147056
v -0.1174232866242038 0.0434198598726115 0.0463843184713376
vn -5.2795031684219449 -2.5743398511195803 2.2311474975175694
v -0.1162130000000000 0.0453270000000000 0.0514450000000000
vn -2.0206930703409784 -0.9838404740395648 0.8548049934115614
v -0.1168755625000000 0.0471616875000000 0.0519916875000000
vn -2.8523155321003562 -1.1617684525984895 1.3258661767442006
v -0.1021369330985915 0.0233614788732395 0.0603615492957747
vn -5.3450592686806164 -2.1768152547122730 2.4839953176546339
v -0.1036870000000000 0.0255530000000000 0.0589473333333333
vn -5.2089540216102010 -2.3131927851409251 2.6329791018954145
v -0.1065010000000000 0.0302660000000000 0.0570220000000000
vn 1.6551144761087533 2.2850785272585625 -1.0165065992948321
v -0.1067618641975308 0.0314633703703704 0.0575104444444444
vn -1.8598733859972165 -0.7579967648101861 0.8653766060151408
v -0.1065170000000000 0.0276890000000000 0.0547310000000000
vn -5.2155716575774491 -2.4226309297517457 2.5312203947224892
v -0.1065470000000000 0.0351040000000000 0.0617830000000000
vn -3.8694594550984940 -1.8040904786729779 1.8978282902618708
v -0.1086613452380952 0.0340932321428571 0.0564724464285714
vn -3.5809237819183641 -1.6101943041806535 1.5231311014490534
v -0.1096692806629833 0.0339110950276244 0.0541496939226520
vn -5.3713356133459698 -2.4057057592263527 2.1999433960397514
v -0.1097365000000000 0.0310122692307692 0.0508152307692308
vn -5.3711417053899178 -2.3997270644234736 2.2068917721175492
v -0.1096743846153846 0.0284112820512821 0.0481224871794872
vn -5.3739955720309567 -2.4009154380680848 2.1986716486780802
v -0.1082010606060606 0.0282788888888889 0.0515749595959596
vn -2.6112182060810336 -1.0575505805297571 1.0520612936576652
v -0.1080825464480874 0.0233283661202186 0.0468176994535519
vn -2.0789083770601784 -0.8762219936834444 0.6971769142004456
v -0.1133185344827586 0.0280414827586207 0.0374745172413793
vn -2.5160319276897218 -1.0831921491727237 1.0083436561429420
v -0.1097545705765410 0.0272152524850895 0.0466542942345925
vn -5.5318704474227411 -2.3313592813959878 1.8551524787432245
v -0.1121445111111111 0.0264374222222222 0.0389596222222222
vn -5.5136549754127122 -2.3162767914894613 1.9247594728332980
v -0.1092799999999999 0.0238602014925373 0.0442617910447761
vn -2.2829544047861323 -0.9623893312524139 0.7656750334885166
v -0.1086746220183488 0.0201284697247706 0.0413766568807339
vn -5.5317708399031673 -2.3316390740693169 1.8550977446963333
v -0.1092992727272728 0.0213998909090909 0.0411124090909091
vn -2.6328078514433160 -1.1096809836323689 0.8827685152241243
v -0.1093927645833334 0.0199687729166667 0.0390344604166666
vn -2.0161542468912041 -0.9760986183537712 0.7660879039084904
v -0.1153482431972788 0.0320801496598639 0.0372655238095239
vn -2.2800346276871752 -1.1114188578232627 0.9645636403127319
v -0.1163926263736264 0.0468448901098901 0.0527686923076923
vn -4.0490414023360675 -1.8777973852000454 1.8902097341954951
v -0.1102567389060886 0.0363729050567595 0.0553577316821466
vn -5.2143605707425529 -2.4242955462813458 2.5321240382324328
v -0.1084761794871795 0.0383491025641026 0.0609167692307692
vn -5.2145677657453469 -2.4244961031522752 2.5315052989713753
v -0.1097576511627907 0.0385941162790698 0.0585120930232558
vn -5.2145906542823086 -2.4237100608593201 2.5322105823145589
v -0.1099494237288135 0.0414840000000000 0.0608834915254237
vn -1.9168173542236076 -0.8914664414587187 0.9306549515248748
v -0.1096156610169492 0.0425393728813559 0.0625816016949152
vn -5.3714301412262921 -2.4076317815723396 2.1975997070402231
v -0.1108334255319149 0.0337731276595745 0.0511566382978723
vn -5.3712312897479961 -2.4059616301508431 2.1999183286702504
v -0.1093726470588235 0.0320961764705882 0.0528891764705882
vn -2.8936178630187861 -1.3471119263147038 1.4896105481386923
v -0.1077630844594596 0.0313578006756757 0.0556429020270270
vn -2.4821306047928906 -1.1112144077291728 1.0169369651857785
v -0.1077304326241132 0.0288908605200946 0.0533933546099289
vn -5.3512967389920334 -2.5901281037346431 2.0330460505706607
v -0.1162800000000000 0.0367240000000000 0.0407290000000000
vn -2.8490277259729964 -1.3791175550997035 1.0826736755980777
v -0.1158085971223021 0.0328206834532374 0.0369975251798561
vn -5.2790053281723965 -2.5739279705729676 2.2328035435963924
v -0.1166109473684211 0.0437723157894737 0.0487098421052632
vn -2.7997842842575302 -1.3647383417308980 1.1841902835834279
v -0.1171423477011493 0.0467733419540228 0.0509140603448276
vn -2.3646294971238491 -0.9631970165370479 1.0991030376483713
v -0.1047065167597765 0.0243400363128492 0.0556906731843575
vn -1.9421739656125903 -0.7911722200886206 0.9031159945050105
v -0.1061228024691359 0.0265673209876543 0.0545957160493827
vn -2.5792464261520180 -1.0461283478494234 1.2267062396822204
v -0.1062826854166667 0.0316462375000000 0.0587017416666666
vn -5.3449725368050238 -2.1768093257224268 2.4841868555394577
v -0.1045159000000000 0.0294181000000000 0.0605511000000000
vn -1.7748389710733568 -0.8589323603834491 0.6744035506145682
v -0.1169652065217391 0.0401385543478261 0.0432757934782609
vn -5.3506226403063115 -2.5901826329220614 2.0347493207542069
v -0.1139489473684210 0.0342684210526316 0.0437360526315790
vn -3.3786288481640296 -1.6432801509296078 1.2837840924345438
v -0.1142864215246636 0.0363376188340807 0.0454831210762332
vn -4.5462170308015519 -2.0222978565956811 1.7970468322278985
v -0.1127488068181819 0.0340668494318182 0.0467988721590909
vn -2.4570709303766591 -1.1984932009919314 1.0395357905610738
v -0.1129005193548388 0.0383768741935483 0.0512632161290323
vn -2.6339795095089715 -1.2842752468359586 1.1133062510558800
v -0.1142540714285715 0.0384682500000000 0.0481689071428572
vn -5.2790969323379358 -2.5734850212964053 2.2330980866086496
v -0.1144212903225806 0.0413102903225806 0.0510491290322581
vn -2.7979875782011092 -1.1101329424043080 1.3143255202971962
v -0.1029289075829386 0.0225932914691943 0.0579844857819905
vn -2.5185081961195857 -1.0257370671403618 1.1705944434987920
v -0.1020169271758436 0.0264992877442273 0.0633689236234458
vn -1.9236768597376290 -0.7552246960373259 0.7923196442826252
v -0.1030366147859922 0.0167542568093385 0.0528050661478599
vn -2.4340374489286782 -1.0897503897756138 0.9967616091898477
v -0.1121802252252252 0.0317991315315315 0.0457094954954955
vn -2.2803848422687532 -0.9613050986785061 0.7646474242160103
v -0.1116768541666666 0.0287626111111111 0.0432761736111111
vn -5.5317059169886873 -2.3317787746824981 1.8551158366394693
v -0.1113183478260870 0.0229866521739130 0.0370855217391304
vn -2.2519772280168855 -0.9488131105559705 0.7560942662262449
v -0.1115379166666666 0.0226392916666667 0.0359948472222222
vn -2.0018799088442067 -0.9763380322142141 0.8470174926707261
v -0.1125493285714286 0.0391049857142857 0.0529327500000000
vn -4.1806642188524767 -2.0511608282937908 2.0234391435777961
v -0.1126029670658683 0.0416461916167665 0.0556189910179640
vn -2.3959561134706608 -0.9753302319691581 1.1128614471820282
v -0.1016796942675160 0.0253022993630573 0.0630458853503184
vn -3.0819180677050957 -1.2097151422460328 1.2691515245129414
v -0.1063185057471264 0.0183256206896552 0.0463328965517242
vn -2.7280852723566205 -1.0708532608527637 1.1232771243309210
v -0.1034959551020409 0.0162435061224490 0.0512027591836735
vn -3.3829084727546372 -1.3278277027540100 1.3929824943593012
v -0.1047142698412699 0.0161868571428571 0.0481901375661376
vn 1.7748389710733739 -0.8589323603834487 0.6744035506145707
v 0.1169652065217391 0.0401385543478261 0.0432757934782609
vn 3.3786288481640163 -1.6432801509296247 1.2837840924345412
v 0.1142864215246636 0.0363376188340807 0.0454831210762332
vn 5.3506226403063115 -2.5901826329220601 2.0347493207542091
v 0.1139489473684210 0.0342684210526316 0.0437360526315790
vn 4.5462170308015670 -2.0222978565956335 1.7970468322279147
v 0.1127488068181819 0.0340668494318182 0.0467988721590909
vn 2.4570709303766636 -1.1984932009919393 1.0395357905610758
v 0.1129005193548388 0.0383768741935483 0.0512632161290323
vn 2.6339795095089906 -1.2842752468359624 1.1133062510558642
v 0.1142540714285715 0.0384682500000000 0.0481689071428572
vn 5.2790969323379358 -2.5734850212964022 2.2330980866086505
v 0.1144212903225806 0.0413102903225806 0.0510491290322581
vn 2.2803848422687691 -0.9613050986784920 0.7646474242160062
v 0.1116768541666666 0.0287626111111111 0.0432761736111111
vn 2.2519772280169130 -0.9488131105559768 0.7560942662261898
v 0.1115379166666666 0.0226392916666667 0.0359948472222222
vn 2.4340374489286800 -1.0897503897756224 0.9967616091898366
v 0.1121802252252252 0.0317991315315315 0.0457094954954955
vn 2.0018799088442063 -0.9763380322142161 0.8470174926707188
v 0.1125493285714286 0.0391049857142857 0.0529327500000000
vn 4.1806642188524945 -2.0511608282937788 2.0234391435778099
v 0.1126029670658683 0.0416461916167665 0.0556189910179640
vn 2.9042907226315933 -1.4058071962222334 1.1035865250330663
v 0.1165500312500001 0.0394479687500000 0.0434889218750000
vn 5.3570180821763262 -2.5870744766669462 2.0216717418803181
v 0.1148080125000000 0.0363304125000000 0.0441011875000000
vn 3.3755573734962647 -1.6343353542066010 1.2541696143361218
v 0.1134005212464589 0.0334302294617564 0.0441109886685552
vn 3.7124728091108730 -1.5213181621818608 1.5483525252486690
v 0.1134915000000000 0.0351412777777778 0.0460584444444444
vn 2.1484970946010042 -1.0480100467934770 0.9088600248546843
v 0.1134787090909091 0.0379717272727272 0.0494293909090910
vn 5.2790308366698433 -2.5734589626145130 2.2332842152014099
v 0.1136121818181818 0.0402789090909091 0.0517739090909091
vn 5.2790332299374549 -2.5737723268473518 2.2329173571350571
v 0.1140400000000000 0.0397300000000000 0.0501300000000000
vn 5.2790375086214407 -2.5741741750206235 2.2324442136689004
v 0.1152861960784314 0.0407298039215686 0.0483354313725491
vn 1.9876383798727084 -0.9692190490622720 0.8408005127233362
v 0.1168033599999999 0.0416173800000000 0.0457720199999999
vn 2.6610916476453514 -1.1912796763506110 1.0884314089338418
v 0.1119026212534059 0.0359909427792915 0.0509713487738419
vn 5.3719219492817896 -2.4057729082403481 2.1984370319465136
v 0.1122610106382979 0.0342382659574468 0.0481798297872341
vn 2.7576020609550551 -1.3443548950562425 1.1250619712056897
v 0.1151612094861663 0.0390590899209485 0.0467026521739128
vn 2.0174421409734915 -0.9769389994331521 0.7667934110292469
v 0.1131224255319149 0.0321055319148936 0.0431550000000000
vn 2.0272057804649770 -0.9077966709482683 0.8310260959466849
v 0.1114887272727272 0.0299606363636364 0.0453880000000000
vn 2.8255470241522427 -1.3195192216563645 1.2493504515824123
v 0.1116158571428571 0.0392292000000000 0.0552928285714286
vn 3.3047473031214607 -1.6218948359117393 1.4270157150329403
v 0.1130208431952663 0.0409965355029586 0.0539984230769232
vn 3.6873470177957435 -1.7841980388298062 1.3878423780168585
v 0.1157207403846154 0.0383419711538461 0.0442622500000000
vn 2.7260523909613186 -1.2076167899522745 1.1036155932820475
v 0.1127421673469387 0.0354878693877551 0.0483717142857143
vn 2.8660214772331862 -1.3984573783480043 1.2125841048529291
v 0.1158777387387387 0.0403222162162162 0.0464672162162162
vn 2.5370363869857715 -1.2280918423423668 0.9640079618682915
v 0.1143281912045887 0.0314338642447419 0.0391265946462715
vn 2.7055437860999536 -1.3100572046627030 1.0284403399356485
v 0.1136419867109636 0.0314917076411960 0.0410058604651163
vn 6.1562210986967596 -2.6102833381191881 2.0703868189881898
v 0.1123280000000000 0.0240694285714286 0.0354362857142857
vn 2.5272666670628734 -1.0652316452935713 0.8476054464008292
v 0.1130221574803152 0.0288417926509186 0.0393641233595801
vn 2.5111542509161255 -1.0584138397326015 0.8420511615944890
v 0.1127769366602688 0.0258688522072937 0.0363589117082534
vn 5.2458268356497628 -2.6007591859530463 2.2784416187711090
v 0.1135176122448979 0.0424878163265306 0.0545430612244898
vn 1.6353466708156525 -0.7990953338596145 0.6918555582077931
v 0.1141770365853659 0.0441316097560975 0.0548787317073171
vn 2.3804468914397803 -1.1606539052796343 1.0072401665887796
v 0.1154888007181328 0.0457596122082585 0.0536543752244168
vn 2.2534150326083604 -1.0891779654915761 0.8563478663357632
v 0.1138123333333333 0.0312493333333333 0.0402493333333333
vn 5.3505109046881429 -2.5912124073980296 2.0337320544459958
v 0.1139684126984127 0.0318317460317460 0.0405805396825397
vn 2.4745015195868194 -1.0432139275168089 0.8298351045620076
v 0.1125211740259741 0.0291240727272727 0.0412128545454546
vn 2.5452536341538021 -1.0728273125028831 0.8536201305326294
v 0.1120254980544744 0.0237464357976654 0.0359319591439688
vn 3.5571335224017009 -1.7350275862760147 1.5053937268763149
v 0.1144683943089430 0.0441384186991869 0.0541979105691057
vn 3.5041992486045648 -1.7462522594052563 1.5713925948543237
v 0.1134621084337346 0.0428955060240964 0.0551409116465864
vn 2.5016001830198418 -1.2108026062508235 0.9506646349251309
v 0.1177726532258066 0.0402984903225806 0.0413546887096774
vn 5.3509081438223438 -2.5905950548534964 2.0334740522934447
v 0.1180986423357665 0.0391103503649635 0.0389832262773723
vn 2.2633888217821045 -1.0956940292856403 0.8601717188851048
v 0.1175654169491524 0.0357615694915254 0.0361206983050848
vn 5.3506043212373768 -2.5912146854740614 2.0334818891626107
v 0.1161650000000000 0.0356440000000000 0.0396550000000000
vn 5.3511394061325905 -2.5903321212078461 2.0332004125146308
v 0.1144976176470588 0.0334588235294117 0.0412606176470588
vn 5.2788008300906064 -2.5741968452092330 2.2329777728317364
v 0.1153565686274510 0.0434060000000000 0.0512541764705883
vn 2.1408035437001098 -1.0439889852717141 0.9057802230416935
v 0.1179672297297297 0.0451806216216216 0.0471281418918919
vn 1.9477411624714547 -0.9430200830125174 0.7402827654004793
v 0.1187002000000000 0.0396145000000000 0.0380427000000000
vn 2.4858931940066649 -1.2035299296094510 0.9446469861343204
v 0.1183894535211268 0.0400786253521127 0.0394516676056338
vn 5.3510870646441555 -2.5903266994568810 2.0333451030352889
v 0.1172780230769230 0.0391474384615384 0.0411902461538461
vn 2.2712809601904116 -1.0994632988486677 0.8631436726603019
v 0.1166928410914929 0.0340237977528090 0.0362031508828250
vn 5.3512148159586221 -2.5902603214768405 2.0330933612558852
v 0.1154604000000000 0.0357690000000000 0.0416698000000000
vn 5.3511426277107619 -2.5900875605792422 2.0335035101111738
v 0.1154128648648649 0.0334223918918919 0.0388052837837838
vn 5.3508266349972322 -2.5906976216451358 2.0335578442334157
v 0.1137490000000000 0.0328720000000000 0.0424830000000000
vn 5.2796695515726961 -2.5732569463741690 2.2320057296170375
v 0.1158695000000000 0.0427845000000000 0.0493255000000000
vn 2.5732379293904373 -1.2547806665526662 1.0888600543147169
v 0.1174232866242038 0.0434198598726114 0.0463843184713376
vn 5.2795031684219564 -2.5743398511195759 2.2311474975175467
v 0.1162130000000000 0.0453270000000000 0.0514450000000000
vn 2.0206930703409642 -0.9838404740395761 0.8548049934115476
v 0.1168755625000000 0.0471616875000000 0.0519916875000000
vn 5.3512967389920352 -2.5901281037346453 2.0330460505706558
v 0.1162800000000000 0.0367240000000000 0.0407290000000000
vn 2.8490277259729986 -1.3791175550997259 1.0826736755980575
v 0.1158085971223021 0.0328206834532374 0.0369975251798561
vn 5.2790053281723859 -2.5739279705729787 2.2328035435964031
v 0.1166109473684211 0.0437723157894737 0.0487098421052632
vn 2.7997842842575453 -1.3647383417309014 1.1841902835834439
v 0.1171423477011493 0.0467733419540228 0.0509140603448276
vn 2.5989496592330203 -1.2581517051773830 0.9877442235618447
v 0.1183066428571429 0.0381578791208791 0.0372227582417582
vn 5.3508776900769375 -2.5905010212715709 2.0336739654394536
v 0.1168284615384616 0.0364497692307692 0.0389365000000000
vn 2.1710764978133321 -1.0588248439163526 0.9184110473121286
v 0.1178987337192475 0.0463830492040522 0.0486759319826339
vn 2.0161542468912232 -0.9760986183537015 0.7660879039085071
v 0.1153482431972788 0.0320801496598639 0.0372655238095239
vn 2.0789083770601886 -0.8762219936834328 0.6971769142004440
v 0.1133185344827586 0.0280414827586207 0.0374745172413793
vn 5.5318704474227491 -2.3313592813959780 1.8551524787432199
v 0.1121445111111111 0.0264374222222222 0.0389596222222222
vn 2.2800346276871744 -1.1114188578232715 0.9645636403127226
v 0.1163926263736264 0.0468448901098901 0.0527686923076923
vn 5.5136549754127095 -2.3162767914894893 1.9247594728332760
v 0.1092799999999999 0.0238602014925373 0.0442617910447761
vn 2.2829544047861443 -0.9623893312524014 0.7656750334885124
v 0.1086746220183488 0.0201284697247706 0.0413766568807339
vn 5.5317708399031691 -2.3316390740693071 1.8550977446963353
v 0.1092992727272728 0.0213998909090909 0.0411124090909091
vn 2.6328078514433124 -1.1096809836323540 0.8827685152241261
v 0.1093927645833334 0.0199687729166667 0.0390344604166666
vn 2.6112182060810074 -1.0575505805297858 1.0520612936576752
v 0.1080825464480875 0.0233283661202186 0.0468176994535519
vn 3.5809237819183313 -1.6101943041805920 1.5231311014490878
v 0.1096692806629833 0.0339110950276244 0.0541496939226520
vn 5.3713356133459795 -2.4057057592263593 2.1999433960397194
v 0.1097365000000000 0.0310122692307692 0.0508152307692308
vn 2.5160319276897383 -1.0831921491726875 1.0083436561430159
v 0.1097545705765411 0.0272152524850895 0.0466542942345925
vn 5.3711417053898991 -2.3997270644234265 2.2068917721176438
v 0.1096743846153846 0.0284112820512821 0.0481224871794872
vn 5.3739955720309460 -2.4009154380681133 2.1986716486780757
v 0.1082010606060606 0.0282788888888889 0.0515749595959596
vn 1.9168173542236435 -0.8914664414586038 0.9306549515249206
v 0.1096156610169491 0.0425393728813559 0.0625816016949152
vn 5.2155716575774678 -2.4226309297517004 2.5312203947224945
v 0.1065470000000000 0.0351040000000000 0.0617830000000000
vn 3.8694594550984220 -1.8040904786730472 1.8978282902619041
v 0.1086613452380951 0.0340932321428571 0.0564724464285714
vn 4.0490414023360284 -1.8777973852000720 1.8902097341954411
v 0.1102567389060886 0.0363729050567595 0.0553577316821466
vn 5.2143605707425458 -2.4242955462813547 2.5321240382324399
v 0.1084761794871795 0.0383491025641026 0.0609167692307692
vn 5.2145677657453469 -2.4244961031522760 2.5315052989713749
v 0.1097576511627907 0.0385941162790698 0.0585120930232558
vn 5.2145906542823193 -2.4237100608593014 2.5322105823145566
v 0.1099494237288135 0.0414840000000000 0.0608834915254237
vn 5.5308461920974992 -2.3327548894198600 1.8564462967949136
v 0.1091390000000000 0.0225010000000000 0.0429730000000000
vn 5.5317248571185651 -2.3316715401213837 1.8551941330578918
v 0.1101744800000000 0.0238901600000000 0.0416319600000000
vn 5.4614655860244081 -2.1433954793235390 2.2487033759948409
v 0.1047537419354838 0.0191269677419355 0.0508969354838710
vn 5.4622908046216239 -2.1417051239732063 2.2483047554914659
v 0.1062720000000000 0.0211010000000000 0.0490920000000000
vn 2.7451012075429588 -1.0775563692146646 1.1306899551468712
v 0.1076600500000000 0.0217708590909091 0.0463585909090909
vn 2.2847035207018420 -1.0623984064382492 1.1091958965430366
v 0.1107704515235457 0.0429668227146814 0.0606125955678671
vn 2.7441995795751111 -1.2756401304267400 1.3323622113641602
v 0.1092189444444444 0.0419373162393162 0.0628219914529915
vn 2.4255723884596190 -1.1269994067273412 1.1771795013095692
v 0.1064112884615384 0.0357329711538462 0.0626652884615384
vn 2.1420396592916324 -0.9958099326476345 1.0400170224946548
v 0.1071830000000002 0.0386504491525423 0.0638687648305086
vn 5.5318914430130324 -2.3311368465336058 1.8553690622511092
v 0.1110408648648649 0.0262104054054054 0.0419653783783784
vn 5.5316107357737359 -2.3319317817805985 1.8552073640669415
v 0.1109992105263158 0.0238371578947368 0.0391065789473684
vn 2.3384031068303885 -0.9853846984960846 0.7838586172275943
v 0.1086102738461538 0.0220872630769231 0.0440304200000000
vn 2.0137709315072994 -0.7904104847306579 0.8292247115596932
v 0.1056503990024937 0.0169253516209476 0.0466205486284289
vn 5.4615670143496073 -2.1427283224466684 2.2490920991775321
v 0.1041250000000000 0.0187260000000000 0.0520420000000000
vn 1.9355327074567583 -0.7596068763611401 0.7971070118928568
v 0.1070083000000000 0.0193031400000000 0.0455895650000000
vn 5.4614098923409902 -2.1435050845296351 2.2487341873922944
v 0.1057079534883721 0.0189774418604651 0.0484368139534884
vn 5.4614229729231925 -2.1432750058788477 2.2489217059481188
v 0.1055787321428572 0.0214290892857143 0.0510873035714286
vn 6.6430658809171268 -3.0855653453926224 3.2166632693248798
v 0.1072155000000000 0.0392890000000000 0.0644131250000000
vn 2.6677090938158332 -1.2399120748658004 1.2952876089676311
v 0.1112982432432432 0.0427173513513514 0.0592864054054054
vn 2.1209573881392174 -0.9843109379861477 1.0285038189151270
v 0.1062867333333333 0.0348367333333333 0.0620639333333333
vn 2.3050570539550539 -1.0713755300306562 1.1191180790876947
v 0.1083852850678735 0.0408647647058823 0.0635124162895928
vn 3.9044037963759370 -1.6487499597313924 1.3943248456634927
v 0.1105027730496453 0.0268478439716312 0.0443705177304965
vn 3.9416783584545101 -1.4554635955468904 1.1462416805078943
v 0.1093066041666667 0.0247995833333333 0.0453631041666667
vn 3.7522765185583262 -1.5245731903416937 1.3549532189177305
v 0.1088720802469135 0.0231998765432099 0.0446484567901235
vn 2.7903344783943256 -1.1763829392498302 0.9359935420904566
v 0.1086682624434389 0.0205549457013574 0.0419315927601810
vn 2.5972707712915710 -1.0927323270549052 0.8708563050494612
v 0.1089857777777778 0.0199397777777778 0.0402118888888889
vn 5.5317507818251457 -2.3316945037382215 1.8550879338648132
v 0.1090320000000000 0.0201500000000000 0.0403380000000000
vn 5.5318191327713029 -2.3316833485765964 1.8548982180550897
v 0.1098921328671329 0.0210284615384615 0.0388771958041958
vn 2.8450693132022855 -1.1166476684531190 1.1716190406426881
v 0.1063502543859648 0.0242592368421053 0.0519111578947368
vn 5.2788304137253945 -2.3989296024388738 2.4080707678449653
v 0.1089860000000000 0.0327050000000000 0.0545000000000000
vn 5.3711017369420455 -2.4059416014739021 2.2002562736137476
v 0.1108601428571429 0.0313375428571429 0.0484272000000000
vn 5.3712510675690286 -2.4056994035522283 2.2001564135498262
v 0.1091880000000000 0.0291860000000000 0.0501580000000000
vn 5.3712124806898736 -2.4061259167472282 2.1997845246841581
v 0.1088830000000000 0.0279430000000000 0.0495430000000000
vn 2.1941334584250942 -1.0189793372411289 1.0653417512207990
v 0.1064719918699186 0.0344269674796748 0.0612901707317073
vn -1.3614709201330522 -0.1155438992906514 -0.5471517066761642
v 0.1091255890410959 0.0338995342465753 0.0553581780821918
vn 2.6783469433777283 -1.2237028001572257 1.1185245260979464
v 0.1108122939393939 0.0358132090909091 0.0534598333333333
vn 5.2136364040401375 -2.4238369176821593 2.5340498597415264
v 0.1092450000000000 0.0395080000000000 0.0604440000000000
vn 5.2118572885827481 -2.4242469209090287 2.5372982933317418
v 0.1108650370370371 0.0409666666666667 0.0585030740740741
vn 2.0559768403677952 -0.8667116944026340 0.6894214326950657
v 0.1099656144578313 0.0202177590361446 0.0376388795180723
vn 2.5470866229618716 -0.9999393863589107 1.0489772588770339
v 0.1076658098591549 0.0243315598591549 0.0487853485915493
vn 3.2193178473192390 -1.4249325797207693 1.3177239723249985
v 0.1102242117263845 0.0283134560260586 0.0466733127035831
vn 2.5875406775525116 -1.1623951481991297 1.0749150781154002
v 0.1091766496815287 0.0269958089171975 0.0477899681528662
vn 2.4416712239732292 -1.0886571346413727 0.9980497338194263
v 0.1077982018561485 0.0270641392111369 0.0512366589327147
vn 5.2147626945600383 -2.4236261731982744 2.5319367162522464
v 0.1073199357798165 0.0357632477064220 0.0608223761467890
vn 2.3750238512919433 -1.1033721858499956 1.1561808316644218
v 0.1077317251461989 0.0339507270955166 0.0582391715399610
vn 5.2149406324027137 -2.4238798805770916 2.5313267817014506
v 0.1093368000000000 0.0368248000000000 0.0576844000000000
vn 5.2088472105340529 -2.4539358682018966 2.5142283876650495
v 0.1110062020202020 0.0379837878787879 0.0553562727272728
vn 2.3668505973942939 -0.9978305593247560 0.7934080442035767
v 0.1111238055555555 0.0280402222222222 0.0440174841269841
vn 2.9186105507346891 -1.2301426551297938 0.9789401361911906
v 0.1108085812356980 0.0216056750572082 0.0368700526315790
vn 2.0430187348105457 -0.8019158127177164 0.8412652987956254
v 0.1070494899193547 0.0249163286290323 0.0508395161290323
vn 5.3713648388657873 -2.4056724709353645 2.1999073911535563
v 0.1112757692307692 0.0306728461538462 0.0466866923076923
vn 2.5389046375458406 -1.1361155906597755 1.0391998387560355
v 0.1085489551020409 0.0268807163265306 0.0491967836734694
vn 2.7566877260795684 -1.2807667124890920 1.3381645763468542
v 0.1068346042780749 0.0344105561497327 0.0605275133689839
vn 5.2144435058345238 -2.4205215841944412 2.5355553169390417
v 0.1085703846153846 0.0354978974358974 0.0579930256410256
vn 2.6917833127520598 -1.5439705523615803 1.5246744334754951
v 0.1110993152173914 0.0374892880434783 0.0546911250000000
vn 5.1966857787241469 -2.4416518668276668 2.5514814732170024
v 0.1113660000000000 0.0399000000000000 0.0564500000000000
vn 1.4758899156795460 -0.5794287627606233 0.6076845192180111
v 0.1043110000000000 0.0153991333333333 0.0484184666666667
vn 2.7039439751450067 -1.0612991816705066 1.1134173733507273
v 0.1039806753246752 0.0157119350649351 0.0495189870129870
vn 5.4610960084303652 -2.1439758797113897 2.2490473292183348
v 0.1044490000000000 0.0174720000000000 0.0500590000000000
vn 5.4616415542300798 -2.1431004982396185 2.2485567575746304
v 0.1067648571428571 0.0216216666666667 0.0483899047619048
vn 2.5881359503725294 -1.2030038243175802 1.2565916324232833
v 0.1067260777385161 0.0369549081272085 0.0631861554770318
# 410 vertices, 0 vertices normals


usemtl material_0
vt 0.0499880015850067 0.2749930024147034
vt 0.0499880015850067 0.2499919980764389
vt 0.0999889969825745 0.2499919980764389
f 312/1/312 305/2/305 311/3/311
vt 0.0999889969825745 0.2999930083751678
vt 0.0499880015850067 0.2999930083751678
f 262/4/262 273/5/273 272/1/272
f 327/3/327 326/4/326 305/1/305
vt 0.0249879993498325 0.2999930083751678
vt 0.0249879993498325 0.2749930024147034
f 327/5/327 306/6/306 326/7/326
f 327/7/327 305/1/305 322/5/322
f 315/2/315 322/1/322 313/7/313
vt 0.0999889969825745 0.3999939858913422
vt 0.0499880015850067 0.3999939858913422
vt 0.0499880015850067 0.3499929904937744
f 73/8/73 61/9/61 74/10/74
vt 0.0999889969825745 0.3499929904937744
f 62/10/62 257/11/257 76/8/76
f 142/11/142 212/10/212 60/5/60
f 99/5/99 168/4/168 190/11/190
vt 0.0999889969825745 0.4999949932098389
vt 0.0749889984726906 0.4999949932098389
vt 0.0749889984726906 0.4749949872493744
f 238/12/238 123/13/123 121/14/121
vt 0.0999889969825745 0.4749949872493744
f 185/14/185 187/15/187 119/12/119
vt 0.0499880015850067 0.4874950051307678
vt 0.0499880015850067 0.4749949872493744
f 204/16/204 229/17/229 237/14/237
vt 0.0499880015850067 0.4999949932098389
f 225/13/225 58/18/58 59/16/59
f 68/14/68 216/13/216 55/16/55
vt 0.0499880015850067 0.4499939978122711
f 366/14/366 365/17/365 353/19/353
vt 0.0749889984726906 0.4499939978122711
f 202/19/202 188/20/188 187/14/187
f 201/15/201 188/14/188 202/20/202
vt 0.0999889969825745 0.4499939978122711
f 173/20/173 243/21/243 253/15/253
vt 0.0374879986047745 0.4999949932098389
vt 0.0374879986047745 0.4874950051307678
f 185/18/185 201/22/201 202/23/202
f 180/23/180 116/16/116 115/18/115
vt 0.0249879993498325 0.4999949932098389
vt 0.0249879993498325 0.4874950051307678
f 119/22/119 187/24/187 186/25/186
f 118/25/118 185/23/185 235/22/235
vt 0.0249879993498325 0.4812450110912323
vt 0.0249879993498325 0.4749949872493744
vt 0.0374879986047745 0.4749949872493744
f 185/26/185 202/27/202 187/28/187
f 246/23/246 185/25/185 118/26/118
f 225/28/225 71/23/71 95/26/95
f 361/16/361 333/23/333 373/28/373
f 347/28/347 386/17/386 349/16/349
vt 0.0124880000948906 0.4937449991703033
vt 0.0124880000948906 0.4874950051307678
vt 0.0187379997223616 0.4874950051307678
f 379/29/379 28/30/28 38/31/38
f 227/31/227 105/25/105 106/24/106
vt 0.0124880000948906 0.4999949932098389
f 208/24/208 227/32/227 228/29/228
f 69/29/69 58/31/58 225/24/225
vt 0.0062380000017583 0.4999949932098389
vt 0.0062380000017583 0.4937449991703033
f 35/32/35 33/33/33 21/34/21
f 149/34/149 74/29/74 61/32/61
vt 0.0093630002811551 0.4874950051307678
f 355/35/355 349/30/349 368/29/368
vt 0.0062380000017583 0.4874950051307678
f 122/34/122 108/36/108 101/35/101
f 140/29/140 95/34/95 166/35/166
vt 0.0093630002811551 0.4843699932098389
f 224/30/224 95/35/95 140/37/140
vt 0.0124880000948906 0.4843699932098389
f 223/37/223 94/38/94 224/30/224
vt 0.0062380000017583 0.4843699932098389
f 154/35/154 210/36/210 127/39/127
f 272/39/272 313/37/313 287/35/287
vt 0.0062380000017583 0.4828070104122162
vt 0.0062380000017583 0.4812450110912323
vt 0.0093630002811551 0.4812450110912323
f 164/40/164 224/41/224 139/42/139
f 125/37/125 223/39/223 224/40/224
f 146/42/146 125/37/125 54/40/54
f 388/38/388 398/37/398 377/42/377
vt 0.0124880000948906 0.4812450110912323
f 164/42/164 139/43/139 222/38/222
vt 0.0062380000017583 0.4781199991703033
f 254/42/254 135/41/135 145/44/145
vt 0.0062380000017583 0.4749949872493744
vt 0.0124880000948906 0.4749949872493744
f 207/44/207 222/45/222 80/46/80
f 175/46/175 176/43/176 100/42/100
f 138/42/138 163/44/163 125/46/125
vt 0.0187379997223616 0.4812450110912323
f 335/25/335 350/31/350 361/47/361
f 78/47/78 125/26/125 163/25/163
f 57/38/57 69/43/69 223/47/223
f 148/31/148 201/30/201 141/38/141
f 76/47/76 257/31/257 248/38/248
f 206/47/206 78/43/78 63/46/63
vt 0.0187379997223616 0.4749949872493744
f 396/46/396 405/48/405 387/47/387
f 106/26/106 98/47/98 242/48/242
f 234/48/234 221/27/221 200/26/200
vt 0.0124880000948906 0.4687449932098389
f 133/48/133 193/46/193 182/49/182
vt 0.0124880000948906 0.4624939858913422
vt 0.0249879993498325 0.4624939858913422
f 122/49/122 188/50/188 247/51/247
f 186/51/186 121/27/121 203/48/203
f 79/48/79 64/49/64 105/51/105
vt 0.0062380000017583 0.4687449932098389
f 79/46/79 105/45/105 113/52/113
f 254/52/254 147/49/147 140/46/140
f 227/50/227 113/49/113 105/52/105
vt 0.0124880000948906 0.4499939978122711
f 339/51/339 381/50/381 380/53/380
vt 0.0249879993498325 0.4499939978122711
f 65/53/65 82/54/82 106/51/106
f 65/28/65 249/27/249 82/51/82
f 114/51/114 208/54/208 228/19/228
f 208/19/208 81/17/81 207/28/207
f 44/28/44 30/51/30 35/19/35
vt 0.0249879993498325 0.4249939918518066
f 208/19/208 207/54/207 80/55/80
vt 0.0499880015850067 0.4249939918518066
f 82/55/82 249/56/249 153/19/153
vt 0.0249879993498325 0.3999939858913422
f 81/56/81 229/55/229 207/57/207
f 223/57/223 69/9/69 225/56/225
f 126/20/126 153/19/153 249/56/249
f 86/56/86 156/9/156 250/8/250
f 167/8/167 149/21/149 73/20/73
f 112/20/112 76/56/76 248/8/248
vt 0.0999889969825745 0.5999959707260132
vt 0.0749889984726906 0.5999959707260132
vt 0.0749889984726906 0.5749959945678711
f 126/58/126 249/59/249 143/60/143
vt 0.0999889969825745 0.5749959945678711
f 40/60/40 8/61/8 13/58/13
vt 0.0499880015850067 0.5874959826469421
vt 0.0499880015850067 0.5749959945678711
f 246/62/246 201/63/201 185/60/185
vt 0.0499880015850067 0.5999959707260132
f 283/59/283 317/64/317 273/62/273
f 209/60/209 82/59/82 83/62/83
vt 0.0499880015850067 0.5499950051307678
f 319/60/319 310/63/310 328/65/328
vt 0.0749889984726906 0.5499950051307678
f 403/65/403 395/66/395 348/60/348
f 82/61/82 210/60/210 83/66/83
vt 0.0999889969825745 0.5499950051307678
f 114/66/114 81/67/81 208/61/208
vt 0.0374879986047745 0.5999959707260132
vt 0.0374879986047745 0.5874959826469421
f 114/64/114 211/68/211 230/69/230
f 97/69/97 167/62/167 73/64/73
vt 0.0249879993498325 0.5999959707260132
vt 0.0249879993498325 0.5874959826469421
f 170/68/170 99/70/99 190/71/190
f 205/71/205 236/69/236 186/68/186
vt 0.0249879993498325 0.5812460184097290
vt 0.0249879993498325 0.5749959945678711
vt 0.0374879986047745 0.5749959945678711
f 214/72/214 210/73/210 126/74/126
f 380/69/380 341/71/341 390/72/390
f 245/74/245 173/69/173 145/72/145
f 164/62/164 125/69/125 224/74/224
f 137/74/137 221/63/221 234/62/234
vt 0.0124880000948906 0.5937460064888000
vt 0.0124880000948906 0.5874959826469421
vt 0.0187379997223616 0.5874959826469421
f 254/75/254 140/76/140 166/77/166
f 175/77/175 100/71/100 107/70/107
vt 0.0124880000948906 0.5999959707260132
f 339/70/339 380/78/380 23/75/23
f 245/75/245 145/77/145 162/70/162
vt 0.0093630002811551 0.5874959826469421
vt 0.0093630002811551 0.5843709707260132
f 181/76/181 194/79/194 182/80/182
vt 0.0124880000948906 0.5843709707260132
f 90/80/90 68/81/68 218/76/218
vt 0.0093630002811551 0.5812460184097290
f 254/81/254 161/80/161 135/82/135
vt 0.0124880000948906 0.5812460184097290
f 217/82/217 90/83/90 218/81/218
vt 0.0093630002811551 0.5781210064888000
f 355/83/355 356/82/356 349/84/349
vt 0.0124880000948906 0.5781210064888000
f 207/84/207 164/85/164 222/83/222
vt 0.0093630002811551 0.5749959945678711
f 24/85/24 338/84/338 38/86/38
vt 0.0124880000948906 0.5749959945678711
f 133/86/133 159/87/159 134/85/134
vt 0.0187379997223616 0.5812460184097290
f 92/71/92 218/77/218 219/88/219
f 192/88/192 116/72/116 181/71/181
f 139/81/139 224/83/224 140/88/140
f 273/77/273 308/76/308 261/81/261
f 211/88/211 154/77/154 128/81/128
vt 0.0187379997223616 0.5749959945678711
f 297/85/297 320/87/320 325/89/325
f 261/88/261 315/83/315 272/85/272
f 190/89/190 168/88/168 239/85/239
f 175/72/175 197/88/197 233/89/233
f 216/89/216 89/73/89 212/72/212
vt 0.0124880000948906 0.5687459707260132
f 175/89/175 107/87/107 244/90/244
vt 0.0124880000948906 0.5624960064888000
vt 0.0249879993498325 0.5624960064888000
f 56/90/56 67/91/67 93/92/93
f 177/92/177 247/73/247 188/89/188
f 98/89/98 169/90/169 242/92/242
vt 0.0124880000948906 0.5499950051307678
f 167/92/167 142/91/142 149/93/149
vt 0.0249879993498325 0.5499950051307678
f 65/93/65 106/94/106 242/92/242
f 73/74/73 149/73/149 61/92/61
f 342/92/342 382/94/382 381/65/381
f 114/65/114 209/63/209 211/74/211
f 145/74/145 173/92/173 253/65/253
vt 0.0249879993498325 0.5249950289726257
f 123/65/123 237/94/237 121/95/121
vt 0.0499880015850067 0.5249950289726257
f 148/95/148 255/96/255 177/65/177
vt 0.0124880000948906 0.5249950289726257
vt 0.0124880000948906 0.5124949812889099
f 277/95/277 278/97/278 265/98/265
vt 0.0249879993498325 0.5124949812889099
f 232/98/232 134/99/134 194/95/194
f 135/99/135 162/98/162 145/32/145
f 159/32/159 182/24/182 134/99/134
f 157/99/157 215/24/215 131/22/131
f 347/22/347 393/18/393 348/96/348
f 190/96/190 178/95/178 195/99/195
f 227/99/227 209/22/209 228/96/228
f 181/13/181 116/66/116 194/96/194
f 133/66/133 134/65/134 160/96/160
f 216/96/216 214/18/214 86/13/86
f 95/13/95 71/12/71 96/67/96
f 95/67/95 96/66/96 70/13/70
vt 0.0999889969825745 0.6999970078468323
vt 0.0749889984726906 0.6999970078468323
vt 0.0749889984726906 0.6749969720840454
f 216/100/216 212/101/212 87/102/87
vt 0.0999889969825745 0.6749969720840454
f 366/102/366 353/103/353 409/100/409
vt 0.0499880015850067 0.6874970197677612
vt 0.0499880015850067 0.6749969720840454
f 231/104/231 190/105/190 179/102/179
vt 0.0499880015850067 0.6999970078468323
f 225/101/225 59/106/59 71/104/71
f 106/102/106 105/101/105 98/104/98
vt 0.0499880015850067 0.6499959826469421
f 48/102/48 300/105/300 266/107/266
vt 0.0749889984726906 0.6499959826469421
f 291/107/291 290/108/290 299/102/299
f 291/103/291 308/102/308 317/108/317
vt 0.0999889969825745 0.6499959826469421
f 190/108/190 239/109/239 178/103/178
vt 0.0374879986047745 0.6999970078468323
vt 0.0374879986047745 0.6874970197677612
f 191/106/191 194/110/194 116/111/116
f 308/111/308 316/104/316 307/106/307
vt 0.0374879986047745 0.6749969720840454
f 215/104/215 85/111/85 130/112/130
f 409/112/409 365/105/365 364/104/364
vt 0.0249879993498325 0.6499959826469421
f 122/113/122 101/107/101 238/105/238
vt 0.0249879993498325 0.6374959945678711
vt 0.0249879993498325 0.6249960064888000
vt 0.0499880015850067 0.6249960064888000
f 68/114/68 89/115/89 216/116/216
f 85/107/85 250/113/250 155/114/155
f 206/116/206 54/107/54 125/114/125
vt 0.0124880000948906 0.6374959945678711
f 84/115/84 83/114/83 210/117/210
vt 0.0124880000948906 0.6124960184097290
vt 0.0249879993498325 0.6124960184097290
f 240/118/240 171/119/171 170/115/170
f 131/119/131 215/118/215 130/78/130
f 174/78/174 172/70/172 243/119/243
f 224/119/224 94/70/94 95/68/95
f 79/68/79 140/64/140 165/116/165
f 207/116/207 138/115/138 164/119/164
f 272/119/272 287/68/287 282/116/282
f 190/59/190 195/108/195 179/116/179
f 85/108/85 155/107/155 130/116/130
f 192/116/192 181/64/181 182/59/182
f 170/59/170 242/58/242 169/109/169
f 144/109/144 171/108/171 193/59/193
vt 0.0374879986047745 0.7062469720840454
f 309/120/309 324/110/324 328/106/328
vt 0.0499880015850067 0.7124969959259033
vt 0.0374879986047745 0.7124969959259033
f 122/121/122 247/122/247 108/120/108
f 94/106/94 225/121/225 95/120/95
vt 0.0999889969825745 0.7499970197677612
vt 0.0749889984726906 0.7499970197677612
vt 0.0749889984726906 0.7249969840049744
f 203/123/203 237/124/237 229/125/229
vt 0.0999889969825745 0.7249969840049744
f 192/125/192 170/126/170 190/123/190
f 161/121/161 70/106/70 96/101/96
vt 0.0499880015850067 0.7249969840049744
f 216/125/216 218/127/218 55/121/55
f 182/101/182 193/125/193 171/121/171
f 119/126/119 186/125/186 236/101/236
f 66/101/66 156/100/156 86/126/86
vt 0.1999900043010712 0.1999920010566711
vt 0.1749899983406067 0.1999920010566711
vt 0.1749899983406067 0.1749909967184067
f 66/128/66 86/129/86 156/130/156
vt 0.1999900043010712 0.1749909967184067
f 254/130/254 70/131/70 161/128/161
vt 0.1499900072813034 0.1999920010566711
vt 0.1499900072813034 0.1749909967184067
f 254/129/254 95/132/95 70/133/70
f 211/133/211 83/130/83 84/129/84
vt 0.1624899953603745 0.1499910056591034
vt 0.1749899983406067 0.1499910056591034
f 382/134/382 341/135/341 381/130/381
vt 0.1499900072813034 0.1499910056591034
f 192/133/192 190/136/190 231/134/231
f 365/130/365 4/133/4 364/134/364
vt 0.1874900013208389 0.1499910056591034
vt 0.1999900043010712 0.1499910056591034
f 257/137/257 150/138/150 258/131/258
f 196/130/196 115/135/115 179/137/179
f 137/131/137 234/130/234 199/137/199
vt 0.1249890029430389 0.1999920010566711
vt 0.1249890029430389 0.1749909967184067
f 240/132/240 170/139/170 192/140/192
f 260/140/260 272/133/272 282/132/282
vt 0.0999889969825745 0.1999920010566711
vt 0.0999889969825745 0.1749909967184067
f 183/139/183 137/141/137 199/142/199
f 286/142/286 276/140/276 265/139/265
vt 0.1374890059232712 0.1499910056591034
f 157/143/157 67/136/67 88/133/88
vt 0.1249890029430389 0.1499910056591034
f 401/140/401 391/144/391 341/143/341
f 110/133/110 246/140/246 118/143/118
vt 0.1874900013208389 0.1374910026788712
f 140/138/140 147/137/147 165/145/165
vt 0.1999900043010712 0.1374910026788712
f 370/145/370 349/146/349 356/138/356
vt 0.1749899983406067 0.1374910026788712
f 227/137/227 79/135/79 113/147/113
f 67/147/67 215/145/215 88/137/88
vt 0.1812400072813034 0.1249909996986389
vt 0.1874900013208389 0.1249909996986389
f 11/148/11 5/149/5 9/145/9
vt 0.1749899983406067 0.1249909996986389
f 161/147/161 136/150/136 162/148/162
f 214/145/214 127/147/127 210/148/210
vt 0.1937399953603745 0.1249909996986389
vt 0.1999900043010712 0.1249909996986389
f 111/151/111 110/152/110 103/146/103
f 238/145/238 121/149/121 187/151/187
f 254/146/254 166/145/166 95/151/95
vt 0.1624899953603745 0.1374910026788712
f 56/135/56 93/134/93 218/153/218
f 222/153/222 139/147/139 140/135/140
vt 0.1499900072813034 0.1374910026788712
f 185/134/185 119/136/119 235/154/235
f 183/154/183 233/153/233 197/134/197
vt 0.1937399953603745 0.1187409982085228
f 245/152/245 197/151/197 175/155/175
vt 0.1999900043010712 0.1187409982085228
f 41/155/41 20/156/20 27/152/27
vt 0.1906149983406067 0.1187409982085228
f 230/157/230 128/155/128 189/151/189
vt 0.1874900013208389 0.1187409982085228
f 269/149/269 276/158/276 286/157/286
f 238/151/238 101/149/101 109/157/109
vt 0.1906149983406067 0.1156160011887550
f 158/155/158 157/157/157 252/159/252
vt 0.1937399953603745 0.1156160011887550
f 162/159/162 137/160/137 183/155/183
vt 0.1874900013208389 0.1156160011887550
f 316/157/316 323/158/323 314/161/314
f 183/161/183 199/159/199 234/157/234
vt 0.1906149983406067 0.1124909967184067
f 220/160/220 134/159/134 232/162/232
vt 0.1937399953603745 0.1124909967184067
f 183/162/183 117/163/117 233/160/233
vt 0.1999900043010712 0.1124909967184067
f 74/160/74 256/163/256 77/164/77
f 348/156/348 387/155/387 386/160/386
f 240/164/240 192/156/192 182/160/182
vt 0.1843650043010712 0.1187409982085228
f 183/165/183 234/158/234 117/149/117
vt 0.1812400072813034 0.1187409982085228
f 28/148/28 19/166/19 27/165/27
f 198/149/198 117/148/117 184/165/184
vt 0.1843650043010712 0.1156160011887550
f 275/158/275 264/165/264 277/167/277
f 335/167/335 377/161/377 351/158/351
vt 0.1999900043010712 0.2999930083751678
vt 0.1499900072813034 0.2999930083751678
vt 0.1499900072813034 0.2499919980764389
f 186/168/186 187/169/187 121/170/121
vt 0.1999900043010712 0.2499919980764389
f 345/170/345 384/171/384 346/168/346
f 114/169/114 228/4/228 209/3/209
f 35/3/35 43/170/43 33/169/33
f 107/139/107 99/132/99 170/170/170
f 338/3/338 23/141/23 385/139/385
f 133/170/133 182/3/182 159/139/159
f 241/129/241 170/128/170 169/171/169
f 265/170/265 278/132/278 318/129/318
f 244/171/244 172/170/172 174/129/174
vt 0.1499900072813034 0.3999939858913422
f 68/169/68 55/172/55 218/11/218
f 322/172/322 305/8/305 313/11/313
f 74/11/74 77/4/77 258/169/258
vt 0.1999900043010712 0.3999939858913422
f 56/169/56 216/168/216 86/173/86
f 33/173/33 41/172/41 26/169/26
vt 0.1999900043010712 0.4999949932098389
vt 0.1499900072813034 0.4999949932098389
vt 0.1499900072813034 0.4499939978122711
f 227/174/227 106/175/106 82/176/82
vt 0.1999900043010712 0.4499939978122711
f 240/176/240 182/177/182 171/174/171
f 121/15/121 237/21/237 203/176/203
f 232/175/232 194/12/194 191/15/191
f 158/176/158 251/175/251 157/15/157
f 93/176/93 251/21/251 158/8/158
f 131/8/131 130/172/130 213/176/213
f 177/177/177 188/176/188 201/172/201
f 146/172/146 223/173/223 125/177/125
vt 0.1999900043010712 0.5999959707260132
vt 0.1499900072813034 0.5999959707260132
vt 0.1499900072813034 0.5499950051307678
f 116/178/116 179/179/179 115/180/115
vt 0.1999900043010712 0.5499950051307678
f 157/180/157 251/181/251 67/178/67
f 157/61/157 88/67/88 215/180/215
f 206/179/206 63/58/63 54/61/54
f 67/180/67 66/179/66 215/61/215
f 93/180/93 219/67/219 218/12/218
f 56/12/56 218/175/218 216/180/216
f 43/181/43 34/180/34 33/175/33
f 269/175/269 263/174/263 276/181/276
vt 0.1999900043010712 0.6999970078468323
vt 0.1499900072813034 0.6999970078468323
vt 0.1499900072813034 0.6499959826469421
f 230/182/230 211/183/211 128/184/128
vt 0.1999900043010712 0.6499959826469421
f 114/184/114 229/185/229 81/182/81
f 196/103/196 179/109/179 195/184/195
f 216/183/216 87/100/87 214/103/214
f 92/184/92 219/183/219 217/103/217
f 215/184/215 66/109/66 85/58/85
f 410/58/410 393/179/393 347/184/347
f 66/185/66 86/184/86 85/179/85
f 92/179/92 217/178/217 218/185/218
vt 0.1874900013208389 0.7999979853630066
vt 0.1749899983406067 0.7999979853630066
vt 0.1749899983406067 0.7749980092048645
f 398/186/398 1/187/1 377/188/377
vt 0.1999900043010712 0.7749980092048645
vt 0.1999900043010712 0.7999979853630066
f 170/189/170 171/190/171 242/186/242
f 25/188/25 16/189/16 392/186/392
vt 0.1624899953603745 0.7999979853630066
vt 0.1499900072813034 0.7999979853630066
vt 0.1499900072813034 0.7874979972839355
f 86/191/86 250/192/250 85/193/85
vt 0.1499900072813034 0.7749980092048645
f 79/193/79 222/194/222 140/188/140
f 56/188/56 86/187/86 66/191/66
f 9/191/9 45/193/45 363/188/363
vt 0.1499900072813034 0.7499970197677612
f 217/188/217 219/194/219 91/195/91
vt 0.1749899983406067 0.7499970197677612
f 308/195/308 307/196/307 315/188/315
f 186/189/186 229/188/229 120/196/120
vt 0.1999900043010712 0.7499970197677612
f 142/196/142 60/197/60 149/189/149
vt 0.1374890059232712 0.7999979853630066
vt 0.1374890059232712 0.7874979972839355
f 111/192/111 112/198/112 102/199/102
f 270/199/270 405/193/405 396/192/396
vt 0.1249890029430389 0.7937480211257935
vt 0.1249890029430389 0.7874979972839355
f 209/200/209 83/201/83 211/199/211
vt 0.1249890029430389 0.7999979853630066
f 379/198/379 345/202/345 28/200/28
f 302/199/302 296/198/296 303/200/303
vt 0.1249890029430389 0.7749980092048645
f 97/199/97 73/201/73 124/203/124
vt 0.1374890059232712 0.7749980092048645
f 149/203/149 75/204/75 74/199/74
f 60/193/60 75/199/75 149/204/149
f 102/204/102 112/194/112 110/193/110
vt 0.1187390014529228 0.7999979853630066
vt 0.1187390014529228 0.7937480211257935
f 111/202/111 62/205/62 112/206/112
f 146/206/146 57/200/57 223/202/223
vt 0.1124889999628067 0.7968729734420776
vt 0.1124889999628067 0.7937480211257935
f 297/207/297 325/208/325 332/206/332
vt 0.1124889999628067 0.7999979853630066
f 175/205/175 233/209/233 198/207/198
f 111/206/111 73/205/73 62/207/62
vt 0.1124889999628067 0.7874979972839355
f 112/206/112 62/208/62 76/210/76
vt 0.1187390014529228 0.7874979972839355
f 335/210/335 334/211/334 376/206/376
f 62/200/62 150/206/150 257/211/257
f 359/211/359 397/201/397 371/200/371
vt 0.1093640029430389 0.7968729734420776
vt 0.1062389984726906 0.7968729734420776
vt 0.1062389984726906 0.7937480211257935
f 359/212/359 371/213/371 397/214/397
vt 0.1093640029430389 0.7937480211257935
f 363/214/363 45/215/45 3/212/3
f 62/207/62 258/212/258 150/215/150
f 93/215/93 158/208/158 132/207/132
vt 0.1062389984726906 0.7874979972839355
f 74/215/74 258/214/258 62/216/62
f 138/210/138 125/208/125 164/215/164
f 371/216/371 48/210/48 266/215/266
vt 0.0999889969825745 0.7874979972839355
vt 0.0999889969825745 0.7749980092048645
f 257/216/257 258/217/258 151/218/151
vt 0.1124889999628067 0.7749980092048645
f 112/219/112 104/210/104 110/216/110
f 346/218/346 396/219/396 395/216/395
f 258/211/258 152/210/152 151/219/151
f 276/203/276 263/201/263 277/211/277
f 294/219/294 330/203/330 293/211/293
f 275/219/275 277/218/277 263/123/263
vt 0.1249890029430389 0.7499970197677612
f 264/220/264 278/203/278 277/219/277
f 175/123/175 244/220/244 174/219/174
f 351/204/351 377/203/377 360/220/360
f 177/195/177 255/194/255 247/204/247
f 282/220/282 289/195/289 278/204/278
f 264/220/264 282/123/282 278/126/278
f 21/126/21 33/100/33 32/183/32
f 295/183/295 302/195/302 303/220/303
f 270/220/270 295/126/295 303/183/303
f 286/196/286 265/195/265 302/183/302
f 342/182/342 401/197/401 382/196/382
f 286/183/286 295/182/295 270/196/270
vt 0.1499900072813034 0.8187479972839355
vt 0.1437389999628067 0.8187479972839355
vt 0.1437389999628067 0.8124979734420776
f 368/221/368 387/222/387 50/223/50
vt 0.1499900072813034 0.8124979734420776
f 315/223/315 307/224/307 327/221/327
vt 0.1374890059232712 0.8124979734420776
f 265/223/265 309/225/309 302/198/302
f 278/192/278 289/224/289 279/223/279
f 278/198/278 324/192/324 318/223/318
vt 0.1749899983406067 0.8312479853630066
vt 0.1749899983406067 0.8249980211257935
vt 0.1874900013208389 0.8249980211257935
f 122/226/122 238/227/238 187/228/187
vt 0.1874900013208389 0.8374980092048645
vt 0.1749899983406067 0.8374980092048645
f 278/229/278 319/230/319 324/226/324
f 186/228/186 203/229/203 229/226/229
vt 0.1999900043010712 0.8374980092048645
f 316/231/316 314/229/314 327/228/327
vt 0.1999900043010712 0.8249980211257935
f 278/228/278 279/232/279 319/231/319
vt 0.1624899953603745 0.8328109979629517
vt 0.1609269976615906 0.8328109979629517
vt 0.1609269976615906 0.8312479853630066
f 309/233/309 318/234/318 324/235/324
vt 0.1624899953603745 0.8312479853630066
f 22/235/22 32/236/32 14/233/14
vt 0.1609269976615906 0.8296859860420227
f 93/236/93 132/235/132 219/237/219
vt 0.1624899953603745 0.8296859860420227
f 302/237/302 309/238/309 297/236/297
vt 0.1593649983406067 0.8304669857025146
vt 0.1593649983406067 0.8296859860420227
f 342/239/342 392/240/392 401/237/401
vt 0.1593649983406067 0.8312479853630066
f 341/235/341 340/241/340 390/239/390
f 309/237/309 320/235/320 297/239/297
vt 0.1593649983406067 0.8281229734420776
f 22/237/22 21/240/21 32/242/32
vt 0.1609269976615906 0.8281229734420776
f 245/242/245 175/243/175 174/237/174
f 309/238/309 325/237/325 320/243/320
vt 0.1624899953603745 0.8281229734420776
f 173/243/173 174/244/174 243/238/243
vt 0.1585830003023148 0.8308579921722412
vt 0.1585830003023148 0.8304669857025146
f 56/245/56 66/246/66 67/239/67
vt 0.1585830003023148 0.8312479853630066
f 325/241/325 321/247/321 332/245/332
f 309/239/309 328/241/328 325/245/325
vt 0.1581930071115494 0.8312479853630066
vt 0.1581930071115494 0.8308579921722412
f 383/247/383 402/248/402 393/249/393
f 313/249/313 312/245/312 304/247/304
vt 0.1578020006418228 0.8308579921722412
vt 0.1578020006418228 0.8304669857025146
f 314/249/314 306/250/306 327/251/327
vt 0.1581930071115494 0.8304669857025146
f 208/251/208 79/252/79 227/249/227
f 324/245/324 319/249/319 328/252/328
f 2/252/2 407/246/407 406/245/406
vt 0.1578020006418228 0.8296859860420227
f 344/252/344 357/251/357 369/253/369
vt 0.1585830003023148 0.8296859860420227
f 344/254/344 369/246/369 383/252/383
f 346/253/346 385/254/385 396/252/396
f 344/239/344 383/246/383 393/254/393
f 245/254/245 183/240/183 197/239/197
vt 0.1570210009813309 0.8304669857025146
vt 0.1570210009813309 0.8296859860420227
f 410/251/410 357/255/357 393/256/393
f 344/256/344 393/253/393 357/251/357
vt 0.1562400013208389 0.8296859860420227
vt 0.1562400013208389 0.8281229734420776
f 393/256/393 402/257/402 394/258/394
vt 0.1578020006418228 0.8281229734420776
f 276/259/276 277/253/277 265/256/265
f 265/258/265 318/259/318 309/256/309
f 315/254/315 327/253/327 322/259/322
f 233/242/233 117/240/117 198/254/198
f 403/259/403 393/242/393 394/254/394
vt 0.1562400013208389 0.8249980211257935
f 396/259/396 404/258/404 285/260/285
vt 0.1593649983406067 0.8249980211257935
f 34/261/34 41/242/41 33/259/33
f 345/260/345 346/261/346 403/259/403
f 345/243/345 403/242/403 394/261/394
vt 0.1624899953603745 0.8249980211257935
f 11/262/11 10/244/10 6/243/6
f 182/261/182 194/262/194 134/243/134
vt 0.1687400043010712 0.8343729972839355
vt 0.1656150072813034 0.8343729972839355
vt 0.1656150072813034 0.8312479853630066
f 403/263/403 348/264/348 393/265/393
vt 0.1687400043010712 0.8312479853630066
f 396/265/396 385/266/385 404/263/404
vt 0.1656150072813034 0.8281229734420776
f 335/266/335 333/265/333 350/267/350
vt 0.1687400043010712 0.8281229734420776
f 347/267/347 348/268/348 386/266/386
f 398/238/398 267/244/267 301/267/301
f 245/265/245 162/236/162 183/238/183
f 358/267/358 347/265/347 370/238/370
f 347/267/347 349/244/349 370/262/370
vt 0.1656150072813034 0.8249980211257935
f 336/262/336 335/269/335 376/267/376
f 386/268/386 387/267/387 349/269/349
vt 0.1687400043010712 0.8249980211257935
f 43/269/43 29/270/29 34/268/34
f 313/268/313 304/270/304 259/227/259
f 400/226/400 390/266/390 268/268/268
f 23/227/23 281/226/281 280/268/280
vt 0.1687400043010712 0.8187479972839355
f 348/227/348 396/270/396 387/271/387
vt 0.1749899983406067 0.8187479972839355
f 270/271/270 387/272/387 405/227/405
vt 0.1624899953603745 0.8187479972839355
f 58/269/58 226/262/226 59/273/59
f 343/271/343 356/270/356 355/269/355
f 53/273/53 387/271/387 270/269/270
vt 0.1624899953603745 0.8124979734420776
f 368/271/368 349/273/349 387/274/387
vt 0.1687400043010712 0.8124979734420776
f 270/274/270 396/275/396 285/271/285
f 53/272/53 270/271/270 303/275/303
vt 0.1749899983406067 0.8124979734420776
f 273/275/273 317/276/317 308/272/308
vt 0.1562400013208389 0.8187479972839355
f 53/261/53 303/260/303 50/277/50
f 34/273/34 42/262/42 28/261/28
f 175/277/175 198/273/198 176/261/176
vt 0.1531150043010712 0.8249980211257935
vt 0.1499900072813034 0.8249980211257935
f 41/278/41 39/279/39 26/221/26
f 47/277/47 44/260/44 35/278/35
f 35/221/35 30/277/30 43/278/43
f 35/277/35 21/221/21 22/224/22
vt 0.1562400013208389 0.8124979734420776
f 34/224/34 28/280/28 20/277/20
f 28/273/28 27/277/27 20/280/20
f 22/280/22 18/274/18 15/273/15
f 22/280/22 14/224/14 18/192/18
f 241/191/241 107/274/107 170/280/170
f 33/192/33 40/191/40 32/280/32
f 14/275/14 46/274/46 31/191/31
f 33/187/33 26/276/26 40/275/40
f 192/191/192 231/187/231 116/275/116
vt 0.1874900013208389 0.8124979734420776
f 34/232/34 20/228/20 41/281/41
vt 0.1999900043010712 0.8124979734420776
f 11/281/11 9/282/9 7/232/7
f 82/272/82 126/276/126 210/281/210
f 18/228/18 14/227/14 31/272/31
f 32/281/32 46/228/46 14/272/14
f 291/281/291 299/276/299 308/187/308
f 41/187/41 27/186/27 39/281/39
f 280/282/280 51/281/51 385/186/385
f 206/186/206 125/190/125 78/282/78
vt 0.2999910116195679 0.1999920010566711
vt 0.2499909996986389 0.1999920010566711
vt 0.2499909996986389 0.1499910056591034
f 32/283/32 40/284/40 46/285/46
vt 0.2999910116195679 0.1499910056591034
f 124/285/124 73/286/73 111/283/111
vt 0.2249899953603745 0.1499910056591034
f 40/131/40 13/138/13 46/287/46
f 26/287/26 12/285/12 8/284/8
f 40/284/40 26/128/26 8/131/8
f 313/131/313 305/287/305 312/284/312
vt 0.2249899953603745 0.1249909996986389
f 47/285/47 11/287/11 44/288/44
vt 0.2499909996986389 0.1249909996986389
f 47/288/47 35/289/35 22/285/22
vt 0.2124900072813034 0.1249909996986389
f 29/146/29 17/152/17 34/290/34
f 25/290/25 392/288/392 342/287/342
f 294/287/294 293/138/293 331/146/331
f 116/146/116 231/290/231 179/287/179
vt 0.2124900072813034 0.1124909967184067
f 93/288/93 67/290/67 251/291/251
vt 0.2249899953603745 0.1124909967184067
f 3/291/3 2/292/2 408/288/408
f 23/156/23 37/164/37 385/291/385
f 26/290/26 39/152/39 12/156/12
f 341/291/341 391/290/391 340/156/340
vt 0.2499909996986389 0.0999910011887550
f 25/293/25 342/289/342 38/288/38
vt 0.2999910116195679 0.0999910011887550
f 211/289/211 84/293/84 154/294/154
f 339/286/339 38/285/38 342/289/342
f 245/294/245 174/286/174 173/289/173
f 338/171/338 384/128/384 345/284/345
vt 0.2999910116195679 0.2999930083751678
f 154/284/154 84/283/84 210/295/210
f 339/295/339 342/168/342 381/171/381
f 223/171/223 225/284/225 94/295/94
vt 0.2999910116195679 0.3999939858913422
f 380/296/380 381/173/381 341/168/341
f 268/168/268 390/295/390 284/296/284
f 338/177/338 379/173/379 38/296/38
vt 0.2999910116195679 0.4999949932098389
f 335/297/335 351/174/351 333/177/333
f 338/296/338 345/297/345 379/177/379
f 24/181/24 23/174/23 338/297/338
vt 0.2999910116195679 0.5999959707260132
f 287/298/287 313/178/313 271/181/271
f 399/297/399 409/298/409 389/181/389
vt 0.2499909996986389 0.6999970078468323
f 111/299/111 102/182/102 110/185/110
f 148/185/148 177/178/177 201/298/201
vt 0.2999910116195679 0.6999970078468323
f 339/298/339 23/300/23 24/299/24
f 380/299/380 400/185/400 268/298/268
vt 0.2999910116195679 0.7999979853630066
vt 0.2499909996986389 0.7999979853630066
vt 0.2499909996986389 0.7499970197677612
f 380/301/380 268/302/268 52/303/52
vt 0.2999910116195679 0.7499970197677612
f 23/303/23 280/304/280 37/301/37
vt 0.2249899953603745 0.7999979853630066
f 65/305/65 242/190/242 249/189/249
f 380/189/380 281/197/281 23/303/23
f 52/303/52 262/302/262 281/305/281
f 180/305/180 191/189/191 116/303/116
f 268/303/268 262/197/262 52/182/52
f 37/182/37 280/299/280 385/303/385
f 281/304/281 262/303/262 288/299/288
f 351/299/351 371/300/371 333/304/333
vt 0.2499909996986389 0.8624989986419678
vt 0.2499909996986389 0.8499990105628967
vt 0.2749910056591034 0.8499990105628967
f 262/306/262 274/307/274 288/308/288
vt 0.2749910056591034 0.8749989867210388
vt 0.2499909996986389 0.8749989867210388
f 389/309/389 354/310/354 337/306/337
f 378/308/378 36/309/36 366/306/366
vt 0.2999910116195679 0.8749989867210388
f 36/311/36 10/309/10 366/308/366
vt 0.2999910116195679 0.8499990105628967
f 227/308/227 82/312/82 209/311/209
vt 0.2124900072813034 0.8609359860420227
vt 0.2109279930591583 0.8609359860420227
vt 0.2109279930591583 0.8593739867210388
f 378/313/378 366/314/366 399/315/399
vt 0.2124900072813034 0.8593739867210388
f 398/315/398 301/316/301 1/313/1
vt 0.2093649953603745 0.8593739867210388
vt 0.2093649953603745 0.8562489748001099
f 399/315/399 366/317/366 409/318/409
vt 0.2124900072813034 0.8562489748001099
f 331/319/331 48/316/48 359/315/359
f 410/318/410 347/319/347 358/315/358
vt 0.2062399983406067 0.8562489748001099
vt 0.2062399983406067 0.8499990105628967
f 395/318/395 396/320/396 348/321/348
vt 0.2124900072813034 0.8499990105628967
f 389/322/389 409/319/409 354/318/354
f 308/321/308 315/322/315 261/318/261
vt 0.2187400013208389 0.8593739867210388
vt 0.2187400013208389 0.8562489748001099
vt 0.2249899953603745 0.8562489748001099
f 11/323/11 7/324/7 10/325/10
vt 0.2249899953603745 0.8624989986419678
vt 0.2187400013208389 0.8624989986419678
f 281/326/281 288/327/288 280/323/280
f 409/325/409 353/326/353 365/323/365
vt 0.2156150043010712 0.8624989986419678
vt 0.2156150043010712 0.8593739867210388
f 238/327/238 109/328/109 123/329/123
f 354/329/354 409/323/409 364/327/364
f 380/329/380 390/316/390 400/319/400
vt 0.2156150043010712 0.8562489748001099
f 10/319/10 7/330/7 9/329/9
f 82/323/82 153/329/153 126/330/126
f 401/330/401 341/324/341 382/323/382
f 10/330/10 352/319/352 366/322/366
vt 0.2187400013208389 0.8499990105628967
f 10/331/10 9/324/9 352/330/352
f 74/322/74 75/331/75 256/330/256
f 9/325/9 363/324/363 352/331/352
vt 0.2249899953603745 0.8499990105628967
f 352/331/352 363/332/363 3/325/3
vt 0.2374909967184067 0.8749989867210388
vt 0.2374909967184067 0.8624989986419678
f 352/310/352 3/333/3 408/334/408
f 290/334/290 329/306/329 323/310/323
vt 0.2374909967184067 0.8499990105628967
f 365/325/365 352/332/352 2/335/2
f 352/334/352 408/326/408 2/325/2
f 365/335/365 362/334/362 4/325/4
f 365/306/365 2/334/2 362/335/362
f 3/335/3 407/307/407 2/306/2
vt 0.2249899953603745 0.8374980092048645
f 336/335/336 388/332/388 377/336/377
vt 0.2249899953603745 0.8249980211257935
vt 0.2499909996986389 0.8249980211257935
f 326/336/326 311/337/311 305/338/305
f 336/338/336 377/307/377 335/335/335
f 336/335/336 376/336/376 334/338/334
vt 0.2124900072813034 0.8374980092048645
f 335/331/335 374/322/374 334/339/334
f 335/336/335 361/332/361 374/331/374
f 380/339/380 52/336/52 281/331/281
vt 0.1999900043010712 0.8499990105628967
f 361/321/361 350/340/350 333/231/333
f 48/339/48 293/322/293 300/321/300
f 73/231/73 74/339/74 62/321/62
f 1/339/1 360/231/360 377/232/377
vt 0.2124900072813034 0.8249980211257935
f 290/232/290 316/341/316 308/339/308
f 301/336/301 360/339/360 1/341/1
f 301/341/301 49/337/49 360/336/360
f 122/341/122 187/232/187 188/282/188
f 301/282/301 331/190/331 49/305/49
f 366/305/366 352/337/352 365/341/365
f 301/341/301 294/282/294 331/305/331
f 313/338/313 259/337/259 271/305/271
f 360/305/360 49/302/49 331/338/331
f 351/308/351 360/307/360 359/338/359
f 133/338/133 144/302/144 193/301/193
f 360/301/360 331/312/331 359/308/359
f 351/308/351 359/338/359 371/301/371
vt 0.3749920129776001 0.0499899983406067
vt 0.3999930024147034 0.0499899983406067
vt 0.3999930024147034 0.0999910011887550
f 135/342/135 161/343/161 162/344/162
vt 0.3499920070171356 0.0999910011887550
vt 0.3499920070171356 0.0499899983406067
f 333/345/333 340/346/340 372/342/372
f 286/344/286 302/345/302 295/342/295
vt 0.3749920129776001 0.0249899998307228
f 333/343/333 371/342/371 340/347/340
vt 0.3999930024147034 0.0249899998307228
f 336/347/336 334/348/334 375/343/375
f 53/286/53 50/294/50 387/345/387
vt 0.3999930024147034 0.1999920010566711
f 359/345/359 48/344/48 371/349/371
f 331/349/331 293/283/293 48/286/48
f 371/286/371 266/345/266 397/349/397
vt 0.3999930024147034 0.2999930083751678
f 333/350/333 372/295/372 337/283/337
f 339/283/339 24/349/24 38/350/38
vt 0.3999930024147034 0.3999939858913422
f 333/351/333 337/296/337 373/295/373
f 291/295/291 298/350/298 290/351/290
vt 0.3999930024147034 0.4999949932098389
f 291/352/291 317/297/317 283/296/283
f 299/296/299 290/351/290 308/352/308
vt 0.3999930024147034 0.5999959707260132
f 290/353/290 323/298/323 316/297/316
f 403/297/403 346/352/346 395/353/395
vt 0.3999930024147034 0.6999970078468323
f 274/354/274 272/300/272 260/298/260
f 273/298/273 261/353/261 272/354/272
vt 0.3499920070171356 0.7999979853630066
f 262/355/262 272/301/272 274/304/274
f 316/304/316 327/300/327 307/354/307
vt 0.3999930024147034 0.7999979853630066
f 272/354/272 315/356/315 313/355/313
# 556 faces, 356 coords texture

# End of File
