####
#
# OBJ File Generated by Meshlab
#
####
# Object torso_base_link_10.obj
#
# Vertices: 239
# Faces: 462
#
####
mtllib ./torso_base_link_10.obj.mtl

vn 1.6533532959560766 -2.4513334061468690 -2.3382112349993065
v -0.0459875000000000 0.1196465000000000 -0.1226935000000000
vn 2.7226924387486191 -4.1315231049699790 1.6087427158991234
v -0.0459947692307692 0.1196472307692308 -0.1223858076923077
vn 3.0748723003622649 -0.3556484732415000 -2.6678486555674716
v -0.0447814788732394 0.1213562112676055 -0.1227129014084507
vn 2.0935781194388330 -2.3443790947980556 -2.9157634064266276
v -0.0454720833333333 0.1202711296296297 -0.1227007777777779
vn 4.2503350693581101 -2.6140588106337832 1.6277309467017362
v -0.0449415769230769 0.1206821153846154 -0.1223978076923077
vn 4.1575653830849664 -0.8700128363283663 4.4055887582200182
v -0.0454946589147288 0.1213294031007753 -0.1215936403100774
vn 2.3762660103788260 0.9659160421190766 2.4381767549017623
v -0.0458593421052631 0.1223117218045112 -0.1212883909774436
vn 1.8404078599042628 1.4432360073412172 -1.5432976231925948
v -0.0447952727272727 0.1223730545454546 -0.1227246545454545
vn 1.7806597045760817 1.8900342363891778 -1.7914333258034130
v -0.0456266041666667 0.1234518020833333 -0.1227367291666667
vn 2.4118664662754901 -0.5818514032323023 2.5039057315446893
v -0.0458305153846154 0.1213509179487181 -0.1212798897435897
vn 4.0108452128234795 2.2740078263730954 3.6135563614220270
v -0.0455482291970802 0.1224884948905109 -0.1216616350364962
vn 1.8727097675668447 1.9922110376728352 -3.9242898277072316
v -0.0453575000000000 0.1224997580645161 -0.1227261129032258
vn -0.4163041253991423 1.6872510774191518 -0.4346762366944594
v -0.0470304117647059 0.1241032058823529 -0.1224145882352941
vn 3.1173883220311747 -3.0745997683768493 4.2514960013946981
v -0.0460270588235294 0.1207550000000000 -0.1213815000000000
vn 3.6113127668716856 2.3515263681030052 1.6962610401752343
v -0.0448361910112359 0.1223355898876404 -0.1223214943820225
vn 2.9352465083049890 3.2069343276674118 1.6725702409451548
v -0.0456377349081365 0.1233964251968502 -0.1221992335958005
vn 0.2299462214936628 -3.0956075590018273 -2.5393719130067098
v -0.0466916865671642 0.1194795522388060 -0.1226917164179104
vn -2.3371609917159404 -3.7625786504780887 1.7273661674020382
v -0.0476258196721311 0.1195650601092895 -0.1222965136612022
vn -2.5404277350009354 1.8714323028897355 -1.8011072309166480
v -0.0464826111111111 0.1213538333333333 -0.1218936944444445
vn 1.6387132263177164 1.6054290026062514 -4.1527542471497414
v -0.0477427500000000 0.1212292500000000 -0.1227115000000000
vn 0.0002178138170612 -0.0719633529770429 -6.2827731683984727
v -0.0465646938775510 0.1200625102040816 -0.1226983673469388
vn -2.7792370203566823 1.2401664613615466 -2.4350830247307864
v -0.0489847982456140 0.1224935087719299 -0.1227258859649122
vn 1.8858753009952314 2.2777932134641925 1.6710542337397789
v -0.0464251666666667 0.1228711794871795 -0.1212773376068377
vn -0.7643257054687823 2.7677298824667989 4.8806237530146337
v -0.0473569882352941 0.1230558235294117 -0.1213151882352941
vn -3.5367578396718429 3.2495735939823449 1.9925427861272853
v -0.0485901228813560 0.1233152584745762 -0.1222495211864408
vn -2.3575043410067797 -3.9815507703720079 3.4580240658218688
v -0.0478158981481481 0.1201357962962963 -0.1217916273148148
vn 1.8252262136335256 -1.9042726082941985 -3.5477043439435310
v -0.0476369642857143 0.1224184642857143 -0.1227253214285714
vn 0.7866608033384841 2.7586950892722690 -2.3638002877013569
v -0.0466392352941177 0.1238215294117647 -0.1227410980392158
vn -2.7703844571340541 -1.2581379891871238 -2.3595999355190092
v -0.0490933913043478 0.1212857608695652 -0.1227121413043478
vn -3.2919293494960802 -0.7694945223346883 0.6806902881125796
v -0.0493786296296296 0.1217214074074074 -0.1224060740740741
vn 1.6110808393264029 -1.5649778314288332 2.3013786683199116
v -0.0461301250000000 0.1208591250000000 -0.1212385416666667
vn 1.8686469496375526 2.7828250671994028 0.8887929218093567
v -0.0463502577319588 0.1228059793814433 -0.1215246391752579
vn -1.6078019402482482 4.7393265431054381 3.1364890956785727
v -0.0476582328966521 0.1235173944687043 -0.1218942066957784
vn -3.2448146943635381 -3.1290707401229829 2.0666042468037489
v -0.0486737458563535 0.1203628038674035 -0.1221723701657458
vn -1.0546056809699811 -2.3452353290303627 2.5765473535184737
v -0.0476167779922780 0.1205604806949808 -0.1213235675675673
vn -1.5746902521978381 -1.8367554539296509 -1.5201962412088312
v -0.0476982142857143 0.1195419642857143 -0.1226923214285714
vn 0.4647692741497028 -5.1294823169122097 2.5323429365720771
v -0.0466856267281106 0.1195322165898617 -0.1222627880184335
vn 0.0007619347589167 -0.0715376726167694 -6.2827778633906703
v -0.0453638064516129 0.1214018387096774 -0.1227134516129032
vn 2.5012558145098600 -1.5747566042700336 -2.3956250275561426
v -0.0449380000000000 0.1206830000000000 -0.1227055000000000
vn 5.1201280863098031 -0.4924911695195011 2.3442582204998086
v -0.0448077723214286 0.1213876517857143 -0.1222900892857142
vn 3.5113950403544578 -3.5563320564098273 3.1765205519046553
v -0.0455860432220039 0.1203144184675837 -0.1220446385068764
vn -1.6536134135399232 1.1659300893659421 -4.9521946390146354
v -0.0464257500000000 0.1212701875000000 -0.1227121562500000
vn -1.9677397707728264 1.8042974726853238 -1.8043284322895039
v -0.0486458181818182 0.1233736363636363 -0.1227360727272727
vn -2.0191807133022994 -2.0813652428227116 -3.7686056340125647
v -0.0478431034482758 0.1200430689655172 -0.1226981551724138
vn 0.3322648928610041 3.0176340681776166 4.9536761487482073
v -0.0468513554216868 0.1230743373493976 -0.1213155722891565
vn -1.7685229149813235 1.7817278541699189 3.1482889257399043
v -0.0479217249999999 0.1226394075000003 -0.1212826775000000
vn -4.6022302469456990 1.8406245250951967 3.3225091716357404
v -0.0487779360222532 0.1223920584144646 -0.1218755521557720
vn -2.8981799988208299 -0.2659458111020500 4.9952916557938583
v -0.0483401354838710 0.1216026516129033 -0.1212986838709676
vn -2.6881548147320320 -1.3432418744568619 0.5912243907482673
v -0.0480432659574468 0.1210504680851064 -0.1215491170212766
vn 0.8901565612361233 -4.1307139918603282 4.4354847755378213
v -0.0465992169014085 0.1200496309859156 -0.1217459887323939
vn -1.6744130637445016 -1.8925915077909150 -3.8541206661707568
v -0.0466538846153846 0.1224797692307693 -0.1227258076923077
vn -0.5985914304466347 2.8184820404541875 -2.0215455408807346
v -0.0477385818181818 0.1237531545454546 -0.1227403090909090
vn -2.4221654071563345 -0.1160071086706601 -1.5724945520785831
v -0.0493783125000000 0.1217554375000000 -0.1227175625000000
vn -1.8757098222771214 -2.0124160060143073 -1.9273923777309723
v -0.0487178372093023 0.1203199302325581 -0.1227012906976745
vn 1.5644216043000472 4.4812795684049691 3.5749566886028727
v -0.0466355561357702 0.1234919778067885 -0.1218003120104441
vn -2.2271191739851459 2.3409431921634019 3.3028648765444584
v -0.0480276289062500 0.1227589374999998 -0.1214751562500001
vn -2.7204883753924296 0.7715310336508723 4.9030640394749385
v -0.0483237125000000 0.1220751125000001 -0.1213041125000000
vn -4.4189060462456018 -1.4601108198737576 3.7016184381267072
v -0.0487710026560425 0.1213708525896414 -0.1217857476759628
vn -2.2372655274456439 -1.7772932070745191 1.6715726358836847
v -0.0481298127490039 0.1211503067729083 -0.1212614541832669
vn 0.6256538297617675 -2.4583916195859210 2.5849989621545668
v -0.0466202630014859 0.1205133610698363 -0.1213160861812781
vn -0.0003185755561791 -0.0719518903974603 -6.2827731218234231
v -0.0466534848484849 0.0809565757575757 -0.1215535757575757
vn -0.0011620152969976 -0.0723936372650360 -6.2827679992745082
v -0.0453517872340425 0.0797453404255320 -0.1215396595744681
vn 1.8166621811714252 -1.5354170858685630 -1.4573659955365779
v -0.0448228421052632 0.0786016842105263 -0.1215268070175438
vn -1.4473369853965592 1.7731901174966356 -1.4736060140185332
v -0.0476558333333333 0.0815030000000000 -0.1215599074074073
vn 2.3073355655971599 -0.9890267397995464 2.5200221585737816
v -0.0458659054545454 0.0787293490909090 -0.1200929163636363
vn 3.6450791333961270 -2.2657902867046875 1.8686143264497357
v -0.0448612983870968 0.0786997258064517 -0.1210368790322581
vn 4.1093782488520745 0.9602499508892907 4.4968500364649291
v -0.0454972519440123 0.0796933203732504 -0.1204131601866253
vn 0.8716379773162183 4.1345838108581852 4.4737523782590118
v -0.0465995015432098 0.0808092577160491 -0.1204260756172837
vn -2.1856048171459248 3.7656129887924408 1.9545726911455605
v -0.0475795447154472 0.0814474390243903 -0.1210674715447155
vn -0.9799518084529369 2.3729492750280774 2.4386775709835331
v -0.0475864637681160 0.0804463840579710 -0.1201112862318843
vn -1.8496559394707894 1.7256159178597166 -1.6454308046019717
v -0.0487335051546392 0.0806674742268041 -0.1215501237113403
vn 1.9539263335741515 -1.7841940101498441 -1.7142192796372115
v -0.0455982441860465 0.0775802209302325 -0.1215150465116279
vn 3.9935156430285765 -2.2516021229546537 3.7488074590588796
v -0.0455555581737851 0.0785450824742268 -0.1204571296023565
vn 5.0877075094398370 0.3841903227482086 2.6354670605911066
v -0.0448289141104294 0.0795949693251534 -0.1210324478527608
vn 2.4395240189326306 0.6754456305591330 2.5657935638144180
v -0.0458234248021108 0.0796801029023746 -0.1201030211081795
vn 0.4420809016034142 5.0824744495784344 2.5013436003250962
v -0.0466844573170732 0.0814722804878049 -0.1210544573170732
vn 0.6157634535643515 2.4817585336007406 2.5317913459642165
v -0.0466199454545455 0.0804839116883117 -0.1201123116883122
vn -2.2895531962697273 3.9803261392242422 3.6277534780882092
v -0.0477528961424332 0.0807546721068250 -0.1204781439169142
vn 0.4537479734704881 1.7352523951015235 -0.4295232747661618
v 0.0470263823529412 0.1241032058823529 -0.1224145882352941
vn -2.0075320263195855 1.7413869600012808 -1.8421606493286229
v 0.0455949302325581 0.1234392906976745 -0.1227368255813954
vn -1.8437806445169720 1.5583917958101592 -1.5917372433926498
v 0.0448193157894737 0.1224180526315789 -0.1227251052631579
vn -2.4195354528561897 -0.5713786524460447 2.5012405746587194
v 0.0458218930481284 0.1213633449197860 -0.1212788529411766
vn -3.9893018267035467 2.2831259975264770 3.6696569238121621
v 0.0455434749642346 0.1224818869814020 -0.1216595135908441
vn 0.0001742679045083 -0.0712279133893571 -6.2827815175774031
v 0.0453484255319149 0.1212743829787233 -0.1227119787234043
vn -2.4382736001779355 -1.6644859400413372 -2.3601794829856582
v 0.0449215000000000 0.1207095000000000 -0.1227055000000000
vn 1.4655395598090546 -1.8760297627567071 -1.5562340996577695
v 0.0476528333333333 0.1195168148148148 -0.1226920925925925
vn -5.1314881799216376 -0.4367790514232845 2.4829859337009470
v 0.0448023640552995 0.1214121612903224 -0.1222841889400921
vn -3.5759179503150018 -3.5193392261100120 3.1329976012864749
v 0.0455848060000000 0.1202973580000002 -0.1220592120000002
vn -0.5082665973222695 -5.1094842552531405 2.4083228907004424
v 0.0466578883928571 0.1195342008928570 -0.1222690580357145
vn 1.4523835868351718 1.5021579311849931 -4.8645575093205791
v 0.0465525666666667 0.1211298666666667 -0.1227103333333333
vn 1.8281639579982423 1.9574564720845258 -1.8153282759631391
v 0.0486488363636364 0.1233671090909090 -0.1227357272727273
vn 2.0067282138054980 -1.7685914377373124 -4.2834926983598871
v 0.0477496349206349 0.1200761269841270 -0.1226985714285715
vn -2.6311388971245675 -4.2432751769532855 1.6380845203788463
v 0.0459553200000000 0.1196656400000000 -0.1223897200000001
vn 2.3965991934130479 -1.4217985837018869 0.5826067746012501
v 0.0480708627450980 0.1210869607843137 -0.1215350686274510
vn 2.8531957446312659 -0.2500738584919343 5.0044952470072008
v 0.0483380193548387 0.1216107999999999 -0.1212987419354840
vn -0.9021976442226685 -4.1510724641577630 4.4041341531164697
v 0.0465827859154929 0.1200626873239438 -0.1217367521126755
vn -0.3023099006905136 3.0317469446891518 4.9554910122461884
v 0.0468594634146341 0.1230758658536584 -0.1213155792682926
vn 1.7654919206076833 1.7759260758373316 3.1483080772408822
v 0.0479186009852216 0.1226426133004928 -0.1212829482758621
vn 4.5931651124082649 1.7685850785553123 3.4308569258604877
v 0.0487804066570189 0.1223861143270621 -0.1218777930535454
vn -3.0703656395152907 -0.2529006703868190 -2.5926139068256422
v 0.0447570434782609 0.1214187971014494 -0.1227137246376812
vn -2.3003454477987018 -2.1414443885804304 -2.9457996659603305
v 0.0455413364485981 0.1201988411214953 -0.1226999532710280
vn -0.3353898023584223 -3.0960120558963675 -2.5992823388005091
v 0.0466292608695652 0.1194990869565217 -0.1226919130434782
vn -4.1659030116381519 -2.6765824532257478 1.5961039058190027
v 0.0449195555555555 0.1207176296296297 -0.1223943703703703
vn -4.1463641927032651 -0.9224217157833776 4.4122849489046807
v 0.0454879492868464 0.1213263946117274 -0.1215975673534070
vn 2.1330561588276593 -3.9584216880212351 1.9212582475372506
v 0.0476032768361582 0.1195617118644067 -0.1222898644067798
vn -2.3504229817631419 1.0047949970448842 2.4567995160533513
v 0.0458603440860215 0.1223171756272402 -0.1212889999999999
vn 2.0612531967038894 -1.5979239370871881 -3.7261886535197877
v -0.0477802000000000 0.0796727600000000 -0.1215387600000000
vn -1.7750339896112552 1.4280156157911628 -4.1504277097601170
v -0.0465278285714286 0.0785832285714286 -0.1215265428571428
vn 2.3574599771948090 1.6523251882508387 -2.2966726614154562
v -0.0449245000000000 0.0803105000000000 -0.1215465000000000
vn 1.5279816516735014 2.4738356263160250 -2.3993014514951452
v -0.0459610000000000 0.0813600000000000 -0.1215580000000000
vn -4.3707784532802796 1.6416350044115775 3.6426636554375156
v -0.0487360303867402 0.0796511450276242 -0.1205613370165744
vn -2.6819772402099784 -0.6847915944101791 4.9598527930954113
v -0.0483213500000000 0.0789675250000001 -0.1201136625000000
vn 0.9089969615259753 -4.7340472022403048 3.2731164086165818
v -0.0466727271468143 0.0775495983379501 -0.1205581662049862
vn -0.6959248292405971 -2.6404529014752538 4.9930582798033489
v -0.0473218750000000 0.0779856562500000 -0.1201025625000001
vn 1.7544627643022161 -1.5515746311413554 -4.1279489053350389
v 0.0465248285714286 0.1224361714285714 -0.1227254571428572
vn 2.6044799584204941 0.1555453033642191 -1.8812927433100128
v 0.0493753636363636 0.1218037272727273 -0.1227180909090909
vn 0.7378638719545088 2.8413849914270144 -2.1550386320054771
v 0.0477685964912281 0.1237062807017544 -0.1227397631578948
vn 1.9135137275282657 -1.8016351395906589 -1.7628152178854484
v 0.0487260714285714 0.1203463367346940 -0.1227016428571429
vn 2.2690474689625026 -1.7750032621624889 1.6127560722074055
v 0.0481315945945946 0.1211498185328186 -0.1212647760617760
vn -0.6108844212876914 -2.4709489345944853 2.5850552684005530
v 0.0466272072617246 0.1205077246596068 -0.1213170559757945
vn -1.4402827864432997 4.4792614357865785 3.7033738950498183
v 0.0466450159574469 0.1234977632978723 -0.1218017965425529
vn 2.0741479026385434 2.0980680950435491 3.2774429027583221
v 0.0480214230769231 0.1227649653846154 -0.1214728961538461
vn 2.6943895085386660 0.7899600702102753 4.9172572627019351
v 0.0483180750000000 0.1220843374999999 -0.1213042124999999
vn 4.4629730554393001 -1.5103370784443917 3.5778260113219544
v 0.0487758025806450 0.1213712696774196 -0.1217943896774192
vn -2.0004766921205075 2.0606756182312926 -3.5198934853758828
v 0.0453245087719298 0.1225689649122807 -0.1227266666666667
vn -3.1309693982915601 -3.0581029165557281 4.2482879245623142
v 0.0460238500000000 0.1207549250000000 -0.1213815750000000
vn -3.6298401389217849 2.4058693433058771 1.6714024642009293
v 0.0448363097826087 0.1223546467391304 -0.1223282445652175
vn -3.3087866405162933 2.9893726257747275 1.8729857811981374
v 0.0456398699186992 0.1233947344173443 -0.1221953794037940
vn -0.0000484804194153 -0.0708518451584868 -6.2827856872787153
v 0.0466498484848485 0.1200630000000000 -0.1226982424242424
vn -2.0546558453251622 1.5135924650913024 -3.7477455155964732
v 0.0477769200000000 0.1213469600000000 -0.1227130400000000
vn 2.7755997363386991 1.1941764620991620 -2.3488466069628600
v 0.0490315321100917 0.1224669266055045 -0.1227257522935780
vn -1.5558507880793424 -2.5325417835428357 -2.3881603350847072
v 0.0459580000000000 0.1196600000000000 -0.1226935000000000
vn 2.3364894642566658 -4.0323012374144582 3.3399677683629267
v 0.0478063302540416 0.1201355658198616 -0.1217906812933021
vn -1.8670917884720837 2.2503470829097929 1.8094880709857406
v 0.0464340484581498 0.1228776784140968 -0.1212766563876654
vn 0.7818070820409324 2.7712088372993131 4.8810825981955759
v 0.0473636206896552 0.1230533678160920 -0.1213151839080458
vn 3.2450530357841680 3.5594514826302710 2.0001360171798268
v 0.0485857341772152 0.1233159535864980 -0.1222489282700423
vn 2.6561031317936816 2.4651287464473746 -1.7835314250281937
v 0.0465799714285714 0.1212313714285714 -0.1219255714285714
vn -1.9226722202542645 -1.8185576894672379 -3.5241794229686780
v 0.0477072857142857 0.1223476428571429 -0.1227242857142857
vn 2.6505654934994389 -1.5875594588943833 -2.6314349749691330
v 0.0490646483516484 0.1213176593406593 -0.1227124615384615
vn -0.6484514713559369 2.7828521950321083 -2.2998572245953581
v 0.0466297962962963 0.1238525925925926 -0.1227413981481482
vn 4.2413248282912601 -0.1344552702048306 1.1617997148415866
v 0.0493760000000000 0.1217600526315789 -0.1224436315789474
vn -1.5765566369576720 -1.5918821593976529 2.3127345482844017
v 0.0461363437500000 0.1208514687500000 -0.1212384375000001
vn 3.2947411891901499 -2.8568670848703990 1.8162242263857606
v 0.0486678075880759 0.1203696016260164 -0.1221601761517614
vn 1.0784899361664315 -2.3286039399244745 2.5593049739861948
v 0.0476186240458014 0.1205642900763359 -0.1213215038167937
vn -1.5076716833855743 2.9208962995319934 0.8101407501087783
v 0.0463033762376238 0.1227790693069307 -0.1215178118811882
vn 1.6755602424910283 4.7546223030850312 3.0295858697050488
v 0.0476663328611898 0.1235132237960341 -0.1218952407932012
vn 2.1613007855229811 -2.1921301453172828 3.4617634568290967
v 0.0480167746478874 0.0782792781690141 -0.1202661232394364
vn 3.4753254819022570 -3.1886709587917679 2.2484595761547088
v 0.0485586276595745 0.0777406170212766 -0.1209467021276595
vn -1.8390421346802310 -2.2595405000983253 1.8310668288799703
v 0.0464347276264591 0.0781683190661479 -0.1200720038910506
vn 2.2651648337541999 1.8770920165862015 1.7489449535019528
v 0.0481426425531915 0.0798724382978723 -0.1200883744680852
vn 1.2295299703025047 -2.7922119670511134 -2.2844057666892543
v 0.0477354000000001 0.0772663000000000 -0.1215115818181818
vn -0.0760998121222791 -2.2123268026591587 -1.0433936803800337
v 0.0470787272727273 0.0769190909090909 -0.1215080000000000
vn -0.1764570270521436 0.1576969995380686 0.2786588488494087
v 0.0493753636363636 0.0793197272727273 -0.1215345454545455
vn 2.8304774357134876 -0.6569375052981349 -1.9736342610466378
v 0.0489815789473685 0.0785261842105263 -0.1215258947368421
vn 2.6010342528585091 -1.9153342491148131 -1.7567689502893240
v 0.0464753243243243 0.0796816486486487 -0.1207415135135135
vn 1.5671337744704372 -4.5840963602989504 3.4920506676753682
v 0.0476501990291261 0.0775571974110033 -0.1206192637540451
vn -0.2729695560548086 -2.8495512972951382 5.0549597119483645
v 0.0468936363636364 0.0779682937062936 -0.1201022517482516
vn 2.9385672098830833 0.3698294611562567 5.0372406171820545
v 0.0483371698113207 0.0794412012578615 -0.1201191320754717
vn 4.7934637693092332 -1.2687396268777269 2.9926650651125359
v 0.0487396916932907 0.0786405958466454 -0.1206278801916933
vn -0.3207178985728811 0.3248351172326995 -0.2245276939157066
v 0.0493760000000000 0.0792590000000000 -0.1211340000000000
vn 1.9369376677498864 -1.8247006469250078 -1.6766359871968499
v 0.0486423818181818 0.0776460545454545 -0.1215157272727273
vn -1.8312302920596895 1.8218805135755221 -3.5821601929303375
v 0.0476334285714286 0.0786007857142857 -0.1215266785714285
vn 1.6516225749049744 -1.2913887946086453 -4.9185634488527343
v 0.0464255483870968 0.0797550322580645 -0.1215397419354839
vn 1.7144498158177914 -1.7154216529309259 3.2140127181087212
v 0.0478947528868359 0.0783894688221708 -0.1200812909930717
vn -1.9260979668192955 -2.9278421235447665 1.2658441294631304
v 0.0463471454545455 0.0782159818181819 -0.1203032181818181
vn 2.7855655631507026 1.5658099494366520 1.0431989131483872
v 0.0480464646464647 0.0800027373737374 -0.1203737878787879
vn -0.9398549077566707 0.9195340518078634 -2.3492964321354006
v 0.0461295000000000 0.0801510000000000 -0.1200440000000000
vn -1.3318649461925687 -2.7518378795469842 -2.3370920651057130
v 0.0465823956043956 0.0772317032967033 -0.1215111978021978
vn 2.8188353191104651 0.0759328852978407 -1.5466044732000783
v 0.0491046804123711 0.0797032577319588 -0.1215392164948453
vn 0.6829619027532026 -2.6435477357301891 4.9863354959100930
v 0.0473114375000000 0.0779840625000000 -0.1201025000000001
vn -1.3002139223742237 -4.5748646368911619 3.5111341082824921
v 0.0466589422283356 0.0775577056396148 -0.1205524346629989
vn 4.7117370617452057 1.0169544505684123 3.2252525605653415
v 0.0487387534435262 0.0796343911845732 -0.1205647685950416
vn 2.6719679424218556 -0.6967445060200272 4.9775905360102275
v 0.0483188026315789 0.0789685921052631 -0.1201137236842105
vn -1.6502539630302495 -1.7004141786575144 -4.0934131285804920
v 0.0477393437500000 0.0797902500000000 -0.1215400000000000
vn 1.6828047299584359 1.8022698472570704 -3.8682906009749463
v 0.0466506153846154 0.0785402307692308 -0.1215258846153846
vn -2.9058108509647820 -3.1733618345192580 1.8812605078787050
v 0.0456598438538206 0.0776496112956811 -0.1209125315614618
vn -1.8564055378375628 -2.1047648385697255 -3.8699165049129816
v 0.0453542258064516 0.0785197903225807 -0.1215258870967743
vn -3.0531109781304160 0.3066132091865157 -2.5523093217819239
v 0.0447780563380282 0.0796635492957747 -0.1215387323943662
vn -3.9855577013244776 -2.2334099126011360 3.7248514323221666
v 0.0455574970501475 0.0785440619469028 -0.1204539719764014
vn -2.3616379688580795 0.8558542365046282 2.4869290300261957
v 0.0458237105263158 0.0796873789473685 -0.1201031315789472
vn -5.0876106164765247 0.5059367378205216 2.5080988103361435
v 0.0448284573170732 0.0796202073170732 -0.1210333536585366
vn -1.7671838314609096 -1.8908466924467491 -1.6717069646087472
v 0.0456232187500000 0.0775678020833333 -0.1215149895833333
vn -2.3796550112930479 -0.8996124579790330 2.4561298977257415
v 0.0458560451127820 0.0787405488721804 -0.1200927518796992
vn -3.7884463584110262 -2.1927283544663951 1.9787796560001885
v 0.0448527073170732 0.0787241626016260 -0.1210363170731706
vn -4.0762224356148087 0.9075361947230307 4.5277802662147870
v 0.0454886796267497 0.0796969673405911 -0.1204181041990671
vn -3.3469635257798505 3.4566551333141402 3.5585275111431613
v 0.0456378150406505 0.0806424166666666 -0.1207736056910570
vn -0.8156495666717616 2.3865601494946027 2.4876987869410074
v 0.0466251601049869 0.0804857664041995 -0.1201112624671910
vn -0.3573275315017689 5.1117765668148163 2.5985059485551414
v 0.0467054110429448 0.0814749447852761 -0.1210539263803683
vn 2.3048319666042385 3.9550892322064843 3.6954137571900350
v 0.0477554767441860 0.0807534273255813 -0.1204786337209302
vn 1.7631645247032470 1.9312276198509930 -1.7415526134329342
v 0.0487146046511628 0.0806996046511628 -0.1215506511627907
vn -0.8991841908697118 4.1196816922566555 4.4891612191929644
v 0.0466006149068323 0.0808164922360249 -0.1204325869565225
vn 2.2758350705906101 3.6702829385787714 1.8236228567391226
v 0.0475947967479675 0.0814435853658536 -0.1210672764227643
vn 1.0033354297836008 2.3598450448313515 2.4575666310179511
v 0.0475941302816901 0.0804411936619718 -0.1201129436619719
vn 3.0307006181042002 3.1940774016871174 2.1653978459594923
v 0.0486374375000001 0.0806262302631578 -0.1209252532894737
vn -0.1866236968964721 3.0209600577361568 -2.5165094398046808
v 0.0466883432835821 0.0815402238805970 -0.1215602835820895
vn 2.1062591393457408 1.9673179787884971 -3.4792300946617116
v 0.0478396206896552 0.0809766551724138 -0.1215538448275862
vn -4.0522242629472132 2.5307620416234515 1.6754848149434354
v 0.0449360000000000 0.0803395000000000 -0.1211465000000000
vn -2.7465425603449058 3.7861959006075474 1.5306402550011564
v 0.0459825000000000 0.0813755000000000 -0.1211585000000000
vn -1.8377029757872663 -1.4536119372523841 -1.4638814497663533
v 0.0447920000000000 0.0786466727272727 -0.1215272545454545
vn -0.0003030376603708 -0.0710015102137917 -6.2827839350972399
v 0.0453606129032258 0.0796175806451613 -0.1215383548387097
vn -2.4984116025681522 1.4971235262151168 -2.3892610799703453
v 0.0449350000000000 0.0803370000000000 -0.1215465000000000
vn -1.6818401585017555 2.3334790851806670 -2.3124401816766014
v 0.0459845000000000 0.0813735000000000 -0.1215585000000000
vn -2.0281464543451149 2.3006020940328460 -2.7377558287052950
v 0.0454696759259259 0.0807488981481481 -0.1215510740740741
vn 1.5184677385758785 1.7714906664691981 -1.4602676552592195
v 0.0476950357142857 0.0814773928571429 -0.1215593928571429
vn -0.0000222944832868 -0.0731494095245485 -6.2827588199400104
v 0.0465615306122449 0.0809571020408163 -0.1215533469387755
vn -2.6953343379368127 1.3919309725967088 -2.4855810613171117
v -0.0490501046511628 0.0797198023255814 -0.1215394302325582
vn 0.2771858046849884 -2.7940643785712975 -1.7340221362579364
v -0.0465939381443299 0.0771950206185567 -0.1215107731958763
vn 3.7804873911958929 2.7466139452748792 1.5461225586853862
v -0.0449248000000000 0.0803130666666667 -0.1211464666666667
vn 2.5107375806375183 4.0778807749863670 1.6622649055072027
v -0.0459630000000000 0.0813630000000000 -0.1211580000000000
vn 1.5624743859930428 1.6001749280926350 2.2724579458824898
v -0.0461423333333333 0.0801610000000000 -0.1200443333333334
vn 3.1129557314529652 3.0825178489777865 4.2638168021453868
v -0.0460780000000000 0.0802170000000000 -0.1201280000000000
vn -2.2469703045674221 1.4362392956617942 0.7816408134780444
v -0.0480626947368421 0.0799503263157894 -0.1203780105263157
vn 1.5669069784741292 -3.0305846119166677 1.1698553222552088
v -0.0463050603448276 0.0782418103448276 -0.1202965689655171
vn -1.7133332563884074 -1.7064588402039249 3.2145465417069925
v -0.0478935443645084 0.0783870431654677 -0.1200804892086330
vn 2.0174721629275854 -2.1336108737779500 -3.4535671142464683
v -0.0453276491228070 0.0784506842105263 -0.1215249824561404
vn 3.0558678431438131 0.1492913199327694 -2.5026502036991802
v -0.0447602608695652 0.0796006666666667 -0.1215380289855073
vn 0.3425195664217571 3.0164998245589469 -2.5544439313865395
v -0.0466324202898551 0.0815203188405797 -0.1215599275362320
vn -2.1056702272791910 1.7360667717360405 -3.9423262488979587
v -0.0477604531250000 0.0809488750000000 -0.1215533593750000
vn -3.1851771292295155 2.8662022481630096 1.9836350665666105
v -0.0486442774193549 0.0806179774193549 -0.1209211129032258
vn 3.2386771284723368 -3.0091496591401103 2.1246824810513196
v -0.0456678585526316 0.0776631217105263 -0.1208982269736844
vn -2.6246879774180010 -2.5060656397569585 -1.7434279064761808
v -0.0465959714285714 0.0798052000000000 -0.1207400285714286
vn -2.3553175866669163 0.2221565395534880 -1.5010841086401330
v -0.0493783125000000 0.0792721250000000 -0.1215342500000000
vn -2.7710277733308062 -1.1925076736453846 -2.2253076313824915
v -0.0490347889908257 0.0785527522935780 -0.1215262018348625
vn -0.6402647025455056 -2.8568976430469224 -1.9616014540264357
v -0.0477719298245614 0.0773132982456141 -0.1215121403508772
vn 0.0000000000000000 0.0000000000000000 0.0000000000000000
v -0.0469782727272727 0.0769190909090909 -0.1215080000000000
vn 3.4952946521799300 3.4461240700553839 3.4693789342896086
v -0.0456536457489879 0.0806572712550609 -0.1207764412955466
vn -2.2697521564904712 1.9227991077229791 1.5895814758641091
v -0.0481485957446808 0.0798695914893617 -0.1200900765957448
vn -3.1925879692661439 -3.4667961405538743 2.2507717423731513
v -0.0485577978142077 0.0777370437158469 -0.1209461420765028
vn -1.9889952362651990 -1.9483376694278900 3.4319093626304107
v -0.0480063018181818 0.0782605127272727 -0.1202694509090910
vn 1.8201202545569668 -2.2388109968576408 1.9362916380008373
v -0.0464387192307693 0.0781658730769231 -0.1200723461538462
vn -1.4403951867945908 -1.6387534844458627 -4.8178316137034134
v -0.0465739032258064 0.0798937096774194 -0.1215411935483871
vn 1.9334076031903638 1.7213559701898757 -3.5732912655302331
v -0.0477132592592593 0.0786666296296296 -0.1215273703703703
vn 2.3297296420847147 1.9995652945706763 -2.7374043045432721
v -0.0455447383177570 0.0808207102803738 -0.1215520000000000
vn -1.8072891841439038 -1.9578531920880347 -1.6783391593247856
v -0.0486520363636364 0.0776525090909091 -0.1215158909090909
vn -3.3575796655726808 -0.0567885749006605 0.8149950124920845
v -0.0493779333333333 0.0792246666666667 -0.1211334666666667
vn -2.9360581560825851 0.3402897810597155 5.0166060240039423
v -0.0483413548387097 0.0794410322580645 -0.1201191096774194
vn -4.4969195713417403 -1.7364042316975348 3.5917939875296785
v -0.0487392951612904 0.0786528016129034 -0.1206204967741937
vn 0.2568900360450578 -2.8395674637149093 5.0600664995539875
v -0.0469050629370630 0.0779675804195804 -0.1201022237762235
vn -1.2943708748393075 -4.7702703916689506 3.0274302932737438
v -0.0476579629032259 0.0775592225806451 -0.1206176193548391
# 239 vertices, 0 vertices normals


usemtl material_0
vt 0.0325950011610985 0.8170509934425354
vt 0.0346679985523224 0.8170509934425354
vt 0.0346679985523224 0.8342949748039246
f 56/1/56 27/2/27 51/3/51
vt 0.0305220000445843 0.8342949748039246
vt 0.0305220000445843 0.8170509934425354
f 56/4/56 51/5/51 32/1/32
f 56/3/56 32/4/32 19/1/19
vt 0.0284480005502701 0.8170509934425354
f 49/6/49 19/5/19 42/4/42
vt 0.0263749994337559 0.8342949748039246
vt 0.0263749994337559 0.8170509934425354
f 51/7/51 19/8/19 32/6/32
f 27/4/27 22/7/22 52/6/52
vt 0.0284480005502701 0.8084290027618408
f 4/5/4 21/6/21 42/9/42
vt 0.0305220000445843 0.8084290027618408
f 44/9/44 20/10/20 42/5/42
vt 0.0263749994337559 0.8084290027618408
f 17/6/17 36/8/36 44/11/44
f 1/11/1 17/9/17 21/6/21
vt 0.0325950011610985 0.8084290027618408
f 51/2/51 12/1/12 42/12/42
vt 0.0346679985523224 0.8084290027618408
f 12/12/12 38/13/38 42/2/42
f 4/1/4 38/5/38 3/10/3
f 4/10/4 3/12/3 39/1/39
vt 0.0305220000445843 0.8687819838523865
vt 0.0263749994337559 0.8687819838523865
f 22/14/22 43/15/43 52/7/52
f 27/7/27 52/4/52 28/14/28
vt 0.0346679985523224 0.8687819838523865
f 51/4/51 28/3/28 9/16/9
f 17/16/17 44/14/44 21/4/21
vt 0.0305220000445843 0.8860250115394592
vt 0.0263749994337559 0.8860250115394592
f 40/17/40 39/18/39 3/15/3
f 40/15/40 5/14/5 39/17/39
vt 0.0346679985523224 0.8860250115394592
f 11/19/11 8/17/8 12/14/12
f 16/14/16 11/16/11 12/19/12
vt 0.0407820008695126 0.8170509934425354
vt 0.0428199991583824 0.8170509934425354
vt 0.0428199991583824 0.8342949748039246
f 55/20/55 9/21/9 28/22/28
vt 0.0387439988553524 0.8342949748039246
vt 0.0387439988553524 0.8170509934425354
f 55/23/55 16/24/16 9/20/9
f 33/22/33 28/23/28 52/20/52
f 33/23/33 13/3/13 28/2/28
f 25/2/25 52/24/52 43/23/43
vt 0.0407820008695126 0.8084290027618408
f 25/21/25 33/20/33 52/25/52
vt 0.0428199991583824 0.8084290027618408
f 51/25/51 9/26/9 12/21/12
vt 0.0387439988553524 0.8084290027618408
f 47/20/47 43/24/43 22/27/22
f 47/27/47 25/25/25 43/20/43
vt 0.0387439988553524 0.8687819838523865
f 47/28/47 22/16/22 53/3/53
f 34/3/34 29/23/29 54/28/54
vt 0.0428199991583824 0.8687819838523865
f 34/23/34 58/22/58 29/29/29
f 26/29/26 44/28/44 18/23/18
vt 0.0387439988553524 0.8860250115394592
f 26/30/26 54/19/54 44/16/44
f 26/16/26 34/28/34 54/30/54
vt 0.0428199991583824 0.8860250115394592
f 58/31/58 47/30/47 30/28/30
f 49/28/49 42/29/42 20/31/20
vt 0.0486029982566833 0.8170509934425354
vt 0.0505309998989105 0.8170509934425354
vt 0.0505309998989105 0.8342949748039246
f 18/32/18 36/33/36 17/34/17
vt 0.0466750003397465 0.8342949748039246
vt 0.0466750003397465 0.8170509934425354
f 2/35/2 17/36/17 1/32/1
f 37/34/37 17/35/17 2/32/2
f 41/35/41 2/22/2 1/21/1
f 6/21/6 5/36/5 40/35/40
vt 0.0486029982566833 0.8084290027618408
f 55/33/55 23/32/23 32/37/32
vt 0.0505309998989105 0.8084290027618408
f 33/37/33 45/38/45 55/33/55
vt 0.0466750003397465 0.8084290027618408
f 46/32/46 33/36/33 56/39/56
f 50/39/50 37/37/37 2/32/2
vt 0.0466750003397465 0.8687819838523865
f 47/40/47 46/29/46 56/22/56
f 11/22/11 7/35/7 10/40/10
vt 0.0505309998989105 0.8687819838523865
f 59/35/59 48/34/48 58/41/58
f 59/41/59 46/40/46 57/35/57
vt 0.0466750003397465 0.8860250115394592
f 11/42/11 6/31/6 40/29/40
f 11/29/11 40/40/40 15/42/15
vt 0.0505309998989105 0.8860250115394592
f 23/43/23 7/42/7 11/40/11
f 16/40/16 32/41/32 11/43/11
vt 0.0563130006194115 0.8170509934425354
vt 0.0582409985363483 0.8170509934425354
vt 0.0582409985363483 0.8342949748039246
f 46/44/46 24/45/24 33/46/33
vt 0.0543860010802746 0.8342949748039246
vt 0.0543860010802746 0.8170509934425354
f 47/47/47 56/48/56 25/44/25
f 10/46/10 31/47/31 14/44/14
f 58/47/58 48/34/48 47/33/47
f 41/33/41 10/48/10 14/47/14
vt 0.0563130006194115 0.8084290027618408
f 34/45/34 49/44/49 58/49/58
vt 0.0582409985363483 0.8084290027618408
f 26/49/26 59/50/59 49/45/49
vt 0.0543860010802746 0.8084290027618408
f 35/44/35 59/48/59 26/51/26
f 50/51/50 18/49/18 37/44/37
vt 0.0543860010802746 0.8687819838523865
f 60/52/60 26/41/26 50/34/50
f 60/34/60 35/47/35 26/52/26
vt 0.0582409985363483 0.8687819838523865
f 41/47/41 1/46/1 4/53/4
f 41/53/41 6/52/6 10/47/10
vt 0.0543860010802746 0.8860250115394592
f 60/54/60 50/43/50 41/41/41
f 221/41/221 212/52/212 231/54/231
vt 0.0582409985363483 0.8860250115394592
f 108/55/108 229/54/229 213/52/213
f 47/52/47 53/53/53 30/55/30
vt 0.0640230029821396 0.8170509934425354
vt 0.0659509971737862 0.8170509934425354
vt 0.0659509971737862 0.8342949748039246
f 221/56/221 108/57/108 213/58/213
vt 0.0620959997177124 0.8342949748039246
vt 0.0620959997177124 0.8170509934425354
f 232/59/232 206/60/206 107/56/107
f 64/58/64 217/59/217 218/56/218
f 231/59/231 107/46/107 218/45/218
f 217/45/217 110/60/110 233/59/233
vt 0.0640230029821396 0.8084290027618408
f 108/57/108 224/56/224 232/61/232
vt 0.0659509971737862 0.8084290027618408
f 216/61/216 63/62/63 215/57/215
vt 0.0620959997177124 0.8084290027618408
f 109/56/109 216/60/216 62/63/62
f 233/63/233 109/61/109 62/56/62
vt 0.0620959997177124 0.8687819838523865
f 107/64/107 206/53/206 71/46/71
f 50/46/50 26/59/26 18/64/18
vt 0.0659509971737862 0.8687819838523865
f 217/59/217 61/58/61 218/65/218
f 233/65/233 231/64/231 61/59/61
vt 0.0620959997177124 0.8860250115394592
f 233/66/233 62/55/62 231/53/231
f 73/53/73 72/64/72 215/66/215
vt 0.0659509971737862 0.8860250115394592
f 73/67/73 220/66/220 72/64/72
f 66/64/66 215/65/215 63/67/63
vt 0.0717340037226677 0.8170509934425354
vt 0.0736609995365143 0.8170509934425354
vt 0.0736609995365143 0.8342949748039246
f 74/68/74 66/69/66 63/70/63
vt 0.0698060020804405 0.8342949748039246
vt 0.0698060020804405 0.8170509934425354
f 208/71/208 216/72/216 109/68/109
f 54/70/54 20/71/20 44/68/44
f 226/71/226 208/58/208 109/57/109
f 76/57/76 110/72/110 217/71/217
vt 0.0717340037226677 0.8084290027618408
f 76/69/76 209/68/209 110/73/110
vt 0.0736609995365143 0.8084290027618408
f 69/73/69 217/74/217 64/69/64
vt 0.0698060020804405 0.8084290027618408
f 69/68/69 76/72/76 217/75/217
f 64/75/64 218/73/218 78/68/78
vt 0.0698060020804405 0.8687819838523865
f 219/76/219 78/65/78 218/58/218
f 111/58/111 71/71/71 206/76/206
vt 0.0736609995365143 0.8687819838523865
f 217/71/217 233/70/233 61/77/61
f 111/77/111 219/76/219 71/71/71
vt 0.0698060020804405 0.8860250115394592
f 237/78/237 222/67/222 223/65/223
f 111/65/111 222/76/222 235/78/235
vt 0.0736609995365143 0.8860250115394592
f 224/79/224 239/78/239 234/76/234
f 4/76/4 42/77/42 38/79/38
vt 0.0794439986348152 0.8170509934425354
vt 0.0813710018992424 0.8170509934425354
vt 0.0813710018992424 0.8342949748039246
f 207/80/207 113/81/113 224/82/224
vt 0.0775159969925880 0.8342949748039246
vt 0.0775159969925880 0.8170509934425354
f 74/83/74 216/84/216 208/80/208
f 207/82/207 220/83/220 113/80/113
f 232/83/232 223/70/223 206/69/206
f 67/69/67 74/84/74 208/83/208
vt 0.0794439986348152 0.8084290027618408
f 226/81/226 67/80/67 208/85/208
vt 0.0813710018992424 0.8084290027618408
f 68/85/68 209/86/209 76/81/76
vt 0.0775159969925880 0.8084290027618408
f 68/80/68 226/84/226 209/87/209
f 226/87/226 75/85/75 67/80/67
vt 0.0775159969925880 0.8687819838523865
f 211/88/211 210/77/210 75/70/75
f 70/70/70 77/83/77 78/88/78
vt 0.0813710018992424 0.8687819838523865
f 24/83/24 23/82/23 45/89/45
f 111/89/111 227/88/227 212/83/212
vt 0.0775159969925880 0.8860250115394592
f 237/90/237 236/79/236 111/77/111
f 124/77/124 119/88/119 94/90/94
vt 0.0813710018992424 0.8860250115394592
f 122/91/122 99/90/99 136/88/136
f 133/88/133 120/89/120 96/91/96
vt 0.0871540009975433 0.8170509934425354
vt 0.0890820026397705 0.8170509934425354
vt 0.0890820026397705 0.8342949748039246
f 49/92/49 20/93/20 27/94/27
vt 0.0852259993553162 0.8342949748039246
vt 0.0852259993553162 0.8170509934425354
f 69/95/69 78/96/78 76/92/76
f 226/94/226 233/95/233 209/92/209
f 180/95/180 187/82/187 186/81/186
f 140/81/140 117/96/117 115/95/115
vt 0.0871540009975433 0.8084290027618408
f 59/93/59 58/92/58 49/97/49
vt 0.0890820026397705 0.8084290027618408
f 231/97/231 212/98/212 107/93/107
vt 0.0852259993553162 0.8084290027618408
f 227/92/227 78/96/78 212/99/212
f 196/99/196 190/97/190 174/92/174
vt 0.0852259993553162 0.8687819838523865
f 171/100/171 149/89/149 165/82/165
f 83/82/83 145/95/145 128/100/128
vt 0.0890820026397705 0.8687819838523865
f 127/95/127 83/94/83 125/101/125
f 202/101/202 205/100/205 203/95/203
vt 0.0852259993553162 0.8860250115394592
f 11/102/11 15/91/15 8/89/8
f 147/89/147 164/100/164 156/102/156
vt 0.0890820026397705 0.8860250115394592
f 121/103/121 97/102/97 146/100/146
f 56/100/56 33/101/33 25/103/25
vt 0.0948640033602715 0.8170509934425354
vt 0.0967919975519180 0.8170509934425354
vt 0.0967919975519180 0.8342949748039246
f 186/104/186 198/105/198 202/106/202
vt 0.0929370000958443 0.8342949748039246
vt 0.0929370000958443 0.8170509934425354
f 216/107/216 215/108/215 62/104/62
f 137/106/137 145/107/145 94/104/94
f 12/107/12 3/94/3 38/93/38
f 237/93/237 223/108/223 228/107/228
vt 0.0948640033602715 0.8084290027618408
f 77/105/77 210/104/210 211/109/211
vt 0.0967919975519180 0.8084290027618408
f 149/109/149 183/110/183 179/105/179
vt 0.0929370000958443 0.8084290027618408
f 199/104/199 178/108/178 177/111/177
f 51/111/51 42/109/42 19/104/19
vt 0.0929370000958443 0.8687819838523865
f 33/112/33 55/101/55 13/94/13
f 115/94/115 145/107/145 137/112/137
vt 0.0967919975519180 0.8687819838523865
f 12/107/12 8/106/8 3/113/3
f 137/113/137 94/112/94 90/107/90
vt 0.0929370000958443 0.8860250115394592
f 130/114/130 90/103/90 94/101/94
f 80/101/80 115/112/115 125/114/125
vt 0.0967919975519180 0.8860250115394592
f 122/115/122 94/114/94 145/112/145
f 232/112/232 212/113/212 229/115/229
vt 0.1025170013308525 0.8170509934425354
vt 0.1044259965419769 0.8170509934425354
vt 0.1044259965419769 0.8342949748039246
f 73/116/73 215/117/215 66/118/66
vt 0.1006089970469475 0.8342949748039246
vt 0.1006089970469475 0.8170509934425354
f 156/119/156 170/120/170 157/116/157
f 79/118/79 121/119/121 146/116/146
f 200/119/200 163/106/163 177/105/177
f 151/105/151 152/120/152 168/119/168
vt 0.1025170013308525 0.8084290027618408
f 41/117/41 4/116/4 5/121/5
vt 0.1044259965419769 0.8084290027618408
f 92/121/92 90/122/90 130/117/130
vt 0.1006089970469475 0.8084290027618408
f 83/116/83 134/120/134 145/123/145
f 92/123/92 129/121/129 90/116/90
vt 0.1006089970469475 0.8687819838523865
f 221/124/221 231/113/231 108/106/108
f 139/106/139 130/119/130 138/124/138
vt 0.1044259965419769 0.8687819838523865
f 86/119/86 102/118/102 92/125/92
f 84/125/84 85/124/85 100/119/100
vt 0.1006089970469475 0.8860250115394592
f 166/126/166 147/115/147 155/113/155
f 84/113/84 90/124/90 101/126/101
vt 0.1044259965419769 0.8860250115394592
f 200/127/200 178/126/178 203/124/203
f 131/124/131 139/125/139 138/127/138
vt 0.1100509986281395 0.8170509934425354
vt 0.1119249984622002 0.8170509934425354
vt 0.1119249984622002 0.8342949748039246
f 175/128/175 177/129/177 163/130/163
vt 0.1081760004162788 0.8342949748039246
vt 0.1081760004162788 0.8170509934425354
f 118/131/118 139/132/139 124/128/124
f 141/130/141 139/131/139 116/128/116
f 92/131/92 102/118/102 129/117/129
f 91/117/91 146/132/146 136/131/136
vt 0.1100509986281395 0.8084290027618408
f 107/129/107 71/128/71 218/133/218
vt 0.1119249984622002 0.8084290027618408
f 133/133/133 94/134/94 119/129/119
vt 0.1081760004162788 0.8084290027618408
f 118/128/118 143/132/143 133/135/133
f 4/135/4 1/133/1 21/128/21
vt 0.1081760004162788 0.8687819838523865
f 176/136/176 165/125/165 179/118/179
f 156/118/156 151/131/151 148/136/148
vt 0.1119249984622002 0.8687819838523865
f 80/131/80 140/130/140 115/137/115
f 166/137/166 162/136/162 147/131/147
vt 0.1081760004162788 0.8860250115394592
f 48/138/48 57/127/57 47/125/47
f 99/125/99 124/136/124 141/138/141
vt 0.1119249984622002 0.8860250115394592
f 232/139/232 224/138/224 223/136/223
f 118/136/118 92/137/92 130/139/130
vt 0.1175500005483627 0.8170509934425354
vt 0.1194249987602234 0.8170509934425354
vt 0.1194249987602234 0.8342949748039246
f 140/140/140 79/141/79 146/142/146
vt 0.1156750023365021 0.8342949748039246
vt 0.1156750023365021 0.8170509934425354
f 80/143/80 128/144/128 140/140/140
f 80/142/80 125/143/125 83/140/83
f 181/143/181 201/130/201 178/129/178
f 72/129/72 220/144/220 207/143/207
vt 0.1175500005483627 0.8084290027618408
f 213/141/213 113/140/113 220/145/220
vt 0.1194249987602234 0.8084290027618408
f 127/145/127 125/146/125 81/141/81
vt 0.1156750023365021 0.8084290027618408
f 184/140/184 199/144/199 179/147/179
f 127/147/127 100/145/100 87/140/87
vt 0.1156750023365021 0.8687819838523865
f 207/148/207 113/137/113 225/130/225
f 207/130/207 225/143/225 113/148/113
vt 0.1194249987602234 0.8687819838523865
f 195/143/195 196/142/196 205/149/205
f 184/149/184 178/148/178 199/143/199
vt 0.1156750023365021 0.8860250115394592
f 127/150/127 81/139/81 100/137/100
f 123/137/123 98/148/98 119/150/119
vt 0.1194249987602234 0.8860250115394592
f 15/151/15 3/150/3 8/148/8
f 99/148/99 98/149/98 123/151/123
vt 0.1250499933958054 0.8170509934425354
vt 0.1269239932298660 0.8170509934425354
vt 0.1269239932298660 0.8342949748039246
f 195/152/195 204/153/204 196/154/196
vt 0.1231750026345253 0.8342949748039246
vt 0.1231750026345253 0.8170509934425354
f 124/155/124 95/156/95 119/152/119
f 184/154/184 185/155/185 181/152/181
f 132/155/132 93/142/93 101/141/101
f 101/141/101 93/156/93 88/155/88
vt 0.1250499933958054 0.8084290027618408
f 118/153/118 133/152/133 92/157/92
vt 0.1269239932298660 0.8084290027618408
f 115/157/115 137/158/137 90/153/90
vt 0.1231750026345253 0.8084290027618408
f 154/152/154 172/156/172 159/159/159
f 86/159/86 133/157/133 105/152/105
vt 0.1231750026345253 0.8687819838523865
f 175/160/175 165/149/165 147/142/147
f 134/142/134 97/155/97 121/160/121
vt 0.1269239932298660 0.8687819838523865
f 122/155/122 136/154/136 146/161/146
f 146/161/146 135/160/135 98/155/98
vt 0.1231750026345253 0.8860250115394592
f 54/162/54 29/151/29 20/149/20
f 223/149/223 222/160/222 206/162/206
vt 0.1269239932298660 0.8860250115394592
f 186/163/186 187/162/187 191/160/191
f 73/160/73 213/161/213 220/163/220
vt 0.1325490027666092 0.8170509934425354
vt 0.1344240009784698 0.8170509934425354
vt 0.1344240009784698 0.8342949748039246
f 215/164/215 231/165/231 62/166/62
vt 0.1306740045547485 0.8342949748039246
vt 0.1306740045547485 0.8170509934425354
f 224/167/224 113/168/113 239/164/239
f 156/166/156 152/167/152 151/164/151
f 162/167/162 175/154/175 147/153/147
f 155/153/155 147/168/147 165/167/165
vt 0.1325490027666092 0.8084290027618408
f 226/165/226 109/164/109 233/169/233
vt 0.1344240009784698 0.8084290027618408
f 140/169/140 121/170/121 79/165/79
vt 0.1306740045547485 0.8084290027618408
f 126/164/126 142/168/142 82/171/82
f 99/171/99 123/169/123 95/164/95
vt 0.1306740045547485 0.8687819838523865
f 29/172/29 53/161/53 22/154/22
f 44/154/44 42/167/42 21/172/21
vt 0.1344240009784698 0.8687819838523865
f 215/167/215 72/166/72 108/173/108
f 106/173/106 134/172/134 83/167/83
vt 0.1306740045547485 0.8860250115394592
f 82/174/82 104/163/104 88/161/88
f 133/161/133 143/172/143 94/174/94
vt 0.1344240009784698 0.8860250115394592
f 175/175/175 155/174/155 165/172/165
f 99/172/99 95/173/95 124/175/124
vt 0.1400489956140518 0.8170509934425354
vt 0.1419229954481125 0.8170509934425354
vt 0.1419229954481125 0.8342949748039246
f 237/176/237 111/177/111 235/178/235
vt 0.1381739974021912 0.8342949748039246
vt 0.1381739974021912 0.8170509934425354
f 128/179/128 145/180/145 121/176/121
f 122/178/122 138/179/138 94/176/94
f 202/179/202 198/166/198 195/165/195
f 126/165/126 120/180/120 142/179/142
vt 0.1400489956140518 0.8084290027618408
f 89/177/89 133/176/133 96/181/96
vt 0.1419229954481125 0.8084290027618408
f 27/181/27 20/182/20 22/177/22
vt 0.1381739974021912 0.8084290027618408
f 75/176/75 65/180/65 67/183/67
f 115/183/115 138/181/138 122/176/122
vt 0.1381739974021912 0.8687819838523865
f 144/184/144 133/173/133 119/166/119
f 50/166/50 2/179/2 41/184/41
vt 0.1419229954481125 0.8687819838523865
f 175/179/175 163/178/163 155/185/155
f 118/185/118 130/184/130 139/179/139
vt 0.1381739974021912 0.8860250115394592
f 106/186/106 83/175/83 82/173/82
f 239/173/239 214/184/214 229/186/229
vt 0.1419229954481125 0.8860250115394592
f 184/187/184 179/186/179 185/184/185
f 127/184/127 104/185/104 83/187/83
vt 0.1475480049848557 0.8170509934425354
vt 0.1494230031967163 0.8170509934425354
vt 0.1494230031967163 0.8342949748039246
f 115/188/115 122/189/122 145/190/145
vt 0.1456730067729950 0.8342949748039246
vt 0.1456730067729950 0.8170509934425354
f 185/191/185 179/192/179 180/188/180
f 49/190/49 56/191/56 19/188/19
f 126/191/126 82/178/82 88/177/88
f 237/177/237 112/192/112 236/191/236
vt 0.1475480049848557 0.8084290027618408
f 84/189/84 101/188/101 85/193/85
vt 0.1494230031967163 0.8084290027618408
f 69/193/69 64/194/64 78/189/78
vt 0.1456730067729950 0.8084290027618408
f 123/188/123 119/192/119 95/195/95
f 126/195/126 88/193/88 120/188/120
vt 0.1456730067729950 0.8687819838523865
f 122/196/122 98/185/98 99/178/99
f 189/178/189 196/191/196 192/196/192
vt 0.1494230031967163 0.8687819838523865
f 89/191/89 93/190/93 132/197/132
f 127/197/127 87/196/87 104/191/104
vt 0.1456730067729950 0.8860250115394592
f 88/198/88 104/187/104 103/185/103
f 89/185/89 105/196/105 133/198/133
vt 0.1494230031967163 0.8860250115394592
f 224/199/224 234/198/234 223/196/223
f 192/196/192 196/197/196 204/199/204
vt 0.1550479978322983 0.8170509934425354
vt 0.1569219976663589 0.8170509934425354
vt 0.1569219976663589 0.8342949748039246
f 221/200/221 213/201/213 212/202/212
vt 0.1531729996204376 0.8342949748039246
vt 0.1531729996204376 0.8170509934425354
f 234/203/234 239/204/239 228/200/228
f 85/202/85 88/203/88 103/200/103
f 118/203/118 124/190/124 143/189/143
f 215/189/215 108/204/108 231/203/231
vt 0.1550479978322983 0.8084290027618408
f 169/201/169 160/200/160 172/205/172
vt 0.1569219976663589 0.8084290027618408
f 140/205/140 128/206/128 121/201/121
vt 0.1531729996204376 0.8084290027618408
f 154/200/154 162/204/162 174/207/174
f 89/207/89 96/205/96 93/200/93
vt 0.1531729996204376 0.8687819838523865
f 117/208/117 138/197/138 115/190/115
f 115/190/115 90/203/90 125/208/125
vt 0.1569219976663589 0.8687819838523865
f 117/203/117 146/202/146 91/209/91
f 5/209/5 4/208/4 39/203/39
vt 0.1531729996204376 0.8860250115394592
f 191/210/191 188/199/188 198/197/198
f 156/197/156 164/208/164 170/210/170
vt 0.1569219976663589 0.8860250115394592
f 49/211/49 27/210/27 56/208/56
f 29/208/29 22/209/22 20/211/20
vt 0.1625470072031021 0.8170509934425354
vt 0.1644220054149628 0.8170509934425354
vt 0.1644220054149628 0.8342949748039246
f 87/212/87 100/213/100 103/214/103
vt 0.1606719940900803 0.8342949748039246
vt 0.1606719940900803 0.8170509934425354
f 149/215/149 179/216/179 165/212/165
f 166/214/166 163/215/163 174/212/174
f 134/215/134 121/202/121 145/201/145
f 134/201/134 98/216/98 135/215/135
vt 0.1625470072031021 0.8084290027618408
f 130/213/130 94/212/94 138/217/138
vt 0.1644220054149628 0.8084290027618408
f 102/217/102 101/218/101 129/213/129
vt 0.1606719940900803 0.8084290027618408
f 101/212/101 90/216/90 129/219/129
f 33/219/33 24/217/24 45/212/45
vt 0.1606719940900803 0.8687819838523865
f 59/220/59 57/209/57 48/202/48
f 234/202/234 228/215/228 223/220/223
vt 0.1644220054149628 0.8687819838523865
f 131/215/131 99/214/99 116/221/116
f 131/221/131 136/220/136 99/215/99
vt 0.1606719940900803 0.8860250115394592
f 80/222/80 83/211/83 128/209/128
f 159/209/159 148/220/148 161/222/161
vt 0.1644220054149628 0.8860250115394592
f 134/223/134 135/222/135 97/220/97
f 97/220/97 135/221/135 146/223/146
vt 0.1700470000505447 0.8170509934425354
vt 0.1719209998846054 0.8170509934425354
vt 0.1719209998846054 0.8342949748039246
f 169/224/169 194/225/194 172/226/172
vt 0.1681720018386841 0.8342949748039246
vt 0.1681720018386841 0.8170509934425354
f 108/227/108 207/228/207 224/224/224
f 86/226/86 92/227/92 133/224/133
f 16/227/16 12/214/12 9/213/9
f 112/213/112 227/228/227 236/227/236
vt 0.1700470000505447 0.8084290027618408
f 175/225/175 168/224/168 182/229/182
vt 0.1719209998846054 0.8084290027618408
f 46/229/46 23/230/23 24/225/24
vt 0.1681720018386841 0.8084290027618408
f 112/224/112 214/228/214 227/231/227
f 82/231/82 83/229/83 104/224/104
vt 0.1681720018386841 0.8687819838523865
f 89/232/89 102/221/102 105/214/105
f 86/214/86 105/227/105 102/232/102
vt 0.1719209998846054 0.8687819838523865
f 102/227/102 132/226/132 101/233/101
f 113/233/113 230/232/230 238/227/238
vt 0.1681720018386841 0.8860250115394592
f 238/234/238 114/223/114 239/221/239
f 172/221/172 173/232/173 159/234/159
vt 0.1719209998846054 0.8860250115394592
f 117/235/117 131/234/131 138/232/138
f 55/232/55 32/233/32 16/235/16
vt 0.1775459945201874 0.8170509934425354
vt 0.1794209927320480 0.8170509934425354
vt 0.1794209927320480 0.8342949748039246
f 144/236/144 120/237/120 133/238/133
vt 0.1756709963083267 0.8342949748039246
vt 0.1756709963083267 0.8170509934425354
f 101/239/101 88/240/88 85/236/85
f 226/238/226 211/239/211 75/236/75
f 186/239/186 202/226/202 203/225/203
f 212/225/212 213/240/213 229/239/229
vt 0.1775459945201874 0.8084290027618408
f 180/237/180 167/236/167 187/241/187
vt 0.1794209927320480 0.8084290027618408
f 85/241/85 103/242/103 100/237/100
vt 0.1756709963083267 0.8084290027618408
f 181/236/181 197/240/197 201/243/201
f 231/243/231 218/241/218 61/236/61
vt 0.1756709963083267 0.8687819838523865
f 99/244/99 141/233/141 116/226/116
f 84/226/84 100/239/100 125/244/125
vt 0.1794209927320480 0.8687819838523865
f 191/239/191 192/238/192 188/245/188
f 89/245/89 132/244/132 102/239/102
vt 0.1756709963083267 0.8860250115394592
f 169/246/169 153/235/153 160/233/160
f 108/233/108 72/244/72 207/246/207
vt 0.1794209927320480 0.8860250115394592
f 159/247/159 164/246/164 147/244/147
f 191/244/191 189/245/189 192/247/192
vt 0.1850460022687912 0.8170509934425354
vt 0.1869200021028519 0.8170509934425354
vt 0.1869200021028519 0.8342949748039246
f 58/248/58 30/249/30 53/250/53
vt 0.1831710040569305 0.8342949748039246
vt 0.1831710040569305 0.8170509934425354
f 100/251/100 81/252/81 125/248/125
f 87/250/87 103/251/103 104/248/104
f 185/251/185 186/238/186 197/237/197
f 84/237/84 125/252/125 90/251/90
vt 0.1850460022687912 0.8084290027618408
f 189/249/189 166/248/166 194/253/194
vt 0.1869200021028519 0.8084290027618408
f 209/253/209 233/254/233 110/249/110
vt 0.1831710040569305 0.8084290027618408
f 166/248/166 172/252/172 194/255/194
f 176/255/176 177/253/177 182/248/182
vt 0.1831710040569305 0.8687819838523865
f 67/256/67 65/245/65 73/238/73
f 150/238/150 164/251/164 173/256/173
vt 0.1869200021028519 0.8687819838523865
f 159/251/159 173/250/173 164/257/164
f 159/257/159 147/256/147 148/251/148
vt 0.1831710040569305 0.8860250115394592
f 187/258/187 189/247/189 191/245/191
f 147/245/147 156/256/156 148/258/148
vt 0.1869200021028519 0.8860250115394592
f 186/259/186 191/258/191 198/256/198
f 164/256/164 149/257/149 170/259/170
vt 0.1925449967384338 0.8170509934425354
vt 0.1944199949502945 0.8170509934425354
vt 0.1944199949502945 0.8342949748039246
f 74/260/74 63/261/63 216/262/216
vt 0.1906699985265732 0.8342949748039246
vt 0.1906699985265732 0.8170509934425354
f 156/263/156 157/264/157 171/260/171
f 202/262/202 195/263/195 205/260/205
f 171/263/171 165/250/165 176/249/176
f 162/249/162 168/264/168 175/263/175
vt 0.1925449967384338 0.8084290027618408
f 18/261/18 44/260/44 36/265/36
vt 0.1944199949502945 0.8084290027618408
f 60/265/60 14/266/14 31/261/31
vt 0.1906699985265732 0.8084290027618408
f 188/260/188 195/264/195 198/267/198
f 91/267/91 136/265/136 131/260/131
vt 0.1906699985265732 0.8687819838523865
f 237/268/237 228/257/228 229/250/229
f 88/250/88 96/263/96 120/268/120
vt 0.1944199949502945 0.8687819838523865
f 170/263/170 149/262/149 157/269/157
f 185/269/185 180/268/180 186/263/186
vt 0.1906699985265732 0.8860250115394592
f 189/270/189 194/259/194 190/257/190
f 185/257/185 197/268/197 181/270/181
vt 0.1944199949502945 0.8860250115394592
f 193/271/193 189/270/189 187/268/187
f 193/268/193 150/269/150 189/271/189
vt 0.2000450044870377 0.8170509934425354
vt 0.2019190043210983 0.8170509934425354
vt 0.2019190043210983 0.8342949748039246
f 124/272/124 139/273/139 141/274/141
vt 0.1981700062751770 0.8342949748039246
vt 0.1981700062751770 0.8170509934425354
f 154/275/154 159/276/159 161/272/161
f 189/274/189 150/275/150 166/272/166
f 55/275/55 28/262/28 13/261/13
f 166/261/166 150/276/150 172/275/172
vt 0.2000450044870377 0.8084290027618408
f 213/273/213 230/272/230 113/277/113
vt 0.2019190043210983 0.8084290027618408
f 184/277/184 181/278/181 178/273/178
vt 0.1981700062751770 0.8084290027618408
f 150/272/150 158/276/158 172/279/172
f 51/279/51 27/277/27 28/272/28
vt 0.1981700062751770 0.8687819838523865
f 230/280/230 214/269/214 114/262/114
f 131/262/131 116/275/116 139/280/139
vt 0.2019190043210983 0.8687819838523865
f 150/275/150 173/274/173 158/281/158
f 154/281/154 161/280/161 151/275/151
vt 0.1981700062751770 0.8860250115394592
f 11/282/11 10/271/10 6/269/6
f 219/269/219 218/280/218 71/282/71
vt 0.2019190043210983 0.8860250115394592
f 172/283/172 158/282/158 173/280/173
f 148/280/148 151/281/151 161/283/161
vt 0.2075439989566803 0.8170509934425354
vt 0.2094189971685410 0.8170509934425354
vt 0.2094189971685410 0.8342949748039246
f 156/284/156 171/285/171 152/286/152
vt 0.2056690007448196 0.8342949748039246
vt 0.2056690007448196 0.8170509934425354
f 58/287/58 53/288/53 29/284/29
f 239/286/239 114/287/114 214/284/214
f 171/287/171 176/274/176 182/273/182
f 171/273/171 182/288/182 168/287/168
vt 0.2075439989566803 0.8084290027618408
f 188/285/188 192/284/192 204/289/204
vt 0.2094189971685410 0.8084290027618408
f 179/289/179 199/290/199 177/285/177
vt 0.2056690007448196 0.8084290027618408
f 176/284/176 179/288/179 177/291/177
f 41/291/41 5/289/5 6/284/6
vt 0.2056690007448196 0.8687819838523865
f 88/292/88 93/281/93 96/274/96
f 186/274/186 203/287/203 197/292/197
vt 0.2094189971685410 0.8687819838523865
f 23/287/23 11/286/11 32/293/32
f 140/293/140 146/292/146 117/287/117
vt 0.2056690007448196 0.8860250115394592
f 166/294/166 174/283/174 162/281/162
f 197/281/197 203/292/203 201/294/201
vt 0.2094189971685410 0.8860250115394592
f 180/295/180 179/294/179 183/292/183
f 73/292/73 230/293/230 213/295/213
vt 0.2150440067052841 0.8170509934425354
vt 0.2169190049171448 0.8170509934425354
vt 0.2169190049171448 0.8342949748039246
f 188/296/188 204/297/204 195/298/195
vt 0.2131689935922623 0.8342949748039246
vt 0.2131689935922623 0.8170509934425354
f 189/299/189 190/300/190 196/296/196
f 190/298/190 194/299/194 169/296/169
f 200/299/200 177/286/177 178/285/178
f 55/285/55 45/300/45 23/299/23
vt 0.2150440067052841 0.8084290027618408
f 122/297/122 146/296/146 98/301/98
vt 0.2169190049171448 0.8084290027618408
f 169/301/169 172/302/172 153/297/153
vt 0.2131689935922623 0.8084290027618408
f 169/296/169 172/300/172 154/303/154
f 117/303/117 91/301/91 131/296/131
vt 0.2131689935922623 0.8687819838523865
f 153/304/153 172/293/172 160/286/160
f 26/286/26 49/299/49 34/304/34
vt 0.2169190049171448 0.8687819838523865
f 162/299/162 151/298/151 168/305/168
f 237/305/237 235/304/235 222/299/222
vt 0.2131689935922623 0.8860250115394592
f 169/306/169 154/295/154 174/293/174
f 190/293/190 169/304/169 174/306/174
vt 0.2169190049171448 0.8860250115394592
f 37/307/37 18/306/18 17/304/17
f 60/304/60 41/305/41 14/307/14
vt 0.2225430011749268 0.8170509934425354
vt 0.2244179993867874 0.8170509934425354
vt 0.2244179993867874 0.8342949748039246
f 175/308/175 182/309/182 177/310/177
vt 0.2206680029630661 0.8342949748039246
vt 0.2206680029630661 0.8170509934425354
f 154/311/154 151/312/151 162/308/162
f 171/310/171 157/311/157 149/308/149
f 171/311/171 168/298/168 152/297/152
f 196/297/196 174/312/174 163/311/163
vt 0.2225430011749268 0.8084290027618408
f 196/309/196 163/308/163 205/313/205
vt 0.2244179993867874 0.8084290027618408
f 205/313/205 163/314/163 203/309/203
vt 0.2206680029630661 0.8084290027618408
f 178/308/178 201/312/201 203/315/203
f 200/315/200 203/313/203 163/308/163
vt 0.2206680029630661 0.8687819838523865
f 166/316/166 155/305/155 163/298/163
f 113/298/113 238/311/238 239/316/239
vt 0.2244179993867874 0.8687819838523865
f 230/311/230 114/310/114 238/317/238
f 124/317/124 94/316/94 143/311/143
vt 0.2206680029630661 0.8860250115394592
f 239/318/239 229/307/229 228/305/228
f 111/305/111 206/316/206 222/318/222
vt 0.2244179993867874 0.8860250115394592
f 111/319/111 236/318/236 227/316/227
f 111/316/111 212/317/212 219/319/219
vt 0.2300429940223694 0.8170509934425354
vt 0.2319180071353912 0.8170509934425354
vt 0.2319180071353912 0.8342949748039246
f 68/320/68 78/321/78 77/322/77
vt 0.2281679958105087 0.8342949748039246
vt 0.2281679958105087 0.8170509934425354
f 219/323/219 212/324/212 78/320/78
f 70/322/70 78/323/78 227/320/227
f 68/323/68 76/310/76 78/309/78
f 68/309/68 77/324/77 226/323/226
vt 0.2300429940223694 0.8084290027618408
f 77/321/77 211/320/211 226/325/226
vt 0.2319180071353912 0.8084290027618408
f 67/325/67 66/326/66 74/321/74
vt 0.2281679958105087 0.8084290027618408
f 15/320/15 40/324/40 3/327/3
f 67/327/67 73/325/73 66/320/66
vt 0.2281679958105087 0.8687819838523865
f 47/328/47 57/317/57 46/310/46
f 232/310/232 107/323/107 212/328/212
vt 0.2319180071353912 0.8687819838523865
f 73/323/73 65/322/65 230/329/230
f 237/329/237 229/328/229 214/323/214
vt 0.2281679958105087 0.8860250115394592
f 108/330/108 232/319/232 229/317/229
f 237/317/237 214/328/214 112/330/112
# 462 faces, 330 coords texture

# End of File
