mtllib material.mtl
usemtl ??_(1)
v -0.03346200 0.08419800 0.11839000
v -0.03364500 0.09170700 0.11662800
v -0.03364800 0.09937500 0.11482800
v -0.03358000 0.10703300 0.11303100
v -0.03348400 0.11453500 0.11127000
v -0.03337500 0.12224400 0.10946100
v -0.03326600 0.12980600 0.10768700
v -0.03316300 0.13739900 0.10590400
v -0.03307300 0.14510100 0.10409700
v -0.03300200 0.15272300 0.10230800
v -0.03295000 0.16049300 0.10048500
v -0.03291300 0.16811300 0.09869600
v -0.03289000 0.17557000 0.09694600
v -0.03287600 0.18341300 0.09510600
v -0.03287200 0.19123200 0.09327000
v -0.03287100 0.19824500 0.09162500
v -0.03283500 0.20600900 0.08980300
v -0.02862900 0.08416900 0.11839700
v -0.02873200 0.09170600 0.11662800
v -0.02873300 0.09937500 0.11482800
v -0.02868800 0.10703300 0.11303100
v -0.02862500 0.11453500 0.11127000
v -0.02855200 0.12224400 0.10946100
v -0.02847900 0.12980600 0.10768700
v -0.02841100 0.13739900 0.10590400
v -0.02835100 0.14510100 0.10409700
v -0.02830500 0.15272300 0.10230800
v -0.02827000 0.16049300 0.10048500
v -0.02824600 0.16811300 0.09869600
v -0.02823000 0.17557000 0.09694600
v -0.02822100 0.18341300 0.09510600
v -0.02821800 0.19123200 0.09327000
v -0.02821800 0.19824500 0.09162500
v -0.02821000 0.20603100 0.08979800
v -0.02379800 0.08416200 0.11839900
v -0.02385300 0.09170600 0.11662800
v -0.02385300 0.09937500 0.11482800
v -0.02382700 0.10703300 0.11303100
v -0.02379000 0.11453500 0.11127000
v -0.02374700 0.12224400 0.10946100
v -0.02370500 0.12980600 0.10768700
v -0.02366500 0.13739900 0.10590400
v -0.02362900 0.14510100 0.10409700
v -0.02360200 0.15272300 0.10230800
v -0.02358100 0.16049300 0.10048500
v -0.02356700 0.16811300 0.09869600
v -0.02355800 0.17557000 0.09694600
v -0.02355300 0.18341300 0.09510600
v -0.02355100 0.19123200 0.09327000
v -0.02355100 0.19824500 0.09162500
v -0.02355100 0.20603600 0.08979600
v -0.01898800 0.08416100 0.11839900
v -0.01901600 0.09170600 0.11662800
v -0.01901700 0.09937500 0.11482800
v -0.01900300 0.10703300 0.11303100
v -0.01898400 0.11453500 0.11127000
v -0.01896300 0.12224400 0.10946100
v -0.01894100 0.12980600 0.10768700
v -0.01892100 0.13739900 0.10590400
v -0.01890300 0.14510100 0.10409700
v -0.01889000 0.15272300 0.10230800
v -0.01887900 0.16049300 0.10048500
v -0.01887200 0.16811300 0.09869600
v -0.01886700 0.17557000 0.09694600
v -0.01886500 0.18341300 0.09510600
v -0.01886400 0.19123200 0.09327000
v -0.01886400 0.19824500 0.09162500
v -0.01886400 0.20603700 0.08979600
v -0.01422600 0.08416100 0.11839900
v -0.01423800 0.09170600 0.11662800
v -0.01423800 0.09937500 0.11482800
v -0.01423200 0.10703300 0.11303100
v -0.01422400 0.11453500 0.11127000
v -0.01421500 0.12224400 0.10946100
v -0.01420600 0.12980600 0.10768700
v -0.01419800 0.13739900 0.10590400
v -0.01419000 0.14510100 0.10409700
v -0.01418500 0.15272300 0.10230800
v -0.01418000 0.16049300 0.10048500
v -0.01417700 0.16811300 0.09869600
v -0.01417500 0.17557000 0.09694600
v -0.01417400 0.18341300 0.09510600
v -0.01417400 0.19123200 0.09327000
v -0.01417400 0.19824500 0.09162500
v -0.01417400 0.20603700 0.08979600
v -0.00946300 0.08416100 0.11839900
v -0.00946600 0.09170600 0.11662800
v -0.00946600 0.09937500 0.11482800
v -0.00946400 0.10703300 0.11303100
v -0.00946200 0.11453500 0.11127000
v -0.00945900 0.12224400 0.10946100
v -0.00945700 0.12980600 0.10768700
v -0.00945400 0.13739900 0.10590400
v -0.00945200 0.14510100 0.10409700
v -0.00945100 0.15272300 0.10230800
v -0.00944900 0.16049300 0.10048500
v -0.00944800 0.16811300 0.09869600
v -0.00944800 0.17557000 0.09694600
v -0.00944700 0.18341300 0.09510600
v -0.00944700 0.19123200 0.09327000
v -0.00944700 0.19824500 0.09162500
v -0.00944700 0.20603700 0.08979600
v -0.00473100 0.08416100 0.11839900
v -0.00473100 0.09170600 0.11662800
v -0.00473100 0.09937500 0.11482800
v -0.00473100 0.10703300 0.11303100
v -0.00473100 0.11453500 0.11127000
v -0.00473000 0.12224400 0.10946100
v -0.00473000 0.12980600 0.10768700
v -0.00473000 0.13739900 0.10590400
v -0.00472900 0.14510100 0.10409700
v -0.00472900 0.15272300 0.10230800
v -0.00472900 0.16049300 0.10048500
v -0.00472900 0.16811300 0.09869600
v -0.00472900 0.17557000 0.09694600
v -0.00472900 0.18341300 0.09510600
v -0.00472900 0.19123200 0.09327000
v -0.00472900 0.19824500 0.09162500
v -0.00472900 0.20603700 0.08979600
v 0.00000000 0.08416100 0.11839900
v 0.00000000 0.09170600 0.11662800
v 0.00000000 0.09937500 0.11482800
v 0.00000000 0.10703300 0.11303100
v 0.00000000 0.11453500 0.11127000
v 0.00000000 0.12224400 0.10946100
v 0.00000000 0.12980600 0.10768700
v 0.00000000 0.13739900 0.10590400
v 0.00000000 0.14510100 0.10409700
v 0.00000000 0.15272300 0.10230800
v 0.00000000 0.16049300 0.10048500
v 0.00000000 0.16811300 0.09869600
v 0.00000000 0.17557000 0.09694600
v 0.00000000 0.18341300 0.09510600
v 0.00000000 0.19123200 0.09327000
v 0.00000000 0.19824500 0.09162500
v 0.00000000 0.20603700 0.08979600
v 0.00473100 0.08416100 0.11839900
v 0.00473100 0.09170600 0.11662800
v 0.00473100 0.09937500 0.11482800
v 0.00473100 0.10703300 0.11303100
v 0.00473100 0.11453500 0.11127000
v 0.00473000 0.12224400 0.10946100
v 0.00473000 0.12980600 0.10768700
v 0.00473000 0.13739900 0.10590400
v 0.00472900 0.14510100 0.10409700
v 0.00472900 0.15272300 0.10230800
v 0.00472900 0.16049300 0.10048500
v 0.00472900 0.16811300 0.09869600
v 0.00472900 0.17557000 0.09694600
v 0.00472900 0.18341300 0.09510600
v 0.00472900 0.19123200 0.09327000
v 0.00472900 0.19824500 0.09162500
v 0.00472900 0.20603700 0.08979600
v 0.00946600 0.08416100 0.11839900
v 0.00947000 0.09170600 0.11662800
v 0.00947000 0.09937500 0.11482800
v 0.00946800 0.10703300 0.11303100
v 0.00946600 0.11453500 0.11127000
v 0.00946300 0.12224400 0.10946100
v 0.00946000 0.12980600 0.10768700
v 0.00945800 0.13739900 0.10590400
v 0.00945600 0.14510100 0.10409700
v 0.00945400 0.15272300 0.10230800
v 0.00945300 0.16049300 0.10048500
v 0.00945200 0.16811300 0.09869600
v 0.00945100 0.17557000 0.09694600
v 0.00945100 0.18341300 0.09510600
v 0.00945100 0.19123200 0.09327000
v 0.00945100 0.19824500 0.09162500
v 0.00945100 0.20603700 0.08979600
v 0.01409800 0.08416100 0.11839900
v 0.01410900 0.09170600 0.11662800
v 0.01410900 0.09937500 0.11482800
v 0.01410400 0.10703300 0.11303100
v 0.01409600 0.11453500 0.11127000
v 0.01408700 0.12224400 0.10946100
v 0.01407900 0.12980600 0.10768700
v 0.01407000 0.13739900 0.10590400
v 0.01406300 0.14510100 0.10409700
v 0.01405800 0.15272300 0.10230800
v 0.01405300 0.16049300 0.10048500
v 0.01405000 0.16811300 0.09869600
v 0.01404900 0.17557000 0.09694600
v 0.01404700 0.18341300 0.09510600
v 0.01404700 0.19123200 0.09327000
v 0.01404700 0.19824500 0.09162500
v 0.01404700 0.20603700 0.08979600
v 0.01900200 0.08416100 0.11839900
v 0.01903000 0.09170600 0.11662800
v 0.01903000 0.09937500 0.11482800
v 0.01901700 0.10703300 0.11303100
v 0.01899800 0.11453500 0.11127000
v 0.01897600 0.12224400 0.10946100
v 0.01895500 0.12980600 0.10768700
v 0.01893500 0.13739900 0.10590400
v 0.01891700 0.14510100 0.10409700
v 0.01890300 0.15272300 0.10230800
v 0.01889300 0.16049300 0.10048500
v 0.01888500 0.16811300 0.09869600
v 0.01888100 0.17557000 0.09694600
v 0.01887800 0.18341300 0.09510600
v 0.01887700 0.19123200 0.09327000
v 0.01887700 0.19824500 0.09162500
v 0.01887700 0.20603700 0.08979600
v 0.02379600 0.08416200 0.11839900
v 0.02385100 0.09170600 0.11662800
v 0.02385200 0.09937500 0.11482800
v 0.02382500 0.10703300 0.11303100
v 0.02378800 0.11453500 0.11127000
v 0.02374500 0.12224400 0.10946100
v 0.02370300 0.12980600 0.10768700
v 0.02366300 0.13739900 0.10590400
v 0.02362800 0.14510100 0.10409700
v 0.02360000 0.15272300 0.10230800
v 0.02358000 0.16049300 0.10048500
v 0.02356600 0.16811300 0.09869600
v 0.02355700 0.17557000 0.09694600
v 0.02355100 0.18341300 0.09510600
v 0.02355000 0.19123200 0.09327000
v 0.02354900 0.19824500 0.09162500
v 0.02354900 0.20603600 0.08979600
v 0.02862700 0.08416900 0.11839700
v 0.02872900 0.09170600 0.11662800
v 0.02873000 0.09937500 0.11482800
v 0.02868500 0.10703300 0.11303100
v 0.02862200 0.11453500 0.11127000
v 0.02854900 0.12224400 0.10946100
v 0.02847700 0.12980600 0.10768700
v 0.02840900 0.13739900 0.10590400
v 0.02834900 0.14510100 0.10409700
v 0.02830200 0.15272300 0.10230800
v 0.02826700 0.16049300 0.10048500
v 0.02824300 0.16811300 0.09869600
v 0.02822800 0.17557000 0.09694600
v 0.02821900 0.18341300 0.09510600
v 0.02821600 0.19123200 0.09327000
v 0.02821500 0.19824500 0.09162500
v 0.02820800 0.20603100 0.08979800
v 0.03358500 0.08419900 0.11839000
v 0.03377000 0.09170700 0.11662800
v 0.03377300 0.09937500 0.11482800
v 0.03370400 0.10703300 0.11303100
v 0.03360800 0.11453500 0.11127000
v 0.03349700 0.12224400 0.10946100
v 0.03338700 0.12980600 0.10768700
v 0.03328300 0.13739900 0.10590400
v 0.03319200 0.14510100 0.10409700
v 0.03312100 0.15272300 0.10230800
v 0.03306800 0.16049300 0.10048500
v 0.03303100 0.16811300 0.09869600
v 0.03300700 0.17557000 0.09694600
v 0.03299400 0.18341300 0.09510600
v 0.03298900 0.19123200 0.09327000
v 0.03298900 0.19824500 0.09162500
v 0.03295200 0.20600800 0.08980300
v 0.03738000 0.08419900 0.11839000
v 0.03738000 0.08973600 0.11709000
v 0.03738000 0.09527400 0.11579100
v 0.03738000 0.10081200 0.11449100
v 0.03738000 0.10635000 0.11319100
v 0.03738000 0.11188800 0.11189200
v 0.03738000 0.11742600 0.11059200
v 0.03738000 0.12296300 0.10929200
v 0.03738000 0.12850100 0.10799300
v 0.03738000 0.13403900 0.10669300
v 0.03738000 0.13957700 0.10539300
v 0.03738000 0.14511500 0.10409400
v 0.03738000 0.15065300 0.10279400
v 0.03738000 0.15619100 0.10149400
v 0.03738000 0.16172800 0.10019500
v 0.03738000 0.16726600 0.09889500
v 0.03738000 0.17280400 0.09759500
v 0.03738000 0.17834200 0.09629600
v 0.03738000 0.18388000 0.09499600
v 0.03738000 0.18941800 0.09369600
v 0.03738000 0.19495500 0.09239700
v 0.03738000 0.20049300 0.09109700
v 0.03738000 0.20603100 0.08979700
v 0.03737300 0.20707400 0.08955300
v 0.03733700 0.20789600 0.08936000
v 0.03725900 0.20858300 0.08919800
v 0.03713700 0.20918100 0.08905800
v 0.03696500 0.20972700 0.08893000
v 0.03673700 0.21024700 0.08880800
v 0.03639900 0.21082300 0.08867300
v 0.03603800 0.21130300 0.08856000
v 0.03562400 0.21174900 0.08845600
v 0.03516600 0.21215100 0.08836100
v 0.03467300 0.21250300 0.08827900
v 0.03408100 0.21283200 0.08820100
v 0.03354800 0.21305400 0.08814900
v 0.03298700 0.21322100 0.08811000
v 0.03237300 0.21334100 0.08808200
v 0.03166700 0.21341600 0.08806400
v 0.03082200 0.21345100 0.08805600
v 0.03033400 0.21345700 0.08805500
v 0.02975100 0.21345800 0.08805400
v 0.03285300 0.21006100 0.08885200
v 0.03519400 0.20598900 0.08980700
v 0.03503000 0.20999300 0.08886800
v 0.03611000 0.20995300 0.08887700
v 0.03512900 0.20810900 0.08931000
v 0.03631000 0.20597900 0.08981000
v 0.03623100 0.20808700 0.08931500
v 0.03298100 0.20244800 0.09063800
v 0.03525500 0.19824500 0.09162500
v 0.03524100 0.20244300 0.09063900
v 0.03489600 0.21167500 0.08847300
v 0.03277200 0.21178400 0.08844700
v 0.03394500 0.21002900 0.08885900
v 0.03383900 0.21173200 0.08845900
v 0.02818800 0.21014400 0.08883200
v 0.03059000 0.20602200 0.08980000
v 0.03054000 0.21011300 0.08884000
v 0.03050000 0.21186700 0.08842800
v 0.03170200 0.21008900 0.08884500
v 0.03164300 0.21183000 0.08843700
v 0.02817100 0.21191600 0.08841600
v 0.02936900 0.21013100 0.08883500
v 0.02934200 0.21189500 0.08842100
v 0.02354800 0.21016500 0.08882700
v 0.02588900 0.20603500 0.08979700
v 0.02588300 0.21015900 0.08882900
v 0.02434200 0.21345800 0.08805400
v 0.01893300 0.21345800 0.08805400
v 0.01352300 0.21345800 0.08805400
v 0.00811400 0.21345800 0.08805400
v 0.00270500 0.21345800 0.08805400
v -0.00270500 0.21345800 0.08805400
v -0.00811400 0.21345800 0.08805400
v -0.01352300 0.21345800 0.08805400
v -0.01893300 0.21345800 0.08805400
v -0.02434200 0.21345800 0.08805400
v -0.02975100 0.21345800 0.08805400
v -0.03082200 0.21345100 0.08805600
v -0.03166600 0.21341600 0.08806400
v -0.03237300 0.21334100 0.08808200
v -0.03298700 0.21322100 0.08811000
v -0.03354800 0.21305400 0.08814900
v -0.03408100 0.21283200 0.08820100
v -0.03467300 0.21250300 0.08827900
v -0.03516600 0.21215200 0.08836100
v -0.03562400 0.21174900 0.08845600
v -0.03603800 0.21130300 0.08856000
v -0.03639900 0.21082300 0.08867300
v -0.03673700 0.21024700 0.08880800
v -0.03696500 0.20972700 0.08893000
v -0.03713700 0.20918100 0.08905800
v -0.03726000 0.20858300 0.08919800
v -0.03733700 0.20789600 0.08936000
v -0.03737300 0.20707400 0.08955300
v -0.03737900 0.20659900 0.08966400
v -0.03738000 0.20603100 0.08979700
v -0.02819000 0.21014400 0.08883200
v -0.03273900 0.21006400 0.08885100
v -0.03053300 0.20602200 0.08979900
v -0.03048400 0.21011400 0.08883900
v -0.03044400 0.21186800 0.08842800
v -0.03266100 0.21178900 0.08844600
v -0.03161600 0.21009100 0.08884500
v -0.03155900 0.21183300 0.08843600
v -0.03513600 0.20599000 0.08980700
v -0.03497400 0.20999500 0.08886700
v -0.03484100 0.21167800 0.08847200
v -0.03386000 0.21003100 0.08885900
v -0.03375700 0.21173700 0.08845800
v -0.03608200 0.20995400 0.08887700
v -0.03507200 0.20811000 0.08930900
v -0.03628100 0.20597900 0.08981000
v -0.03620200 0.20808800 0.08931500
v -0.03286300 0.20244800 0.09063800
v -0.03519600 0.19824500 0.09162500
v -0.03518300 0.20244400 0.09063900
v -0.03624600 0.20706600 0.08955500
v -0.03676600 0.20807600 0.08931800
v -0.03685300 0.20597300 0.08981100
v -0.03681500 0.20705700 0.08955700
v -0.03516500 0.20429200 0.09020500
v -0.03634000 0.20244100 0.09064000
v -0.03631700 0.20428700 0.09020700
v -0.03738000 0.20048900 0.09109800
v -0.03738000 0.19494700 0.09239900
v -0.03738000 0.18940500 0.09369900
v -0.03738000 0.18386300 0.09500000
v -0.03738000 0.17832100 0.09630100
v -0.03738000 0.17278000 0.09760100
v -0.03738000 0.16723800 0.09890200
v -0.03738000 0.16169600 0.10020200
v -0.03738000 0.15615400 0.10150300
v -0.03738000 0.15061200 0.10280400
v -0.03738000 0.14507000 0.10410400
v -0.03738000 0.13952800 0.10540500
v -0.03738000 0.13398600 0.10670500
v -0.03738000 0.12844400 0.10800600
v -0.03738000 0.12290200 0.10930700
v -0.03738000 0.11736000 0.11060700
v -0.03738000 0.11181800 0.11190800
v -0.03738000 0.10627700 0.11320800
v -0.03738000 0.10073500 0.11450900
v -0.03738000 0.09519300 0.11581000
v -0.03738000 0.08965100 0.11711000
v -0.03738000 0.08410900 0.11841100
v -0.03737900 0.08359100 0.11853300
v -0.03737200 0.08312100 0.11864300
v -0.03733500 0.08230700 0.11883400
v -0.03725600 0.08162500 0.11899400
v -0.03713200 0.08103000 0.11913300
v -0.03695900 0.08048600 0.11926100
v -0.03673000 0.07996900 0.11938200
v -0.03639900 0.07940700 0.11951400
v -0.03604000 0.07892900 0.11962700
v -0.03562400 0.07848100 0.11973200
v -0.03516400 0.07807600 0.11982700
v -0.03467300 0.07772700 0.11990900
v -0.03407400 0.07739500 0.11998700
v -0.03354200 0.07717400 0.12003800
v -0.03298200 0.07700700 0.12007800
v -0.03236800 0.07688800 0.12010500
v -0.03166300 0.07681300 0.12012300
v -0.03126100 0.07679100 0.12012800
v -0.03082000 0.07677800 0.12013100
v -0.03033400 0.07677300 0.12013300
v -0.02975100 0.07677200 0.12013300
v -0.03318700 0.08017400 0.11933400
v -0.03587600 0.08422300 0.11838400
v -0.03549800 0.08026000 0.11931400
v -0.03571100 0.08212100 0.11887700
v -0.03708000 0.08423700 0.11838100
v -0.03689100 0.08215000 0.11887100
v -0.03358200 0.08763900 0.11758200
v -0.03611400 0.09170700 0.11662800
v -0.03603300 0.08764600 0.11758100
v -0.03699200 0.08316000 0.11863300
v -0.03596500 0.08586100 0.11800000
v -0.03725800 0.08765000 0.11758000
v -0.03718100 0.08586900 0.11799800
v -0.03524100 0.07859500 0.11970500
v -0.03300500 0.07846100 0.11973600
v -0.03434600 0.08021400 0.11932500
v -0.03412900 0.07852400 0.11972200
v -0.02849400 0.08007500 0.11935800
v -0.03105200 0.08418000 0.11839400
v -0.03085800 0.08011300 0.11934900
v -0.03073400 0.07836600 0.11975900
v -0.03202700 0.08014000 0.11934200
v -0.03187600 0.07840900 0.11974900
v -0.03066600 0.07754700 0.11995100
v -0.03130700 0.07838600 0.11975400
v -0.03179500 0.07759800 0.11993900
v -0.03123300 0.07757100 0.11994500
v -0.02841000 0.07830900 0.11977200
v -0.02968000 0.08009100 0.11935400
v -0.02957800 0.07833300 0.11976600
v -0.02373000 0.08005000 0.11936400
v -0.02621900 0.08416400 0.11839800
v -0.02612400 0.08005600 0.11936200
v -0.02434200 0.07677200 0.12013300
v -0.01893300 0.07677200 0.12013300
v -0.01352300 0.07677200 0.12013300
v -0.00811400 0.07677200 0.12013300
v -0.00270500 0.07677200 0.12013300
v 0.00270500 0.07677200 0.12013300
v 0.00811400 0.07677200 0.12013300
v 0.01352300 0.07677200 0.12013300
v 0.01893300 0.07677200 0.12013300
v 0.02434200 0.07677200 0.12013300
v 0.02975100 0.07677200 0.12013300
v 0.03082200 0.07677800 0.12013100
v 0.03166700 0.07681400 0.12012300
v 0.03237300 0.07688900 0.12010500
v 0.03298700 0.07700800 0.12007700
v 0.03354800 0.07717600 0.12003800
v 0.03408100 0.07739800 0.11998600
v 0.03467300 0.07772700 0.11990900
v 0.03516600 0.07807800 0.11982600
v 0.03562400 0.07848100 0.11973200
v 0.03603800 0.07892700 0.11962700
v 0.03639900 0.07940700 0.11951400
v 0.03673700 0.07998300 0.11937900
v 0.03696500 0.08050200 0.11925700
v 0.03713700 0.08104800 0.11912900
v 0.03726000 0.08164600 0.11898900
v 0.03733700 0.08233400 0.11882700
v 0.03737300 0.08315600 0.11863500
v 0.03737900 0.08363100 0.11852300
v 0.03330400 0.08017800 0.11933300
v 0.03111300 0.08418000 0.11839400
v 0.02849100 0.08007500 0.11935800
v 0.03091600 0.08011400 0.11934900
v 0.03312000 0.07846700 0.11973500
v 0.03211500 0.08014200 0.11934200
v 0.03079100 0.07836800 0.11975800
v 0.03196200 0.07841200 0.11974800
v 0.03593700 0.08422300 0.11838400
v 0.03555600 0.08026200 0.11931400
v 0.03529700 0.07859900 0.11970400
v 0.03443400 0.08021700 0.11932400
v 0.03421400 0.07852900 0.11972000
v 0.03711000 0.08423800 0.11838100
v 0.03577100 0.08212300 0.11887700
v 0.03692100 0.08215100 0.11887000
v 0.03617600 0.09170700 0.11662800
v 0.03370600 0.08764000 0.11758200
v 0.03609500 0.08764600 0.11758100
v 0.03702300 0.08316100 0.11863300
v 0.03602700 0.08586100 0.11800000
v 0.03721200 0.08586900 0.11799800
v -0.01421200 0.08012200 0.11934600
v -0.00945900 0.08008700 0.11935500
v -0.01895600 0.08013900 0.11934300
v -0.00473000 0.08008100 0.11935600
v 0.00000000 0.08008100 0.11935600
v 0.00946200 0.08002200 0.11937000
v 0.00473000 0.08008100 0.11935600
v 0.01408400 0.08002200 0.11937000
v 0.00945100 0.21008400 0.08884600
v 0.01404700 0.21008400 0.08884600
vn -0.00000000 0.22850000 0.97350000
vn -0.00000000 0.22850000 0.97350000
vn -0.00000000 0.22850000 0.97350000
vn -0.00000000 0.22850000 0.97350000
vn -0.00000000 0.22850000 0.97350000
vn -0.00000000 0.22850000 0.97350000
vn -0.00000000 0.22850000 0.97350000
vn -0.00000000 0.22850000 0.97350000
vn -0.00000000 0.22850000 0.97350000
vn -0.00000000 0.22850000 0.97350000
vn -0.00000000 0.22850000 0.97350000
vn -0.00000000 0.22850000 0.97350000
vn -0.00000000 0.22850000 0.97350000
vn -0.00000000 0.22850000 0.97350000
vn -0.00000000 0.22850000 0.97350000
vn -0.00000000 0.22850000 0.97350000
vn -0.00000000 0.22850000 0.97350000
vn -0.00000000 0.22850000 0.97350000
vn -0.00000000 0.22850000 0.97350000
vn -0.00000000 0.22850000 0.97350000
vn -0.00000000 0.22850000 0.97350000
vn -0.00000000 0.22850000 0.97350000
vn -0.00000000 0.22850000 0.97350000
vn -0.00000000 0.22850000 0.97350000
vn -0.00000000 0.22850000 0.97350000
vn -0.00000000 0.22850000 0.97350000
vn -0.00000000 0.22850000 0.97350000
vn -0.00000000 0.22850000 0.97350000
vn -0.00000000 0.22850000 0.97350000
vn -0.00000000 0.22850000 0.97350000
vn -0.00000000 0.22850000 0.97350000
vn -0.00000000 0.22850000 0.97350000
vn -0.00000000 0.22850000 0.97350000
vn -0.00000000 0.22850000 0.97350000
vn -0.00000000 0.22850000 0.97350000
vn -0.00000000 0.22850000 0.97350000
vn -0.00000000 0.22850000 0.97350000
vn -0.00000000 0.22850000 0.97350000
vn -0.00000000 0.22850000 0.97350000
vn -0.00000000 0.22850000 0.97350000
vn -0.00000000 0.22850000 0.97350000
vn -0.00000000 0.22850000 0.97350000
vn -0.00000000 0.22850000 0.97350000
vn -0.00000000 0.22850000 0.97350000
vn -0.00000000 0.22850000 0.97350000
vn -0.00000000 0.22850000 0.97350000
vn -0.00000000 0.22850000 0.97350000
vn -0.00000000 0.22850000 0.97350000
vn -0.00000000 0.22850000 0.97350000
vn -0.00000000 0.22850000 0.97350000
vn -0.00000000 0.22850000 0.97350000
vn -0.00000000 0.22850000 0.97350000
vn -0.00000000 0.22850000 0.97350000
vn -0.00000000 0.22850000 0.97350000
vn -0.00000000 0.22850000 0.97350000
vn -0.00000000 0.22850000 0.97350000
vn -0.00000000 0.22850000 0.97350000
vn -0.00000000 0.22850000 0.97350000
vn -0.00000000 0.22850000 0.97350000
vn -0.00000000 0.22850000 0.97350000
vn -0.00000000 0.22850000 0.97350000
vn -0.00000000 0.22850000 0.97350000
vn -0.00000000 0.22850000 0.97350000
vn -0.00000000 0.22850000 0.97350000
vn -0.00000000 0.22850000 0.97350000
vn -0.00000000 0.22850000 0.97350000
vn -0.00000000 0.22850000 0.97350000
vn -0.00000000 0.22850000 0.97350000
vn -0.00000000 0.22850000 0.97350000
vn -0.00000000 0.22850000 0.97350000
vn -0.00000000 0.22850000 0.97350000
vn -0.00000000 0.22850000 0.97350000
vn -0.00000000 0.22850000 0.97350000
vn -0.00000000 0.22850000 0.97350000
vn -0.00000000 0.22850000 0.97350000
vn -0.00000000 0.22850000 0.97350000
vn -0.00000000 0.22850000 0.97350000
vn -0.00000000 0.22850000 0.97350000
vn -0.00000000 0.22850000 0.97350000
vn -0.00000000 0.22850000 0.97350000
vn -0.00000000 0.22850000 0.97350000
vn -0.00000000 0.22850000 0.97350000
vn -0.00000000 0.22850000 0.97350000
vn -0.00000000 0.22850000 0.97350000
vn -0.00000000 0.22850000 0.97350000
vn -0.00000000 0.22850000 0.97350000
vn -0.00000000 0.22850000 0.97350000
vn -0.00000000 0.22850000 0.97350000
vn -0.00000000 0.22850000 0.97350000
vn -0.00000000 0.22850000 0.97350000
vn -0.00000000 0.22850000 0.97350000
vn -0.00000000 0.22850000 0.97350000
vn -0.00000000 0.22850000 0.97350000
vn -0.00000000 0.22850000 0.97350000
vn -0.00000000 0.22850000 0.97350000
vn -0.00000000 0.22850000 0.97350000
vn -0.00000000 0.22850000 0.97350000
vn -0.00000000 0.22850000 0.97350000
vn -0.00000000 0.22850000 0.97350000
vn -0.00000000 0.22850000 0.97350000
vn -0.00000000 0.22850000 0.97350000
vn -0.00000000 0.22850000 0.97350000
vn -0.00000000 0.22850000 0.97350000
vn -0.00000000 0.22850000 0.97350000
vn -0.00000000 0.22850000 0.97350000
vn -0.00000000 0.22850000 0.97350000
vn -0.00000000 0.22850000 0.97350000
vn -0.00000000 0.22850000 0.97350000
vn -0.00000000 0.22850000 0.97350000
vn -0.00000000 0.22850000 0.97350000
vn -0.00000000 0.22850000 0.97350000
vn -0.00000000 0.22850000 0.97350000
vn -0.00000000 0.22850000 0.97350000
vn -0.00000000 0.22850000 0.97350000
vn -0.00000000 0.22850000 0.97350000
vn -0.00000000 0.22850000 0.97350000
vn -0.00000000 0.22850000 0.97350000
vn -0.00000000 0.22850000 0.97350000
vn -0.00000000 0.22850000 0.97350000
vn -0.00000000 0.22850000 0.97350000
vn -0.00000000 0.22850000 0.97350000
vn -0.00000000 0.22850000 0.97350000
vn -0.00000000 0.22850000 0.97350000
vn -0.00000000 0.22850000 0.97350000
vn -0.00000000 0.22850000 0.97350000
vn -0.00000000 0.22850000 0.97350000
vn -0.00000000 0.22850000 0.97350000
vn -0.00000000 0.22850000 0.97350000
vn -0.00000000 0.22850000 0.97350000
vn -0.00000000 0.22850000 0.97350000
vn -0.00000000 0.22850000 0.97350000
vn -0.00000000 0.22850000 0.97350000
vn -0.00000000 0.22850000 0.97350000
vn -0.00000000 0.22850000 0.97350000
vn -0.00000000 0.22850000 0.97350000
vn -0.00000000 0.22850000 0.97350000
vn -0.00000000 0.22850000 0.97350000
vn -0.00000000 0.22850000 0.97350000
vn -0.00000000 0.22850000 0.97350000
vn -0.00000000 0.22850000 0.97350000
vn -0.00000000 0.22850000 0.97350000
vn -0.00000000 0.22850000 0.97350000
vn -0.00000000 0.22850000 0.97350000
vn -0.00000000 0.22850000 0.97350000
vn -0.00000000 0.22850000 0.97350000
vn -0.00000000 0.22850000 0.97350000
vn -0.00000000 0.22850000 0.97350000
vn -0.00000000 0.22850000 0.97350000
vn -0.00000000 0.22850000 0.97350000
vn -0.00000000 0.22850000 0.97350000
vn -0.00000000 0.22850000 0.97350000
vn -0.00000000 0.22850000 0.97350000
vn -0.00000000 0.22850000 0.97350000
vn -0.00000000 0.22850000 0.97350000
vn -0.00000000 0.22850000 0.97350000
vn -0.00000000 0.22850000 0.97350000
vn -0.00000000 0.22850000 0.97350000
vn -0.00000000 0.22850000 0.97350000
vn -0.00000000 0.22850000 0.97350000
vn -0.00000000 0.22850000 0.97350000
vn -0.00000000 0.22850000 0.97350000
vn -0.00000000 0.22850000 0.97350000
vn -0.00000000 0.22850000 0.97350000
vn -0.00000000 0.22850000 0.97350000
vn -0.00000000 0.22850000 0.97350000
vn -0.00000000 0.22850000 0.97350000
vn -0.00000000 0.22850000 0.97350000
vn -0.00000000 0.22850000 0.97350000
vn -0.00000000 0.22850000 0.97350000
vn -0.00000000 0.22850000 0.97350000
vn -0.00000000 0.22850000 0.97350000
vn -0.00000000 0.22850000 0.97350000
vn -0.00000000 0.22850000 0.97350000
vn -0.00000000 0.22850000 0.97350000
vn -0.00000000 0.22850000 0.97350000
vn -0.00000000 0.22850000 0.97350000
vn -0.00000000 0.22850000 0.97350000
vn -0.00000000 0.22850000 0.97350000
vn -0.00000000 0.22850000 0.97350000
vn -0.00000000 0.22850000 0.97350000
vn -0.00000000 0.22850000 0.97350000
vn -0.00000000 0.22850000 0.97350000
vn -0.00000000 0.22850000 0.97350000
vn -0.00000000 0.22850000 0.97350000
vn -0.00000000 0.22850000 0.97350000
vn -0.00000000 0.22850000 0.97350000
vn -0.00000000 0.22850000 0.97350000
vn -0.00000000 0.22850000 0.97350000
vn -0.00000000 0.22850000 0.97350000
vn -0.00000000 0.22850000 0.97350000
vn -0.00000000 0.22850000 0.97350000
vn -0.00000000 0.22850000 0.97350000
vn -0.00000000 0.22850000 0.97350000
vn -0.00000000 0.22850000 0.97350000
vn -0.00000000 0.22850000 0.97350000
vn -0.00000000 0.22850000 0.97350000
vn -0.00000000 0.22850000 0.97350000
vn -0.00000000 0.22850000 0.97350000
vn -0.00000000 0.22850000 0.97350000
vn -0.00000000 0.22850000 0.97350000
vn -0.00000000 0.22850000 0.97350000
vn -0.00000000 0.22850000 0.97350000
vn -0.00000000 0.22850000 0.97350000
vn -0.00000000 0.22850000 0.97350000
vn -0.00000000 0.22850000 0.97350000
vn -0.00000000 0.22850000 0.97350000
vn -0.00000000 0.22850000 0.97350000
vn -0.00000000 0.22850000 0.97350000
vn -0.00000000 0.22850000 0.97350000
vn -0.00000000 0.22850000 0.97350000
vn -0.00000000 0.22850000 0.97350000
vn -0.00000000 0.22850000 0.97350000
vn -0.00000000 0.22850000 0.97350000
vn -0.00000000 0.22850000 0.97350000
vn -0.00000000 0.22850000 0.97350000
vn -0.00000000 0.22850000 0.97350000
vn -0.00000000 0.22850000 0.97350000
vn -0.00000000 0.22850000 0.97350000
vn -0.00000000 0.22850000 0.97350000
vn -0.00000000 0.22850000 0.97350000
vn -0.00000000 0.22850000 0.97350000
vn -0.00000000 0.22850000 0.97350000
vn -0.00000000 0.22850000 0.97350000
vn -0.00000000 0.22850000 0.97350000
vn -0.00000000 0.22850000 0.97350000
vn -0.00000000 0.22850000 0.97350000
vn -0.00000000 0.22850000 0.97350000
vn -0.00000000 0.22850000 0.97350000
vn -0.00000000 0.22850000 0.97350000
vn -0.00000000 0.22850000 0.97350000
vn -0.00000000 0.22850000 0.97350000
vn -0.00000000 0.22850000 0.97350000
vn -0.00000000 0.22850000 0.97350000
vn -0.00000000 0.22850000 0.97350000
vn -0.00000000 0.22850000 0.97350000
vn -0.00000000 0.22850000 0.97350000
vn -0.00000000 0.22850000 0.97350000
vn -0.00000000 0.22850000 0.97350000
vn -0.00000000 0.22850000 0.97350000
vn -0.00000000 0.22850000 0.97350000
vn -0.00000000 0.22850000 0.97350000
vn -0.00000000 0.22850000 0.97350000
vn -0.00000000 0.22850000 0.97350000
vn -0.00000000 0.22850000 0.97350000
vn -0.00000000 0.22850000 0.97350000
vn -0.00000000 0.22850000 0.97350000
vn -0.00000000 0.22850000 0.97350000
vn -0.00000000 0.22850000 0.97350000
vn -0.00000000 0.22850000 0.97350000
vn -0.00000000 0.22850000 0.97350000
vn -0.00000000 0.22850000 0.97350000
vn -0.00000000 0.22850000 0.97350000
vn -0.00000000 0.22850000 0.97350000
vn -0.00000000 0.22850000 0.97350000
vn -0.00000000 0.22850000 0.97350000
vn 0.00010000 0.22850000 0.97350000
vn -0.00000000 0.22850000 0.97350000
vn -0.00000000 0.22850000 0.97350000
vn -0.00000000 0.22850000 0.97350000
vn -0.00000000 0.22850000 0.97350000
vn -0.00000000 0.22850000 0.97350000
vn -0.00000000 0.22850000 0.97350000
vn -0.00000000 0.22850000 0.97350000
vn -0.00000000 0.22850000 0.97350000
vn -0.00000000 0.22850000 0.97350000
vn -0.00000000 0.22850000 0.97350000
vn -0.00000000 0.22850000 0.97350000
vn -0.00000000 0.22850000 0.97350000
vn -0.00000000 0.22850000 0.97350000
vn -0.00000000 0.22850000 0.97350000
vn -0.00000000 0.22850000 0.97350000
vn -0.00000000 0.22850000 0.97350000
vn -0.00000000 0.22850000 0.97350000
vn -0.00000000 0.22850000 0.97350000
vn -0.00000000 0.22850000 0.97350000
vn -0.00000000 0.22850000 0.97350000
vn -0.00000000 0.22850000 0.97350000
vn -0.00000000 0.22850000 0.97350000
vn -0.00000000 0.22850000 0.97350000
vn -0.00000000 0.22850000 0.97350000
vn -0.00000000 0.22850000 0.97350000
vn -0.00000000 0.22850000 0.97350000
vn -0.00000000 0.22850000 0.97350000
vn -0.00000000 0.22850000 0.97350000
vn -0.00000000 0.22850000 0.97350000
vn -0.00000000 0.22850000 0.97350000
vn -0.00000000 0.22850000 0.97350000
vn -0.00000000 0.22850000 0.97350000
vn -0.00000000 0.22850000 0.97350000
vn -0.00000000 0.22850000 0.97350000
vn -0.00000000 0.22850000 0.97350000
vn -0.00000000 0.22850000 0.97350000
vn -0.00000000 0.22850000 0.97350000
vn -0.00000000 0.22850000 0.97350000
vn -0.00000000 0.22850000 0.97350000
vn -0.00000000 0.22850000 0.97350000
vn -0.00000000 0.22850000 0.97350000
vn -0.00000000 0.22850000 0.97350000
vn -0.00000000 0.22850000 0.97350000
vn -0.00000000 0.22850000 0.97350000
vn -0.00000000 0.22850000 0.97350000
vn -0.00000000 0.22850000 0.97350000
vn -0.00000000 0.22850000 0.97350000
vn -0.00000000 0.22850000 0.97350000
vn -0.00000000 0.22850000 0.97350000
vn -0.00000000 0.22850000 0.97350000
vn -0.00000000 0.22850000 0.97350000
vn -0.00000000 0.22850000 0.97350000
vn -0.00000000 0.22850000 0.97350000
vn -0.00000000 0.22850000 0.97350000
vn -0.00000000 0.22850000 0.97350000
vn -0.00000000 0.22850000 0.97350000
vn -0.00000000 0.22850000 0.97350000
vn -0.00000000 0.22850000 0.97350000
vn -0.00000000 0.22850000 0.97350000
vn -0.00000000 0.22850000 0.97350000
vn -0.00000000 0.22850000 0.97350000
vn -0.00000000 0.22850000 0.97350000
vn -0.00000000 0.22850000 0.97350000
vn -0.00000000 0.22850000 0.97350000
vn -0.00000000 0.22850000 0.97350000
vn -0.00000000 0.22850000 0.97350000
vn -0.00000000 0.22850000 0.97350000
vn -0.00000000 0.22850000 0.97350000
vn -0.00000000 0.22850000 0.97350000
vn -0.00000000 0.22850000 0.97350000
vn -0.00000000 0.22850000 0.97350000
vn -0.00000000 0.22850000 0.97350000
vn -0.00000000 0.22850000 0.97350000
vn -0.00000000 0.22850000 0.97350000
vn -0.00000000 0.22850000 0.97350000
vn -0.00000000 0.22850000 0.97350000
vn -0.00000000 0.22850000 0.97350000
vn -0.00000000 0.22850000 0.97350000
vn -0.00000000 0.22850000 0.97350000
vn -0.00000000 0.22850000 0.97350000
vn -0.00000000 0.22850000 0.97350000
vn -0.00000000 0.22850000 0.97350000
vn -0.00000000 0.22850000 0.97350000
vn -0.00000000 0.22850000 0.97350000
vn -0.00000000 0.22850000 0.97350000
vn -0.00000000 0.22850000 0.97350000
vn -0.00000000 0.22850000 0.97350000
vn -0.00000000 0.22850000 0.97360000
vn -0.00000000 0.22850000 0.97360000
vn -0.00000000 0.22850000 0.97360000
vn -0.00000000 0.22850000 0.97360000
vn -0.00000000 0.22850000 0.97360000
vn -0.00000000 0.22850000 0.97350000
vn -0.00000000 0.22850000 0.97350000
vn -0.00000000 0.22850000 0.97350000
vn -0.00000000 0.22850000 0.97350000
vn -0.00000000 0.22850000 0.97350000
vn -0.00000000 0.22850000 0.97350000
vn -0.00000000 0.22850000 0.97350000
vn -0.00000000 0.22850000 0.97350000
vn -0.00000000 0.22850000 0.97350000
vn -0.00000000 0.22850000 0.97350000
vn -0.00000000 0.22850000 0.97350000
vn -0.00000000 0.22850000 0.97350000
vn -0.00000000 0.22850000 0.97350000
vn -0.00000000 0.22850000 0.97350000
vn -0.00000000 0.22850000 0.97350000
vn -0.00000000 0.22850000 0.97350000
vn -0.00000000 0.22850000 0.97350000
vn -0.00000000 0.22850000 0.97350000
vn -0.00000000 0.22850000 0.97350000
vn -0.00000000 0.22850000 0.97350000
vn -0.00000000 0.22850000 0.97350000
vn -0.00000000 0.22850000 0.97350000
vn -0.00000000 0.22850000 0.97350000
vn -0.00000000 0.22850000 0.97350000
vn -0.00000000 0.22850000 0.97350000
vn -0.00000000 0.22850000 0.97350000
vn -0.00000000 0.22850000 0.97350000
vn -0.00000000 0.22850000 0.97350000
vn -0.00000000 0.22850000 0.97350000
vn -0.00000000 0.22850000 0.97350000
vn -0.00000000 0.22850000 0.97350000
vn -0.00000000 0.22850000 0.97350000
vn -0.00000000 0.22850000 0.97350000
vn -0.00000000 0.22850000 0.97350000
vn -0.00000000 0.22850000 0.97350000
vn -0.00000000 0.22850000 0.97350000
vn -0.00000000 0.22850000 0.97350000
vn -0.00000000 0.22850000 0.97350000
vn -0.00000000 0.22850000 0.97350000
vn -0.00000000 0.22850000 0.97350000
vn -0.00000000 0.22850000 0.97350000
vn -0.00000000 0.22850000 0.97350000
vn -0.00000000 0.22850000 0.97350000
vn -0.00000000 0.22850000 0.97350000
vn -0.00000000 0.22850000 0.97350000
vn -0.00000000 0.22850000 0.97350000
vn -0.00000000 0.22850000 0.97350000
vn -0.00000000 0.22850000 0.97350000
vn -0.00000000 0.22850000 0.97350000
vn -0.00000000 0.22850000 0.97350000
vn -0.00000000 0.22850000 0.97350000
vn -0.00000000 0.22850000 0.97350000
vn -0.00000000 0.22850000 0.97350000
vn -0.00000000 0.22850000 0.97350000
vn -0.00000000 0.22850000 0.97350000
vn -0.00000000 0.22850000 0.97350000
vn -0.00000000 0.22850000 0.97350000
vn -0.00010000 0.22850000 0.97350000
vn -0.00000000 0.22850000 0.97350000
vn -0.00000000 0.22850000 0.97360000
vn -0.00000000 0.22850000 0.97350000
vn -0.00000000 0.22850000 0.97350000
vn -0.00000000 0.22850000 0.97350000
vn -0.00000000 0.22850000 0.97360000
vn -0.00000000 0.22850000 0.97350000
vn -0.00000000 0.22850000 0.97350000
vn -0.00000000 0.22850000 0.97350000
vn -0.00000000 0.22850000 0.97350000
vn -0.00000000 0.22850000 0.97350000
vn -0.00000000 0.22850000 0.97350000
vn -0.00000000 0.22850000 0.97350000
vn -0.00000000 0.22850000 0.97350000
vn -0.00000000 0.22850000 0.97350000
vn -0.00000000 0.22850000 0.97360000
vn -0.00000000 0.22850000 0.97350000
vn -0.00000000 0.22850000 0.97350000
vn -0.00000000 0.22850000 0.97350000
vn -0.00000000 0.22850000 0.97350000
vn -0.00000000 0.22850000 0.97350000
vn -0.00000000 0.22850000 0.97350000
vn -0.00000000 0.22850000 0.97350000
vn -0.00000000 0.22850000 0.97350000
vn -0.00000000 0.22850000 0.97350000
vn -0.00000000 0.22850000 0.97350000
vn -0.00000000 0.22850000 0.97350000
vn -0.00000000 0.22850000 0.97350000
vn -0.00000000 0.22850000 0.97350000
vn -0.00000000 0.22850000 0.97350000
vn -0.00000000 0.22850000 0.97350000
vn -0.00000000 0.22850000 0.97350000
vn -0.00000000 0.22850000 0.97350000
vn -0.00000000 0.22850000 0.97350000
vn -0.00000000 0.22850000 0.97350000
vn -0.00000000 0.22850000 0.97350000
vn -0.00000000 0.22850000 0.97350000
vn -0.00000000 0.22850000 0.97350000
vn -0.00000000 0.22850000 0.97350000
vn -0.00000000 0.22850000 0.97350000
vn -0.00000000 0.22850000 0.97350000
vn -0.00000000 0.22850000 0.97350000
vn -0.00000000 0.22850000 0.97350000
vn -0.00000000 0.22850000 0.97350000
vn -0.00000000 0.22850000 0.97350000
vn -0.00000000 0.22850000 0.97350000
vn -0.00000000 0.22850000 0.97350000
vn -0.00000000 0.22850000 0.97350000
vn -0.00000000 0.22850000 0.97350000
vn -0.00000000 0.22850000 0.97350000
vn -0.00000000 0.22850000 0.97350000
vn -0.00000000 0.22850000 0.97350000
vn -0.00000000 0.22850000 0.97350000
vn -0.00000000 0.22850000 0.97350000
vn -0.00000000 0.22850000 0.97350000
vn -0.00000000 0.22850000 0.97350000
vn -0.00000000 0.22850000 0.97350000
vn -0.00000000 0.22850000 0.97350000
vn -0.00000000 0.22850000 0.97350000
vn -0.00000000 0.22850000 0.97350000
vn -0.00000000 0.22850000 0.97350000
vn -0.00000000 0.22850000 0.97350000
vn -0.00000000 0.22850000 0.97350000
vn -0.00000000 0.22850000 0.97350000
vn -0.00000000 0.22850000 0.97350000
vn -0.00000000 0.22850000 0.97350000
vn -0.00000000 0.22850000 0.97360000
vn -0.00000000 0.22850000 0.97350000
vn -0.00000000 0.22850000 0.97350000
vn -0.00000000 0.22850000 0.97350000
vn -0.00000000 0.22850000 0.97350000
vn -0.00000000 0.22850000 0.97350000
vn -0.00000000 0.22850000 0.97350000
vn -0.00000000 0.22850000 0.97350000
vn -0.00000000 0.22850000 0.97350000
vn -0.00000000 0.22850000 0.97350000
vn -0.00000000 0.22850000 0.97360000
vn -0.00000000 0.22850000 0.97350000
vn -0.00000000 0.22850000 0.97350000
vn -0.00000000 0.22850000 0.97350000
vn -0.00000000 0.22850000 0.97350000
vn -0.00000000 0.22850000 0.97350000
vn -0.00000000 0.22850000 0.97350000
vn -0.00000000 0.22850000 0.97350000
vn -0.00000000 0.22850000 0.97350000
vn -0.00000000 0.22850000 0.97350000
vn -0.00000000 0.22850000 0.97350000
vn -0.00000000 0.22850000 0.97350000
vn -0.00000000 0.22850000 0.97350000
vn -0.00000000 0.22850000 0.97350000
vn -0.00000000 0.22850000 0.97350000
vn -0.00000000 0.22850000 0.97350000
vn -0.00000000 0.22850000 0.97350000
vn -0.00000000 0.22850000 0.97350000
vn -0.00000000 0.22850000 0.97350000
vn -0.00000000 0.22850000 0.97350000
vn -0.00000000 0.22850000 0.97350000
vn -0.00000000 0.22850000 0.97350000
vn -0.00000000 0.22850000 0.97350000
vn -0.00000000 0.22850000 0.97350000
vn -0.00000000 0.22850000 0.97350000
vn -0.00000000 0.22850000 0.97350000
vn -0.00000000 0.22850000 0.97350000
vn -0.00000000 0.22850000 0.97350000
vn -0.00000000 0.22850000 0.97350000
vn -0.00000000 0.22850000 0.97350000
vn -0.00000000 0.22850000 0.97350000
vn -0.00000000 0.22850000 0.97350000
vn -0.00000000 0.22850000 0.97350000
vn -0.00000000 0.22850000 0.97350000
vn -0.00000000 0.22850000 0.97350000
vt 0.06462000 0.11248400
vt 0.06462000 0.19146400
vt 0.06462000 0.25199700
vt 0.06462000 0.30221900
vt 0.06462000 0.34628000
vt 0.06462000 0.38842200
vt 0.06462000 0.42784600
vt 0.06462000 0.46630600
vt 0.06462000 0.50476600
vt 0.06462000 0.54279600
vt 0.06462000 0.58207100
vt 0.06462000 0.62167400
vt 0.06462000 0.66220100
vt 0.06462000 0.70790300
vt 0.06462000 0.75876800
vt 0.06462000 0.81287600
vt 0.06462000 0.89138800
vt 0.12884000 0.11248400
vt 0.12884000 0.19146400
vt 0.12884000 0.25199700
vt 0.12884000 0.30221900
vt 0.12884000 0.34628000
vt 0.12884000 0.38842200
vt 0.12884000 0.42784600
vt 0.12884000 0.46630600
vt 0.12884000 0.50476600
vt 0.12884000 0.54279600
vt 0.12884000 0.58207100
vt 0.12884000 0.62167400
vt 0.12884000 0.66220100
vt 0.12884000 0.70790300
vt 0.12884000 0.75876800
vt 0.12884000 0.81287600
vt 0.12884000 0.89138800
vt 0.19239900 0.11248400
vt 0.19239900 0.19146400
vt 0.19239900 0.25199700
vt 0.19239900 0.30221900
vt 0.19239900 0.34628000
vt 0.19239900 0.38842200
vt 0.19239900 0.42784600
vt 0.19239900 0.46630600
vt 0.19239900 0.50476600
vt 0.19239900 0.54279600
vt 0.19239900 0.58207100
vt 0.19239900 0.62167400
vt 0.19239900 0.66220100
vt 0.19239900 0.70790300
vt 0.19239900 0.75876800
vt 0.19239900 0.81287600
vt 0.19239900 0.89138800
vt 0.25514500 0.11248400
vt 0.25514500 0.19146400
vt 0.25514500 0.25199700
vt 0.25514500 0.30221900
vt 0.25514500 0.34628000
vt 0.25514500 0.38842200
vt 0.25514500 0.42784600
vt 0.25514500 0.46630600
vt 0.25514500 0.50476600
vt 0.25514500 0.54279600
vt 0.25514500 0.58207100
vt 0.25514500 0.62167400
vt 0.25514500 0.66220100
vt 0.25514500 0.70790300
vt 0.25514500 0.75876800
vt 0.25514500 0.81287600
vt 0.25514500 0.89138800
vt 0.31688900 0.11248400
vt 0.31688900 0.19146400
vt 0.31688900 0.25199700
vt 0.31688900 0.30221900
vt 0.31688900 0.34628000
vt 0.31688900 0.38842200
vt 0.31688900 0.42784600
vt 0.31688900 0.46630600
vt 0.31688900 0.50476600
vt 0.31688900 0.54279600
vt 0.31688900 0.58207100
vt 0.31688900 0.62167400
vt 0.31688900 0.66220100
vt 0.31688900 0.70790300
vt 0.31688900 0.75876800
vt 0.31688900 0.81287600
vt 0.31688900 0.89138800
vt 0.37835700 0.11248400
vt 0.37835700 0.19146400
vt 0.37835700 0.25199700
vt 0.37835700 0.30221900
vt 0.37835700 0.34628000
vt 0.37835700 0.38842200
vt 0.37835700 0.42784600
vt 0.37835700 0.46630600
vt 0.37835700 0.50476600
vt 0.37835700 0.54279600
vt 0.37835700 0.58207100
vt 0.37835700 0.62167400
vt 0.37835700 0.66220100
vt 0.37835700 0.70790300
vt 0.37835700 0.75876800
vt 0.37835700 0.81287600
vt 0.37835700 0.89138800
vt 0.43923300 0.11248400
vt 0.43923300 0.19146400
vt 0.43923300 0.25199700
vt 0.43923300 0.30221900
vt 0.43923300 0.34628000
vt 0.43923300 0.38842200
vt 0.43923300 0.42784600
vt 0.43923300 0.46630600
vt 0.43923300 0.50476600
vt 0.43923300 0.54279600
vt 0.43923300 0.58207100
vt 0.43923300 0.62167400
vt 0.43923300 0.66220100
vt 0.43923300 0.70790300
vt 0.43923300 0.75876800
vt 0.43923300 0.81287600
vt 0.43923300 0.89138800
vt 0.50000000 0.11248400
vt 0.50000000 0.19146400
vt 0.50000000 0.25199700
vt 0.50000000 0.30221900
vt 0.50000000 0.34628000
vt 0.50000000 0.38842200
vt 0.50000000 0.42784600
vt 0.50000000 0.46630600
vt 0.50000000 0.50476600
vt 0.50000000 0.54279600
vt 0.50000000 0.58207100
vt 0.50000000 0.62167400
vt 0.50000000 0.66220100
vt 0.50000000 0.70790300
vt 0.50000000 0.75876800
vt 0.50000000 0.81287600
vt 0.50000000 0.89138800
vt 0.56076800 0.11248400
vt 0.56076800 0.19146400
vt 0.56076800 0.25199700
vt 0.56076800 0.30221900
vt 0.56076800 0.34628000
vt 0.56076800 0.38842200
vt 0.56076800 0.42784600
vt 0.56076800 0.46630600
vt 0.56076800 0.50476600
vt 0.56076800 0.54279600
vt 0.56076800 0.58207100
vt 0.56076800 0.62167400
vt 0.56076800 0.66220100
vt 0.56076800 0.70790300
vt 0.56076800 0.75876800
vt 0.56076800 0.81287600
vt 0.56076800 0.89138800
vt 0.62168800 0.11248400
vt 0.62168800 0.19146400
vt 0.62168800 0.25199700
vt 0.62168800 0.30221900
vt 0.62168800 0.34628000
vt 0.62168800 0.38842200
vt 0.62168800 0.42784600
vt 0.62168800 0.46630600
vt 0.62168800 0.50476600
vt 0.62168800 0.54279600
vt 0.62168800 0.58207100
vt 0.62168800 0.62167400
vt 0.62168800 0.66220100
vt 0.62168800 0.70790300
vt 0.62168800 0.75876800
vt 0.62168800 0.81287600
vt 0.62168800 0.89138800
vt 0.68145400 0.11248400
vt 0.68145400 0.19146400
vt 0.68145400 0.25199700
vt 0.68145400 0.30221900
vt 0.68145400 0.34628000
vt 0.68145400 0.38842200
vt 0.68145400 0.42784600
vt 0.68145400 0.46630600
vt 0.68145400 0.50476600
vt 0.68145400 0.54279600
vt 0.68145400 0.58207100
vt 0.68145400 0.62167400
vt 0.68145400 0.66220100
vt 0.68145400 0.70790300
vt 0.68145400 0.75876800
vt 0.68145400 0.81287600
vt 0.68145400 0.89138800
vt 0.74503400 0.11248400
vt 0.74503400 0.19146400
vt 0.74503400 0.25199700
vt 0.74503400 0.30221900
vt 0.74503400 0.34628000
vt 0.74503400 0.38842200
vt 0.74503400 0.42784600
vt 0.74503400 0.46630600
vt 0.74503400 0.50476600
vt 0.74503400 0.54279600
vt 0.74503400 0.58207100
vt 0.74503400 0.62167400
vt 0.74503400 0.66220100
vt 0.74503400 0.70790300
vt 0.74503400 0.75876800
vt 0.74503400 0.81287600
vt 0.74503400 0.89138800
vt 0.80757900 0.11248400
vt 0.80757900 0.19146400
vt 0.80757900 0.25199700
vt 0.80757900 0.30221900
vt 0.80757900 0.34628000
vt 0.80757900 0.38842200
vt 0.80757900 0.42784600
vt 0.80757900 0.46630600
vt 0.80757900 0.50476600
vt 0.80757900 0.54279600
vt 0.80757900 0.58207100
vt 0.80757900 0.62167400
vt 0.80757900 0.66220100
vt 0.80757900 0.70790300
vt 0.80757900 0.75876800
vt 0.80757900 0.81287600
vt 0.80757900 0.89138800
vt 0.87112500 0.11248400
vt 0.87112500 0.19146400
vt 0.87112500 0.25199700
vt 0.87112500 0.30221900
vt 0.87112500 0.34628000
vt 0.87112500 0.38842200
vt 0.87112500 0.42784600
vt 0.87112500 0.46630600
vt 0.87112500 0.50476600
vt 0.87112500 0.54279600
vt 0.87112500 0.58207100
vt 0.87112500 0.62167400
vt 0.87112500 0.66220100
vt 0.87112500 0.70790300
vt 0.87112500 0.75876800
vt 0.87112500 0.81287600
vt 0.87112500 0.89138800
vt 0.93701200 0.11248400
vt 0.93701200 0.19146400
vt 0.93701200 0.25199700
vt 0.93701200 0.30221900
vt 0.93701200 0.34628000
vt 0.93701200 0.38842200
vt 0.93701200 0.42784600
vt 0.93701200 0.46630600
vt 0.93701200 0.50476600
vt 0.93701200 0.54279600
vt 0.93701200 0.58207100
vt 0.93701200 0.62167400
vt 0.93701200 0.66220100
vt 0.93701200 0.70790300
vt 0.93701200 0.75876800
vt 0.93701200 0.81287600
vt 0.93701200 0.89138800
vt 0.98794200 0.11194600
vt 0.98471100 0.17311900
vt 0.98403500 0.22143800
vt 0.98439100 0.26198600
vt 0.98525500 0.29799700
vt 0.98640600 0.33115500
vt 0.98772100 0.36237700
vt 0.98911800 0.39224100
vt 0.99053400 0.42114400
vt 0.99191700 0.44938800
vt 0.99321300 0.47721500
vt 0.99437300 0.50483400
vt 0.99535000 0.53243900
vt 0.99615000 0.56022600
vt 0.99679100 0.58839900
vt 0.99729000 0.61719600
vt 0.99765900 0.64690700
vt 0.99791100 0.67791400
vt 0.99806300 0.71076200
vt 0.99813300 0.74630700
vt 0.99814700 0.78608000
vt 0.99823800 0.83309700
vt 0.99943400 0.89216400
vt 0.99991600 0.90529700
vt 1.00000000 0.91623800
vt 0.99951000 0.92582900
vt 0.99838000 0.93450700
vt 0.99654800 0.94270700
vt 0.99391900 0.95073400
vt 0.98978400 0.95988100
vt 0.98516700 0.96763800
vt 0.97966900 0.97492600
vt 0.97337100 0.98150200
vt 0.96640600 0.98716700
vt 0.95782600 0.99233400
vt 0.94996300 0.99565400
vt 0.94161400 0.99797400
vt 0.93244500 0.99939700
vt 0.92193400 1.00000000
vt 0.90948900 0.99987400
vt 0.90236200 0.99960400
vt 0.89392300 0.99924300
vt 0.93701200 0.94571000
vt 0.96852100 0.89138800
vt 0.96852100 0.94571000
vt 0.98427600 0.94571000
vt 0.96852100 0.91854900
vt 0.98427600 0.89138800
vt 0.98427600 0.91854900
vt 0.93701200 0.85213200
vt 0.96852100 0.81287600
vt 0.96852100 0.85213200
vt 0.96852100 0.97287100
vt 0.93701200 0.97287100
vt 0.95276700 0.94571000
vt 0.95276700 0.97287100
vt 0.87112500 0.94571000
vt 0.90406900 0.89138800
vt 0.90406900 0.94571000
vt 0.90406900 0.97287100
vt 0.92054100 0.94571000
vt 0.92054100 0.97287100
vt 0.87112500 0.97287100
vt 0.88759700 0.94571000
vt 0.88759700 0.97287100
vt 0.80757900 0.94571000
vt 0.83935200 0.89138800
vt 0.83935200 0.94571000
vt 0.81837500 0.99772000
vt 0.74577000 0.99765100
vt 0.67461300 0.99765100
vt 0.60440200 0.99765100
vt 0.53474100 0.99765100
vt 0.46526000 0.99765100
vt 0.39559800 0.99765100
vt 0.32538800 0.99765100
vt 0.25423100 0.99765100
vt 0.18162600 0.99772000
vt 0.10607700 0.99924300
vt 0.09051200 0.99987400
vt 0.07806700 1.00000000
vt 0.06755600 0.99939700
vt 0.05838600 0.99797400
vt 0.05003700 0.99565400
vt 0.04217400 0.99233500
vt 0.03359400 0.98716700
vt 0.02662900 0.98150200
vt 0.02033100 0.97492600
vt 0.01483300 0.96763900
vt 0.01021500 0.95988100
vt 0.00608100 0.95073400
vt 0.00345200 0.94270700
vt 0.00162000 0.93450700
vt 0.00048900 0.92582900
vt 0.00000000 0.91623800
vt 0.00008300 0.90529700
vt 0.00028900 0.89921200
vt 0.00056600 0.89216400
vt 0.12884000 0.94571000
vt 0.06462000 0.94571000
vt 0.09673000 0.89138800
vt 0.09673000 0.94571000
vt 0.09673000 0.97287100
vt 0.06462000 0.97287100
vt 0.08067500 0.94571000
vt 0.08067500 0.97287100
vt 0.03229500 0.89138800
vt 0.03229500 0.94571000
vt 0.03229500 0.97287100
vt 0.04845800 0.94571000
vt 0.04845800 0.97287100
vt 0.01613200 0.94571000
vt 0.03229500 0.91854900
vt 0.01613200 0.89138800
vt 0.01613200 0.91854900
vt 0.06462000 0.85213200
vt 0.03229500 0.81287600
vt 0.03229500 0.85213200
vt 0.01613200 0.90496900
vt 0.00805100 0.91854900
vt 0.00805100 0.89138800
vt 0.00805100 0.90496900
vt 0.03229500 0.87176000
vt 0.01613200 0.85213200
vt 0.01613200 0.87176000
vt 0.00176200 0.83305800
vt 0.00185200 0.78601700
vt 0.00186700 0.74622400
vt 0.00193700 0.71066100
vt 0.00208900 0.67779600
vt 0.00234200 0.64677300
vt 0.00271200 0.61704500
vt 0.00321200 0.58823100
vt 0.00385500 0.56004000
vt 0.00465600 0.53223600
vt 0.00563600 0.50461000
vt 0.00679700 0.47697000
vt 0.00809600 0.44912000
vt 0.00948000 0.42085000
vt 0.01089700 0.39191700
vt 0.01229500 0.36201800
vt 0.01360900 0.33075300
vt 0.01475800 0.29754100
vt 0.01561800 0.26145500
vt 0.01596500 0.22079200
vt 0.01526500 0.17228800
vt 0.01196500 0.11080200
vt 0.01141000 0.10407300
vt 0.01091500 0.09779400
vt 0.01026700 0.08645800
vt 0.01020400 0.07649300
vt 0.01078400 0.06745200
vt 0.01205500 0.05889600
vt 0.01409700 0.05051800
vt 0.01743800 0.04119000
vt 0.02139500 0.03313900
vt 0.02629300 0.02553200
vt 0.03204300 0.01870200
vt 0.03846900 0.01290300
vt 0.04664600 0.00757300
vt 0.05414400 0.00423200
vt 0.06218500 0.00192400
vt 0.07108700 0.00054000
vt 0.08134800 0.00000000
vt 0.08718000 0.00002000
vt 0.09353800 0.00020500
vt 0.10051100 0.00051800
vt 0.10880400 0.00092700
vt 0.06462000 0.05623500
vt 0.03229500 0.11248400
vt 0.03229500 0.05623500
vt 0.03229500 0.08436000
vt 0.01613200 0.11248400
vt 0.01613200 0.08436000
vt 0.06462000 0.15197400
vt 0.03229500 0.19146400
vt 0.03229500 0.15197400
vt 0.01613200 0.09842200
vt 0.03229500 0.13222900
vt 0.01613200 0.15197400
vt 0.01613200 0.13222900
vt 0.03229500 0.02811100
vt 0.06462000 0.02811100
vt 0.04845800 0.05623500
vt 0.04845800 0.02811100
vt 0.12884000 0.05623500
vt 0.09673000 0.11248400
vt 0.09673000 0.05623500
vt 0.09673000 0.02811100
vt 0.08067500 0.05623500
vt 0.08067500 0.02811100
vt 0.09673000 0.01404800
vt 0.08870300 0.02811100
vt 0.08067500 0.01404800
vt 0.08870300 0.01404800
vt 0.12884000 0.02811100
vt 0.11278500 0.05623500
vt 0.11278500 0.02811100
vt 0.19239900 0.05623500
vt 0.16061900 0.11248400
vt 0.16061900 0.05623500
vt 0.18314000 0.00263500
vt 0.25491800 0.00270900
vt 0.32563100 0.00270900
vt 0.39564900 0.00270900
vt 0.46526100 0.00270900
vt 0.53473900 0.00270900
vt 0.60435000 0.00270900
vt 0.67436800 0.00270900
vt 0.74508200 0.00270900
vt 0.81685900 0.00263500
vt 0.89119600 0.00092700
vt 0.90649300 0.00020400
vt 0.91870200 0.00000000
vt 0.92897700 0.00054600
vt 0.93789000 0.00194100
vt 0.94594200 0.00426300
vt 0.95345100 0.00762500
vt 0.96153400 0.01290500
vt 0.96798700 0.01873400
vt 0.97370900 0.02553500
vt 0.97858700 0.03310600
vt 0.98256200 0.04119200
vt 0.98597000 0.05074900
vt 0.98799400 0.05914800
vt 0.98924500 0.06773300
vt 0.98980400 0.07681600
vt 0.98971900 0.08684500
vt 0.98905000 0.09826600
vt 0.98854500 0.10460800
vt 0.93701200 0.05623500
vt 0.90406900 0.11248400
vt 0.87112500 0.05623500
vt 0.90406900 0.05623500
vt 0.93701200 0.02811100
vt 0.92054100 0.05623500
vt 0.90406900 0.02811100
vt 0.92054100 0.02811100
vt 0.96852100 0.11248400
vt 0.96852100 0.05623500
vt 0.96852100 0.02811100
vt 0.95276700 0.05623500
vt 0.95276700 0.02811100
vt 0.98427600 0.11248400
vt 0.96852100 0.08436000
vt 0.98427600 0.08436000
vt 0.96852100 0.19146400
vt 0.93701200 0.15197400
vt 0.96852100 0.15197400
vt 0.98427600 0.09842200
vt 0.96852100 0.13222900
vt 0.98427600 0.13222900
vt 0.31688900 0.05734700
vt 0.37835700 0.05681900
vt 0.25514500 0.05759100
vt 0.43923300 0.05672300
vt 0.50000000 0.05672300
vt 0.62168800 0.05583300
vt 0.56076800 0.05672400
vt 0.68145400 0.05583300
vt 0.62168800 0.94452800
vt 0.68145400 0.94452800
f 427/427/427 426/426/426 439/439/439
f 439/439/439 424/424/424 1/1/1
f 1/1/1 425/425/425 427/427/427
f 427/427/427 439/439/439 1/1/1
f 433/433/433 429/429/429 427/427/427
f 425/425/425 428/428/428 433/433/433
f 427/427/427 425/425/425 433/433/433
f 426/426/426 427/427/427 429/429/429
f 424/424/424 439/439/439 440/440/440
f 440/440/440 438/438/438 424/424/424
f 439/439/439 426/426/426 437/437/437
f 437/437/437 440/440/440 439/439/439
f 2/2/2 431/431/431 432/432/432
f 432/432/432 430/430/430 2/2/2
f 432/432/432 435/435/435 436/436/436
f 436/436/436 434/434/434 432/432/432
f 434/434/434 436/436/436 428/428/428
f 428/428/428 425/425/425 434/434/434
f 434/434/434 425/425/425 1/1/1
f 430/430/430 432/432/432 434/434/434
f 1/1/1 430/430/430 434/434/434
f 378/378/378 373/373/373 371/371/371
f 17/17/17 362/362/362 378/378/378
f 371/371/371 17/17/17 378/378/378
f 362/362/362 369/369/369 380/380/380
f 380/380/380 378/378/378 362/362/362
f 378/378/378 380/380/380 379/379/379
f 379/379/379 373/373/373 378/378/378
f 371/371/371 373/373/373 372/372/372
f 372/372/372 16/16/16 371/371/371
f 366/366/366 364/364/364 363/363/363
f 363/363/363 365/365/365 366/366/366
f 359/359/359 366/366/366 365/365/365
f 365/365/365 355/355/355 359/359/359
f 363/363/363 367/367/367 370/370/370
f 370/370/370 368/368/368 363/363/363
f 370/370/370 375/375/375 377/377/377
f 377/377/377 374/374/374 370/370/370
f 374/374/374 377/377/377 376/376/376
f 376/376/376 369/369/369 374/374/374
f 374/374/374 369/369/369 362/362/362
f 368/368/368 370/370/370 374/374/374
f 362/362/362 368/368/368 374/374/374
f 365/365/365 363/363/363 368/368/368
f 368/368/368 362/362/362 17/17/17
f 17/17/17 355/355/355 365/365/365
f 365/365/365 368/368/368 17/17/17
f 452/452/452 441/441/441 18/18/18
f 442/442/442 443/443/443 452/452/452
f 18/18/18 442/442/442 452/452/452
f 445/445/445 443/443/443 442/442/442
f 1/1/1 424/424/424 445/445/445
f 442/442/442 1/1/1 445/445/445
f 448/448/448 444/444/444 443/443/443
f 445/445/445 446/446/446 448/448/448
f 443/443/443 445/445/445 448/448/448
f 445/445/445 424/424/424 438/438/438
f 438/438/438 446/446/446 445/445/445
f 444/444/444 448/448/448 450/450/450
f 450/450/450 447/447/447 444/444/444
f 448/448/448 446/446/446 449/449/449
f 449/449/449 450/450/450 448/448/448
f 441/441/441 452/452/452 453/453/453
f 453/453/453 451/451/451 441/441/441
f 452/452/452 443/443/443 444/444/444
f 444/444/444 453/453/453 452/452/452
f 430/430/430 1/1/1 442/442/442
f 442/442/442 18/18/18 19/19/19
f 19/19/19 2/2/2 430/430/430
f 430/430/430 442/442/442 19/19/19
f 20/20/20 3/3/3 2/2/2
f 2/2/2 19/19/19 20/20/20
f 21/21/21 4/4/4 3/3/3
f 3/3/3 20/20/20 21/21/21
f 22/22/22 5/5/5 4/4/4
f 4/4/4 21/21/21 22/22/22
f 23/23/23 6/6/6 5/5/5
f 5/5/5 22/22/22 23/23/23
f 24/24/24 7/7/7 6/6/6
f 6/6/6 23/23/23 24/24/24
f 25/25/25 8/8/8 7/7/7
f 7/7/7 24/24/24 25/25/25
f 26/26/26 9/9/9 8/8/8
f 8/8/8 25/25/25 26/26/26
f 27/27/27 10/10/10 9/9/9
f 9/9/9 26/26/26 27/27/27
f 28/28/28 11/11/11 10/10/10
f 10/10/10 27/27/27 28/28/28
f 29/29/29 12/12/12 11/11/11
f 11/11/11 28/28/28 29/29/29
f 30/30/30 13/13/13 12/12/12
f 12/12/12 29/29/29 30/30/30
f 31/31/31 14/14/14 13/13/13
f 13/13/13 30/30/30 31/31/31
f 32/32/32 15/15/15 14/14/14
f 14/14/14 31/31/31 32/32/32
f 33/33/33 16/16/16 15/15/15
f 15/15/15 32/32/32 33/33/33
f 356/356/356 17/17/17 371/371/371
f 371/371/371 16/16/16 33/33/33
f 33/33/33 34/34/34 356/356/356
f 356/356/356 371/371/371 33/33/33
f 361/361/361 359/359/359 355/355/355
f 355/355/355 360/360/360 361/361/361
f 358/358/358 361/361/361 360/360/360
f 360/360/360 357/357/357 358/358/358
f 360/360/360 355/355/355 17/17/17
f 356/356/356 357/357/357 360/360/360
f 17/17/17 356/356/356 360/360/360
f 354/354/354 357/357/357 356/356/356
f 356/356/356 34/34/34 354/354/354
f 35/35/35 455/455/455 456/456/456
f 456/456/456 454/454/454 35/35/35
f 455/455/455 18/18/18 441/441/441
f 441/441/441 456/456/456 455/455/455
f 455/455/455 35/35/35 36/36/36
f 19/19/19 18/18/18 455/455/455
f 36/36/36 19/19/19 455/455/455
f 37/37/37 20/20/20 19/19/19
f 19/19/19 36/36/36 37/37/37
f 38/38/38 21/21/21 20/20/20
f 20/20/20 37/37/37 38/38/38
f 39/39/39 22/22/22 21/21/21
f 21/21/21 38/38/38 39/39/39
f 40/40/40 23/23/23 22/22/22
f 22/22/22 39/39/39 40/40/40
f 41/41/41 24/24/24 23/23/23
f 23/23/23 40/40/40 41/41/41
f 42/42/42 25/25/25 24/24/24
f 24/24/24 41/41/41 42/42/42
f 43/43/43 26/26/26 25/25/25
f 25/25/25 42/42/42 43/43/43
f 44/44/44 27/27/27 26/26/26
f 26/26/26 43/43/43 44/44/44
f 45/45/45 28/28/28 27/27/27
f 27/27/27 44/44/44 45/45/45
f 46/46/46 29/29/29 28/28/28
f 28/28/28 45/45/45 46/46/46
f 47/47/47 30/30/30 29/29/29
f 29/29/29 46/46/46 47/47/47
f 48/48/48 31/31/31 30/30/30
f 30/30/30 47/47/47 48/48/48
f 49/49/49 32/32/32 31/31/31
f 31/31/31 48/48/48 49/49/49
f 50/50/50 33/33/33 32/32/32
f 32/32/32 49/49/49 50/50/50
f 51/51/51 34/34/34 33/33/33
f 33/33/33 50/50/50 51/51/51
f 53/53/53 36/36/36 35/35/35
f 35/35/35 52/52/52 53/53/53
f 54/54/54 37/37/37 36/36/36
f 36/36/36 53/53/53 54/54/54
f 55/55/55 38/38/38 37/37/37
f 37/37/37 54/54/54 55/55/55
f 56/56/56 39/39/39 38/38/38
f 38/38/38 55/55/55 56/56/56
f 57/57/57 40/40/40 39/39/39
f 39/39/39 56/56/56 57/57/57
f 58/58/58 41/41/41 40/40/40
f 40/40/40 57/57/57 58/58/58
f 59/59/59 42/42/42 41/41/41
f 41/41/41 58/58/58 59/59/59
f 60/60/60 43/43/43 42/42/42
f 42/42/42 59/59/59 60/60/60
f 61/61/61 44/44/44 43/43/43
f 43/43/43 60/60/60 61/61/61
f 62/62/62 45/45/45 44/44/44
f 44/44/44 61/61/61 62/62/62
f 63/63/63 46/46/46 45/45/45
f 45/45/45 62/62/62 63/63/63
f 64/64/64 47/47/47 46/46/46
f 46/46/46 63/63/63 64/64/64
f 65/65/65 48/48/48 47/47/47
f 47/47/47 64/64/64 65/65/65
f 66/66/66 49/49/49 48/48/48
f 48/48/48 65/65/65 66/66/66
f 67/67/67 50/50/50 49/49/49
f 49/49/49 66/66/66 67/67/67
f 68/68/68 51/51/51 50/50/50
f 50/50/50 67/67/67 68/68/68
f 70/70/70 53/53/53 52/52/52
f 52/52/52 69/69/69 70/70/70
f 71/71/71 54/54/54 53/53/53
f 53/53/53 70/70/70 71/71/71
f 72/72/72 55/55/55 54/54/54
f 54/54/54 71/71/71 72/72/72
f 73/73/73 56/56/56 55/55/55
f 55/55/55 72/72/72 73/73/73
f 74/74/74 57/57/57 56/56/56
f 56/56/56 73/73/73 74/74/74
f 75/75/75 58/58/58 57/57/57
f 57/57/57 74/74/74 75/75/75
f 76/76/76 59/59/59 58/58/58
f 58/58/58 75/75/75 76/76/76
f 77/77/77 60/60/60 59/59/59
f 59/59/59 76/76/76 77/77/77
f 78/78/78 61/61/61 60/60/60
f 60/60/60 77/77/77 78/78/78
f 79/79/79 62/62/62 61/61/61
f 61/61/61 78/78/78 79/79/79
f 80/80/80 63/63/63 62/62/62
f 62/62/62 79/79/79 80/80/80
f 81/81/81 64/64/64 63/63/63
f 63/63/63 80/80/80 81/81/81
f 82/82/82 65/65/65 64/64/64
f 64/64/64 81/81/81 82/82/82
f 83/83/83 66/66/66 65/65/65
f 65/65/65 82/82/82 83/83/83
f 84/84/84 67/67/67 66/66/66
f 66/66/66 83/83/83 84/84/84
f 85/85/85 68/68/68 67/67/67
f 67/67/67 84/84/84 85/85/85
f 87/87/87 70/70/70 69/69/69
f 69/69/69 86/86/86 87/87/87
f 88/88/88 71/71/71 70/70/70
f 70/70/70 87/87/87 88/88/88
f 89/89/89 72/72/72 71/71/71
f 71/71/71 88/88/88 89/89/89
f 90/90/90 73/73/73 72/72/72
f 72/72/72 89/89/89 90/90/90
f 91/91/91 74/74/74 73/73/73
f 73/73/73 90/90/90 91/91/91
f 92/92/92 75/75/75 74/74/74
f 74/74/74 91/91/91 92/92/92
f 93/93/93 76/76/76 75/75/75
f 75/75/75 92/92/92 93/93/93
f 94/94/94 77/77/77 76/76/76
f 76/76/76 93/93/93 94/94/94
f 95/95/95 78/78/78 77/77/77
f 77/77/77 94/94/94 95/95/95
f 96/96/96 79/79/79 78/78/78
f 78/78/78 95/95/95 96/96/96
f 97/97/97 80/80/80 79/79/79
f 79/79/79 96/96/96 97/97/97
f 98/98/98 81/81/81 80/80/80
f 80/80/80 97/97/97 98/98/98
f 99/99/99 82/82/82 81/81/81
f 81/81/81 98/98/98 99/99/99
f 100/100/100 83/83/83 82/82/82
f 82/82/82 99/99/99 100/100/100
f 101/101/101 84/84/84 83/83/83
f 83/83/83 100/100/100 101/101/101
f 102/102/102 85/85/85 84/84/84
f 84/84/84 101/101/101 102/102/102
f 104/104/104 87/87/87 86/86/86
f 86/86/86 103/103/103 104/104/104
f 105/105/105 88/88/88 87/87/87
f 87/87/87 104/104/104 105/105/105
f 106/106/106 89/89/89 88/88/88
f 88/88/88 105/105/105 106/106/106
f 107/107/107 90/90/90 89/89/89
f 89/89/89 106/106/106 107/107/107
f 108/108/108 91/91/91 90/90/90
f 90/90/90 107/107/107 108/108/108
f 109/109/109 92/92/92 91/91/91
f 91/91/91 108/108/108 109/109/109
f 110/110/110 93/93/93 92/92/92
f 92/92/92 109/109/109 110/110/110
f 111/111/111 94/94/94 93/93/93
f 93/93/93 110/110/110 111/111/111
f 112/112/112 95/95/95 94/94/94
f 94/94/94 111/111/111 112/112/112
f 113/113/113 96/96/96 95/95/95
f 95/95/95 112/112/112 113/113/113
f 114/114/114 97/97/97 96/96/96
f 96/96/96 113/113/113 114/114/114
f 115/115/115 98/98/98 97/97/97
f 97/97/97 114/114/114 115/115/115
f 116/116/116 99/99/99 98/98/98
f 98/98/98 115/115/115 116/116/116
f 117/117/117 100/100/100 99/99/99
f 99/99/99 116/116/116 117/117/117
f 118/118/118 101/101/101 100/100/100
f 100/100/100 117/117/117 118/118/118
f 119/119/119 102/102/102 101/101/101
f 101/101/101 118/118/118 119/119/119
f 121/121/121 104/104/104 103/103/103
f 103/103/103 120/120/120 121/121/121
f 122/122/122 105/105/105 104/104/104
f 104/104/104 121/121/121 122/122/122
f 123/123/123 106/106/106 105/105/105
f 105/105/105 122/122/122 123/123/123
f 124/124/124 107/107/107 106/106/106
f 106/106/106 123/123/123 124/124/124
f 125/125/125 108/108/108 107/107/107
f 107/107/107 124/124/124 125/125/125
f 126/126/126 109/109/109 108/108/108
f 108/108/108 125/125/125 126/126/126
f 127/127/127 110/110/110 109/109/109
f 109/109/109 126/126/126 127/127/127
f 128/128/128 111/111/111 110/110/110
f 110/110/110 127/127/127 128/128/128
f 129/129/129 112/112/112 111/111/111
f 111/111/111 128/128/128 129/129/129
f 130/130/130 113/113/113 112/112/112
f 112/112/112 129/129/129 130/130/130
f 131/131/131 114/114/114 113/113/113
f 113/113/113 130/130/130 131/131/131
f 132/132/132 115/115/115 114/114/114
f 114/114/114 131/131/131 132/132/132
f 133/133/133 116/116/116 115/115/115
f 115/115/115 132/132/132 133/133/133
f 134/134/134 117/117/117 116/116/116
f 116/116/116 133/133/133 134/134/134
f 135/135/135 118/118/118 117/117/117
f 117/117/117 134/134/134 135/135/135
f 136/136/136 119/119/119 118/118/118
f 118/118/118 135/135/135 136/136/136
f 138/138/138 121/121/121 120/120/120
f 120/120/120 137/137/137 138/138/138
f 139/139/139 122/122/122 121/121/121
f 121/121/121 138/138/138 139/139/139
f 140/140/140 123/123/123 122/122/122
f 122/122/122 139/139/139 140/140/140
f 141/141/141 124/124/124 123/123/123
f 123/123/123 140/140/140 141/141/141
f 142/142/142 125/125/125 124/124/124
f 124/124/124 141/141/141 142/142/142
f 143/143/143 126/126/126 125/125/125
f 125/125/125 142/142/142 143/143/143
f 144/144/144 127/127/127 126/126/126
f 126/126/126 143/143/143 144/144/144
f 145/145/145 128/128/128 127/127/127
f 127/127/127 144/144/144 145/145/145
f 146/146/146 129/129/129 128/128/128
f 128/128/128 145/145/145 146/146/146
f 147/147/147 130/130/130 129/129/129
f 129/129/129 146/146/146 147/147/147
f 148/148/148 131/131/131 130/130/130
f 130/130/130 147/147/147 148/148/148
f 149/149/149 132/132/132 131/131/131
f 131/131/131 148/148/148 149/149/149
f 150/150/150 133/133/133 132/132/132
f 132/132/132 149/149/149 150/150/150
f 151/151/151 134/134/134 133/133/133
f 133/133/133 150/150/150 151/151/151
f 152/152/152 135/135/135 134/134/134
f 134/134/134 151/151/151 152/152/152
f 153/153/153 136/136/136 135/135/135
f 135/135/135 152/152/152 153/153/153
f 155/155/155 138/138/138 137/137/137
f 137/137/137 154/154/154 155/155/155
f 156/156/156 139/139/139 138/138/138
f 138/138/138 155/155/155 156/156/156
f 157/157/157 140/140/140 139/139/139
f 139/139/139 156/156/156 157/157/157
f 158/158/158 141/141/141 140/140/140
f 140/140/140 157/157/157 158/158/158
f 159/159/159 142/142/142 141/141/141
f 141/141/141 158/158/158 159/159/159
f 160/160/160 143/143/143 142/142/142
f 142/142/142 159/159/159 160/160/160
f 161/161/161 144/144/144 143/143/143
f 143/143/143 160/160/160 161/161/161
f 162/162/162 145/145/145 144/144/144
f 144/144/144 161/161/161 162/162/162
f 163/163/163 146/146/146 145/145/145
f 145/145/145 162/162/162 163/163/163
f 164/164/164 147/147/147 146/146/146
f 146/146/146 163/163/163 164/164/164
f 165/165/165 148/148/148 147/147/147
f 147/147/147 164/164/164 165/165/165
f 166/166/166 149/149/149 148/148/148
f 148/148/148 165/165/165 166/166/166
f 167/167/167 150/150/150 149/149/149
f 149/149/149 166/166/166 167/167/167
f 168/168/168 151/151/151 150/150/150
f 150/150/150 167/167/167 168/168/168
f 169/169/169 152/152/152 151/151/151
f 151/151/151 168/168/168 169/169/169
f 170/170/170 153/153/153 152/152/152
f 152/152/152 169/169/169 170/170/170
f 172/172/172 155/155/155 154/154/154
f 154/154/154 171/171/171 172/172/172
f 173/173/173 156/156/156 155/155/155
f 155/155/155 172/172/172 173/173/173
f 174/174/174 157/157/157 156/156/156
f 156/156/156 173/173/173 174/174/174
f 175/175/175 158/158/158 157/157/157
f 157/157/157 174/174/174 175/175/175
f 176/176/176 159/159/159 158/158/158
f 158/158/158 175/175/175 176/176/176
f 177/177/177 160/160/160 159/159/159
f 159/159/159 176/176/176 177/177/177
f 178/178/178 161/161/161 160/160/160
f 160/160/160 177/177/177 178/178/178
f 179/179/179 162/162/162 161/161/161
f 161/161/161 178/178/178 179/179/179
f 180/180/180 163/163/163 162/162/162
f 162/162/162 179/179/179 180/180/180
f 181/181/181 164/164/164 163/163/163
f 163/163/163 180/180/180 181/181/181
f 182/182/182 165/165/165 164/164/164
f 164/164/164 181/181/181 182/182/182
f 183/183/183 166/166/166 165/165/165
f 165/165/165 182/182/182 183/183/183
f 184/184/184 167/167/167 166/166/166
f 166/166/166 183/183/183 184/184/184
f 185/185/185 168/168/168 167/167/167
f 167/167/167 184/184/184 185/185/185
f 186/186/186 169/169/169 168/168/168
f 168/168/168 185/185/185 186/186/186
f 187/187/187 170/170/170 169/169/169
f 169/169/169 186/186/186 187/187/187
f 189/189/189 172/172/172 171/171/171
f 171/171/171 188/188/188 189/189/189
f 190/190/190 173/173/173 172/172/172
f 172/172/172 189/189/189 190/190/190
f 191/191/191 174/174/174 173/173/173
f 173/173/173 190/190/190 191/191/191
f 192/192/192 175/175/175 174/174/174
f 174/174/174 191/191/191 192/192/192
f 193/193/193 176/176/176 175/175/175
f 175/175/175 192/192/192 193/193/193
f 194/194/194 177/177/177 176/176/176
f 176/176/176 193/193/193 194/194/194
f 195/195/195 178/178/178 177/177/177
f 177/177/177 194/194/194 195/195/195
f 196/196/196 179/179/179 178/178/178
f 178/178/178 195/195/195 196/196/196
f 197/197/197 180/180/180 179/179/179
f 179/179/179 196/196/196 197/197/197
f 198/198/198 181/181/181 180/180/180
f 180/180/180 197/197/197 198/198/198
f 199/199/199 182/182/182 181/181/181
f 181/181/181 198/198/198 199/199/199
f 200/200/200 183/183/183 182/182/182
f 182/182/182 199/199/199 200/200/200
f 201/201/201 184/184/184 183/183/183
f 183/183/183 200/200/200 201/201/201
f 202/202/202 185/185/185 184/184/184
f 184/184/184 201/201/201 202/202/202
f 203/203/203 186/186/186 185/185/185
f 185/185/185 202/202/202 203/203/203
f 204/204/204 187/187/187 186/186/186
f 186/186/186 203/203/203 204/204/204
f 206/206/206 189/189/189 188/188/188
f 188/188/188 205/205/205 206/206/206
f 207/207/207 190/190/190 189/189/189
f 189/189/189 206/206/206 207/207/207
f 208/208/208 191/191/191 190/190/190
f 190/190/190 207/207/207 208/208/208
f 209/209/209 192/192/192 191/191/191
f 191/191/191 208/208/208 209/209/209
f 210/210/210 193/193/193 192/192/192
f 192/192/192 209/209/209 210/210/210
f 211/211/211 194/194/194 193/193/193
f 193/193/193 210/210/210 211/211/211
f 212/212/212 195/195/195 194/194/194
f 194/194/194 211/211/211 212/212/212
f 213/213/213 196/196/196 195/195/195
f 195/195/195 212/212/212 213/213/213
f 214/214/214 197/197/197 196/196/196
f 196/196/196 213/213/213 214/214/214
f 215/215/215 198/198/198 197/197/197
f 197/197/197 214/214/214 215/215/215
f 216/216/216 199/199/199 198/198/198
f 198/198/198 215/215/215 216/216/216
f 217/217/217 200/200/200 199/199/199
f 199/199/199 216/216/216 217/217/217
f 218/218/218 201/201/201 200/200/200
f 200/200/200 217/217/217 218/218/218
f 219/219/219 202/202/202 201/201/201
f 201/201/201 218/218/218 219/219/219
f 220/220/220 203/203/203 202/202/202
f 202/202/202 219/219/219 220/220/220
f 221/221/221 204/204/204 203/203/203
f 203/203/203 220/220/220 221/221/221
f 223/223/223 206/206/206 205/205/205
f 205/205/205 222/222/222 223/223/223
f 224/224/224 207/207/207 206/206/206
f 206/206/206 223/223/223 224/224/224
f 225/225/225 208/208/208 207/207/207
f 207/207/207 224/224/224 225/225/225
f 226/226/226 209/209/209 208/208/208
f 208/208/208 225/225/225 226/226/226
f 227/227/227 210/210/210 209/209/209
f 209/209/209 226/226/226 227/227/227
f 228/228/228 211/211/211 210/210/210
f 210/210/210 227/227/227 228/228/228
f 229/229/229 212/212/212 211/211/211
f 211/211/211 228/228/228 229/229/229
f 230/230/230 213/213/213 212/212/212
f 212/212/212 229/229/229 230/230/230
f 231/231/231 214/214/214 213/213/213
f 213/213/213 230/230/230 231/231/231
f 232/232/232 215/215/215 214/214/214
f 214/214/214 231/231/231 232/232/232
f 233/233/233 216/216/216 215/215/215
f 215/215/215 232/232/232 233/233/233
f 234/234/234 217/217/217 216/216/216
f 216/216/216 233/233/233 234/234/234
f 235/235/235 218/218/218 217/217/217
f 217/217/217 234/234/234 235/235/235
f 236/236/236 219/219/219 218/218/218
f 218/218/218 235/235/235 236/236/236
f 237/237/237 220/220/220 219/219/219
f 219/219/219 236/236/236 237/237/237
f 322/322/322 221/221/221 220/220/220
f 237/237/237 238/238/238 322/322/322
f 220/220/220 237/237/237 322/322/322
f 323/323/323 321/321/321 221/221/221
f 221/221/221 322/322/322 323/323/323
f 312/312/312 323/323/323 322/322/322
f 322/322/322 238/238/238 312/312/312
f 491/491/491 486/486/486 239/239/239
f 487/487/487 489/489/489 491/491/491
f 239/239/239 487/487/487 491/491/491
f 487/487/487 222/222/222 488/488/488
f 488/488/488 489/489/489 487/487/487
f 486/486/486 491/491/491 493/493/493
f 493/493/493 490/490/490 486/486/486
f 491/491/491 489/489/489 492/492/492
f 492/492/492 493/493/493 491/491/491
f 487/487/487 239/239/239 503/503/503
f 503/503/503 240/240/240 223/223/223
f 223/223/223 222/222/222 487/487/487
f 487/487/487 503/503/503 223/223/223
f 241/241/241 224/224/224 223/223/223
f 223/223/223 240/240/240 241/241/241
f 242/242/242 225/225/225 224/224/224
f 224/224/224 241/241/241 242/242/242
f 243/243/243 226/226/226 225/225/225
f 225/225/225 242/242/242 243/243/243
f 244/244/244 227/227/227 226/226/226
f 226/226/226 243/243/243 244/244/244
f 245/245/245 228/228/228 227/227/227
f 227/227/227 244/244/244 245/245/245
f 246/246/246 229/229/229 228/228/228
f 228/228/228 245/245/245 246/246/246
f 247/247/247 230/230/230 229/229/229
f 229/229/229 246/246/246 247/247/247
f 248/248/248 231/231/231 230/230/230
f 230/230/230 247/247/247 248/248/248
f 249/249/249 232/232/232 231/231/231
f 231/231/231 248/248/248 249/249/249
f 250/250/250 233/233/233 232/232/232
f 232/232/232 249/249/249 250/250/250
f 251/251/251 234/234/234 233/233/233
f 233/233/233 250/250/250 251/251/251
f 252/252/252 235/235/235 234/234/234
f 234/234/234 251/251/251 252/252/252
f 253/253/253 236/236/236 235/235/235
f 235/235/235 252/252/252 253/253/253
f 254/254/254 237/237/237 236/236/236
f 236/236/236 253/253/253 254/254/254
f 305/305/305 255/255/255 313/313/313
f 313/313/313 238/238/238 237/237/237
f 237/237/237 254/254/254 305/305/305
f 305/305/305 313/313/313 237/237/237
f 317/317/317 315/315/315 314/314/314
f 314/314/314 316/316/316 317/317/317
f 309/309/309 317/317/317 316/316/316
f 316/316/316 298/298/298 309/309/309
f 320/320/320 318/318/318 312/312/312
f 312/312/312 319/319/319 320/320/320
f 315/315/315 320/320/320 319/319/319
f 319/319/319 314/314/314 315/315/315
f 319/319/319 312/312/312 238/238/238
f 313/313/313 314/314/314 319/319/319
f 238/238/238 313/313/313 319/319/319
f 316/316/316 314/314/314 313/313/313
f 255/255/255 298/298/298 316/316/316
f 313/313/313 255/255/255 316/316/316
f 505/505/505 499/499/499 494/494/494
f 500/500/500 501/501/501 505/505/505
f 494/494/494 500/500/500 505/505/505
f 501/501/501 500/500/500 495/495/495
f 497/497/497 495/495/495 500/500/500
f 500/500/500 494/494/494 239/239/239
f 239/239/239 486/486/486 497/497/497
f 497/497/497 500/500/500 239/239/239
f 495/495/495 497/497/497 498/498/498
f 498/498/498 496/496/496 495/495/495
f 497/497/497 486/486/486 490/490/490
f 490/490/490 498/498/498 497/497/497
f 502/502/502 240/240/240 503/503/503
f 503/503/503 504/504/504 502/502/502
f 506/506/506 504/504/504 503/503/503
f 239/239/239 494/494/494 506/506/506
f 503/503/503 239/239/239 506/506/506
f 507/507/507 506/506/506 494/494/494
f 494/494/494 499/499/499 507/507/507
f 299/299/299 255/255/255 305/305/305
f 305/305/305 307/307/307 299/299/299
f 307/307/307 305/305/305 254/254/254
f 254/254/254 306/306/306 307/307/307
f 311/311/311 309/309/309 298/298/298
f 298/298/298 310/310/310 311/311/311
f 308/308/308 311/311/311 310/310/310
f 310/310/310 300/300/300 308/308/308
f 302/302/302 300/300/300 310/310/310
f 310/310/310 298/298/298 255/255/255
f 255/255/255 299/299/299 302/302/302
f 302/302/302 310/310/310 255/255/255
f 301/301/301 300/300/300 302/302/302
f 302/302/302 304/304/304 301/301/301
f 304/304/304 302/302/302 299/299/299
f 299/299/299 303/303/303 304/304/304
f 407/407/407 408/408/408 426/426/426
f 409/409/409 426/426/426 408/408/408
f 426/426/426 409/409/409 410/410/410
f 429/429/429 405/405/405 406/406/406
f 406/406/406 407/407/407 429/429/429
f 407/407/407 426/426/426 429/429/429
f 433/433/433 405/405/405 429/429/429
f 426/426/426 410/410/410 411/411/411
f 415/415/415 440/440/440 414/414/414
f 415/415/415 438/438/438 440/440/440
f 415/415/415 416/416/416 438/438/438
f 437/437/437 412/412/412 413/413/413
f 413/413/413 440/440/440 437/437/437
f 437/437/437 426/426/426 411/411/411
f 440/440/440 413/413/413 414/414/414
f 412/412/412 437/437/437 411/411/411
f 428/428/428 402/402/402 403/403/403
f 433/433/433 403/403/403 404/404/404
f 395/395/395 6/6/6 394/394/394
f 397/397/397 5/5/5 396/396/396
f 396/396/396 6/6/6 395/395/395
f 4/4/4 397/397/397 398/398/398
f 428/428/428 436/436/436 402/402/402
f 402/402/402 435/435/435 401/401/401
f 436/436/436 435/435/435 402/402/402
f 400/400/400 401/401/401 431/431/431
f 432/432/432 431/431/431 401/401/401
f 3/3/3 399/399/399 400/400/400
f 432/432/432 401/401/401 435/435/435
f 4/4/4 398/398/398 399/399/399
f 433/433/433 428/428/428 403/403/403
f 433/433/433 404/404/404 405/405/405
f 431/431/431 2/2/2 400/400/400
f 438/438/438 416/416/416 417/417/417
f 419/419/419 449/449/449 418/418/418
f 420/420/420 449/449/449 419/419/419
f 421/421/421 450/450/450 420/420/420
f 446/446/446 438/438/438 449/449/449
f 449/449/449 438/438/438 417/417/417
f 450/450/450 449/449/449 420/420/420
f 450/450/450 421/421/421 447/447/447
f 418/418/418 449/449/449 417/417/417
f 447/447/447 422/422/422 423/423/423
f 451/451/451 453/453/453 423/423/423
f 453/453/453 444/444/444 447/447/447
f 458/458/458 454/454/454 457/457/457
f 423/423/423 453/453/453 447/447/447
f 458/458/458 459/459/459 508/508/508
f 460/460/460 509/509/509 459/459/459
f 457/457/457 451/451/451 423/423/423
f 421/421/421 422/422/422 447/447/447
f 456/456/456 441/441/441 451/451/451
f 457/457/457 456/456/456 451/451/451
f 457/457/457 454/454/454 456/456/456
f 400/400/400 2/2/2 3/3/3
f 397/397/397 4/4/4 5/5/5
f 396/396/396 5/5/5 6/6/6
f 399/399/399 3/3/3 4/4/4
f 508/508/508 69/69/69 52/52/52
f 52/52/52 510/510/510 508/508/508
f 454/454/454 458/458/458 510/510/510
f 509/509/509 86/86/86 69/69/69
f 69/69/69 508/508/508 509/509/509
f 509/509/509 508/508/508 459/459/459
f 458/458/458 508/508/508 510/510/510
f 511/511/511 103/103/103 86/86/86
f 86/86/86 509/509/509 511/511/511
f 510/510/510 52/52/52 35/35/35
f 35/35/35 454/454/454 510/510/510
f 103/103/103 511/511/511 512/512/512
f 512/512/512 120/120/120 103/103/103
f 509/509/509 460/460/460 511/511/511
f 511/511/511 460/460/460 461/461/461
f 7/7/7 394/394/394 6/6/6
f 384/384/384 385/385/385 14/14/14
f 386/386/386 13/13/13 385/385/385
f 384/384/384 14/14/14 383/383/383
f 382/382/382 372/372/372 381/381/381
f 383/383/383 15/15/15 382/382/382
f 15/15/15 372/372/372 382/382/382
f 12/12/12 386/386/386 387/387/387
f 389/389/389 390/390/390 10/10/10
f 390/390/390 391/391/391 9/9/9
f 391/391/391 392/392/392 9/9/9
f 381/381/381 379/379/379 380/380/380
f 381/381/381 372/372/372 373/373/373
f 373/373/373 379/379/379 381/381/381
f 389/389/389 11/11/11 388/388/388
f 388/388/388 12/12/12 387/387/387
f 8/8/8 392/392/392 393/393/393
f 353/353/353 381/381/381 380/380/380
f 352/352/352 377/377/377 351/351/351
f 352/352/352 353/353/353 376/376/376
f 380/380/380 376/376/376 353/353/353
f 377/377/377 350/350/350 351/351/351
f 375/375/375 349/349/349 350/350/350
f 347/347/347 348/348/348 367/367/367
f 349/349/349 370/370/370 348/348/348
f 367/367/367 346/346/346 347/347/347
f 352/352/352 376/376/376 377/377/377
f 350/350/350 377/377/377 375/375/375
f 348/348/348 370/370/370 367/367/367
f 345/345/345 363/363/363 344/344/344
f 342/342/342 343/343/343 364/364/364
f 367/367/367 363/363/363 345/345/345
f 343/343/343 344/344/344 364/364/364
f 345/345/345 346/346/346 367/367/367
f 370/370/370 349/349/349 375/375/375
f 369/369/369 376/376/376 380/380/380
f 8/8/8 9/9/9 392/392/392
f 10/10/10 11/11/11 389/389/389
f 9/9/9 10/10/10 390/390/390
f 386/386/386 12/12/12 13/13/13
f 12/12/12 388/388/388 11/11/11
f 13/13/13 14/14/14 385/385/385
f 383/383/383 14/14/14 15/15/15
f 7/7/7 8/8/8 393/393/393
f 15/15/15 16/16/16 372/372/372
f 34/34/34 51/51/51 354/354/354
f 68/68/68 332/332/332 51/51/51
f 85/85/85 332/332/332 68/68/68
f 102/102/102 331/331/331 85/85/85
f 342/342/342 364/364/364 341/341/341
f 366/366/366 341/341/341 364/364/364
f 340/340/340 341/341/341 366/366/366
f 359/359/359 339/339/339 366/366/366
f 339/339/339 340/340/340 366/366/366
f 359/359/359 338/338/338 339/339/339
f 338/338/338 359/359/359 337/337/337
f 336/336/336 337/337/337 361/361/361
f 361/361/361 337/337/337 359/359/359
f 358/358/358 335/335/335 361/361/361
f 334/334/334 358/358/358 354/354/354
f 333/333/333 51/51/51 332/332/332
f 51/51/51 333/333/333 354/354/354
f 358/358/358 334/334/334 335/335/335
f 331/331/331 332/332/332 85/85/85
f 333/333/333 334/334/334 354/354/354
f 331/331/331 102/102/102 330/330/330
f 336/336/336 361/361/361 335/335/335
f 358/358/358 357/357/357 354/354/354
f 119/119/119 330/330/330 102/102/102
f 344/344/344 363/363/363 364/364/364
f 7/7/7 393/393/393 394/394/394
f 513/513/513 463/463/463 464/464/464
f 512/512/512 461/461/461 462/462/462
f 463/463/463 514/514/514 462/462/462
f 515/515/515 465/465/465 188/188/188
f 464/464/464 515/515/515 513/513/513
f 464/464/464 465/465/465 515/515/515
f 154/154/154 513/513/513 515/515/515
f 515/515/515 171/171/171 154/154/154
f 466/466/466 205/205/205 465/465/465
f 463/463/463 513/513/513 514/514/514
f 468/468/468 492/492/492 467/467/467
f 493/493/493 468/468/468 469/469/469
f 469/469/469 470/470/470 493/493/493
f 492/492/492 489/489/489 488/488/488
f 467/467/467 492/492/492 488/488/488
f 493/493/493 470/470/470 490/490/490
f 468/468/468 493/493/493 492/492/492
f 470/470/470 471/471/471 490/490/490
f 466/466/466 467/467/467 488/488/488
f 205/205/205 466/466/466 488/488/488
f 120/120/120 512/512/512 514/514/514
f 514/514/514 137/137/137 120/120/120
f 137/137/137 514/514/514 513/513/513
f 513/513/513 154/154/154 137/137/137
f 512/512/512 462/462/462 514/514/514
f 465/465/465 205/205/205 188/188/188
f 488/488/488 222/222/222 205/205/205
f 188/188/188 171/171/171 515/515/515
f 241/241/241 259/259/259 242/242/242
f 258/258/258 241/241/241 240/240/240
f 243/243/243 262/262/262 244/244/244
f 245/245/245 265/265/265 246/246/246
f 246/246/246 266/266/266 247/247/247
f 264/264/264 245/245/245 244/244/244
f 261/261/261 243/243/243 242/242/242
f 471/471/471 472/472/472 490/490/490
f 498/498/498 490/490/490 473/473/473
f 474/474/474 498/498/498 473/473/473
f 475/475/475 498/498/498 474/474/474
f 496/496/496 498/498/498 475/475/475
f 476/476/476 477/477/477 496/496/496
f 495/495/495 496/496/496 477/477/477
f 496/496/496 475/475/475 476/476/476
f 495/495/495 478/478/478 479/479/479
f 495/495/495 479/479/479 480/480/480
f 495/495/495 480/480/480 481/481/481
f 501/501/501 483/483/483 505/505/505
f 501/501/501 482/482/482 483/483/483
f 481/481/481 482/482/482 501/501/501
f 501/501/501 495/495/495 481/481/481
f 477/477/477 478/478/478 495/495/495
f 505/505/505 483/483/483 484/484/484
f 256/256/256 257/257/257 507/507/507
f 256/256/256 507/507/507 499/499/499
f 504/504/504 506/506/506 507/507/507
f 257/257/257 502/502/502 504/504/504
f 502/502/502 257/257/257 258/258/258
f 258/258/258 259/259/259 241/241/241
f 257/257/257 504/504/504 507/507/507
f 242/242/242 259/259/259 260/260/260
f 485/485/485 499/499/499 505/505/505
f 260/260/260 261/261/261 242/242/242
f 499/499/499 485/485/485 256/256/256
f 262/262/262 263/263/263 244/244/244
f 265/265/265 266/266/266 246/246/246
f 245/245/245 264/264/264 265/265/265
f 264/264/264 244/244/244 263/263/263
f 261/261/261 262/262/262 243/243/243
f 485/485/485 505/505/505 484/484/484
f 240/240/240 502/502/502 258/258/258
f 472/472/472 473/473/473 490/490/490
f 267/267/267 247/247/247 266/266/266
f 136/136/136 329/329/329 119/119/119
f 516/516/516 153/153/153 170/170/170
f 153/153/153 328/328/328 136/136/136
f 516/516/516 170/170/170 187/187/187
f 187/187/187 517/517/517 516/516/516
f 204/204/204 325/325/325 517/517/517
f 187/187/187 204/204/204 517/517/517
f 517/517/517 326/326/326 516/516/516
f 153/153/153 516/516/516 328/328/328
f 269/269/269 249/249/249 248/248/248
f 272/272/272 251/251/251 250/250/250
f 250/250/250 249/249/249 270/270/270
f 204/204/204 221/221/221 321/321/321
f 275/275/275 253/253/253 252/252/252
f 306/306/306 254/254/254 253/253/253
f 252/252/252 251/251/251 273/273/273
f 204/204/204 321/321/321 325/325/325
f 324/324/324 325/325/325 321/321/321
f 517/517/517 325/325/325 326/326/326
f 323/323/323 312/312/312 318/318/318
f 318/318/318 324/324/324 323/323/323
f 329/329/329 136/136/136 328/328/328
f 328/328/328 516/516/516 327/327/327
f 516/516/516 326/326/326 327/327/327
f 324/324/324 318/318/318 297/297/297
f 324/324/324 321/321/321 323/323/323
f 297/297/297 320/320/320 315/315/315
f 293/293/293 317/317/317 309/309/309
f 295/295/295 315/315/315 317/317/317
f 296/296/296 297/297/297 315/315/315
f 295/295/295 317/317/317 294/294/294
f 315/315/315 295/295/295 296/296/296
f 293/293/293 294/294/294 317/317/317
f 293/293/293 309/309/309 292/292/292
f 318/318/318 320/320/320 297/297/297
f 330/330/330 119/119/119 329/329/329
f 248/248/248 268/268/268 269/269/269
f 249/249/249 269/269/269 270/270/270
f 250/250/250 270/270/270 271/271/271
f 278/278/278 303/303/303 307/307/307
f 307/307/307 303/303/303 299/299/299
f 306/306/306 277/277/277 307/307/307
f 250/250/250 271/271/271 272/272/272
f 273/273/273 274/274/274 252/252/252
f 275/275/275 252/252/252 274/274/274
f 275/275/275 276/276/276 253/253/253
f 276/276/276 306/306/306 253/253/253
f 303/303/303 278/278/278 279/279/279
f 307/307/307 277/277/277 278/278/278
f 276/276/276 277/277/277 306/306/306
f 251/251/251 272/272/272 273/273/273
f 279/279/279 304/304/304 303/303/303
f 289/289/289 311/311/311 308/308/308
f 308/308/308 286/286/286 287/287/287
f 286/286/286 308/308/308 300/300/300
f 287/287/287 288/288/288 308/308/308
f 292/292/292 309/309/309 291/291/291
f 311/311/311 290/290/290 291/291/291
f 290/290/290 311/311/311 289/289/289
f 289/289/289 308/308/308 288/288/288
f 291/291/291 309/309/309 311/311/311
f 301/301/301 304/304/304 282/282/282
f 281/281/281 282/282/282 304/304/304
f 304/304/304 280/280/280 281/281/281
f 280/280/280 304/304/304 279/279/279
f 301/301/301 285/285/285 300/300/300
f 286/286/286 300/300/300 285/285/285
f 285/285/285 301/301/301 284/284/284
f 283/283/283 284/284/284 301/301/301
f 283/283/283 301/301/301 282/282/282
f 248/248/248 247/247/247 268/268/268
f 268/268/268 247/247/247 267/267/267
f 512/512/512 511/511/511 461/461/461

