####
#
# OBJ File Generated by Meshlab
#
####
# Object torso_base_link_6.obj
#
# Vertices: 471
# Faces: 236
#
####
mtllib ./torso_base_link_6.obj.mtl

vn -0.0011719056005705 0.7458746843345487 -3.0444604523559788
v -0.0129806216216216 0.2516311351351352 -0.0631687567567568
vn -0.0002515921160058 0.3043717970650382 -1.2440811219082162
v -0.0106315714285714 0.2517050714285715 -0.0631511428571429
vn -0.2923611302383137 169.0215314067191628 -692.6283869417542292
v -0.0085740687237027 0.2515816199158475 -0.0631811598877980
vn 0.3928822842452405 73.7315213977947082 -301.0728733197280462
v -0.0054845709677419 0.2515966451612903 -0.0631770580645161
vn 0.0265852343498923 0.4862929971601461 -1.7346656861514522
v 0.0440108918918919 0.2523752972972973 -0.0628397027027027
vn 0.0001499902299627 0.3407096996077795 -1.3970109301442020
v -0.0042534979702300 0.2516132503382948 -0.0631728105548040
vn 3.9694205912368248 92.7454670263770993 -348.8254955133501767
v 0.0375894127423823 0.2530390470914128 -0.0627437811634349
vn 0.0017553181923313 0.3567843951884641 -1.4407596353410044
v 0.0227028322580645 0.2530213225806456 -0.0628307258064517
vn 1.6999766535577465 226.1536246464758904 -922.4098554019896028
v 0.0143613463157895 0.2515907642105258 -0.0631856715789471
vn 0.0483956400891525 3.6263763663370923 -14.5549538292228942
v 0.0250007333333333 0.2523234000000000 -0.0629998000000000
vn 0.0033351155801885 0.6761872377970271 -2.7295544507725436
v 0.0228047625000000 0.2524988895833330 -0.0629599749999999
vn -0.0003424499302189 0.1774146192851674 -0.7235249306515534
v 0.0167673815659069 0.2515983805748271 -0.0631847373637265
vn 0.2762715599051840 14.5685583624807062 -58.2022319176768406
v 0.0251226833333333 0.2535827833333333 -0.0626852666666667
vn -0.0004704300238893 0.4188137372053993 -1.7181775037050484
v 0.0052685641025641 0.2516614743589744 -0.0631627307692308
vn 0.0030819665305957 0.1524443903284296 -0.5917142402714516
v 0.0333069172413793 0.2524771982758620 -0.0629274155172414
vn 0.0002128766336341 0.7344697532230784 -3.0114080204445139
v -0.0025011409214092 0.2515585813008124 -0.0631859647696478
vn 0.0145930553256638 0.3076438576074609 -1.1390961992846820
v 0.0393187266881029 0.2530468456591644 -0.0627217877813506
vn 0.0493065605707170 1.0726970358129677 -3.9215399478373945
v 0.0414775000000000 0.2526703628048781 -0.0627958109756098
vn 0.0000806947615524 0.3620338370322888 -1.4841410669096193
v -0.0002971553973903 0.2515796204033212 -0.0631807473309611
vn 0.0440509527581778 1.0357883890274748 -3.8393297723888331
v 0.0396422324621733 0.2522916850068775 -0.0629211320495187
vn 0.0272558609047007 0.5542868629115657 -2.0242341151033423
v 0.0412510111856823 0.2530439060402688 -0.0626965749440716
vn 1.8870517181772111 51.7413929618176738 -196.2736913930857838
v 0.0362115320197045 0.2530401231527092 -0.0627577487684729
vn -0.1033607136050797 26.4731203714983678 -108.8168429287114520
v 0.0112929196428571 0.2517076696428572 -0.0631551517857143
vn 1.7016165433498764 95.5168141468771807 -377.0642558092604304
v 0.0293782133676093 0.2524612185089972 -0.0629519742930591
vn 0.0022957677195813 0.6097495245340709 -2.4695024885473238
v 0.0202817342657343 0.2530394568764566 -0.0628293100233100
vn -0.6147593204708850 169.5720456164577570 -692.4558090996363262
v 0.0121521949509116 0.2515696311360447 -0.0631895245441794
vn 0.0660526645598949 4.3759325057898080 -17.4598631594631293
v 0.0269945000000000 0.2522793333333333 -0.0630058333333333
vn -0.0064156963993115 1.1955748002055950 -4.8549452193375497
v 0.0197370000000000 0.2513500000000000 -0.0632460000000000
vn 0.0017341483059303 0.4220623103102276 -1.7067090143609582
v 0.0210336720000000 0.2525669333333335 -0.0629452826666668
vn 0.1099127158027428 7.3166354375492464 -29.0937921049866191
v 0.0273931333333333 0.2535617999999999 -0.0626824333333333
vn 0.4734662817306972 6.5234599748737390 -23.0913179653712284
v 0.0437867083333333 0.2536517083333334 -0.0624844166666667
vn 8.6482364639010463 243.7647760133801000 -916.9859763540899849
v 0.0381337945205479 0.2523532118018962 -0.0629207112750264
vn -0.3778342589762860 82.8629297601814017 -341.0520632306647144
v 0.0027822393162393 0.2516326923076920 -0.0631685185185185
vn 2.1156584212395777 70.8855318100765857 -270.8546313547489035
v 0.0358751750000001 0.2523681285714282 -0.0629370500000000
vn 1.4994567653536091 79.8114775664149647 -316.0444045740297838
v 0.0294409938650307 0.2530312852760733 -0.0628073803680981
vn -0.0010747777912035 0.4452385711271687 -1.8257503273188749
v 0.0043446173469388 0.2515318545918355 -0.0631938635204082
vn 1.4980940291514249 76.3418950206742011 -293.1979107386343344
v 0.0359640264026403 0.2515331023102315 -0.0631549273927391
vn -0.0002731772303488 0.1323398528944594 -0.5416339925843077
v 0.0099502719298246 0.2530707061403509 -0.0628215241228070
vn -0.0029597080429577 1.4895643976291022 -6.1040647527213938
v 0.0039491970588235 0.2524698705882354 -0.0629648205882354
vn 2.5108256981514900 91.5875575925662133 -356.3829745173165406
v 0.0330227119565218 0.2530163206521741 -0.0627902880434783
vn 0.3320043301287633 15.6456565519113884 -61.0216569287222868
v 0.0323230000000000 0.2524502539682540 -0.0629404444444445
vn -0.9313872132251027 187.1453343091453405 -763.3017950000934206
v 0.0080642506361323 0.2515849109414761 -0.0631830000000002
vn -0.3078713908999383 35.0998433306945898 -140.6749782479638498
v -0.0217488344827586 0.2517199448275863 -0.0631361862068966
vn 0.0198193648414002 0.3898572070634115 -1.4025865984814405
v 0.0441350000000000 0.2513370000000000 -0.0631288750000000
vn 0.0003580731288722 0.9699803525351240 -3.9756878756866847
v -0.0041104522821577 0.2524482842323654 -0.0629691473029047
vn -0.1134654795560759 30.2377055502323984 -123.3427994243894688
v 0.0029376929133858 0.2530227401574802 -0.0628295905511811
vn -0.0377809730851947 0.6912927764503767 -2.7531026871673498
v -0.0231930000000000 0.2637950000000000 -0.0601100000000000
vn -0.0211874485579430 0.4097805228330391 -1.6497998915498751
v -0.0205557142857143 0.2652675714285714 -0.0597741428571429
vn -0.0589351106370162 0.9341526689466240 -3.6488858266349569
v -0.0278794545454546 0.2605079318181818 -0.0608725113636364
vn -0.0427179822319778 0.7189902685004721 -2.8039807548408673
v -0.0286513333333333 0.2595380238095238 -0.0611088571428572
vn -0.0359679364612918 0.7095689120861037 -2.7920434944641022
v -0.0269978019801980 0.2584966831683171 -0.0613978019801980
vn 0.0000529419244558 0.1875509552181683 -0.7684381695960987
v -0.0046996493055556 0.2530202326388888 -0.0628295937500000
vn 4.5197910776106731 161.1810827585245249 -608.9209540744375317
v 0.0378242571428571 0.2515289857142852 -0.0631421809523808
vn -0.0894562102414914 77.6928569659606296 -317.6186333501491958
v 0.0026436391437309 0.2524830519877679 -0.0629610733944955
vn -0.0261108285818245 0.7528055081389309 -3.0074191958020551
v -0.0232380000000000 0.2593690000000000 -0.0612190000000000
vn -0.0358275910186089 0.8135377765740870 -3.2211455789919907
v -0.0258268181818182 0.2584537727272727 -0.0614225909090909
vn -0.0683003657307217 0.9050348302953272 -3.5296482807480860
v -0.0279361925465839 0.2623226645962730 -0.0604071925465838
vn -0.0419397433187349 0.5107674032208561 -1.9825598464357317
v -0.0286126981132075 0.2636815094339623 -0.0600441132075472
vn 0.0001172265518520 0.3421525009455081 -1.4021705634433186
v -0.0002682222222222 0.2531770000000000 -0.0627910000000000
vn 0.0004787825793434 1.4889864929339018 -6.1042064657658237
v -0.0024910875634518 0.2524462017766502 -0.0629694771573604
vn 0.0342999787400684 0.8101713195879314 -2.9726155782023369
v 0.0416663000000000 0.2513451000000000 -0.0631555000000000
vn -0.0315128926562061 0.5704938624632934 -2.2282196259423599
v -0.0283500000000000 0.2588996000000000 -0.0612772000000000
vn -0.0513038610189501 0.7519945732703743 -2.9296765169876484
v -0.0288564742268041 0.2606192061855671 -0.0608273608247423
vn -0.0511424670160479 0.9543106506882963 -3.7429271629998118
v -0.0270973869047619 0.2595255178571431 -0.0611346607142857
vn -0.0561867121581204 0.8183183237815349 -3.2298525811502192
v -0.0257189024390244 0.2641529024390243 -0.0599808536585366
vn 0.0002186764334729 0.7721789871451725 -3.1649884526878607
v -0.0003314285714286 0.2522076095238093 -0.0630275523809523
vn 0.0002649509706522 0.7584376360127643 -3.1086390726368056
v -0.0025810604288499 0.2530325380116965 -0.0628264444444444
vn 0.0113815561136788 0.3086180743298360 -1.1481783375232151
v 0.0392498532818533 0.2514929884169879 -0.0631397027027027
vn -0.0222979648155004 0.6539467727725533 -2.6140148776139620
v -0.0232380000000000 0.2578940000000000 -0.0615880000000000
vn -0.0380620011000147 0.8251235457745854 -3.2558702420911438
v -0.0258956129032258 0.2593008387096774 -0.0612074516129032
vn -0.0554388605174129 0.7105738148260564 -2.7634177964338247
v -0.0289619401709402 0.2621855555555555 -0.0604221282051282
vn -0.0304333885329869 0.3953346952182507 -1.5473218591548978
v -0.0270034153846154 0.2640948730769230 -0.0599716615384615
vn -0.0026388415765200 1.2786644214744203 -5.2178373343575224
v -0.0122899345794392 0.2526992274143305 -0.0629073052959501
vn -0.0906817534322128 26.3217483623927997 -107.8180000401905119
v -0.0054074774774775 0.2529907027027029 -0.0628368648648648
vn -0.0231692877159532 0.8232776077715602 -3.3141610435179212
v -0.0203999178082192 0.2593261232876712 -0.0612517260273972
vn -0.0201997575255858 0.8584539683273427 -3.4757162476772234
v -0.0184107356321839 0.2607901264367817 -0.0609018735632184
vn -0.0095229607262793 0.4188500233145526 -1.6927470818970254
v -0.0190578690476190 0.2585876904761905 -0.0614427142857143
vn -0.0174944953985722 0.6938153065767880 -2.8101286488936301
v -0.0172222500000000 0.2621155238095239 -0.0605816904761905
vn -0.0071621366123593 0.4837967132445777 -1.9726092460642113
v -0.0137800923076923 0.2637348923076923 -0.0601999846153846
vn -0.0011095403384520 0.8292391575299348 -3.3879215673215528
v -0.0109716704119850 0.2526940898876403 -0.0629091048689140
vn 0.0271065937466538 93.1859984698892418 -382.7945293005173539
v -0.0086673807106599 0.2530199111675132 -0.0628298223350253
vn -0.0139147846644406 0.4925207019528263 -1.9926997090344494
v -0.0174998333333333 0.2634810000000000 -0.0602430000000000
vn -0.0223060577896157 0.8001928437559780 -3.2198472385493013
v -0.0204465733333333 0.2585196133333333 -0.0614517466666667
vn -0.0125077646492838 0.5406251579748985 -2.1859013493881072
v -0.0189144564102564 0.2597055794871798 -0.0611669128205129
vn -0.0097561571548286 0.7497450011312016 -3.0587755695585210
v -0.0137561046511628 0.2624370697674418 -0.0605183720930232
vn -0.0015576127107967 0.5796363465504799 -2.3618627130737408
v -0.0145306133333333 0.2525494533333333 -0.0629426373333334
vn -0.0027846455157767 0.1986148740541646 -0.7978151196342645
v -0.0212081084337350 0.2533354819277107 -0.0627359518072289
vn -0.0020051174557894 0.6906287573856487 -2.8232442058480638
v -0.0091750000000000 0.2578940000000000 -0.0616390000000000
vn -0.0035619452880622 0.7383671273026319 -3.0186608331832603
v -0.0092760000000000 0.2608450000000000 -0.0609180000000000
vn -0.0066900488237886 0.5194202702631351 -2.1251098692600636
v -0.0125999417177914 0.2643300337423307 -0.0600583067484663
vn -0.0114097026198431 1.4959928017075459 -6.1024793023039514
v -0.0110704285714286 0.2618015238095238 -0.0606811904761905
vn 1074.8987393215381871 466.9033115814702910 -676.8456911977598338
v -0.0160807143637356 0.2525200158383401 -0.0625827373020207
vn -0.9861446892348794 117.3038397467806675 -474.6905251360696525
v -0.0188647914110429 0.2530369795501021 -0.0628162801635992
vn -0.0022518312878692 0.7720145426192546 -3.1531819106865044
v -0.0092250000000000 0.2593690000000000 -0.0612780000000000
vn -0.0156814460615870 1.4860393494276909 -6.1048981014141228
v -0.0111351875000000 0.2643778124999999 -0.0600509375000000
vn -0.0127211120452765 1.1287481016745580 -4.6064343830085877
v -0.0126249609375000 0.2622588867187499 -0.0605655429687500
vn -0.0005127940112571 0.3052392756672045 -1.2470585750151399
v -0.0109629768518519 0.2530463124999995 -0.0628228958333334
vn -0.0302703547041205 160.1046169307496143 -652.6100226948785803
v -0.0085384062500000 0.2525504196428566 -0.0629444613095236
vn -0.0094140865225048 0.4284913742735774 -1.7372534991633728
v -0.0174304090909091 0.2598318181818181 -0.0611438181818182
vn -0.0395814318392213 0.5763151011254736 -2.2703361782711871
v -0.0258213333333333 0.2652693333333333 -0.0596956666666667
vn -0.0067112555677186 0.2253972943008173 -0.9108396460140515
v -0.0190433863636363 0.2639207765151517 -0.0601227992424242
vn -0.0035344038380619 0.5076382476889866 -2.0678583080805408
v -0.0136815000000000 0.2589370000000000 -0.0613770000000000
vn -0.0083483553226059 0.7606239320449744 -3.1030046115370671
v -0.0137392857142857 0.2608364642857143 -0.0609108928571429
vn 738.4567794706475752 1491.6622320741391832 -390.1894404499295774
v -0.0162459931372550 0.2530810475490201 -0.0624334769607843
vn -1.3660321582501795 117.3766778097224517 -475.6915991740609115
v -0.0186240387755102 0.2524914387755106 -0.0629515836734695
vn -0.0045949584025293 0.6774449948513984 -2.7739551646549119
v -0.0093760000000000 0.2637950000000000 -0.0601970000000000
vn -0.0078175377439516 1.5006631349974193 -6.1013352221191095
v -0.0110005000000000 0.2592760000000000 -0.0612990000000000
vn -0.0106707842473260 1.0946757014206130 -4.4718939315962114
v -0.0123767751937985 0.2608910000000000 -0.0609010542635659
vn -0.0051491980031319 0.6800061173930891 -2.7774665461119810
v -0.0124011988304094 0.2583649298245613 -0.0615196257309942
vn -0.0013624285521902 0.4784509448251248 -1.9493877845934977
v -0.0143085837988827 0.2530297709497208 -0.0628249050279330
vn -0.0065881691914502 0.4808312941777255 -1.9307371848569528
v -0.0217369209039548 0.2524020593220340 -0.0629664802259887
vn -0.0036053521112815 0.7303794940769143 -2.9835789694967847
v -0.0093260000000000 0.2623199999999999 -0.0605570000000000
vn -0.0007746536712983 0.3389898519609986 -1.3896533290443400
v -0.0036005000000000 0.2652671000000000 -0.0598426000000000
vn -0.0083670894604306 1.4906525942068609 -6.1037923122530033
v -0.0109845000000000 0.2586054545454545 -0.0614631363636364
vn -0.0109750405202248 1.4895700528367719 -6.1040535792966093
v -0.0110445000000000 0.2611210000000000 -0.0608475000000000
vn -0.0096795518866903 1.1249222917592852 -4.5913120179314459
v -0.0125271813471503 0.2597203056994821 -0.0611873575129533
vn -0.0007035889712235 0.2760019270276685 -1.1261291954681396
v -0.0121339818181818 0.2530606522727272 -0.0628188454545454
vn -0.2509525217835492 56.2590841912541251 -230.2033717435680842
v -0.0055445189873418 0.2526017848101268 -0.0629318860759493
vn -0.0424373679377804 0.7649043874030400 -3.0456613704041149
v -0.0231480000000000 0.2652710000000000 -0.0597400000000000
vn -0.0166381275888655 0.7332905810859832 -2.9721989102950275
v -0.0172901395348837 0.2608542558139533 -0.0608923953488372
vn -0.0194064019067556 0.3869684276352539 -1.5524138161907011
v -0.0204202857142857 0.2642202642857143 -0.0600360142857143
vn -0.0224692830071093 0.8330959962486014 -3.3706559346942946
v -0.0184333649289099 0.2622758246445496 -0.0605343554502369
vn -0.0064471407621334 0.7074730880415947 -2.8861442111699498
v -0.0137877142857143 0.2597453626373626 -0.0611783736263737
vn -0.0726497202210161 2.9839411404013321 -11.6228417623355238
v -0.0291564166666667 0.2523294166666667 -0.0629504166666667
vn -0.0087100689573517 0.6508943641544195 -2.6126438657166213
v -0.0224713207547170 0.2530269591194969 -0.0628083490566037
vn -0.0056328625057170 0.5236584054638820 -2.1425569206034663
v -0.0118915000000000 0.2652671000000000 -0.0598316000000000
vn 0.0007013617480603 1.0325015021900572 -4.2336997039006068
v -0.0026201000000000 0.2608494714285715 -0.0609202285714286
vn 0.0000142916336398 0.4344171498021505 -1.7817928540764589
v -0.0025485353535354 0.2584638181818182 -0.0615018181818182
vn -0.0016856887064993 0.8290335651254466 -3.3936730125777905
v -0.0035528813559322 0.2593437288135595 -0.0612868644067797
vn -0.0780621340556482 2.9705283661626147 -11.6262337107642750
v -0.0280053333333333 0.2523496666666666 -0.0629526666666667
vn -1.6391250409273550 89.3368340163330430 -356.9623409771460274
v -0.0247404375000000 0.2530325489130436 -0.0627974701086957
vn -0.0053036178604504 0.7459853894744046 -3.0502472764211177
v -0.0094270000000000 0.2652710000000000 -0.0598360000000000
vn -0.0013404710488864 0.7715952544279230 -3.1638713066850155
v -0.0036394512195122 0.2609455365853659 -0.0608964756097560
vn -0.0001671685077511 0.2953564960534580 -1.2104362211812389
v -0.0023282807881773 0.2597743152709356 -0.0611823054187192
vn -0.0010975131785797 0.7415912127957902 -3.0366636396499791
v -0.0036344081632653 0.2583565510204080 -0.0615279795918367
vn -0.0801042957975213 2.5004562083158479 -9.6819936241701559
v -0.0306270000000000 0.2534160000000000 -0.0626593000000000
vn -10.5825159729392784 210.0977376246628126 -773.8472510323764482
v -0.0378447955112219 0.2520669650872828 -0.0629337568578555
vn 0.0122184552015032 1.4077129857226010 -5.8324691037671572
v 0.0132786666666667 0.2652683333333333 -0.0598346666666667
vn -0.0008910580240580 0.7398987530867991 -3.0398244209342007
v 0.0042586666666667 0.2593076666666667 -0.0612976666666667
vn -0.2140862116907797 5.9103646293986021 -23.2583401271676919
v -0.0285861666666667 0.2536218333333333 -0.0626240000000000
vn -0.0086189054030599 0.6524803929901895 -2.6118085915039759
v -0.0231064324324324 0.2525128063063060 -0.0629344324324324
vn -0.0025351527071499 0.7431288004087050 -3.0512413073972597
v -0.0065580000000000 0.2652710000000000 -0.0598400000000000
vn -0.0010658803599258 0.4332148577563751 -1.7769698384292958
v -0.0037224099378882 0.2644379440993790 -0.0600447950310559
vn -0.0002512847609515 0.2881270577328201 -1.1813248622615471
v -0.0025365410958904 0.2625168561643835 -0.0605135684931507
vn -0.0006357281787674 0.4454833159113700 -1.8270020193089471
v 0.0021985000000000 0.2592803333333334 -0.0613032857142857
vn -10.9581927535413879 261.5824796534921575 -984.7264884333256987
v -0.0353307409224730 0.2522914887144256 -0.0629047909715407
vn -5.4826588221767301 128.1549194847918329 -487.3089547218824009
v -0.0336120992063492 0.2530549960317460 -0.0627227599206350
vn -0.0010719141786426 0.7523751072631233 -3.0895101399788789
v 0.0039602553191489 0.2585069787234043 -0.0614924680851064
vn -0.0061850524765360 0.3901732527643004 -1.5528630856688912
v -0.0248479976689977 0.2524483916083913 -0.0629436806526807
vn -0.0182941476728040 61.5825722923034959 -252.5993236441898944
v -0.0023363384615385 0.2640099346153847 -0.0601493769230770
vn -0.0014527902335219 0.8582642211891964 -3.5182078962042032
v -0.0036192871287129 0.2620362871287129 -0.0606304752475248
vn -0.0003643928298962 0.2953997809235293 -1.2109519103803563
v 0.0019381645021645 0.2584515497835502 -0.0615053809523810
vn -6.9771004452898957 103.2342729991067074 -372.8814024892513430
v -0.0399793824289406 0.2530298217054264 -0.0626360878552971
vn 0.0038332218239597 0.6833285415982094 -2.7883456626837857
v 0.0138569444444444 0.2609257777777778 -0.0608988333333333
vn 0.0021714673006246 0.5176523882571933 -2.1135883123662751
v 0.0126414671532847 0.2599135766423358 -0.0611484087591241
vn -4.2154450764302762 88.7417845638179301 -333.3364073786876816
v -0.0352955681159421 0.2530491536231882 -0.0627038347826087
vn -2.5035832674466234 73.5897901362116329 -282.5060000460317156
v -0.0333262671232877 0.2526597260273973 -0.0628296232876712
vn -0.0001343660954451 0.7519656177066492 -3.0836977003249215
v 0.0083125000000000 0.2593098571428571 -0.0612977857142857
vn 0.0003966824522420 0.6676134479447924 -2.7308575019523040
v 0.0106616790123457 0.2582839135802469 -0.0615481234567901
vn -0.1771103380064990 6.7423965363795526 -26.1438095245697966
v -0.0306205555555556 0.2522469999999999 -0.0629612222222222
vn -6.2595535855409530 107.0147241077094264 -395.7051994673907416
v -0.0376302609756098 0.2530417219512200 -0.0626726487804878
vn 0.0008902986663161 0.8048825880787090 -3.2918382493813558
v 0.0107610517241379 0.2593882241379312 -0.0612781379310345
vn -0.0000262318206897 0.7626096915763396 -3.1257024346466666
v 0.0085251000000000 0.2584625666666667 -0.0615044333333333
vn -0.6152669919614002 7.8906168264851706 -27.8990285994237119
v -0.0418554482758621 0.2531230000000000 -0.0625730000000000
vn -44.1520470535585758 602.8949702333834466 -2091.8500348258330632
v -0.0437361524334251 0.2520442575757569 -0.0628415482093664
vn 0.0023146318768642 0.4577835269518596 -1.8679018047304430
v 0.0136919166666667 0.2600826666666666 -0.0611056666666667
vn 0.0045567734353679 0.7660600803263795 -3.1276553653652717
v 0.0127728363636364 0.2608108000000000 -0.0609285454545454
vn 0.0010484801944341 0.5217378844195028 -2.1318703936361234
v 0.0121169436619718 0.2586364084507042 -0.0614614647887324
vn 0.0175430856780064 0.6621035140774564 -2.6837009750078891
v 0.0186070000000000 0.2612999999999999 -0.0607930000000000
vn -10.9935455791338672 187.2726702357640249 -664.8925582682931008
v -0.0418410217076700 0.2516427395079588 -0.0629911114327062
vn -16.6135508766827016 211.7237261500929435 -734.7177358919741437
v -0.0436468091503268 0.2530536156862739 -0.0625524196078431
vn 0.0050319110422413 0.7454337041515104 -3.0396038607900389
v 0.0128370196078431 0.2618029803921569 -0.0606853725490196
vn 0.0039520853999409 0.4064972464252048 -1.6575552899763788
v 0.0137864571428571 0.2646467142857143 -0.0599857142857143
vn 0.0073953165852882 0.4824373812949129 -1.9584613103186248
v 0.0180568173076923 0.2583177115384614 -0.0615313846153846
vn -0.0116479666109391 0.0039522353018860 0.0009138838220586
v 0.0175056666666667 0.2592789999999999 -0.0612960000000000
vn 0.0114261259645966 0.1813213792884108 -1.2778740103238349
v 0.0047965039577836 0.1530204036939316 -0.1238703456464380
vn 3.8977859953015335 52.6025363343064143 -385.3913210402799905
v 0.0064242827763496 0.1512214138817480 -0.1241060899742929
vn 37.1811091182930156 7.7109882903419473 -525.5899865404301181
v 0.0227268671726755 0.1037400436432637 -0.1270119032258064
vn 0.1357587580159659 0.0272814689254735 -1.6127811732130477
v 0.0264775454545455 0.1066090000000000 -0.1266683636363637
vn 0.1070016280259863 0.0215459545096570 -1.2715087148941095
v 0.0250259240097009 0.1054475747776877 -0.1268102029102668
vn -0.5973254588919578 16.6238141388064129 -50.3208307362787224
v -0.0112175849056604 0.1989956603773586 -0.1137800377358490
vn 0.0092915286979829 0.7508007066917242 -2.0074712645905253
v 0.0043477500000000 0.2028363804347826 -0.1124955326086956
vn 0.0238425972159082 0.8366815697591232 -2.3040074541426101
v 0.0069900000000000 0.2012070000000000 -0.1130680000000000
vn 0.0139875149086375 0.8616199973917704 -2.3731412292777287
v 0.0096760000000000 0.2038500000000000 -0.1120840000000000
vn 0.6139649734893036 0.0010093219972369 -9.9811073604481102
v 0.0199441000000000 0.0969709000000000 -0.1272517000000000
vn -0.0423527912714112 0.8001673907754039 -2.2957934603657844
v -0.0135619000000000 0.2004902000000000 -0.1132427000000000
vn -3.2893082513485772 1.3350760035827136 -682.9550293837319259
v -0.0018573777452416 0.0952873879941437 -0.1278073060029276
vn -0.1465919586669961 1.1433402603458187 -226.9941940236374194
v -0.0006808810572687 0.0968925022026431 -0.1278048281938326
vn -1.6718092237595477 3.1355506992116586 -130.9459434158629847
v -0.0062009541984733 0.1055330458015267 -0.1276350076335877
vn -13.6614358551258803 7.9962420464990851 -410.6790845438841870
v -0.0125836909975669 0.1040060924574207 -0.1275214087591243
vn -2.4441607949808248 3.3622934463086254 -654.9591048857173519
v -0.0017974748091603 0.0968860381679390 -0.1278020961832061
vn -0.4674299968282392 0.5062975261014621 -192.9929021516202283
v -0.0006994041450777 0.0954880466321244 -0.1278102746113989
vn -0.0178475812509487 0.0075194669091836 -1.2504342810010467
v -0.0051371388888889 0.0968990138888889 -0.1277752916666666
vn -8.4487987920261300 11.0738837593241826 -572.7022900708178668
v -0.0062759930191972 0.1036377818499127 -0.1276758813263528
vn -13.9283169739485793 9.6525651250811819 -432.6491398444902643
v -0.0128827898383372 0.1053228152424941 -0.1274840669745957
vn -2.6870679648276830 2.5041736795359437 -102.9316004950033090
v -0.0108080194174757 0.1065696504854368 -0.1275167766990292
vn 0.0120308718686205 0.0052047216386916 -1.5405664663424308
v 0.0023463847045191 0.0953927867902666 -0.1278049756662807
vn 0.0000000000000000 0.0000000000000000 0.0000000000000000
v -0.0041856226415094 0.0968586452830190 -0.1277859245283020
vn -0.0545148369191964 0.0468195831727150 -2.1090097353346415
v -0.0093661428571429 0.1042888571428571 -0.1276055714285714
vn -0.0247633969208288 0.0213767162679588 -0.9610605328906712
v -0.0102216950998185 0.1059147949183301 -0.1275473611615248
vn 0.0123261401174460 0.0050435020770431 -1.6350147754385662
v 0.0024191230551627 0.0968414370579915 -0.1277995134370581
vn -5.5047569500096092 0.6214430262179232 -543.9435708712837823
v -0.0042808639705882 0.0953476250000001 -0.1277898713235295
vn -0.0556708724330242 0.0498728140471862 -2.2112839988721040
v -0.0092911818181818 0.1050700000000000 -0.1275898409090909
vn -0.0260566413338354 0.0220260137494210 -0.9982044178134648
v -0.0105009654427646 0.1037486652267820 -0.1275878682505400
vn -0.0107117240500808 0.0248665022591158 -0.9996333908154890
v -0.0063530000000000 0.1065450000000000 -0.1276080000000000
vn 7.9704949317587941 18.3927885680534864 -864.6833318049414174
v 0.0040562323699422 0.1038118289017341 -0.1276979537572262
vn 12.6439099564834123 0.1286840686685450 -221.6334056536529715
v 0.0186619684684685 0.0967361216216215 -0.1273278918918921
vn 0.0385552687882023 -0.0002834374822866 -1.0194377375586783
v 0.0117715572755418 0.0953539938080496 -0.1276350371517029
vn 0.0332007378530858 0.0484038063354905 -2.0517410483152179
v 0.0075295833333333 0.1065532500000000 -0.1275887500000000
vn 0.0514750177727653 0.0344646892512341 -1.6760543046596879
v 0.0113452906976744 0.1051998139534884 -0.1275350232558139
vn 6.8863002379215681 18.4061033770674634 -762.6907648269497031
v 0.0038753551769332 0.1052529108781129 -0.1276675858453472
vn 29.5036190248106358 -1.4702490118334621 -495.0684538813994209
v 0.0188095201612903 0.0953360826612902 -0.1273180383064518
vn 0.0809043436504218 -0.0014332962091798 -2.1280702691079987
v 0.0126755555555556 0.0967937083333333 -0.1276016388888889
vn 0.0370566433873101 0.0540294205459373 -2.2911477494543178
v 0.0067262111111111 0.1065746777777777 -0.1276012444444445
vn 0.0519112254191919 0.0342344240864570 -1.6766577006157504
v 0.0113564397394137 0.1035042247557004 -0.1275695472312704
vn -0.9799625092227643 42.8941248091277814 -301.9605447686338948
v -0.0022730393442623 0.1533043114754098 -0.1238441934426228
vn -0.0110796778249192 0.1905616872967302 -1.3652252003445584
v -0.0034518774193548 0.1513112451612902 -0.1241175290322581
vn -0.8062851462439092 0.3215102788045864 -17.9790152076271710
v -0.0164530000000000 0.1036480000000000 -0.1273779444444444
vn -0.2096449240545434 0.0687090861527839 -3.6654305645840424
v -0.0195650000000000 0.1054557500000000 -0.1271837500000000
vn -0.0892610662152707 0.0335906425510698 -1.5666828842718741
v -0.0199340000000000 0.1066090000000000 -0.1271380000000000
vn -1.0617778383532648 38.5112316424205119 -284.3946126156689047
v -0.0021164738675958 0.1506175226480836 -0.1242174146341463
vn -0.0201787943424454 0.3178648491553600 -2.2915914947068989
v -0.0037609770114942 0.1526610919540228 -0.1239280459770114
vn -17.9636374761460083 8.6748970704775807 -464.5424604749531454
v -0.0144534107526882 0.1037704623655914 -0.1274600430107527
vn -0.1979464756875073 0.0654140860359950 -3.4560820092651046
v -0.0199340000000000 0.1054618571428571 -0.1271625000000000
vn -0.0892992691243790 0.0336749310993378 -1.5691157289003124
v -0.0195650000000000 0.1066090000000000 -0.1271590000000000
vn 0.3628388188071465 0.0236894070681999 -24.9967586399075117
v 0.0059110000000000 0.0941042400000000 -0.1277706000000000
vn 4.3699612367325820 0.3487228909774059 -315.9359172089517642
v 0.0053514303797468 0.0949577626582279 -0.1277783449367082
vn 9.9025394304760344 1.2626506584155730 -343.8429002928904765
v 0.0108182558139535 0.0967908197674418 -0.1276609127906977
vn 0.2370603847584664 0.1151564614222018 -4.9930492607905128
v 0.0173422000000000 0.1066090000000000 -0.1272750000000000
vn 2.1999021301554547 0.8433482823960946 -40.9320451016056737
v 0.0187826829268293 0.1054225609756098 -0.1272277804878049
vn 0.0478422061919390 0.0313295766361934 -1.5394694001964977
v 0.0122773195266272 0.1034108081149623 -0.1275428300929839
vn 0.0984879429911643 2.8321737297275398 -20.8078439124633157
v 0.0021226190476190 0.1509842857142857 -0.1241677142857143
vn -0.4163436192937713 28.9797123835501047 -206.9749138673007849
v -0.0006643732057416 0.1527412344497606 -0.1239277511961723
vn -0.0463650200396095 0.0136067781228804 -0.8118178314416656
v -0.0182201953818828 0.1031623499111901 -0.1272989946714033
vn 0.2147018389999589 8.0009299894375925 -56.4350515213810340
v 0.0020315789473684 0.1530555438596491 -0.1238800701754386
vn -0.4104766136023468 25.0263462112683719 -182.2819677264299969
v -0.0007336086956522 0.1511449728260870 -0.1241491739130435
vn -0.0207519964594292 0.3189098597490068 -2.2721361083456513
v -0.0049168750000000 0.1540601250000000 -0.1237211250000000
vn -18.8391812637295004 10.8022449350716911 -495.5020495428769323
v -0.0144194717741935 0.1052997338709678 -0.1274303004032261
vn -0.0842448608385206 0.0247320035845874 -1.4744597649035462
v -0.0205205483870968 0.1036917741935484 -0.1271587419354839
vn -0.0041115773474542 0.0631853690697808 -0.4501766069433746
v -0.0065066213592233 0.1541187038834952 -0.1236983834951457
vn -0.1330926986151080 0.0276821121495815 -1.5633955664001191
v -0.0261680000000000 0.1066090000000000 -0.1266950000000000
vn -37.0909019964002766 6.8964346621279136 -519.5180848458444416
v -0.0228864203454894 0.1036258119001917 -0.1270025278310940
vn -18.3066948244890533 -0.0608967395899499 -449.6009271175971094
v -0.0144052177777778 0.0953522600000000 -0.1275381022222219
vn -0.0059777272591957 0.1070286397156837 -0.7637115671787844
v -0.0068195971896956 0.1530453793911009 -0.1238481428571429
vn -0.1815140211126840 0.0377468115555729 -2.1532650945837295
v -0.0259477500000000 0.1066090000000000 -0.1267137500000000
vn -16.3349421400994288 1.2013384520197674 -404.6520089826413482
v -0.0143268345679012 0.0968255703703705 -0.1275395506172840
vn -7.8193683437147703 2.0824882876928177 -110.7026525459111781
v -0.0228452252252253 0.1055546846846846 -0.1269732432432432
vn -0.0154591634613647 0.3102460441741464 -2.1904257523057309
v -0.0053760000000000 0.1512508750000000 -0.1241125000000000
vn -0.1443275333681321 0.0257054486249420 -1.7287163736227680
v -0.0261680000000000 0.1039609333333334 -0.1267372000000000
vn -0.2177192449368140 0.0406419505668570 -2.6143058428946113
v -0.0251061129032258 0.1053462717121588 -0.1268052555831268
vn -0.0722739945770885 0.0198445249123561 -0.9971873768449306
v -0.0229550000000000 0.1065450000000000 -0.1269460000000000
vn -50.6945745095052018 2.4540995166400190 -998.6348429808499532
v -0.0170213520000000 0.0968678689999998 -0.1274163270000004
vn -2.3754663868019792 -0.0656735019619025 -39.9292260826886363
v -0.0189169250000000 0.0955338500000001 -0.1273127500000000
vn 0.0346923845426097 -0.0534295769542291 -2.9701148189886704
v 0.0051385000000000 0.0969629473684211 -0.1277752368421053
vn 12.9746652514602552 0.3230009970984919 -474.7912446934560080
v 0.0104770694736842 0.0953324905263157 -0.1276739031578951
vn 54.0876860823805501 13.6394669373110577 -968.0288290508773343
v 0.0192012048401037 0.1027879455488331 -0.1272509541918761
vn 0.0427545981880958 0.0284179196773411 -1.3866949186581454
v 0.0124115037257824 0.1053201475409836 -0.1274998032786885
vn 0.0495770862714153 -0.0019724905152553 -1.0370990871108834
v 0.0173958525345622 0.0953829400921659 -0.1273968110599078
vn 0.0622291801218337 -0.0001011955083947 -1.6501217847168232
v 0.0146448864353312 0.0967894164037854 -0.1275267665615142
vn 0.0175645046863167 0.0256102082013598 -1.0861947814494053
v 0.0062001639344262 0.1060075382513658 -0.1276231229508198
vn 3.8107379088112667 4.0848078614903729 -203.9192726179767874
v 0.0078199705882353 0.1039111911764706 -0.1276448921568628
vn 0.0691033938173798 -0.0027493707098984 -1.4455683468753893
v 0.0165416341463415 0.0967618048780488 -0.1274402682926829
vn 0.0870036863833297 -0.0009816236631198 -2.1364055798646051
v 0.0147599002849003 0.0953230113960113 -0.1275227051282053
vn 5.3182786462296310 7.5858054568767788 -373.8698760562489838
v 0.0061205267379679 0.1037620454545456 -0.1276753208556150
vn 0.0137746853032478 0.0200833286598556 -0.8515337630404964
v 0.0080402783505155 0.1055106572164947 -0.1276050824742266
vn -0.2606093002282845 0.0507207123730447 -3.1305936510206256
v -0.0261680000000000 0.1055682142857143 -0.1267134285714286
vn -0.1111763296683664 0.0198506450980869 -1.3306307180405184
v -0.0249937926045016 0.1037672620578778 -0.1268381961414791
vn -37.7907637664043889 0.3562575868468930 -671.8698611021055740
v -0.0184863402674591 0.0969608335809806 -0.1273378216939080
vn -3.9798789491361797 -0.0943441883121223 -77.8977880448571653
v -0.0168894358974359 0.0955646282051282 -0.1274231794871795
vn -0.0281669755314604 0.0051809003770394 -1.7983101295866550
v -0.0053040208333333 0.0954978263888888 -0.1277783124999998
vn -17.4612050245767598 2.8310701346841110 -614.7015680133901014
v -0.0108607284552845 0.0969039691056911 -0.1276592243902441
vn -0.5738681443488693 9.8770647888799932 -463.8671931905644783
v -0.0004386185344828 0.1037217995689655 -0.1277174655172412
vn -0.0114685236564130 0.0381917416509223 -1.7425727052056268
v -0.0020205816135084 0.1051368836772982 -0.1276818255159474
vn -0.9341772794270917 0.0400611701426347 -44.9892149872504348
v -0.0079428000000000 0.0950556888888889 -0.1277348222222222
vn -0.0511740949180388 0.0126234586800074 -3.2921637658568867
v -0.0052568333333333 0.0963308333333333 -0.1277770000000000
vn -17.5887764529628932 0.2174257617949438 -601.7121376304287423
v -0.0107077425249169 0.0953009235880400 -0.1276672408637876
vn -0.4256872587658879 13.4597118670417935 -548.8052234389115256
v -0.0004814171220401 0.1054429963570128 -0.1276788579234974
vn -0.0098972028928161 0.0331555276199723 -1.5099127990304446
v -0.0018910717299578 0.1038968037974683 -0.1277098565400845
vn 0.0088986569393317 0.0826749906617030 -2.9988473885517690
v 0.0013616666666667 0.1066090000000000 -0.1276473333333333
vn -0.0768844317953825 0.0156797901811963 -3.9992153540911710
v -0.0074760000000000 0.0971750000000000 -0.1277382500000000
vn -0.0097824080260641 0.0330598433537058 -1.5013569170829517
v -0.0040936660958904 0.1038005308219180 -0.1276976249999999
vn 0.0059947490190463 0.4632690743629927 -17.9940321057656334
v -0.0000728333333333 0.1065381111111111 -0.1276518333333333
vn 3.6662051470943431 15.5453235269264045 -683.7527883295449556
v 0.0028129941520468 0.1050648070175437 -0.1276797616959065
vn -0.0323015983561863 0.0080800277294839 -2.1164643588451582
v -0.0060532034632035 0.0967953722943721 -0.1277628398268399
vn -18.2586428767119600 0.0320558077459477 -525.6552297560197076
v -0.0125905551330799 0.0954373517110265 -0.1276067718631180
vn -0.0099867671312582 0.0335883103693420 -1.5276926331153666
v -0.0040560416666667 0.1052755881410252 -0.1276653894230772
vn 3.6898697730855572 9.5571397386577175 -483.7959441901174387
v 0.0027921301652893 0.1037756983471076 -0.1277082148760331
vn -0.0148303891783787 0.0029588704863932 -0.9662157338106743
v -0.0067707387944359 0.0952442364760433 -0.1277565765069556
vn -18.3245035813945663 2.0056051575097547 -530.6483850723510614
v -0.0126466911487759 0.0968031977401128 -0.1276022561205273
vn 0.1243227349310982 0.0247543702606081 -1.4750491336672396
v 0.0265852823529411 0.1054495470588235 -0.1266787411764704
vn 0.1596853974207886 0.0325539935838329 -1.9008259781694090
v 0.0253592173913043 0.1065599782608695 -0.1267631521739131
vn 18.5206474114326696 4.1467166651229048 -280.3404484045856293
v 0.0215797081850534 0.1038098220640570 -0.1270895800711744
vn -4.7201073783691383 111.5351076683324294 -339.0834561903021154
v -0.0123621596638655 0.1987267787114841 -0.1138530700280112
vn 0.0091224590261949 0.5171732645125313 -1.3917418960014971
v 0.0056599166666667 0.2026108750000000 -0.1125719583333333
vn 0.0096887364926415 0.4102458760746371 -1.1154093342640690
v 0.0084118333333333 0.2040706666666667 -0.1120113333333334
vn 5.5499281584440023 0.6703962849012074 -62.7476027297899890
v 0.0265700952380952 0.1038315238095238 -0.1267034603174603
vn 20.8370905420735753 5.7580789406101829 -320.2509026929352558
v 0.0214972523364486 0.1051442242990654 -0.1270718130841122
vn 0.0069739589360982 0.6098729651106604 -1.6295765278077115
v 0.0054179767441860 0.2043345581395349 -0.1119302558139534
vn 0.0193108971352376 0.7012633727906910 -1.9091792628993605
v 0.0087945769230769 0.2023046153846154 -0.1126609615384615
vn 0.0338585244409713 0.8887106446259897 -2.5428399318207160
v 0.0110167500000000 0.2010555000000000 -0.1130820000000000
vn 42.8103589164582417 11.6327586715647637 -612.2690394728924730
v 0.0227822084690554 0.1052570374592834 -0.1269829267100978
vn 39.6562152081562758 6.2666506802630639 -484.3120364029661005
v 0.0249453271604938 0.1038266769547325 -0.1268416790123457
vn 0.3436015996820118 0.1287871655122732 -5.9887293286585193
v 0.0202061666666667 0.1066090000000000 -0.1271221666666667
vn 0.0033610893573288 0.4000973628534469 -1.0667589437349325
v 0.0036556908517350 0.2043997444794950 -0.1119113596214511
vn 0.0202539585662994 0.6804316877750272 -1.9080297555937329
v 0.0079663333333333 0.2010637500000000 -0.1131099166666667
vn 0.0074430128129180 0.3081560817529046 -0.8370467797433103
v 0.0110745576923077 0.2024978269230769 -0.1125666923076924
vn 0.0136457947963582 0.0036386597419533 -1.8459384695622845
v 0.0036926880000000 0.0968593680000000 -0.1277902613333334
vn 0.0011897562246254 -0.0018323379207998 -0.1018584522318913
v 0.0061150079744817 0.0968656985645934 -0.1277620813397127
vn 0.3613729342033611 0.0000000000000000 -17.9963721233593397
v 0.0082000000000000 0.0951530000000000 -0.1277300000000000
vn 27.5427786640321486 15.2457650543683574 -689.2507209324917312
v 0.0147935565217392 0.1053979956521739 -0.1274138101449276
vn 2.9611708400371879 1.1646362835492488 -63.9199121736084521
v 0.0163772031250000 0.1038345000000000 -0.1273772500000000
vn 0.0100356749631274 0.0041105869675867 -1.3303550249464600
v 0.0040287931638913 0.0953590955302366 -0.1277919509202450
vn 13.1545903804979538 0.4042621201572389 -845.8476810564901598
v 0.0062534503546099 0.0950078770685577 -0.1277649574468079
vn 0.0270171046016941 0.0020495734525421 -0.9996328702616796
v 0.0093670000000000 0.0972470000000000 -0.1276980000000000
vn 1.5168091179629664 0.7215360371241891 -38.9634401937216737
v 0.0143670512820513 0.1038140000000000 -0.1274629487179487
vn 9.9467587037203327 4.6733962290552711 -221.7222158819958509
v 0.0161247297297297 0.1051174189189188 -0.1273636981981982
vn 0.2666133288451391 0.1151357406790897 -4.9915589282761186
v 0.0187742000000000 0.1066090000000000 -0.1272030000000000
vn 0.0109386331234045 0.1726019647883064 -1.2157019295522966
v 0.0064512534246575 0.1530606095890410 -0.1238498447488585
vn 1.8885000174363840 32.2466318517221495 -235.7875023235723120
v 0.0049109033613445 0.1513525084033613 -0.1241024411764704
vn 0.0169908707730125 0.2665691368034883 -1.8764186256936941
v 0.0060698473684211 0.1540386315789475 -0.1237143578947368
vn 0.0166183262733816 0.2626882832546953 -1.8505581318443380
v 0.0050525405405405 0.1539954594594594 -0.1237297027027027
vn -0.4562441541662794 8.2878245725092530 -25.6921409491679391
v -0.0154407407407407 0.1981099259259259 -0.1140018888888889
vn -0.0142918291822864 0.3183641050369164 -0.9208989014539835
v -0.0138734516129032 0.2003896129032258 -0.1132720107526882
vn -0.0377952103882596 0.6382794682002966 -1.8950377455234604
v -0.0156960000000000 0.1999500000000000 -0.1133900000000000
vn -0.0199631386784061 0.3093815464423680 -0.9507284216930908
v -0.0178360000000000 0.1982310000000000 -0.1139140000000000
vn -0.3428617212598178 5.2183808389443405 -16.1755950487671925
v -0.0168260588235294 0.1980774705882353 -0.1139852352941176
vn -0.1131223577524089 1.7914521289290739 -5.7251981570379407
v -0.0148346666666667 0.1968720000000000 -0.1144070000000000
vn 0.0046484724842753 0.0618029612636281 -0.1908391346098559
v 0.0148841666666667 0.1981214166666666 -0.1140074166666666
vn -0.0040777779290582 0.2658933423354221 -0.7369897893821320
v -0.0039684913793103 0.2024686810344829 -0.1126304568965517
vn -0.0031335559649953 0.4483917244768719 -1.1917591340742406
v 0.0024140729166667 0.2041013020833334 -0.1120295451388889
vn 0.0123540792158734 0.4097027912581249 -1.1551671113404536
v 0.0084585000000000 0.2007780000000000 -0.1132060000000000
vn 0.0519754424396736 0.9492655133984327 -2.8453737799560801
v 0.0150576666666667 0.1994233333333333 -0.1135786666666667
vn -0.0290596161076240 0.6577022058126437 -1.8965391489445276
v -0.0087819090909091 0.2010454545454546 -0.1131093636363636
vn -0.0045897696376428 0.3478028379702606 -0.9665317078008743
v -0.0061798421052632 0.2023935263157895 -0.1126470000000000
vn 0.0111425104771015 0.1972581371773521 -0.5956701282547724
v 0.0165897692307692 0.1984030769230769 -0.1138836923076923
vn -0.3110088559590822 28.5990502502010742 -74.7116450537952090
v -0.0039982250000000 0.2043687750000000 -0.1119228750000000
vn -0.0158566452482546 0.9547506227024883 -2.5074687011857093
v 0.0014627980769231 0.2029188846153848 -0.1124737500000001
vn 0.0223260830999671 0.3952432059020059 -1.1935354075649578
v 0.0169528333333333 0.1999403333333333 -0.1133678333333333
vn -0.0779729492567861 6.4714218484992374 -16.7962277957205472
v -0.0055848333333333 0.2044928888888889 -0.1118696666666667
vn -0.0240803680025988 0.8777573573640143 -2.5537232518909430
v -0.0124849217687075 0.2015830476190472 -0.1128777619047618
vn -0.0289178162370028 0.7701328061639551 -2.1547297766422386
v -0.0112262209302326 0.2010583139534885 -0.1130786511627907
vn 0.0495012049266509 0.9672884990989019 -2.8393464524890257
v 0.0158306666666667 0.2007003333333333 -0.1131313333333333
vn -1.8900230284262536 51.7440683393509175 -152.4427405962334205
v -0.0109034161490683 0.1999281863354038 -0.1134707080745341
vn 0.0558991195538131 0.7431970678845172 -2.2948914158767528
v 0.0154210000000000 0.1971220000000000 -0.1143180000000000
vn -0.0272599507673986 0.8745378388994780 -2.3773064706635898
v -0.0051000000000000 0.2013310000000000 -0.1130360000000000
vn -0.2506038398524682 54.8101094572591094 -151.3743976832545854
v -0.0014968136645963 0.2023567950310561 -0.1126795341614905
vn 0.0229268649394853 0.5795648440249910 -1.6833413999184230
v 0.0110728205128205 0.2000536153846153 -0.1134261794871795
vn 0.1012601855184897 2.2051503730485456 -6.6428042293409577
v 0.0129095714285714 0.1990780000000000 -0.1137294285714286
vn -0.0020463089568059 0.4021840550996930 -1.0714523559597018
v 0.0000753665835411 0.2048941795511225 -0.1117274613466334
vn 0.0122335713096598 0.1626493297151599 -0.5022389978258475
v 0.0158550000000000 0.1969596666666667 -0.1143600000000000
vn -0.1542273879553248 64.7783958985552459 -167.9344093986333917
v -0.0013733222222222 0.2046396055555557 -0.1118255555555556
vn -0.0031467764793355 0.4165823190201562 -1.1064421047482411
v 0.0002875728155340 0.2023628834951456 -0.1126780226537217
vn 0.0223094377616097 0.3949485300797285 -1.1926455604470578
v 0.0178360000000000 0.1994400000000000 -0.1135170000000000
vn -1.7604102743908352 51.3929499474953033 -136.5907403705242302
v -0.0079384383561644 0.2037625205479453 -0.1121319246575343
vn -0.0124632169320830 0.3229136174113119 -0.9172864098882357
v -0.0103291739130435 0.2019519130434783 -0.1127713043478261
vn -0.0157587149287593 0.4255198101286747 -1.2238443295665893
v -0.0131623986928105 0.2011264313725490 -0.1130283202614379
vn -0.0115356144989627 0.2610839411392491 -0.7528573131657812
v -0.0088844852941176 0.2002535441176472 -0.1133824191176471
vn 0.0190375112497416 0.5250166001125567 -1.4740474695982528
v 0.0117267096774194 0.2026582580645161 -0.1125012795698924
vn 0.1278671276237259 2.9565678049689819 -8.4995158742767725
v 0.0138010000000000 0.2009333333333333 -0.1130863333333333
vn -0.3694525123529970 14.7201822493329093 -40.3970582453527314
v -0.0080340000000000 0.2025902558139536 -0.1125631162790698
vn -0.0119164561826556 0.6600415344657465 -1.8234208806920900
v -0.0054000000000000 0.2012700000000000 -0.1130550000000000
vn 0.0251642855633655 0.6513049000490392 -1.8932597277153280
v 0.0119989680000000 0.1999112880000001 -0.1134625680000001
vn -0.0200751062739428 0.9947267562089857 -2.8302145472107165
v -0.0066826666666667 0.2008790000000000 -0.1131843333333333
vn 0.0112784531715752 0.3258886807390813 -0.9159786797208538
v 0.0139859074074074 0.2017480277777779 -0.1127973055555556
vn 0.0429381338447966 1.1812666532592000 -3.3500418399300900
v 0.0127878000000000 0.2010264000000000 -0.1130688000000000
vn -0.0262234081468305 0.7261316933581043 -2.1190035328835326
v -0.0137223492063492 0.2009021746031745 -0.1130982380952381
vn -0.0165563354015039 0.7367193104228500 -2.9080831160971692
v -0.0274996666666667 0.2513380000000000 -0.0632123333333333
vn 0.0825895364812353 0.5853103817193448 -1.9732119070623670
v 0.0436731941923775 0.2601674664246825 -0.0606036170598912
vn 0.1014497909126999 0.8073101902299820 -2.7564193119991414
v 0.0432406481481481 0.2586578888888889 -0.0610650185185185
vn 0.0960455769951985 0.8449864920392838 -3.0273027230002216
v 0.0382150952380952 0.2617828095238096 -0.0603509523809524
vn 0.1391916019215965 0.8298090697276335 -2.8772550669247954
v 0.0396540000000000 0.2637950000000000 -0.0597230000000000
vn -0.0056782979520024 0.3855576085133089 -1.5377276088843241
v -0.0248417629969419 0.2515594694189611 -0.0631670565749236
vn 0.0898890556163413 0.5212663801580765 -1.7247113828338176
v 0.0438596401179941 0.2622053952802357 -0.0599847610619469
vn 0.0980560062210027 0.5351671771930278 -1.7960869376480371
v 0.0420641926977688 0.2641258965517244 -0.0595037951318459
vn 0.0966478056231424 0.8728471307436287 -3.1444340269511719
v 0.0382585111111111 0.2610254444444445 -0.0605603777777778
vn 0.0661237399026506 0.7713238470653385 -2.8234467676321859
v 0.0379920000000000 0.2578940000000000 -0.0614310000000000
vn -0.0035616416159730 0.2866427278261736 -1.1481459211825429
v -0.0227082832000000 0.2515450160000000 -0.0631772832000001
vn 0.1026516796981981 0.5396189994930344 -1.7715044410130676
v 0.0436322030456853 0.2638683857868022 -0.0594913756345178
vn 0.1015123628717749 0.8977035006762322 -3.2071273586901015
v 0.0389654215686274 0.2609682745098038 -0.0605538235294118
vn 0.1004958668635358 1.0921889180968671 -3.9613445437813959
v 0.0378780000000000 0.2593690000000000 -0.0610300000000000
vn 0.0775388485798760 0.7708040269489154 -2.7769923188675181
v 0.0396520000000000 0.2578940000000000 -0.0613910000000000
vn -0.0135627954112755 0.7414068099833938 -2.9069025144999294
v -0.0296663333333333 0.2513380000000000 -0.0632013333333333
vn 0.1047078463954800 0.8931759328762536 -3.1357322567561927
v 0.0420417173913044 0.2585007043478258 -0.0611509739130435
vn 0.1429094260478753 1.1373744654656417 -3.9331690732779938
v 0.0421355457627119 0.2593996813559322 -0.0608894305084746
vn 0.0466634665997085 0.3745100116520027 -1.3310847401087584
v 0.0391010841121495 0.2618020420560748 -0.0603144813084113
vn 0.1243537017199037 0.8513296021420278 -3.0197034842364996
v 0.0380410000000000 0.2637950000000000 -0.0597920000000000
vn 0.0644466670851551 0.5231814600937734 -1.7721208178344767
v 0.0438505000000000 0.2589080000000000 -0.0609690000000000
vn -3.9707818318703207 104.8888314907538870 -394.2342561587353771
v -0.0353566200980392 0.2514673357843139 -0.0631236225490196
vn 0.0228042652958190 0.3215456113709239 -1.2109983673642639
v 0.0336552466960352 0.2595341894273132 -0.0610802775330396
vn 0.0640528126896429 0.8722301423359000 -3.2747000202933449
v 0.0347161176470588 0.2585775294117649 -0.0613143137254902
vn 0.0819121927427602 0.8737056191571375 -3.2584017815955963
v 0.0345996785714286 0.2608824642857143 -0.0607013214285714
vn -2.1698732830338301 50.7833522844762797 -188.2388054936195942
v -0.0377117435897436 0.2514170871794869 -0.0631115179487179
vn 0.0285483763134008 0.4243223835136047 -1.6050770222606907
v 0.0337886324324324 0.2585455891891894 -0.0613392540540540
vn 0.0664094426751048 0.8674608855313324 -3.2384880721819558
v 0.0348130652173913 0.2593157826086957 -0.0611152826086956
vn 0.0220281638631316 0.2675655701832425 -1.0053606144674392
v 0.0334052482100239 0.2605562959427205 -0.0608142983293556
vn -0.0263643209638462 1.2468666314434409 -4.8419225182475998
v -0.0306548000000000 0.2513370000000000 -0.0631954000000000
vn 0.0431112723708073 0.5040070246746766 -1.8848178043197685
v 0.0336768847736625 0.2615845534979420 -0.0605346872427983
vn 0.0946589669294796 0.7506927980899052 -2.7286178248082775
v 0.0354166250000000 0.2637950000000000 -0.0598877500000000
vn -0.0046572777343756 -0.0011258959710341 -0.0003483056301845
v 0.0288430869565217 0.2595026086956523 -0.0611630434782609
vn -0.0265544519665751 0.7596885569428308 -2.9020878040216820
v -0.0331650000000000 0.2513380000000000 -0.0631776666666667
vn 0.1066952172802900 2.1950891040004916 -8.7275313018124443
v 0.0232383333333333 0.2652656666666667 -0.0597673333333333
vn 0.0779323343001254 0.7908795384562263 -2.9334910661014231
v 0.0347290952380952 0.2617121809523811 -0.0604747809523809
vn 0.0501753522814075 0.4039967302387361 -1.4930781823595127
v 0.0329221092636579 0.2645608812351545 -0.0597577387173397
vn 0.0091783985579869 0.2298992473945381 -0.9016536047713785
v 0.0289437565543071 0.2583893970037454 -0.0614467378277154
vn -1.9610143766988233 185.1159320367850114 -747.3375047323054332
v -0.0188609181818182 0.2515663363636370 -0.0631798324675327
vn 0.1077847989552548 0.5938748687398185 -1.9965918835500456
v 0.0413730000000000 0.2652693333333333 -0.0592010000000000
vn 0.1016409780009496 0.5810390552845948 -1.9041259342233878
v 0.0449883750000000 0.2616511875000000 -0.0600936250000000
vn -0.5647647641619268 160.6565776139890147 -654.5126695829711707
v -0.0166481231454006 0.2515915489614242 -0.0631762314540059
vn 0.1475179911478935 0.8751594739407434 -3.0148595921183152
v 0.0391780000000000 0.2652710000000000 -0.0593190000000000
vn 0.1066061095999355 0.6486392097144849 -2.1521503255576233
v 0.0449650000000000 0.2610740000000000 -0.0602710000000000
vn -0.0010289518559631 0.4367985384466582 -1.7803999836915034
v -0.0142413891336270 0.2516000895741565 -0.0631758370044052
vn 0.1281918108669750 0.8587485108221040 -3.0209589605001352
v 0.0376830000000000 0.2652710000000000 -0.0593890000000000
vn 0.1066507321449883 0.8347014808662301 -3.0277551890280745
v 0.0353331428571429 0.2652710000000000 -0.0594845714285714
vn 0.0720350456847999 1.5528225474908659 -6.0878540820598070
v 0.0279047272727273 0.2597254545454545 -0.0611172727272727
vn 0.0046488488274238 0.2205241148897310 -0.8838562185042793
v 0.0212196724137931 0.2638103060344826 -0.0601529310344828
vn 0.0633042037073509 0.4922430086264025 -1.8383590557319649
v 0.0331688750000000 0.2652695000000000 -0.0595595000000000
vn 0.0248883064020192 0.5804967788021864 -2.2773605237275003
v 0.0281080000000000 0.2585443461538461 -0.0614160769230769
vn 2.6160919151093065 60.8921831875684845 -242.4554554654287415
v 0.0229234680000000 0.2642491520000000 -0.0600267280000000
vn 0.0130430497486181 0.5814239099064152 -2.3357151132599361
v 0.0213411173553719 0.2628436132231395 -0.0603934842975206
vn 0.0093928752604415 1.4895049029342258 -6.1040563639609804
v 0.0052460000000000 0.2522470000000000 -0.0630200000000000
vn 0.0078865086219022 0.3900931391534009 -1.5141499465606352
v 0.0330238069908815 0.2515426671732519 -0.0631696550151976
vn 0.4216468299080914 142.2490243559624332 -581.7603727155608340
v 0.0081820834724541 0.2530337011686150 -0.0628295225375624
vn -0.0446062608725125 0.3337755692831594 -1.2537725881457142
v -0.0329506520618557 0.2645716649484541 -0.0596916778350515
vn -0.0471158267275210 0.4193001319993553 -1.5144892006277422
v -0.0383403400000000 0.2583648150000001 -0.0611991800000000
vn 0.0349241675843241 0.0010712697593136 -0.0011278556847134
v -0.0382292400000000 0.2596656800000000 -0.0608424800000000
vn -0.2137507630057203 0.8959459129888566 -3.0038702052357937
v -0.0430380000000000 0.2652710000000000 -0.0589780000000000
vn 0.0017379906362062 0.3829556610134421 -1.5464315330444802
v 0.0226737961595273 0.2516119350073854 -0.0631799335302807
vn -0.0008754062422822 0.4535257609633478 -1.8495499191206328
v 0.0161581521739130 0.2521268260869566 -0.0630548695652174
vn 0.0593481129669855 183.9582534373562908 -749.6560578131403645
v 0.0143997253886010 0.2530517940414506 -0.0628280595854923
vn -0.0528573429519163 0.4331812822162003 -1.5597030616263692
v -0.0390816781115880 0.2583742231759657 -0.0611730944206008
vn -1.9294311526448973 1.4902910926195543 -5.5007388330993434
v -0.0391220483870968 0.2599329516129031 -0.0607364516129032
vn -0.1405765325297771 0.5731657196182607 -1.8908127556785992
v -0.0445371235955056 0.2644806544943820 -0.0591070561797752
vn -0.0762896028257390 0.5545751303148798 -2.0682040663259134
v -0.0334070000000000 0.2652698571428571 -0.0594895714285714
vn -0.0012932013839549 0.6232055467091757 -2.5505097821674547
v 0.0105997120535714 0.2526523370535707 -0.0629240736607142
vn 1.7312016830192791 163.3096523078955329 -647.6694164783591532
v 0.0295081197604790 0.2515907874251507 -0.0631717440119761
vn -0.0004160485239224 0.2703572704282410 -1.1078210829592692
v 0.0035933745819398 0.2530359230769228 -0.0628265451505016
vn -0.1992906554586654 1.1777471339649082 -4.2206472918263396
v -0.0376471213389122 0.2639150711297071 -0.0596849539748954
vn -0.1771985889907742 0.8629051825657581 -3.0178029817169270
v -0.0397960000000000 0.2652709999999999 -0.0591900000000000
vn 0.0013447912539543 0.4215079332566742 -1.7098708955044652
v 0.0197551739130435 0.2530274927536232 -0.0628327536231884
vn -0.0004827119477132 0.2240113510079650 -0.9164778552508140
v 0.0123913585313175 0.2525312267818572 -0.0629546198704103
vn 0.0220030950570828 1.4592722554262723 -5.8197969528982414
v 0.0272238333333333 0.2513435000000000 -0.0632398333333333
vn -0.2309611951418638 1.2175273560099034 -4.2632315511004428
v -0.0396723367003367 0.2638900134680132 -0.0595921380471381
vn -0.1490411936038555 0.8487979335395577 -3.0231582719749501
v -0.0377770000000000 0.2652709999999999 -0.0593000000000000
vn -0.0002263007833554 0.1172406935439347 -0.4781261262893414
v 0.0166095714285714 0.2531770000000000 -0.0627975714285714
vn -0.5201409842758600 243.3794329829194680 -996.5889621629005433
v 0.0144142826510721 0.2524648304093570 -0.0629717017543860
vn 0.0269703988425244 2.1740028189402905 -8.7334247962882792
v 0.0251942222222222 0.2515343333333333 -0.0631957777777778
vn -0.1531014608164420 0.9249712599868287 -3.2820862275169800
v -0.0391950303030303 0.2624035303030304 -0.0600377575757576
vn -0.1278726405425826 0.8302895805268389 -3.0285340618802685
v -0.0357560000000000 0.2652710000000000 -0.0593950000000000
vn -0.1337039569112338 0.5189145052212427 -1.6833293807916760
v -0.0446171363636364 0.2651626818181819 -0.0588904545454545
vn -0.1716035151428862 0.7968857584966099 -2.6980440700294213
v -0.0420490000000000 0.2637950000000000 -0.0594850000000000
vn -0.0004392591632884 0.3548531280385553 -1.4523895546540171
v 0.0053476470588235 0.2530723529411766 -0.0628182941176471
vn 0.0048770064917194 0.2412330808518714 -0.9363483225396635
v 0.0323523709677419 0.2517392741935484 -0.0631225000000000
vn -1.4820196837316899 201.2136126759336889 -822.6534521313767527
v 0.0082721310507674 0.2524657426210157 -0.0629681818181817
vn -0.1488388317987944 0.9466784659826375 -3.3826515994408020
v -0.0382405967741936 0.2625444838709677 -0.0600411129032259
vn -0.1089834950374654 0.7297589096753219 -2.6827269364397774
v -0.0355770000000000 0.2637950000000000 -0.0598050000000000
vn -0.2066862047286903 0.8246654883821685 -2.6815741012973997
v -0.0442901250000000 0.2652695000000000 -0.0588835000000000
vn -0.1926931964961490 0.8841001735892401 -3.0107124074951632
v -0.0418140000000000 0.2652710000000000 -0.0590640000000000
vn 0.0011045953338085 0.3642313191673879 -1.4781778734117041
v 0.0197020357142857 0.2527207559523811 -0.0629083750000001
vn 0.0018239821555228 0.5358275217169964 -2.1679989632333774
v 0.0215443260869565 0.2517443695652173 -0.0631481521739130
vn -0.0010974847344178 0.5120360582447866 -2.0949476959837923
v 0.0120820911528150 0.2530127882037539 -0.0628367506702413
vn -1.2576595248671503 5.0257461038607518 -16.1900181851673857
v -0.0449837647058823 0.2645201176470588 -0.0590607647058823
vn -0.6711522562217754 13.3511493338245568 -48.1773042932247435
v -0.0399965600000000 0.2513334399999999 -0.0631052400000000
vn 0.0290562214178874 0.5521350644137855 -2.1661617418731227
v 0.0263282000000000 0.2635939999999999 -0.0601498000000000
vn 0.0337564445216510 0.6841324218808476 -2.6933626310141321
v 0.0251353144329897 0.2628277989690727 -0.0603607680412371
vn 0.0145480319994604 0.2784408123382124 -1.0942447745993449
v 0.0248758415300546 0.2639004098360656 -0.0600918633879781
vn 0.0782576992120680 1.5538371435105232 -6.0875150308044521
v 0.0263449090909091 0.2620764545454545 -0.0605364545454546
vn -18.0659930266888722 314.2948463834135850 -1137.1182479112962938
v -0.0400123457627118 0.2520458076271186 -0.0629080169491525
vn 0.0048002551154090 0.7670316452047541 -3.1275845746742106
v 0.0137996470588235 0.2615957352941176 -0.0607346764705882
vn 0.0037578499344850 0.3604720993811672 -1.4702242857980798
v 0.0130632383419689 0.2647401761658031 -0.0599646476683938
vn 0.0227811803488161 1.5070809268291196 -6.0997109863746157
v 0.0180668181818182 0.2597400000000000 -0.0611806363636364
vn 0.0020468384727177 0.3170331174007284 -1.2870592285005777
v 0.0173177638190955 0.2584391005025123 -0.0615031859296483
# 471 vertices, 0 vertices normals


usemtl material_0
vt 0.0341410003602505 0.6291639804840088
vt 0.2059260010719299 0.5487560033798218
vt 0.1953310072422028 0.6616430282592773
f 66/1/66 67/2/67 59/3/59
vt 0.0455729998648167 0.5050569772720337
f 19/2/19 16/1/16 60/4/60
vt 0.0570320002734661 0.3806940019130707
vt 0.0685179978609085 0.2560740113258362
vt 0.2271829992532730 0.3223490118980408
f 97/5/97 80/6/80 73/7/73
vt 0.2165430039167404 0.4356589913368225
f 25/5/25 29/8/29 439/4/439
vt 0.0800290033221245 0.1311900019645691
vt 0.2378440052270889 0.2088229954242706
f 11/6/11 427/9/427 29/10/29
vt 0.0113540003076196 0.8766319751739502
vt 0.1636790037155151 0.9990749955177307
vt 0.0000000000000000 1.0000000000000000
f 29/11/29 458/12/458 439/13/439
vt 0.0227339994162321 0.7530210018157959
vt 0.1847590059041977 0.7743229866027832
f 86/14/86 117/15/117 73/11/73
f 60/14/60 16/3/16 6/15/6
vt 0.1742080003023148 0.8867989778518677
f 460/11/460 434/16/434 38/12/38
f 39/11/39 420/15/420 36/16/36
f 5/3/5 44/14/44 18/1/18
vt 0.2485270053148270 0.0950779989361763
vt 0.0915670022368431 0.0060379998758435
f 18/17/18 20/9/20 17/18/17
vt 0.7724450230598450 0.0016270000487566
vt 0.6192790269851685 0.0926870033144951
vt 0.5451920032501221 0.0031749999616295
f 62/19/62 50/20/50 64/21/64
vt 0.4338049888610840 0.0939079970121384
vt 0.3182339966297150 0.0046439999714494
f 141/21/141 377/22/377 372/23/372
vt 0.9908339977264404 0.0900890007615089
vt 0.8049550056457520 0.0914150029420853
vt 1.0000000000000000 0.0000000000000000
f 55/24/55 56/25/56 70/26/70
f 8/19/8 11/26/11 29/25/29
f 60/19/60 6/25/6 45/20/45
f 99/4/99 84/8/84 120/2/120
f 44/5/44 61/7/61 18/8/18
f 84/23/84 76/22/76 120/17/120
f 100/9/100 65/17/65 72/10/72
f 82/20/82 122/22/122 101/21/101
f 119/10/119 47/7/47 65/6/65
f 57/18/57 49/23/49 63/17/63
vt 0.4282419979572296 0.1437080055475235
vt 0.3925170004367828 0.1437080055475235
vt 0.3925170004367828 0.1077679991722107
f 71/27/71 57/28/57 63/29/63
vt 0.4282419979572296 0.1077679991722107
f 64/29/64 50/30/50 49/27/49
vt 0.3567929863929749 0.2155089974403381
vt 0.4282419979572296 0.2155089974403381
vt 0.4282419979572296 0.2873100042343140
f 51/31/51 64/32/64 70/33/70
vt 0.3567929863929749 0.1796080023050308
vt 0.3567929863929749 0.1437080055475235
f 55/34/55 83/35/83 69/28/69
f 77/28/77 83/27/83 84/32/84
f 78/32/78 120/31/120 76/34/76
f 103/34/103 85/28/85 96/32/96
vt 0.4282419979572296 0.8574969768524170
vt 0.2853449881076813 0.8574969768524170
vt 0.2853449881076813 0.7149930000305176
f 108/36/108 115/37/115 89/38/89
vt 0.4282419979572296 0.7149930000305176
f 109/38/109 114/39/114 88/36/88
vt 0.5711809992790222 0.1077679991722107
vt 0.4997110068798065 0.1077679991722107
vt 0.5354459881782532 0.0718280002474785
f 116/40/116 94/41/94 107/42/107
vt 0.4997110068798065 0.0718280002474785
f 112/41/112 151/43/151 89/42/89
vt 0.5711809992790222 0.0718280002474785
f 66/42/66 60/44/60 67/40/67
vt 0.5711809992790222 0.1437080055475235
vt 0.4997110068798065 0.1437080055475235
f 86/40/86 73/45/73 411/46/411
f 20/46/20 61/41/61 68/40/68
vt 0.4639759957790375 0.1437080055475235
vt 0.4639759957790375 0.1077679991722107
f 115/46/115 112/47/112 89/48/89
f 133/48/133 89/41/89 151/46/151
f 127/47/127 144/27/144 134/30/134
f 80/30/80 1/48/1 73/47/73
vt 0.4461089968681335 0.0718280002474785
vt 0.4639759957790375 0.0718280002474785
f 90/49/90 95/50/95 106/48/106
vt 0.4282419979572296 0.0718280002474785
f 90/30/90 126/51/126 95/49/95
f 96/48/96 112/30/112 91/49/91
f 95/41/95 126/48/126 132/50/132
f 460/50/460 440/43/440 434/41/434
vt 0.4639759957790375 0.0538580007851124
vt 0.4639759957790375 0.0358889997005463
vt 0.4818440079689026 0.0358889997005463
f 107/52/107 94/53/94 114/54/114
vt 0.4997110068798065 0.0358889997005463
f 96/54/96 85/55/85 90/43/90
f 108/43/108 96/50/96 91/52/91
f 123/52/123 116/54/116 109/43/109
vt 0.4461089968681335 0.0538580007851124
f 123/50/123 103/49/103 108/56/108
f 127/56/127 151/52/151 144/50/144
vt 0.4282419979572296 0.0538580007851124
f 128/49/128 135/51/135 134/57/134
f 411/57/411 73/56/73 1/49/1
vt 0.5533139705657959 0.0358889997005463
vt 0.5711809992790222 0.0358889997005463
f 148/58/148 139/59/139 158/44/158
vt 0.5354459881782532 0.0358889997005463
f 148/42/148 158/60/158 163/58/163
f 155/44/155 167/42/167 154/58/154
vt 0.5175790190696716 0.0358889997005463
f 55/61/55 75/60/75 83/42/83
f 379/43/379 370/55/370 385/61/385
f 383/42/383 379/43/379 384/61/384
vt 0.5533139705657959 0.0179190002381802
f 330/59/330 337/58/337 352/62/352
vt 0.5711809992790222 0.0179190002381802
f 39/62/39 451/63/451 420/59/420
vt 0.5354459881782532 0.0179190002381802
f 365/58/365 300/60/300 358/64/358
f 95/64/95 132/62/132 106/58/106
vt 0.4997110068798065 0.2873100042343140
f 365/65/365 362/33/362 300/32/300
vt 0.4997110068798065 0.2155089974403381
f 328/32/328 350/66/350 344/65/344
f 362/47/362 347/46/347 300/66/300
f 270/32/270 288/27/288 284/47/284
f 286/66/286 278/32/278 281/47/281
f 21/66/21 18/46/18 17/45/17
vt 0.6069160103797913 0.0897980034351349
vt 0.6069160103797913 0.1077679991722107
f 174/67/174 470/68/470 169/40/169
vt 0.6069160103797913 0.0718280002474785
f 294/44/294 305/69/305 183/67/183
f 182/40/182 298/44/298 294/67/294
vt 0.6247839927673340 0.0897980034351349
f 420/70/420 451/67/451 14/69/14
vt 0.6247839927673340 0.0718280002474785
f 341/69/341 356/71/356 355/70/355
vt 0.6426510214805603 0.0897980034351349
f 257/72/257 215/70/215 210/71/210
vt 0.6426510214805603 0.0718280002474785
f 82/71/82 78/73/78 122/72/122
vt 0.6069160103797913 0.0358889997005463
f 84/71/84 83/69/83 75/74/75
vt 0.6247839927673340 0.0358889997005463
f 423/74/423 455/75/455 433/71/433
vt 0.6426510214805603 0.0358889997005463
f 18/75/18 61/76/61 20/73/20
f 51/73/51 70/71/70 56/75/56
vt 0.5890489816665649 0.0358889997005463
f 323/77/323 366/74/366 356/69/356
f 334/44/334 329/59/329 361/77/361
f 304/69/304 298/44/298 182/77/182
vt 0.5890489816665649 0.0179190002381802
f 142/74/142 106/77/106 132/78/132
vt 0.6069160103797913 0.0179190002381802
f 108/78/108 91/79/91 115/74/115
f 329/77/329 345/59/345 361/63/361
f 122/63/122 78/78/78 76/77/76
vt 0.6247839927673340 0.0179190002381802
f 437/76/437 448/75/448 455/80/455
vt 0.6426510214805603 0.0179190002381802
f 335/80/335 338/81/338 353/76/353
f 436/75/436 451/74/451 39/79/39
f 167/79/167 172/80/172 468/75/468
vt 0.6605179905891418 0.0718280002474785
f 240/82/240 237/73/237 222/76/222
vt 0.6605179905891418 0.0358889997005463
f 148/76/148 145/83/145 139/82/139
vt 0.6783859729766846 0.0358889997005463
vt 0.6783859729766846 0.0718280002474785
f 119/83/119 65/84/65 100/85/100
f 250/85/250 266/82/266 245/83/245
vt 0.6605179905891418 0.0179190002381802
f 12/84/12 428/83/428 444/86/444
vt 0.6783859729766846 0.0179190002381802
f 109/86/109 107/87/107 114/84/114
f 414/83/414 463/76/463 399/81/399
f 244/81/244 217/86/217 248/83/248
vt 0.3805550038814545 0.0847330018877983
vt 0.3885149955749512 0.0770870000123978
f 371/88/371 386/89/386 412/29/412
vt 0.3735260069370270 0.0925329998135567
f 286/90/286 273/88/273 278/29/278
vt 0.3974579870700836 0.0696260035037994
f 193/91/193 275/29/275 284/89/284
vt 0.4185009896755219 0.0553850010037422
f 267/51/267 249/92/249 250/57/250
vt 0.4307059943675995 0.0486669987440109
f 263/93/263 262/57/262 258/92/258
vt 0.4074360132217407 0.0623820014297962
f 263/91/263 208/94/208 259/51/259
f 36/92/36 420/51/420 14/94/14
f 72/30/72 71/29/71 58/91/58
vt 0.3459570109844208 0.1488039940595627
vt 0.3504950106143951 0.1327410042285919
f 308/95/308 307/96/307 254/35/254
vt 0.3574939966201782 0.1165409982204437
f 94/97/94 129/35/129 135/96/135
vt 0.3434650003910065 0.1644809991121292
f 373/35/373 374/98/374 378/95/378
f 373/34/373 407/98/407 410/35/410
vt 0.3673740029335022 0.1004550009965897
f 260/97/260 214/99/214 265/29/265
f 421/90/421 452/29/452 15/99/15
f 259/35/259 208/97/208 213/28/213
f 357/29/357 355/28/355 333/97/333
f 370/51/370 375/30/375 402/91/402
vt 0.4749990105628967 0.0303879994899035
vt 0.4914839863777161 0.0253270007669926
f 123/54/123 109/100/109 102/101/102
f 133/100/133 151/54/151 127/53/127
f 167/54/167 468/101/468 154/55/154
vt 0.4591830074787140 0.0360240004956722
f 368/102/368 369/100/369 384/53/384
vt 0.5261949896812439 0.0168270003050566
vt 0.5085719823837280 0.0208160001784563
f 244/103/244 222/61/222 217/104/217
vt 0.5442870259284973 0.0133360000327229
f 219/105/219 234/64/234 239/103/239
f 85/104/85 79/61/79 90/55/90
f 155/101/155 154/104/154 166/55/166
f 219/60/219 239/103/239 224/64/224
vt 0.4441019892692566 0.0422599986195564
f 299/56/299 295/93/295 306/106/306
f 86/56/86 110/106/110 117/102/117
f 219/93/219 224/56/224 220/57/220
f 312/103/312 197/60/197 201/61/201
f 374/56/374 409/102/409 406/52/406
f 383/52/383 384/102/384 369/53/369
vt 0.2673220038414001 0.5981029868125916
f 19/107/19 60/39/60 66/38/66
vt 0.2564930021762848 0.6597989797592163
f 250/107/250 249/38/249 266/108/266
vt 0.2781639993190765 0.5363460183143616
vt 0.4282419979572296 0.5724899768829346
f 433/107/433 455/109/455 448/110/448
vt 0.3107599914073944 0.3506999909877777
vt 0.2998819947242737 0.4126450121402740
f 323/111/323 356/33/356 186/112/186
vt 0.2890169918537140 0.4745270013809204
f 180/110/180 291/113/291 179/112/179
f 432/109/432 456/113/456 426/110/426
vt 0.3216489851474762 0.2886910140514374
f 204/111/204 200/114/200 199/33/199
vt 0.2062769979238510 0.9459919929504395
vt 0.2234320044517517 0.8482000231742859
f 365/37/365 358/115/358 364/116/364
vt 0.2406180053949356 0.7502570152282715
vt 0.0000000000000000 0.7513530254364014
vt 0.0156479999423027 0.6609050035476685
f 180/117/180 179/118/179 290/119/290
f 67/37/67 45/117/45 52/38/52
f 63/108/63 49/117/49 50/119/50
vt 0.3276340067386627 0.9730060100555420
f 340/37/340 355/120/355 356/115/356
f 231/37/231 215/36/215 257/120/257
f 141/117/141 372/37/372 149/116/149
f 209/117/209 265/108/265 214/38/214
vt 0.3325510025024414 0.2266180068254471
f 111/31/111 125/114/125 87/121/87
f 466/121/466 463/34/463 414/31/414
vt 0.5427929759025574 0.4733099937438965
f 318/110/318 176/33/176 321/122/321
f 312/112/312 201/33/201 307/110/307
f 374/107/374 371/110/371 409/39/409
vt 0.5538219809532166 0.4114210009574890
f 437/65/437 454/123/454 447/33/447
vt 0.5317760109901428 0.5351349711418152
f 379/122/379 375/124/375 370/110/370
vt 0.5759170055389404 0.2874540090560913
f 389/66/389 390/125/390 393/65/393
f 469/33/469 173/123/173 172/122/172
vt 0.5207710266113281 0.5968989729881287
f 389/126/389 394/110/394 390/124/390
vt 0.4712989926338196 0.8746579885482788
vt 0.4601350128650665 0.9373589754104614
f 394/127/394 380/128/380 376/36/376
vt 0.4489839971065521 1.0000000000000000
f 430/128/430 447/129/447 431/120/431
vt 0.4824750125408173 0.8118939995765686
f 419/130/419 174/36/174 169/39/169
f 395/36/395 397/128/397 391/120/391
vt 0.7141209840774536 0.7149930000305176
vt 0.4936639964580536 0.7490680217742920
f 436/39/436 39/131/39 36/132/36
vt 0.5097789764404297 0.6586009860038757
f 119/110/119 121/133/121 47/39/47
f 72/36/72 57/130/57 71/127/71
f 397/39/397 402/132/402 391/130/391
vt 0.6726059913635254 0.6578119993209839
f 162/131/162 168/133/168 159/134/159
f 403/133/403 413/110/413 398/126/398
f 162/114/162 159/31/159 163/33/163
f 162/121/162 155/98/155 168/34/168
vt 0.5627809762954712 0.0103150000795722
f 219/63/219 220/62/220 225/135/225
f 403/135/403 416/62/416 413/105/413
vt 0.5816100239753723 0.0077399997971952
f 465/136/465 463/63/463 466/135/466
vt 0.6200029850006104 0.0038179999683052
vt 0.6394330263137817 0.0024190000258386
f 175/80/175 470/137/470 174/138/174
vt 0.6007059812545776 0.0055829999037087
f 412/137/412 386/79/386 413/139/413
f 413/139/413 386/78/386 398/136/398
vt 0.6589310169219971 0.0013599999947473
f 48/140/48 121/81/121 119/138/119
f 299/136/299 331/78/331 305/63/305
f 162/137/162 163/80/163 158/79/158
f 376/79/376 380/78/380 381/139/381
f 424/140/424 425/86/425 454/81/454
f 368/87/368 387/86/387 369/140/369
f 375/81/375 391/80/391 402/138/402
vt 0.6978600025177002 0.0001570000022184
f 200/87/200 203/140/203 199/141/199
vt 0.7362530231475830 0.0000000000000000
vt 0.7705379724502563 0.0001130000018748
vt 0.7554730176925659 0.0715790018439293
f 379/142/379 381/143/381 380/144/380
vt 0.7807869911193848 0.0707079991698265
vt 0.8045120239257812 0.0008229999803007
f 94/145/94 135/143/135 88/146/88
f 113/84/113 143/141/143 142/142/142
vt 0.8713979721069336 0.0041269999928772
vt 0.8418740034103394 0.0708979964256287
vt 0.8381429910659790 0.0021520000882447
f 135/147/135 129/148/129 134/149/134
vt 0.8753070235252380 0.0716030001640320
vt 0.9042440056800842 0.0067719998769462
f 173/150/173 468/147/468 172/151/172
vt 0.8083440065383911 0.0707949995994568
f 266/152/266 241/146/241 245/149/245
vt 0.9084740281105042 0.0729880034923553
f 390/153/390 394/150/394 376/151/376
vt 0.7323330044746399 0.0733689963817596
f 111/154/111 141/84/141 125/142/125
f 142/144/142 143/143/143 106/145/106
f 383/146/383 381/152/381 379/145/379
vt 0.9685779809951782 0.0141700003296137
vt 0.9412040114402771 0.0751319974660873
vt 0.9366490244865417 0.0101110003888607
f 437/155/437 447/156/447 442/157/442
f 447/150/447 454/148/454 431/147/431
vt 1.0000000000000000 0.0189730003476143
f 330/156/330 352/155/352 349/158/349
f 425/149/425 431/148/431 454/152/454
f 464/151/464 465/157/465 466/153/466
f 466/142/466 414/144/414 417/154/417
f 430/87/430 425/141/425 424/84/424
vt 0.6105690002441406 0.1246749982237816
vt 0.6053860187530518 0.1335940062999725
f 270/159/270 284/160/284 275/68/275
f 409/40/409 371/68/371 412/160/412
f 430/68/430 431/67/431 425/70/425
f 295/45/295 184/40/184 306/160/306
vt 0.6254590153694153 0.1085039973258972
vt 0.6172369718551636 0.1162990033626556
f 415/68/415 419/161/419 169/162/169
vt 0.6353049874305725 0.1013270020484924
f 471/163/471 169/161/169 175/70/175
f 457/162/457 442/159/442 450/68/450
f 437/161/437 443/68/443 448/70/448
vt 0.5648630261421204 0.3494690060615540
f 427/65/427 459/125/459 29/164/29
vt 0.5869830250740051 0.2253749966621399
f 114/125/114 94/66/94 88/165/88
f 432/123/432 449/65/449 456/164/456
f 438/165/438 442/66/442 457/45/457
vt 0.6016200184822083 0.1430180072784424
vt 0.5992010235786438 0.1529089957475662
f 438/45/438 443/166/443 442/167/442
vt 0.5980610251426697 0.1632300019264221
f 437/168/437 442/165/442 443/45/443
f 91/167/91 112/168/112 115/45/115
f 457/166/457 432/45/432 426/160/426
vt 0.6752719879150391 0.0838859975337982
f 80/169/80 2/82/2 1/85/1
vt 0.6923009753227234 0.0795599967241287
f 123/85/123 108/170/108 116/169/116
vt 0.7112990021705627 0.0760419964790344
f 457/170/457 450/85/450 432/171/432
vt 0.6601420044898987 0.0889799967408180
f 198/172/198 284/82/284 193/169/193
f 198/154/198 193/171/193 284/84/284
f 318/156/318 321/153/321 320/157/320
f 404/84/404 417/171/417 414/85/414
vt 0.6468430161476135 0.0948069989681244
f 464/163/464 466/72/466 417/173/417
f 67/172/67 60/173/60 45/72/45
f 404/131/404 414/39/414 399/133/399
f 116/70/116 107/72/107 109/163/109
vt 0.8355380296707153 0.6570060253143311
f 404/134/404 399/174/399 463/131/463
vt 0.8191159963607788 0.7474859952926636
f 175/175/175 169/131/169 470/174/470
vt 0.6563379764556885 0.7482849955558777
f 62/176/62 64/131/64 51/175/51
f 55/131/55 69/176/69 56/132/56
f 103/72/103 96/73/96 108/172/108
f 152/82/152 145/172/145 148/73/148
f 368/105/368 373/62/373 410/64/410
vt 0.0625540018081665 0.0627980008721352
vt 0.0469160005450249 0.0627980008721352
vt 0.0469160005450249 0.0470799989998341
f 471/177/471 175/178/175 174/179/174
# 236 faces, 179 coords texture

# End of File
