####
#
# OBJ File Generated by Meshlab
#
####
# Object torso_base_link_13.obj
#
# Vertices: 476
# Faces: 559
#
####
mtllib ./torso_base_link_13.obj.mtl

vn 0.1530889807248687 -0.0626927595715654 2.0802304273024665
v 0.0252525000000000 0.0374575000000000 0.1230335000000000
vn 0.2380160422724354 -0.0619498606312793 3.1279421250651662
v 0.0244370000000000 0.0378480000000000 0.1231050000000000
vn 0.2834084028898743 -0.0880368630359381 3.6714754776526100
v 0.0249838111888112 0.0376236153846154 0.1230582797202797
vn 0.2111037591049672 -0.0681853167813835 2.7226263002566906
v 0.0249962524271845 0.0371559126213592 0.1230456019417475
vn 0.1846086540788732 -0.0579418336508696 2.3480903084648461
v 0.0252220000000000 0.0372770000000000 0.1230310000000000
vn 0.2347215694944549 -0.0782607116042745 3.0490122820584959
v 0.0245143255813953 0.0371163720930233 0.1230817906976745
vn 0.4676629471688137 -0.1745906087532228 6.2632223802410625
v 0.0239290000000000 0.0372410000000000 0.1231300000000000
vn 0.2215069245280675 -0.0556805004069586 3.1332247837126861
v 0.0234782000000000 0.0378480000000000 0.1231752000000000
vn 0.4598830659644600 -0.1317659787412649 6.2649019047578065
v 0.0238920769230769 0.0375600000000000 0.1231402307692308
vn 0.1572564815697741 -0.0426131507320564 2.0451790880711749
v 0.0248694285714286 0.0378462857142857 0.1230717142857143
vn 0.2234759082094689 -0.0743230884828383 2.8742993201078995
v 0.0252490000000000 0.0373660000000000 0.1230310000000000
vn 0.4783701250664719 -0.1382015091908328 6.2633897007379780
v 0.0244146250000000 0.0376359687500000 0.1231025312500000
vn 0.2193362202994892 -0.0752729853769925 3.0358103485279204
v 0.0235495714285714 0.0371172857142857 0.1231544285714285
vn 0.2315255308769360 -0.0589676747178126 3.1324404373709096
v 0.0240360000000000 0.0378480000000000 0.1231350000000000
vn 0.4449552947673321 -0.1282523329962379 6.2660539102637713
v 0.0234485000000000 0.0375500000000000 0.1231720000000000
vn 0.4100834693524519 -0.1754956916377252 6.2672825410913493
v 0.0219653600000000 0.0369960266666667 0.1232604533333332
vn 0.2226912820844580 -0.1235076431226680 3.4401937769490427
v 0.0214031627906977 0.0366468604651163 0.1232858604651163
vn 0.2626628612857246 -0.1074633665574402 4.0969943930529622
v 0.0213339666666667 0.0369555555555556 0.1233002777777778
vn 0.2619023220996967 -0.1423718298166161 4.0146218582035242
v 0.0219742054794521 0.0366195890410959 0.1232479863013699
vn 0.1597900777577952 -0.0368931281047345 3.1173576243907157
v 0.0188170000000000 0.0378480000000000 0.1234595000000000
vn 0.1752793954144940 -0.0572494931645076 3.0937003510697463
v 0.0199465384615385 0.0371163076923077 0.1233875384615385
vn 0.1204599649706402 -0.0330737116981802 2.3903543412638633
v 0.0183775775862069 0.0376020431034483 0.1234787499999999
vn 0.2148750851216550 -0.2653551179955690 3.1298794124218876
v 0.0214366500000000 0.0344699000000000 0.1231525000000000
vn 0.1132022746600521 -0.0259884011632327 2.2515829730121149
v 0.0185660000000000 0.0378430000000000 0.1234720000000000
vn 0.1757456615924772 -0.0593057208436090 3.2244325802470555
v 0.0194323333333333 0.0371573333333333 0.1234170000000000
vn 0.3209473544176988 -0.0849691767857239 6.2743878902609449
v 0.0188056323529412 0.0375987058823530 0.1234571323529412
vn 0.1954773023579128 -0.2419492218771876 2.8575864751783602
v 0.0220237058823529 0.0344966470588235 0.1231147058823529
vn 0.1607911511813942 -0.2383590292843120 2.1787084762216025
v 0.0217625555555556 0.0337104444444444 0.1230551111111111
vn 0.1825385832204457 -0.0662311447372746 3.1212625963914657
v 0.0204043125000000 0.0370993125000000 0.1233604375000000
vn 0.1799246742822734 -0.2562262137479714 2.6019834968122120
v 0.0215022446808511 0.0339390851063830 0.1230971702127660
vn 0.1574313289103986 -0.2350030577804107 2.2320128304007727
v 0.0216730000000000 0.0337130000000000 0.1230620000000000
vn 0.2173338562552893 -0.0805137258373121 3.4940058338769457
v 0.0210120000000000 0.0370854800000000 0.1233236200000000
vn 0.1846478432644243 -0.2635471367608030 2.6437904321398102
v 0.0219130546875000 0.0339035703125000 0.1230651328125001
vn 0.0188050671128549 -0.1291522071642844 3.1534210595013819
v 0.0056877692307692 0.0361846153846154 0.1237706153846154
vn 0.0163643806948671 -0.1337721638680776 3.3064606373562548
v 0.0050496923076923 0.0356402307692308 0.1237521538461539
vn 0.0084855107491447 -1.4873434962548258 2.7546981437538793
v 0.0040530000000000 0.0345360000000000 0.1236910000000000
vn 0.0124974672664938 -0.2897594634047004 3.1282615222475449
v 0.0045074000000000 0.0337080000000000 0.1236174000000000
vn 0.0305908528268706 -0.0269658058844505 3.2892396393868664
v 0.0067134492753623 0.0370796521739130 0.1237843478260870
vn 0.0152685179384558 -0.1272845497442877 3.1414496818515074
v 0.0050450000000000 0.0361840000000000 0.1237741666666667
vn 0.0114402831625885 -0.2523886952741738 3.1358677845650473
v 0.0044225833333333 0.0345342500000000 0.1236889166666667
vn 0.0221666589996526 -0.5388651420110603 6.2598514870564603
v 0.0043680000000000 0.0341190000000000 0.1236560000000000
vn 0.0110258954347247 -0.2900869512275350 3.1281501080313201
v 0.0040520000000000 0.0337080000000000 0.1236190000000000
vn 0.0226928980828098 -0.0267422242083611 3.1689594488579962
v 0.0061329230769231 0.0371303846153846 0.1237896153846154
vn 0.0181846183955124 -0.1227453553804681 3.0176449195336379
v 0.0057085294117647 0.0355604117647059 0.1237450588235294
vn 0.0175899606993664 -0.1541846639291734 3.0025686160601150
v 0.0061648000000000 0.0361920000000000 0.1237682000000000
vn 0.0140388697337226 -0.0349617301954546 2.9225564492830598
v 0.0050780000000000 0.0370200000000000 0.1237938000000000
vn 0.0075759885901125 -0.2559784198427055 3.1373848012915224
v 0.0036483333333333 0.0345340000000000 0.1236911666666667
vn 0.0055547141237613 -0.2913003995374833 3.1280605478212440
v 0.0030312000000000 0.0337080000000000 0.1236216000000000
vn 0.0342884229942371 -0.1732713482418330 3.8676280348623404
v 0.0066814696969697 0.0355125454545454 0.1237359545454545
vn 0.0089578308149730 -0.0093360407240959 3.1415594124650084
v 0.0035796666666667 0.0378480000000000 0.1238046666666667
vn 0.0054113758607754 0.0034328968850634 3.0890297962419346
v 0.0025228000000000 0.0370200000000000 0.1238010000000000
vn -0.0082262427104495 -0.1016932897461154 3.1189657860504796
v 0.0017920000000000 0.0362990000000000 0.1237860000000000
vn 0.0075196743438190 -0.0368351758028436 6.2829882603804608
v 0.0029290666666667 0.0375306000000000 0.1238054666666667
vn -0.0030709057730953 -0.2268327077581652 6.2789907110775154
v 0.0016282222222222 0.0361441296296296 0.1237805185185185
vn 0.0006383367280755 -0.1529427963166473 3.1642972586132547
v 0.0010792500000000 0.0355378214285714 0.1237557500000000
vn 0.0040001115122116 -0.0070694055887380 3.1383854391190491
v 0.0024945000000000 0.0378480000000000 0.1238065000000000
vn 0.0075604714566355 -0.0289355652668702 3.1414569258416960
v 0.0036554000000000 0.0370200000000000 0.1237990000000000
vn 0.0112146960029382 -0.1274507372937873 3.1569597850076399
v 0.0044105833333333 0.0361850000000000 0.1237767500000000
vn 0.0183724793206577 -0.2902623617545198 3.1282683980708099
v 0.0055914000000000 0.0337080000000000 0.1236122000000000
vn 0.0089153397268012 -0.1204685280593271 2.5319564824324376
v 0.0040530000000000 0.0353640000000000 0.1237430000000000
vn 0.0145252084340394 -0.2490140446733498 3.1314269973611459
v 0.0050616666666667 0.0345340000000000 0.1236861666666667
vn 0.0301324546668790 -0.5401660683500398 6.2597095521882071
v 0.0050740000000000 0.0341190000000000 0.1236530000000000
vn 0.0033367621778392 -0.0279183034288001 4.6338221042802150
v 0.0020223888888889 0.0376365185185185 0.1238067222222223
vn 0.0576549196125862 -0.5108818479333175 6.2620183479598239
v 0.0066737575757576 0.0343747878787879 0.1236633333333333
vn 0.0090602260499677 -0.0029095163681229 1.3667657756276737
v 0.0066815000000000 0.0378455000000000 0.1237897500000000
vn 0.0092424863989028 -0.1721451296474151 2.1617789809869898
v 0.0011751666666667 0.0340950833333333 0.1236589166666667
vn 0.0431419882453630 -0.0316280063325194 6.2828987815188651
v 0.0060747142857143 0.0375508571428571 0.1237935714285714
vn -0.0027181783580665 -0.2424573396406857 4.0007995763792508
v 0.0015663623188406 0.0350141449275362 0.1237268840579711
vn 0.0036146501266773 -0.2235984244829945 3.0012737137313734
v 0.0010807380952381 0.0345377619047619 0.1236945714285714
vn 0.0016962523173931 -0.0021197193829943 1.5864217678375436
v 0.0020250000000000 0.0378465000000000 0.1238070000000000
vn 0.0042006471822914 -0.0307228739891421 3.1414396300346041
v 0.0029985000000000 0.0370200000000000 0.1238001666666666
vn 0.0097130733443563 -0.0580838672821574 3.1038561714689350
v 0.0040530000000000 0.0361920000000000 0.1237780000000000
vn 0.0185645765909038 -0.2407639644688677 3.1378276129350304
v 0.0056990833333333 0.0345336666666667 0.1236825000000000
vn 0.0126202543511661 -0.1537483624931808 3.6982551856711701
v 0.0044080769230769 0.0356101538461539 0.1237534615384615
vn 0.0149601814303976 -0.2901531102555260 3.1281958865421391
v 0.0050485000000000 0.0337080000000000 0.1236150000000000
vn 0.0048110249262205 -0.0390264237378540 6.2830381328951486
v 0.0025774615384615 0.0375460000000000 0.1238055384615385
vn 0.0466126904635601 -0.5051403989944541 6.2625108552191033
v 0.0061350000000000 0.0343250000000000 0.1236640000000000
vn 0.0401323141072729 -0.5617389960051763 6.2578502045182427
v 0.0057853333333333 0.0339978333333333 0.1236379166666666
vn 0.0108851129952439 -0.0320893525535436 3.1414200862384045
v 0.0045080000000000 0.0370200000000000 0.1237964000000000
vn 0.0087125853705951 -0.0247045890426463 2.1758839673642258
v 0.0011584166666667 0.0374450000000000 0.1238064166666667
vn 0.0090884160341676 -0.1287298300538479 3.1569488117852220
v 0.0036363333333333 0.0361846666666667 0.1237791666666667
vn -0.0177530449842458 -0.0673203514923082 -3.1203591678823068
v 0.0061648000000000 0.0345360000000000 0.1236798000000000
vn 0.0147866015896789 -0.1601604364441811 1.7017972527508400
v 0.0066817142857143 0.0337105714285714 0.1236040000000000
vn 0.0066676756042102 -0.1490809308745866 3.6008025221246855
v 0.0029712222222222 0.0356064444444444 0.1237573333333333
vn 0.0361719320230993 -0.5083090237647415 6.2624287727203161
v 0.0057800000000000 0.0343250000000000 0.1236660000000000
vn 0.0489761008496666 -0.5629297471737400 6.2576783363595876
v 0.0061411538461538 0.0340070769230769 0.1236363076923077
vn 0.0088925139531192 -0.0286543480651675 3.1414581565074542
v 0.0040530000000000 0.0370200000000000 0.1237980000000000
vn 0.0060091703455469 -0.1288859538134756 3.1518587801487556
v 0.0029936428571429 0.0361849285714286 0.1237810000000000
vn 0.0242258743686279 -0.2916842477881676 3.1227745154495485
v 0.0061935000000000 0.0337080000000000 0.1236080000000000
vn 0.0080450315362623 -0.1268932761975975 2.7842852670602811
v 0.0036270000000000 0.0353640000000000 0.1237445000000000
vn 0.0042811564919606 -0.0273691236689000 2.7889628342624886
v 0.0015133333333333 0.0376028636363636 0.1238067878787880
vn 0.0318008644476840 -0.2620170991209864 3.4198157712875590
v 0.0067204545454545 0.0345501515151515 0.1236763333333333
vn 0.0393287295219206 -0.3914925930860483 4.3910759392093803
v 0.0067097118644068 0.0339172033898305 0.1236232033898305
vn 0.0136221460501425 -0.0054542205613650 3.1415558931602163
v 0.0050780000000000 0.0378480000000000 0.1237994000000000
vn -0.0055314747559047 -0.1668275067615724 3.0929247855811761
v 0.0017890000000000 0.0352540000000000 0.1237410000000000
vn 0.0049936848060861 -0.2955657596465138 3.0640473645838044
v 0.0024658000000000 0.0345360000000000 0.1236940000000000
vn 0.0007209770504784 -0.1429183707492712 1.5136146698962321
v 0.0020225000000000 0.0337100000000000 0.1236230000000000
vn 0.0353448407324980 -0.0348494750249128 6.2829604715545573
v 0.0057228181818182 0.0375454545454545 0.1237955454545455
vn 0.0070453264279934 -0.5485093270534886 6.2591020803442259
v 0.0026051428571429 0.0340022857142857 0.1236497142857143
vn 0.0058848847050151 -0.2568935433000312 3.1322695500506321
v 0.0030032857142857 0.0345347142857143 0.1236930000000000
vn 0.0085803598503805 -0.2872893064320376 3.1285713099551691
v 0.0036270000000000 0.0337080000000000 0.1236205000000000
vn 0.0199031075108316 -0.0317351437034547 3.4198185056859360
v 0.0056926666666667 0.0371566666666667 0.1237923333333333
vn 0.0338289528750697 -0.1613192706616751 4.0709651268204015
v 0.0066980625000000 0.0361280416666667 0.1237617916666667
vn 0.0221022152265047 -0.1326205506742216 3.2279426505469533
v 0.0061367894736842 0.0355607368421053 0.1237423684210526
vn 0.0099932339059512 -0.5451861862103092 6.2593604030753189
v 0.0029597692307692 0.0340403846153846 0.1236526923076924
vn 0.0165746016668088 -0.0080488124692008 3.1415304508384057
v 0.0056496000000000 0.0378480000000000 0.1237968000000000
vn 0.0275941238429308 -0.0413705732824611 6.2828859696306329
v 0.0050240000000000 0.0374330000000000 0.1237990000000000
vn 0.0041988655523439 -0.2907068511249284 3.1236792740415722
v 0.0024658000000000 0.0337080000000000 0.1236226000000000
vn -0.0036779877268554 -0.2872190861599028 3.4212083385786567
v 0.0019207500000000 0.0345029107142857 0.1236916964285715
vn 0.0015541086422131 -0.4086755166825624 4.6782973020070386
v 0.0020339074074074 0.0339161851851852 0.1236424629629629
vn 0.0221063700875068 -0.0035122929783290 3.1360702173409680
v 0.0062222000000000 0.0378480000000000 0.1237928000000000
vn 0.0381448975007448 -0.0288133771726717 4.8721034264719192
v 0.0066361578947368 0.0376321929824561 0.1237895964912281
vn 0.0006959436572321 -0.1876037524993658 3.0029533596727620
v 0.0010475272727273 0.0349640181818182 0.1237238727272727
vn 0.0005333008093637 -0.3373337171695497 4.3490441263038369
v 0.0016192911392405 0.0345735822784810 0.1236969746835442
vn 0.0048819683682855 -0.2298997319685356 2.8150978055548812
v 0.0015256093750000 0.0339522812500000 0.1236460468750000
vn 0.0052331298332761 -0.0024969353449771 3.1415874213028032
v 0.0030605000000000 0.0378480000000000 0.1238055000000000
vn -0.0033156969053723 -0.0271742072091536 3.4474069925089417
v 0.0019017068965517 0.0370526724137931 0.1238020517241380
vn 0.0015185960850939 -0.1150583355901431 3.2468588461499310
v 0.0010956470588235 0.0361091764705882 0.1237795294117647
vn -0.0011371213675145 -0.3038495440799309 6.2756935437633450
v 0.0016236170212766 0.0354760425531915 0.1237526808510638
vn -0.0075216974062778 -0.1427334300377757 1.6659949131057445
v -0.0008470000000000 0.0342450000000000 0.1236720000000000
vn 0.0110572348961753 -0.0079195561247475 3.1415632243791070
v 0.0040530000000000 0.0378480000000000 0.1238030000000000
vn 0.0040072373840249 -0.0443519154932713 3.0078887244108827
v 0.0010792380952381 0.0370259761904762 0.1238019761904762
vn -0.0017137023513193 -0.1002946056422992 3.9640573478805612
v 0.0015603309859155 0.0365659366197183 0.1237927183098591
vn 0.0018133404791123 -0.1648606790055404 4.0993661595570865
v 0.0019193333333333 0.0361459814814815 0.1237805185185185
vn 0.0025676040783342 -0.1304820526032567 3.1633102716666937
v 0.0025611052631579 0.0355621052631579 0.1237558421052632
vn -0.0007475414569006 -0.2077787517465856 2.2290378357296272
v -0.0012172000000000 0.0337100000000000 0.1236234000000000
vn -0.0187646373625258 -0.0625916673960167 6.2824658356462741
v -0.0072465454545455 0.0372244545454545 0.1237819090909091
vn -0.0336326537314898 -0.0149667490513553 2.6724723574014733
v -0.0076687000000000 0.0376178785714286 0.1237802071428572
vn -0.0160751380496758 -0.2928318188862744 3.1278730979478890
v -0.0052230000000000 0.0337080000000000 0.1236140000000000
vn -0.0119670979415575 -0.0591821136823176 3.1315625690986555
v -0.0046510000000000 0.0345360000000000 0.1236880000000000
vn -0.0407409788583218 -0.1388733911674234 3.6850356035623699
v -0.0072442800000000 0.0359728800000000 0.1237512000000000
vn -0.0277242170453924 -0.2095444304051264 3.0637985418796201
v -0.0074767272727273 0.0346820909090909 0.1236788181818182
vn -0.0301163239122913 -0.1486551887823298 2.9975394956666475
v -0.0071246727272727 0.0355773272727273 0.1237350727272727
vn -0.0295678147711978 -0.1817224779851362 3.0566437744406247
v -0.0075601594202899 0.0350526376811594 0.1237021449275362
vn -0.0095492442187521 -0.2834743319894859 3.1287614531142731
v -0.0040800000000000 0.0337080000000000 0.1236190000000000
vn -0.0262029907857173 -0.5119701302244428 6.2621521461630607
v -0.0048800000000000 0.0343250000000000 0.1236710000000000
vn -0.0076126579272823 -0.2359708910628501 2.9171318093177465
v -0.0035110000000000 0.0345360000000000 0.1236920000000000
vn -0.0335517965327141 -0.1098503568115104 3.1533117694269586
v -0.0077210000000000 0.0360366666666667 0.1237483333333333
vn -0.0226936764167766 -0.1699765394419164 2.5017120636797605
v -0.0067184642857143 0.0348971785714286 0.1237006071428571
vn -0.0197765188384909 -0.2040685798167911 2.4835673325962846
v -0.0069648000000000 0.0341504500000000 0.1236422000000000
vn -0.0594174392494551 -0.4440498574561763 6.2671262609561662
v -0.0069808000000000 0.0346783600000000 0.1236833600000000
vn -0.0378636691552283 -0.5121006640078546 6.2621128891467981
v -0.0053870000000000 0.0343250000000000 0.1236680000000000
vn -0.0311966301363424 -0.1533209431038029 3.1776307441126033
v -0.0076293684210526 0.0355375000000000 0.1237282236842106
vn -0.0426090140032994 -0.2651432157468350 4.2208485552268336
v -0.0070362063492064 0.0350058095238095 0.1237045238095239
vn -0.0324288900487463 -0.3016519305055092 3.9852352501660944
v -0.0065284500000000 0.0346243000000000 0.1236833250000000
vn -0.0424510230457903 -0.5137172871243998 6.2619167297805678
v -0.0058960000000000 0.0343250000000000 0.1236650000000000
vn -0.0196738347500095 -0.2519086335277261 2.9654463698285394
v -0.0065501395348837 0.0339875581395349 0.1236313720930232
vn -0.0125598042034768 -0.2893108986409350 3.1283777109347399
v -0.0046510000000000 0.0337080000000000 0.1236170000000000
vn -0.0277037833347874 -0.5566689065655184 6.2583451100983396
v -0.0048845000000000 0.0340155000000000 0.1236445000000000
vn -0.0163401880392515 -0.2434787230462753 3.1409009787351350
v -0.0049808000000000 0.0345339000000000 0.1236867000000000
vn -0.0375615059987095 0.0090263369186636 2.2341815277589698
v -0.0074775000000000 0.0378460000000000 0.1237825000000000
vn -0.1003686889709562 -0.0675825656546448 6.2817689430706629
v -0.0076170000000000 0.0372240000000000 0.1237780000000000
vn -0.0470948250682985 -0.5109216845722155 6.2621578812365541
v -0.0064050000000000 0.0343250000000000 0.1236610000000000
vn -0.0284827709193026 -0.3458075803992138 3.8979956480532154
v -0.0060268863636364 0.0338763863636364 0.1236250454545455
vn -0.0222042297986072 -0.2906296682432197 3.0951376362859624
v -0.0057960000000000 0.0337080000000000 0.1236110000000000
vn -0.0228428512515145 -0.2416943392114306 3.0986185999229376
v -0.0060485600000000 0.0345720400000000 0.1236831200000000
vn -0.0333883987614435 -0.2935664504959599 3.8367160066088997
v -0.0071140500000000 0.0343952750000000 0.1236608500000000
vn -0.0364642685421824 -0.5631684266419305 6.2577411627928905
v -0.0054938214285714 0.0339232857142857 0.1236327857142857
vn -0.0252962690413196 -0.2166554656850446 2.1815785567372918
v -0.0059165000000000 0.0337120000000000 0.1236100000000000
vn 0.0178237026097162 0.2179502364485172 -2.9940823129595961
v -0.0057960000000000 0.0345360000000000 0.1236820000000000
vn -0.0330144440992967 -0.0593115440478984 2.7170868883549693
v -0.0078660000000000 0.0367700000000000 0.1237680000000000
vn -0.0029855906519281 -0.2806109182088368 3.3470658040140568
v -0.0023577500000000 0.0343792500000000 0.1236820000000000
vn -0.0075125736496543 -0.5511344724289547 6.2589008859034294
v -0.0023540000000000 0.0340170000000000 0.1236515000000000
vn -0.0055063215207960 -0.2875629592278144 3.1283986415733609
v -0.0029420000000000 0.0337080000000000 0.1236220000000000
vn -0.0038576030085854 -0.2889080873064087 3.1284396212772565
v -0.0023750000000000 0.0337080000000000 0.1236230000000000
vn -0.0079123276134868 -0.2747059738587115 3.2915883144861344
v -0.0028913750000000 0.0344047500000000 0.1236830000000000
vn -0.0130799418901989 -0.5471693902504262 6.2592366980405831
v -0.0028627692307692 0.0340403846153846 0.1236526923076924
vn 0.0101778005335115 -0.0067961135092752 3.1415687645590702
v 0.0045080000000000 0.0378480000000000 0.1238014000000000
vn 0.0193039877237714 -0.0382911235882441 6.2830006306276456
v 0.0043240000000000 0.0374330000000000 0.1238010000000000
vn 0.0021573762535388 -0.0971224704792453 3.0425837637032891
v 0.0024658000000000 0.0361920000000000 0.1237816000000000
vn 0.0015539896013487 -0.0552995114362257 4.3494800896207479
v 0.0016052658227848 0.0369759240506329 0.1238007594936708
vn 0.0009754583268298 -0.0719734093106472 3.0085700365506041
v 0.0010566444444444 0.0366034666666667 0.1237938222222222
vn 0.0019556747881034 -0.1703101080147408 3.8732741372542652
v 0.0019856493506493 0.0354856623376623 0.1237529090909091
vn -0.0045688951055584 -0.2195838812772130 2.5829683654966611
v -0.0010483225806452 0.0343951720430108 0.1236839569892473
vn -0.0039377006399822 -0.2636531413454520 3.0066284848815332
v -0.0010136433121019 0.0339687452229299 0.1236475796178344
vn -0.0232325780621425 -0.0163714904515578 2.7778239619299323
v -0.0072272032520325 0.0376001056910569 0.1237845609756099
vn -0.0022141406226779 -0.2361834970423228 2.8693047948787962
v -0.0018349090909091 0.0344684545454545 0.1236889090909091
vn -0.0012872917615606 -0.5547495352266120 6.2585640275696974
v -0.0018455500000000 0.0339809500000000 0.1236486000000000
vn -0.0002215440476292 -0.2927474618781123 3.1244744726263516
v -0.0018080000000000 0.0337080000000000 0.1236230000000000
vn -0.0037064232358939 -0.4933019757848478 6.2636479413907766
v -0.0014366000000000 0.0343924666666667 0.1236836000000000
vn -0.0010346551360867 -0.5601268292335386 6.2581253558593639
v -0.0013979200000000 0.0339563200000000 0.1236462999999999
vn -0.0268232398705037 -0.0036062150370993 2.1920932319799626
v -0.0073890000000000 0.0378430000000000 0.1237840000000000
vn 0.1928323530856390 -0.0909462148189511 2.9137633478849789
v 0.0221900000000000 0.0367850000000000 0.1232390000000000
vn 0.2001886030283621 -0.1994857969912991 2.9524666272500752
v 0.0213210000000000 0.0353470000000000 0.1232270000000000
vn 0.2391844037017758 -0.0798981563731403 3.4230188159603121
v 0.0230686666666667 0.0371646666666667 0.1231900000000000
vn 0.2083297130716377 -0.1506346149004558 3.1356493053662877
v 0.0219558000000000 0.0361004000000000 0.1232272000000000
vn 0.1034973702430547 -0.0398458983947755 2.9757008221572137
v 0.0151996923076923 0.0375905000000000 0.1236135000000000
vn 0.2179498673062579 -0.2075190196335667 3.2446707576011131
v 0.0219374000000000 0.0355186000000000 0.1231968000000000
vn 0.2553848417588164 -0.0992819042380384 3.8131404428894338
v 0.0223982142857143 0.0370336428571428 0.1232328333333333
vn 0.2020747242932789 -0.1510865707064407 3.0855836669659040
v 0.0213521111111111 0.0360662222222222 0.1232656666666667
vn 0.0849691250672997 -0.0370645557698941 2.3330317984470232
v 0.0156776428571429 0.0373880714285714 0.1235939285714286
vn 0.1759094303642144 -0.0409222647423727 3.1363513923031370
v 0.0199096000000000 0.0378480000000000 0.1234016000000000
vn 0.3406320415497411 -0.0930600480337401 6.2731633881152673
v 0.0195253076923077 0.0375454615384615 0.1234191538461538
vn 0.1587603948066557 -0.0496780963304495 3.0847088650519154
v 0.0188357727272727 0.0371521818181818 0.1234485909090909
vn 0.0811508612124177 -0.1543653286109141 2.2119285422115280
v 0.0161685625000000 0.0346200625000000 0.1234540000000000
vn 0.0815769830961435 -0.1806838168380654 2.1306571127538625
v 0.0157087500000000 0.0341350625000000 0.1234321875000000
vn 0.1911455334972502 -0.0430965362165334 3.1354706014362428
v 0.0209010000000000 0.0378480000000000 0.1233440000000000
vn 0.3605829715857002 -0.1107356215199879 6.2718320183017164
v 0.0204100000000000 0.0374360000000000 0.1233670000000000
vn 0.1721304219793949 -0.2875265559600188 4.1074421945895372
v 0.0157004285714286 0.0350130714285714 0.1235018571428572
vn 0.1671581798728633 -0.3447640566082208 4.2027176611940984
v 0.0152889215686275 0.0345737647058824 0.1234858823529411
vn 0.1822080809664448 -0.0446961415683314 3.1359374746575366
v 0.0205180000000000 0.0378480000000000 0.1233670000000000
vn 0.3800060381656621 -0.1141380362076649 6.2705096436385652
v 0.0208460000000000 0.0374370000000000 0.1233420000000000
vn 0.0953001302230441 -0.1719581645569253 2.2739395602311716
v 0.0154146470588235 0.0349075294117647 0.1235058529411764
vn 0.1566243355938614 -0.3045110317926779 3.9168477430530717
v 0.0158355319148936 0.0344705957446809 0.1234557872340425
vn 0.0439528765458414 -0.0273415809563958 2.1240419826320296
v 0.0103271428571429 0.0374144285714286 0.1237421428571429
vn 0.0996391982115392 -0.2933547982919320 3.1267601887444654
v 0.0137570000000000 0.0337080000000000 0.1234640000000000
vn 0.1163263711791295 -0.2685594900722023 3.0676761721471069
v 0.0148351333333333 0.0345122666666667 0.1234984000000000
vn 0.0683886221931972 -0.0312015519751224 3.1435115818906985
v 0.0116779473684211 0.0371111578947368 0.1237106842105263
vn 0.0834005992325987 -0.2538461615632071 2.8209093553751470
v 0.0126690000000000 0.0345360000000000 0.1235710000000000
vn 0.0776896369369751 -0.2962334921997430 3.1077411264634103
v 0.0117055000000000 0.0337085000000000 0.1235231250000000
vn 0.0823354809058080 -0.3133749682546410 3.5353700058218829
v 0.0112375869565217 0.0338739130434783 0.1235496956521740
vn 0.1080230718036615 -0.0382687283553859 3.2388913564802753
v 0.0143640357142857 0.0371377142857143 0.1236368571428571
vn 0.0590066176864888 -0.2192597190226455 6.2789113605630584
v 0.0070253648648649 0.0361634594594595 0.1237601621621623
vn 0.0314723665681817 -0.1597817870613332 3.2515625207210124
v 0.0076315441176471 0.0355264117647059 0.1237275588235295
vn 0.0820950493280126 -0.0151596458184876 2.4566327935682688
v 0.0146050000000000 0.0378444000000000 0.1236358000000000
vn 0.0865207067416368 -0.0276492913814310 3.1402648769300878
v 0.0131520000000000 0.0378480000000000 0.1236796666666667
vn 0.1202699018636936 -0.3585570352253963 6.2716759319288613
v 0.0099783636363636 0.0352021818181818 0.1236772727272727
vn 0.0541705318369366 -0.1920008531417852 2.9252288136451523
v 0.0097503750000000 0.0349347916666667 0.1236646666666666
vn 0.0693357951559448 -0.2549854319044470 3.0210206447401897
v 0.0107704390243902 0.0340121219512195 0.1235732439024390
vn 0.2016828060868022 -0.0524390705499813 6.2796663061218378
v 0.0143231333333333 0.0376306000000000 0.1236439000000000
vn 0.0203908847807624 -0.0253889084284478 2.7034431707147801
v 0.0071393050847458 0.0376072881355932 0.1237853220338983
vn 0.0772548597467197 -0.0293138040309639 2.7697470616405093
v 0.0133940000000000 0.0370200000000000 0.1236650000000000
vn 0.0935399208472218 -0.2857769003337199 3.1274081573485164
v 0.0126690000000000 0.0337080000000000 0.1234970000000000
vn 0.0766850521091336 -0.2812706266267914 3.2392963731200792
v 0.0117215454545455 0.0344412727272727 0.1235881818181818
vn 0.1714875236996247 -0.5657078647156032 6.2552426674635493
v 0.0122240000000000 0.0340165000000000 0.1235385000000000
vn 0.0859161425355338 -0.0308345186028829 3.1402654690557497
v 0.0130310000000000 0.0370200000000000 0.1236750000000000
vn 0.0564180149287093 -0.2344449946833997 2.4525536142690365
v 0.0114290000000000 0.0337140000000000 0.1235300000000000
vn 0.1524103324356829 -0.5710777738487210 6.2552246659741844
v 0.0116931000000000 0.0339132000000000 0.1235429666666666
vn 0.0961212660521747 -0.3051366941573049 3.4997962118588513
v 0.0122483750000000 0.0344047500000000 0.1235716250000000
vn 0.1107497263367528 -0.0402754414299407 3.1391014279279230
v 0.0147481071428571 0.0370696428571429 0.1236224285714286
vn 0.1079148831776428 -0.3056468343500200 3.1128518369301954
v 0.0142698000000000 0.0337080000000000 0.1234458000000000
vn 0.0918910340552745 -0.2695194103067362 3.0580727296858941
v 0.0131319333333333 0.0345340000000000 0.1235571333333333
vn 0.1307842654510667 -0.3201013706011667 3.5035687881823026
v 0.0147927674418605 0.0338703720930233 0.1234431162790697
vn 0.0901468825143366 -0.0349981684414055 3.5591053143534186
v 0.0121462500000000 0.0371737500000000 0.1237007500000000
vn 0.0787371908686976 -0.0261849299069824 2.8544476052876004
v 0.0126690000000000 0.0370200000000000 0.1236850000000000
vn 0.0877227311742120 -0.2412663988794302 2.4310479184735603
v 0.0146068000000000 0.0337120000000000 0.1234342000000000
vn 0.0989344747000488 -0.2662418831186865 3.0854525409225158
v 0.0139270000000000 0.0344748571428572 0.1235271428571429
vn 0.2248452989298572 -0.5845228775600428 6.2517587519748501
v 0.0144220555555556 0.0339540555555556 0.1234648888888889
vn 0.0939805976296528 -0.2875783700464243 3.1269750047474174
v 0.0131855714285714 0.0337080000000000 0.1234812857142857
vn 0.1229532296732496 -0.3008344778219005 3.4382734721874360
v 0.0143763636363636 0.0344220000000000 0.1235077272727273
vn 0.2059829776960946 -0.5699064178499338 6.2537885530850934
v 0.0139756666666667 0.0340238666666667 0.1234866666666667
vn 0.0630193630389864 -0.0318559756592053 3.1982171450983801
v 0.0112278305084746 0.0370497118644068 0.1237196610169491
vn 0.0678077965771913 -0.0399114223966190 3.1420000538749813
v 0.0106876666666667 0.0375193666666667 0.1237360333333333
vn 0.1650558710005205 -0.0336809403756626 3.1370590312308706
v 0.0193800000000000 0.0378480000000000 0.1234300000000000
vn 0.3556787796476477 -0.1003061559622366 6.2722918341059373
v 0.0199665000000000 0.0375563333333333 0.1233943333333334
vn 0.0858109798674857 -0.0263348618782280 1.6963322291887568
v 0.0184135595238095 0.0371707142857143 0.1234703214285714
vn 0.1234142542957907 -0.1958926411355279 2.9964997476806361
v 0.0162679682539683 0.0350487460317460 0.1234802698412699
vn 0.1235301059466229 -0.2804873868094518 3.2457455511429680
v 0.0153332083333333 0.0340546875000000 0.1234397500000000
vn 0.0397830053673540 -0.0582485868423877 4.3502994206813819
v 0.0070779081632653 0.0369923673469388 0.1237800102040816
vn 0.0300609677755222 -0.0763736476065733 3.1233166095772598
v 0.0076376031746032 0.0366196825396826 0.1237672222222222
vn 0.0928679960684428 -0.0165748854939751 3.1401707469165698
v 0.0137580000000000 0.0378480000000000 0.1236620000000000
vn 0.0557101858902499 -0.1887666029130313 2.8145334432192586
v 0.0106719666666667 0.0349333000000000 0.1236471333333333
vn 0.0761237937270050 -0.2842455419978674 3.8618652867225363
v 0.0102153943661972 0.0345050985915493 0.1236256056338028
vn 0.0193893339408355 -0.0252704941458558 2.4134834043581619
v 0.0075074545454545 0.0374121363636364 0.1237809545454545
vn 0.0853555890404199 -0.2956438122939135 3.1257568622582972
v 0.0123090000000000 0.0337080000000000 0.1235070000000000
vn 0.1084792008469952 -0.0421758782438725 3.5863808425506187
v 0.0138062222222222 0.0371802222222222 0.1236547777777778
vn 0.0671033540812305 -0.2571183732128471 3.0059821273355936
v 0.0112401025641026 0.0345288717948718 0.1236063589743590
vn 0.0263496087938449 -0.0440402313901805 2.7812910560829560
v 0.0076395606060606 0.0370562272727273 0.1237755606060607
vn 0.0402959974192023 -0.1026602847850555 4.0238314202716507
v 0.0071297012195122 0.0365842378048780 0.1237712439024390
vn 0.1859226316790680 -0.0549148353382849 6.2801436258887930
v 0.0138048666666667 0.0375296000000000 0.1236589333333334
vn 0.0531044861854967 -0.1757647752730909 3.0541599778613033
v 0.0097076190476190 0.0351719047619048 0.1236801904761904
vn 0.1242647332472518 -0.4003112514257025 6.2690307571515227
v 0.0102464545454545 0.0349744545454545 0.1236582045454545
vn 0.0881449455623736 -0.3374471077450503 4.2569459383938000
v 0.0108258518518519 0.0345523333333333 0.1236169259259259
vn 0.0305927942120414 -0.1175964682202805 3.1734132568469651
v 0.0076251228070175 0.0360459298245614 0.1237499298245614
vn 0.0583570329930224 -0.3151966938316517 6.2748370078791753
v 0.0070609508196721 0.0354522295081968 0.1237295409836066
vn 0.0974889986927170 -0.0156442172361855 3.1279672387221504
v 0.0143065000000000 0.0378480000000000 0.1236455000000000
vn 0.0469716945443982 -0.1555814256444509 2.2706775100320065
v 0.0098815000000000 0.0346143750000000 0.1236400000000000
vn 0.0530740479628843 -0.2037403551915601 2.4821745161667508
v 0.0104131000000000 0.0341618500000000 0.1235937000000000
vn 0.1229236905590776 -0.0386421212596886 3.5983038453313241
v 0.0147908888888889 0.0376891111111111 0.1236284888888888
vn 0.0294616206996689 -0.1784033570090165 2.9394340317387577
v 0.0076943214285714 0.0350329285714286 0.1236995476190476
vn 0.0405578327077879 -0.3000733777589474 4.1417858973608119
v 0.0070547051282051 0.0346583846153846 0.1236812820512821
vn 0.0255204948342513 -0.2447577882274237 2.8973539812894193
v 0.0072250746268657 0.0340055223880597 0.1236265970149254
vn 0.0853755889965751 -0.0304556769301813 3.1402574532994021
v 0.0126690000000000 0.0378480000000000 0.1236930000000000
vn 0.0718976603240830 -0.1932672466540540 3.8656818787188274
v 0.0101446282051282 0.0355537307692308 0.1236929743589743
vn 0.0490194766526986 -0.0559001551983788 2.4002983998137277
v 0.0098992000000000 0.0368692000000000 0.1237417000000000
vn 0.1527821974386651 -0.0498798968933127 6.2810801762730026
v 0.0120795000000000 0.0375230000000000 0.1237058750000000
vn 0.0611346116152039 -0.5021088672472818 6.2626959437320915
v 0.0071552195121951 0.0344151463414634 0.1236620487804878
vn 0.0532005255863702 -0.0066542639724842 2.4795836317721158
v 0.0114330000000000 0.0378420000000000 0.1237220000000000
vn 0.0505231676177182 -0.1431669999733645 2.9601817505433816
v 0.0096717058823529 0.0355430784313725 0.1237005882352941
vn 0.0751518267692415 -0.0691767430521876 3.8797770348832437
v 0.0102341020408163 0.0370793673469388 0.1237397551020408
vn 0.0514164706732348 -0.0622238635931123 2.7835192145831540
v 0.0106538333333333 0.0366242222222222 0.1237227777777778
vn 0.1390328681262979 -0.0480895786330682 6.2814446832821398
v 0.0116431666666667 0.0375993333333333 0.1237162222222223
vn 0.2178714371017252 -0.0521593935979973 3.1335865102728038
v 0.0228450000000000 0.0378480000000000 0.1232190000000000
vn 0.4294800698469087 -0.1323486229313972 6.2669534189617000
v 0.0225790000000000 0.0374430000000000 0.1232310000000000
vn 0.1232889243603151 -0.1608303766562517 2.9959339576359212
v 0.0163133750000000 0.0355454750000000 0.1235082500000001
vn 0.0943093847749719 -0.0573512735259070 2.4041626741743611
v 0.0154314871794872 0.0366195897435897 0.1235876666666667
vn 0.1629682201550834 -0.0947921314368923 4.2021335017596204
v 0.0158085606060606 0.0370433939393939 0.1235829848484848
vn 0.1949263307412969 -0.0511341263537245 3.1350699516177265
v 0.0214408000000000 0.0378480000000000 0.1233114000000000
vn 0.4054645033339287 -0.1281330993451898 6.2687127204797202
v 0.0219245000000000 0.0374405000000000 0.1232740000000000
vn 0.0747591833154618 -0.0523414401961724 1.9565496335277248
v 0.0161628181818182 0.0369926363636364 0.1235680909090909
vn 0.1403144627044887 -0.1836413335832027 3.4027173302077358
v 0.0158293673469388 0.0355423469387755 0.1235280000000000
vn 0.0318844767578906 -0.2220799183317273 3.1717381309493282
v 0.0076694642857143 0.0346807857142857 0.1236766785714286
vn 0.0414704677486750 -0.2507350546774888 4.1316153914878360
v 0.0071451398601399 0.0350176923076923 0.1237042027972028
vn 0.0167057828804434 -0.1900140680998266 2.3448400132016110
v 0.0075408125000000 0.0341400625000000 0.1236352500000000
vn 0.0770176462086668 -0.0169480621696687 3.1399818322148709
v 0.0123090000000000 0.0378480000000000 0.1237020000000000
vn 0.0681539569019373 -0.1426388068333581 3.7989344021629390
v 0.0101567586206897 0.0360176551724138 0.1237130000000000
vn 0.0549591453741788 -0.0841158153986964 3.0693897757938737
v 0.0098041785714286 0.0365265535714286 0.1237356607142857
vn 0.0277249469531893 -0.2184292564320692 2.7869755438395192
v 0.0076617727272727 0.0344435000000000 0.1236589772727273
vn 0.0707406671070001 -0.0154487395933988 3.1199633304211107
v 0.0116958750000000 0.0378476250000000 0.1237163750000000
vn 0.0522684201089462 -0.1130592276748612 3.0196029817931467
v 0.0097164833333333 0.0360943833333333 0.1237236000000000
vn 0.1214131182720289 -0.1719568492724604 6.2794871086724244
v 0.0103736538461538 0.0365437307692308 0.1237261538461538
vn 0.0827674212130020 -0.0618564274309647 4.1889091249013886
v 0.0107686315789474 0.0369599473684211 0.1237271842105263
vn 0.0754458818222114 -0.0323229906473930 3.5388061912593267
v 0.0112323018867925 0.0376787358490566 0.1237258679245283
vn 0.2104078862786399 -0.0510516675843860 3.1340878421025971
v 0.0224520000000000 0.0378480000000000 0.1232460000000000
vn 0.4378571594724671 -0.1295771718458715 6.2665402800144614
v 0.0230180000000000 0.0374450000000000 0.1232000000000000
vn 0.1290740029488917 -0.1329148949186411 3.1651257556498682
v 0.0162882469135802 0.0360664444444445 0.1235340246913580
vn 0.1736272564985069 -0.1233703217754422 4.3109147748633401
v 0.0157555633802817 0.0365293661971831 0.1235723098591550
vn 0.1455073909668236 -0.0676900401168389 3.9696086651767590
v 0.0151972413793104 0.0369901724137931 0.1236051034482758
vn 0.2049298991349043 -0.0537646595824946 3.1343811755889019
v 0.0220620000000000 0.0378480000000000 0.1232720000000000
vn 0.3927976989692644 -0.1195620481456268 6.2697118628714570
v 0.0212750000000000 0.0374390000000000 0.1233150000000000
vn 0.1309021917043124 -0.1337938237740831 3.2284056666129226
v 0.0158134000000000 0.0360630000000000 0.1235532000000000
vn 0.1164829487505881 -0.0915589794182018 2.9131820817853971
v 0.0162792222222222 0.0365262592592593 0.1235511666666667
vn -0.0101673764601077 -0.2785501517209260 3.1293584636246954
v -0.0035110000000000 0.0337080000000000 0.1236210000000000
vn -0.0092847021330650 -0.2610200220373357 3.1392342049539224
v -0.0039202500000000 0.0345337500000000 0.1236907500000000
vn -0.0142387850584545 -0.1542663303538443 2.1750644804270793
v -0.0074208000000000 0.0344962000000000 0.1236660000000000
vn -0.0247653293395615 -0.0580867904287911 2.6633601938804849
v -0.0070380000000000 0.0367700000000000 0.1237770000000000
vn -0.0682441690312377 -0.3212295318105371 3.6247129636906594
v -0.0100702282608696 0.0339116413043479 0.1235777173913044
vn -0.0664047397051471 -0.0666089403157428 2.7971491117098513
v -0.0120775365853659 0.0365932682926829 0.1236907073170731
vn -0.0996106665189608 -0.0768589001705412 4.0636272537774776
v -0.0116680000000000 0.0370117105263158 0.1237092631578947
vn -0.0923595452140470 -0.0373420701092015 3.1751992362914985
v -0.0137361428571429 0.0376100714285714 0.1236619642857143
vn -0.0920850886211541 -0.0350256171659064 3.0917039299941536
v -0.0133233928571429 0.0370695000000000 0.1236677857142858
vn -0.0532892816397071 -0.2226224123966578 2.2939304013468584
v -0.0099158000000000 0.0337086000000000 0.1235616000000000
vn -0.0619526426579323 -0.2349988709581037 3.1331996272616340
v -0.0107030000000000 0.0345220000000000 0.1236170000000000
vn -0.0630167733778085 -0.1808573286145565 3.1389744010822729
v -0.0111300000000000 0.0351590000000000 0.1236520000000000
vn -0.0439537878121225 -0.2068132214617122 2.3459802338546791
v -0.0096932605042017 0.0339513109243697 0.1235882773109243
vn -0.1513689496481811 -0.1757167495693241 6.2787693311307109
v -0.0118107666666667 0.0365313777777778 0.1236955666666666
vn -0.1025757334863727 -0.0617854834092578 4.2031569718185748
v -0.0122315312500000 0.0369834843750000 0.1236953281250000
vn -0.0701670073847231 -0.0322647369753555 2.3264388218964545
v -0.0141848260869565 0.0374176521739131 0.1236463913043478
vn -0.0624850980227314 -0.2083126331560458 2.0255513509430965
v -0.0099690000000000 0.0337090000000000 0.1235600000000000
vn -0.0605453938163379 -0.2063461520547198 3.1324392057192361
v -0.0109160000000000 0.0348390000000000 0.1236360000000000
vn -0.0629053182912765 -0.1854682889225101 3.1315232658637941
v -0.0102000000000000 0.0352590000000000 0.1236760000000000
vn -0.1084771814699956 -0.2368632704660369 2.5624625811336088
v -0.0163160649350649 0.0339545259740260 0.1233890974025975
vn -0.1552283564426843 -0.1470274131692758 4.4646090226735922
v -0.0146813000000000 0.0365365500000000 0.1236123000000000
vn -0.1269439264809324 -0.0410031983353181 4.5754944190545075
v -0.0132103684210526 0.0376653684210526 0.1236773157894736
vn -0.1066265566844282 -0.2327092652590222 2.3666558042715149
v -0.0160640000000000 0.0337160000000000 0.1233770000000000
vn -0.1046250457925010 -0.1016631863018498 2.7127491366932959
v -0.0143557500000000 0.0360467500000000 0.1236065000000000
vn -0.0666074610052762 -0.0129321178762321 2.4455676210611710
v -0.0129560000000000 0.0378462000000000 0.1236852000000000
vn -0.1314296581485730 -0.2785124579784876 3.0768943619421276
v -0.0158913962264151 0.0339042264150943 0.1234026226415094
vn -0.0658791193704744 -0.0483326770633298 2.0290916853050214
v -0.0146547333333333 0.0369441000000000 0.1236233666666667
vn -0.0940154750829126 -0.0338077848337679 3.5419453120799957
v -0.0127526666666667 0.0376794888888889 0.1236899777777777
vn -0.0986222301601093 -0.2075824365772781 2.0380074677487285
v -0.0161650000000000 0.0337092857142857 0.1233714285714286
vn -0.0826044765686701 -0.0848746583461318 2.3370550310855132
v -0.0150710000000000 0.0364670000000000 0.1235960000000000
vn -0.0509136798298997 -0.0124650347827252 1.9285259086933759
v -0.0131450000000000 0.0378446000000000 0.1236802000000000
vn -0.1157283338162868 -0.4899252609804470 6.2628596827592755
v -0.0102126333333333 0.0344625000000000 0.1236222333333333
vn -0.1009495377194623 -0.0371343276749738 3.6071240152392581
v -0.0130872222222222 0.0371272777777778 0.1236754444444444
vn -0.0503521675488402 -0.2278597817465417 2.7622261394395382
v -0.0104910000000000 0.0342060000000000 0.1235960000000000
vn -0.0502445502827336 -0.2193209950598267 2.7049358321264609
v -0.0097145555555556 0.0344051527777778 0.1236268611111111
vn -0.0793913391131598 -0.1223925290315566 3.3807778538678677
v -0.0116959565217391 0.0361571739130435 0.1236859130434783
vn -0.0766336804375883 -0.0323931452629344 3.0452300938296020
v -0.0127813333333333 0.0370565185185185 0.1236826296296296
vn -0.0579923813554900 -0.2049781688206896 3.0183565149174196
v -0.0099980000000000 0.0349570000000000 0.1236620000000000
vn -0.1126927930801288 -0.2366995603167825 2.7596061618551966
v -0.0163094285714286 0.0344036904761905 0.1234301666666666
vn -0.1300344260240076 -0.1057519217273011 3.8675475030944320
v -0.0142062359550562 0.0365150337078652 0.1236277078651685
vn -0.1218381231098929 -0.0617705819409598 3.9310777958911034
v -0.0137260789473684 0.0369913947368421 0.1236543157894737
vn -0.0605537981586967 -0.0350583851931953 2.2307704455092852
v -0.0117983846153846 0.0373816923076923 0.1237115384615385
vn -0.0701606802977520 -0.0228694430746164 2.4853137607316729
v -0.0134893888888889 0.0377263333333333 0.1236700000000000
vn -0.0927217009243263 -0.1880604525360752 2.7637309426797105
v -0.0158820000000000 0.0352580000000000 0.1235100000000000
vn -0.2628140017297682 -0.4933593975124820 6.2580477781835482
v -0.0156384210526316 0.0345431052631579 0.1234695263157895
vn -0.1265358219507760 -0.0791242275706355 3.9634957141398655
v -0.0143051489361702 0.0370895319148936 0.1236377659574468
vn -0.0894757548392233 -0.0605409730161098 2.6871574252857569
v -0.0139380000000000 0.0366727000000000 0.1236406000000000
vn -0.0811514813764877 -0.0398127397779265 3.1025736529668473
v -0.0122409500000000 0.0375296250000000 0.1237018500000000
vn -0.1266395682933371 -0.1554217087118282 3.4111428496470935
v -0.0147048181818182 0.0356600909090909 0.1235771818181818
vn -0.1076802812560459 -0.1292717658465490 2.9666673237121426
v -0.0153552000000000 0.0360442000000000 0.1235706000000000
vn -0.1129019860422018 -0.2105282234586103 2.9266690357205452
v -0.0160850000000000 0.0349560000000000 0.1234820000000000
vn -0.1347690690973860 -0.2206667895572866 6.2777634914310996
v -0.0112040000000000 0.0361790000000000 0.1236980000000000
vn -0.0664563574428637 -0.0881156338237634 3.1204878836806760
v -0.0111452857142857 0.0366102857142857 0.1237124285714286
vn -0.0644181574491028 -0.1644047623871183 3.1393564153667199
v -0.0104030000000000 0.0355600000000000 0.1236890000000000
vn -0.0590815124739992 -0.0568823342946208 2.5265892812535427
v -0.0113805238095238 0.0369201904761905 0.1237143809523810
vn -0.0667832425693552 -0.1431700480950926 3.0225350006198006
v -0.0113460000000000 0.0354800000000000 0.1236650000000000
vn -0.0669608419778180 -0.1291355252161992 3.0973766270301271
v -0.0106726666666667 0.0359626666666667 0.1237013333333333
vn -0.1295576345665091 -0.2332443101128125 3.0281034023529201
v -0.0153790000000000 0.0345220000000000 0.1234790000000000
vn -0.1161777655735134 -0.1783961155688881 3.0017011411269010
v -0.0149520000000000 0.0351590000000000 0.1235400000000000
vn -0.1347185174931069 -0.2088213569202929 3.1324533180101208
v -0.0151660000000000 0.0348400000000000 0.1235110000000000
vn -0.1409458366121859 -0.2218887129410465 3.6721516680276678
v -0.0156284000000000 0.0354346000000000 0.1235302000000000
vn -0.2163987983662801 -0.0505017116035375 3.1163538472625376
v -0.0230380000000000 0.0378480000000000 0.1232060000000000
vn -0.1670778803541365 -0.0506885232452842 2.9320305929178758
v -0.0199313333333333 0.0370200000000000 0.1233863333333333
vn -0.1334248760057870 -0.2274893668728596 2.2221458984578115
v -0.0194152000000000 0.0337100000000000 0.1232058000000000
vn -0.2837042381841381 -0.0833905520919028 3.9828647539059467
v -0.0234527333333333 0.0376657666666667 0.1231737333333334
vn -0.1693839062342876 -0.2687952556861039 2.9848747756737710
v -0.0188320923076923 0.0340091846153846 0.1232695384615384
vn -0.1711184084839829 -0.2557208778001027 3.1223235808720946
v -0.0184701724137931 0.0345552068965517 0.1233381896551724
vn -0.2020883731627870 -0.1696689347646467 3.0908928577230954
v -0.0214230000000000 0.0355473529411765 0.1232331176470588
vn -0.1994144436895754 -0.1695564438003184 3.2159995095190532
v -0.0210025454545455 0.0360720000000000 0.1232883636363636
vn -0.1391445206256255 -0.0534946800475132 1.9243819535601272
v -0.0244174285714286 0.0374387142857143 0.1230982857142857
vn -0.1998527600555347 -0.9529545879060844 2.9681006595672517
v -0.0212980000000000 0.0345360000000000 0.1231680000000000
vn -0.1947068395692900 -0.3211170454180823 3.1190382991554384
v -0.0203730000000000 0.0337080000000000 0.1231470000000000
vn -0.3737648581718456 -0.6065416278608015 6.2425744042097069
v -0.0198321500000000 0.0340512500000000 0.1232157000000000
vn -0.1494938876694143 -0.1696199341018638 2.8124254352122140
v -0.0184389428571429 0.0354668571428571 0.1234034000000000
vn -0.1612660072331412 -0.0511965739720460 3.1087057159318832
v -0.0188781250000000 0.0371518750000000 0.1234463333333333
vn -0.1564749796509240 -0.0337589278622186 2.2018819787625179
v -0.0233268000000000 0.0378430000000000 0.1231854000000000
vn -0.1817866834441692 -0.0575616107374512 3.1380446473562080
v -0.0203181818181818 0.0370205454545455 0.1233641818181818
vn -0.4340587569677963 -0.1175832011196240 6.2670322551559634
v -0.0229762500000000 0.0376563214285714 0.1232071428571429
vn -0.2203122197219042 -0.3609476631833268 3.7601240324444296
v -0.0192765263157895 0.0338883684210526 0.1232325000000000
vn -0.1595145003851438 -0.2063085038883049 2.9764573128867307
v -0.0184189615384615 0.0350290512820513 0.1233766666666666
vn -0.1965737405276055 -0.1680539612713671 3.1207099655866104
v -0.0210093684210526 0.0355606842105263 0.1232605263157895
vn -0.2162485898779030 -0.1804860446648256 3.3017513402782650
v -0.0215403571428571 0.0359972857142857 0.1232501428571428
vn -0.1838754752042814 -0.1421799873461528 2.2842422805381810
v -0.0252540000000000 0.0357180000000000 0.1229590000000000
vn -0.1659047488777270 -0.0362287345127659 3.1369759922834128
v -0.0192966000000000 0.0378480000000000 0.1234344000000000
vn -0.2042681128471076 -0.2789548259717353 2.9844216505532684
v -0.0217852222222222 0.0345336666666667 0.1231344444444444
vn -0.1715200989988985 -0.2445840694290869 2.2277756574673351
v -0.0233252000000000 0.0337130000000000 0.1229404000000000
vn -0.4708171578456768 -0.6439367855211032 6.2322490562544290
v -0.0229819642857143 0.0339250714285714 0.1229897142857143
vn -0.3100555155471761 -0.2150940539618733 3.8631792996355978
v -0.0250244218750000 0.0360486875000000 0.1229971093750000
vn -0.3275081447317425 -0.1396351157644273 4.3412410186534069
v -0.0244194166666667 0.0370538888888889 0.1230874444444445
vn -0.1846792682208785 -0.0846628924884020 2.3933510703046621
v -0.0240469090909091 0.0366999090909091 0.1231036666666667
vn -0.3226603551924209 -0.0882804693712964 6.2742564528546438
v -0.0188457441860465 0.0375404651162791 0.1234542325581396
vn -0.1846252973121910 -0.1431397295377412 2.3473404732771654
v -0.0252532000000000 0.0358230000000000 0.1229656000000000
vn -0.1590950473239198 -0.0377624524132936 3.1126091532689104
v -0.0187685000000000 0.0378480000000000 0.1234620000000000
vn -0.2326766949538286 -0.3358849879215082 3.1006523796410397
v -0.0229800000000000 0.0337080000000000 0.1229664285714286
vn -0.2995629728144119 -0.3903130667151741 3.8639086370510221
v -0.0234723064516129 0.0338990483870968 0.1229494999999999
vn -0.2331219194651087 -0.3040626488512993 3.2624897015846401
v -0.0224471538461538 0.0344392307692308 0.1230791538461538
vn -0.3081938567504700 -0.2474188350747455 3.8192610703902306
v -0.0250618717948718 0.0355438846153846 0.1229636282051281
vn -0.3153562013045721 -0.1633738992777891 4.0474620278383924
v -0.0243565576923077 0.0365524038461539 0.1230740576923077
vn -0.3001531622988655 -0.1152067387699430 3.9811231595161178
v -0.0239461020408163 0.0369487142857143 0.1231198571428572
vn -0.3409505072430141 -0.0930680945670271 6.2731697256778993
v -0.0194356000000000 0.0375300666666667 0.1234234000000000
vn -0.4319817585897283 -0.6121704351814168 6.2382248057048706
v -0.0218260000000000 0.0341180000000000 0.1230930000000000
vn -0.4523062363401354 -0.6638873768873298 6.2315948050250665
v -0.0225540000000000 0.0339130000000000 0.1230200000000000
vn -0.4545485623087306 -0.3700947035478017 6.2552756436753132
v -0.0245260000000000 0.0358790000000000 0.1230280000000000
vn -0.2052089693223123 -0.1209199310286625 2.5915112010064463
v -0.0250036037735849 0.0364549622641510 0.1230187735849056
vn -0.1587790485822269 -0.0768188447806374 2.0591239219376543
v -0.0248295294117647 0.0369040588235294 0.1230507058823529
vn -0.1298562739373593 -0.0357128401038051 2.5819987728128453
v -0.0184071764705882 0.0375831838235294 0.1234769485294118
vn -0.1063497624229064 -0.0242237158331034 2.1414708311422448
v -0.0185660000000000 0.0378430000000000 0.1234720000000000
vn -0.2230273385780123 -0.3285470490802177 3.1164897703906083
v -0.0222350000000000 0.0337080000000000 0.1230210000000000
vn -0.2190584042132747 -0.3215576968579019 3.1177919224931663
v -0.0217650000000000 0.0337080000000000 0.1230550000000000
vn -0.4534495285484371 -0.6178865793495661 6.2361135036840789
v -0.0225360000000000 0.0341200000000000 0.1230430000000000
vn -0.2625558355015244 -0.3299434808814133 3.3459528858571250
v -0.0234722500000000 0.0344621875000000 0.1230051875000000
vn -0.2376201002334191 -0.3046423143068456 3.1545372110338468
v -0.0228949230769231 0.0344400000000000 0.1230466153846154
vn -0.2622050962807826 -0.2162900301387704 3.2526844499738345
v -0.0244909259259259 0.0355317962962963 0.1230091666666666
vn -0.2535950982396862 -0.1658176418728772 3.2665364340306420
v -0.0244579696969697 0.0360580303030303 0.1230429090909091
vn -0.2803554572863641 -0.1466329457405169 3.5751700434006484
v -0.0248644444444444 0.0366623703703704 0.1230387407407408
vn -0.1806182038246553 -0.0471695190982449 3.1360079414536659
v -0.0204485000000000 0.0378480000000000 0.1233705000000000
vn -0.2227716737895992 -0.2764136094018407 2.8540904148516133
v -0.0239682380952381 0.0339762857142857 0.1229183809523810
vn -0.2379264603509563 -0.2263793456682654 2.9282665998805868
v -0.0249901129032258 0.0350361774193549 0.1229327419354839
vn -0.1132102778784111 -0.0936504728463633 1.6982791941651074
v -0.0218972193548387 0.0355508516129033 0.1232017354838709
vn -0.2524509544055945 -0.0828160298365771 3.4428762431727122
v -0.0235491176470588 0.0370852647058824 0.1231535294117647
vn -0.2096612432188190 -0.0482876539205630 3.1341834165912319
v -0.0224550000000000 0.0378480000000000 0.1232455000000000
vn -0.2004313603888423 -0.0711672589288412 3.1539168834899525
v -0.0215450000000000 0.0370241666666667 0.1232891666666667
vn -0.1729667860232111 -0.1462882802742455 2.9096244647717184
v -0.0204744000000000 0.0361920000000000 0.1233258000000000
vn -0.1628244939032606 -0.1937429909583794 3.1321367454917382
v -0.0191623333333333 0.0352380000000000 0.1233510000000000
vn -0.1232895530055025 -0.1799120845320996 2.0809099039129157
v -0.0185160000000000 0.0341449000000000 0.1233000000000000
vn -0.2325686652891334 -0.3613181851839081 4.3083868187109786
v -0.0189528941176470 0.0346107176470588 0.1233166470588236
vn -0.1805012352245619 -0.1583459370757578 3.1171475264418738
v -0.0198715000000000 0.0355226666666667 0.1233279444444445
vn -0.2053970414957455 -0.3137807054775680 3.1195136938841883
v -0.0208340000000000 0.0337080000000000 0.1231180000000000
vn -0.2037575895629593 -0.3213014257759735 3.4392619703611604
v -0.0198336842105263 0.0343872631578947 0.1232470000000000
vn -0.3385880358062039 -0.3615789472737783 6.2635293284093532
v -0.0189334464285714 0.0355055178571429 0.1233794464285714
vn -0.1804829763705557 -0.1638412396416231 3.1838370773966016
v -0.0193423666666667 0.0360595666666667 0.1233854666666666
vn -0.0832263156379713 -0.0255632281352058 1.6424486083269887
v -0.0184097875000000 0.0371831750000000 0.1234707625000001
vn -0.2034809943918515 -0.0477075245663486 3.1345996867703714
v -0.0218476000000000 0.0378480000000000 0.1232854000000000
vn -0.1857600542361983 0.6090973644984817 3.0673734319568213
v -0.0210165000000000 0.0370200000000000 0.1233220000000000
vn -0.1708119671034812 -0.1462298144554006 2.9100184263027828
v -0.0199270000000000 0.0361920000000000 0.1233583333333333
vn -0.4202186455294140 -0.1184185811758732 6.2679383004090719
v -0.0223994583333333 0.0375547500000000 0.1232447083333333
vn -0.1851270488762252 -0.3012904642781621 3.2887700298848133
v -0.0192705978260869 0.0344936086956522 0.1232890543478261
vn -0.2066163017693421 -0.2692859283374075 3.9144284248255081
v -0.0189429193548387 0.0350075322580645 0.1233470161290323
vn -0.1985917476999388 -0.1689468879428796 3.3146837988192042
v -0.0203408571428571 0.0355891428571428 0.1233034285714286
vn -0.2088846484169326 -0.3141873264196425 3.1190258401521316
v -0.0212980000000000 0.0337080000000000 0.1230870000000000
vn -0.1941949815200940 -0.2846116997592727 3.1048118449171795
v -0.0203939333333333 0.0344614666666667 0.1232194666666667
vn -0.2127744865429361 -0.2055449113362971 3.8164881846077887
v -0.0193737317073171 0.0354599756097561 0.1233524959349593
vn -0.1587265699702835 -0.1489496793274990 2.8436364627942829
v -0.0188968723404255 0.0359825744680851 0.1234065531914894
vn -0.1290856531320284 -0.1290609517821874 2.3867664763337575
v -0.0185750000000000 0.0358230000000000 0.1234160000000000
vn -0.1999477278005196 -0.2846665670465929 3.0192494198731565
v -0.0210125000000000 0.0345325000000000 0.1231861000000000
vn -0.1918164001385758 -0.3146809401614380 3.1162318655350707
v -0.0199140000000000 0.0337080000000000 0.1231760000000000
vn -0.2110184581661487 -0.0726598043454394 2.8796712277788381
v -0.0239302894736842 0.0376182631578947 0.1231385000000000
vn -0.1802991001268919 -0.0603903147785090 3.3008180821768169
v -0.0193862727272727 0.0371323636363636 0.1234188181818182
vn -0.3929173689596175 -0.6057541423361557 6.2413920631508670
v -0.0204230000000000 0.0341150000000000 0.1231860000000000
vn -0.1888003529112863 -0.0446163527563576 3.1355774223125761
v -0.0210450000000000 0.0378480000000000 0.1233352000000000
vn -0.3958761985860337 -0.1198964685489192 6.2694435169863452
v -0.0215260000000000 0.0374390000000000 0.1233000000000000
vn -0.2050085790922169 0.1059083241972830 3.1112080087645562
v -0.0219048000000000 0.0370200000000000 0.1232656000000000
vn -0.3173685798635741 -0.3727966006677988 3.9601928717441011
v -0.0239054418604651 0.0345815348837209 0.1229821395348838
vn -0.3419218835713310 -0.3360661334460290 4.1922035827723851
v -0.0244597500000000 0.0350682500000000 0.1229785357142857
vn -0.1939129166689987 -0.0459179590854654 3.1352174105553914
v -0.0214450000000000 0.0378480000000000 0.1233110000000000
vn -0.3746454231940772 -0.1135084571559655 6.2708958916146740
v -0.0208360000000000 0.0374370000000000 0.1233420000000000
vn -0.2035423460141380 -0.0680275312614848 3.0343963222603563
v -0.0223419285714286 0.0370245000000000 0.1232366428571429
vn -0.3264207029472241 -0.3610254470476597 4.0997626407123064
v -0.0244946164383561 0.0345120547945206 0.1229287945205480
vn -0.2094001283305494 -0.2204487664660729 2.4353178273901075
v -0.0240535000000000 0.0348818181818182 0.1229965909090909
vn -0.1774013507703620 -0.0458796593365828 3.1362002983778936
v -0.0199313333333333 0.0378480000000000 0.1234000000000000
vn -0.2282185102817016 -0.0724440231938464 3.2616931298675174
v -0.0229875000000000 0.0370958888888889 0.1231942222222222
vn -0.1722640476156158 -0.2131185722507072 2.2572740770600808
v -0.0243909375000000 0.0341643125000000 0.1229038750000000
vn -0.1717495676150368 -0.1788474776546385 2.1879396965857865
v -0.0248451600000000 0.0346207200000000 0.1229101600000000
vn -0.0937607427936171 -0.0773614184088828 1.4046711643988381
v -0.0219574433962264 0.0360116603773585 0.1232230943396226
# 476 vertices, 0 vertices normals


usemtl material_0
vt 0.0516749992966652 0.2244389951229095
vt 0.0775130018591881 0.1924500018358231
vt 0.0516749992966652 0.1924500018358231
f 289/1/289 309/2/309 288/3/288
vt 0.1033509969711304 0.2564269900321960
vt 0.1033509969711304 0.1924500018358231
f 9/2/9 14/4/14 8/5/8
vt 0.0516749992966652 0.2564269900321960
f 12/4/12 2/1/2 14/6/14
f 304/1/304 309/4/309 289/2/289
vt 0.0258380006998777 0.2244389951229095
f 15/6/15 9/1/9 8/7/8
vt 0.0258380006998777 0.2564269900321960
f 3/7/3 10/8/10 2/6/2
vt 0.1033509969711304 0.1604620069265366
vt 0.0775130018591881 0.1604620069265366
f 3/5/3 11/9/11 1/10/1
f 304/10/304 289/2/289 284/5/284
vt 0.1033509969711304 0.3818669915199280
vt 0.1033509969711304 0.3191469907760620
vt 0.0516749992966652 0.3191469907760620
f 465/11/465 471/12/471 466/13/466
vt 0.0516749992966652 0.3818669915199280
f 450/13/450 379/14/379 392/11/392
vt 0.0516749992966652 0.2877869904041290
vt 0.0258380006998777 0.2877869904041290
f 424/13/424 422/15/422 408/16/408
vt 0.0258380006998777 0.3191469907760620
f 163/16/163 162/17/162 166/13/166
f 115/15/115 69/6/69 66/8/66
f 18/8/18 289/16/289 310/15/310
f 399/15/399 414/4/414 422/6/422
f 334/12/334 337/15/337 343/13/343
f 53/4/53 57/15/57 169/12/169
vt 0.0516749992966652 0.7218549847602844
vt 0.1033509969711304 0.6909469962120056
vt 0.0516749992966652 0.6909469962120056
f 333/18/333 342/19/342 362/20/362
vt 0.1033509969711304 0.7527629733085632
vt 0.0516749992966652 0.7527629733085632
f 262/21/262 253/18/253 252/22/252
f 169/19/169 168/18/168 121/21/121
vt 0.0258380006998777 0.7218549847602844
f 333/22/333 336/18/336 352/23/352
vt 0.0258380006998777 0.7527629733085632
f 351/23/351 357/24/357 363/22/363
vt 0.0258380006998777 0.6909469962120056
f 238/18/238 207/20/207 240/25/240
f 123/25/123 172/23/172 118/18/118
vt 0.1033509969711304 0.6291310191154480
vt 0.0516749992966652 0.6291310191154480
f 357/19/357 356/26/356 363/27/363
f 357/27/357 372/20/372 373/19/373
vt 0.0775130018591881 0.8145790100097656
vt 0.1033509969711304 0.8454869985580444
vt 0.1033509969711304 0.8145790100097656
f 333/28/333 362/29/362 361/30/361
vt 0.0516749992966652 0.7836710214614868
f 333/24/333 361/31/361 336/22/336
f 167/22/167 149/30/149 135/21/135
vt 0.2064239978790283 0.1284739971160889
vt 0.2064239978790283 0.0963430032134056
vt 0.1806560009717941 0.0963430032134056
f 3/32/3 5/33/5 11/34/11
vt 0.1806560009717941 0.1284739971160889
f 371/34/371 361/35/361 373/32/373
vt 0.1548870056867599 0.0963430032134056
f 419/35/419 405/34/405 418/36/418
vt 0.1548870056867599 0.1284739971160889
f 107/36/107 94/37/94 168/35/168
vt 0.2064239978790283 0.2244389951229095
vt 0.1548870056867599 0.2564269900321960
vt 0.2064239978790283 0.2564269900321960
f 372/38/372 371/39/371 373/40/373
vt 0.1548870056867599 0.1924500018358231
vt 0.2064239978790283 0.1924500018358231
f 357/41/357 373/38/373 356/42/356
f 181/39/181 174/38/174 180/41/180
f 357/39/357 370/41/370 372/5/372
f 103/5/103 34/4/34 104/39/104
vt 0.1291189938783646 0.1284739971160889
vt 0.1033509969711304 0.1284739971160889
f 69/9/69 68/43/68 113/44/113
f 340/43/340 334/41/334 345/37/345
f 109/41/109 100/9/100 96/5/96
f 324/9/324 366/41/366 368/43/368
f 330/35/330 331/42/331 324/32/324
f 344/41/344 347/35/347 350/37/350
f 261/42/261 274/35/274 279/41/279
vt 0.1548870056867599 0.3818669915199280
vt 0.1548870056867599 0.3191469907760620
f 283/45/283 305/46/305 15/12/15
f 344/12/344 350/11/350 330/45/330
f 317/46/317 329/39/329 322/4/322
f 353/4/353 320/12/320 328/46/328
vt 0.1548870056867599 0.7527629733085632
vt 0.1548870056867599 0.6909469962120056
f 340/47/340 345/48/345 349/19/349
f 326/19/326 367/21/367 319/47/319
vt 0.1548870056867599 0.6291310191154480
f 157/48/157 140/49/140 153/26/153
f 320/26/320 321/19/321 334/48/334
vt 0.1806560009717941 0.8763949871063232
vt 0.1548870056867599 0.8454869985580444
vt 0.1548870056867599 0.8763949871063232
f 327/50/327 360/51/360 340/52/340
vt 0.2064239978790283 0.8145790100097656
vt 0.1548870056867599 0.8145790100097656
f 327/51/327 340/53/340 349/54/349
vt 0.2064239978790283 0.8763949871063232
f 319/53/319 354/50/354 360/55/360
f 333/50/333 352/53/352 339/51/339
vt 0.1291189938783646 0.8454869985580444
f 461/52/461 452/51/452 440/56/440
vt 0.1291189938783646 0.8763949871063232
f 42/56/42 37/57/37 41/52/41
vt 0.1291189938783646 0.8145790100097656
f 202/56/202 201/58/201 198/30/198
f 439/30/439 443/29/443 447/56/447
f 326/51/326 318/54/318 348/58/348
f 326/58/326 319/56/319 327/51/327
f 373/58/373 361/21/361 362/30/362
f 317/47/317 347/58/347 344/54/344
f 338/21/338 370/58/370 357/47/357
vt 0.2064239978790283 0.7836710214614868
f 317/59/317 322/54/322 325/53/325
vt 0.2064239978790283 0.7527629733085632
f 128/47/128 182/59/182 151/60/151
f 53/54/53 71/59/71 57/47/57
vt 0.2064239978790283 0.9073029756546021
f 262/61/262 218/55/218 253/50/253
vt 0.1806560009717941 0.9073029756546021
f 138/50/138 316/62/316 161/61/161
vt 0.2821879982948303 0.1284739971160889
vt 0.2821879982948303 0.0642130002379417
vt 0.2569330036640167 0.0642130002379417
f 132/63/132 315/64/315 157/65/157
vt 0.2569330036640167 0.1284739971160889
f 158/65/158 154/66/154 155/63/155
vt 0.3074420094490051 0.1284739971160889
f 213/64/213 49/63/49 265/67/265
vt 0.3074420094490051 0.0642130002379417
f 146/67/146 156/68/156 153/64/153
vt 0.2316779941320419 0.0642130002379417
vt 0.2064239978790283 0.0642130002379417
f 260/33/260 276/69/276 226/70/226
f 223/69/223 239/66/239 225/65/225
f 245/66/245 201/33/201 192/32/192
f 358/33/358 353/66/353 328/69/328
vt 0.3074420094490051 0.0320830009877682
f 19/71/19 16/64/16 17/68/17
vt 0.2821879982948303 0.1604620069265366
f 33/72/33 31/63/31 28/66/28
vt 0.2569330036640167 0.1604620069265366
f 142/66/142 150/73/150 156/72/156
vt 0.3074420094490051 0.8763949871063232
vt 0.3074420094490051 0.8454869985580444
vt 0.2821879982948303 0.8454869985580444
f 249/74/249 112/75/112 38/76/38
vt 0.2821879982948303 0.8763949871063232
f 167/76/167 166/77/166 314/74/314
vt 0.2569330036640167 0.8454869985580444
f 283/77/283 304/76/304 284/78/284
vt 0.2569330036640167 0.8763949871063232
f 449/78/449 385/79/385 391/77/391
vt 0.2316779941320419 0.8145790100097656
vt 0.2569330036640167 0.8145790100097656
f 245/80/245 198/78/198 201/81/201
f 167/78/167 164/55/164 165/79/165
f 449/55/449 391/80/391 378/53/378
f 158/80/158 129/55/129 149/78/149
f 426/80/426 415/59/415 425/53/425
vt 0.2821879982948303 0.9382110238075256
f 319/82/319 360/77/360 327/79/327
vt 0.2569330036640167 0.9382110238075256
f 117/79/117 76/83/76 63/82/63
vt 0.3074420094490051 0.9382110238075256
f 177/77/177 180/82/180 174/84/174
f 177/84/177 166/74/166 162/77/162
vt 0.3325270116329193 0.1284739971160889
vt 0.3325270116329193 0.0642130002379417
f 177/85/177 162/86/162 166/68/166
f 380/68/380 393/67/393 394/85/394
vt 0.3576110005378723 0.1284739971160889
f 175/86/175 120/85/120 174/87/174
vt 0.3576110005378723 0.0642130002379417
f 344/87/344 323/88/323 346/86/346
vt 0.3576110005378723 0.0320830009877682
vt 0.3325270116329193 0.0320830009877682
f 67/88/67 111/89/111 106/90/106
f 167/90/167 313/86/313 164/88/164
f 441/86/441 453/90/453 385/71/385
f 280/71/280 302/68/302 243/86/243
vt 0.4077799916267395 0.0642130002379417
vt 0.4077799916267395 0.0320830009877682
vt 0.3826949894428253 0.0320830009877682
f 15/91/15 185/92/185 13/93/13
vt 0.3826949894428253 0.0642130002379417
f 167/93/167 135/94/135 313/91/313
f 171/94/171 63/93/63 91/89/91
f 181/89/181 178/88/178 179/94/179
vt 0.3826949894428253 0.9691190123558044
vt 0.3826949894428253 0.9382110238075256
vt 0.3576110005378723 0.9382110238075256
f 181/95/181 126/96/126 175/97/175
vt 0.3576110005378723 0.9691190123558044
f 181/97/181 179/98/179 126/95/126
vt 0.4077799916267395 0.9691190123558044
vt 0.4077799916267395 0.9382110238075256
f 344/99/344 330/100/330 323/96/323
f 191/96/191 187/95/187 308/99/308
vt 0.3325270116329193 0.9382110238075256
f 128/101/128 127/98/127 176/97/176
vt 0.3325270116329193 0.8763949871063232
f 127/101/127 316/102/316 176/74/176
f 401/74/401 411/84/411 459/101/459
f 144/102/144 133/101/133 143/97/143
vt 0.3576110005378723 0.8763949871063232
f 465/97/465 429/103/429 407/102/407
vt 0.4830330014228821 0.0963430032134056
vt 0.4830330014228821 0.0642130002379417
vt 0.4579479992389679 0.0642130002379417
f 104/104/104 34/105/34 44/106/44
vt 0.4579479992389679 0.0963430032134056
f 167/106/167 314/107/314 149/104/149
vt 0.5081170201301575 0.0963430032134056
vt 0.5081170201301575 0.0642130002379417
f 230/108/230 308/109/308 187/105/187
f 302/105/302 303/104/303 243/108/243
vt 0.4328640103340149 0.0963430032134056
vt 0.4328640103340149 0.0642130002379417
f 169/110/169 107/111/107 168/91/168
vt 0.4077799916267395 0.0963430032134056
f 455/91/455 454/112/454 442/110/442
f 178/107/178 162/106/162 163/111/163
f 220/111/220 260/110/260 256/107/256
vt 0.4579479992389679 0.0320830009877682
vt 0.4328640103340149 0.0320830009877682
f 248/106/248 204/113/204 200/114/200
f 202/114/202 32/111/32 310/106/310
f 154/111/154 159/114/159 155/92/155
f 276/92/276 208/91/208 234/111/234
vt 0.5081170201301575 0.0320830009877682
vt 0.4830330014228821 0.0320830009877682
f 376/109/376 385/115/385 458/116/458
f 241/116/241 238/105/238 240/109/240
f 262/105/262 274/116/274 217/113/217
f 452/113/452 413/106/413 421/105/421
vt 0.4830330014228821 0.9691190123558044
vt 0.4830330014228821 0.9382110238075256
vt 0.4579479992389679 0.9382110238075256
f 124/117/124 173/118/173 125/119/125
vt 0.4579479992389679 0.9691190123558044
f 299/119/299 303/120/303 282/117/282
vt 0.5081170201301575 0.9691190123558044
vt 0.5081170201301575 0.9382110238075256
f 242/121/242 208/122/208 282/118/282
f 77/118/77 73/117/73 85/121/85
vt 0.4328640103340149 0.9691190123558044
vt 0.4328640103340149 0.9382110238075256
f 231/123/231 241/124/241 206/100/206
f 283/100/283 15/99/15 8/123/8
f 227/120/227 228/119/228 211/124/211
f 189/124/189 284/123/284 289/120/289
vt 0.4579479992389679 0.9073029756546021
vt 0.4328640103340149 0.9073029756546021
f 229/119/229 225/125/225 232/126/232
f 302/126/302 301/124/301 281/119/281
vt 0.4077799916267395 0.9073029756546021
f 301/124/301 300/126/300 296/127/296
f 212/127/212 230/100/230 269/124/269
vt 0.5081170201301575 0.9073029756546021
vt 0.4830330014228821 0.9073029756546021
f 364/122/364 369/128/369 365/129/365
f 352/129/352 358/118/358 339/122/339
f 280/118/280 301/129/301 302/125/302
f 67/125/67 102/119/102 43/118/43
vt 0.5833699703216553 0.0963430032134056
vt 0.5833699703216553 0.0642130002379417
vt 0.5582860112190247 0.0642130002379417
f 210/130/210 255/131/255 225/132/225
vt 0.5582860112190247 0.0963430032134056
f 326/132/326 348/133/348 364/130/364
vt 0.6084550023078918 0.0963430032134056
vt 0.6084550023078918 0.0642130002379417
f 128/134/128 161/135/161 152/131/152
f 428/131/428 462/130/462 468/134/468
vt 0.5332019925117493 0.0963430032134056
vt 0.5332019925117493 0.0642130002379417
f 189/136/189 185/137/185 305/109/305
f 306/109/306 312/108/312 311/136/311
f 272/133/272 294/132/294 298/137/298
f 449/137/449 378/136/378 438/133/438
vt 0.5582860112190247 0.0320830009877682
vt 0.5332019925117493 0.0320830009877682
f 98/132/98 94/138/94 107/139/107
f 220/139/220 269/137/269 215/132/215
f 330/137/330 350/139/350 331/115/331
f 374/115/374 388/109/388 377/137/377
vt 0.6084550023078918 0.0320830009877682
vt 0.5833699703216553 0.0320830009877682
f 58/135/58 72/140/72 81/141/81
f 248/141/248 200/131/200 207/135/207
f 229/131/229 224/141/224 228/138/228
f 410/138/410 402/132/402 401/131/401
vt 0.5833699703216553 0.9691190123558044
vt 0.5833699703216553 0.9382110238075256
vt 0.5582860112190247 0.9382110238075256
f 412/142/412 389/143/389 375/144/375
vt 0.5582860112190247 0.9691190123558044
f 277/144/277 292/145/292 271/142/271
vt 0.6084550023078918 0.9691190123558044
vt 0.6084550023078918 0.9382110238075256
f 16/146/16 189/147/189 289/143/289
f 117/143/117 51/142/51 71/146/71
vt 0.5332019925117493 0.9691190123558044
vt 0.5332019925117493 0.9382110238075256
f 149/148/149 129/149/129 148/122/148
f 210/122/210 228/121/228 227/148/227
f 403/145/403 396/144/396 412/149/412
f 131/149/131 316/148/316 138/145/138
vt 0.5582860112190247 0.9073029756546021
vt 0.5332019925117493 0.9073029756546021
f 431/144/431 394/150/394 476/151/476
f 257/151/257 229/149/229 232/144/232
f 257/149/257 232/151/232 229/128/229
f 167/128/167 165/122/165 163/149/163
vt 0.6084550023078918 0.9073029756546021
vt 0.5833699703216553 0.9073029756546021
f 348/147/348 369/152/369 364/153/364
f 193/153/193 192/143/192 244/147/244
f 41/143/41 62/153/62 40/150/40
f 149/150/149 148/144/148 135/143/135
vt 0.6837080121040344 0.1284739971160889
vt 0.6837080121040344 0.0642130002379417
vt 0.6586239933967590 0.0642130002379417
f 241/154/241 240/155/240 237/156/237
vt 0.6586239933967590 0.1284739971160889
f 412/156/412 468/157/468 389/154/389
vt 0.7087919712066650 0.1284739971160889
f 178/155/178 177/154/177 162/158/162
vt 0.7087919712066650 0.0642130002379417
f 378/158/378 379/159/379 438/155/438
vt 0.6586239933967590 0.0320830009877682
vt 0.6335390210151672 0.0320830009877682
f 448/156/448 473/160/473 469/161/469
vt 0.6335390210151672 0.0642130002379417
f 202/161/202 198/162/198 29/156/29
f 279/162/279 296/161/296 300/140/300
f 260/140/260 222/135/222 256/162/256
vt 0.6837080121040344 0.0320830009877682
f 211/155/211 228/163/228 224/160/224
f 374/160/374 377/156/377 390/155/390
vt 0.7087919712066650 0.8763949871063232
vt 0.7087919712066650 0.8609409928321838
vt 0.6962500214576721 0.8609409928321838
f 136/164/136 314/165/314 150/166/150
vt 0.6962500214576721 0.8763949871063232
f 321/166/321 345/167/345 334/164/334
vt 0.6837080121040344 0.9691190123558044
vt 0.6837080121040344 0.9382110238075256
vt 0.6586239933967590 0.9382110238075256
f 235/168/235 226/169/226 276/170/276
vt 0.6586239933967590 0.9691190123558044
f 431/170/431 380/171/380 394/168/394
vt 0.7087919712066650 0.9691190123558044
vt 0.7087919712066650 0.9382110238075256
f 423/172/423 465/173/465 407/169/407
f 247/169/247 204/168/204 195/172/195
vt 0.6335390210151672 0.9691190123558044
vt 0.6335390210151672 0.9382110238075256
f 218/174/218 217/175/217 261/147/261
f 424/147/424 399/146/399 422/174/422
f 123/171/123 118/170/118 54/175/54
f 90/175/90 60/174/60 74/171/74
vt 0.6586239933967590 0.9073029756546021
vt 0.6335390210151672 0.9073029756546021
f 310/170/310 288/176/288 197/177/197
f 196/177/196 204/175/204 248/170/248
f 280/175/280 275/177/275 297/152/297
f 269/152/269 230/147/230 187/175/187
vt 0.7087919712066650 0.9073029756546021
vt 0.6837080121040344 0.9073029756546021
f 257/173/257 219/178/219 211/179/211
f 324/179/324 331/169/331 366/173/366
f 369/169/369 368/179/368 366/176/366
f 213/176/213 264/170/264 259/169/259
vt 0.6711660027503967 0.8763949871063232
vt 0.6837080121040344 0.8763949871063232
f 434/180/434 463/179/463 469/181/469
vt 0.6586239933967590 0.8763949871063232
f 465/176/465 470/180/470 429/182/429
f 311/179/311 312/180/312 307/176/307
f 210/167/210 225/178/225 228/164/228
f 172/179/172 171/167/171 122/181/122
f 105/178/105 48/167/48 101/179/101
vt 0.7334480285644531 0.1284739971160889
vt 0.7334480285644531 0.0642130002379417
f 276/183/276 282/184/282 208/159/208
f 470/159/470 466/158/466 430/183/430
vt 0.7581030130386353 0.1284739971160889
f 257/184/257 263/183/263 219/185/219
vt 0.7581030130386353 0.0642130002379417
f 119/185/119 95/186/95 173/184/173
vt 0.8074129819869995 0.2244389951229095
vt 0.8074129819869995 0.1924500018358231
vt 0.7827579975128174 0.1924500018358231
f 134/187/134 132/188/132 141/189/141
vt 0.7827579975128174 0.2244389951229095
f 84/189/84 90/190/90 74/187/74
vt 0.7334480285644531 0.1604620069265366
f 19/191/19 17/183/17 190/158/190
vt 0.7087919712066650 0.1604620069265366
f 340/158/340 337/192/337 334/191/334
vt 0.7581030130386353 0.1604620069265366
f 235/193/235 276/185/276 234/183/234
f 19/183/19 190/191/190 186/193/186
vt 0.7581030130386353 0.1924500018358231
f 248/189/248 207/193/207 233/194/233
vt 0.8074129819869995 0.1284739971160889
f 389/193/389 468/195/468 434/185/434
f 169/195/169 121/189/121 50/188/50
f 262/189/262 217/195/217 218/193/218
vt 0.7581030130386353 0.8763949871063232
vt 0.7581030130386353 0.8454869985580444
vt 0.7334480285644531 0.8454869985580444
f 247/196/247 285/197/285 291/198/291
vt 0.7334480285644531 0.8763949871063232
f 4/198/4 5/199/5 3/196/3
vt 0.7334480285644531 0.9691190123558044
vt 0.7334480285644531 0.9382110238075256
f 191/200/191 308/201/308 287/173/287
f 99/173/99 100/172/100 109/200/109
f 306/199/306 311/178/311 291/201/291
f 299/201/299 276/178/276 295/173/295
f 260/178/260 251/199/251 216/164/216
vt 0.7581030130386353 0.9382110238075256
f 212/199/212 269/201/269 220/202/220
f 289/202/289 288/196/288 310/199/310
vt 0.8074129819869995 0.9073029756546021
vt 0.7827579975128174 0.9382110238075256
vt 0.8074129819869995 0.9382110238075256
f 212/203/212 220/204/220 256/205/256
f 272/204/272 298/196/298 277/202/277
vt 0.8074129819869995 0.8763949871063232
f 257/196/257 211/203/211 224/206/224
f 392/203/392 386/196/386 442/204/442
vt 0.8556190133094788 0.1284739971160889
vt 0.8315160274505615 0.0963430032134056
vt 0.8315160274505615 0.1284739971160889
f 242/207/242 282/208/282 303/209/303
vt 0.8074129819869995 0.0963430032134056
f 199/209/199 203/208/203 200/210/200
f 199/210/199 200/195/200 204/209/204
vt 0.9038249850273132 0.2564269900321960
vt 0.9038249850273132 0.1924500018358231
vt 0.8556190133094788 0.1924500018358231
f 85/211/85 73/212/73 61/213/61
vt 0.8556190133094788 0.2564269900321960
f 154/213/154 153/214/153 147/211/147
vt 0.8315160274505615 0.2564269900321960
vt 0.8074129819869995 0.2564269900321960
f 127/215/127 152/187/152 161/216/161
f 274/187/274 296/213/296 279/188/279
f 199/213/199 247/215/247 291/214/291
f 409/215/409 430/213/430 466/187/466
f 220/209/220 215/213/215 266/207/266
f 41/188/41 37/209/37 62/195/62
f 18/213/18 310/209/310 32/188/32
vt 0.9038249850273132 0.3818669915199280
vt 0.9038249850273132 0.3191469907760620
vt 0.8556190133094788 0.3191469907760620
f 145/217/145 157/218/157 153/219/153
vt 0.8556190133094788 0.3818669915199280
f 411/219/411 432/220/432 459/217/459
vt 0.8556190133094788 0.2877869904041290
vt 0.8315160274505615 0.2877869904041290
f 132/219/132 157/221/157 141/222/141
vt 0.8315160274505615 0.3191469907760620
f 123/222/123 171/223/171 172/219/172
f 317/221/317 344/214/344 346/215/346
f 384/215/384 461/222/461 440/221/440
f 451/221/451 439/211/439 447/214/447
f 86/218/86 77/221/77 78/219/78
f 229/211/229 232/221/232 209/218/209
vt 0.8556190133094788 0.7218549847602844
vt 0.9038249850273132 0.6909469962120056
vt 0.8556190133094788 0.6909469962120056
f 241/224/241 225/225/225 239/226/239
vt 0.9038249850273132 0.7527629733085632
vt 0.8556190133094788 0.7527629733085632
f 241/227/241 239/224/239 206/228/206
f 78/225/78 77/224/77 85/227/85
vt 0.8315160274505615 0.7218549847602844
f 166/228/166 137/224/137 314/229/314
vt 0.8315160274505615 0.7527629733085632
f 236/229/236 233/230/233 238/228/238
vt 0.8315160274505615 0.6909469962120056
f 146/224/146 142/226/142 156/231/156
f 376/231/376 391/229/391 385/224/385
vt 0.9038249850273132 0.6291310191154480
vt 0.8556190133094788 0.6291310191154480
f 470/225/470 430/232/430 475/233/475
f 207/233/207 237/226/237 240/225/240
vt 0.8797219991683960 0.8763949871063232
vt 0.8556190133094788 0.8145790100097656
vt 0.8556190133094788 0.8763949871063232
f 207/234/207 240/235/240 237/236/237
vt 0.9038249850273132 0.8145790100097656
vt 0.9038249850273132 0.8763949871063232
f 453/237/453 461/234/461 385/238/385
f 301/235/301 297/234/297 300/237/300
vt 0.8315160274505615 0.8763949871063232
vt 0.8074129819869995 0.8145790100097656
f 245/239/245 193/240/193 25/206/25
f 281/235/281 301/239/301 296/236/296
f 205/240/205 280/239/280 243/235/243
f 451/237/451 435/227/435 381/228/381
f 38/228/38 112/235/112 43/237/43
vt 0.8315160274505615 0.9073029756546021
f 260/205/260 226/241/226 222/203/222
f 145/241/145 141/239/141 157/206/157
f 434/206/434 468/203/468 463/241/463
vt 0.8556190133094788 0.9073029756546021
f 358/242/358 359/236/359 353/239/353
f 158/239/158 149/241/149 142/242/142
vt 0.8797219991683960 0.9073029756546021
f 216/243/216 273/234/273 276/236/276
f 93/236/93 86/242/86 89/243/89
vt 0.9759560227394104 0.2564269900321960
vt 0.9519129991531372 0.2244389951229095
vt 0.9519129991531372 0.2564269900321960
f 252/244/252 253/245/253 263/246/263
f 326/246/326 365/212/365 367/211/367
vt 0.9278690218925476 0.1924500018358231
vt 0.9038249850273132 0.1604620069265366
f 273/247/273 295/248/295 276/212/276
vt 0.9519129991531372 0.3818669915199280
vt 0.9519129991531372 0.3191469907760620
f 299/249/299 282/250/282 276/218/276
f 178/218/178 180/217/180 177/249/177
vt 0.9519129991531372 0.2877869904041290
f 144/251/144 143/218/143 134/250/134
f 177/211/177 314/251/314 166/246/166
f 177/218/177 166/251/166 314/211/314
vt 0.9759560227394104 0.3191469907760620
vt 0.9759560227394104 0.2877869904041290
f 287/252/287 307/253/307 312/251/312
f 26/251/26 22/250/22 246/252/246
f 26/253/26 244/244/244 20/246/20
f 287/246/287 312/251/312 290/253/290
vt 0.9759560227394104 0.7527629733085632
vt 0.9759560227394104 0.7218549847602844
vt 0.9519129991531372 0.7218549847602844
f 16/254/16 183/255/183 189/256/189
vt 0.9519129991531372 0.7527629733085632
f 131/256/131 138/257/138 133/254/133
vt 0.9759560227394104 0.6909469962120056
vt 0.9519129991531372 0.6909469962120056
f 220/255/220 266/258/266 260/259/260
f 260/259/260 216/256/216 276/255/276
f 98/256/98 107/227/107 102/257/102
f 167/225/167 163/256/163 166/259/166
f 458/227/458 385/256/385 384/225/384
vt 0.9519129991531372 0.6291310191154480
f 326/259/326 327/260/327 318/232/318
f 441/232/441 385/225/385 449/259/449
vt 0.9519129991531372 0.7836710214614868
vt 0.9519129991531372 0.8145790100097656
f 465/261/465 466/237/466 470/262/470
f 93/227/93 277/261/277 64/257/64
f 332/237/332 357/261/357 351/227/351
vt 0.9759560227394104 0.7836710214614868
f 154/263/154 146/254/146 153/257/153
f 12/257/12 3/261/3 2/263/2
vt 0.0745299980044365 0.1377969980239868
vt 0.0599219985306263 0.1524319946765900
f 332/10/332 338/264/338 357/265/357
f 461/9/461 457/264/457 413/10/413
vt 0.0462130010128021 0.1682910025119781
f 144/266/144 134/10/134 141/265/141
vt 0.1056149974465370 0.1118419989943504
vt 0.0898400023579597 0.1242640018463135
f 105/44/105 99/267/99 48/268/48
f 450/268/450 392/9/392 442/44/442
f 19/43/19 183/267/183 16/44/16
f 409/264/409 466/9/466 425/268/425
vt 0.0226179994642735 0.2038200050592422
vt 0.0133429998531938 0.2235299944877625
f 332/7/332 341/269/341 335/270/335
f 149/269/149 314/7/314 136/1/136
vt 0.0095030004158616 0.2338570058345795
f 432/271/432 473/7/473 377/270/377
vt 0.0336849987506866 0.1854079961776733
f 393/3/393 381/266/381 394/272/394
f 194/3/194 25/269/25 193/1/193
f 400/10/400 425/266/425 415/3/415
f 426/3/426 400/2/400 415/10/415
f 426/269/426 416/3/416 400/272/400
vt 0.1384160071611404 0.0898230001330376
vt 0.1553979963064194 0.0799700021743774
f 257/273/257 224/36/224 229/274/229
vt 0.1727509945631027 0.0707880035042763
f 257/274/257 229/34/229 224/275/224
vt 0.2083619982004166 0.0543639995157719
f 432/69/432 377/276/377 459/70/459
vt 0.1904219985008240 0.0622580014169216
f 410/34/410 427/277/427 416/275/416
f 241/276/241 232/277/232 225/70/225
f 84/33/84 88/70/88 125/277/125
vt 0.1218200027942657 0.1004030033946037
f 145/278/145 153/43/153 156/273/156
f 6/36/6 4/273/4 3/43/3
f 401/36/401 402/43/402 411/37/411
f 127/267/127 161/43/161 316/278/316
f 213/277/213 259/34/259 103/33/103
vt 0.2346169948577881 0.2211160063743591
f 403/38/403 387/279/387 444/42/444
f 403/34/403 444/274/444 418/36/418
f 387/32/387 412/42/412 460/73/460
vt 0.0005450000171550 0.2782100141048431
vt 0.0017300000181422 0.2666729986667633
f 397/280/397 457/16/457 383/281/383
vt 0.0036490000784397 0.2554320096969604
f 403/282/403 412/281/412 387/8/387
f 181/271/181 180/8/180 178/7/178
vt 0.0062560001388192 0.2444919943809509
f 13/282/13 7/8/7 9/283/9
f 437/271/437 379/283/379 378/8/378
f 384/8/384 385/281/385 461/16/461
vt 0.0001409999968018 0.2900399863719940
vt 0.0001440000050934 0.3411259949207306
f 441/17/441 453/284/453 449/285/449
vt 0.0001420000044163 0.3922129869461060
vt 0.0001349999947706 0.4432989954948425
f 441/14/441 449/286/449 453/287/453
f 77/286/77 92/14/92 73/285/73
f 410/284/410 401/17/401 417/16/417
f 453/17/453 457/14/457 461/13/461
f 433/285/433 390/14/390 448/17/448
f 12/16/12 9/280/9 7/284/7
vt 0.0001209999973071 0.4943850040435791
f 55/14/55 54/287/54 118/288/118
vt 0.2205429971218109 0.2424560040235519
f 287/289/287 308/38/308 286/40/286
vt 0.2080360054969788 0.2803530097007751
vt 0.2070869952440262 0.2944310009479523
f 410/290/410 417/40/417 427/291/427
vt 0.2271610051393509 0.2313719987869263
f 413/38/413 420/289/420 421/292/421
vt 0.2107409983873367 0.2669849991798401
vt 0.2149830013513565 0.2543460130691528
f 413/40/413 422/293/422 414/294/414
f 445/40/445 448/294/448 463/289/463
f 283/279/283 284/38/284 305/292/305
f 317/293/317 325/40/325 347/290/347
f 84/40/84 74/46/74 81/45/81
vt 0.2064239978790283 0.5054990053176880
f 12/45/12 14/295/14 9/40/9
vt 0.2070679962635040 0.4993759989738464
vt 0.2070820033550262 0.4481390118598938
f 420/296/420 414/297/414 406/295/406
f 406/11/406 414/14/414 399/288/399
f 406/40/406 399/39/399 407/46/407
vt 0.2070890069007874 0.3969030082225800
f 397/295/397 413/297/413 457/298/457
vt 0.2070910036563873 0.3456670045852661
f 408/40/408 422/298/422 413/299/413
f 461/291/461 413/40/413 452/299/452
f 470/298/470 474/40/474 429/295/429
vt 0.2264219969511032 0.0471270009875298
f 456/69/456 442/300/442 386/276/386
vt 0.2997870147228241 0.0239560008049011
vt 0.2813870012760162 0.0289159994572401
f 353/71/353 321/301/321 320/302/320
vt 0.3181839883327484 0.0195140000432730
f 450/303/450 442/301/442 436/71/436
f 455/64/455 442/71/442 456/302/456
vt 0.3366230130195618 0.0155629999935627
f 439/89/439 454/304/454 443/90/443
f 451/71/451 447/90/447 435/303/435
f 451/304/451 381/303/381 393/90/393
vt 0.3551509976387024 0.0120740002021194
f 389/89/389 434/305/434 446/304/446
vt 0.2446459978818893 0.0404849983751774
f 448/65/448 469/306/469 463/69/463
f 412/300/412 396/69/396 472/306/472
vt 0.2629840075969696 0.0344199985265732
f 217/307/217 274/306/274 261/65/261
f 293/307/293 265/64/265 49/302/49
f 412/65/412 375/64/375 460/307/460
vt 0.3738830089569092 0.0090150004252791
f 463/89/463 468/308/468 462/305/462
vt 0.4115430116653442 0.0042489999905229
vt 0.3926869928836823 0.0064079998992383
f 306/309/306 291/310/291 285/92/285
vt 0.4304299950599670 0.0025339999701828
f 84/309/84 81/114/81 88/311/88
vt 0.4870629906654358 0.0000000000000000
vt 0.4682109951972961 0.0004130000015721
f 57/116/57 87/312/87 169/313/169
vt 0.4493260085582733 0.0012560000177473
f 255/313/255 223/314/223 225/113/225
f 467/314/467 463/311/463 462/114/462
vt 0.5058619976043701 0.0000110000000859
f 467/315/467 445/312/445 463/115/463
f 428/93/428 468/310/468 472/308/472
f 395/310/395 409/93/409 404/92/404
f 352/308/352 359/89/359 358/93/358
f 47/114/47 40/309/40 36/92/36
f 404/116/404 409/313/409 400/113/400
f 434/114/434 469/113/469 464/314/464
f 280/116/280 297/115/297 301/312/301
vt 0.5246480107307434 0.0004450000124052
f 448/115/448 390/316/390 473/315/473
f 218/87/218 267/94/267 253/88/253
vt 0.2513880133628845 0.2029670029878616
f 445/42/445 433/317/433 448/73/448
vt 0.3103069961071014 0.1627220064401627
vt 0.3317210078239441 0.1528950035572052
f 382/318/382 401/319/401 459/67/459
f 41/85/41 40/67/40 47/319/47
vt 0.2796800136566162 0.1805319935083389
f 138/320/138 143/72/143 133/73/133
vt 0.2998749911785126 0.1682299971580505
f 115/72/115 114/321/114 69/67/69
f 110/63/110 109/72/109 114/67/114
f 115/67/115 110/321/110 114/318/114
vt 0.2604709863662720 0.1949169933795929
f 86/73/86 64/317/64 77/322/77
vt 0.2427459955215454 0.2116580009460449
f 64/323/64 277/42/277 271/279/271
f 199/317/199 204/42/204 247/323/247
vt 0.2896690070629120 0.1741479933261871
f 426/72/426 410/324/410 416/321/416
vt 0.2699249982833862 0.1874469965696335
f 169/73/169 87/325/87 79/320/79
f 79/72/79 46/320/46 107/324/107
f 93/325/93 272/73/272 277/322/277
f 92/73/92 82/66/82 73/32/73
vt 0.4198350012302399 0.1278939992189407
f 178/110/178 165/112/165 179/326/179
f 326/94/326 364/87/364 365/112/365
vt 0.4650059938430786 0.1224260032176971
f 277/104/277 298/107/298 292/327/292
vt 0.4876739978790283 0.1212880015373230
f 271/104/271 292/328/292 270/108/270
vt 0.4423600137233734 0.1246189996600151
f 68/329/68 55/107/55 113/110/113
f 332/327/332 335/328/335 338/104/338
vt 0.3534330129623413 0.1446450054645538
f 158/330/158 142/87/142 146/85/146
vt 0.3754029870033264 0.1377999931573868
f 171/87/171 117/330/117 63/331/63
f 423/87/423 399/331/399 424/112/424
f 293/319/293 270/330/270 214/85/214
f 413/329/413 414/110/414 420/326/420
vt 0.3975619971752167 0.1322530061006546
f 403/332/403 405/112/405 396/331/396
f 293/326/293 214/112/214 265/332/265
f 55/107/55 119/329/119 54/327/54
f 124/94/124 54/112/54 173/91/173
vt 0.0001009999978123 0.5454710125923157
vt 0.0000750000035623 0.5965579748153687
f 287/27/287 286/333/286 307/334/307
vt 0.0000409999993281 0.6476439833641052
f 119/27/119 173/334/173 54/335/54
f 63/335/63 56/25/56 70/27/70
f 213/288/213 103/333/103 49/26/49
f 202/27/202 29/25/29 32/20/32
f 263/333/263 268/27/268 219/26/219
vt 0.0000000000000000 0.6987299919128418
f 62/336/62 61/25/61 40/335/40
vt 0.0016250000335276 0.7218400239944458
vt 0.0004100000078324 0.7104340195655823
f 264/337/264 265/23/265 214/338/214
f 264/25/264 250/336/250 259/338/259
vt 0.0062609999440610 0.7437390089035034
vt 0.0035929998848587 0.7329429984092712
f 213/339/213 265/23/265 264/340/264
f 259/337/259 258/340/258 249/23/249
vt 0.0095750000327826 0.7542240023612976
f 231/341/231 236/24/236 238/339/238
f 259/23/259 250/339/250 258/24/258
f 171/338/171 91/23/91 122/25/122
f 397/49/397 408/295/408 413/26/413
f 67/26/67 98/11/98 102/288/102
vt 0.2064239978790283 0.6291310191154480
vt 0.2070209980010986 0.6018480062484741
vt 0.2070479989051819 0.5506119728088379
f 249/342/249 221/343/221 112/344/112
f 62/295/62 75/342/75 59/344/59
vt 0.2069869935512543 0.6530839800834656
f 249/345/249 258/343/258 254/342/254
f 249/342/249 254/295/254 221/49/221
f 455/296/455 443/295/443 454/344/454
f 110/11/110 99/26/99 109/295/109
vt 0.2069450020790100 0.7043200135231018
f 377/342/377 473/346/473 390/345/390
f 433/48/433 374/60/374 390/342/390
vt 0.2079180032014847 0.7182790040969849
f 110/60/110 108/347/108 99/346/99
vt 0.2106940001249313 0.7315229773521423
f 15/348/15 13/347/13 9/60/9
f 99/48/99 108/47/108 48/60/48
f 37/342/37 75/60/75 62/346/62
f 139/49/139 141/48/141 145/342/145
vt 0.2150209993124008 0.7440289855003357
f 105/349/105 100/348/100 99/60/99
f 105/45/105 47/11/47 100/295/100
vt 0.0134819997474551 0.7643920183181763
vt 0.0228640008717775 0.7837640047073364
f 105/350/105 41/351/41 47/24/47
f 105/24/105 101/341/101 41/350/41
vt 0.0339570008218288 0.8018090128898621
vt 0.0464159995317459 0.8185579776763916
f 68/31/68 95/352/95 119/353/119
f 128/351/128 152/352/152 127/31/127
f 78/22/78 59/31/59 89/28/89
f 242/28/242 303/30/303 302/22/302
f 278/28/278 303/31/303 299/353/299
f 78/24/78 62/351/62 59/31/59
vt 0.0743829980492592 0.8484519720077515
vt 0.0599789991974831 0.8340820074081421
f 78/354/78 85/28/85 62/355/62
vt 0.0895010009407997 0.8618479967117310
f 231/354/231 238/356/238 241/29/241
f 85/28/85 61/353/61 62/355/62
vt 0.1050499975681305 0.8741999864578247
f 409/357/409 425/56/425 400/29/400
f 86/354/86 78/29/78 89/28/89
vt 0.1209990009665489 0.8856340050697327
f 93/357/93 89/358/89 83/57/83
f 64/57/64 92/56/92 77/357/77
f 124/356/124 125/357/125 88/29/88
vt 0.1373129934072495 0.8962720036506653
f 124/359/124 88/52/88 170/57/170
f 68/62/68 119/50/119 55/52/55
vt 0.2206459939479828 0.7557709813117981
f 58/59/58 35/360/35 39/60/39
f 101/349/101 42/60/42 41/360/41
f 103/79/103 104/55/104 49/61/49
vt 0.1539900004863739 0.9062430262565613
f 58/361/58 74/52/74 35/359/35
vt 0.1883620023727417 0.9243770241737366
vt 0.1710209995508194 0.9156050086021423
f 110/362/110 97/62/97 108/363/108
f 30/361/30 27/363/27 23/62/23
f 262/52/262 252/361/252 274/62/274
vt 0.2059710025787354 0.9325810074806213
f 114/364/114 68/61/68 69/362/69
f 58/62/58 81/362/81 74/61/74
vt 0.2236540019512177 0.9401770234107971
f 123/61/123 54/364/54 52/365/52
f 102/79/102 107/61/107 46/365/46
vt 0.2272700071334839 0.7666900157928467
f 147/360/147 153/59/153 140/366/140
f 124/358/124 52/359/52 54/57/54
vt 0.2346660047769547 0.7767810225486755
f 412/59/412 472/80/472 468/367/468
vt 0.2426870018243790 0.7860999703407288
f 122/368/122 91/367/91 80/80/80
vt 0.2511849999427795 0.7947009801864624
f 348/80/348 368/369/368 369/368/369
vt 0.2601279914379120 0.8027409911155701
f 53/370/53 76/369/76 71/81/71
f 93/81/93 64/369/64 86/80/86
vt 0.2694219946861267 0.8102449774742126
f 64/371/64 271/370/271 92/81/92
vt 0.2790009975433350 0.8172349929809570
f 117/78/117 71/372/71 76/81/76
f 63/371/63 76/81/76 56/372/56
f 150/76/150 160/372/160 156/78/156
vt 0.2988060116767883 0.8298050165176392
vt 0.2888000011444092 0.8237339854240417
f 53/76/53 56/373/56 76/374/76
f 53/373/53 116/76/116 56/75/56
vt 0.3090269863605499 0.8355020284652710
f 53/75/53 169/375/169 50/373/50
f 53/372/53 50/76/50 116/374/116
f 271/79/271 270/365/270 293/83/293
vt 0.3300130069255829 0.8458210229873657
f 169/74/169 79/376/79 107/75/107
f 44/375/44 39/75/39 35/376/35
f 44/376/44 34/74/34 39/102/39
vt 0.3513140082359314 0.8547000288963318
f 233/377/233 207/376/207 238/102/238
vt 0.3946630060672760 0.8687000274658203
vt 0.3728899955749512 0.8622940182685852
f 103/378/103 45/379/45 34/103/34
f 241/379/241 237/377/237 232/103/232
vt 0.4165570139884949 0.8740159869194031
f 229/380/229 228/378/228 225/127/225
f 67/377/67 106/102/106 98/103/98
f 98/380/98 106/127/106 94/126/94
f 112/127/112 111/378/111 67/103/67
vt 0.4387010037899017 0.8783460259437561
f 181/125/181 175/381/175 174/126/174
vt 0.4833729863166809 0.8840799927711487
vt 0.4610050022602081 0.8816959857940674
f 112/382/112 65/383/65 111/129/111
f 403/383/403 418/381/418 405/125/405
f 33/380/33 27/126/27 30/381/30
vt 0.5057079792022705 0.8855130076408386
f 17/384/17 16/382/16 18/129/18
f 320/96/320 334/127/334 355/103/355
vt 0.2414599955081940 0.9472290277481079
vt 0.2593730092048645 0.9537590146064758
f 194/83/194 26/385/26 246/386/246
f 245/83/245 25/365/25 21/385/21
f 194/83/194 193/386/193 26/82/26
vt 0.2954640090465546 0.9653329849243164
f 263/84/263 253/82/253 268/387/268
f 144/96/144 141/103/141 139/97/139
vt 0.3136120140552521 0.9704170227050781
f 245/101/245 21/84/21 198/388/198
vt 0.2773790061473846 0.9597870111465454
f 21/387/21 29/82/29 198/389/198
f 16/84/16 289/387/289 18/388/18
f 15/82/15 305/386/305 185/389/185
vt 0.3500429987907410 0.9792839884757996
vt 0.3318099975585938 0.9750609993934631
f 142/390/142 136/98/136 150/391/150
f 189/101/189 305/388/305 284/391/284
vt 0.3684220016002655 0.9831209778785706
f 12/98/12 7/390/7 6/392/6
f 12/95/12 6/98/6 3/392/3
f 406/391/406 407/98/407 398/101/398
vt 0.3868890106678009 0.9865580201148987
f 128/393/128 176/99/176 182/95/182
f 27/383/27 188/125/188 23/129/23
vt 0.4426049888134003 0.9945009946823120
f 158/394/158 146/120/146 154/123/154
f 190/100/190 184/127/184 188/96/188
vt 0.4240010082721710 0.9922459721565247
f 450/395/450 438/123/438 379/99/379
vt 0.4054220020771027 0.9895989894866943
f 33/395/33 30/99/30 31/396/31
f 178/123/178 163/395/163 165/394/165
f 23/99/23 188/393/188 184/396/184
vt 0.4798029959201813 0.9978479743003845
vt 0.4612120091915131 0.9963679909706116
f 423/397/423 407/117/407 399/398/399
f 190/120/190 188/394/188 186/398/186
vt 0.4983560144901276 0.9989439845085144
f 13/117/13 6/397/6 7/399/7
f 314/398/314 130/117/130 150/120/150
f 202/399/202 310/121/310 197/117/197
f 260/392/260 266/393/266 251/95/251
f 26/384/26 24/129/24 22/128/22
f 158/367/158 155/366/155 129/59/129
vt 0.5102660059928894 0.1211820021271706
f 442/400/442 454/108/454 436/328/436
vt 0.5434799790382385 0.0013070000568405
f 112/139/112 67/401/67 43/316/43
f 245/401/245 192/139/192 193/138/193
vt 0.5811989903450012 0.0043489998206496
vt 0.5623369812965393 0.0026060000527650
f 26/138/26 193/402/193 244/403/244
vt 0.6000440120697021 0.0065440000034869
f 26/141/26 20/404/20 24/402/24
f 149/138/149 136/403/136 142/401/142
vt 0.6188510060310364 0.0092010004445910
f 202/405/202 197/404/197 201/140/201
# 559 faces, 405 coords texture

# End of File
