####
#
# OBJ File Generated by Meshlab
#
####
# Object torso_base_link_5.obj
#
# Vertices: 361
# Faces: 698
#
####
mtllib ./torso_base_link_5.obj.mtl

vn -1.5756564449385695 -0.8435567676406123 1.3969800583084422
v 0.0582550000000000 0.0347146666666667 0.1170370000000000
vn -4.5957541932909951 -1.0226497318728260 3.3877910402178899
v 0.0582660000000000 0.0381600000000000 0.1189101818181818
vn -2.8235906453968060 -0.6859517795012426 1.5246491582017700
v 0.0580011860465116 0.0365735581395349 0.1178732015503876
vn 0.4368510588486428 2.9593794566853071 0.8351891916413690
v 0.0658478269230770 0.0473710219780220 0.1154390714285714
vn 0.7824377429725595 2.6881304664917369 1.0247905442858278
v 0.0674803500000001 0.0473133000000001 0.1147294633333335
vn 0.3077615758491975 5.7146753230941361 1.4252452919283209
v 0.0657300597014925 0.0472363134328358 0.1162497313432836
vn -2.4155364576005187 0.2197712962504498 1.3910067441518166
v 0.0580274527027028 0.0395706216216217 0.1183055472972973
vn -0.5532234940381673 2.5073250123736504 0.9188282615180494
v -0.0675015795454545 0.0473059545454546 0.1147190340909091
vn -0.2929734893375815 2.9730367564768212 0.6864337799774605
v -0.0657255312500000 0.0473634062500000 0.1154462395833333
vn -1.2953437166795105 5.5218783320751443 0.7556686046906096
v -0.0660664347826087 0.0472451304347826 0.1162561304347826
vn -1.2305131511950140 -3.0225711718695685 -3.1340647108695241
v 0.0581698421052632 0.0283285789473684 -0.1143863684210526
vn -3.7811364585966545 -2.6063131097931898 -1.8627564156972221
v 0.0566003368421052 0.0295928842105263 -0.1130161157894737
vn -2.6044359097168535 -0.4444011558747064 -1.6055247733737361
v 0.0548379629629630 0.0333785555555556 -0.1126587037037037
vn -2.5337575475292851 -1.9758383364531924 -4.2681956813489723
v 0.0571796370370370 0.0303187148148148 -0.1148731888888889
vn -3.3197074845240482 -4.8325448474331827 -1.6602920704238970
v 0.0578055609756097 0.0280061951219512 -0.1126481341463414
vn 0.0000000000000000 0.0000000000000000 0.0000000000000000
v 0.0554320000000000 0.0345500000000000 -0.1140200000000000
vn 0.0000000000000000 0.0000000000000000 0.0000000000000000
v 0.0574672941176471 0.0366020588235294 -0.1165770588235294
vn -2.4444427235117736 2.7113029400826196 -3.7980120801895554
v 0.0577350000000000 0.0388167633136095 -0.1153845917159763
vn -1.3705593832648615 1.6648623182649165 -1.4481058123396964
v 0.0580676666666667 0.0414324444444444 -0.1124333333333333
vn -2.8336128733678954 -0.7962594123310290 -4.4349484526665108
v 0.0566191735294118 0.0332833117647059 -0.1155542117647061
vn -1.3553303213942918 -2.1633261676470958 -0.5693973171293528
v 0.0574183043478261 0.0276254347826087 -0.1099975652173913
vn -2.5217343378322092 0.6799444965229071 -4.5185646418444172
v 0.0570059171428572 0.0363261571428571 -0.1159039571428571
vn 1.5713215355305488 -4.0652169424110580 0.4241785660959903
v 0.0655019909909910 0.0261657567567568 -0.1072349909909910
vn -1.3729636906396057 3.2618852507522811 -3.9093489455459025
v 0.0603093767123288 0.0414104041095891 -0.1148671849315068
vn 3.0189296255654878 2.6672000670436775 -2.5637449115591986
v 0.0678085083333334 0.0420118666666667 -0.1116967875000001
vn 1.7319180079009153 -2.2013696778299643 1.3506848204186253
v 0.0671982222222222 0.0281404444444444 -0.1044558888888889
vn 1.2549198214980961 3.9215356132277801 -0.7945391742880727
v 0.0658498032786885 0.0431320983606557 -0.1099199344262295
vn 2.7030981922224226 0.0650855981588883 -5.5887962105820064
v 0.0652734586466167 0.0360687067669173 -0.1143881578947373
vn 2.9754592272654099 -4.9513550351488682 1.1135576330643275
v 0.0683487753303966 0.0274812819383260 -0.1070055022026431
vn 3.7287154269776801 4.2649957199268629 -0.7189175649664439
v 0.0685776035242291 0.0418687048458150 -0.1096963964757710
vn 2.1796427533540554 3.9054484433922196 -3.4340175535112349
v 0.0656179810526317 0.0422646652631578 -0.1127160421052629
vn 0.7057487413770669 3.2499547739844359 -3.9792378129549615
v 0.0626718144329897 0.0420417903780069 -0.1145374982817870
vn 0.9763064628817121 -1.9519481314180389 0.8599322332997693
v 0.0661216428571429 0.0272927142857143 -0.1049050000000000
vn 2.7501592927917824 0.9627430289774548 -5.4923353501405989
v 0.0649541784511785 0.0391491784511785 -0.1142105084175085
vn -0.3014612997547017 -1.3384483952902575 -1.1444904145279093
v 0.0626113469387755 0.0253662653061224 -0.1112416122448979
vn 5.2396000668828657 -0.9361773955986200 0.2622444107811769
v 0.0717407824773413 0.0332003504531722 -0.1067542084592144
vn 5.2234441815217174 0.1418968104561931 -3.0145945468906499
v 0.0708607974276528 0.0363965016077169 -0.1094076607717040
vn 0.7945066860170049 -2.0375334064613182 -5.4722469923668813
v 0.0596314376098418 0.0301497644991213 -0.1146862284710016
vn -0.6357411984068149 -4.4416363726812369 -2.6207427929793137
v 0.0600067014563107 0.0270376092233010 -0.1126990169902913
vn -1.1835399002875930 -5.8894943078646564 0.0136508429287563
v 0.0623477272727273 0.0256062454545454 -0.1093620181818182
vn 4.6026343068214057 -0.9772745608362772 -3.8751217732542855
v 0.0693868125000000 0.0327451875000000 -0.1106121250000000
vn 3.2838317851491121 -1.4214492831532353 -5.0641399871913029
v 0.0662366807692308 0.0330531743589743 -0.1134617717948721
vn 3.7653574466959507 -2.3639139545275039 -4.3258831939989024
v 0.0675083404255319 0.0306813617021277 -0.1115697021276595
vn 1.6589965321077045 -1.2373874341943099 -5.8289543642377710
v 0.0626726705370102 0.0332493918722786 -0.1151109680696664
vn -0.3366349699263355 -2.7863382119361910 -2.1091495685715529
v 0.0591754418604652 0.0280680697674419 -0.1139870465116279
vn 3.2643340103387364 -4.0789297761102947 -2.9260103736227174
v 0.0657270093457945 0.0266597079439252 -0.1099719999999999
vn 1.1187718374768099 2.1101314540699994 0.1387286413615640
v 0.0663981111111111 0.0429077777777778 -0.1079247777777778
vn 2.6785736097818429 -1.1178990205535684 -5.4901454843087700
v 0.0651923892658852 0.0335456903146205 -0.1141744984577421
vn 3.3231435587919673 -2.7427569561478569 -0.0465239351185758
v 0.0699182000000000 0.0282746400000000 -0.1076167600000000
vn 1.2665895219101733 -3.3168603815710296 -1.5618702360626604
v 0.0646395333333334 0.0253547666666667 -0.1098376444444445
vn 1.4957025958694778 1.6751208127160973 -0.9228686006473141
v 0.0698755333333333 0.0411091666666667 -0.1102527000000000
vn 2.7908649703730148 -3.4292555451333002 -4.3411079121981881
v 0.0648797336448598 0.0276660841121496 -0.1114597009345796
vn 3.1572158947257165 -4.1695783861777675 -2.6544207516898211
v 0.0677485410256411 0.0275591769230769 -0.1091396102564104
vn 1.6764337012136936 2.1935999045471446 0.4377336620206489
v 0.0678177083333333 0.0418910416666667 -0.1068980833333333
vn 1.7001761334198677 -3.0886565115875912 -5.0523142214734511
v 0.0631279565217391 0.0291920869565217 -0.1134121304347827
vn 2.4557224918773590 -1.8961149842584466 -5.3189400026886133
v 0.0643721428571428 0.0312438571428571 -0.1139155714285714
vn 5.0297419128328702 -2.1699619653207405 0.6182911243071598
v 0.0707235828220859 0.0302057576687116 -0.1068082668711656
vn 0.7870205052702262 -5.1330371277977704 -1.0469999259394902
v 0.0632294634146341 0.0253509268292683 -0.1101136097560976
vn 4.9572908797776396 1.5662140760560956 -1.5644102600424727
v 0.0705861561181435 0.0392665316455696 -0.1095226814345991
vn 0.3964888960796821 -1.1924376648084993 -6.0527290482883496
v 0.0593374574468085 0.0332118421985816 -0.1156895425531916
vn 1.0804736563352364 -4.0694278192843365 -4.1980696088548530
v 0.0625208356643357 0.0271665402097902 -0.1122740472027973
vn 4.2662910819952247 -2.3513125269508448 -3.9459262727002740
v 0.0687414661190965 0.0298007392197125 -0.1096867720739220
vn -0.9216137857398723 -3.9056780595288618 -1.1127131839720705
v 0.0600381343283582 0.0261594626865672 -0.1098805671641791
vn 2.7338801227755916 -0.4876536173402415 1.5791779841226905
v 0.0702863125000000 0.0335935000000000 -0.1040124375000000
vn 2.7387970879412324 2.3946437843900767 0.6860766242642310
v 0.0693652142857143 0.0403798928571429 -0.1065242142857143
vn 4.0674987038901875 -1.0541988499545405 -4.5675298307519103
v 0.0678624978768580 0.0333614851380043 -0.1122951072186839
vn 3.0379697547213165 -2.6628607418374273 -4.7309263492654896
v 0.0655623017241380 0.0301438793103447 -0.1126937586206895
vn 1.4789590282659848 -2.3346909489955463 -5.5557423475224033
v 0.0625381323529411 0.0305973529411765 -0.1143078088235294
vn 0.0000000000000000 0.0000000000000000 0.0000000000000000
v 0.0697090000000000 0.0358090000000000 -0.1108980000000000
vn 3.8928107312830931 -3.7813813836669254 2.7395962345520877
v 0.0693171481481482 0.0290687777777778 -0.1057379629629629
vn 3.8855485738430335 1.2412342897285098 -4.6101346245767445
v 0.0694244591836735 0.0395508571428571 -0.1107128367346940
vn 2.4468451239517064 2.8545535580645125 -4.4108379990536104
v 0.0643559722222222 0.0417408333333333 -0.1138989722222223
vn 1.6694066626802770 1.0767972470414753 -5.9083154962899620
v 0.0625419245960502 0.0396161669658887 -0.1150558366247757
vn 0.3209599700211710 0.0413218125626331 -6.1384364792449064
v 0.0595733941747572 0.0363067145631069 -0.1160056893203884
vn 4.9711584020968180 -1.7189016717376315 -3.2935769142780504
v 0.0701309826839826 0.0307492510822510 -0.1085758874458874
vn -0.3887300986492414 -2.3541741777591318 0.1882663590025147
v 0.0606464444444444 0.0260116666666667 -0.1078052222222222
vn 0.1607374729268791 5.5433946066591213 -2.1021906960284809
v 0.0627816363636364 0.0429552575757576 -0.1127862954545455
vn 5.0889717764507703 2.8131772582685985 0.5855446066399537
v 0.0707353984962406 0.0390457443609023 -0.1073512255639098
vn 2.6611534546767186 0.4655610816310870 1.3930446337240694
v 0.0703790454545454 0.0364690000000000 -0.1043154090909091
vn 3.3268035837689487 1.4201177039401964 -5.0412148938669059
v 0.0662033439153439 0.0397018148148148 -0.1133572751322752
vn 4.1769864768839637 -0.0025231617308239 -4.5780919620936027
v 0.0681387175572520 0.0361950305343511 -0.1124066717557254
vn 5.2459531257793319 0.7219226291372391 0.1578940543382257
v 0.0718617613636363 0.0361845151515152 -0.1070292537878788
vn 4.0477914597369624 1.2879730693461053 -4.5202189863285600
v 0.0680842042253522 0.0395421197183099 -0.1119564031690138
vn -0.7561041441825344 1.9519319619302724 -5.1084211656394576
v 0.0597448285714285 0.0394073530612245 -0.1157519408163266
vn 5.1380716292760127 -1.0970568754299488 -3.2421647914755392
v 0.0706341238095240 0.0333143428571428 -0.1091126057142857
vn 2.1426575689513054 -1.4987746017703447 1.5681499718934873
v 0.0687226250000000 0.0300544375000000 -0.1039658125000000
vn 0.0262619191611103 -2.4238951329063614 0.3484252856550870
v 0.0625388148148148 0.0259897777777778 -0.1067082962962963
vn -1.1208382826838292 3.4465615434194383 -1.4500811818065227
v 0.0602253846153846 0.0423827846153846 -0.1127002153846154
vn 0.1332809692063070 2.2565343172344998 -0.5836089522155461
v 0.0626830370370371 0.0435420740740741 -0.1101985555555555
vn 2.3478062189570341 1.1440916935711607 1.0859559692014460
v 0.0699860000000000 0.0385336428571428 -0.1049626428571429
vn 1.7529171729434874 0.0244371993568587 -5.9295697798167906
v 0.0626887816091955 0.0362387701149425 -0.1154199310344829
vn 3.5108629285166160 -0.0300414927343380 -5.0940796370301324
v 0.0666130909090909 0.0359366363636364 -0.1136240454545455
vn 2.4974314913830682 0.5202757623337732 -1.7051201836189560
v -0.0551326363636364 0.0364215000000000 -0.1131098636363636
vn -2.7682492812890400 0.9878213523712083 -5.4764820680825954
v -0.0649595389830508 0.0391381966101695 -0.1142125084745763
vn -1.7473122381600974 0.0282430642135169 -5.9326759282918049
v -0.0626919655172414 0.0362387701149425 -0.1154199310344829
vn -0.1059013267860245 2.2673857998691633 -0.5598057388836962
v -0.0626860370370371 0.0435420740740741 -0.1101985555555555
vn 1.9732483395382352 1.6388764740019084 -1.7049951538923440
v -0.0565220606060606 0.0395045757575758 -0.1129353636363636
vn -2.0895569782741736 4.1594435229220750 -3.2615940720963370
v -0.0655604444444444 0.0424014390243902 -0.1126205094850948
vn -0.9765277735013157 -1.9518006368238181 0.8593723596598549
v -0.0661246428571429 0.0272927142857143 -0.1049050000000000
vn -0.0241901124427032 -2.4281385680590910 0.3502120011491222
v -0.0625237777777778 0.0259891481481481 -0.1067186296296296
vn -3.5107384810499696 -0.0300790494236686 -5.0942120623958527
v -0.0666161363636364 0.0359366363636364 -0.1136240454545455
vn -4.0652602990522606 -1.0572266310038405 -4.5695585870698832
v -0.0678656114649682 0.0333614596602973 -0.1122952027600852
vn -2.3484184350487256 1.1438044305682706 1.0848883759557875
v -0.0699892857142857 0.0385336428571428 -0.1049626428571429
vn -2.7332754739111014 2.4002984080269854 0.6915525471653483
v -0.0693683571428571 0.0403798928571429 -0.1065242142857143
vn 2.6281318282014632 0.7357884837478916 -4.5386939342315769
v -0.0569496454849498 0.0363284448160535 -0.1157995685618730
vn -5.2996136812042129 0.7753728328102222 0.1786551991665872
v -0.0718206708333334 0.0361981875000000 -0.1069494500000000
vn -0.4991910947579311 3.2235802961500890 -4.1164195064784233
v -0.0625813495575221 0.0420199646017699 -0.1145399911504424
vn -5.1680259017858141 -1.1176995489083430 -3.1530959450659672
v -0.0706184882352943 0.0332771745098039 -0.1091287294117648
vn -4.3661232566946149 -2.6042108667486419 -3.6000557051031237
v -0.0687360020746887 0.0298153132780083 -0.1097036493775934
vn 0.8160553066255942 2.0041873390906195 -5.0558655792138030
v -0.0596911227154047 0.0394690783289818 -0.1157118616187990
vn 1.1175053668948558 3.4475549597443065 -1.4509080094045319
v -0.0602286923076923 0.0423827846153846 -0.1127002153846154
vn -3.1806541484559276 1.3314489662614490 -5.1721266005390181
v -0.0662067989417990 0.0397013492063492 -0.1133570529100529
vn -3.7658175351468857 -2.3661045592493615 -4.3237328393094581
v -0.0675115531914893 0.0306813617021277 -0.1115697021276595
vn -4.6011957288925460 -0.9580554204030792 -3.8759461194719043
v -0.0693899375000000 0.0327451875000000 -0.1106121250000000
vn -2.6486189073458104 0.4951865129363429 1.4147614743957797
v -0.0703822727272727 0.0364690000000000 -0.1043154090909091
vn 1.3742868157806400 1.6765731596483571 -1.4339048659105700
v -0.0580712222222222 0.0414324444444444 -0.1124333333333333
vn -5.1117400611971364 2.7553885789443937 0.5834644973842225
v -0.0707386090225563 0.0390457443609023 -0.1073512255639098
vn -2.2975384320670287 2.9225249325938276 -4.1670792422476879
v -0.0643267179487179 0.0419371923076923 -0.1139035128205128
vn -4.8349812097189968 -2.2455650616217069 -2.9563093981149682
v -0.0701522339449541 0.0308556100917431 -0.1086040642201835
vn -0.2792933111979456 0.0696789252759894 -6.1209101869737008
v -0.0597066602870813 0.0362905789473685 -0.1159928397129186
vn 2.5258364265398363 2.6943426008858560 -3.8106902547893955
v -0.0577045859872611 0.0388552611464968 -0.1153032547770700
vn 0.0000000000000000 0.0000000000000000 0.0000000000000000
v -0.0574643333333333 0.0365840000000000 -0.1165770000000000
vn 0.3889068821437645 -2.3541252037660474 0.1876201420395604
v -0.0606494444444445 0.0260116666666667 -0.1078052222222222
vn -2.7075582439062278 0.0602448216416772 -5.5875280382842307
v -0.0652766616541353 0.0360687067669173 -0.1143881578947373
vn -1.6796137214690341 2.1912571992888923 0.4344263423498108
v -0.0678207083333333 0.0418910416666667 -0.1068980833333333
vn 1.4388967505542114 3.3743009496071790 -3.8997655165020144
v -0.0602436456692913 0.0414311181102362 -0.1147648110236219
vn -1.6352295863715762 1.1016822656025023 -5.8982764598303685
v -0.0625904754797442 0.0394790852878465 -0.1150736332622602
vn -3.6005771990669890 -3.8028068082699473 -2.3120038341592428
v -0.0676914894894895 0.0275720570570570 -0.1091932552552552
vn -1.5818571495959763 -4.0529739628947787 0.4098042463579525
v -0.0655052432432432 0.0261657567567568 -0.1072349909909910
vn -0.0275673384933864 5.5992060203775100 -2.0895389669888114
v -0.0627848409090909 0.0429552575757576 -0.1127862954545455
vn -1.2929922249209886 3.9303100884851156 -0.7391387039636561
v -0.0658531311475410 0.0431320983606557 -0.1099199344262295
vn -1.4720369624092882 -2.3382733465300056 -5.5550135835443983
v -0.0625413382352941 0.0305973529411765 -0.1143078088235294
vn -2.6768672823608441 -1.1179556832276691 -5.4909232294455252
v -0.0651911665642284 0.0335455218192992 -0.1141766687154272
vn -1.1192035204015818 2.1104473530932166 0.1383961379584023
v -0.0664021111111111 0.0429077777777778 -0.1079247777777778
vn -3.7065222510333622 4.3150928929876349 -0.7065307269486492
v -0.0685278411214954 0.0418931121495327 -0.1096425000000001
vn -3.6249563568001024 -3.9982998094150042 -2.7478070529566661
v -0.0658066888297872 0.0267296648936170 -0.1099353909574467
vn -1.0851846521748725 -4.0443122139158891 -4.2578569220453568
v -0.0625030212765958 0.0272648471953578 -0.1123362011605418
vn 0.4468663837475393 -2.8193683938210379 -2.0338639506989820
v -0.0591248208955224 0.0279986417910448 -0.1139678059701493
vn -0.6101959684307481 -5.2172828214932334 -1.0436706694263660
v -0.0632383614457831 0.0253502048192771 -0.1101203734939759
vn -3.1386579832672252 -4.6691961910948336 0.5106813093194748
v -0.0683606113537118 0.0274831266375546 -0.1070133275109170
vn 1.5044285971932569 -1.5892517387082861 -0.5560229313584806
v -0.0563970000000000 0.0286990000000000 -0.1108080000000000
vn -1.6585665037099808 -1.2416147155773603 -5.8288389326637962
v -0.0626646163982431 0.0332471420204978 -0.1151139765739386
vn -2.4567683114425098 -1.8967508074606925 -5.3184253711959073
v -0.0643752142857143 0.0312438571428571 -0.1139155714285714
vn -1.4654827412707179 1.6967310794646271 -1.0056958380711647
v -0.0698757600000000 0.0411102000000000 -0.1102566400000000
vn -3.2223949679172050 2.8142808624846420 -2.4786617357554275
v -0.0677805368421053 0.0419866368421053 -0.1117076684210527
vn -2.8067819300996226 -3.3106730201893035 -4.4365017330555228
v -0.0648588914027149 0.0276356561085973 -0.1114512986425341
vn 1.2595158917426903 -2.9953612475029434 -3.2153331294920102
v -0.0581731578947368 0.0283285789473684 -0.1143863684210526
vn 0.2952299729366988 -1.3537402095469042 -1.1548637813356890
v -0.0626188823529412 0.0253670784313725 -0.1112424509803921
vn -1.5085280771075662 -4.0361723497620137 -1.1978174298384310
v -0.0646402258064516 0.0253542580645161 -0.1098489892473119
vn -2.6754510173633657 -2.5894508855567917 -0.5666437114760561
v -0.0699214800000000 0.0282746400000000 -0.1076167600000000
vn 1.1893193689017374 -5.8798272104395215 -0.0028604675468828
v -0.0623525454545455 0.0256063000000000 -0.1093612181818182
vn 3.7808173973727763 -2.7173419790894018 -1.7371952977584511
v -0.0566036736842105 0.0295928842105263 -0.1130161157894737
vn -1.7316310619502824 -2.2018736619301222 1.3506464459893137
v -0.0672016666666667 0.0281404444444444 -0.1044558888888889
vn -4.1743100530921211 -0.0035127225733089 -4.5825256771938125
v -0.0681419236641222 0.0361950305343511 -0.1124066717557254
vn -1.7111926916426186 -3.0997689219523821 -5.0389402895629045
v -0.0631311739130434 0.0291920869565217 -0.1134121304347827
vn -3.2835704652666839 -1.4210232468999278 -5.0643675112226756
v -0.0662398948717949 0.0330531743589744 -0.1134617717948721
vn 2.9057142008939003 -0.7066505988245819 -4.3577463546609270
v -0.0565064183006536 0.0333072614379085 -0.1155074509803923
vn -5.1980364237629519 -0.8910526537469280 0.3812720036637889
v -0.0717663414634146 0.0332442648083624 -0.1065810836236934
vn -5.2127920362585902 0.1159682042975174 -3.0293058342015851
v -0.0707885608782435 0.0363658183632734 -0.1095091057884232
vn -3.9057121404471355 1.2245823949975359 -4.5542581229200287
v -0.0694602424242425 0.0395063787878788 -0.1107093636363636
vn 0.6532755952489918 -4.4679756666570762 -2.5110164325351230
v -0.0599664388297872 0.0270158962765957 -0.1126506808510638
vn -0.7517416920145392 -2.0451469865264631 -5.4646920574842781
v -0.0596861783088235 0.0301901525735294 -0.1146860330882353
vn -3.7928167876270775 -3.8916962769528589 2.8189053836310642
v -0.0693205185185185 0.0290687777777778 -0.1057379629629629
vn 1.3632323460745990 -2.1610865486093283 -0.5619651408948673
v -0.0574213043478261 0.0276254347826087 -0.1099975652173913
vn 0.0000000000000000 0.0000000000000000 0.0000000000000000
v -0.0697130000000000 0.0358090000000000 -0.1108980000000000
vn -3.0360101289045218 -2.6683290162105942 -4.7279053332158396
v -0.0655655603448276 0.0301438793103447 -0.1126937586206895
vn -4.9860509200818557 1.5648226409182582 -1.4632542953896048
v -0.0705912853260869 0.0393035896739131 -0.1094725733695653
vn -4.1338068833121939 1.1625637374639806 -4.4873950975600563
v -0.0680875875251509 0.0394020462776660 -0.1119959215291748
vn -0.3377705078058441 -1.1915749470887933 -6.0451536912566191
v -0.0593502526881720 0.0331902688172043 -0.1156853315412188
vn 2.6218915589659928 -2.0305687280589200 -4.1196789801758769
v -0.0570747291666667 0.0302306041666667 -0.1148093416666667
vn -4.8390155991769692 -2.2368237598626250 0.5236948553791223
v -0.0707324689655172 0.0301615068965517 -0.1066616275862068
vn 0.8910367941481149 -3.9049009411998199 -1.1229609937269986
v -0.0600413283582089 0.0261594626865672 -0.1098805671641791
vn 3.3837101207323537 -4.8175023212356622 -1.6352601708443586
v -0.0578089634146341 0.0280061951219512 -0.1126481341463414
vn -2.6942803547544814 -0.4778546341285540 1.6736555524387087
v -0.0702894375000000 0.0335935000000000 -0.1040124375000000
vn -2.1075686685780175 -1.5145054911858697 1.6092230389333910
v -0.0687256250000000 0.0300544375000000 -0.1039658125000000
vn 1.7899351733491644 -0.7164985258656082 -0.9527862709759946
v -0.0552497142857143 0.0309618571428571 -0.1119307142857143
vn 2.6374107429926554 -0.4181114226191104 -1.5658284463871974
v -0.0548411481481482 0.0333785555555556 -0.1126587037037037
vn 0.0000000000000000 0.0000000000000000 0.0000000000000000
v -0.0554360000000000 0.0345500000000000 -0.1140200000000000
vn -1.5046293122479353 -1.5893006002227617 -0.5558294831064674
v 0.0563940000000000 0.0286990000000000 -0.1108080000000000
vn -1.7636228695908280 -0.7056846355750763 -1.0045017795971252
v 0.0552463571428571 0.0309618571428571 -0.1119307142857143
vn -2.5027103856047077 0.5220743340378023 -1.6985897137432104
v 0.0551294545454546 0.0364215000000000 -0.1131098636363636
vn -1.9571124679567105 1.6442746607086640 -1.7152843786502388
v 0.0565190606060606 0.0395045757575758 -0.1129353636363636
vn 1.9282633650685050 0.6804741939958465 -0.8593310224413111
v 0.0731283640000001 0.0418792120000000 0.1100287960000001
vn 1.7157025236636345 1.3955025165996242 -0.1610094497259455
v 0.0723514047619048 0.0438492142857143 0.1108766785714285
vn 3.3671518771431188 2.1870629049920582 -0.6220584784501522
v 0.0726900370370370 0.0443381111111111 0.1127408148148149
vn 3.0453254151510771 -1.0252390637501565 1.0512387640476308
v 0.0734511841652324 0.0365084647160069 0.1142013321858863
vn 4.0680116988644555 -1.4142667941374141 4.4396821230495815
v 0.0707344828767123 0.0365554657534247 0.1173630273972603
vn 2.6963398172798585 -1.3332829728072837 5.4130072320287104
v 0.0680281736716888 0.0369161609833465 0.1193018096748609
vn -0.0821717667168140 -1.1406601175839184 0.0736878733364657
v 0.0682373139880950 0.0334063883928571 0.1176244776785710
vn 0.9823795746840684 -3.5178507976544808 0.5789188078768850
v 0.0684505812720849 0.0301951077738516 0.1150717226148409
vn 0.1153766356416835 -2.8165315727530564 1.1720808880323497
v 0.0653757086206896 0.0305365844827586 0.1171837275862067
vn -1.7668968519712964 -0.1644786285884194 3.0804853215550114
v 0.0655677216494846 0.0393371752577319 0.1205752680412373
vn -1.0176749437378847 1.3250522052958134 3.6298014766213167
v 0.0627189824218749 0.0424441093750000 0.1210239785156250
vn 2.3398078870767414 0.1853678307719373 2.1511512029987530
v 0.0725852857142857 0.0394420000000000 0.1161327142857143
vn -4.0620419653911526 0.2398664798535469 -4.1890609803667429
v 0.0714218000000000 0.0392719200000000 0.1155183200000000
vn -0.5198126299686333 -2.4622421871775186 -0.1395981878206698
v 0.0635972272727273 0.0298744090909091 0.1129627727272727
vn 3.7184678388238455 1.7234934065307344 -0.5104321347872436
v 0.0733504882459312 0.0426823905967452 0.1114097197106692
vn 1.6639946776508672 2.2069492154546118 -0.4502061000176313
v 0.0712353087818696 0.0453660906515581 0.1121307422096318
vn 24.0575236245665529 0.7631281033062491 -5.1888220525003463
v 0.0753653846153846 0.0387020000000000 0.1126225769230769
vn 0.0777370740850328 -5.5260152915847067 0.8269221762514384
v 0.0655173008130082 0.0293697439024391 0.1147144390243904
vn -3.2380557085991564 2.6696371022901104 3.9463462667325131
v 0.0600525729166667 0.0422744088541667 0.1199435182291668
vn -1.5283013848181597 3.0185683983318232 3.8524115493470159
v 0.0627313893805309 0.0448661681415929 0.1200393761061947
vn 0.4405528608564799 -0.6582773667770143 -0.3060756844361476
v 0.0720879523809524 0.0358041904761905 0.1155945714285714
vn -0.4350154721969560 -0.8499134226852803 -0.4629224715813343
v 0.0691222391304348 0.0325399782608696 0.1157421739130435
vn 0.8899100012003254 -1.3773159747225958 1.5183114123985362
v 0.0674113529411765 0.0310617411764706 0.1164669882352940
vn -0.0420554571663421 -1.2145628194686764 -0.4100938429791131
v 0.0656567676056339 0.0325772042253521 0.1182480070422535
vn -0.0518062033187834 0.4029871099999943 4.7621561818507923
v 0.0655474779969648 0.0364062534142641 0.1201257890743549
vn 2.8973380922952123 -0.1789412171462164 5.4364887569949447
v 0.0682818483572031 0.0390980850884583 0.1194982173546758
vn 3.8725927997365481 -0.0899303240847954 4.7367224636654868
v 0.0709133800000000 0.0393093600000000 0.1177253333333331
vn 4.1222029468515018 -0.0002320085020376 0.2625960837315453
v 0.0737383714733544 0.0394278275862069 0.1145536034482755
vn -1.6164426126344433 1.8834908836095710 1.7119122451982927
v 0.0606505547169812 0.0446650716981133 0.1180277094339622
vn 0.7738036255335108 -0.8447968166665546 3.1541147664014804
v 0.0690881725888325 0.0364702969543147 0.1185546116751271
vn 3.1241329441679158 -1.7036711232431498 1.8517539755947987
v 0.0728515402298850 0.0340726034482759 0.1137344195402298
vn 3.6102810085790740 -2.7860097349427773 3.9898353052073707
v 0.0702340624999999 0.0339648437500000 0.1166472187500000
vn 2.1443975946798366 -2.6650615724513886 0.1258186117267051
v 0.0705421358490566 0.0307786226415094 0.1140877584905660
vn 2.2766964041770286 -2.3165052246419098 5.1452664184256083
v 0.0669713333333333 0.0345233333333333 0.1190166666666667
vn 1.1456056998686597 2.1098767514137506 -0.1584623657794574
v 0.0693763898305085 0.0467257457627119 0.1130572881355932
vn -0.8189569697515081 2.3896651844427259 1.3284648095383131
v 0.0625551229508197 0.0460840437158470 0.1174608456284153
vn -2.1664025645835698 1.3437443375390179 1.5693547873501386
v 0.0592386591760300 0.0426932041198502 0.1183622790262173
vn 1.9027767931025377 -1.5117254983216941 0.4266987893194827
v 0.0713368212121212 0.0330110545454546 0.1147031590909089
vn 1.5916403044105061 -2.6199748379238939 5.3691430976569761
v 0.0652758043478260 0.0339655217391304 0.1193328043478261
vn 1.8703164547317725 0.0967090062607197 0.4085956674584764
v 0.0694926144578313 0.0388423493975904 0.1186507951807229
vn -2.7016918228234807 1.3297389937124968 -4.0093631923238497
v 0.0655362500000000 0.0369128750000000 0.1184361250000000
vn -1.5062868551797204 -1.6103762268058230 0.5525570735878474
v 0.0596408085106383 0.0322321914893617 0.1157321702127660
vn 0.8164407412831536 -2.0229963914111577 -1.0137740864381959
v 0.0690553600000000 0.0311253000000000 0.1100690800000000
vn -3.5567039417885562 -4.6311928878245965 1.8792198415189529
v 0.0607860571428571 0.0314905428571428 0.1166926857142857
vn -1.0787374650290211 -3.6052621263545386 0.6102535129037304
v 0.0625343377192983 0.0302155000000000 0.1146492149122807
vn 0.2348274028086377 -2.8874661356739719 -0.2981928556929644
v 0.0655796026490066 0.0297602781456954 0.1121981456953643
vn 2.9473375166561335 -0.7703531393152621 -1.6272346246675244
v 0.0731716583850932 0.0364026521739130 0.1093549068322980
vn -3.9605612721607901 0.0671886288978327 4.2869947120805296
v 0.0593545900216920 0.0394358416485899 0.1203643752711499
vn 3.3167929691734148 4.6536290132696925 1.0566675575444315
v 0.0710455441988951 0.0459207679558011 0.1144064337016575
vn 5.4196124332296467 0.6212004618974223 -0.5278598935839514
v 0.0747226360544218 0.0396061122448979 0.1118062142857144
vn -0.0092060711723157 -1.5648414090892668 1.6100829775648555
v 0.0635671941747572 0.0321551844660194 0.1186720873786407
vn -0.4564960546195980 -0.4622093139300205 3.4142087645393149
v 0.0622742523219814 0.0363410696594427 0.1206188235294116
vn 2.4873716487351616 2.1963256785339298 4.3578666927937819
v 0.0679474229765015 0.0423560783289817 0.1194787101827675
vn 0.1355712983417711 2.8453988337378116 2.7716527621934639
v 0.0655350121065375 0.0452740944309927 0.1198275641646490
vn 0.6769696698481125 1.2804844287323427 1.0889323375357325
v 0.0710520900321544 0.0425628215434084 0.1172584003215430
vn 3.9161966090488978 1.7322279719269540 0.4708833141043423
v 0.0735579441624364 0.0423324416243655 0.1147737411167510
vn -0.2836638260720670 -0.6074019288168460 -2.7939619011872621
v 0.0697760000000000 0.0316180000000000 0.1097750000000000
vn 3.6310054302404033 -4.1994752878382666 -2.6059273986917129
v 0.0718123333333333 0.0322356781609196 0.1111873908045976
vn 4.6420387497763205 -2.7208441638727185 -3.0261164740096924
v 0.0726834090909091 0.0344383181818182 0.1098281363636364
vn 1.4962771084516464 3.4433072547860863 0.8573557748983134
v 0.0688523150289018 0.0469726156069365 0.1142558526011561
vn 0.0005331076772360 4.2425334440097942 2.1519896232824021
v 0.0649692816901409 0.0469062112676056 0.1172100366197182
vn -2.6365277695790530 0.8995694652912282 2.0693265142127517
v 0.0584075423728814 0.0405654237288135 0.1186666949152543
vn -0.8309266596550062 -2.0737970501458380 3.2589880635789035
v 0.0625076397058825 0.0334209172794117 0.1196205533088236
vn 0.6866572685774101 0.7735140827741501 -0.4688244919908527
v 0.0688924782608696 0.0427431677018634 0.1184266459627331
vn 1.9907855380736292 -1.0419264144262113 -1.3858959785824279
v 0.0723893076923077 0.0350588461538461 0.1089391538461539
vn -3.0431409103971161 -2.5980817468138202 1.9981492342594322
v 0.0595722365930599 0.0331493028391167 0.1175774794952681
vn -1.5678647990881514 -2.4481586028766928 0.4551535771488181
v 0.0606704137931034 0.0312554655172414 0.1151622413793103
vn 1.0187746778254660 -3.8103508683304197 -0.4196505956531580
v 0.0682222622950820 0.0301417336065573 0.1118144344262294
vn 2.7918663111478490 0.2516946431064255 -1.5027587241100213
v 0.0735683525896414 0.0395515278884463 0.1096314581673307
vn -0.9178187519225616 -3.9420485610251577 1.4212920542013721
v 0.0627130247252747 0.0305846043956044 0.1176760851648352
vn -0.4856458736365015 0.3593086826188718 2.7418740580568395
v 0.0604433333333333 0.0404210000000000 0.1217350000000000
vn -2.7854454041660324 -1.0224729506950736 4.3944672843960157
v 0.0596287131147542 0.0362907021857924 0.1205242841530056
vn 1.5360842824212395 1.1815425120679102 1.7274219230909122
v 0.0730297524752476 0.0446682673267327 0.1148370396039604
vn 5.1697659121005248 -1.1834419615989533 -0.1797134254152319
v 0.0745710523560209 0.0362975628272251 0.1119138350785343
vn -0.2829714400417565 -0.0731830356146608 3.0981644000015072
v 0.0624087486631016 0.0394289411764706 0.1211067504456328
vn -0.2964100719459661 1.0686724716626357 2.0018894165012568
v 0.0653497966101695 0.0427211576271186 0.1203080593220336
vn 0.4641440756561143 2.2197446944833810 1.3590246274272793
v 0.0673128370786516 0.0451674719101124 0.1191261292134832
vn 2.6494113563435970 2.0273135656711023 0.9787518093954639
v 0.0706795651162790 0.0451545069767442 0.1169986604651164
vn 2.3240414327650809 3.1469216864609058 2.0764441822324500
v 0.0722086216216216 0.0431165270270270 0.1158956486486487
vn 0.0000000000000000 0.0000000000000000 0.0000000000000000
v 0.0725690000000000 0.0415450000000000 0.1160810000000000
vn -0.0860296083635108 1.4618535436477886 0.3410029089490306
v 0.0643687500000000 0.0471497500000000 0.1160145000000000
vn -5.1720528933605721 -2.2208422302504536 2.0655758419184305
v 0.0584396862745098 0.0357030980392157 0.1183096078431373
vn 2.0859124038425354 -2.0665737346874753 -1.7375693629812112
v 0.0713764293193717 0.0331230837696335 0.1095633350785341
vn 3.3234579184556430 -4.6076455306225093 -0.7159285804865434
v 0.0709053440366972 0.0310772018348624 0.1120847339449541
vn 4.3492159448422019 -2.8263742873972144 0.0727508596953066
v 0.0734365280898875 0.0334068258426967 0.1121349382022471
vn -0.7622841310724939 -2.2375404583462584 2.5640054313046923
v 0.0617362500000000 0.0314306666666667 0.1190808055555556
vn -1.5683041818967551 -2.7595752818144796 2.8701864944910183
v 0.0603799957081545 0.0336031888412017 0.1199951373390557
vn 0.9863960198529711 3.2670258026216157 1.5201930484691770
v 0.0684855748175184 0.0457974981751826 0.1179380675182482
vn -2.8324569882188753 0.1143288364498928 -1.5396240097931717
v -0.0735653577586206 0.0389469827586207 0.1095416336206896
vn -2.1317107621589835 2.6301485501489319 -0.7732192234044977
v -0.0712932562814071 0.0453399748743719 0.1121763366834170
vn -21.0496957822416384 0.8866949307703890 -5.3573128876796972
v -0.0753656521739130 0.0387073478260870 0.1126235217391304
vn 0.1010131107043313 -5.6424365471191873 0.7464292037574336
v -0.0652958771331057 0.0294264402730376 0.1144724914675769
vn 2.6091475169437590 3.1496008920566267 3.4750379707661865
v -0.0602155000000000 0.0421754070512821 0.1202583589743590
vn -5.2453608387369552 -1.2618184997604365 -0.2631879023354985
v -0.0744993399433428 0.0363108243626062 0.1117998385269124
vn -3.3392236844296996 2.4441121917604862 1.5472629469422192
v -0.0730513059701493 0.0446661343283582 0.1149293432835821
vn 0.1468337223718651 -0.1881795188559516 3.0520970594559342
v -0.0625342182952182 0.0393778586278586 0.1210785613305615
vn 0.0443006801669213 0.4023269955696140 4.7658106682276946
v -0.0655474779969650 0.0364062534142640 0.1201257890743550
vn -3.8748767064468947 -0.1028499536031200 4.7331939045618050
v -0.0709133800000000 0.0393093599999999 0.1177253333333331
vn 0.0000000000000000 0.0000000000000000 0.0000000000000000
v -0.0725690000000000 0.0415450000000000 0.1160810000000000
vn -0.7738036255343381 -0.8447968166667537 3.1541147664012810
v -0.0690881725888325 0.0364702969543147 0.1185546116751270
vn -0.4357016723526975 -0.6693615938921973 -0.3203855177308635
v -0.0720879523809524 0.0358041904761905 0.1155945714285714
vn 0.0611795195650910 -1.2062750750056921 -0.4055136831927588
v -0.0656251172413793 0.0325714103448276 0.1182492793103448
vn -2.2766964041770996 -2.3165052246425355 5.1452664184255266
v -0.0669713333333333 0.0345233333333333 0.1190166666666667
vn 0.9504104230270558 -4.0477855350776304 1.3624819994933817
v -0.0626222600619195 0.0306037863777090 0.1175703869969040
vn 0.9920541233138559 -3.3656861816260908 0.5635058699020588
v -0.0624337981651377 0.0302530550458716 0.1144134373088687
vn -2.8872163694891699 -0.7979581462272595 -1.5931831960188310
v -0.0731331861702126 0.0364050815602837 0.1093007340425529
vn -1.4569132991256932 1.2477766018117837 -0.2771729731337112
v -0.0723273928571429 0.0438193928571428 0.1107667500000000
vn -1.0472563855365717 1.9627515091779248 -0.1748911586074933
v -0.0693464545454545 0.0467402272727273 0.1130774545454545
vn -5.3149328631576678 0.4124037427842446 -0.2887860920857549
v -0.0748299093851133 0.0395393236245955 0.1119915436893205
vn 1.7784644347064769 -0.1170277285876113 2.9942980679633902
v -0.0655677216494846 0.0393371752577319 0.1205752680412373
vn -1.8694665308053544 0.0943402175930833 0.4085066118946118
v -0.0694926144578313 0.0388423493975904 0.1186507951807229
vn -4.1988715383110424 1.4172604055847893 0.5690868460588367
v -0.0736973150406505 0.0423150406504066 0.1146259126016258
vn -4.0654002549142501 -1.4158120900251363 4.4421834155185653
v -0.0707344828767123 0.0365554657534246 0.1173630273972603
vn 0.5696294555703287 -0.4243341634320370 3.4052915267548869
v -0.0623997064056939 0.0363555676156584 0.1206021423487544
vn -0.1165102637476973 -2.8055448275557486 1.0879777159293134
v -0.0653865881057268 0.0305655770925110 0.1171927885462553
vn 0.0640973892704654 -1.6180757699926471 1.5610175275588194
v -0.0635768536585365 0.0322170853658536 0.1186764146341463
vn 3.9995270415559250 0.2149748450809934 -4.2157866141912210
v -0.0714218000000000 0.0392719200000000 0.1155183200000000
vn 1.9877988871336338 1.4171423553841307 1.7172423960739844
v -0.0592423692307692 0.0427777923076923 0.1182634461538463
vn -4.3753268276253134 -2.8985685396444598 -0.0433877474134939
v -0.0734000225806450 0.0334758548387097 0.1120110645161291
vn 0.6375729322088151 -2.1368704234934608 2.4940045044394630
v -0.0617486250000000 0.0314130000000000 0.1190679583333333
vn -2.6963398172802293 -1.3332829728071898 5.4130072320282858
v -0.0680281736716889 0.0369161609833466 0.1193018096748613
vn -1.9141863167812920 -1.5243022688454935 0.2765499855261366
v -0.0713056594323873 0.0330730434056762 0.1147684307178631
vn 0.0775013081941134 -1.1416790873032006 0.0702642746629207
v -0.0682373139880950 0.0334063883928571 0.1176244776785709
vn -0.9406124307482733 -3.6004977771521642 0.5102608308101035
v -0.0684263497757848 0.0301760201793723 0.1150205560538117
vn -1.5844909013988981 -2.6389025196366425 5.3587728054845956
v -0.0652758043478260 0.0339655217391304 0.1193328043478261
vn 2.7128463139943864 1.3321158436109848 -3.9990819303470833
v -0.0655362500000000 0.0369128750000000 0.1184361250000000
vn -4.6468205572368300 -2.7087648824071300 -3.0236136763912462
v -0.0726676279069768 0.0344710232558139 0.1097766976744186
vn 1.6688652862881002 1.6940392300377702 1.7953845719751067
v -0.0606618142857143 0.0446657142857143 0.1180444428571428
vn -2.8994162822648017 -0.1811266970188749 5.4358467322951274
v -0.0682818483572031 0.0390980850884583 0.1194982173546758
vn -3.6058150679695222 -2.8038027800517269 3.9700938850610070
v -0.0702340624999999 0.0339648437500000 0.1166472187500000
vn -2.1645938138562051 -2.5403401239100973 -0.0784657892898657
v -0.0705403910891089 0.0307774405940594 0.1140930297029703
vn 0.4146816888512685 -0.8090288120287207 -0.4409484793952228
v -0.0691222391304348 0.0325399782608696 0.1157421739130435
vn -0.8629616648438696 -1.3590951444208574 1.4513376038758063
v -0.0674567189542485 0.0311190915032679 0.1164802287581699
vn 0.9466585255023624 -2.1067177887923352 3.2468165968777045
v -0.0625552561797755 0.0334536696629213 0.1196269101123597
vn 1.5534123249871481 -0.9654286743416399 1.6074035766698214
v -0.0582681250000000 0.0346836875000000 0.1170191250000000
vn 1.6938003502850409 -1.7791301876269925 0.6462078484081130
v -0.0597314480519481 0.0321533571428571 0.1157452077922079
vn 3.5645738525261117 -4.5179891930885585 2.0253919030334804
v -0.0607587500000000 0.0314930416666667 0.1166199375000001
vn -0.2923146000421463 -3.0326552276161540 -0.3290011925140235
v -0.0655188202846974 0.0297614982206406 0.1122059839857650
vn -1.7007010449297271 0.5502842883000396 -0.8240992565952526
v -0.0730706268656717 0.0419218955223881 0.1099518358208955
vn -4.6016289429929103 3.5681746252159057 -1.5603945590604253
v -0.0727363333333333 0.0443870000000000 0.1129813333333333
vn 3.7144242449968559 -0.0171447568365758 4.1567907065298844
v -0.0594236624040921 0.0394060869565218 0.1206087007672635
vn -3.2502700551518475 4.7291471762616286 0.9802248152559981
v -0.0712482500000001 0.0458628446969697 0.1146188901515151
vn 1.0761217683753999 1.3739102962685383 3.6836175168973737
v -0.0626162351485148 0.0425443094059405 0.1210347128712870
vn -0.1212742972247473 2.8849720518946711 2.7914487661480480
v -0.0654549717514123 0.0454928644067796 0.1198196610169490
vn -0.9805599998374438 3.2849216067659195 1.4986703396690637
v -0.0684715652173914 0.0459225113871636 0.1179101884057971
vn -0.6379344402821874 1.1203898888289685 1.2259509752643201
v -0.0710196526138281 0.0425028566610456 0.1173046222596964
vn -2.3548965613039226 0.1729971569021287 2.1538810822907308
v -0.0725852857142857 0.0394420000000000 0.1161327142857143
vn -3.1285524786470136 -0.9717148474789499 0.9241944106155398
v -0.0733955000000000 0.0365768000000000 0.1143050560000001
vn 0.5676988955760223 -2.5761382430482849 -0.1275088142332458
v -0.0635829761904762 0.0298781428571429 0.1129727023809523
vn -2.0253092146603535 -1.0620130729252564 -1.4154160364004733
v -0.0723780408163265 0.0350313061224490 0.1089419387755102
vn 0.0000000000000000 0.0000000000000000 0.0000000000000000
v -0.0582690952380953 0.0382099047619048 0.1189184285714285
vn 2.7679474646627753 -2.3175763276851153 1.8025747767629410
v -0.0592977251308899 0.0332834437172775 0.1171731361256544
vn 1.6471472103495941 -2.6036177394522180 0.4695296078771103
v -0.0606719406779661 0.0312704957627119 0.1152538771186440
vn -4.3984188592661138 2.1998637332868256 -0.8140697212059813
v -0.0736093566433566 0.0425593671328671 0.1118327972027971
vn -1.5009875503517671 3.8779058949860925 0.9665446125433893
v -0.0689032992125984 0.0469515590551181 0.1146818503937008
vn 2.8892580707096633 -1.1372660004038651 4.4244282536620085
v -0.0595610233918129 0.0363216871345029 0.1204148538011697
vn 0.5537402228472639 0.4371884040004645 3.0671431824071549
v -0.0604495882352941 0.0404390588235294 0.1217350588235294
vn 1.5018236180251314 2.9422311914366848 3.9010062291378804
v -0.0627839270386266 0.0448656781115880 0.1201493476394850
vn 0.2849158814872854 1.0150329137473637 1.8915560558182860
v -0.0654395288640596 0.0426405679702048 0.1202918026070763
vn -0.6618085277959371 0.7755809126692056 -0.4554755680736298
v -0.0688924782608696 0.0427431677018634 0.1184266459627331
vn -2.5952885077196459 2.1113806808310533 1.1480256750343318
v -0.0706821601123596 0.0453480646067416 0.1169640870786517
vn -2.7262193314195535 1.2809243536501171 2.3837138964947182
v -0.0721956949152542 0.0429898983050847 0.1158797457627118
vn -4.1113059033156896 -0.2440134036758397 0.2561422687143260
v -0.0736027538759691 0.0394057926356589 0.1147070310077518
vn 0.1038564667397170 1.3824435376577664 0.3193798452325451
v -0.0642920000000000 0.0471190000000000 0.1160380000000000
vn 5.1310366055340779 -2.2999910320176573 2.0099975622826740
v -0.0584198032786885 0.0355426557377049 0.1181504672131148
vn -0.9217147328426937 -2.1462961541623420 -1.0927271512395964
v -0.0691012516556291 0.0311470198675497 0.1100690794701987
vn -2.0713247335325087 -2.0652130138442120 -1.7234215327465363
v -0.0713557898550723 0.0331143971014492 0.1095541985507247
vn 2.5977157012608760 0.1633718146214299 1.5402816290796117
v -0.0579253387978143 0.0388355027322404 0.1182117486338797
vn 0.8879122865193854 2.3699825495098485 1.2553854015787966
v -0.0626547777777778 0.0460571193415638 0.1176232839506172
vn -3.2622896399197518 -4.6939995451886141 -0.8693498758110949
v -0.0707357883817427 0.0310924605809129 0.1118593983402490
vn 1.5869023077428976 -2.7853191206219066 2.8324720380992967
v -0.0603334293193718 0.0336667382198952 0.1199657329842931
vn -2.4387912109372722 2.2584508857618530 4.3054464882673154
v -0.0679474229765015 0.0423560783289817 0.1194787101827675
vn 2.8422778383399105 -0.6953249446854790 1.5495398418673836
v -0.0580100141129032 0.0365049556451613 0.1178635625000001
vn -0.9720016430418110 -3.5004749256409071 -0.5077558483372885
v -0.0681386619047619 0.0302811460317460 0.1113720190476192
vn -2.3822411911314516 -4.0075454540377144 -3.7094158431353677
v -0.0699111355932203 0.0315425254237288 0.1100706101694915
vn -3.6259249233851163 -4.2356194527895390 -2.5195248387921074
v -0.0717015607476635 0.0322064018691589 0.1110989252336447
vn -0.1182492648187723 4.4218137553879187 2.1805629884680338
v -0.0652999285714285 0.0468297653061224 0.1176177193877553
vn -0.5459172808704998 2.1105974905924647 1.3682195562802111
v -0.0673087123287671 0.0452786712328767 0.1191173424657534
vn -3.1681712919955309 -1.8436693760178633 1.6960824415515521
v -0.0728455036496350 0.0340950000000000 0.1137532773722627
# 361 vertices, 0 vertices normals


usemtl material_0
vt 0.0053050001151860 0.0115099996328354
vt 0.0070730000734329 0.0000000000000000
vt 0.0070730000734329 0.0079060001298785
f 248/1/248 268/2/268 245/3/245
vt 0.0070730000734329 0.0158120002597570
vt 0.0070730000734329 0.0237179994583130
f 248/1/248 252/4/252 268/5/268
f 7/1/7 2/3/2 230/4/230
vt 0.0053050001151860 0.0338370017707348
vt 0.0070730000734329 0.0316240005195141
vt 0.0070730000734329 0.0395300015807152
f 248/6/248 3/7/3 1/8/1
vt 0.0070730000734329 0.0474359989166260
vt 0.0070730000734329 0.0553419999778271
vt 0.0053050001151860 0.0552400015294552
f 227/9/227 196/10/196 200/11/200
vt 0.0053050001151860 0.0445379987359047
f 248/11/248 245/12/245 269/9/269
f 226/12/226 252/8/252 248/9/248
f 249/6/249 252/5/252 226/7/226
vt 0.0053050001151860 0.0659409984946251
vt 0.0070730000734329 0.0632480010390282
vt 0.0070730000734329 0.0711539983749390
f 248/13/248 254/14/254 264/15/264
vt 0.0070730000734329 0.0790600031614304
vt 0.0070730000734329 0.0869660004973412
vt 0.0053050001151860 0.0873429998755455
f 227/16/227 252/17/252 249/18/249
vt 0.0053050001151860 0.0766419991850853
f 227/18/227 200/19/200 191/16/191
f 265/19/265 267/15/267 240/16/240
vt 0.0053050001151860 0.0980440005660057
vt 0.0070730000734329 0.0948719978332520
vt 0.0070730000734329 0.1027780026197433
f 241/20/241 267/21/267 265/22/265
vt 0.0070730000734329 0.1106839999556541
vt 0.0070730000734329 0.1185899972915649
vt 0.0053050001151860 0.1194470003247261
f 229/23/229 267/24/267 241/25/241
vt 0.0053050001151860 0.1087459996342659
f 229/25/229 256/26/256 267/23/267
vt 0.0070730000734329 0.1264960020780563
vt 0.0053050001151860 0.1300739943981171
f 251/24/251 232/27/232 256/28/256
f 197/28/197 238/25/238 232/24/232
f 242/26/242 231/22/231 217/23/217
f 183/17/183 232/21/232 251/20/251
f 197/20/197 232/18/232 183/17/183
f 198/10/198 197/14/197 184/13/184
f 185/13/185 238/11/238 197/10/197
vt 0.0035369999241084 0.0237179994583130
f 198/1/198 255/6/255 185/29/185
vt 0.0035369999241084 0.0158120002597570
f 242/29/242 260/30/260 231/1/231
f 4/6/4 270/1/270 5/5/5
vt 0.0035369999241084 0.0553419999778271
f 6/12/6 270/11/270 4/31/4
vt 0.0035369999241084 0.0474359989166260
f 218/31/218 236/32/236 243/12/243
f 218/6/218 202/8/202 236/12/236
vt 0.0035369999241084 0.0395300015807152
f 219/6/219 201/12/201 211/33/211
vt 0.0035369999241084 0.0316240005195141
f 244/33/244 230/34/230 219/6/219
vt 0.0035369999241084 0.0790600031614304
f 198/13/198 231/19/231 255/35/255
vt 0.0035369999241084 0.0711539983749390
f 219/35/219 230/36/230 201/13/201
f 230/19/230 2/13/2 3/15/3
vt 0.0035369999241084 0.0948719978332520
f 243/18/243 6/20/6 4/37/4
vt 0.0035369999241084 0.0869660004973412
f 230/37/230 253/38/253 201/18/201
f 232/26/232 238/20/238 210/22/210
vt 0.0035369999241084 0.1106839999556541
f 266/20/266 220/26/220 215/39/215
vt 0.0035369999241084 0.1027780026197433
f 267/39/267 213/40/213 220/20/220
f 266/19/266 267/18/267 220/38/220
f 267/38/267 186/35/186 213/19/213
vt 0.0035369999241084 0.0632480010390282
f 256/11/256 186/13/186 267/41/267
f 200/41/200 190/31/190 191/11/191
vt 0.0053050001151860 0.1404830068349838
vt 0.0070730000734329 0.1344020068645477
vt 0.0070730000734329 0.1423079967498779
f 242/42/242 270/43/270 260/44/260
vt 0.0070730000734329 0.1502140015363693
vt 0.0070730000734329 0.1581200063228607
vt 0.0053050001151860 0.1613000035285950
f 190/45/190 205/46/205 191/47/191
vt 0.0053050001151860 0.1508920043706894
f 252/47/252 233/48/233 245/45/245
f 269/44/269 245/45/245 234/48/234
f 201/48/201 253/42/253 257/44/257
vt 0.0035369999241084 0.1264960020780563
f 201/25/201 257/28/257 193/49/193
vt 0.0035369999241084 0.1185899972915649
f 202/49/202 258/50/258 236/25/236
vt 0.0035369999241084 0.1502140015363693
f 230/42/230 254/48/254 257/51/257
vt 0.0035369999241084 0.1423079967498779
f 254/51/254 234/52/234 257/42/257
vt 0.0035369999241084 0.1581200063228607
f 266/48/266 225/47/225 239/53/239
f 231/53/231 260/51/260 237/48/237
f 254/42/254 269/28/269 234/43/234
f 231/28/231 261/42/261 238/52/238
vt 0.0035369999241084 0.1344020068645477
f 231/52/231 238/54/238 255/28/255
vt 0.0070730000734329 0.1660259962081909
f 256/47/256 232/46/232 210/55/210
f 231/28/231 237/27/237 261/43/261
f 256/26/256 210/25/210 186/50/186
f 359/50/359 346/39/346 9/26/9
vt 0.0035369999241084 0.0000000000000000
f 286/56/286 334/2/334 302/1/302
vt 0.0053050001151860 0.1717090010643005
vt 0.0070730000734329 0.1739320009946823
f 316/57/316 302/55/302 334/58/334
vt 0.0070730000734329 0.1818380057811737
vt 0.0070730000734329 0.1897439956665039
vt 0.0053050001151860 0.1925269961357117
f 334/59/334 355/60/355 347/61/347
vt 0.0053050001151860 0.1821179986000061
f 274/61/274 331/62/331 287/59/287
f 356/58/356 306/59/306 313/62/313
f 301/62/301 358/57/358 352/58/352
vt 0.0053050001151860 0.2029359936714172
vt 0.0070730000734329 0.1976500004529953
vt 0.0070730000734329 0.2055560052394867
f 332/63/332 309/64/309 288/65/288
vt 0.0070730000734329 0.2134619951248169
vt 0.0053050001151860 0.2133439928293228
f 332/65/332 349/66/349 309/67/309
f 323/67/323 338/63/338 350/65/350
vt 0.0070730000734329 0.2213679999113083
vt 0.0053050001151860 0.2237530052661896
f 338/66/338 355/68/355 350/69/350
f 323/69/323 333/67/333 350/66/350
f 323/61/323 350/60/350 333/64/333
vt 0.0070730000734329 0.2371789962053299
vt 0.0053050001151860 0.2341620028018951
vt 0.0070730000734329 0.2292730063199997
f 338/70/338 347/71/347 355/72/355
vt 0.0070730000734329 0.2450850009918213
vt 0.0070730000734329 0.2529909908771515
vt 0.0053050001151860 0.2549790143966675
f 338/73/338 353/74/353 334/75/334
vt 0.0053050001151860 0.2445710003376007
f 319/75/319 318/76/318 334/73/334
f 274/70/274 287/73/287 297/76/297
f 356/76/356 320/71/320 306/70/306
vt 0.0070730000734329 0.2688030004501343
vt 0.0053050001151860 0.2653880119323730
vt 0.0070730000734329 0.2608970105648041
f 250/77/250 190/78/190 228/79/228
vt 0.0070730000734329 0.2767089903354645
vt 0.0070730000734329 0.2846150100231171
vt 0.0053050001151860 0.2862060070037842
f 352/80/352 357/81/357 348/82/348
vt 0.0053050001151860 0.2757970094680786
f 352/82/352 349/83/349 357/80/357
vt 0.0070730000734329 0.2925209999084473
f 352/84/352 348/82/348 356/81/356
f 352/77/352 358/80/358 349/83/349
f 243/83/243 236/78/236 259/77/259
f 301/79/301 309/75/309 349/74/349
f 276/72/276 288/69/288 301/68/301
vt 0.0070730000734329 0.3004269897937775
vt 0.0070730000734329 0.3083330094814301
vt 0.0053050001151860 0.3070229887962341
f 276/85/276 271/86/271 288/87/288
vt 0.0053050001151860 0.2966150045394897
f 291/87/291 294/88/294 336/85/336
vt 0.0070730000734329 0.3162389993667603
vt 0.0070730000734329 0.3241449892520905
vt 0.0053050001151860 0.3278410136699677
f 266/89/266 239/90/239 265/91/265
vt 0.0053050001151860 0.3174319863319397
f 291/91/291 321/92/321 271/89/271
f 291/86/291 336/89/336 321/92/321
f 230/92/230 3/87/3 254/86/254
vt 0.0035369999241084 0.1818380057811737
f 359/57/359 360/62/360 326/93/326
vt 0.0035369999241084 0.1739320009946823
f 300/93/300 275/94/275 323/57/323
f 294/64/294 322/63/322 336/61/336
vt 0.0070730000734329 0.3320510089397430
vt 0.0070730000734329 0.3399569988250732
vt 0.0053050001151860 0.3382500112056732
f 277/95/277 322/96/322 294/97/294
vt 0.0035369999241084 0.2055560052394867
f 272/61/272 336/63/336 322/98/322
vt 0.0035369999241084 0.1976500004529953
f 272/98/272 322/99/322 277/61/277
f 337/90/337 343/95/343 327/91/327
vt 0.0035369999241084 0.1897439956665039
f 41/62/41 43/61/43 66/100/66
f 145/100/145 168/93/168 135/62/135
f 109/88/109 171/84/171 119/85/119
vt 0.0070730000734329 0.3478629887104034
vt 0.0053050001151860 0.3486579954624176
f 280/96/280 345/101/345 295/102/295
f 78/102/78 37/97/37 59/96/59
vt 0.0070730000734329 0.3636749982833862
vt 0.0053050001151860 0.3590669929981232
vt 0.0070730000734329 0.3557690083980560
f 91/103/91 84/104/84 73/105/73
f 80/101/80 31/105/31 83/104/83
f 90/104/90 79/102/79 82/101/82
vt 0.0070730000734329 0.3715809881687164
vt 0.0070730000734329 0.3794870078563690
vt 0.0053050001151860 0.3811109960079193
f 43/106/43 62/107/62 53/108/53
vt 0.0053050001151860 0.3700419962406158
f 65/108/65 90/109/90 78/106/78
vt 0.0070730000734329 0.3952989876270294
vt 0.0053050001151860 0.3922109901905060
vt 0.0070730000734329 0.3873929977416992
f 286/110/286 287/111/287 335/112/335
vt 0.0070730000734329 0.4032050073146820
vt 0.0053050001151860 0.4034929871559143
f 359/110/359 10/113/10 327/114/327
f 66/114/66 43/111/43 42/110/42
f 124/112/124 94/108/94 127/107/127
f 47/106/47 54/109/54 30/103/30
vt 0.0070730000734329 0.4111109972000122
vt 0.0053050001151860 0.4111109972000122
f 77/113/77 31/115/31 72/116/72
f 77/116/77 89/114/89 31/113/31
f 166/47/166 136/55/136 128/57/128
f 88/47/88 24/57/24 19/94/19
vt 0.0035369999241084 0.1660259962081909
f 316/94/316 286/117/286 302/47/302
vt 0.0035369999241084 0.0079060001298785
f 19/118/19 24/56/24 84/1/84
f 300/118/300 323/1/323 350/30/350
f 94/33/94 107/12/107 127/32/127
f 209/29/209 187/6/187 210/34/210
vt 0.0035369999241084 0.2292730063199997
f 65/69/65 78/71/78 59/119/59
vt 0.0035369999241084 0.2213679999113083
f 27/119/27 30/120/30 25/69/25
f 41/71/41 62/69/62 43/72/43
f 280/67/280 295/69/295 282/120/282
vt 0.0035369999241084 0.2134619951248169
f 20/120/20 60/121/60 14/67/14
f 88/40/88 77/37/77 32/20/32
vt 0.0035369999241084 0.2450850009918213
f 243/71/243 4/76/4 263/122/263
vt 0.0035369999241084 0.2371789962053299
f 13/122/13 22/123/22 20/71/20
f 49/13/49 53/36/53 62/41/62
f 15/63/15 12/67/12 11/121/11
f 15/121/15 45/98/45 39/63/39
f 13/54/13 20/49/20 14/28/14
f 13/117/13 14/53/14 180/47/180
f 138/100/138 147/61/147 173/99/173
f 301/71/301 352/123/352 304/119/304
vt 0.0035369999241084 0.2529909908771515
f 63/124/63 21/122/21 39/76/39
f 98/76/98 131/75/131 96/124/96
vt 0.0035369999241084 0.2608970105648041
f 88/75/88 89/78/89 77/125/77
f 40/125/40 87/124/87 76/75/76
f 305/79/305 315/78/315 284/75/284
vt 0.0035369999241084 0.2767089903354645
f 305/78/305 284/83/284 315/126/315
vt 0.0035369999241084 0.2688030004501343
f 23/126/23 46/127/46 53/78/53
f 44/127/44 74/125/74 91/78/91
vt 0.0035369999241084 0.2925209999084473
f 335/82/335 318/88/318 319/128/319
vt 0.0035369999241084 0.2846150100231171
f 57/128/57 29/129/29 49/82/49
vt 0.0035369999241084 0.3083330094814301
f 26/88/26 33/87/33 29/130/29
vt 0.0035369999241084 0.3004269897937775
f 138/130/138 162/131/162 147/88/147
f 13/83/13 20/82/20 16/129/16
f 13/129/13 16/126/16 20/83/20
vt 0.0035369999241084 0.3162389993667603
f 310/87/310 340/92/340 325/132/325
f 64/132/64 57/130/57 36/87/36
f 70/88/70 57/82/57 86/84/86
vt 0.0035369999241084 0.3241449892520905
f 228/92/228 200/91/200 196/133/196
f 64/133/64 86/132/86 57/92/57
f 295/95/295 304/97/304 312/91/312
vt 0.0035369999241084 0.3478629887104034
f 23/97/23 50/102/50 46/134/46
vt 0.0035369999241084 0.3399569988250732
f 170/134/170 162/135/162 169/97/169
f 220/91/220 215/97/215 190/135/190
vt 0.0035369999241084 0.3320510089397430
f 305/135/305 306/136/306 315/91/315
vt 0.0035369999241084 0.3715809881687164
f 305/104/305 315/109/315 306/137/306
vt 0.0035369999241084 0.3636749982833862
f 46/137/46 61/138/61 52/104/52
vt 0.0035369999241084 0.3873929977416992
f 35/108/35 61/111/61 58/139/58
vt 0.0035369999241084 0.3794870078563690
f 12/139/12 180/140/180 14/108/14
vt 0.0035369999241084 0.4032050073146820
f 18/111/18 84/114/84 74/141/74
vt 0.0035369999241084 0.3952989876270294
f 152/141/152 147/142/147 170/111/170
f 58/111/58 46/108/46 50/112/50
f 48/109/48 67/108/67 56/140/56
f 85/140/85 75/137/75 62/109/62
f 36/109/36 85/104/85 82/103/82
vt 0.0035369999241084 0.3557690083980560
f 41/102/41 66/104/66 85/143/85
f 15/143/15 39/134/39 21/102/21
vt 0.0035369999241084 0.4111109972000122
f 304/144/304 314/141/314 305/114/305
f 316/114/316 298/116/298 286/144/286
f 228/91/228 190/136/190 200/133/200
f 277/131/277 294/128/294 344/88/344
f 108/104/108 109/138/109 119/143/119
f 181/111/181 182/142/182 22/139/22
vt 0.0070730000734329 0.4190169870853424
vt 0.0053050001151860 0.4226210117340088
f 112/115/112 168/145/168 145/146/145
f 43/146/43 53/116/53 67/115/67
vt 0.0070730000734329 0.4269230067729950
f 341/146/341 342/145/342 354/147/354
vt 0.0070730000734329 0.4348289966583252
vt 0.0070730000734329 0.4427349865436554
vt 0.0053050001151860 0.4449479877948761
f 112/148/112 145/149/145 98/150/98
vt 0.0053050001151860 0.4341309964656830
f 112/150/112 98/151/98 94/148/94
f 94/151/94 118/147/118 107/148/107
vt 0.0053050001151860 0.4556489884853363
vt 0.0070730000734329 0.4506410062313080
vt 0.0070730000734329 0.4585469961166382
f 93/152/93 105/153/105 97/154/97
vt 0.0070730000734329 0.4664529860019684
vt 0.0070730000734329 0.4743590056896210
vt 0.0053050001151860 0.4770520031452179
f 174/155/174 115/156/115 158/157/158
vt 0.0053050001151860 0.4663510024547577
f 227/157/227 191/158/191 252/155/252
f 303/154/303 305/155/305 285/158/285
f 102/158/102 114/152/114 108/154/108
f 159/150/159 154/149/154 102/153/102
vt 0.0053050001151860 0.4877530038356781
vt 0.0070730000734329 0.4822649955749512
vt 0.0070730000734329 0.4901709854602814
f 24/159/24 32/160/32 73/161/73
vt 0.0070730000734329 0.4980770051479340
vt 0.0070730000734329 0.5059829950332642
vt 0.0053050001151860 0.5091559886932373
f 299/162/299 328/163/328 293/164/293
vt 0.0053050001151860 0.4984540045261383
f 291/164/291 271/165/271 276/162/276
f 102/161/102 154/162/154 156/165/156
f 154/165/154 160/159/160 168/161/168
vt 0.0053050001151860 0.5198569893836975
vt 0.0070730000734329 0.5138890147209167
vt 0.0070730000734329 0.5217949748039246
f 154/166/154 167/167/167 160/168/160
vt 0.0070730000734329 0.5297009944915771
vt 0.0070730000734329 0.5376070141792297
vt 0.0053050001151860 0.5411850214004517
f 65/169/65 54/170/54 78/171/78
vt 0.0053050001151860 0.5305579900741577
f 65/171/65 78/172/78 54/169/54
vt 0.0070730000734329 0.5455129742622375
f 112/171/112 124/170/124 101/173/101
f 95/168/95 124/169/124 127/172/127
f 10/172/10 9/166/9 327/168/327
f 176/164/176 170/163/170 177/167/177
f 22/157/22 18/156/18 74/160/74
vt 0.0035369999241084 0.4348289966583252
f 15/146/15 11/151/11 45/174/45
vt 0.0035369999241084 0.4269230067729950
f 95/174/95 110/175/110 120/146/120
f 354/151/354 326/146/326 360/147/360
vt 0.0035369999241084 0.4506410062313080
f 164/150/164 173/152/173 141/176/141
vt 0.0035369999241084 0.4427349865436554
f 185/176/185 255/177/255 238/150/238
f 23/152/23 29/150/29 33/153/33
f 161/151/161 164/150/164 172/177/172
f 159/177/159 165/174/165 154/151/154
vt 0.0035369999241084 0.4743590056896210
f 159/158/159 154/157/154 165/178/165
vt 0.0035369999241084 0.4664529860019684
f 159/178/159 102/179/102 108/158/108
vt 0.0035369999241084 0.4980770051479340
f 65/159/65 59/165/59 30/180/30
vt 0.0035369999241084 0.4901709854602814
f 229/180/229 241/181/241 247/159/247
vt 0.0035369999241084 0.5059829950332642
f 237/165/237 222/164/222 209/182/209
f 265/182/265 239/180/239 225/165/225
f 133/157/133 95/160/95 142/159/142
f 129/157/129 128/159/128 136/181/136
vt 0.0035369999241084 0.4822649955749512
f 99/181/99 140/183/140 129/157/129
f 243/152/243 270/158/270 6/179/6
vt 0.0035369999241084 0.4585469961166382
f 57/179/57 49/184/49 75/152/75
f 237/167/237 209/166/209 194/164/194
vt 0.0070730000734329 0.5534189939498901
vt 0.0070730000734329 0.5613250136375427
vt 0.0053050001151860 0.5620030164718628
f 42/185/42 43/186/43 67/187/67
vt 0.0053050001151860 0.5515940189361572
f 146/187/146 139/188/139 149/185/149
vt 0.0070730000734329 0.5692309737205505
vt 0.0053050001151860 0.5724120140075684
f 294/186/294 345/189/345 329/190/329
f 166/190/166 155/187/155 137/186/137
vt 0.0035369999241084 0.5376070141792297
f 112/172/112 101/171/101 154/191/154
vt 0.0035369999241084 0.5297009944915771
f 223/191/223 234/192/234 207/172/207
vt 0.0035369999241084 0.5613250136375427
f 338/188/338 296/187/296 353/193/353
vt 0.0035369999241084 0.5534189939498901
f 40/193/40 58/194/58 50/188/50
vt 0.0035369999241084 0.5692309737205505
f 174/187/174 171/190/171 175/195/175
f 202/195/202 193/193/193 258/187/258
f 113/188/113 109/171/109 114/173/114
f 110/173/110 97/185/97 121/188/121
f 36/171/36 75/188/75 85/194/85
vt 0.0035369999241084 0.5455129742622375
f 95/194/95 127/196/127 110/171/110
vt 0.0070730000734329 0.5771369934082031
f 343/190/343 344/189/344 328/197/328
f 343/166/343 328/172/328 344/192/344
vt 0.0035369999241084 0.5217949748039246
f 149/192/149 151/198/151 129/166/129
f 110/164/110 116/166/116 97/198/97
vt 0.0035369999241084 0.5138890147209167
f 156/198/156 166/199/166 113/164/113
vt 0.0035369999241084 0.4190169870853424
f 41/116/41 85/146/85 62/200/62
f 71/200/71 30/144/30 51/116/51
vt 0.0053050001151860 0.5828199982643127
vt 0.0070730000734329 0.5850430130958557
f 277/201/277 344/197/344 328/202/328
vt 0.0070730000734329 0.5929489731788635
vt 0.0070730000734329 0.6008549928665161
vt 0.0053050001151860 0.6036379933357239
f 177/203/177 157/204/157 178/205/178
vt 0.0053050001151860 0.5932289958000183
f 177/205/177 178/206/178 157/203/157
f 71/202/71 51/203/51 59/206/59
f 175/206/175 140/201/140 153/202/153
vt 0.0053050001151860 0.6140469908714294
vt 0.0070730000734329 0.6087610125541687
vt 0.0070730000734329 0.6166669726371765
f 148/207/148 139/208/139 137/209/137
vt 0.0070730000734329 0.6245729923248291
vt 0.0053050001151860 0.6244559884071350
f 13/209/13 181/210/181 22/211/22
f 272/211/272 277/207/277 324/209/324
vt 0.0070730000734329 0.6324790120124817
vt 0.0053050001151860 0.6348639726638794
f 29/210/29 53/212/53 49/213/49
f 100/213/100 129/211/129 151/210/151
f 79/205/79 36/204/36 82/208/82
vt 0.0070730000734329 0.6482909917831421
vt 0.0053050001151860 0.6452729701995850
vt 0.0070730000734329 0.6403849720954895
f 7/214/7 3/215/3 2/216/2
vt 0.0070730000734329 0.6561970114707947
vt 0.0070730000734329 0.6641029715538025
vt 0.0053050001151860 0.6660910248756409
f 22/217/22 74/218/74 17/219/17
vt 0.0053050001151860 0.6556820273399353
f 22/219/22 17/220/17 74/217/74
f 120/214/120 121/217/121 105/220/105
f 188/220/188 192/215/192 207/214/207
vt 0.0070730000734329 0.6799150109291077
vt 0.0053050001151860 0.6764990091323853
vt 0.0070730000734329 0.6720089912414551
f 205/221/205 206/222/206 191/223/191
vt 0.0070730000734329 0.6878200173377991
vt 0.0070730000734329 0.6957269906997681
vt 0.0053050001151860 0.6973170042037964
f 205/224/205 191/225/191 206/226/206
vt 0.0053050001151860 0.6869080066680908
f 153/226/153 140/227/140 99/224/99
vt 0.0070730000734329 0.7036319971084595
f 142/228/142 169/226/169 162/225/162
f 125/221/125 104/224/104 117/227/117
f 125/227/125 117/222/117 104/221/104
f 131/223/131 145/219/145 135/218/135
f 27/216/27 25/213/25 31/212/31
vt 0.0070730000734329 0.7115380167961121
vt 0.0070730000734329 0.7194439768791199
vt 0.0053050001151860 0.7181339859962463
f 140/229/140 171/230/171 150/231/150
vt 0.0053050001151860 0.7077260017395020
f 120/231/120 110/232/110 121/229/121
vt 0.0070730000734329 0.7273499965667725
vt 0.0070730000734329 0.7352560162544250
vt 0.0053050001151860 0.7389519810676575
f 104/233/104 167/234/167 117/235/117
vt 0.0053050001151860 0.7285429835319519
f 43/235/43 67/236/67 62/233/62
f 43/230/43 62/233/62 67/236/67
f 189/236/189 216/231/216 221/230/221
vt 0.0035369999241084 0.5929489731788635
f 349/201/349 348/206/348 357/237/357
vt 0.0035369999241084 0.5850430130958557
f 86/237/86 26/238/26 29/201/29
f 110/208/110 127/207/127 126/205/126
vt 0.0070730000734329 0.7431619763374329
vt 0.0070730000734329 0.7510679960250854
vt 0.0053050001151860 0.7493609786033630
f 341/239/341 360/240/360 326/241/326
vt 0.0035369999241084 0.6166669726371765
f 300/205/300 310/207/310 325/242/325
vt 0.0035369999241084 0.6087610125541687
f 112/242/112 94/243/94 124/205/124
f 59/234/59 51/239/51 30/235/30
vt 0.0035369999241084 0.6008549928665161
f 133/206/133 101/205/101 124/244/124
f 108/244/108 119/237/119 171/206/171
f 8/232/8 337/228/337 327/229/327
vt 0.0070730000734329 0.7589740157127380
vt 0.0053050001151860 0.7597699761390686
f 327/240/327 328/245/328 342/246/342
f 327/246/327 342/241/342 328/240/328
vt 0.0070730000734329 0.7747859954833984
vt 0.0053050001151860 0.7701780200004578
vt 0.0070730000734329 0.7668799757957458
f 15/247/15 179/248/179 12/249/12
f 67/245/67 46/249/46 52/248/52
f 148/248/148 137/246/137 151/245/151
vt 0.0070730000734329 0.7826920151710510
vt 0.0070730000734329 0.7905979752540588
vt 0.0053050001151860 0.7922220230102539
f 159/250/159 106/251/106 117/252/117
vt 0.0053050001151860 0.7811539769172668
f 137/252/137 172/253/172 151/250/151
vt 0.0070730000734329 0.8064100146293640
vt 0.0053050001151860 0.8033220171928406
vt 0.0070730000734329 0.7985039949417114
f 264/254/264 254/255/254 3/256/3
vt 0.0070730000734329 0.8143159747123718
vt 0.0053050001151860 0.8146039843559265
f 49/254/49 62/257/62 75/258/75
f 66/258/66 81/255/81 37/254/37
f 238/256/238 210/252/210 195/251/195
f 156/250/156 154/253/154 101/247/101
vt 0.0070730000734329 0.8222219944000244
f 7/259/7 219/258/219 244/257/244
f 7/190/7 244/197/244 219/201/219
f 107/190/107 130/201/130 111/238/111
vt 0.0035369999241084 0.5771369934082031
f 98/238/98 96/260/96 130/190/130
f 67/200/67 53/146/53 46/175/46
f 67/176/67 52/152/52 61/184/61
vt 0.0035369999241084 0.6403849720954895
f 42/213/42 67/215/67 48/261/48
vt 0.0035369999241084 0.6324790120124817
f 159/261/159 167/262/167 154/213/154
f 96/215/96 111/213/111 130/216/130
f 100/211/100 151/213/151 123/262/123
vt 0.0035369999241084 0.6245729923248291
f 39/262/39 38/263/38 45/211/45
f 39/199/39 45/182/45 38/164/38
vt 0.0035369999241084 0.6561970114707947
f 120/215/120 105/220/105 169/264/169
vt 0.0035369999241084 0.6482909917831421
f 174/264/174 158/265/158 171/215/171
f 109/157/109 150/183/150 171/178/171
f 11/207/11 38/211/38 45/263/45
f 235/263/235 270/242/270 259/207/259
f 223/196/223 189/191/189 206/171/206
f 159/260/159 108/195/108 106/190/106
f 103/244/103 104/205/104 117/243/117
f 109/215/109 128/265/128 140/261/140
vt 0.0035369999241084 0.6641029715538025
f 182/266/182 19/264/19 84/220/84
f 23/220/23 87/219/87 40/266/40
vt 0.0035369999241084 0.6720089912414551
f 152/219/152 170/222/170 176/267/176
f 226/267/226 248/266/248 224/219/224
f 286/223/286 335/222/335 319/219/319
vt 0.0035369999241084 0.6878200173377991
vt 0.0035369999241084 0.6799150109291077
f 63/268/63 39/269/39 61/222/61
f 40/222/40 63/227/63 61/268/61
vt 0.0035369999241084 0.7036319971084595
f 354/226/354 360/232/360 327/270/327
vt 0.0035369999241084 0.6957269906997681
f 175/270/175 163/271/163 140/226/140
f 168/222/168 160/269/160 135/267/135
vt 0.0035369999241084 0.7194439768791199
f 120/232/120 105/231/105 122/272/122
vt 0.0035369999241084 0.7115380167961121
f 120/272/120 122/273/122 105/232/105
f 156/227/156 101/226/101 133/271/133
f 186/271/186 187/268/187 203/227/203
f 308/232/308 279/226/279 296/228/296
vt 0.0035369999241084 0.7273499965667725
f 316/231/316 298/236/298 296/274/296
f 147/274/147 162/272/162 170/231/170
vt 0.0035369999241084 0.7510679960250854
f 5/235/5 270/241/270 242/275/242
vt 0.0035369999241084 0.7431619763374329
f 315/275/315 297/276/297 284/235/284
f 315/241/315 284/235/284 297/239/297
vt 0.0035369999241084 0.7352560162544250
f 27/236/27 47/235/47 30/277/30
f 339/277/339 278/274/278 323/236/323
vt 0.0035369999241084 0.7668799757957458
f 338/246/338 334/248/334 347/278/347
vt 0.0035369999241084 0.7589740157127380
f 27/278/27 31/279/31 89/246/89
f 274/247/274 297/253/297 306/248/306
vt 0.0035369999241084 0.7905979752540588
f 129/253/129 140/252/140 128/280/128
vt 0.0035369999241084 0.7826920151710510
f 146/280/146 136/281/136 166/253/166
f 134/256/134 131/255/131 135/252/135
vt 0.0035369999241084 0.7985039949417114
f 328/252/328 294/255/294 329/282/329
f 354/282/354 342/280/342 360/252/360
f 23/248/23 40/253/40 50/281/50
vt 0.0035369999241084 0.7747859954833984
f 328/281/328 344/283/344 294/248/294
f 303/241/303 293/246/293 282/279/282
f 146/279/146 149/275/149 136/241/136
vt 0.0035369999241084 0.8143159747123718
f 155/255/155 143/258/143 132/284/132
vt 0.0035369999241084 0.8064100146293640
f 67/284/67 61/285/61 55/255/55
f 127/232/127 107/273/107 126/270/126
f 323/235/323 278/276/278 338/277/338
f 65/283/65 30/278/30 54/248/54
vt 0.0035369999241084 0.8222219944000244
f 133/258/133 143/286/143 166/284/166
f 182/285/182 18/282/18 22/255/22
f 91/286/91 74/258/74 84/259/84
vt 0.0035369999241084 0.0094510000199080
vt 0.0000000000000000 0.0094510000199080
f 161/56/161 138/287/138 173/288/173
vt 0.0000000000000000 0.0000000000000000
f 149/288/149 129/289/129 136/56/136
vt 0.0035369999241084 0.0189020000398159
vt 0.0035369999241084 0.0283519998192787
vt 0.0000000000000000 0.0283519998192787
f 293/290/293 304/291/304 283/292/283
vt 0.0000000000000000 0.0189020000398159
f 152/292/152 173/293/173 147/290/147
vt 0.0035369999241084 0.0378030017018318
vt 0.0000000000000000 0.0378030017018318
f 266/291/266 265/294/265 240/295/240
f 161/295/161 173/292/173 164/291/164
f 299/287/299 330/290/330 345/293/345
f 156/293/156 133/288/133 166/287/166
vt 0.0035369999241084 0.0472539998590946
vt 0.0035369999241084 0.0567050017416477
vt 0.0000000000000000 0.0567050017416477
f 107/296/107 111/297/111 126/298/126
vt 0.0000000000000000 0.0472539998590946
f 104/298/104 135/299/135 167/296/167
vt 0.0035369999241084 0.0661559998989105
vt 0.0000000000000000 0.0661559998989105
f 15/297/15 21/300/21 179/301/179
f 177/301/177 157/298/157 105/297/105
vt 0.0035369999241084 0.0756070017814636
vt 0.0035369999241084 0.0850569978356361
vt 0.0000000000000000 0.0850569978356361
f 12/302/12 14/303/14 11/304/11
vt 0.0000000000000000 0.0756070017814636
f 113/304/113 109/305/109 166/302/166
vt 0.0035369999241084 0.0945079997181892
vt 0.0000000000000000 0.0945079997181892
f 113/303/113 166/306/166 109/307/109
f 14/307/14 60/304/60 38/303/38
f 68/300/68 38/302/38 44/305/44
f 177/305/177 105/301/105 93/300/93
f 266/294/266 240/296/240 267/299/267
f 144/299/144 167/295/167 135/294/135
vt 0.0035369999241084 0.1039590016007423
vt 0.0035369999241084 0.1134100034832954
vt 0.0000000000000000 0.1134100034832954
f 97/308/97 105/309/105 121/310/121
vt 0.0000000000000000 0.1039590016007423
f 116/310/116 126/311/126 111/308/111
vt 0.0035369999241084 0.1228609979152679
vt 0.0035369999241084 0.1323119997978210
vt 0.0000000000000000 0.1323119997978210
f 142/312/142 95/313/95 120/314/120
vt 0.0000000000000000 0.1228609979152679
f 40/314/40 35/315/35 58/312/58
vt 0.0035369999241084 0.1417620033025742
vt 0.0000000000000000 0.1417620033025742
f 88/313/88 32/316/32 24/317/24
f 220/317/220 189/314/189 204/313/204
f 352/309/352 313/312/313 304/315/304
f 107/315/107 118/310/118 130/309/130
vt 0.0035369999241084 0.1512130051851273
vt 0.0035369999241084 0.1606640070676804
vt 0.0000000000000000 0.1606640070676804
f 118/318/118 98/319/98 130/320/130
vt 0.0000000000000000 0.1512130051851273
f 134/320/134 135/321/135 125/318/125
vt 0.0035369999241084 0.1701149940490723
vt 0.0000000000000000 0.1701149940490723
f 211/319/211 202/322/202 218/323/218
f 189/323/189 221/320/221 206/319/206
vt 0.0035369999241084 0.1795659959316254
vt 0.0035369999241084 0.1890169978141785
vt 0.0000000000000000 0.1890169978141785
f 70/324/70 86/325/86 29/326/29
vt 0.0000000000000000 0.1795659959316254
f 20/326/20 74/327/74 60/324/60
vt 0.0035369999241084 0.1984670013189316
vt 0.0000000000000000 0.1984670013189316
f 28/325/28 80/328/80 92/329/92
f 125/329/125 135/326/135 104/325/104
f 103/322/103 117/324/117 106/327/106
f 251/327/251 256/323/256 229/322/229
f 158/316/158 115/318/115 106/321/106
f 246/321/246 212/317/212 223/316/223
f 94/306/94 98/308/98 118/311/118
f 159/311/159 117/307/117 167/306/167
vt 0.0035369999241084 0.2079180032014847
vt 0.0035369999241084 0.2173690050840378
vt 0.0000000000000000 0.2173690050840378
f 109/330/109 140/331/140 150/332/150
vt 0.0000000000000000 0.2079180032014847
f 77/332/77 72/333/72 32/330/32
vt 0.0035369999241084 0.2268200069665909
vt 0.0035369999241084 0.2362709939479828
vt 0.0000000000000000 0.2362709939479828
f 114/334/114 109/335/109 108/336/108
vt 0.0000000000000000 0.2268200069665909
f 308/336/308 296/337/296 284/334/284
vt 0.0035369999241084 0.2457219958305359
vt 0.0000000000000000 0.2457219958305359
f 152/335/152 141/338/141 173/339/173
f 79/339/79 64/336/64 36/335/36
f 66/331/66 37/334/37 85/337/85
f 337/337/337 324/332/324 343/331/343
vt 0.0035369999241084 0.2551720142364502
vt 0.0035369999241084 0.2646229863166809
vt 0.0000000000000000 0.2646229863166809
f 113/340/113 128/341/128 109/342/109
vt 0.0000000000000000 0.2551720142364502
f 105/342/105 157/343/157 169/340/169
vt 0.0035369999241084 0.2740739881992340
vt 0.0000000000000000 0.2740739881992340
f 222/341/222 204/344/204 189/345/189
f 113/345/113 166/342/166 128/341/128
vt 0.0035369999241084 0.2835249900817871
vt 0.0035369999241084 0.2929759919643402
vt 0.0000000000000000 0.2929759919643402
f 187/346/187 214/347/214 220/348/220
vt 0.0000000000000000 0.2835249900817871
f 337/348/337 290/349/290 324/346/324
vt 0.0035369999241084 0.3024269938468933
vt 0.0000000000000000 0.3024269938468933
f 158/347/158 108/350/108 171/351/171
f 146/351/146 166/348/166 137/347/137
f 142/344/142 120/346/120 169/349/169
f 293/349/293 314/345/314 304/344/304
f 175/338/175 171/340/171 163/343/163
f 248/343/248 269/339/269 254/338/254
vt 0.0035369999241084 0.3118770122528076
vt 0.0035369999241084 0.3213280141353607
vt 0.0000000000000000 0.3213280141353607
f 161/352/161 137/353/137 162/354/162
vt 0.0000000000000000 0.3118770122528076
f 71/354/71 59/355/59 81/352/81
vt 0.0035369999241084 0.3307789862155914
vt 0.0035369999241084 0.3402299880981445
vt 0.0000000000000000 0.3402299880981445
f 146/356/146 137/357/137 139/358/139
vt 0.0000000000000000 0.3307789862155914
f 36/358/36 57/359/57 75/356/75
vt 0.0035369999241084 0.3496809899806976
vt 0.0000000000000000 0.3496809899806976
f 133/357/133 132/360/132 143/361/143
f 103/361/103 106/358/106 115/357/115
f 133/353/133 142/356/142 132/359/132
f 28/359/28 73/354/73 34/353/34
vt 0.0035369999241084 0.3591319918632507
vt 0.0035369999241084 0.3685820102691650
vt 0.0000000000000000 0.3685820102691650
f 345/362/345 330/363/330 295/364/295
vt 0.0000000000000000 0.3591319918632507
f 67/364/67 55/365/55 56/362/56
vt 0.0035369999241084 0.3780330121517181
vt 0.0000000000000000 0.3780330121517181
f 55/363/55 68/366/68 56/367/56
f 161/367/161 162/364/162 138/363/138
vt 0.0035369999241084 0.3874840140342712
vt 0.0035369999241084 0.3969349861145020
vt 0.0000000000000000 0.3969349861145020
f 161/368/161 138/369/138 162/370/162
vt 0.0000000000000000 0.3874840140342712
f 61/370/61 39/371/39 38/368/38
vt 0.0035369999241084 0.4063859879970551
vt 0.0000000000000000 0.4063859879970551
f 55/369/55 61/372/61 68/373/68
f 161/373/161 172/370/172 137/369/137
f 30/366/30 83/368/83 25/371/25
f 48/371/48 56/367/56 68/366/68
f 235/360/235 246/362/246 258/365/258
f 48/365/48 68/361/68 44/360/44
f 44/350/44 38/352/38 60/355/60
f 44/355/44 60/351/60 74/350/74
f 48/328/48 44/330/44 91/333/91
f 28/333/28 34/329/34 80/328/80
vt 0.0000000000000000 0.4158369898796082
f 317/374/317 355/373/355 334/372/334
vt 0.0035369999241084 0.4158369898796082
f 144/372/144 135/375/135 160/374/160
vt 0.0035369999241084 0.4252870082855225
vt 0.0000000000000000 0.4252870082855225
f 316/375/316 353/376/353 296/377/296
f 24/377/24 73/374/73 84/375/84
vt 0.0035369999241084 0.4347380101680756
vt 0.0035369999241084 0.4441890120506287
vt 0.0000000000000000 0.4441890120506287
f 80/378/80 81/379/81 92/380/92
vt 0.0000000000000000 0.4347380101680756
f 80/380/80 83/381/83 81/378/81
vt 0.0035369999241084 0.4536400139331818
vt 0.0000000000000000 0.4536400139331818
f 48/379/48 28/382/28 92/383/92
f 277/383/277 328/380/328 324/379/324
f 144/376/144 160/378/160 167/381/167
f 42/381/42 48/377/48 92/376/92
vt 0.0035369999241084 0.4630909860134125
vt 0.0035369999241084 0.4725419878959656
vt 0.0000000000000000 0.4725419878959656
f 158/384/158 106/385/106 108/386/108
vt 0.0000000000000000 0.4630909860134125
f 78/386/78 90/387/90 82/384/82
vt 0.0035369999241084 0.4819920063018799
vt 0.0000000000000000 0.4819920063018799
f 206/385/206 221/388/221 233/389/233
f 42/389/42 92/386/92 81/385/81
vt 0.0035369999241084 0.4914430081844330
vt 0.0035369999241084 0.5008940100669861
vt 0.0000000000000000 0.5008940100669861
f 243/390/243 259/391/259 270/392/270
vt 0.0000000000000000 0.4914430081844330
f 186/392/186 203/393/203 220/390/220
vt 0.0035369999241084 0.5103449821472168
vt 0.0000000000000000 0.5103449821472168
f 186/391/186 220/394/220 203/395/203
f 71/395/71 81/392/81 83/391/83
f 59/388/59 37/390/37 81/393/81
f 274/393/274 306/389/306 320/388/320
f 98/382/98 145/384/145 131/387/131
f 66/387/66 42/383/42 81/382/81
vt 0.0035369999241084 0.5197960138320923
vt 0.0035369999241084 0.5292469859123230
vt 0.0000000000000000 0.5292469859123230
f 37/396/37 69/397/69 81/398/81
vt 0.0000000000000000 0.5197960138320923
f 37/398/37 81/399/81 69/396/69
vt 0.0035369999241084 0.5386970043182373
vt 0.0035369999241084 0.5481479763984680
vt 0.0000000000000000 0.5481479763984680
f 259/400/259 270/401/270 246/402/246
vt 0.0000000000000000 0.5386970043182373
f 48/402/48 91/403/91 28/400/28
vt 0.0035369999241084 0.5575990080833435
vt 0.0000000000000000 0.5575990080833435
f 34/401/34 32/404/32 72/405/72
f 34/405/34 31/402/31 80/401/80
f 31/397/31 25/400/25 83/403/83
f 186/403/186 220/398/220 213/397/213
vt 0.0035369999241084 0.5670499801635742
vt 0.0035369999241084 0.5765010118484497
vt 0.0000000000000000 0.5765010118484497
f 186/406/186 213/407/213 220/408/220
vt 0.0000000000000000 0.5670499801635742
f 198/408/198 217/409/217 231/406/231
vt 0.0035369999241084 0.5859509706497192
vt 0.0000000000000000 0.5859509706497192
f 203/407/203 187/410/187 220/411/220
f 22/411/22 74/408/74 20/407/20
vt 0.0035369999241084 0.5954020023345947
vt 0.0035369999241084 0.6048529744148254
vt 0.0000000000000000 0.6048529744148254
f 187/412/187 212/413/212 214/414/214
vt 0.0000000000000000 0.5954020023345947
f 212/414/212 189/415/189 214/412/214
vt 0.0035369999241084 0.6143040060997009
vt 0.0000000000000000 0.6143040060997009
f 220/413/220 204/416/204 215/417/215
f 189/417/189 190/414/190 204/413/204
f 189/410/189 204/412/204 190/415/190
f 189/415/189 205/411/205 190/410/190
f 189/404/189 190/406/190 205/409/205
f 188/409/188 216/405/216 189/404/189
f 14/394/14 38/396/38 11/399/11
f 188/399/188 207/395/207 221/394/221
vt 0.0035369999241084 0.6237549781799316
vt 0.0035369999241084 0.6332060098648071
vt 0.0000000000000000 0.6332060098648071
f 235/418/235 258/419/258 259/420/259
vt 0.0000000000000000 0.6237549781799316
f 286/420/286 297/421/297 287/418/287
vt 0.0035369999241084 0.6426560282707214
vt 0.0035369999241084 0.6521070003509521
vt 0.0000000000000000 0.6521070003509521
f 221/422/221 245/423/245 233/424/233
vt 0.0000000000000000 0.6426560282707214
f 198/424/198 197/425/197 185/422/185
vt 0.0035369999241084 0.6615579724311829
vt 0.0000000000000000 0.6615579724311829
f 198/423/198 185/426/185 197/427/197
f 207/427/207 234/424/234 245/423/245
f 221/419/221 207/422/207 245/425/245
f 132/425/132 162/420/162 137/419/137
vt 0.0035369999241084 0.6710090041160583
vt 0.0035369999241084 0.6804599761962891
vt 0.0000000000000000 0.6804599761962891
f 191/428/191 206/429/206 233/430/233
vt 0.0000000000000000 0.6710090041160583
f 191/430/191 233/431/233 206/428/206
vt 0.0035369999241084 0.6899110078811646
vt 0.0000000000000000 0.6899110078811646
f 188/429/188 208/432/208 192/433/192
f 257/433/257 192/430/192 193/429/193
vt 0.0035369999241084 0.6993610262870789
vt 0.0035369999241084 0.7088119983673096
vt 0.0000000000000000 0.7088119983673096
f 257/434/257 193/435/193 192/436/192
vt 0.0000000000000000 0.6993610262870789
f 237/436/237 238/437/238 261/434/261
vt 0.0035369999241084 0.7182629704475403
vt 0.0000000000000000 0.7182629704475403
f 192/435/192 258/438/258 193/439/193
f 192/439/192 193/436/193 258/435/258
f 192/432/192 208/434/208 258/437/258
f 70/437/70 29/433/29 57/432/57
f 112/426/112 154/428/154 168/431/168
f 235/431/235 246/427/246 270/426/270
vt 0.0035369999241084 0.7277140021324158
vt 0.0035369999241084 0.7371649742126465
vt 0.0000000000000000 0.7371649742126465
f 270/440/270 246/441/246 237/442/237
vt 0.0000000000000000 0.7277140021324158
f 270/442/270 237/443/237 246/440/246
vt 0.0035369999241084 0.7466160058975220
vt 0.0035369999241084 0.7560660243034363
vt 0.0000000000000000 0.7560660243034363
f 235/444/235 222/445/222 246/446/246
vt 0.0000000000000000 0.7466160058975220
f 303/446/303 282/447/282 305/444/305
vt 0.0035369999241084 0.7655169963836670
vt 0.0000000000000000 0.7655169963836670
f 246/445/246 222/448/222 237/449/237
f 246/449/246 237/446/237 222/445/222
f 182/441/182 84/444/84 18/447/18
f 301/447/301 304/442/304 361/441/361
vt 0.0035369999241084 0.7749680280685425
vt 0.0035369999241084 0.7844190001487732
vt 0.0000000000000000 0.7844190001487732
f 222/450/222 208/451/208 188/452/188
vt 0.0000000000000000 0.7749680280685425
f 304/452/304 314/453/314 306/450/306
vt 0.0035369999241084 0.7938699722290039
vt 0.0000000000000000 0.7938699722290039
f 140/451/140 163/454/163 171/455/171
f 237/455/237 262/452/262 238/451/238
vt 0.0035369999241084 0.8033210039138794
vt 0.0035369999241084 0.8127710223197937
vt 0.0000000000000000 0.8127710223197937
f 237/456/237 238/457/238 262/458/262
vt 0.0000000000000000 0.8033210039138794
f 237/458/237 194/459/194 238/456/238
vt 0.0000000000000000 0.8222219944000244
f 71/457/71 83/286/83 30/460/30
f 324/460/324 328/458/328 343/457/343
f 238/454/238 194/456/194 210/459/210
f 170/459/170 169/455/169 157/454/157
f 341/448/341 326/450/326 354/453/354
f 209/453/209 210/449/210 194/448/194
f 209/438/209 194/440/194 210/443/210
f 274/443/274 320/439/320 331/438/331
f 222/416/222 188/418/188 212/421/212
f 222/421/222 212/417/212 209/416/209
vt 0.2488089948892593 0.0000000000000000
vt 0.2666699886322021 0.0113709997385740
vt 0.2666699886322021 0.0000000000000000
f 266/461/266 215/462/215 250/463/250
vt 0.2398789972066879 0.0166180003434420
vt 0.2666699886322021 0.0227419994771481
f 292/464/292 311/465/311 303/462/303
vt 0.2398789972066879 0.0484369993209839
vt 0.2666699886322021 0.0454839989542961
vt 0.2666699886322021 0.0341130010783672
f 209/466/209 212/467/212 187/468/187
vt 0.2398789972066879 0.0638870000839233
vt 0.2666699886322021 0.0682249963283539
vt 0.2666699886322021 0.0568539984524250
f 210/469/210 187/470/187 186/471/186
f 177/466/177 170/471/170 157/467/157
f 207/464/207 257/468/257 234/465/234
vt 0.2666699886322021 0.0795959979295731
vt 0.2398789972066879 0.0793379992246628
vt 0.2398789972066879 0.0947879999876022
f 207/472/207 234/473/234 257/474/257
vt 0.2666699886322021 0.0909669995307922
f 351/474/351 359/475/359 326/472/326
vt 0.2398789972066879 0.1102380007505417
vt 0.2666699886322021 0.1137090027332306
vt 0.2666699886322021 0.1023380011320114
f 207/476/207 192/477/192 257/478/257
f 207/474/207 257/478/257 192/475/192
vt 0.2666699886322021 0.1250800043344498
vt 0.2398789972066879 0.1256889998912811
vt 0.2398789972066879 0.1411390006542206
f 308/479/308 292/480/292 279/481/279
vt 0.2666699886322021 0.1364510059356689
f 223/481/223 212/482/212 189/479/189
vt 0.2398789972066879 0.1564999967813492
vt 0.2666699886322021 0.1591919958591461
vt 0.2666699886322021 0.1478219926357269
f 102/483/102 156/484/156 113/485/113
f 212/481/212 188/485/188 189/482/189
f 206/477/206 233/476/233 234/480/234
f 252/480/252 245/479/245 268/477/268
f 223/470/223 206/469/206 234/473/234
f 237/473/237 195/472/195 222/470/222
f 310/461/310 351/464/351 340/462/340
f 291/464/291 276/466/276 345/468/345
vt 0.2130880057811737 0.0230059996247292
vt 0.2130880057811737 0.0345089994370937
f 123/464/123 151/486/151 172/487/172
f 233/487/233 245/466/245 234/464/234
vt 0.2309489995241165 0.0000000000000000
f 246/488/246 223/464/223 258/461/258
vt 0.2130880057811737 0.0690189972519875
vt 0.2130880057811737 0.0805220007896423
f 166/469/166 143/489/143 155/490/155
f 223/490/223 207/473/207 192/469/192
vt 0.2130880057811737 0.0920249968767166
vt 0.2130880057811737 0.1035280004143715
f 235/474/235 259/491/259 246/492/246
f 220/492/220 214/476/214 189/474/189
f 91/478/91 73/474/73 28/476/28
f 110/473/110 126/490/126 116/491/116
f 210/491/210 186/474/186 195/473/195
f 220/471/220 190/466/190 204/469/204
vt 0.2130880057811737 0.0460119992494583
vt 0.2130880057811737 0.0575160011649132
f 308/466/308 284/493/284 305/494/305
f 342/494/342 328/469/328 293/466/293
vt 0.2666699886322021 0.1705629974603653
vt 0.2398789972066879 0.1715289950370789
vt 0.2398789972066879 0.1865569949150085
f 342/495/342 293/496/293 328/497/328
vt 0.2666699886322021 0.1819339990615845
f 211/497/211 201/498/201 193/495/193
vt 0.2666699886322021 0.1933050006628036
f 132/499/132 142/498/142 162/497/162
vt 0.2130880057811737 0.1380369961261749
vt 0.2130880057811737 0.1495400071144104
f 222/481/222 220/500/220 204/501/204
f 222/501/222 195/483/195 203/481/203
f 222/483/222 203/485/203 220/481/220
vt 0.2130880057811737 0.1725469976663589
vt 0.2130880057811737 0.1840499937534332
f 133/496/133 124/502/124 95/503/95
f 246/503/246 222/497/222 212/496/212
f 301/496/301 288/495/288 309/484/309
f 188/484/188 221/483/221 216/496/216
vt 0.2130880057811737 0.1610440015792847
f 237/483/237 261/504/261 195/502/195
f 261/502/261 238/496/238 195/483/195
vt 0.2398789972066879 0.2015849947929382
vt 0.2666699886322021 0.2046760022640228
f 236/505/236 259/506/259 258/499/258
f 292/499/292 341/497/341 311/505/311
vt 0.2130880057811737 0.1265340000391006
f 352/480/352 356/507/356 313/500/313
f 78/500/78 82/481/82 37/480/37
vt 0.2130880057811737 0.1150309965014458
f 278/476/278 325/508/325 292/507/292
f 278/507/278 292/480/292 325/476/325
vt 0.2398789972066879 0.2166129946708679
f 292/506/292 325/505/325 341/509/341
vt 0.2666699886322021 0.2160470038652420
f 292/509/292 341/510/341 325/506/325
vt 0.2398789972066879 0.2316409945487976
f 241/510/241 265/509/265 247/511/247
vt 0.2666699886322021 0.2274180054664612
f 102/511/102 113/512/113 114/510/114
vt 0.2398789972066879 0.2466689944267273
vt 0.2666699886322021 0.2501600086688995
vt 0.2666699886322021 0.2387890070676804
f 311/513/311 341/514/341 354/515/354
vt 0.2398789972066879 0.2616969943046570
f 327/514/327 343/513/343 328/516/328
vt 0.2666699886322021 0.2615300118923187
f 327/516/327 328/517/328 343/514/343
f 40/511/40 76/515/76 63/512/63
vt 0.2666699886322021 0.2842719852924347
vt 0.2666699886322021 0.2729009985923767
vt 0.2398789972066879 0.2767260074615479
f 40/518/40 61/519/61 35/520/35
vt 0.2666699886322021 0.2956430017948151
vt 0.2398789972066879 0.2917540073394775
vt 0.2398789972066879 0.3067820072174072
f 311/521/311 354/522/354 293/523/293
vt 0.2666699886322021 0.3070139884948730
f 354/523/354 342/524/342 293/521/293
f 328/521/328 280/518/280 293/522/293
vt 0.2666699886322021 0.3297559916973114
vt 0.2666699886322021 0.3183850049972534
vt 0.2398789972066879 0.3218100070953369
f 9/525/9 8/526/8 327/527/327
vt 0.2666699886322021 0.3411270081996918
vt 0.2398789972066879 0.3368380069732666
vt 0.2398789972066879 0.3518660068511963
f 303/528/303 311/529/311 293/530/293
vt 0.2666699886322021 0.3524979948997498
f 286/530/286 319/531/319 334/528/334
f 328/528/328 294/525/294 281/529/281
f 328/524/328 281/523/281 294/527/294
f 328/527/328 329/526/329 280/524/280
f 280/517/280 329/516/329 345/520/345
f 280/520/280 345/519/345 329/517/329
vt 0.2666699886322021 0.3752390146255493
vt 0.2666699886322021 0.3638690114021301
vt 0.2398789972066879 0.3668940067291260
f 23/532/23 53/533/53 29/534/29
vt 0.2666699886322021 0.3866100013256073
vt 0.2398789972066879 0.3819229900836945
f 295/535/295 330/532/330 283/536/283
vt 0.2130880057811737 0.2070560008287430
vt 0.2130880057811737 0.2185589969158173
f 266/505/266 250/537/250 225/538/225
f 293/538/293 280/509/280 282/505/282
vt 0.2130880057811737 0.2300619930028915
vt 0.2130880057811737 0.2415650039911270
f 7/511/7 230/539/230 244/540/244
f 301/540/301 349/513/349 358/511/358
f 189/513/189 206/515/206 205/511/205
f 189/509/189 205/538/205 206/539/206
f 278/539/278 279/511/279 296/509/296
vt 0.2398789972066879 0.3969509899616241
f 278/535/278 296/536/296 279/541/279
vt 0.2666699886322021 0.3979809880256653
f 235/541/235 258/542/258 208/535/208
f 330/531/330 361/530/361 304/534/304
f 330/534/330 304/533/304 361/531/361
vt 0.2398789972066879 0.4119789898395538
f 330/542/330 304/541/304 283/543/283
vt 0.2666699886322021 0.4093520045280457
f 330/543/330 283/544/283 304/542/304
vt 0.2666699886322021 0.4320940077304840
vt 0.2666699886322021 0.4207229912281036
vt 0.2398789972066879 0.4270069897174835
f 295/545/295 283/546/283 304/547/304
f 282/546/282 295/544/295 312/543/312
vt 0.2666699886322021 0.4434649944305420
vt 0.2398789972066879 0.4428020119667053
vt 0.2398789972066879 0.4587579965591431
f 195/548/195 186/549/186 203/550/203
vt 0.2666699886322021 0.4548360109329224
f 304/550/304 313/551/313 314/548/314
vt 0.2666699886322021 0.4775770008563995
vt 0.2666699886322021 0.4662069976329803
vt 0.2398789972066879 0.4747399985790253
f 250/552/250 215/553/215 190/554/190
f 139/553/139 151/551/151 149/550/149
f 313/545/313 306/547/306 314/549/314
f 235/549/235 236/548/236 258/545/258
vt 0.2398789972066879 0.4906330108642578
f 304/552/304 305/554/305 312/555/312
vt 0.2666699886322021 0.4889479875564575
f 305/555/305 314/556/314 306/552/306
vt 0.2130880057811737 0.1955530047416687
f 305/497/305 306/503/306 314/557/314
f 222/557/222 189/505/189 212/497/212
vt 0.2130880057811737 0.0000000000000000
vt 0.2130880057811737 0.0115029998123646
f 305/558/305 284/559/284 307/488/307
f 359/559/359 9/464/9 10/488/10
f 235/486/235 208/464/208 222/559/222
f 305/493/305 307/466/307 285/487/285
f 303/494/303 285/489/285 307/469/307
f 230/492/230 257/508/257 253/476/253
f 272/518/272 289/520/289 336/522/336
vt 0.2130880057811737 0.2645719945430756
vt 0.2130880057811737 0.2760750055313110
f 284/516/284 298/560/298 307/561/307
f 279/561/279 303/520/303 307/516/307
vt 0.2130880057811737 0.2875779867172241
f 292/520/292 303/561/303 279/562/279
f 316/562/316 307/522/307 298/520/298
vt 0.2130880057811737 0.2530680000782013
f 299/513/299 345/563/345 294/560/294
f 316/560/316 279/516/279 307/513/307
f 282/501/282 312/504/312 305/483/305
f 316/540/316 296/563/296 279/513/279
f 37/557/37 82/537/82 85/505/85
vt 0.2130880057811737 0.2990809977054596
f 297/562/297 298/564/298 284/522/284
vt 0.2130880057811737 0.3105840086936951
vt 0.2130880057811737 0.3220869898796082
f 297/523/297 284/565/284 298/566/298
f 34/566/34 72/527/72 31/523/31
f 34/525/34 73/527/73 32/529/32
f 342/565/342 282/523/282 293/564/293
vt 0.2130880057811737 0.3335900008678436
vt 0.2130880057811737 0.3450930118560791
f 148/529/148 151/567/151 139/568/139
f 235/568/235 259/530/259 236/529/236
f 299/527/299 344/566/344 328/567/328
f 299/567/299 294/529/294 344/527/344
vt 0.2130880057811737 0.3565959930419922
vt 0.2130880057811737 0.3680999875068665
f 248/530/248 264/569/264 3/570/3
f 299/570/299 283/534/283 330/530/330
f 293/522/293 305/564/305 314/523/314
vt 0.2130880057811737 0.3796029984951019
f 293/534/293 282/570/282 305/571/305
f 299/571/299 293/536/293 283/534/283
vt 0.2130880057811737 0.4026089906692505
vt 0.2130880057811737 0.4141120016574860
f 341/541/341 354/572/354 360/573/360
f 249/573/249 226/543/226 224/541/224
f 360/546/360 342/543/342 327/547/327
vt 0.2130880057811737 0.3911060094833374
f 272/536/272 324/571/324 290/574/290
f 308/574/308 342/541/342 341/536/341
vt 0.2130880057811737 0.4256150126457214
vt 0.2130880057811737 0.4371179938316345
f 308/547/308 282/575/282 342/576/342
f 215/576/215 204/549/204 190/547/190
vt 0.2130880057811737 0.4601239860057831
vt 0.2130880057811737 0.4716280102729797
f 308/550/308 341/577/341 292/578/292
f 316/578/316 334/554/334 353/550/353
f 300/554/300 325/553/325 275/550/275
vt 0.2130880057811737 0.4486210048198700
f 308/549/308 305/579/305 282/577/282
f 359/577/359 327/550/327 360/549/360
f 296/543/296 298/573/298 284/575/284
f 211/575/211 193/547/193 202/543/202
f 304/536/304 306/532/306 313/534/313
vt 0.2130880057811737 0.4831309914588928
f 354/554/354 327/578/327 342/580/342
f 276/580/276 330/555/330 345/554/345
f 338/530/338 278/568/278 296/569/296
f 340/541/340 326/574/326 341/572/341
f 340/549/340 341/576/341 325/579/325
vt 0.2130880057811737 0.4946340024471283
f 291/555/291 345/580/345 294/581/294
vt 0.2130880057811737 0.5061370134353638
f 275/555/275 325/581/325 278/582/278
vt 0.2398789972066879 0.5029429793357849
f 270/582/270 237/583/237 260/555/260
f 270/556/270 260/555/260 237/583/237
vt 0.2666699886322021 0.5003190040588379
f 275/583/275 278/584/278 339/556/339
vt 0.2666699886322021 0.5116900205612183
f 155/583/155 132/585/132 137/584/137
vt 0.2398789972066879 0.5195609927177429
vt 0.2666699886322021 0.5230609774589539
f 278/586/278 292/587/292 279/585/279
vt 0.2666699886322021 0.5344319939613342
vt 0.2398789972066879 0.5353450179100037
vt 0.2398789972066879 0.5507959723472595
f 278/588/278 279/589/279 292/590/292
vt 0.2666699886322021 0.5458030104637146
f 306/590/306 297/591/297 315/588/315
vt 0.2398789972066879 0.5662459731101990
vt 0.2666699886322021 0.5685449838638306
vt 0.2666699886322021 0.5571740269660950
f 68/592/68 61/593/61 38/594/38
f 276/590/276 361/594/361 330/591/330
f 223/587/223 192/586/192 258/589/258
f 276/589/276 301/588/301 361/587/361
vt 0.2398789972066879 0.5816959738731384
vt 0.2666699886322021 0.5912860035896301
vt 0.2666699886322021 0.5799149870872498
f 275/595/275 339/596/339 323/597/323
vt 0.2666699886322021 0.6026570200920105
vt 0.2398789972066879 0.5971469879150391
vt 0.2398789972066879 0.6125969886779785
f 58/598/58 61/599/61 46/600/46
vt 0.2666699886322021 0.6140279769897461
f 351/600/351 326/601/326 340/598/340
# 698 faces, 601 coords texture

# End of File
