####
#
# OBJ File Generated by Meshlab
#
####
# Object omni_chassis_base_link_7.obj
#
# Vertices: 170
# Faces: 310
#
####
mtllib ./omni_chassis_base_link_7.obj.mtl

vn 1.4254621973178463 -1.5027638349416867 -1.5729611243165300
v -0.2794353807106606 -0.0511551928934011 0.1286633604060910
vn 1.3755245744725124 1.4999506578509645 1.4236817711213927
v -0.2794147962184877 -0.0487284411764705 0.1311029852941183
vn 1.4908410801482102 1.5360345676263309 -1.6304303972162495
v -0.2794340707547176 -0.0488686886792453 0.1286887028301888
vn 1.4263729803221346 -1.5376984163681282 1.4693692759573400
v -0.2794187631067955 -0.0512216873786408 0.1310801262135922
vn -2.1152238087461677 -2.2374079254206301 -1.9481697557402788
v -0.3001000000000001 -0.0537549387755102 0.1263019387755102
vn -2.1061763848523172 2.3150729579156906 1.8528477973446285
v -0.3001000000000001 -0.0458917111111111 0.1331395999999999
vn 2.0810210393585442 -3.0220188936253209 -1.3940252644448257
v -0.2986000000000000 -0.0564150000000000 0.1291100000000000
vn 2.3053244712251644 -1.3409495655878314 -3.2257212260282264
v -0.2986000000000000 -0.0510310000000000 0.1235820000000000
vn 2.0849941437850350 3.0697723934053469 1.2739587365486171
v -0.2986000000000000 -0.0435347692307692 0.1303848461538461
vn 2.5685120941655879 1.2597769158615928 3.2332464373629817
v -0.2986000000000002 -0.0487640322580645 0.1361496129032258
vn 0.0935160892149828 -3.1583823827574569 3.1199377057284621
v -0.2834321167883209 -0.0510501167883212 0.1309757116788320
vn 0.0692178260336141 3.2639202457356129 -3.3667387147732262
v -0.2834305785123963 -0.0490210289256199 0.1289033512396697
vn -2.1417370463886800 1.8619627209223617 -2.3218124088804024
v -0.3001000000000001 -0.0464266666666667 0.1260967291666667
vn -3.7571843081475733 -2.2095114785801244 2.0147030200661455
v -0.3001000000000001 -0.0531358409090909 0.1331097272727272
vn 2.0033916839214023 -2.8712390200121773 1.6454281195089242
v -0.2986000000000000 -0.0563370000000000 0.1313395384615385
vn 2.1912332537655699 1.3151919488668817 -3.1368178564421534
v -0.2986000000000000 -0.0494252307692308 0.1235484615384615
vn 2.3131256907596969 3.1415373620520937 -1.4442739438891348
v -0.2986000000000000 -0.0436320000000000 0.1286970000000000
vn 2.6969134149639933 -1.3548783713758561 3.2438111464942638
v -0.2986000000000002 -0.0512671666666667 0.1360862500000000
vn 0.0774492694174644 3.2761146526486202 3.1530371022699786
v -0.2835103448275862 -0.0489498862068965 0.1309377689655171
vn 0.0877269744179561 -3.2503985989916861 -3.3850211668214785
v -0.2835048582995948 -0.0509618623481782 0.1288987732793522
vn -2.2138927818607885 1.1540755217335990 -2.6020109154250841
v -0.3001000000000000 -0.0493830000000000 0.1235525000000000
vn -2.3782390045852528 2.6380790383363077 -1.2424011001807949
v -0.3001000000000000 -0.0436320000000000 0.1286970000000000
vn -1.6263284728955743 -1.3728762486944850 2.1333404855938087
v -0.3000999999999999 -0.0516873333333333 0.1362126666666667
vn -2.1826756347920764 -2.3953252681312165 1.3758571568087037
v -0.3001000000000000 -0.0563555454545454 0.1312489090909091
vn 3.3383565951701915 3.1360387719331264 -3.5301358306937245
v -0.2979340892586991 -0.0468911225416036 0.1267488260211802
vn 0.9878372318022860 3.3082866059220888 3.2000509517637084
v -0.2909246445497636 -0.0484512369668246 0.1313260805687203
vn 2.8272920514558000 -3.3722153590516935 3.3833979630933069
v -0.2978880461309530 -0.0532299196428571 0.1329804583333335
vn 1.0128413143267567 -3.2482087491098715 -3.4621670698266875
v -0.2908455621301778 -0.0514084497041420 0.1283500532544378
vn -2.3772286442389698 -1.1404634208515083 -2.6820347881611060
v -0.3001000000000000 -0.0510310000000000 0.1235820000000000
vn -2.2161494839217228 2.6245359559797916 1.0597378626244218
v -0.3001000000000000 -0.0435325000000000 0.1303425000000000
vn -1.8628798738580645 1.1927838621958786 2.4243223644273364
v -0.3000999999999999 -0.0485104375000000 0.1362613750000000
vn -2.1614983897436710 -2.5409795817183909 -1.1859031985471207
v -0.3001000000000000 -0.0564150000000000 0.1291100000000000
vn 1.0210123458376659 3.1723370905166783 -3.3029091484903472
v -0.2909875000000004 -0.0484899000000000 0.1282848187500001
vn 3.3564672785438852 3.4936815061163751 3.1012117552229981
v -0.2978819689703814 -0.0467753892806771 0.1329218899858956
vn 1.0236192088011156 -3.2156120815482332 3.0705363330614173
v -0.2910346733668347 -0.0516299045226131 0.1313883115577889
vn 3.3625081812020223 -3.4287485710482422 -3.2451434906039265
v -0.2978741276901009 -0.0530749340028693 0.1268239928263989
vn 0.3005642064675145 -2.4241472425462520 5.6094765223187899
v 0.2779719999999999 -0.0409093934426230 0.1776004590163934
vn 2.3340439770318362 -3.3629775711795475 3.0366475414847045
v 0.2820668333333333 -0.0454342638888889 0.1742133750000000
vn 0.2775289827905281 -5.9037473232946320 1.4474454572378237
v 0.2779720000000001 -0.0480033818181818 0.1694706727272727
vn 0.0116286991463755 -2.4768080825470618 5.6419692062665883
v 0.2663219999999999 -0.0408856785714286 0.1776481428571429
vn -0.0043871022608048 -4.5596067703001406 4.0836551000964025
v 0.2721470000000001 -0.0453375000000000 0.1745105000000000
vn -0.0042355494054526 -5.8856879267655620 1.6681812587409632
v 0.2663219999999999 -0.0478923928571429 0.1698705714285714
vn 0.0143202374212504 -2.5006237854060469 5.6283116924210592
v 0.2721470000000001 -0.0409246000000000 0.1776292000000000
vn 0.0144283737608174 -4.5570474240652610 4.0885291275162183
v 0.2663219999999999 -0.0453010909090909 0.1745514545454546
vn -0.0245600227052690 -5.8980900796578446 1.6500522724861735
v 0.2721470000000001 -0.0479172000000000 0.1697866000000000
vn 3.1167746013600994 1.3340013993668371 4.1228329308313363
v 0.2830528554216865 -0.0333769397590361 0.1777002048192772
vn 0.2861221501481443 3.8888543078172568 4.7818445873463116
v 0.2779719999999997 -0.0278823333333333 0.1754348194444445
vn 3.6654075254540426 3.2573651269410484 1.7051458696828812
v 0.2839238478260871 -0.0257108260869565 0.1704903695652174
vn 0.3725090305266177 2.1992678990118848 5.6864017013664396
v 0.2779720000000001 -0.0324768888888889 0.1781986296296296
vn 2.3673694919214388 3.0419038529082236 3.6596637642432546
v 0.2824723636363634 -0.0281757482517482 0.1752976013986013
vn 0.5305464041164879 5.2712237690585617 2.9980234756003163
v 0.2779720000000000 -0.0251100000000000 0.1722920000000000
vn 0.0320116556858142 2.0594859189861818 5.8157788492570424
v 0.2663220000000001 -0.0324793125000000 0.1781906875000000
vn 0.0186150702199958 3.9683527441729476 4.7622478018173489
v 0.2721470000000002 -0.0278580000000000 0.1754621666666666
vn 0.0005157584728863 5.3159851895484964 3.1541988210629279
v 0.2663220000000000 -0.0251100000000000 0.1722920000000000
vn 0.0169884644828566 3.0406067033459974 0.5804163175541474
v 0.2604970000000000 -0.0239765000000000 0.1693085000000000
vn -0.0063494549765134 -0.1912798571270089 3.0930803004786815
v 0.2604970000000000 -0.0362004285714286 0.1787080000000000
vn -0.0041154314391196 2.0534145109680431 5.8121974544395751
v 0.2721470000000001 -0.0324800000000000 0.1781883333333334
vn -0.0048698627205465 3.9877417362372531 4.7508939814873710
v 0.2663220000000000 -0.0278595294117647 0.1754604705882353
vn 0.0137597530902571 5.3195781390795496 3.1441294937980357
v 0.2721470000000000 -0.0251100000000000 0.1722920000000000
vn 1.7477074795073155 -0.2696016074104083 5.1474746298539804
v 0.2817517021276597 -0.0359254680851064 0.1787137234042552
vn 1.3091041147218532 4.4831280636623392 1.9116873299004540
v 0.2819763750000001 -0.0240200555555556 0.1692568888888889
vn 4.9657347998129877 1.2118649537717432 0.5802970469008129
v 0.2849970000000003 -0.0287664428571429 0.1695244714285713
vn 4.5270027871861931 0.3181820459483599 1.8254369801442585
v 0.2849970000000002 -0.0344411578947368 0.1745177719298245
vn 0.0863673786751123 -0.2419567636257105 6.1596300077952915
v 0.2779720000000001 -0.0357763333333333 0.1787036363636364
vn 0.2592920354532648 6.0183175801115318 1.2764405421398655
v 0.2779720000000001 -0.0240454000000000 0.1692845555555556
vn 2.7410026666283214 1.5504048838234210 1.8095449177947180
v 0.2849970000000001 -0.0303119375000000 0.1733036875000000
vn 4.3532190733144152 0.0000000000000297 0.0000000000000240
v 0.2849970000000002 -0.0337823555555555 0.1705196444444444
vn 0.0284620063679422 -0.2286975079085032 6.1797302955441475
v 0.2663220000000001 -0.0360420588235294 0.1787117647058823
vn 0.0188135273403222 6.0896348873581587 1.1580434627356833
v 0.2663219999999999 -0.0240200000000000 0.1693392727272727
vn -0.0245958164741494 2.6401213320381913 1.5982550112322178
v 0.2604970000000000 -0.0250590000000000 0.1722000000000000
vn -0.0150316463247115 0.9012401415098223 2.9503456265315613
v 0.2604970000000000 -0.0329840000000000 0.1783680000000000
vn 0.0015254092428924 -0.2595578976900242 6.1738362586724005
v 0.2721470000000001 -0.0361163333333333 0.1787100000000000
vn 0.0188207369346265 6.0851376736015181 1.1555391611930597
v 0.2721470000000001 -0.0240145925925926 0.1693276296296297
vn -0.0414324489370345 1.8877274267343163 2.4656370660131692
v 0.2604970000000000 -0.0285672666666667 0.1759803333333333
vn 0.0048097380848118 -1.1862149641438504 -6.1001813038859281
v 0.2721470000000000 -0.0384610000000000 0.1539850000000000
vn 0.0266076343404538 -2.3282868322154626 -1.9887735963994819
v 0.2604970000000000 -0.0452180000000000 0.1578135000000000
vn 2.9288748148282919 -2.3085838379759220 -3.9431609502302414
v 0.2827991111111107 -0.0414507407407408 0.1556573148148148
vn 0.2036734556665711 -4.7172613336607876 -3.8449875977556585
v 0.2779720000000001 -0.0455535102040817 0.1582752653061225
vn 2.5201216238453203 -4.6277685884598974 -0.9398693262904516
v 0.2827444789915963 -0.0476843613445378 0.1637055378151262
vn 0.2277533276118777 -3.0935303718988898 -5.3406942921497054
v 0.2779720000000001 -0.0415975227272727 0.1551336590909091
vn 2.4931746287119845 -3.5106032458680247 -2.8223362438478641
v 0.2823870319148934 -0.0454677446808511 0.1586038829787234
vn 0.2656581257552586 -5.9235426371583788 -1.3054953133746419
v 0.2779720000000001 -0.0481096000000000 0.1635202000000000
vn 0.0601496057542971 -2.9791366568782607 -5.4449869904151766
v 0.2663219999999999 -0.0413260434782609 0.1550011739130435
vn -0.0254360133887333 -4.7658505230275221 -3.8399519825728095
v 0.2721470000000001 -0.0455372000000000 0.1582892000000001
vn -0.0184737767969155 -5.9796628547456443 -1.1694673453475193
v 0.2663219999999999 -0.0481856785714286 0.1638241428571429
vn -0.0212172118482975 -0.6777175679105816 -3.0268400719143713
v 0.2604970000000000 -0.0391210000000000 0.1541330000000000
vn -0.0148201767543757 -2.9667434269230339 -5.4465912975137929
v 0.2721470000000001 -0.0413032500000000 0.1549877500000000
vn 0.0508625945907629 -4.8041215702850035 -3.7981121738402654
v 0.2663219999999999 -0.0455925000000000 0.1583550714285714
vn -0.0175761617264191 -5.9742124525093203 -1.2151068982626889
v 0.2721470000000001 -0.0481860588235294 0.1638074117647059
vn -0.0139609923583094 -1.1565928931672769 -6.1044041132400118
v 0.2663220000000000 -0.0384610000000000 0.1539850000000000
vn -0.0542318803379744 -2.9729655123703820 -0.7077541220249134
v 0.2604970000000000 -0.0479877857142857 0.1632282857142857
vn 0.0381503746799595 -1.5617071378610219 -2.6874881579311394
v 0.2604970000000000 -0.0418522857142857 0.1552242857142857
vn 0.0169848800316726 -1.1749427063799127 -6.0961887337415712
v 0.2779720000000001 -0.0384461764705882 0.1539931176470588
vn 4.8457258173245483 -0.5618437585992467 -0.5317427779635874
v 0.2849970000000004 -0.0409045287356322 0.1630358965517243
vn 2.3678773304548999 -1.0425063274124149 -4.5201868855597258
v 0.2822434000000000 -0.0385030000000000 0.1540063333333333
vn 5.4268664433270999 -1.1175097081335288 -1.5810163020548937
v 0.2849970000000002 -0.0400791875000000 0.1586213125000001
vn 3.5223323960221649 -1.7802720145108615 -0.9493068970503546
v 0.2849970000000001 -0.0446997500000000 0.1639930833333333
vn 0.0057809196390082 6.1375010777108230 -0.8694256501996861
v 0.2721470000000001 -0.0239008000000000 0.1638796000000000
vn -0.0025579180834088 0.3424442821624008 -6.2424503822747175
v 0.2721470000000001 -0.0353665000000000 0.1538472500000000
vn 0.0278730482338783 1.7692758899906718 -2.5004844664564017
v 0.2604970000000000 -0.0283376000000000 0.1566707333333333
vn 0.0055161979675564 6.1364058776204748 -0.8900800891304486
v 0.2663219999999999 -0.0239050357142857 0.1638788214285714
vn -0.0273852807322660 0.3193124857907162 -6.2421580061141739
v 0.2663219999999999 -0.0353943043478261 0.1538483913043478
vn 0.0065613723327387 2.6568027556211051 -1.5390307265225878
v 0.2604970000000000 -0.0250590000000000 0.1603010000000000
vn 0.0126288877714488 6.1274669270843418 -0.9542783312267212
v 0.2779720000000001 -0.0239716000000000 0.1635599636363637
vn 0.2564607161350194 0.6341481194310616 -6.1772480792610072
v 0.2779720000000001 -0.0350315909090909 0.1538749318181818
vn 2.7488606368894395 1.5312086008414445 -1.8404930165799986
v 0.2849970000000001 -0.0303735000000000 0.1591472500000000
vn 4.5710233688447222 0.0000000000000247 0.0000000000000233
v 0.2849970000000003 -0.0341385901639344 0.1631318852459018
vn 1.8376178423260889 4.7966951960201554 -1.4530100553452674
v 0.2820168333333334 -0.0239545555555556 0.1636447444444445
vn 1.3214065138734732 1.5786552509995639 -4.8088517438806511
v 0.2820168333333334 -0.0349566944444444 0.1538798194444445
vn 4.8172755837816545 1.2020616176833283 -0.5524103348437774
v 0.2849970000000004 -0.0287971744186047 0.1635293255813955
vn 4.4820208789950415 0.2318040443705088 -1.7316183926210686
v 0.2849970000000002 -0.0344849473684210 0.1579774561403508
vn -0.0206294114937807 2.1195196416838562 -5.7888659868753347
v 0.2721470000000000 -0.0322920000000000 0.1543300000000000
vn -0.0974688939976062 3.8685346427063600 -4.8369972775771597
v 0.2663220000000001 -0.0282414871794872 0.1567960769230769
vn -0.0137380167867162 5.3438839335981054 -3.0366612988138311
v 0.2721470000000000 -0.0249930000000000 0.1604260000000000
vn -0.0017337010227274 5.3403352060525551 -3.0335202525589384
v 0.2663220000000000 -0.0249930000000000 0.1604260000000000
vn -0.3172019337508408 2.2394739732448676 -5.6803251715248519
v 0.2663220000000000 -0.0322920000000000 0.1543300000000000
vn -0.0187856249261444 3.9936139570995897 -4.7649590465464637
v 0.2721470000000002 -0.0281698571428572 0.1568541428571428
vn -0.0952288580162186 0.5227019996182534 -3.0243320382876413
v 0.2604970000000000 -0.0348431818181818 0.1539166363636364
vn 0.0114162021803891 3.0657715756350452 -0.4384796741226202
v 0.2604970000000000 -0.0238610000000000 0.1640266363636363
vn 0.7827907425759382 5.0369685208681068 -3.1691663642175527
v 0.2779720000000000 -0.0249930000000000 0.1604260000000000
vn 0.5499933629190937 2.1805047878386956 -5.6503528515642998
v 0.2779720000000001 -0.0319707272727273 0.1544401818181819
vn 2.2503662181921933 3.3683392582649252 -3.1905621201862657
v 0.2825305341614904 -0.0280472795031056 0.1573987826086958
vn 4.0342066472739058 3.2454511031039708 -1.5219910137087667
v 0.2839578750000001 -0.0255759250000000 0.1631699250000000
vn 3.5961012429864114 1.2673301167684343 -3.8019541199704898
v 0.2835730961538462 -0.0335940384615385 0.1552196730769230
vn 0.4507101485743758 4.1827915622394913 -4.4816242001020363
v 0.2779719999999996 -0.0279256493506493 0.1570688961038962
vn 2.7771964994418763 -1.9702780522289802 3.9737133855696718
v 0.2827351690140841 -0.0409520915492958 0.1770566478873239
vn 0.1346813238822006 -4.6417966057237292 3.9447434936696180
v 0.2779720000000001 -0.0455496818181818 0.1742597272727272
vn 2.4257247730822726 -4.6578099308698029 1.3436473002684992
v 0.2825712307692305 -0.0474768461538461 0.1698587435897437
vn 0.0046596565714080 -1.2624011351530484 2.8153918867624874
v 0.2604970000000000 -0.0410241818181818 0.1775841818181818
vn -0.0166520933248241 -2.9288256430795818 0.8515583772400531
v 0.2604970000000000 -0.0478336363636364 0.1700970909090909
vn 0.0254050875272511 -2.2523184091082626 2.0692471824368073
v 0.2604970000000000 -0.0452180000000000 0.1746875000000000
vn 4.8338053375314178 -1.8540523387607073 1.4850059961355917
v 0.2849970000000002 -0.0398765454545454 0.1740562954545455
vn 3.3410939512068802 -1.8468619248080835 1.0846420821227643
v 0.2849969999999999 -0.0446681034482759 0.1691401034482759
vn 4.7659598680481396 -0.7134509473853659 0.8318380552942160
v 0.2849970000000003 -0.0409309870129870 0.1702195584415583
vn -2.3567382106535013 -1.1902902615799906 -2.6481710914726118
v -0.3001000000000000 0.0489010000000000 0.1235940000000000
vn -2.1395199290828204 2.4480164456839923 1.2862581003485312
v -0.3001000000000000 0.0564470000000000 0.1308250000000000
vn -1.5250344683796884 1.3693420246852210 2.0701345853510382
v -0.3000999999999999 0.0516236250000000 0.1362337500000000
vn 3.2813586426864143 -3.4297651798595412 -3.3006700471551120
v -0.2978803229018496 0.0469942830725462 0.1267549231863443
vn 1.0044442141150829 -3.2037038749058913 3.1563960454251672
v -0.2908843137254908 0.0484302499999999 0.1313696029411764
vn 2.8600120219185268 3.4683425867539537 3.3553346713382051
v -0.2978937354570644 0.0532090401662051 0.1329183905817173
vn 1.0656361924356554 3.1668586640829144 -3.4166029455949367
v -0.2910277108433739 0.0514524397590361 0.1282914518072290
vn -2.2338972089229450 -2.5577820946351268 -1.2368610457238061
v -0.3001000000000000 0.0435760000000000 0.1291780000000000
vn -2.2478384136254252 1.1399485431327070 -2.5893372618278403
v -0.3001000000000000 0.0504985454545455 0.1235422727272727
vn -2.2998056795533359 2.5836172475107042 -1.2157552743873417
v -0.3001000000000000 0.0564303636363636 0.1292267272727272
vn 1.0302621203068763 -3.2898472402468286 -3.2989361284415653
v -0.2910068322981369 0.0484863975155280 0.1283434347826087
vn 3.0428110577048937 -3.4393001316165877 3.2583512505864949
v -0.2978937787610625 0.0466900707964602 0.1329190781710916
vn 1.0223504200229598 3.3011280978564428 3.1161835522973771
v -0.2909076923076929 0.0515774134615384 0.1313232259615386
vn 2.5975756775072290 3.4128997035903761 -3.5525558834543522
v -0.2979173514774495 0.0531338849144635 0.1267589937791600
vn -2.2287702931646556 -2.5512743116691250 1.2027489072809079
v -0.3001000000000000 0.0435530000000000 0.1308260000000000
vn -1.7459044961234340 -1.3332000945814901 2.2481182770488557
v -0.3000999999999999 0.0483783333333333 0.1362300000000000
vn -3.0733769642227098 2.1313614181928338 -2.2965645062927154
v -0.3001000000000002 0.0532667313432836 0.1266351791044776
vn 0.0647374165205687 -3.1798231220684960 -3.5051292395435159
v -0.2834217391304343 0.0490837782608696 0.1288482391304349
vn 0.0750174497711035 3.2313229390427600 3.1059989471854119
v -0.2835139072847684 0.0510545298013245 0.1309020860927154
vn 2.5246489270688528 -1.3696605347300423 3.1558552102930264
v -0.2986000000000002 0.0486890322580645 0.1361346451612903
vn 2.1794851468398040 3.0982152627129986 -1.4071623610252062
v -0.2986000000000000 0.0564240000000000 0.1291770000000000
vn 2.1174433263116557 1.3306504345521637 -3.1122117969486416
v -0.2986000000000000 0.0505485000000000 0.1235465000000000
vn 2.1629222245820636 -3.1026040028621313 1.3584106188979244
v -0.2986000000000000 0.0435530000000000 0.1308260000000000
vn -3.0446639216700251 -2.2500125602736629 2.1449364583845343
v -0.3001000000000002 0.0463587058823529 0.1330683088235295
vn -3.1424106176014934 2.2414542151469985 2.1534605425047193
v -0.3001000000000001 0.0535060000000000 0.1329725636363637
vn 0.0802791053585883 3.2810300442963656 -3.3712201062108900
v -0.2834217391304343 0.0509668695652173 0.1288747000000000
vn 0.0501777842761885 -3.2491077192145816 2.9782249331351278
v -0.2835020618556701 0.0489115120274915 0.1308947182130585
vn 2.6441601425993397 1.4229559801779632 3.1543580300645502
v -0.2986000000000002 0.0511896666666667 0.1361007777777778
vn 2.0755008322818167 2.9699158427191805 1.4459830153209856
v -0.2986000000000000 0.0564470000000000 0.1308250000000000
vn 2.2788538352272960 -1.4021786937292497 -3.1892188180800445
v -0.2986000000000000 0.0489010000000000 0.1235940000000000
vn 2.1012763456994192 -3.0117247340876143 -1.4860261342578900
v -0.2986000000000000 0.0435813846153846 0.1291359230769231
vn -2.2708948950204593 -2.3091010253304733 -1.9377760632591055
v -0.3001000000000002 0.0466748833333333 0.1259528833333333
vn 1.4079443100901436 1.4952486387593096 1.4853207918683016
v -0.2795589709172265 0.0512013914988814 0.1310893176733781
vn 1.4853381479476049 -1.5106131439037818 -1.6379988684247540
v -0.2795787200000007 0.0488954960000000 0.1286832026666667
vn 1.3644870054904048 -1.5374100389990262 1.4060118359401541
v -0.2795748380281697 0.0487214929577465 0.1310660751173708
vn 1.4508695762714856 1.5477726735796609 -1.5347346336183527
v -0.2795701253561261 0.0511743618233619 0.1287173589743588
# 170 vertices, 0 vertices normals


usemtl material_0
vt 0.4273740053176880 0.0168910007923841
vt 0.4273740053176880 0.0000000000000000
vt 0.5011730194091797 0.0000000000000000
f 14/1/14 23/2/23 31/3/31
vt 0.5011730194091797 0.0168910007923841
f 6/3/6 22/4/22 13/1/13
vt 0.3535760045051575 0.0084459995850921
vt 0.3535760045051575 0.0000000000000000
f 6/5/6 30/6/30 22/2/22
vt 0.3535760045051575 0.0168910007923841
f 32/1/32 24/7/24 5/5/5
f 13/2/13 29/1/29 5/5/5
vt 0.3166770040988922 0.0084459995850921
vt 0.3166770040988922 0.0000000000000000
f 14/8/14 13/9/13 5/6/5
f 25/6/25 21/5/21 13/8/13
vt 0.3166770040988922 0.0168910007923841
f 16/10/16 21/8/21 25/5/25
f 16/5/16 29/7/29 21/10/21
vt 0.4273740053176880 0.0327299982309341
f 8/11/8 5/1/5 29/4/29
vt 0.5011730194091797 0.0327299982309341
f 36/4/36 5/12/5 8/11/8
vt 0.3535760045051575 0.0248109996318817
f 9/13/9 22/7/22 30/1/30
vt 0.3535760045051575 0.0327299982309341
f 17/11/17 22/14/22 9/13/9
f 17/1/17 13/11/13 22/13/22
vt 0.3166770040988922 0.0248109996318817
f 34/15/34 9/10/9 30/7/30
f 34/7/34 30/13/30 6/15/6
vt 0.3166770040988922 0.0327299982309341
f 15/16/15 14/15/14 24/13/24
f 27/13/27 14/14/14 15/16/15
vt 0.4273740053176880 0.0485690012574196
f 27/17/27 23/11/23 14/12/14
vt 0.5011730194091797 0.0485690012574196
f 7/12/7 24/18/24 32/17/32
vt 0.3535760045051575 0.0406499989330769
f 7/19/7 15/14/15 24/11/24
vt 0.3535760045051575 0.0485690012574196
f 27/17/27 18/20/18 23/19/23
f 36/11/36 27/17/27 7/19/7
vt 0.3166770040988922 0.0406499989330769
f 34/21/34 25/16/25 9/14/9
f 34/14/34 10/19/10 18/21/18
vt 0.3166770040988922 0.0485690012574196
f 3/22/3 20/21/20 12/19/12
f 3/19/3 1/20/1 20/22/20
vt 0.4273740053176880 0.0644079968333244
f 14/23/14 31/17/31 6/18/6
vt 0.5011730194091797 0.0644079968333244
f 2/18/2 12/24/12 19/23/19
vt 0.3535760045051575 0.0644079968333244
f 4/25/4 11/20/11 20/17/20
f 4/17/4 20/23/20 1/25/1
vt 0.4273740053176880 0.0801680013537407
f 4/26/4 1/23/1 3/24/3
vt 0.5011730194091797 0.0801680013537407
f 4/24/4 19/27/19 11/26/11
vt 0.3535760045051575 0.0722879990935326
f 4/28/4 3/25/3 2/23/2
vt 0.3535760045051575 0.0801680013537407
f 52/26/52 71/29/71 68/28/68
f 129/23/129 131/26/131 44/28/44
vt 0.3166770040988922 0.0722879990935326
vt 0.3166770040988922 0.0644079968333244
f 74/30/74 58/31/58 70/25/70
f 99/25/99 102/28/102 112/30/112
vt 0.3166770040988922 0.0801680013537407
f 115/32/115 113/30/113 100/28/100
f 115/28/115 103/29/103 101/32/101
vt 0.4273740053176880 0.0955739989876747
f 101/33/101 103/26/103 119/27/119
vt 0.5011730194091797 0.0955739989876747
f 118/27/118 100/34/100 113/33/113
vt 0.3535760045051575 0.0878710001707077
f 79/35/79 81/29/81 97/26/97
vt 0.3535760045051575 0.0955739989876747
f 83/33/83 76/36/76 92/35/92
f 88/26/88 91/33/91 76/35/76
vt 0.3166770040988922 0.0878710001707077
f 156/37/156 148/32/148 138/29/138
f 150/29/150 146/35/146 154/37/154
vt 0.3166770040988922 0.0955739989876747
f 85/38/85 91/37/91 88/35/88
f 152/35/152 168/36/168 169/38/169
vt 0.4273740053176880 0.1109799966216087
f 160/39/160 170/33/170 168/34/168
vt 0.5011730194091797 0.1109799966216087
f 79/34/79 39/40/39 82/39/82
vt 0.3535760045051575 0.1032769978046417
f 112/41/112 121/36/121 105/33/105
vt 0.3535760045051575 0.1109799966216087
f 27/39/27 15/42/15 7/41/7
f 79/33/79 128/39/128 39/41/39
vt 0.3166770040988922 0.1032769978046417
f 127/43/127 128/38/128 38/36/38
f 44/36/44 42/41/42 45/43/45
vt 0.3166770040988922 0.1109799966216087
f 54/44/54 55/43/55 70/41/70
f 93/41/93 87/42/87 75/44/75
vt 0.4273740053176880 0.1263860017061234
f 69/45/69 101/39/101 119/40/119
vt 0.5011730194091797 0.1263860017061234
f 41/40/41 44/46/44 45/45/45
vt 0.3535760045051575 0.1186830028891563
f 17/47/17 25/42/25 13/39/13
vt 0.3535760045051575 0.1263860017061234
f 57/45/57 58/48/58 52/47/52
f 37/39/37 127/45/127 38/47/38
vt 0.3166770040988922 0.1186830028891563
f 43/49/43 41/44/41 37/42/37
f 59/42/59 54/47/54 53/49/53
vt 0.3166770040988922 0.1263860017061234
f 93/50/93 95/49/95 80/47/80
f 151/47/151 155/48/155 148/50/148
vt 0.4273740053176880 0.1417919993400574
f 37/51/37 41/45/41 127/46/127
vt 0.5011730194091797 0.1417919993400574
f 85/46/85 130/52/130 91/51/91
vt 0.3535760045051575 0.1340889930725098
f 82/53/82 39/48/39 89/45/89
vt 0.3535760045051575 0.1417919993400574
f 43/51/43 40/54/40 41/53/41
f 67/45/67 107/51/107 110/53/110
vt 0.3166770040988922 0.1340889930725098
f 43/55/43 37/50/37 72/48/72
f 90/48/90 75/53/75 83/55/83
vt 0.3166770040988922 0.1417919993400574
f 123/56/123 110/55/110 122/53/122
f 127/53/127 39/54/39 128/56/128
vt 0.4273740053176880 0.1571979969739914
f 65/57/65 98/51/98 73/52/73
vt 0.5011730194091797 0.1571979969739914
f 160/52/160 153/58/153 167/57/167
vt 0.3535760045051575 0.1494950056076050
f 88/59/88 83/54/83 87/51/87
vt 0.3535760045051575 0.1571979969739914
f 156/57/156 164/60/164 135/59/135
f 116/51/116 102/57/102 118/59/118
vt 0.3166770040988922 0.1494950056076050
f 43/61/43 68/56/68 40/54/40
f 102/54/102 86/59/86 118/61/118
vt 0.3166770040988922 0.1571979969739914
f 43/62/43 72/61/72 68/59/68
f 158/59/158 137/60/137 159/62/159
vt 0.4273740053176880 0.1726039946079254
f 127/63/127 45/57/45 39/58/39
vt 0.5011730194091797 0.1726039946079254
f 60/58/60 49/64/49 64/63/64
vt 0.3535760045051575 0.1649010032415390
f 63/65/63 132/60/132 134/57/134
vt 0.3535760045051575 0.1726039946079254
f 54/63/54 70/66/70 58/65/58
f 157/57/157 158/63/158 149/65/149
vt 0.3166770040988922 0.1649010032415390
f 136/67/136 144/62/144 151/60/151
f 57/60/57 72/65/72 64/67/64
vt 0.3166770040988922 0.1726039946079254
f 57/68/57 64/67/64 49/65/49
f 93/65/93 109/66/109 95/68/95
vt 0.4273740053176880 0.1880100071430206
f 35/69/35 26/63/26 34/64/34
vt 0.5011730194091797 0.1880100071430206
f 52/64/52 68/70/68 72/69/72
vt 0.3535760045051575 0.1803070008754730
f 96/71/96 94/66/94 81/63/81
vt 0.3535760045051575 0.1880100071430206
f 26/69/26 11/72/11 19/71/19
f 57/63/57 47/69/47 53/71/53
vt 0.3166770040988922 0.1803070008754730
f 14/73/14 6/68/6 13/66/13
f 51/66/51 50/71/50 48/73/48
vt 0.3166770040988922 0.1880100071430206
f 77/74/77 96/73/96 81/71/81
f 37/71/37 126/72/126 64/74/64
vt 0.4273740053176880 0.2034160047769547
f 131/75/131 42/69/42 44/70/44
vt 0.5011730194091797 0.2034160047769547
f 163/70/163 136/76/136 140/75/140
vt 0.3535760045051575 0.1957129985094070
f 10/77/10 6/72/6 31/69/31
vt 0.3535760045051575 0.2034160047769547
f 116/75/116 118/78/118 113/77/113
f 90/69/90 86/75/86 102/77/102
vt 0.3166770040988922 0.1957129985094070
f 163/79/163 155/74/155 144/72/144
f 54/72/54 58/77/58 53/79/53
vt 0.3166770040988922 0.2034160047769547
f 59/80/59 47/79/47 51/77/51
f 84/77/84 80/78/80 78/80/78
vt 0.4273740053176880 0.2188220024108887
f 99/81/99 112/75/112 105/76/105
vt 0.5011730194091797 0.2188220024108887
f 93/76/93 105/82/105 109/81/109
vt 0.3535760045051575 0.2111189961433411
f 93/83/93 99/78/99 105/75/105
vt 0.3535760045051575 0.2188220024108887
f 88/81/88 76/84/76 83/83/83
f 60/75/60 64/81/64 126/83/126
vt 0.3166770040988922 0.2111189961433411
f 66/85/66 50/80/50 63/78/63
f 166/78/166 159/83/159 151/85/151
vt 0.3166770040988922 0.2188220024108887
f 112/86/112 102/85/102 116/83/116
f 65/83/65 73/84/73 59/86/59
vt 0.4273740053176880 0.2351700067520142
f 112/87/112 117/81/117 121/82/121
vt 0.5011730194091797 0.2351700067520142
f 105/82/105 121/88/121 124/87/124
vt 0.3535760045051575 0.2269960045814514
f 37/89/37 38/84/38 126/81/126
vt 0.3535760045051575 0.2351700067520142
f 79/87/79 97/90/97 133/89/133
f 65/81/65 48/87/48 61/89/61
vt 0.3166770040988922 0.2269960045814514
f 36/91/36 8/86/8 16/84/16
f 69/84/69 54/89/54 59/91/59
vt 0.3166770040988922 0.2351700067520142
f 90/92/90 99/91/99 75/89/75
f 87/89/87 83/90/83 75/92/75
vt 0.4273740053176880 0.2496339976787567
f 93/93/93 80/87/80 87/88/87
vt 0.5011730194091797 0.2496339976787567
f 57/88/57 53/94/53 58/93/58
vt 0.3535760045051575 0.2424020022153854
f 45/95/45 89/90/89 39/87/39
vt 0.3535760045051575 0.2496339976787567
f 57/93/57 52/96/52 72/95/72
f 109/87/109 124/93/124 95/95/95
vt 0.3166770040988922 0.2424020022153854
f 84/97/84 78/92/78 82/90/82
f 84/90/84 82/95/82 89/97/89
vt 0.3166770040988922 0.2496339976787567
f 78/98/78 81/97/81 82/95/82
f 36/95/36 25/96/25 33/98/33
vt 0.4273740053176880 0.2665250003337860
f 28/99/28 33/93/33 12/94/12
vt 0.5011730194091797 0.2665250003337860
f 69/94/69 59/100/59 73/99/73
vt 0.3535760045051575 0.2580789923667908
f 121/101/121 117/96/117 125/93/125
vt 0.3535760045051575 0.2665250003337860
f 84/99/84 85/102/85 88/101/88
f 147/93/147 141/99/141 148/101/148
vt 0.3166770040988922 0.2580789923667908
f 95/103/95 77/98/77 80/96/80
f 84/96/84 88/101/88 87/103/87
vt 0.3166770040988922 0.2665250003337860
f 69/104/69 73/103/73 101/101/101
f 84/101/84 89/102/89 85/104/85
vt 0.4273740053176880 0.2823640108108521
f 84/105/84 87/99/87 80/100/80
vt 0.5011730194091797 0.2823640108108521
f 57/100/57 49/106/49 47/105/47
vt 0.3535760045051575 0.2744449973106384
f 40/107/40 44/102/44 41/99/41
vt 0.3535760045051575 0.2823640108108521
f 60/105/60 46/108/46 49/107/49
f 141/99/141 153/105/153 160/107/160
vt 0.3166770040988922 0.2744449973106384
f 18/109/18 31/104/31 23/102/23
f 51/102/51 47/107/47 50/109/50
vt 0.3166770040988922 0.2823640108108521
f 60/110/60 126/109/126 46/107/46
f 114/107/114 113/108/113 115/110/115
vt 0.4273740053176880 0.2982029914855957
f 78/111/78 77/105/77 81/106/81
vt 0.5011730194091797 0.2982029914855957
f 129/106/129 44/112/44 40/111/40
vt 0.3535760045051575 0.2902829945087433
f 163/113/163 144/108/144 136/105/136
vt 0.3535760045051575 0.2982029914855957
f 16/111/16 8/114/8 29/113/29
f 115/105/115 100/111/100 103/113/103
vt 0.3166770040988922 0.2902829945087433
f 93/115/93 75/110/75 99/108/99
f 18/108/18 10/113/10 31/115/31
vt 0.3166770040988922 0.2982029914855957
f 147/116/147 148/115/148 140/113/140
f 158/113/158 146/114/146 150/116/150
vt 0.4273740053176880 0.3140420019626617
f 85/117/85 89/111/89 42/112/42
vt 0.5011730194091797 0.3140420019626617
f 112/112/112 116/118/116 117/117/117
vt 0.3535760045051575 0.3061220049858093
f 67/119/67 110/114/110 62/111/62
vt 0.3535760045051575 0.3140420019626617
f 49/117/49 46/120/46 47/119/47
f 78/111/78 80/117/80 77/119/77
vt 0.3166770040988922 0.3061220049858093
f 36/121/36 16/116/16 25/114/25
f 79/114/79 82/119/82 81/121/81
vt 0.3166770040988922 0.3140420019626617
f 13/122/13 21/121/21 29/119/29
f 79/119/79 133/120/133 128/122/128
vt 0.4273740053176880 0.3298020064830780
f 46/123/46 50/117/50 47/118/47
vt 0.5011730194091797 0.3298020064830780
f 46/118/46 63/124/63 50/123/50
vt 0.3535760045051575 0.3219220042228699
f 157/125/157 146/120/146 158/117/158
vt 0.3535760045051575 0.3298020064830780
f 108/123/108 123/126/123 120/125/120
f 68/117/68 71/123/71 56/125/56
vt 0.3166770040988922 0.3219220042228699
f 28/127/28 20/122/20 35/120/35
f 65/120/65 104/125/104 98/127/98
vt 0.3166770040988922 0.3298020064830780
f 121/128/121 122/127/122 124/125/124
f 121/125/121 125/126/125 122/128/122
vt 0.4273740053176880 0.3452079892158508
f 114/129/114 115/123/115 98/124/98
vt 0.5011730194091797 0.3452079892158508
f 114/124/114 125/130/125 117/129/117
vt 0.3535760045051575 0.3375050127506256
f 123/131/123 122/126/122 125/123/125
vt 0.3535760045051575 0.3452079892158508
f 120/129/120 123/132/123 125/131/125
f 67/123/67 134/129/134 107/131/107
vt 0.3166770040988922 0.3375050127506256
f 104/133/104 108/128/108 120/126/120
f 90/126/90 102/131/102 99/133/99
vt 0.3166770040988922 0.3452079892158508
f 65/134/65 59/133/59 51/131/51
f 115/131/115 101/132/101 98/134/98
vt 0.4273740053176880 0.3606140017509460
f 52/135/52 74/129/74 71/130/71
vt 0.5011730194091797 0.3606140017509460
f 138/130/138 145/136/145 139/135/139
vt 0.3535760045051575 0.3529109954833984
f 59/137/59 53/132/53 47/129/47
vt 0.3535760045051575 0.3606140017509460
f 104/135/104 120/138/120 114/137/114
f 167/129/167 169/135/169 170/137/170
vt 0.3166770040988922 0.3529109954833984
f 152/139/152 169/134/169 161/132/161
f 104/132/104 114/137/114 98/139/98
vt 0.3166770040988922 0.3606140017509460
f 73/140/73 98/139/98 101/137/101
f 150/137/150 154/138/154 137/140/137
vt 0.4273740053176880 0.3760200142860413
f 114/141/114 117/135/117 113/136/113
vt 0.5011730194091797 0.3760200142860413
f 109/136/109 105/142/105 124/141/124
vt 0.3535760045051575 0.3683170080184937
f 95/143/95 124/138/124 77/135/77
vt 0.3535760045051575 0.3760200142860413
f 65/141/65 61/144/61 104/143/104
f 40/135/40 68/141/68 56/143/56
vt 0.3166770040988922 0.3683170080184937
f 131/145/131 130/140/130 42/138/42
f 85/138/85 42/143/42 130/145/130
vt 0.3166770040988922 0.3760200142860413
f 137/146/137 154/145/154 162/143/162
f 108/143/108 122/144/122 123/146/123
vt 0.4273740053176880 0.3914259970188141
f 108/147/108 123/141/123 122/142/122
vt 0.5011730194091797 0.3914259970188141
f 126/142/126 38/148/38 134/147/134
vt 0.3535760045051575 0.3837229907512665
f 138/149/138 141/144/141 145/141/145
vt 0.3535760045051575 0.3914259970188141
f 133/147/133 134/150/134 38/149/38
f 159/141/159 140/147/140 136/149/136
vt 0.3166770040988922 0.3837229907512665
f 139/151/139 147/146/147 140/144/140
f 52/144/52 58/149/58 74/151/74
vt 0.3166770040988922 0.3914259970188141
f 133/152/133 38/151/38 128/149/128
f 144/149/144 155/150/155 151/152/151
vt 0.4273740053176880 0.4068320095539093
f 165/153/165 146/147/146 157/148/157
vt 0.5011730194091797 0.4068320095539093
f 69/148/69 119/154/119 55/153/55
vt 0.3535760045051575 0.3991290032863617
f 62/155/62 50/150/50 66/147/66
vt 0.3535760045051575 0.4068320095539093
f 116/153/116 113/156/113 117/155/117
f 77/147/77 124/153/124 111/155/111
vt 0.3166770040988922 0.3991290032863617
f 123/157/123 62/152/62 110/150/110
f 123/150/123 48/155/48 62/157/62
vt 0.3166770040988922 0.4068320095539093
f 62/158/62 48/157/48 50/155/50
f 37/155/37 64/156/64 72/158/72
vt 0.4273740053176880 0.4222379922866821
f 108/159/108 48/153/48 123/154/123
vt 0.5011730194091797 0.4222379922866821
f 65/154/65 51/160/51 48/159/48
vt 0.3535760045051575 0.4145349860191345
f 156/161/156 138/156/138 164/153/164
vt 0.3535760045051575 0.4222379922866821
f 61/159/61 48/162/48 108/161/108
f 122/153/122 106/159/106 111/161/111
vt 0.3166770040988922 0.4145349860191345
f 61/163/61 108/158/108 104/156/104
f 122/156/122 110/161/110 106/163/106
vt 0.3166770040988922 0.4222379922866821
f 124/164/124 122/163/122 111/161/111
f 77/161/77 111/162/111 96/164/96
vt 0.4273740053176880 0.4376440048217773
f 140/165/140 162/159/162 154/160/154
vt 0.5011730194091797 0.4376440048217773
f 33/160/33 19/166/19 12/165/12
vt 0.3535760045051575 0.4299409985542297
f 107/167/107 134/162/134 94/159/94
vt 0.3535760045051575 0.4376440048217773
f 138/165/138 148/168/148 141/167/141
f 111/159/111 94/165/94 96/167/96
vt 0.3166770040988922 0.4299409985542297
f 4/169/4 2/164/2 19/162/19
f 67/162/67 63/167/63 134/169/134
vt 0.3166770040988922 0.4376440048217773
f 107/170/107 94/169/94 111/167/111
f 146/167/146 139/168/139 140/170/140
vt 0.4273740053176880 0.4530499875545502
f 138/171/138 139/165/139 146/166/146
vt 0.5011730194091797 0.4530499875545502
f 139/166/139 152/172/152 161/171/161
vt 0.3535760045051575 0.4453470110893250
f 147/173/147 153/168/153 141/165/141
vt 0.3535760045051575 0.4530499875545502
f 145/171/145 141/174/141 160/173/160
f 129/165/129 40/171/40 56/173/56
vt 0.3166770040988922 0.4453470110893250
f 145/175/145 160/170/160 152/168/152
f 145/168/145 152/173/152 139/175/139
vt 0.3166770040988922 0.4530499875545502
f 139/176/139 161/175/161 147/173/147
f 24/173/24 14/174/14 5/176/5
vt 0.4273740053176880 0.4684560000896454
f 161/177/161 169/171/169 167/172/167
vt 0.5011730194091797 0.4684560000896454
f 90/172/90 83/178/83 86/177/86
vt 0.3535760045051575 0.4607529938220978
f 147/179/147 161/174/161 153/171/153
vt 0.3535760045051575 0.4684560000896454
f 161/177/161 167/180/167 153/179/153
f 36/171/36 32/177/32 5/179/5
vt 0.3166770040988922 0.4607529938220978
f 114/181/114 120/176/120 125/174/125
f 83/174/83 92/179/92 86/181/86
vt 0.3166770040988922 0.4684560000896454
f 160/182/160 167/181/167 170/179/170
f 146/179/146 140/180/140 154/182/154
vt 0.4273740053176880 0.4848040044307709
f 69/183/69 55/177/55 54/178/54
vt 0.5011730194091797 0.4848040044307709
f 140/178/140 148/184/148 155/183/155
vt 0.3535760045051575 0.4766300022602081
f 137/185/137 162/180/162 159/177/159
vt 0.3535760045051575 0.4848040044307709
f 163/183/163 140/186/140 155/185/155
f 142/177/142 158/183/158 166/185/166
vt 0.3166770040988922 0.4766300022602081
f 45/187/45 42/182/42 89/180/89
f 165/180/165 138/185/138 146/187/146
vt 0.3166770040988922 0.4848040044307709
f 165/188/165 142/187/142 138/185/138
f 165/185/165 149/186/149 142/188/142
vt 0.4273740053176880 0.4992679953575134
f 3/189/3 12/183/12 2/184/2
vt 0.5011730194091797 0.4992679953575134
f 142/184/142 166/190/166 138/189/138
vt 0.3535760045051575 0.4920360147953033
f 165/191/165 157/186/157 149/183/149
vt 0.3535760045051575 0.4992679953575134
f 34/189/34 6/192/6 10/191/10
f 169/183/169 168/189/168 170/191/170
vt 0.3166770040988922 0.4920360147953033
f 152/193/152 160/188/160 168/186/168
f 159/186/159 162/191/162 140/193/140
vt 0.3166770040988922 0.4992679953575134
f 35/194/35 11/193/11 26/191/26
f 156/191/156 143/192/143 148/194/148
vt 0.4273740053176880 0.5161589980125427
f 41/195/41 45/189/45 127/190/127
vt 0.5011730194091797 0.5161589980125427
f 151/190/151 148/196/148 143/195/143
vt 0.3535760045051575 0.5077130198478699
f 46/197/46 132/192/132 63/189/63
vt 0.3535760045051575 0.5161589980125427
f 156/195/156 135/198/135 143/197/143
f 164/189/164 138/195/138 166/197/166
vt 0.3166770040988922 0.5077130198478699
f 164/199/164 166/194/166 135/192/135
f 36/192/36 33/197/33 28/199/28
vt 0.3166770040988922 0.5161589980125427
f 166/200/166 158/199/158 159/197/159
f 94/197/94 97/198/97 81/200/81
vt 0.4273740053176880 0.5319979786872864
f 166/201/166 151/195/151 143/196/143
vt 0.5011730194091797 0.5319979786872864
f 166/196/166 143/202/143 135/201/135
vt 0.3535760045051575 0.5240780115127563
f 142/203/142 149/198/149 158/195/158
vt 0.3535760045051575 0.5319979786872864
f 17/201/17 9/204/9 25/203/25
f 159/195/159 136/201/136 151/203/151
vt 0.3166770040988922 0.5240780115127563
f 36/205/36 7/200/7 32/198/32
f 126/198/126 134/203/134 132/205/132
vt 0.3166770040988922 0.5319979786872864
f 36/206/36 28/205/28 35/203/35
f 36/203/36 35/204/35 27/206/27
vt 0.4273740053176880 0.5478370189666748
f 35/207/35 34/201/34 27/202/27
vt 0.5011730194091797 0.5478370189666748
f 26/202/26 33/208/33 25/207/25
vt 0.3535760045051575 0.5399169921875000
f 27/209/27 34/204/34 18/201/18
vt 0.3535760045051575 0.5478370189666748
f 26/207/26 25/210/25 34/209/34
f 158/201/158 150/207/150 137/209/137
vt 0.3166770040988922 0.5399169921875000
f 26/211/26 19/206/19 33/204/33
f 28/204/28 12/209/12 20/211/20
vt 0.3166770040988922 0.5478370189666748
f 126/212/126 132/211/132 46/209/46
f 35/209/35 20/210/20 11/212/11
# 310 faces, 212 coords texture

# End of File
