mtllib material.mtl
usemtl ??_(9).001
v 0.27498000 -0.10430300 0.14900000
v 0.27494300 -0.10439500 0.15032200
v 0.27483000 -0.10466700 0.15161400
v 0.27464400 -0.10511500 0.15284700
v 0.27439100 -0.10572700 0.15399500
v 0.27407500 -0.10649000 0.15503100
v 0.27370300 -0.10738800 0.15593200
v 0.27328400 -0.10839900 0.15667900
v 0.27282700 -0.10950200 0.15725400
v 0.27234200 -0.11067200 0.15764400
v 0.27184100 -0.11188300 0.15784200
v 0.27133400 -0.11310700 0.15784200
v 0.27083200 -0.11431800 0.15764400
v 0.27034800 -0.11548800 0.15725400
v 0.26989100 -0.11659100 0.15667900
v 0.26947200 -0.11760300 0.15593200
v 0.26910000 -0.11850000 0.15503100
v 0.26878400 -0.11926400 0.15399500
v 0.26853000 -0.11987600 0.15284700
v 0.26834500 -0.12032300 0.15161400
v 0.26823200 -0.12059500 0.15032200
v 0.26819400 -0.12068700 0.14900000
v 0.26823200 -0.12059500 0.14767900
v 0.26834500 -0.12032300 0.14638600
v 0.26853000 -0.11987600 0.14515300
v 0.26878400 -0.11926400 0.14400500
v 0.26910000 -0.11850000 0.14296900
v 0.26947200 -0.11760300 0.14206800
v 0.26989100 -0.11659100 0.14132100
v 0.27034800 -0.11548800 0.14074600
v 0.27083200 -0.11431800 0.14035600
v 0.27133400 -0.11310700 0.14015800
v 0.27184100 -0.11188300 0.14015800
v 0.27234200 -0.11067200 0.14035600
v 0.27282700 -0.10950200 0.14074600
v 0.27328400 -0.10839900 0.14132100
v 0.27370300 -0.10738800 0.14206800
v 0.27407500 -0.10649000 0.14296900
v 0.27439100 -0.10572700 0.14400500
v 0.27464400 -0.10511500 0.14515300
v 0.27483000 -0.10466700 0.14638600
v 0.27494300 -0.10439500 0.14767900
v 0.27158700 -0.11249500 0.14900000
v 0.27328400 -0.10839900 0.14900000
v 0.27328400 -0.10839900 0.14456700
v 0.27413200 -0.10635100 0.14900000
v 0.27413200 -0.10635100 0.14456700
v 0.27328400 -0.10839900 0.15343300
v 0.27413200 -0.10635100 0.15343300
v 0.27158700 -0.11249500 0.15343300
v 0.27243600 -0.11044700 0.14900000
v 0.27243600 -0.11044700 0.15343300
v 0.26989100 -0.11659100 0.14900000
v 0.26989100 -0.11659100 0.15343300
v 0.27073900 -0.11454300 0.14900000
v 0.27073900 -0.11454300 0.15343300
v 0.26904200 -0.11863900 0.14900000
v 0.26904200 -0.11863900 0.15343300
v 0.26989100 -0.11659100 0.14456700
v 0.26904200 -0.11863900 0.14456700
v 0.27158700 -0.11249500 0.14456700
v 0.27073900 -0.11454300 0.14456700
v 0.27243600 -0.11044700 0.14456700
v 0.10430300 -0.27498000 0.14900000
v 0.10439500 -0.27494300 0.14767900
v 0.10466700 -0.27483000 0.14638600
v 0.10511500 -0.27464400 0.14515300
v 0.10572700 -0.27439100 0.14400500
v 0.10649000 -0.27407500 0.14296900
v 0.10738800 -0.27370300 0.14206800
v 0.10839900 -0.27328400 0.14132100
v 0.10950200 -0.27282700 0.14074600
v 0.11067200 -0.27234200 0.14035600
v 0.11188300 -0.27184100 0.14015800
v 0.11310700 -0.27133400 0.14015800
v 0.11431800 -0.27083200 0.14035600
v 0.11548800 -0.27034800 0.14074600
v 0.11659100 -0.26989100 0.14132100
v 0.11760300 -0.26947200 0.14206800
v 0.11850000 -0.26910000 0.14296900
v 0.11926400 -0.26878400 0.14400500
v 0.11987600 -0.26853000 0.14515300
v 0.12032300 -0.26834500 0.14638600
v 0.12059500 -0.26823200 0.14767900
v 0.12068700 -0.26819400 0.14900000
v 0.12059500 -0.26823200 0.15032200
v 0.12032300 -0.26834500 0.15161400
v 0.11987600 -0.26853000 0.15284700
v 0.11926400 -0.26878400 0.15399500
v 0.11850000 -0.26910000 0.15503100
v 0.11760300 -0.26947200 0.15593200
v 0.11659100 -0.26989100 0.15667900
v 0.11548800 -0.27034800 0.15725400
v 0.11431800 -0.27083200 0.15764400
v 0.11310700 -0.27133400 0.15784200
v 0.11188300 -0.27184100 0.15784200
v 0.11067200 -0.27234200 0.15764400
v 0.10950200 -0.27282700 0.15725400
v 0.10839900 -0.27328400 0.15667900
v 0.10738800 -0.27370300 0.15593200
v 0.10649000 -0.27407500 0.15503100
v 0.10572700 -0.27439100 0.15399500
v 0.10511500 -0.27464400 0.15284700
v 0.10466700 -0.27483000 0.15161400
v 0.10439500 -0.27494300 0.15032200
v 0.11249500 -0.27158700 0.14900000
v 0.10839900 -0.27328400 0.14900000
v 0.10839900 -0.27328400 0.14456700
v 0.10635100 -0.27413200 0.14900000
v 0.10635100 -0.27413200 0.14456700
v 0.11249500 -0.27158700 0.14456700
v 0.11044700 -0.27243600 0.14900000
v 0.11044700 -0.27243600 0.14456700
v 0.11659100 -0.26989100 0.14900000
v 0.11659100 -0.26989100 0.14456700
v 0.11454300 -0.27073900 0.14900000
v 0.11454300 -0.27073900 0.14456700
v 0.11863900 -0.26904200 0.14900000
v 0.11863900 -0.26904200 0.14456700
v 0.11659100 -0.26989100 0.15343300
v 0.11863900 -0.26904200 0.15343300
v 0.11249500 -0.27158700 0.15343300
v 0.11454300 -0.27073900 0.15343300
v 0.10839900 -0.27328400 0.15343300
v 0.11044700 -0.27243600 0.15343300
v 0.10635100 -0.27413200 0.15343300
v -0.10430300 -0.27498000 0.14900000
v -0.10439500 -0.27494300 0.15032200
v -0.10466700 -0.27483000 0.15161400
v -0.10511500 -0.27464400 0.15284700
v -0.10572700 -0.27439100 0.15399500
v -0.10649000 -0.27407500 0.15503100
v -0.10738800 -0.27370300 0.15593200
v -0.10839900 -0.27328400 0.15667900
v -0.10950200 -0.27282700 0.15725400
v -0.11067200 -0.27234200 0.15764400
v -0.11188300 -0.27184100 0.15784200
v -0.11310700 -0.27133400 0.15784200
v -0.11431800 -0.27083200 0.15764400
v -0.11548800 -0.27034800 0.15725400
v -0.11659100 -0.26989100 0.15667900
v -0.11760300 -0.26947200 0.15593200
v -0.11850000 -0.26910000 0.15503100
v -0.11926400 -0.26878400 0.15399500
v -0.11987600 -0.26853000 0.15284700
v -0.12032300 -0.26834500 0.15161400
v -0.12059500 -0.26823200 0.15032200
v -0.12068700 -0.26819400 0.14900000
v -0.12059500 -0.26823200 0.14767900
v -0.12032300 -0.26834500 0.14638600
v -0.11987600 -0.26853000 0.14515300
v -0.11926400 -0.26878400 0.14400500
v -0.11850000 -0.26910000 0.14296900
v -0.11760300 -0.26947200 0.14206800
v -0.11659100 -0.26989100 0.14132100
v -0.11548800 -0.27034800 0.14074600
v -0.11431800 -0.27083200 0.14035600
v -0.11310700 -0.27133400 0.14015800
v -0.11188300 -0.27184100 0.14015800
v -0.11067200 -0.27234200 0.14035600
v -0.10950200 -0.27282700 0.14074600
v -0.10839900 -0.27328400 0.14132100
v -0.10738800 -0.27370300 0.14206800
v -0.10649000 -0.27407500 0.14296900
v -0.10572700 -0.27439100 0.14400500
v -0.10511500 -0.27464400 0.14515300
v -0.10466700 -0.27483000 0.14638600
v -0.10439500 -0.27494300 0.14767900
v -0.11249500 -0.27158700 0.14900000
v -0.11249500 -0.27158700 0.14456700
v -0.10839900 -0.27328400 0.14900000
v -0.10839900 -0.27328400 0.14456700
v -0.10839900 -0.27328400 0.14678300
v -0.10635100 -0.27413200 0.14456700
v -0.10635100 -0.27413200 0.14900000
v -0.10635100 -0.27413200 0.14678300
v -0.11249500 -0.27158700 0.15343300
v -0.10839900 -0.27328400 0.15343300
v -0.10839900 -0.27328400 0.15121700
v -0.10635100 -0.27413200 0.15343300
v -0.10635100 -0.27413200 0.15121700
v -0.10839900 -0.27328400 0.15565000
v -0.11249500 -0.27158700 0.15565000
v -0.11044700 -0.27243600 0.15343300
v -0.11044700 -0.27243600 0.15565000
v -0.11659100 -0.26989100 0.14900000
v -0.11659100 -0.26989100 0.15343300
v -0.11659100 -0.26989100 0.15565000
v -0.11454300 -0.27073900 0.15343300
v -0.11454300 -0.27073900 0.15565000
v -0.11863900 -0.26904200 0.15343300
v -0.11863900 -0.26904200 0.14900000
v -0.11659100 -0.26989100 0.15121700
v -0.11863900 -0.26904200 0.15121700
v -0.11659100 -0.26989100 0.14456700
v -0.11863900 -0.26904200 0.14456700
v -0.11659100 -0.26989100 0.14678300
v -0.11863900 -0.26904200 0.14678300
v -0.11659100 -0.26989100 0.14235000
v -0.11249500 -0.27158700 0.14235000
v -0.11454300 -0.27073900 0.14456700
v -0.11454300 -0.27073900 0.14235000
v -0.10839900 -0.27328400 0.14235000
v -0.11044700 -0.27243600 0.14456700
v -0.11044700 -0.27243600 0.14235000
v -0.27498000 -0.10430300 0.14900000
v -0.27494300 -0.10439500 0.14767900
v -0.27483000 -0.10466700 0.14638600
v -0.27464400 -0.10511500 0.14515300
v -0.27439100 -0.10572700 0.14400500
v -0.27407500 -0.10649000 0.14296900
v -0.27370300 -0.10738800 0.14206800
v -0.27328400 -0.10839900 0.14132100
v -0.27282700 -0.10950200 0.14074600
v -0.27234200 -0.11067200 0.14035600
v -0.27184100 -0.11188300 0.14015800
v -0.27133400 -0.11310700 0.14015800
v -0.27083200 -0.11431800 0.14035600
v -0.27034800 -0.11548800 0.14074600
v -0.26989100 -0.11659100 0.14132100
v -0.26947200 -0.11760300 0.14206800
v -0.26910000 -0.11850000 0.14296900
v -0.26878400 -0.11926400 0.14400500
v -0.26853000 -0.11987600 0.14515300
v -0.26834500 -0.12032300 0.14638600
v -0.26823200 -0.12059500 0.14767900
v -0.26819400 -0.12068700 0.14900000
v -0.26823200 -0.12059500 0.15032200
v -0.26834500 -0.12032300 0.15161400
v -0.26853000 -0.11987600 0.15284700
v -0.26878400 -0.11926400 0.15399500
v -0.26910000 -0.11850000 0.15503100
v -0.26947200 -0.11760300 0.15593200
v -0.26989100 -0.11659100 0.15667900
v -0.27034800 -0.11548800 0.15725400
v -0.27083200 -0.11431800 0.15764400
v -0.27133400 -0.11310700 0.15784200
v -0.27184100 -0.11188300 0.15784200
v -0.27234200 -0.11067200 0.15764400
v -0.27282700 -0.10950200 0.15725400
v -0.27328400 -0.10839900 0.15667900
v -0.27370300 -0.10738800 0.15593200
v -0.27407500 -0.10649000 0.15503100
v -0.27439100 -0.10572700 0.15399500
v -0.27464400 -0.10511500 0.15284700
v -0.27483000 -0.10466700 0.15161400
v -0.27494300 -0.10439500 0.15032200
v -0.27158700 -0.11249500 0.14900000
v -0.27328400 -0.10839900 0.14900000
v -0.27328400 -0.10839900 0.14456700
v -0.27413200 -0.10635100 0.14900000
v -0.27413200 -0.10635100 0.14456700
v -0.27158700 -0.11249500 0.14456700
v -0.27243600 -0.11044700 0.14900000
v -0.27243600 -0.11044700 0.14456700
v -0.26989100 -0.11659100 0.14900000
v -0.26989100 -0.11659100 0.14456700
v -0.27073900 -0.11454300 0.14900000
v -0.27073900 -0.11454300 0.14456700
v -0.26904200 -0.11863900 0.14900000
v -0.26904200 -0.11863900 0.14456700
v -0.26989100 -0.11659100 0.15343300
v -0.26904200 -0.11863900 0.15343300
v -0.27158700 -0.11249500 0.15343300
v -0.27073900 -0.11454300 0.15343300
v -0.27328400 -0.10839900 0.15343300
v -0.27243600 -0.11044700 0.15343300
v -0.27413200 -0.10635100 0.15343300
v -0.27498000 0.10430300 0.14900000
v -0.27494300 0.10439500 0.14767800
v -0.27483000 0.10466700 0.14638600
v -0.27464400 0.10511500 0.14515300
v -0.27439100 0.10572700 0.14400500
v -0.27407500 0.10649000 0.14296900
v -0.27370300 0.10738800 0.14206800
v -0.27328400 0.10839900 0.14132100
v -0.27282700 0.10950200 0.14074600
v -0.27234200 0.11067200 0.14035600
v -0.27184100 0.11188300 0.14015800
v -0.27133400 0.11310700 0.14015800
v -0.27083200 0.11431800 0.14035600
v -0.27034800 0.11548800 0.14074600
v -0.26989100 0.11659100 0.14132100
v -0.26947200 0.11760300 0.14206800
v -0.26910000 0.11850000 0.14296900
v -0.26878400 0.11926400 0.14400500
v -0.26853000 0.11987600 0.14515300
v -0.26834500 0.12032300 0.14638600
v -0.26823200 0.12059500 0.14767800
v -0.26819400 0.12068700 0.14900000
v -0.26823200 0.12059500 0.15032200
v -0.26834500 0.12032300 0.15161400
v -0.26853000 0.11987600 0.15284700
v -0.26878400 0.11926400 0.15399500
v -0.26910000 0.11850000 0.15503100
v -0.26947200 0.11760300 0.15593200
v -0.26989100 0.11659100 0.15667900
v -0.27034800 0.11548800 0.15725400
v -0.27083200 0.11431800 0.15764400
v -0.27133400 0.11310700 0.15784200
v -0.27184100 0.11188300 0.15784200
v -0.27234200 0.11067200 0.15764400
v -0.27282700 0.10950200 0.15725400
v -0.27328400 0.10839900 0.15667900
v -0.27370300 0.10738800 0.15593200
v -0.27407500 0.10649000 0.15503100
v -0.27439100 0.10572700 0.15399500
v -0.27464400 0.10511500 0.15284700
v -0.27483000 0.10466700 0.15161400
v -0.27494300 0.10439500 0.15032200
v -0.27158700 0.11249500 0.14900000
v -0.27158700 0.11249500 0.14456700
v -0.27328400 0.10839900 0.14900000
v -0.27328400 0.10839900 0.14456700
v -0.27328400 0.10839900 0.14678300
v -0.27413200 0.10635100 0.14900000
v -0.27413200 0.10635100 0.14456700
v -0.27413200 0.10635100 0.14678300
v -0.27158700 0.11249500 0.15343300
v -0.27328400 0.10839900 0.15343300
v -0.27328400 0.10839900 0.14235000
v -0.27158700 0.11249500 0.14235000
v -0.27243600 0.11044700 0.14456700
v -0.27243600 0.11044700 0.14235000
v -0.26989100 0.11659100 0.14900000
v -0.26989100 0.11659100 0.14456700
v -0.26989100 0.11659100 0.14235000
v -0.27073900 0.11454300 0.14456700
v -0.27073900 0.11454300 0.14235000
v -0.26904200 0.11863900 0.14456700
v -0.26904200 0.11863900 0.14900000
v -0.26989100 0.11659100 0.14678300
v -0.26904200 0.11863900 0.14678300
v -0.26989100 0.11659100 0.15343300
v -0.26904200 0.11863900 0.15343300
v -0.26989100 0.11659100 0.15121700
v -0.26904200 0.11863900 0.15121700
v -0.26989100 0.11659100 0.15565000
v -0.27158700 0.11249500 0.15565000
v -0.27073900 0.11454300 0.15343300
v -0.27073900 0.11454300 0.15565000
v -0.27328400 0.10839900 0.15565000
v -0.27243600 0.11044700 0.15343300
v -0.27243600 0.11044700 0.15565000
v -0.27413200 0.10635100 0.15343300
v -0.27328400 0.10839900 0.15121700
v -0.27413200 0.10635100 0.15121700
v -0.10430300 0.27498000 0.14900000
v -0.10439500 0.27494300 0.14767800
v -0.10466700 0.27483000 0.14638600
v -0.10511500 0.27464400 0.14515300
v -0.10572700 0.27439100 0.14400500
v -0.10649000 0.27407500 0.14296900
v -0.10738800 0.27370300 0.14206800
v -0.10839900 0.27328400 0.14132100
v -0.10950200 0.27282700 0.14074600
v -0.11067200 0.27234200 0.14035600
v -0.11188300 0.27184100 0.14015800
v -0.11310700 0.27133400 0.14015800
v -0.11431800 0.27083200 0.14035600
v -0.11548800 0.27034800 0.14074600
v -0.11659100 0.26989100 0.14132100
v -0.11760300 0.26947200 0.14206800
v -0.11850000 0.26910000 0.14296900
v -0.11926400 0.26878400 0.14400500
v -0.11987600 0.26853000 0.14515300
v -0.12032300 0.26834500 0.14638600
v -0.12059500 0.26823200 0.14767800
v -0.12068700 0.26819400 0.14900000
v -0.12059500 0.26823200 0.15032200
v -0.12032300 0.26834500 0.15161400
v -0.11987600 0.26853000 0.15284700
v -0.11926400 0.26878400 0.15399500
v -0.11850000 0.26910000 0.15503100
v -0.11760300 0.26947200 0.15593200
v -0.11659100 0.26989100 0.15667900
v -0.11548800 0.27034800 0.15725400
v -0.11431800 0.27083200 0.15764400
v -0.11310700 0.27133400 0.15784200
v -0.11188300 0.27184100 0.15784200
v -0.11067200 0.27234200 0.15764400
v -0.10950200 0.27282700 0.15725400
v -0.10839900 0.27328400 0.15667900
v -0.10738800 0.27370300 0.15593200
v -0.10649000 0.27407500 0.15503100
v -0.10572700 0.27439100 0.15399500
v -0.10511500 0.27464400 0.15284700
v -0.10466700 0.27483000 0.15161400
v -0.10439500 0.27494300 0.15032200
v -0.11249500 0.27158700 0.14900000
v -0.10839900 0.27328400 0.14900000
v -0.10839900 0.27328400 0.14456700
v -0.10635100 0.27413200 0.14900000
v -0.10635100 0.27413200 0.14456700
v -0.11249500 0.27158700 0.14456700
v -0.11044700 0.27243600 0.14900000
v -0.11044700 0.27243600 0.14456700
v -0.11659100 0.26989100 0.14900000
v -0.11659100 0.26989100 0.14456700
v -0.11454300 0.27073900 0.14900000
v -0.11454300 0.27073900 0.14456700
v -0.11863900 0.26904200 0.14900000
v -0.11863900 0.26904200 0.14456700
v -0.11659100 0.26989100 0.15343300
v -0.11863900 0.26904200 0.15343300
v -0.11249500 0.27158700 0.15343300
v -0.11454300 0.27073900 0.15343300
v -0.10839900 0.27328400 0.15343300
v -0.11044700 0.27243600 0.15343300
v -0.10635100 0.27413200 0.15343300
v 0.27498000 0.10430300 0.14900000
v 0.27494300 0.10439500 0.14767800
v 0.27483000 0.10466700 0.14638600
v 0.27464400 0.10511500 0.14515300
v 0.27439100 0.10572700 0.14400500
v 0.27407500 0.10649000 0.14296900
v 0.27370300 0.10738800 0.14206800
v 0.27328400 0.10839900 0.14132100
v 0.27282700 0.10950200 0.14074600
v 0.27234200 0.11067200 0.14035600
v 0.27184100 0.11188300 0.14015800
v 0.27133400 0.11310700 0.14015800
v 0.27083200 0.11431800 0.14035600
v 0.27034800 0.11548800 0.14074600
v 0.26989100 0.11659100 0.14132100
v 0.26947200 0.11760300 0.14206800
v 0.26910000 0.11850000 0.14296900
v 0.26878400 0.11926400 0.14400500
v 0.26853000 0.11987600 0.14515300
v 0.26834500 0.12032300 0.14638600
v 0.26823200 0.12059500 0.14767800
v 0.26819400 0.12068700 0.14900000
v 0.26823200 0.12059500 0.15032200
v 0.26834500 0.12032300 0.15161400
v 0.26853000 0.11987600 0.15284700
v 0.26878400 0.11926400 0.15399500
v 0.26910000 0.11850000 0.15503100
v 0.26947200 0.11760300 0.15593200
v 0.26989100 0.11659100 0.15667900
v 0.27034800 0.11548800 0.15725400
v 0.27083200 0.11431800 0.15764400
v 0.27133400 0.11310700 0.15784200
v 0.27184100 0.11188300 0.15784200
v 0.27234200 0.11067200 0.15764400
v 0.27282700 0.10950200 0.15725400
v 0.27328400 0.10839900 0.15667900
v 0.27370300 0.10738800 0.15593200
v 0.27407500 0.10649000 0.15503100
v 0.27439100 0.10572700 0.15399500
v 0.27464400 0.10511500 0.15284700
v 0.27483000 0.10466700 0.15161400
v 0.27494300 0.10439500 0.15032200
v 0.27158700 0.11249500 0.14900000
v 0.27328400 0.10839900 0.14900000
v 0.27328400 0.10839900 0.14456700
v 0.27413200 0.10635100 0.14900000
v 0.27413200 0.10635100 0.14456700
v 0.27158700 0.11249500 0.14456700
v 0.27243600 0.11044700 0.14900000
v 0.27243600 0.11044700 0.14456700
v 0.26989100 0.11659100 0.14900000
v 0.26989100 0.11659100 0.14456700
v 0.27073900 0.11454300 0.14900000
v 0.27073900 0.11454300 0.14456700
v 0.26904200 0.11863900 0.14900000
v 0.26904200 0.11863900 0.14456700
v 0.26989100 0.11659100 0.15343300
v 0.26904200 0.11863900 0.15343300
v 0.27158700 0.11249500 0.15343300
v 0.27073900 0.11454300 0.15343300
v 0.27328400 0.10839900 0.15343300
v 0.27243600 0.11044700 0.15343300
v 0.27413200 0.10635100 0.15343300
v 0.10430300 0.27498000 0.14900000
v 0.10439500 0.27494300 0.15032200
v 0.10466700 0.27483000 0.15161400
v 0.10511500 0.27464400 0.15284700
v 0.10572700 0.27439100 0.15399500
v 0.10649000 0.27407500 0.15503100
v 0.10738800 0.27370300 0.15593200
v 0.10839900 0.27328400 0.15667900
v 0.10950200 0.27282700 0.15725400
v 0.11067200 0.27234200 0.15764400
v 0.11188300 0.27184100 0.15784200
v 0.11310700 0.27133400 0.15784200
v 0.11431800 0.27083200 0.15764400
v 0.11548800 0.27034800 0.15725400
v 0.11659100 0.26989100 0.15667900
v 0.11760300 0.26947200 0.15593200
v 0.11850000 0.26910000 0.15503100
v 0.11926400 0.26878400 0.15399500
v 0.11987600 0.26853000 0.15284700
v 0.12032300 0.26834500 0.15161400
v 0.12059500 0.26823200 0.15032200
v 0.12068700 0.26819400 0.14900000
v 0.12059500 0.26823200 0.14767800
v 0.12032300 0.26834500 0.14638600
v 0.11987600 0.26853000 0.14515300
v 0.11926400 0.26878400 0.14400500
v 0.11850000 0.26910000 0.14296900
v 0.11760300 0.26947200 0.14206800
v 0.11659100 0.26989100 0.14132100
v 0.11548800 0.27034800 0.14074600
v 0.11431800 0.27083200 0.14035600
v 0.11310700 0.27133400 0.14015800
v 0.11188300 0.27184100 0.14015800
v 0.11067200 0.27234200 0.14035600
v 0.10950200 0.27282700 0.14074600
v 0.10839900 0.27328400 0.14132100
v 0.10738800 0.27370300 0.14206800
v 0.10649000 0.27407500 0.14296900
v 0.10572700 0.27439100 0.14400500
v 0.10511500 0.27464400 0.14515300
v 0.10466700 0.27483000 0.14638600
v 0.10439500 0.27494300 0.14767800
v 0.11249500 0.27158700 0.14900000
v 0.11249500 0.27158700 0.14456700
v 0.10839900 0.27328400 0.14900000
v 0.10839900 0.27328400 0.14456700
v 0.10839900 0.27328400 0.14678300
v 0.10635100 0.27413200 0.14456700
v 0.10635100 0.27413200 0.14900000
v 0.10635100 0.27413200 0.14678300
v 0.11249500 0.27158700 0.15343300
v 0.10839900 0.27328400 0.15343300
v 0.10839900 0.27328400 0.15121700
v 0.10635100 0.27413200 0.15343300
v 0.10635100 0.27413200 0.15121700
v 0.10839900 0.27328400 0.15565000
v 0.11249500 0.27158700 0.15565000
v 0.11044700 0.27243600 0.15343300
v 0.11044700 0.27243600 0.15565000
v 0.11659100 0.26989100 0.14900000
v 0.11659100 0.26989100 0.15343300
v 0.11659100 0.26989100 0.15565000
v 0.11454300 0.27073900 0.15343300
v 0.11454300 0.27073900 0.15565000
v 0.11863900 0.26904200 0.15343300
v 0.11863900 0.26904200 0.14900000
v 0.11659100 0.26989100 0.15121700
v 0.11863900 0.26904200 0.15121700
v 0.11659100 0.26989100 0.14456700
v 0.11863900 0.26904200 0.14456700
v 0.11659100 0.26989100 0.14678300
v 0.11863900 0.26904200 0.14678300
v 0.11659100 0.26989100 0.14235000
v 0.11249500 0.27158700 0.14235000
v 0.11454300 0.27073900 0.14456700
v 0.11454300 0.27073900 0.14235000
v 0.10839900 0.27328400 0.14235000
v 0.11044700 0.27243600 0.14456700
v 0.11044700 0.27243600 0.14235000
vn 0.92390000 -0.38270000 -0.00000000
vn 0.92390000 -0.38270000 -0.00000000
vn 0.92390000 -0.38270000 -0.00000000
vn 0.92390000 -0.38270000 -0.00000000
vn 0.92390000 -0.38260000 -0.00000000
vn 0.92390000 -0.38270000 -0.00000000
vn 0.92390000 -0.38270000 -0.00000000
vn 0.92390000 -0.38270000 -0.00000000
vn 0.92390000 -0.38270000 -0.00000000
vn 0.92390000 -0.38270000 -0.00000000
vn 0.92390000 -0.38270000 -0.00000000
vn 0.92390000 -0.38270000 -0.00000000
vn 0.92390000 -0.38270000 -0.00000000
vn 0.92390000 -0.38270000 -0.00000000
vn 0.92390000 -0.38270000 -0.00000000
vn 0.92390000 -0.38270000 -0.00000000
vn 0.92390000 -0.38270000 -0.00000000
vn 0.92390000 -0.38270000 -0.00000000
vn 0.92390000 -0.38270000 -0.00000000
vn 0.92390000 -0.38270000 -0.00000000
vn 0.92390000 -0.38270000 -0.00000000
vn 0.92390000 -0.38270000 -0.00000000
vn 0.92390000 -0.38270000 -0.00000000
vn 0.92390000 -0.38270000 -0.00000000
vn 0.92390000 -0.38270000 -0.00000000
vn 0.92390000 -0.38270000 -0.00000000
vn 0.92390000 -0.38270000 -0.00000000
vn 0.92390000 -0.38270000 -0.00000000
vn 0.92390000 -0.38270000 -0.00000000
vn 0.92390000 -0.38270000 -0.00000000
vn 0.92390000 -0.38270000 -0.00000000
vn 0.92390000 -0.38270000 -0.00000000
vn 0.92390000 -0.38270000 -0.00000000
vn 0.92390000 -0.38270000 -0.00000000
vn 0.92390000 -0.38270000 -0.00000000
vn 0.92390000 -0.38270000 -0.00000000
vn 0.92390000 -0.38270000 -0.00000000
vn 0.92390000 -0.38270000 -0.00000000
vn 0.92390000 -0.38260000 -0.00000000
vn 0.92390000 -0.38270000 -0.00000000
vn 0.92390000 -0.38270000 -0.00000000
vn 0.92390000 -0.38270000 -0.00000000
vn 0.92390000 -0.38270000 -0.00000000
vn 0.92390000 -0.38270000 -0.00000000
vn 0.92390000 -0.38270000 -0.00000000
vn 0.92390000 -0.38270000 -0.00000000
vn 0.92390000 -0.38270000 -0.00000000
vn 0.92390000 -0.38270000 -0.00000000
vn 0.92390000 -0.38270000 -0.00000000
vn 0.92390000 -0.38270000 -0.00000000
vn 0.92390000 -0.38270000 -0.00000000
vn 0.92390000 -0.38270000 -0.00000000
vn 0.92390000 -0.38270000 -0.00000000
vn 0.92390000 -0.38270000 -0.00000000
vn 0.92390000 -0.38270000 -0.00000000
vn 0.92390000 -0.38270000 -0.00000000
vn 0.92390000 -0.38270000 -0.00000000
vn 0.92390000 -0.38270000 -0.00000000
vn 0.92390000 -0.38270000 -0.00000000
vn 0.92390000 -0.38270000 -0.00000000
vn 0.92390000 -0.38270000 -0.00000000
vn 0.92390000 -0.38270000 -0.00000000
vn 0.92390000 -0.38270000 -0.00000000
vn 0.38270000 -0.92390000 -0.00000000
vn 0.38270000 -0.92390000 -0.00000000
vn 0.38270000 -0.92390000 -0.00000000
vn 0.38270000 -0.92390000 -0.00000000
vn 0.38270000 -0.92390000 -0.00000000
vn 0.38270000 -0.92390000 -0.00000000
vn 0.38270000 -0.92390000 -0.00000000
vn 0.38270000 -0.92390000 -0.00000000
vn 0.38270000 -0.92390000 -0.00000000
vn 0.38270000 -0.92390000 -0.00000000
vn 0.38270000 -0.92390000 -0.00000000
vn 0.38270000 -0.92390000 -0.00000000
vn 0.38270000 -0.92390000 -0.00000000
vn 0.38270000 -0.92390000 -0.00000000
vn 0.38270000 -0.92390000 -0.00000000
vn 0.38270000 -0.92390000 -0.00000000
vn 0.38270000 -0.92390000 -0.00000000
vn 0.38270000 -0.92390000 -0.00000000
vn 0.38270000 -0.92390000 -0.00000000
vn 0.38270000 -0.92390000 -0.00000000
vn 0.38270000 -0.92390000 -0.00000000
vn 0.38270000 -0.92390000 -0.00000000
vn 0.38270000 -0.92390000 -0.00000000
vn 0.38270000 -0.92390000 -0.00000000
vn 0.38270000 -0.92390000 -0.00000000
vn 0.38270000 -0.92390000 -0.00000000
vn 0.38270000 -0.92390000 -0.00000000
vn 0.38270000 -0.92390000 -0.00000000
vn 0.38270000 -0.92390000 -0.00000000
vn 0.38270000 -0.92390000 -0.00000000
vn 0.38270000 -0.92390000 -0.00000000
vn 0.38270000 -0.92390000 -0.00000000
vn 0.38270000 -0.92390000 -0.00000000
vn 0.38270000 -0.92390000 -0.00000000
vn 0.38270000 -0.92390000 -0.00000000
vn 0.38270000 -0.92390000 -0.00000000
vn 0.38270000 -0.92390000 -0.00000000
vn 0.38270000 -0.92390000 -0.00000000
vn 0.38270000 -0.92390000 -0.00000000
vn 0.38270000 -0.92390000 -0.00000000
vn 0.38270000 -0.92390000 -0.00000000
vn 0.38270000 -0.92390000 -0.00000000
vn 0.38270000 -0.92390000 -0.00000000
vn 0.38270000 -0.92390000 -0.00000000
vn 0.38270000 -0.92390000 -0.00000000
vn 0.38270000 -0.92390000 -0.00000000
vn 0.38270000 -0.92390000 -0.00000000
vn 0.38270000 -0.92390000 -0.00000000
vn 0.38270000 -0.92390000 -0.00000000
vn 0.38270000 -0.92390000 -0.00000000
vn 0.38270000 -0.92390000 -0.00000000
vn 0.38270000 -0.92390000 -0.00000000
vn 0.38270000 -0.92390000 -0.00000000
vn 0.38270000 -0.92390000 -0.00000000
vn 0.38270000 -0.92390000 -0.00000000
vn 0.38270000 -0.92390000 -0.00000000
vn 0.38270000 -0.92390000 -0.00000000
vn 0.38270000 -0.92390000 -0.00000000
vn 0.38270000 -0.92390000 -0.00000000
vn 0.38270000 -0.92390000 -0.00000000
vn 0.38270000 -0.92390000 -0.00000000
vn 0.38270000 -0.92390000 -0.00000000
vn 0.38270000 -0.92390000 -0.00000000
vn -0.38270000 -0.92390000 -0.00000000
vn -0.38270000 -0.92390000 -0.00000000
vn -0.38270000 -0.92390000 -0.00000000
vn -0.38270000 -0.92390000 -0.00000000
vn -0.38270000 -0.92390000 -0.00000000
vn -0.38270000 -0.92390000 -0.00000000
vn -0.38270000 -0.92390000 0.00010000
vn -0.38270000 -0.92390000 -0.00000000
vn -0.38270000 -0.92390000 -0.00000000
vn -0.38270000 -0.92390000 -0.00000000
vn -0.38270000 -0.92390000 -0.00000000
vn -0.38270000 -0.92390000 -0.00000000
vn -0.38270000 -0.92390000 -0.00000000
vn -0.38270000 -0.92390000 -0.00000000
vn -0.38270000 -0.92390000 -0.00000000
vn -0.38270000 -0.92390000 0.00010000
vn -0.38270000 -0.92390000 -0.00000000
vn -0.38270000 -0.92390000 -0.00000000
vn -0.38270000 -0.92390000 -0.00000000
vn -0.38270000 -0.92390000 -0.00000000
vn -0.38270000 -0.92390000 -0.00000000
vn -0.38270000 -0.92390000 -0.00000000
vn -0.38270000 -0.92390000 -0.00000000
vn -0.38270000 -0.92390000 -0.00000000
vn -0.38270000 -0.92390000 -0.00000000
vn -0.38270000 -0.92390000 -0.00000000
vn -0.38270000 -0.92390000 -0.00000000
vn -0.38270000 -0.92390000 -0.00000000
vn -0.38270000 -0.92390000 -0.00000000
vn -0.38270000 -0.92390000 -0.00000000
vn -0.38270000 -0.92390000 -0.00000000
vn -0.38270000 -0.92390000 -0.00000000
vn -0.38270000 -0.92390000 -0.00000000
vn -0.38270000 -0.92390000 -0.00000000
vn -0.38270000 -0.92390000 -0.00000000
vn -0.38270000 -0.92390000 -0.00000000
vn -0.38270000 -0.92390000 -0.00010000
vn -0.38270000 -0.92390000 -0.00000000
vn -0.38270000 -0.92390000 -0.00000000
vn -0.38270000 -0.92390000 -0.00000000
vn -0.38270000 -0.92390000 -0.00000000
vn -0.38270000 -0.92390000 -0.00000000
vn -0.38270000 -0.92390000 -0.00000000
vn -0.38270000 -0.92390000 -0.00000000
vn -0.38270000 -0.92390000 -0.00000000
vn -0.38270000 -0.92390000 -0.00000000
vn -0.38270000 -0.92390000 -0.00000000
vn -0.38270000 -0.92390000 -0.00000000
vn -0.38270000 -0.92390000 -0.00000000
vn -0.38270000 -0.92390000 -0.00000000
vn -0.38270000 -0.92390000 -0.00000000
vn -0.38270000 -0.92390000 -0.00000000
vn -0.38270000 -0.92390000 -0.00000000
vn -0.38270000 -0.92390000 -0.00000000
vn -0.38270000 -0.92390000 -0.00000000
vn -0.38270000 -0.92390000 -0.00000000
vn -0.38270000 -0.92390000 -0.00000000
vn -0.38270000 -0.92390000 -0.00000000
vn -0.38270000 -0.92390000 -0.00000000
vn -0.38270000 -0.92390000 -0.00000000
vn -0.38270000 -0.92390000 -0.00000000
vn -0.38270000 -0.92390000 -0.00000000
vn -0.38270000 -0.92390000 -0.00000000
vn -0.38270000 -0.92390000 -0.00000000
vn -0.38270000 -0.92390000 -0.00000000
vn -0.38270000 -0.92390000 -0.00000000
vn -0.38270000 -0.92390000 -0.00000000
vn -0.38270000 -0.92390000 -0.00000000
vn -0.38270000 -0.92390000 -0.00000000
vn -0.38270000 -0.92390000 -0.00000000
vn -0.38270000 -0.92390000 -0.00000000
vn -0.38270000 -0.92390000 -0.00000000
vn -0.38270000 -0.92390000 -0.00000000
vn -0.38270000 -0.92390000 -0.00000000
vn -0.38270000 -0.92390000 -0.00000000
vn -0.38270000 -0.92390000 -0.00000000
vn -0.38270000 -0.92390000 -0.00000000
vn -0.38270000 -0.92390000 -0.00000000
vn -0.38270000 -0.92390000 -0.00000000
vn -0.92390000 -0.38270000 -0.00000000
vn -0.92390000 -0.38270000 -0.00000000
vn -0.92390000 -0.38270000 -0.00000000
vn -0.92390000 -0.38270000 -0.00000000
vn -0.92390000 -0.38260000 -0.00000000
vn -0.92390000 -0.38270000 -0.00000000
vn -0.92390000 -0.38270000 -0.00000000
vn -0.92390000 -0.38270000 -0.00000000
vn -0.92390000 -0.38270000 -0.00000000
vn -0.92390000 -0.38270000 -0.00000000
vn -0.92390000 -0.38270000 -0.00000000
vn -0.92390000 -0.38270000 -0.00000000
vn -0.92390000 -0.38270000 -0.00000000
vn -0.92390000 -0.38270000 -0.00000000
vn -0.92390000 -0.38270000 -0.00000000
vn -0.92390000 -0.38270000 -0.00000000
vn -0.92390000 -0.38270000 -0.00000000
vn -0.92390000 -0.38270000 -0.00000000
vn -0.92390000 -0.38270000 -0.00000000
vn -0.92390000 -0.38270000 -0.00000000
vn -0.92390000 -0.38270000 -0.00000000
vn -0.92390000 -0.38270000 -0.00000000
vn -0.92390000 -0.38270000 -0.00000000
vn -0.92390000 -0.38270000 -0.00000000
vn -0.92390000 -0.38270000 -0.00000000
vn -0.92390000 -0.38270000 -0.00000000
vn -0.92390000 -0.38270000 -0.00000000
vn -0.92390000 -0.38270000 -0.00000000
vn -0.92390000 -0.38270000 -0.00000000
vn -0.92390000 -0.38270000 -0.00000000
vn -0.92390000 -0.38270000 -0.00000000
vn -0.92390000 -0.38270000 -0.00000000
vn -0.92390000 -0.38270000 -0.00000000
vn -0.92390000 -0.38270000 -0.00000000
vn -0.92390000 -0.38270000 -0.00000000
vn -0.92390000 -0.38270000 -0.00000000
vn -0.92390000 -0.38270000 -0.00000000
vn -0.92390000 -0.38270000 -0.00000000
vn -0.92390000 -0.38260000 -0.00000000
vn -0.92390000 -0.38270000 -0.00000000
vn -0.92390000 -0.38270000 -0.00000000
vn -0.92390000 -0.38270000 -0.00000000
vn -0.92390000 -0.38270000 -0.00000000
vn -0.92390000 -0.38270000 -0.00000000
vn -0.92390000 -0.38270000 -0.00000000
vn -0.92390000 -0.38270000 -0.00000000
vn -0.92390000 -0.38270000 -0.00000000
vn -0.92390000 -0.38270000 -0.00000000
vn -0.92390000 -0.38270000 -0.00000000
vn -0.92390000 -0.38270000 -0.00000000
vn -0.92390000 -0.38270000 -0.00000000
vn -0.92390000 -0.38270000 -0.00000000
vn -0.92390000 -0.38270000 -0.00000000
vn -0.92390000 -0.38270000 -0.00000000
vn -0.92390000 -0.38270000 -0.00000000
vn -0.92390000 -0.38270000 -0.00000000
vn -0.92390000 -0.38270000 -0.00000000
vn -0.92390000 -0.38270000 -0.00000000
vn -0.92390000 -0.38270000 -0.00000000
vn -0.92390000 -0.38270000 -0.00000000
vn -0.92390000 -0.38270000 -0.00000000
vn -0.92390000 -0.38270000 -0.00000000
vn -0.92390000 -0.38270000 -0.00000000
vn -0.92390000 0.38270000 -0.00000000
vn -0.92390000 0.38270000 -0.00000000
vn -0.92390000 0.38270000 -0.00000000
vn -0.92390000 0.38270000 -0.00000000
vn -0.92390000 0.38260000 -0.00000000
vn -0.92390000 0.38270000 -0.00000000
vn -0.92390000 0.38270000 -0.00000000
vn -0.92390000 0.38270000 -0.00000000
vn -0.92390000 0.38270000 -0.00000000
vn -0.92390000 0.38270000 -0.00000000
vn -0.92390000 0.38270000 -0.00000000
vn -0.92390000 0.38270000 -0.00000000
vn -0.92390000 0.38270000 -0.00000000
vn -0.92390000 0.38270000 -0.00000000
vn -0.92390000 0.38270000 -0.00000000
vn -0.92390000 0.38270000 -0.00000000
vn -0.92390000 0.38270000 -0.00000000
vn -0.92390000 0.38270000 -0.00000000
vn -0.92390000 0.38270000 -0.00000000
vn -0.92390000 0.38270000 -0.00000000
vn -0.92390000 0.38270000 -0.00000000
vn -0.92390000 0.38270000 -0.00000000
vn -0.92390000 0.38270000 -0.00000000
vn -0.92390000 0.38270000 -0.00000000
vn -0.92390000 0.38270000 -0.00000000
vn -0.92390000 0.38270000 -0.00000000
vn -0.92390000 0.38270000 -0.00000000
vn -0.92390000 0.38270000 -0.00000000
vn -0.92390000 0.38270000 -0.00000000
vn -0.92390000 0.38270000 -0.00000000
vn -0.92390000 0.38270000 -0.00000000
vn -0.92390000 0.38270000 -0.00000000
vn -0.92390000 0.38270000 -0.00000000
vn -0.92390000 0.38270000 -0.00000000
vn -0.92390000 0.38270000 -0.00000000
vn -0.92390000 0.38270000 -0.00000000
vn -0.92390000 0.38270000 -0.00000000
vn -0.92390000 0.38270000 -0.00000000
vn -0.92390000 0.38260000 -0.00000000
vn -0.92390000 0.38270000 -0.00000000
vn -0.92390000 0.38270000 -0.00000000
vn -0.92390000 0.38270000 -0.00000000
vn -0.92390000 0.38270000 -0.00000000
vn -0.92390000 0.38270000 -0.00000000
vn -0.92390000 0.38270000 -0.00000000
vn -0.92390000 0.38270000 -0.00000000
vn -0.92390000 0.38270000 -0.00000000
vn -0.92390000 0.38270000 -0.00000000
vn -0.92390000 0.38270000 -0.00000000
vn -0.92390000 0.38270000 -0.00000000
vn -0.92390000 0.38270000 -0.00000000
vn -0.92390000 0.38270000 -0.00000000
vn -0.92390000 0.38270000 -0.00000000
vn -0.92390000 0.38270000 -0.00000000
vn -0.92390000 0.38270000 -0.00000000
vn -0.92390000 0.38270000 -0.00000000
vn -0.92390000 0.38270000 -0.00000000
vn -0.92390000 0.38270000 -0.00000000
vn -0.92390000 0.38270000 -0.00000000
vn -0.92390000 0.38270000 -0.00000000
vn -0.92390000 0.38270000 -0.00000000
vn -0.92390000 0.38270000 -0.00000000
vn -0.92390000 0.38270000 -0.00000000
vn -0.92390000 0.38270000 -0.00000000
vn -0.92390000 0.38270000 -0.00000000
vn -0.92390000 0.38270000 -0.00000000
vn -0.92390000 0.38270000 -0.00000000
vn -0.92390000 0.38270000 -0.00000000
vn -0.92390000 0.38270000 -0.00000000
vn -0.92390000 0.38270000 -0.00000000
vn -0.92390000 0.38270000 -0.00000000
vn -0.92390000 0.38270000 -0.00000000
vn -0.92390000 0.38270000 -0.00000000
vn -0.92390000 0.38270000 -0.00000000
vn -0.92390000 0.38270000 -0.00000000
vn -0.92390000 0.38270000 -0.00000000
vn -0.92390000 0.38270000 -0.00000000
vn -0.92390000 0.38270000 -0.00000000
vn -0.92390000 0.38270000 -0.00000000
vn -0.38270000 0.92390000 -0.00000000
vn -0.38270000 0.92390000 -0.00000000
vn -0.38270000 0.92390000 -0.00000000
vn -0.38270000 0.92390000 -0.00000000
vn -0.38270000 0.92390000 -0.00000000
vn -0.38270000 0.92390000 -0.00000000
vn -0.38270000 0.92390000 -0.00000000
vn -0.38270000 0.92390000 -0.00000000
vn -0.38270000 0.92390000 -0.00000000
vn -0.38270000 0.92390000 -0.00000000
vn -0.38270000 0.92390000 -0.00000000
vn -0.38270000 0.92390000 -0.00000000
vn -0.38270000 0.92390000 -0.00000000
vn -0.38270000 0.92390000 -0.00000000
vn -0.38270000 0.92390000 -0.00000000
vn -0.38270000 0.92390000 -0.00000000
vn -0.38270000 0.92390000 -0.00000000
vn -0.38270000 0.92390000 -0.00000000
vn -0.38270000 0.92390000 -0.00000000
vn -0.38270000 0.92390000 -0.00000000
vn -0.38270000 0.92390000 -0.00000000
vn -0.38270000 0.92390000 -0.00000000
vn -0.38270000 0.92390000 -0.00000000
vn -0.38270000 0.92390000 -0.00000000
vn -0.38270000 0.92390000 -0.00000000
vn -0.38270000 0.92390000 -0.00000000
vn -0.38270000 0.92390000 -0.00000000
vn -0.38270000 0.92390000 -0.00000000
vn -0.38270000 0.92390000 -0.00000000
vn -0.38270000 0.92390000 -0.00000000
vn -0.38270000 0.92390000 -0.00000000
vn -0.38270000 0.92390000 -0.00000000
vn -0.38270000 0.92390000 -0.00000000
vn -0.38270000 0.92390000 -0.00000000
vn -0.38270000 0.92390000 -0.00000000
vn -0.38270000 0.92390000 -0.00000000
vn -0.38270000 0.92390000 -0.00000000
vn -0.38270000 0.92390000 -0.00000000
vn -0.38270000 0.92390000 -0.00000000
vn -0.38270000 0.92390000 -0.00000000
vn -0.38270000 0.92390000 -0.00000000
vn -0.38270000 0.92390000 -0.00000000
vn -0.38270000 0.92390000 -0.00000000
vn -0.38270000 0.92390000 -0.00000000
vn -0.38270000 0.92390000 -0.00000000
vn -0.38270000 0.92390000 -0.00000000
vn -0.38270000 0.92390000 -0.00000000
vn -0.38270000 0.92390000 -0.00000000
vn -0.38270000 0.92390000 -0.00000000
vn -0.38270000 0.92390000 -0.00000000
vn -0.38270000 0.92390000 -0.00000000
vn -0.38270000 0.92390000 -0.00000000
vn -0.38270000 0.92390000 -0.00000000
vn -0.38270000 0.92390000 -0.00000000
vn -0.38270000 0.92390000 -0.00000000
vn -0.38270000 0.92390000 -0.00000000
vn -0.38270000 0.92390000 -0.00000000
vn -0.38270000 0.92390000 -0.00000000
vn -0.38270000 0.92390000 -0.00000000
vn -0.38270000 0.92390000 -0.00000000
vn -0.38270000 0.92390000 -0.00000000
vn -0.38270000 0.92390000 -0.00000000
vn -0.38270000 0.92390000 -0.00000000
vn 0.92390000 0.38270000 -0.00000000
vn 0.92390000 0.38270000 -0.00000000
vn 0.92390000 0.38270000 -0.00000000
vn 0.92390000 0.38270000 -0.00000000
vn 0.92390000 0.38260000 -0.00000000
vn 0.92390000 0.38270000 -0.00000000
vn 0.92390000 0.38270000 -0.00000000
vn 0.92390000 0.38270000 -0.00000000
vn 0.92390000 0.38270000 -0.00000000
vn 0.92390000 0.38270000 -0.00000000
vn 0.92390000 0.38270000 -0.00000000
vn 0.92390000 0.38270000 -0.00000000
vn 0.92390000 0.38270000 -0.00000000
vn 0.92390000 0.38270000 -0.00000000
vn 0.92390000 0.38270000 -0.00000000
vn 0.92390000 0.38270000 -0.00000000
vn 0.92390000 0.38270000 -0.00000000
vn 0.92390000 0.38270000 -0.00000000
vn 0.92390000 0.38270000 -0.00000000
vn 0.92390000 0.38270000 -0.00000000
vn 0.92390000 0.38270000 -0.00000000
vn 0.92390000 0.38270000 -0.00000000
vn 0.92390000 0.38270000 -0.00000000
vn 0.92390000 0.38270000 -0.00000000
vn 0.92390000 0.38270000 -0.00000000
vn 0.92390000 0.38270000 -0.00000000
vn 0.92390000 0.38270000 -0.00000000
vn 0.92390000 0.38270000 -0.00000000
vn 0.92390000 0.38270000 -0.00000000
vn 0.92390000 0.38270000 -0.00000000
vn 0.92390000 0.38270000 -0.00000000
vn 0.92390000 0.38270000 -0.00000000
vn 0.92390000 0.38270000 -0.00000000
vn 0.92390000 0.38270000 -0.00000000
vn 0.92390000 0.38270000 -0.00000000
vn 0.92390000 0.38270000 -0.00000000
vn 0.92390000 0.38270000 -0.00000000
vn 0.92390000 0.38270000 -0.00000000
vn 0.92390000 0.38260000 -0.00000000
vn 0.92390000 0.38270000 -0.00000000
vn 0.92390000 0.38270000 -0.00000000
vn 0.92390000 0.38270000 -0.00000000
vn 0.92390000 0.38270000 -0.00000000
vn 0.92390000 0.38270000 -0.00000000
vn 0.92390000 0.38270000 -0.00000000
vn 0.92390000 0.38270000 -0.00000000
vn 0.92390000 0.38270000 -0.00000000
vn 0.92390000 0.38270000 -0.00000000
vn 0.92390000 0.38270000 -0.00000000
vn 0.92390000 0.38270000 -0.00000000
vn 0.92390000 0.38270000 -0.00000000
vn 0.92390000 0.38270000 -0.00000000
vn 0.92390000 0.38270000 -0.00000000
vn 0.92390000 0.38270000 -0.00000000
vn 0.92390000 0.38270000 -0.00000000
vn 0.92390000 0.38270000 -0.00000000
vn 0.92390000 0.38270000 -0.00000000
vn 0.92390000 0.38270000 -0.00000000
vn 0.92390000 0.38270000 -0.00000000
vn 0.92390000 0.38270000 -0.00000000
vn 0.92390000 0.38270000 -0.00000000
vn 0.92390000 0.38270000 -0.00000000
vn 0.92390000 0.38270000 -0.00000000
vn 0.38270000 0.92390000 -0.00000000
vn 0.38270000 0.92390000 -0.00000000
vn 0.38270000 0.92390000 -0.00000000
vn 0.38270000 0.92390000 -0.00000000
vn 0.38270000 0.92390000 -0.00000000
vn 0.38270000 0.92390000 -0.00000000
vn 0.38270000 0.92390000 0.00010000
vn 0.38270000 0.92390000 -0.00000000
vn 0.38270000 0.92390000 -0.00000000
vn 0.38270000 0.92390000 -0.00000000
vn 0.38270000 0.92390000 -0.00000000
vn 0.38270000 0.92390000 -0.00000000
vn 0.38270000 0.92390000 -0.00000000
vn 0.38270000 0.92390000 -0.00000000
vn 0.38270000 0.92390000 -0.00000000
vn 0.38270000 0.92390000 0.00010000
vn 0.38270000 0.92390000 -0.00000000
vn 0.38270000 0.92390000 -0.00000000
vn 0.38270000 0.92390000 -0.00000000
vn 0.38270000 0.92390000 -0.00000000
vn 0.38270000 0.92390000 -0.00000000
vn 0.38270000 0.92390000 -0.00000000
vn 0.38270000 0.92390000 -0.00000000
vn 0.38270000 0.92390000 -0.00000000
vn 0.38270000 0.92390000 -0.00000000
vn 0.38270000 0.92390000 -0.00000000
vn 0.38270000 0.92390000 -0.00000000
vn 0.38270000 0.92390000 -0.00000000
vn 0.38270000 0.92390000 -0.00000000
vn 0.38270000 0.92390000 -0.00000000
vn 0.38270000 0.92390000 -0.00000000
vn 0.38270000 0.92390000 -0.00000000
vn 0.38270000 0.92390000 -0.00000000
vn 0.38270000 0.92390000 -0.00000000
vn 0.38270000 0.92390000 -0.00000000
vn 0.38270000 0.92390000 -0.00000000
vn 0.38270000 0.92390000 -0.00010000
vn 0.38270000 0.92390000 -0.00000000
vn 0.38270000 0.92390000 -0.00000000
vn 0.38270000 0.92390000 -0.00000000
vn 0.38270000 0.92390000 -0.00000000
vn 0.38270000 0.92390000 -0.00000000
vn 0.38270000 0.92390000 -0.00000000
vn 0.38270000 0.92390000 -0.00000000
vn 0.38270000 0.92390000 -0.00000000
vn 0.38270000 0.92390000 -0.00000000
vn 0.38270000 0.92390000 -0.00000000
vn 0.38270000 0.92390000 -0.00000000
vn 0.38270000 0.92390000 -0.00000000
vn 0.38270000 0.92390000 -0.00000000
vn 0.38270000 0.92390000 -0.00000000
vn 0.38270000 0.92390000 -0.00000000
vn 0.38270000 0.92390000 -0.00000000
vn 0.38270000 0.92390000 -0.00000000
vn 0.38270000 0.92390000 -0.00000000
vn 0.38270000 0.92390000 -0.00000000
vn 0.38270000 0.92390000 -0.00000000
vn 0.38270000 0.92390000 -0.00000000
vn 0.38270000 0.92390000 -0.00000000
vn 0.38270000 0.92390000 -0.00000000
vn 0.38270000 0.92390000 -0.00000000
vn 0.38270000 0.92390000 -0.00000000
vn 0.38270000 0.92390000 -0.00000000
vn 0.38270000 0.92390000 -0.00000000
vn 0.38270000 0.92390000 -0.00000000
vn 0.38270000 0.92390000 -0.00000000
vn 0.38270000 0.92390000 -0.00000000
vn 0.38270000 0.92390000 -0.00000000
vn 0.38270000 0.92390000 -0.00000000
vn 0.38270000 0.92390000 -0.00000000
vn 0.38270000 0.92390000 -0.00000000
vn 0.38270000 0.92390000 -0.00000000
vn 0.38270000 0.92390000 -0.00000000
vn 0.38270000 0.92390000 -0.00000000
vn 0.38270000 0.92390000 -0.00000000
vn 0.38270000 0.92390000 -0.00000000
vn 0.38270000 0.92390000 -0.00000000
vn 0.38270000 0.92390000 -0.00000000
vn 0.38270000 0.92390000 -0.00000000
vt 0.00000000 0.50000000
vt 0.00558500 0.42527000
vt 0.02221400 0.35220900
vt 0.04951600 0.28245000
vt 0.08688100 0.21755000
vt 0.13347400 0.15896000
vt 0.18825500 0.10798800
vt 0.25000000 0.06577300
vt 0.31732900 0.03325800
vt 0.38874000 0.01116900
vt 0.46263500 0.00000000
vt 0.53736500 0.00000000
vt 0.61126000 0.01116900
vt 0.68267100 0.03325800
vt 0.75000000 0.06577300
vt 0.81174500 0.10798800
vt 0.86652600 0.15896000
vt 0.91311900 0.21755000
vt 0.95048400 0.28245000
vt 0.97778600 0.35220900
vt 0.99441500 0.42527000
vt 1.00000000 0.50000000
vt 0.99441500 0.57473000
vt 0.97778600 0.64779100
vt 0.95048400 0.71755000
vt 0.91311900 0.78245000
vt 0.86652600 0.84104000
vt 0.81174500 0.89201200
vt 0.75000000 0.93422700
vt 0.68267100 0.96674200
vt 0.61126000 0.98883100
vt 0.53736500 1.00000000
vt 0.46263500 1.00000000
vt 0.38874000 0.98883100
vt 0.31732900 0.96674200
vt 0.25000000 0.93422700
vt 0.18825500 0.89201200
vt 0.13347400 0.84104000
vt 0.08688100 0.78245000
vt 0.04951600 0.71755000
vt 0.02221400 0.64779100
vt 0.00558500 0.57473000
vt 0.50000000 0.50000000
vt 0.25000000 0.50000000
vt 0.25000000 0.75070100
vt 0.12500000 0.50000000
vt 0.12500000 0.75070100
vt 0.25000000 0.24929900
vt 0.12500000 0.24929900
vt 0.50000000 0.24929900
vt 0.37500000 0.50000000
vt 0.37500000 0.24929900
vt 0.75000000 0.50000000
vt 0.75000000 0.24929900
vt 0.62500000 0.50000000
vt 0.62500000 0.24929900
vt 0.87500000 0.50000000
vt 0.87500000 0.24929900
vt 0.75000000 0.75070100
vt 0.87500000 0.75070100
vt 0.50000000 0.75070100
vt 0.62500000 0.75070100
vt 0.37500000 0.75070100
vt 0.00000000 0.50000000
vt 0.00558500 0.42527000
vt 0.02221400 0.35220900
vt 0.04951600 0.28245000
vt 0.08688100 0.21755000
vt 0.13347400 0.15896000
vt 0.18825500 0.10798800
vt 0.25000000 0.06577300
vt 0.31732900 0.03325800
vt 0.38874000 0.01116900
vt 0.46263500 0.00000000
vt 0.53736500 0.00000000
vt 0.61126000 0.01116900
vt 0.68267100 0.03325800
vt 0.75000000 0.06577300
vt 0.81174500 0.10798800
vt 0.86652600 0.15896000
vt 0.91311900 0.21755000
vt 0.95048400 0.28245000
vt 0.97778600 0.35220900
vt 0.99441500 0.42527000
vt 1.00000000 0.50000000
vt 0.99441500 0.57473000
vt 0.97778600 0.64779100
vt 0.95048400 0.71755000
vt 0.91311900 0.78245000
vt 0.86652600 0.84104000
vt 0.81174500 0.89201200
vt 0.75000000 0.93422700
vt 0.68267100 0.96674200
vt 0.61126000 0.98883100
vt 0.53736500 1.00000000
vt 0.46263500 1.00000000
vt 0.38874000 0.98883100
vt 0.31732900 0.96674200
vt 0.25000000 0.93422700
vt 0.18825500 0.89201200
vt 0.13347400 0.84104000
vt 0.08688100 0.78245000
vt 0.04951600 0.71755000
vt 0.02221400 0.64779100
vt 0.00558500 0.57473000
vt 0.50000000 0.50000000
vt 0.25000000 0.50000000
vt 0.25000000 0.24929900
vt 0.12500000 0.50000000
vt 0.12500000 0.24929900
vt 0.50000000 0.24929900
vt 0.37500000 0.50000000
vt 0.37500000 0.24929900
vt 0.75000000 0.50000000
vt 0.75000000 0.24929900
vt 0.62500000 0.50000000
vt 0.62500000 0.24929900
vt 0.87500000 0.50000000
vt 0.87500000 0.24929900
vt 0.75000000 0.75070100
vt 0.87500000 0.75070100
vt 0.50000000 0.75070100
vt 0.62500000 0.75070100
vt 0.25000000 0.75070100
vt 0.37500000 0.75070100
vt 0.12500000 0.75070100
vt 0.00000000 0.50000000
vt 0.00558500 0.42527000
vt 0.02221400 0.35220900
vt 0.04951600 0.28245000
vt 0.08688100 0.21755000
vt 0.13347400 0.15896000
vt 0.18825500 0.10798800
vt 0.25000000 0.06577300
vt 0.31732900 0.03325800
vt 0.38874000 0.01116900
vt 0.46263500 0.00000000
vt 0.53736500 0.00000000
vt 0.61126000 0.01116900
vt 0.68267100 0.03325800
vt 0.75000000 0.06577300
vt 0.81174500 0.10798800
vt 0.86652600 0.15896000
vt 0.91311900 0.21755000
vt 0.95048400 0.28245000
vt 0.97778600 0.35220900
vt 0.99441500 0.42527000
vt 1.00000000 0.50000000
vt 0.99441500 0.57473000
vt 0.97778600 0.64779100
vt 0.95048400 0.71755000
vt 0.91311900 0.78245000
vt 0.86652600 0.84104000
vt 0.81174500 0.89201200
vt 0.75000000 0.93422700
vt 0.68267100 0.96674200
vt 0.61126000 0.98883100
vt 0.53736500 1.00000000
vt 0.46263500 1.00000000
vt 0.38874000 0.98883100
vt 0.31732900 0.96674200
vt 0.25000000 0.93422700
vt 0.18825500 0.89201200
vt 0.13347400 0.84104000
vt 0.08688100 0.78245000
vt 0.04951600 0.71755000
vt 0.02221400 0.64779100
vt 0.00558500 0.57473000
vt 0.50000000 0.50000000
vt 0.50000000 0.75070100
vt 0.25000000 0.50000000
vt 0.25000000 0.75070100
vt 0.25000000 0.62535100
vt 0.12500000 0.75070100
vt 0.12500000 0.50000000
vt 0.12500000 0.62535100
vt 0.50000000 0.24929900
vt 0.25000000 0.24929900
vt 0.25000000 0.37464900
vt 0.12500000 0.24929900
vt 0.12500000 0.37464900
vt 0.25000000 0.12394800
vt 0.50000000 0.12394800
vt 0.37500000 0.24929900
vt 0.37500000 0.12394800
vt 0.75000000 0.50000000
vt 0.75000000 0.24929900
vt 0.75000000 0.12394800
vt 0.62500000 0.24929900
vt 0.62500000 0.12394800
vt 0.87500000 0.24929900
vt 0.87500000 0.50000000
vt 0.75000000 0.37464900
vt 0.87500000 0.37464900
vt 0.75000000 0.75070100
vt 0.87500000 0.75070100
vt 0.75000000 0.62535100
vt 0.87500000 0.62535100
vt 0.75000000 0.87605200
vt 0.50000000 0.87605200
vt 0.62500000 0.75070100
vt 0.62500000 0.87605200
vt 0.25000000 0.87605200
vt 0.37500000 0.75070100
vt 0.37500000 0.87605200
vt 0.00000000 0.50000000
vt 0.00558500 0.42527000
vt 0.02221400 0.35220900
vt 0.04951600 0.28245000
vt 0.08688100 0.21755000
vt 0.13347400 0.15896000
vt 0.18825500 0.10798800
vt 0.25000000 0.06577300
vt 0.31732900 0.03325800
vt 0.38874000 0.01116900
vt 0.46263500 0.00000000
vt 0.53736500 0.00000000
vt 0.61126000 0.01116900
vt 0.68267100 0.03325800
vt 0.75000000 0.06577300
vt 0.81174500 0.10798800
vt 0.86652600 0.15896000
vt 0.91311900 0.21755000
vt 0.95048400 0.28245000
vt 0.97778600 0.35220900
vt 0.99441500 0.42527000
vt 1.00000000 0.50000000
vt 0.99441500 0.57473000
vt 0.97778600 0.64779100
vt 0.95048400 0.71755000
vt 0.91311900 0.78245000
vt 0.86652600 0.84104000
vt 0.81174500 0.89201200
vt 0.75000000 0.93422700
vt 0.68267100 0.96674200
vt 0.61126000 0.98883100
vt 0.53736500 1.00000000
vt 0.46263500 1.00000000
vt 0.38874000 0.98883100
vt 0.31732900 0.96674200
vt 0.25000000 0.93422700
vt 0.18825500 0.89201200
vt 0.13347400 0.84104000
vt 0.08688100 0.78245000
vt 0.04951600 0.71755000
vt 0.02221400 0.64779100
vt 0.00558500 0.57473000
vt 0.50000000 0.50000000
vt 0.25000000 0.50000000
vt 0.25000000 0.24929900
vt 0.12500000 0.50000000
vt 0.12500000 0.24929900
vt 0.50000000 0.24929900
vt 0.37500000 0.50000000
vt 0.37500000 0.24929900
vt 0.75000000 0.50000000
vt 0.75000000 0.24929900
vt 0.62500000 0.50000000
vt 0.62500000 0.24929900
vt 0.87500000 0.50000000
vt 0.87500000 0.24929900
vt 0.75000000 0.75070100
vt 0.87500000 0.75070100
vt 0.50000000 0.75070100
vt 0.62500000 0.75070100
vt 0.25000000 0.75070100
vt 0.37500000 0.75070100
vt 0.12500000 0.75070100
vt 0.00000000 0.50000000
vt 0.00558500 0.42527000
vt 0.02221400 0.35220900
vt 0.04951600 0.28245000
vt 0.08688100 0.21755000
vt 0.13347400 0.15896000
vt 0.18825500 0.10798800
vt 0.25000000 0.06577300
vt 0.31732900 0.03325800
vt 0.38874000 0.01116900
vt 0.46263500 0.00000000
vt 0.53736500 0.00000000
vt 0.61126000 0.01116900
vt 0.68267100 0.03325800
vt 0.75000000 0.06577300
vt 0.81174500 0.10798800
vt 0.86652600 0.15896000
vt 0.91311900 0.21755000
vt 0.95048400 0.28245000
vt 0.97778600 0.35220900
vt 0.99441500 0.42527000
vt 1.00000000 0.50000000
vt 0.99441500 0.57473000
vt 0.97778600 0.64779100
vt 0.95048400 0.71755000
vt 0.91311900 0.78245000
vt 0.86652600 0.84104000
vt 0.81174500 0.89201200
vt 0.75000000 0.93422700
vt 0.68267100 0.96674200
vt 0.61126000 0.98883100
vt 0.53736500 1.00000000
vt 0.46263500 1.00000000
vt 0.38874000 0.98883100
vt 0.31732900 0.96674200
vt 0.25000000 0.93422700
vt 0.18825500 0.89201200
vt 0.13347400 0.84104000
vt 0.08688100 0.78245000
vt 0.04951600 0.71755000
vt 0.02221400 0.64779100
vt 0.00558500 0.57473000
vt 0.50000000 0.50000000
vt 0.50000000 0.24929900
vt 0.25000000 0.50000000
vt 0.25000000 0.24929900
vt 0.25000000 0.37464900
vt 0.12500000 0.50000000
vt 0.12500000 0.24929900
vt 0.12500000 0.37464900
vt 0.50000000 0.75070100
vt 0.25000000 0.75070100
vt 0.25000000 0.12394800
vt 0.50000000 0.12394800
vt 0.37500000 0.24929900
vt 0.37500000 0.12394800
vt 0.75000000 0.50000000
vt 0.75000000 0.24929900
vt 0.75000000 0.12394800
vt 0.62500000 0.24929900
vt 0.62500000 0.12394800
vt 0.87500000 0.24929900
vt 0.87500000 0.50000000
vt 0.75000000 0.37464900
vt 0.87500000 0.37464900
vt 0.75000000 0.75070100
vt 0.87500000 0.75070100
vt 0.75000000 0.62535100
vt 0.87500000 0.62535100
vt 0.75000000 0.87605200
vt 0.50000000 0.87605200
vt 0.62500000 0.75070100
vt 0.62500000 0.87605200
vt 0.25000000 0.87605200
vt 0.37500000 0.75070100
vt 0.37500000 0.87605200
vt 0.12500000 0.75070100
vt 0.25000000 0.62535100
vt 0.12500000 0.62535100
vt 0.00000000 0.50000000
vt 0.00558500 0.42527000
vt 0.02221400 0.35220900
vt 0.04951600 0.28245000
vt 0.08688100 0.21755000
vt 0.13347400 0.15896000
vt 0.18825500 0.10798800
vt 0.25000000 0.06577300
vt 0.31732900 0.03325800
vt 0.38874000 0.01116900
vt 0.46263500 0.00000000
vt 0.53736500 0.00000000
vt 0.61126000 0.01116900
vt 0.68267100 0.03325800
vt 0.75000000 0.06577300
vt 0.81174500 0.10798800
vt 0.86652600 0.15896000
vt 0.91311900 0.21755000
vt 0.95048400 0.28245000
vt 0.97778600 0.35220900
vt 0.99441500 0.42527000
vt 1.00000000 0.50000000
vt 0.99441500 0.57473000
vt 0.97778600 0.64779100
vt 0.95048400 0.71755000
vt 0.91311900 0.78245000
vt 0.86652600 0.84104000
vt 0.81174500 0.89201200
vt 0.75000000 0.93422700
vt 0.68267100 0.96674200
vt 0.61126000 0.98883100
vt 0.53736500 1.00000000
vt 0.46263500 1.00000000
vt 0.38874000 0.98883100
vt 0.31732900 0.96674200
vt 0.25000000 0.93422700
vt 0.18825500 0.89201200
vt 0.13347400 0.84104000
vt 0.08688100 0.78245000
vt 0.04951600 0.71755000
vt 0.02221400 0.64779100
vt 0.00558500 0.57473000
vt 0.50000000 0.50000000
vt 0.25000000 0.50000000
vt 0.25000000 0.24929900
vt 0.12500000 0.50000000
vt 0.12500000 0.24929900
vt 0.50000000 0.24929900
vt 0.37500000 0.50000000
vt 0.37500000 0.24929900
vt 0.75000000 0.50000000
vt 0.75000000 0.24929900
vt 0.62500000 0.50000000
vt 0.62500000 0.24929900
vt 0.87500000 0.50000000
vt 0.87500000 0.24929900
vt 0.75000000 0.75070100
vt 0.87500000 0.75070100
vt 0.50000000 0.75070100
vt 0.62500000 0.75070100
vt 0.25000000 0.75070100
vt 0.37500000 0.75070100
vt 0.12500000 0.75070100
vt 0.00000000 0.50000000
vt 0.00558500 0.42527000
vt 0.02221400 0.35220900
vt 0.04951600 0.28245000
vt 0.08688100 0.21755000
vt 0.13347400 0.15896000
vt 0.18825500 0.10798800
vt 0.25000000 0.06577300
vt 0.31732900 0.03325800
vt 0.38874000 0.01116900
vt 0.46263500 0.00000000
vt 0.53736500 0.00000000
vt 0.61126000 0.01116900
vt 0.68267100 0.03325800
vt 0.75000000 0.06577300
vt 0.81174500 0.10798800
vt 0.86652600 0.15896000
vt 0.91311900 0.21755000
vt 0.95048400 0.28245000
vt 0.97778600 0.35220900
vt 0.99441500 0.42527000
vt 1.00000000 0.50000000
vt 0.99441500 0.57473000
vt 0.97778600 0.64779100
vt 0.95048400 0.71755000
vt 0.91311900 0.78245000
vt 0.86652600 0.84104000
vt 0.81174500 0.89201200
vt 0.75000000 0.93422700
vt 0.68267100 0.96674200
vt 0.61126000 0.98883100
vt 0.53736500 1.00000000
vt 0.46263500 1.00000000
vt 0.38874000 0.98883100
vt 0.31732900 0.96674200
vt 0.25000000 0.93422700
vt 0.18825500 0.89201200
vt 0.13347400 0.84104000
vt 0.08688100 0.78245000
vt 0.04951600 0.71755000
vt 0.02221400 0.64779100
vt 0.00558500 0.57473000
vt 0.50000000 0.50000000
vt 0.25000000 0.50000000
vt 0.25000000 0.24929900
vt 0.12500000 0.50000000
vt 0.12500000 0.24929900
vt 0.50000000 0.24929900
vt 0.37500000 0.50000000
vt 0.37500000 0.24929900
vt 0.75000000 0.50000000
vt 0.75000000 0.24929900
vt 0.62500000 0.50000000
vt 0.62500000 0.24929900
vt 0.87500000 0.50000000
vt 0.87500000 0.24929900
vt 0.75000000 0.75070100
vt 0.87500000 0.75070100
vt 0.50000000 0.75070100
vt 0.62500000 0.75070100
vt 0.25000000 0.75070100
vt 0.37500000 0.75070100
vt 0.12500000 0.75070100
vt 0.00000000 0.50000000
vt 0.00558500 0.42527000
vt 0.02221400 0.35220900
vt 0.04951600 0.28245000
vt 0.08688100 0.21755000
vt 0.13347400 0.15896000
vt 0.18825500 0.10798800
vt 0.25000000 0.06577300
vt 0.31732900 0.03325800
vt 0.38874000 0.01116900
vt 0.46263500 0.00000000
vt 0.53736500 0.00000000
vt 0.61126000 0.01116900
vt 0.68267100 0.03325800
vt 0.75000000 0.06577300
vt 0.81174500 0.10798800
vt 0.86652600 0.15896000
vt 0.91311900 0.21755000
vt 0.95048400 0.28245000
vt 0.97778600 0.35220900
vt 0.99441500 0.42527000
vt 1.00000000 0.50000000
vt 0.99441500 0.57473000
vt 0.97778600 0.64779100
vt 0.95048400 0.71755000
vt 0.91311900 0.78245000
vt 0.86652600 0.84104000
vt 0.81174500 0.89201200
vt 0.75000000 0.93422700
vt 0.68267100 0.96674200
vt 0.61126000 0.98883100
vt 0.53736500 1.00000000
vt 0.46263500 1.00000000
vt 0.38874000 0.98883100
vt 0.31732900 0.96674200
vt 0.25000000 0.93422700
vt 0.18825500 0.89201200
vt 0.13347400 0.84104000
vt 0.08688100 0.78245000
vt 0.04951600 0.71755000
vt 0.02221400 0.64779100
vt 0.00558500 0.57473000
vt 0.50000000 0.50000000
vt 0.50000000 0.75070100
vt 0.25000000 0.50000000
vt 0.25000000 0.75070100
vt 0.25000000 0.62535100
vt 0.12500000 0.75070100
vt 0.12500000 0.50000000
vt 0.12500000 0.62535100
vt 0.50000000 0.24929900
vt 0.25000000 0.24929900
vt 0.25000000 0.37464900
vt 0.12500000 0.24929900
vt 0.12500000 0.37464900
vt 0.25000000 0.12394800
vt 0.50000000 0.12394800
vt 0.37500000 0.24929900
vt 0.37500000 0.12394800
vt 0.75000000 0.50000000
vt 0.75000000 0.24929900
vt 0.75000000 0.12394800
vt 0.62500000 0.24929900
vt 0.62500000 0.12394800
vt 0.87500000 0.24929900
vt 0.87500000 0.50000000
vt 0.75000000 0.37464900
vt 0.87500000 0.37464900
vt 0.75000000 0.75070100
vt 0.87500000 0.75070100
vt 0.75000000 0.62535100
vt 0.87500000 0.62535100
vt 0.75000000 0.87605200
vt 0.50000000 0.87605200
vt 0.62500000 0.75070100
vt 0.62500000 0.87605200
vt 0.25000000 0.87605200
vt 0.37500000 0.75070100
vt 0.37500000 0.87605200
f 63/63/63 45/45/45 44/44/44
f 44/44/44 51/51/51 63/63/63
f 61/61/61 63/63/63 51/51/51
f 51/51/51 43/43/43 61/61/61
f 45/45/45 47/47/47 46/46/46
f 46/46/46 44/44/44 45/45/45
f 44/44/44 46/46/46 49/49/49
f 49/49/49 48/48/48 44/44/44
f 43/43/43 51/51/51 52/52/52
f 52/52/52 50/50/50 43/43/43
f 51/51/51 44/44/44 48/48/48
f 48/48/48 52/52/52 51/51/51
f 60/60/60 59/59/59 53/53/53
f 53/53/53 57/57/57 60/60/60
f 62/62/62 61/61/61 43/43/43
f 43/43/43 55/55/55 62/62/62
f 59/59/59 62/62/62 55/55/55
f 55/55/55 53/53/53 59/59/59
f 53/53/53 55/55/55 56/56/56
f 56/56/56 54/54/54 53/53/53
f 55/55/55 43/43/43 50/50/50
f 50/50/50 56/56/56 55/55/55
f 57/57/57 53/53/53 54/54/54
f 54/54/54 58/58/58 57/57/57
f 6/6/6 49/49/49 5/5/5
f 7/7/7 49/49/49 6/6/6
f 3/3/3 46/46/46 2/2/2
f 46/46/46 3/3/3 4/4/4
f 5/5/5 49/49/49 4/4/4
f 46/46/46 4/4/4 49/49/49
f 49/49/49 7/7/7 48/48/48
f 10/10/10 52/52/52 9/9/9
f 11/11/11 52/52/52 10/10/10
f 7/7/7 8/8/8 48/48/48
f 48/48/48 8/8/8 9/9/9
f 52/52/52 48/48/48 9/9/9
f 52/52/52 11/11/11 50/50/50
f 50/50/50 11/11/11 12/12/12
f 42/42/42 1/1/1 46/46/46
f 2/2/2 46/46/46 1/1/1
f 41/41/41 42/42/42 46/46/46
f 40/40/40 41/41/41 46/46/46
f 38/38/38 39/39/39 47/47/47
f 40/40/40 47/47/47 39/39/39
f 40/40/40 46/46/46 47/47/47
f 37/37/37 38/38/38 47/47/47
f 36/36/36 37/37/37 45/45/45
f 37/37/37 47/47/47 45/45/45
f 63/63/63 35/35/35 45/45/45
f 35/35/35 36/36/36 45/45/45
f 34/34/34 35/35/35 63/63/63
f 34/34/34 63/63/63 33/33/33
f 61/61/61 33/33/33 63/63/63
f 13/13/13 56/56/56 12/12/12
f 14/14/14 56/56/56 13/13/13
f 56/56/56 14/14/14 54/54/54
f 15/15/15 54/54/54 14/14/14
f 58/58/58 54/54/54 16/16/16
f 15/15/15 16/16/16 54/54/54
f 58/58/58 17/17/17 18/18/18
f 19/19/19 58/58/58 18/18/18
f 20/20/20 57/57/57 19/19/19
f 58/58/58 19/19/19 57/57/57
f 57/57/57 20/20/20 21/21/21
f 22/22/22 57/57/57 21/21/21
f 17/17/17 58/58/58 16/16/16
f 32/32/32 61/61/61 62/62/62
f 30/30/30 62/62/62 59/59/59
f 31/31/31 32/32/32 62/62/62
f 62/62/62 30/30/30 31/31/31
f 59/59/59 29/29/29 30/30/30
f 29/29/29 59/59/59 28/28/28
f 33/33/33 61/61/61 32/32/32
f 57/57/57 24/24/24 25/25/25
f 57/57/57 23/23/23 24/24/24
f 57/57/57 25/25/25 60/60/60
f 60/60/60 27/27/27 28/28/28
f 27/27/27 60/60/60 26/26/26
f 25/25/25 26/26/26 60/60/60
f 60/60/60 28/28/28 59/59/59
f 23/23/23 57/57/57 22/22/22
f 12/12/12 56/56/56 50/50/50
f 125/125/125 124/124/124 107/107/107
f 107/107/107 112/112/112 125/125/125
f 122/122/122 125/125/125 112/112/112
f 112/112/112 106/106/106 122/122/122
f 124/124/124 126/126/126 109/109/109
f 109/109/109 107/107/107 124/124/124
f 107/107/107 109/109/109 110/110/110
f 110/110/110 108/108/108 107/107/107
f 106/106/106 112/112/112 113/113/113
f 113/113/113 111/111/111 106/106/106
f 112/112/112 107/107/107 108/108/108
f 108/108/108 113/113/113 112/112/112
f 121/121/121 120/120/120 114/114/114
f 114/114/114 118/118/118 121/121/121
f 123/123/123 122/122/122 106/106/106
f 106/106/106 116/116/116 123/123/123
f 120/120/120 123/123/123 116/116/116
f 116/116/116 114/114/114 120/120/120
f 114/114/114 116/116/116 117/117/117
f 117/117/117 115/115/115 114/114/114
f 116/116/116 106/106/106 111/111/111
f 111/111/111 117/117/117 116/116/116
f 118/118/118 114/114/114 115/115/115
f 115/115/115 119/119/119 118/118/118
f 69/69/69 110/110/110 68/68/68
f 70/70/70 110/110/110 69/69/69
f 66/66/66 109/109/109 65/65/65
f 109/109/109 66/66/66 67/67/67
f 68/68/68 110/110/110 67/67/67
f 109/109/109 67/67/67 110/110/110
f 110/110/110 70/70/70 108/108/108
f 73/73/73 113/113/113 72/72/72
f 74/74/74 113/113/113 73/73/73
f 108/108/108 71/71/71 72/72/72
f 70/70/70 71/71/71 108/108/108
f 113/113/113 108/108/108 72/72/72
f 113/113/113 74/74/74 111/111/111
f 111/111/111 74/74/74 75/75/75
f 105/105/105 64/64/64 109/109/109
f 65/65/65 109/109/109 64/64/64
f 104/104/104 105/105/105 109/109/109
f 103/103/103 104/104/104 109/109/109
f 101/101/101 102/102/102 126/126/126
f 103/103/103 126/126/126 102/102/102
f 103/103/103 109/109/109 126/126/126
f 100/100/100 101/101/101 126/126/126
f 99/99/99 100/100/100 124/124/124
f 100/100/100 126/126/126 124/124/124
f 125/125/125 98/98/98 124/124/124
f 98/98/98 99/99/99 124/124/124
f 97/97/97 98/98/98 125/125/125
f 97/97/97 125/125/125 96/96/96
f 122/122/122 96/96/96 125/125/125
f 76/76/76 117/117/117 75/75/75
f 77/77/77 117/117/117 76/76/76
f 115/115/115 117/117/117 77/77/77
f 115/115/115 78/78/78 79/79/79
f 115/115/115 77/77/77 78/78/78
f 119/119/119 115/115/115 79/79/79
f 119/119/119 80/80/80 81/81/81
f 82/82/82 119/119/119 81/81/81
f 83/83/83 118/118/118 82/82/82
f 119/119/119 82/82/82 118/118/118
f 118/118/118 83/83/83 84/84/84
f 85/85/85 118/118/118 84/84/84
f 80/80/80 119/119/119 79/79/79
f 95/95/95 122/122/122 123/123/123
f 93/93/93 123/123/123 120/120/120
f 94/94/94 95/95/95 123/123/123
f 123/123/123 93/93/93 94/94/94
f 120/120/120 92/92/92 93/93/93
f 92/92/92 120/120/120 91/91/91
f 96/96/96 122/122/122 95/95/95
f 118/118/118 87/87/87 88/88/88
f 118/118/118 86/86/86 87/87/87
f 118/118/118 88/88/88 121/121/121
f 121/121/121 90/90/90 91/91/91
f 90/90/90 121/121/121 89/89/89
f 88/88/88 89/89/89 121/121/121
f 121/121/121 91/91/91 120/120/120
f 86/86/86 118/118/118 85/85/85
f 75/75/75 117/117/117 111/111/111
f 202/202/202 200/200/200 170/170/170
f 170/170/170 201/201/201 202/202/202
f 199/199/199 202/202/202 201/201/201
f 201/201/201 195/195/195 199/199/199
f 197/197/197 195/195/195 201/201/201
f 201/201/201 170/170/170 169/169/169
f 169/169/169 186/186/186 197/197/197
f 197/197/197 201/201/201 169/169/169
f 196/196/196 195/195/195 197/197/197
f 197/197/197 198/198/198 196/196/196
f 198/198/198 197/197/197 186/186/186
f 186/186/186 192/192/192 198/198/198
f 205/205/205 203/203/203 172/172/172
f 172/172/172 204/204/204 205/205/205
f 200/200/200 205/205/205 204/204/204
f 204/204/204 170/170/170 200/200/200
f 172/172/172 174/174/174 176/176/176
f 176/176/176 173/173/173 172/172/172
f 173/173/173 176/176/176 175/175/175
f 175/175/175 171/171/171 173/173/173
f 204/204/204 172/172/172 173/173/173
f 173/173/173 171/171/171 169/169/169
f 169/169/169 170/170/170 204/204/204
f 204/204/204 173/173/173 169/169/169
f 179/179/179 178/178/178 184/184/184
f 184/184/184 177/177/177 169/169/169
f 169/169/169 171/171/171 179/179/179
f 179/179/179 184/184/184 169/169/169
f 171/171/171 175/175/175 181/181/181
f 181/181/181 179/179/179 171/171/171
f 179/179/179 181/181/181 180/180/180
f 180/180/180 178/178/178 179/179/179
f 177/177/177 184/184/184 185/185/185
f 185/185/185 183/183/183 177/177/177
f 184/184/184 178/178/178 182/182/182
f 182/182/182 185/185/185 184/184/184
f 192/192/192 186/186/186 193/193/193
f 193/193/193 194/194/194 192/192/192
f 194/194/194 193/193/193 187/187/187
f 187/187/187 191/191/191 194/194/194
f 189/189/189 187/187/187 193/193/193
f 193/193/193 186/186/186 169/169/169
f 169/169/169 177/177/177 189/189/189
f 189/189/189 193/193/193 169/169/169
f 187/187/187 189/189/189 190/190/190
f 190/190/190 188/188/188 187/187/187
f 189/189/189 177/177/177 183/183/183
f 183/183/183 190/190/190 189/189/189
f 130/130/130 131/131/131 180/180/180
f 132/132/132 180/180/180 131/131/131
f 178/178/178 180/180/180 132/132/132
f 181/181/181 128/128/128 129/129/129
f 129/129/129 130/130/130 181/181/181
f 180/180/180 181/181/181 130/130/130
f 175/175/175 128/128/128 181/181/181
f 133/133/133 182/182/182 132/132/132
f 135/135/135 182/182/182 134/134/134
f 185/185/185 135/135/135 136/136/136
f 136/136/136 137/137/137 185/185/185
f 132/132/132 182/182/182 178/178/178
f 137/137/137 183/183/183 185/185/185
f 185/185/185 182/182/182 135/135/135
f 183/183/183 137/137/137 138/138/138
f 133/133/133 134/134/134 182/182/182
f 175/175/175 168/168/168 127/127/127
f 168/168/168 175/175/175 176/176/176
f 175/175/175 127/127/127 128/128/128
f 167/167/167 168/168/168 176/176/176
f 166/166/166 167/167/167 176/176/176
f 164/164/164 165/165/165 174/174/174
f 166/166/166 174/174/174 165/165/165
f 166/166/166 176/176/176 174/174/174
f 203/203/203 164/164/164 172/172/172
f 174/174/174 172/172/172 164/164/164
f 161/161/161 203/203/203 205/205/205
f 163/163/163 164/164/164 203/203/203
f 162/162/162 163/163/163 203/203/203
f 161/161/161 205/205/205 160/160/160
f 203/203/203 161/161/161 162/162/162
f 159/159/159 160/160/160 205/205/205
f 159/159/159 205/205/205 200/200/200
f 139/139/139 190/190/190 138/138/138
f 140/140/140 190/190/190 139/139/139
f 141/141/141 188/188/188 140/140/140
f 188/188/188 190/190/190 140/140/140
f 142/142/142 143/143/143 188/188/188
f 187/187/187 188/188/188 143/143/143
f 188/188/188 141/141/141 142/142/142
f 144/144/144 191/191/191 143/143/143
f 191/191/191 144/144/144 145/145/145
f 194/194/194 191/191/191 145/145/145
f 147/147/147 192/192/192 194/194/194
f 194/194/194 146/146/146 147/147/147
f 146/146/146 194/194/194 145/145/145
f 148/148/148 192/192/192 147/147/147
f 191/191/191 187/187/187 143/143/143
f 158/158/158 200/200/200 202/202/202
f 153/153/153 199/199/199 195/195/195
f 156/156/156 202/202/202 199/199/199
f 157/157/157 158/158/158 202/202/202
f 202/202/202 156/156/156 157/157/157
f 199/199/199 155/155/155 156/156/156
f 155/155/155 199/199/199 154/154/154
f 159/159/159 200/200/200 158/158/158
f 151/151/151 198/198/198 150/150/150
f 149/149/149 150/150/150 198/198/198
f 192/192/192 149/149/149 198/198/198
f 153/153/153 154/154/154 199/199/199
f 152/152/152 196/196/196 151/151/151
f 198/198/198 151/151/151 196/196/196
f 153/153/153 196/196/196 152/152/152
f 195/195/195 196/196/196 153/153/153
f 192/192/192 148/148/148 149/149/149
f 138/138/138 190/190/190 183/183/183
f 267/267/267 266/266/266 249/249/249
f 249/249/249 254/254/254 267/267/267
f 264/264/264 267/267/267 254/254/254
f 254/254/254 248/248/248 264/264/264
f 266/266/266 268/268/268 251/251/251
f 251/251/251 249/249/249 266/266/266
f 249/249/249 251/251/251 252/252/252
f 252/252/252 250/250/250 249/249/249
f 248/248/248 254/254/254 255/255/255
f 255/255/255 253/253/253 248/248/248
f 254/254/254 249/249/249 250/250/250
f 250/250/250 255/255/255 254/254/254
f 263/263/263 262/262/262 256/256/256
f 256/256/256 260/260/260 263/263/263
f 265/265/265 264/264/264 248/248/248
f 248/248/248 258/258/258 265/265/265
f 262/262/262 265/265/265 258/258/258
f 258/258/258 256/256/256 262/262/262
f 256/256/256 258/258/258 259/259/259
f 259/259/259 257/257/257 256/256/256
f 258/258/258 248/248/248 253/253/253
f 253/253/253 259/259/259 258/258/258
f 260/260/260 256/256/256 257/257/257
f 257/257/257 261/261/261 260/260/260
f 211/211/211 252/252/252 210/210/210
f 212/212/212 252/252/252 211/211/211
f 208/208/208 251/251/251 207/207/207
f 251/251/251 208/208/208 209/209/209
f 210/210/210 252/252/252 209/209/209
f 251/251/251 209/209/209 252/252/252
f 252/252/252 212/212/212 250/250/250
f 215/215/215 255/255/255 214/214/214
f 216/216/216 255/255/255 215/215/215
f 250/250/250 213/213/213 214/214/214
f 212/212/212 213/213/213 250/250/250
f 255/255/255 250/250/250 214/214/214
f 255/255/255 216/216/216 253/253/253
f 253/253/253 216/216/216 217/217/217
f 247/247/247 206/206/206 251/251/251
f 207/207/207 251/251/251 206/206/206
f 246/246/246 247/247/247 251/251/251
f 245/245/245 246/246/246 251/251/251
f 243/243/243 244/244/244 268/268/268
f 245/245/245 268/268/268 244/244/244
f 245/245/245 251/251/251 268/268/268
f 242/242/242 243/243/243 268/268/268
f 241/241/241 242/242/242 266/266/266
f 242/242/242 268/268/268 266/266/266
f 267/267/267 240/240/240 266/266/266
f 240/240/240 241/241/241 266/266/266
f 239/239/239 240/240/240 267/267/267
f 239/239/239 267/267/267 238/238/238
f 264/264/264 238/238/238 267/267/267
f 218/218/218 259/259/259 217/217/217
f 219/219/219 259/259/259 218/218/218
f 259/259/259 219/219/219 257/257/257
f 220/220/220 257/257/257 219/219/219
f 261/261/261 257/257/257 221/221/221
f 220/220/220 221/221/221 257/257/257
f 261/261/261 222/222/222 223/223/223
f 224/224/224 261/261/261 223/223/223
f 225/225/225 260/260/260 224/224/224
f 261/261/261 224/224/224 260/260/260
f 260/260/260 225/225/225 226/226/226
f 227/227/227 260/260/260 226/226/226
f 222/222/222 261/261/261 221/221/221
f 237/237/237 264/264/264 265/265/265
f 235/235/235 265/265/265 262/262/262
f 236/236/236 237/237/237 265/265/265
f 265/265/265 235/235/235 236/236/236
f 262/262/262 234/234/234 235/235/235
f 234/234/234 262/262/262 233/233/233
f 238/238/238 264/264/264 237/237/237
f 260/260/260 229/229/229 230/230/230
f 260/260/260 228/228/228 229/229/229
f 260/260/260 230/230/230 263/263/263
f 263/263/263 232/232/232 233/233/233
f 232/232/232 263/263/263 231/231/231
f 230/230/230 231/231/231 263/263/263
f 263/263/263 233/233/233 262/262/262
f 228/228/228 260/260/260 227/227/227
f 217/217/217 259/259/259 253/253/253
f 341/341/341 340/340/340 319/319/319
f 319/319/319 339/339/339 341/341/341
f 338/338/338 334/334/334 340/340/340
f 340/340/340 341/341/341 338/338/338
f 336/336/336 340/340/340 334/334/334
f 340/340/340 311/311/311 319/319/319
f 311/311/311 336/336/336 325/325/325
f 336/336/336 311/311/311 340/340/340
f 335/335/335 337/337/337 336/336/336
f 336/336/336 334/334/334 335/335/335
f 337/337/337 331/331/331 325/325/325
f 325/325/325 336/336/336 337/337/337
f 344/344/344 343/343/343 320/320/320
f 320/320/320 342/342/342 344/344/344
f 339/339/339 319/319/319 343/343/343
f 343/343/343 344/344/344 339/339/339
f 320/320/320 346/346/346 347/347/347
f 347/347/347 345/345/345 320/320/320
f 346/346/346 313/313/313 316/316/316
f 316/316/316 347/347/347 346/346/346
f 343/343/343 346/346/346 320/320/320
f 346/346/346 311/311/311 313/313/313
f 311/311/311 343/343/343 319/319/319
f 343/343/343 311/311/311 346/346/346
f 315/315/315 323/323/323 314/314/314
f 323/323/323 311/311/311 312/312/312
f 311/311/311 315/315/315 313/313/313
f 315/315/315 311/311/311 323/323/323
f 313/313/313 315/315/315 318/318/318
f 318/318/318 316/316/316 313/313/313
f 315/315/315 314/314/314 317/317/317
f 317/317/317 318/318/318 315/315/315
f 312/312/312 322/322/322 324/324/324
f 324/324/324 323/323/323 312/312/312
f 323/323/323 324/324/324 321/321/321
f 321/321/321 314/314/314 323/323/323
f 331/331/331 333/333/333 332/332/332
f 332/332/332 325/325/325 331/331/331
f 333/333/333 330/330/330 326/326/326
f 326/326/326 332/332/332 333/333/333
f 328/328/328 332/332/332 326/326/326
f 332/332/332 311/311/311 325/325/325
f 311/311/311 328/328/328 312/312/312
f 328/328/328 311/311/311 332/332/332
f 326/326/326 327/327/327 329/329/329
f 329/329/329 328/328/328 326/326/326
f 328/328/328 329/329/329 322/322/322
f 322/322/322 312/312/312 328/328/328
f 272/272/272 317/317/317 273/273/273
f 274/274/274 273/273/273 317/317/317
f 314/314/314 274/274/274 317/317/317
f 318/318/318 271/271/271 270/270/270
f 271/271/271 318/318/318 272/272/272
f 317/317/317 272/272/272 318/318/318
f 316/316/316 318/318/318 270/270/270
f 275/275/275 274/274/274 321/321/321
f 277/277/277 276/276/276 321/321/321
f 278/278/278 277/277/277 324/324/324
f 279/279/279 278/278/278 324/324/324
f 321/321/321 274/274/274 314/314/314
f 279/279/279 324/324/324 322/322/322
f 324/324/324 277/277/277 321/321/321
f 322/322/322 280/280/280 279/279/279
f 276/276/276 275/275/275 321/321/321
f 316/316/316 269/269/269 310/310/310
f 310/310/310 347/347/347 316/316/316
f 316/316/316 270/270/270 269/269/269
f 309/309/309 347/347/347 310/310/310
f 308/308/308 347/347/347 309/309/309
f 306/306/306 345/345/345 307/307/307
f 308/308/308 307/307/307 345/345/345
f 308/308/308 345/345/345 347/347/347
f 342/342/342 320/320/320 306/306/306
f 345/345/345 306/306/306 320/320/320
f 303/303/303 344/344/344 342/342/342
f 305/305/305 342/342/342 306/306/306
f 304/304/304 342/342/342 305/305/305
f 304/304/304 303/303/303 342/342/342
f 344/344/344 303/303/303 302/302/302
f 302/302/302 301/301/301 344/344/344
f 301/301/301 339/339/339 344/344/344
f 281/281/281 280/280/280 329/329/329
f 329/329/329 282/282/282 281/281/281
f 282/282/282 327/327/327 283/283/283
f 327/327/327 282/282/282 329/329/329
f 284/284/284 327/327/327 285/285/285
f 326/326/326 285/285/285 327/327/327
f 327/327/327 284/284/284 283/283/283
f 286/286/286 285/285/285 330/330/330
f 330/330/330 287/287/287 286/286/286
f 333/333/333 287/287/287 330/330/330
f 289/289/289 333/333/333 331/331/331
f 333/333/333 289/289/289 288/288/288
f 288/288/288 287/287/287 333/333/333
f 290/290/290 289/289/289 331/331/331
f 330/330/330 285/285/285 326/326/326
f 300/300/300 341/341/341 339/339/339
f 295/295/295 334/334/334 338/338/338
f 298/298/298 338/338/338 341/341/341
f 299/299/299 341/341/341 300/300/300
f 341/341/341 299/299/299 298/298/298
f 338/338/338 298/298/298 297/297/297
f 297/297/297 296/296/296 338/338/338
f 301/301/301 300/300/300 339/339/339
f 293/293/293 292/292/292 337/337/337
f 291/291/291 337/337/337 292/292/292
f 331/331/331 337/337/337 291/291/291
f 295/295/295 338/338/338 296/296/296
f 294/294/294 293/293/293 335/335/335
f 337/337/337 335/335/335 293/293/293
f 295/295/295 294/294/294 335/335/335
f 334/334/334 295/295/295 335/335/335
f 331/331/331 291/291/291 290/290/290
f 280/280/280 322/322/322 329/329/329
f 409/409/409 408/408/408 391/391/391
f 391/391/391 396/396/396 409/409/409
f 406/406/406 409/409/409 396/396/396
f 396/396/396 390/390/390 406/406/406
f 408/408/408 410/410/410 393/393/393
f 393/393/393 391/391/391 408/408/408
f 391/391/391 393/393/393 394/394/394
f 394/394/394 392/392/392 391/391/391
f 390/390/390 396/396/396 397/397/397
f 397/397/397 395/395/395 390/390/390
f 396/396/396 391/391/391 392/392/392
f 392/392/392 397/397/397 396/396/396
f 405/405/405 404/404/404 398/398/398
f 398/398/398 402/402/402 405/405/405
f 407/407/407 406/406/406 390/390/390
f 390/390/390 400/400/400 407/407/407
f 404/404/404 407/407/407 400/400/400
f 400/400/400 398/398/398 404/404/404
f 398/398/398 400/400/400 401/401/401
f 401/401/401 399/399/399 398/398/398
f 400/400/400 390/390/390 395/395/395
f 395/395/395 401/401/401 400/400/400
f 402/402/402 398/398/398 399/399/399
f 399/399/399 403/403/403 402/402/402
f 353/353/353 394/394/394 352/352/352
f 354/354/354 394/394/394 353/353/353
f 350/350/350 393/393/393 349/349/349
f 393/393/393 350/350/350 351/351/351
f 352/352/352 394/394/394 351/351/351
f 393/393/393 351/351/351 394/394/394
f 394/394/394 354/354/354 392/392/392
f 357/357/357 397/397/397 356/356/356
f 358/358/358 397/397/397 357/357/357
f 392/392/392 355/355/355 356/356/356
f 354/354/354 355/355/355 392/392/392
f 397/397/397 392/392/392 356/356/356
f 397/397/397 358/358/358 395/395/395
f 395/395/395 358/358/358 359/359/359
f 389/389/389 348/348/348 393/393/393
f 349/349/349 393/393/393 348/348/348
f 388/388/388 389/389/389 393/393/393
f 387/387/387 388/388/388 393/393/393
f 385/385/385 386/386/386 410/410/410
f 387/387/387 410/410/410 386/386/386
f 387/387/387 393/393/393 410/410/410
f 384/384/384 385/385/385 410/410/410
f 383/383/383 384/384/384 408/408/408
f 384/384/384 410/410/410 408/408/408
f 409/409/409 382/382/382 408/408/408
f 382/382/382 383/383/383 408/408/408
f 381/381/381 382/382/382 409/409/409
f 381/381/381 409/409/409 380/380/380
f 406/406/406 380/380/380 409/409/409
f 360/360/360 401/401/401 359/359/359
f 361/361/361 401/401/401 360/360/360
f 401/401/401 361/361/361 399/399/399
f 362/362/362 399/399/399 361/361/361
f 403/403/403 399/399/399 363/363/363
f 362/362/362 363/363/363 399/399/399
f 403/403/403 364/364/364 365/365/365
f 366/366/366 403/403/403 365/365/365
f 367/367/367 402/402/402 366/366/366
f 403/403/403 366/366/366 402/402/402
f 402/402/402 367/367/367 368/368/368
f 369/369/369 402/402/402 368/368/368
f 364/364/364 403/403/403 363/363/363
f 379/379/379 406/406/406 407/407/407
f 377/377/377 407/407/407 404/404/404
f 378/378/378 379/379/379 407/407/407
f 407/407/407 377/377/377 378/378/378
f 404/404/404 376/376/376 377/377/377
f 376/376/376 404/404/404 375/375/375
f 380/380/380 406/406/406 379/379/379
f 402/402/402 371/371/371 372/372/372
f 402/402/402 370/370/370 371/371/371
f 402/402/402 372/372/372 405/405/405
f 405/405/405 374/374/374 375/375/375
f 374/374/374 405/405/405 373/373/373
f 372/372/372 373/373/373 405/405/405
f 405/405/405 375/375/375 404/404/404
f 370/370/370 402/402/402 369/369/369
f 359/359/359 401/401/401 395/395/395
f 472/472/472 471/471/471 454/454/454
f 454/454/454 459/459/459 472/472/472
f 469/469/469 472/472/472 459/459/459
f 459/459/459 453/453/453 469/469/469
f 471/471/471 473/473/473 456/456/456
f 456/456/456 454/454/454 471/471/471
f 454/454/454 456/456/456 457/457/457
f 457/457/457 455/455/455 454/454/454
f 453/453/453 459/459/459 460/460/460
f 460/460/460 458/458/458 453/453/453
f 459/459/459 454/454/454 455/455/455
f 455/455/455 460/460/460 459/459/459
f 468/468/468 467/467/467 461/461/461
f 461/461/461 465/465/465 468/468/468
f 470/470/470 469/469/469 453/453/453
f 453/453/453 463/463/463 470/470/470
f 467/467/467 470/470/470 463/463/463
f 463/463/463 461/461/461 467/467/467
f 461/461/461 463/463/463 464/464/464
f 464/464/464 462/462/462 461/461/461
f 463/463/463 453/453/453 458/458/458
f 458/458/458 464/464/464 463/463/463
f 465/465/465 461/461/461 462/462/462
f 462/462/462 466/466/466 465/465/465
f 416/416/416 457/457/457 415/415/415
f 417/417/417 457/457/457 416/416/416
f 413/413/413 456/456/456 412/412/412
f 456/456/456 413/413/413 414/414/414
f 415/415/415 457/457/457 414/414/414
f 456/456/456 414/414/414 457/457/457
f 457/457/457 417/417/417 455/455/455
f 420/420/420 460/460/460 419/419/419
f 421/421/421 460/460/460 420/420/420
f 455/455/455 418/418/418 419/419/419
f 417/417/417 418/418/418 455/455/455
f 460/460/460 455/455/455 419/419/419
f 460/460/460 421/421/421 458/458/458
f 458/458/458 421/421/421 422/422/422
f 452/452/452 411/411/411 456/456/456
f 412/412/412 456/456/456 411/411/411
f 451/451/451 452/452/452 456/456/456
f 450/450/450 451/451/451 456/456/456
f 448/448/448 449/449/449 473/473/473
f 450/450/450 473/473/473 449/449/449
f 450/450/450 456/456/456 473/473/473
f 447/447/447 448/448/448 473/473/473
f 446/446/446 447/447/447 471/471/471
f 447/447/447 473/473/473 471/471/471
f 472/472/472 445/445/445 471/471/471
f 445/445/445 446/446/446 471/471/471
f 444/444/444 445/445/445 472/472/472
f 444/444/444 472/472/472 443/443/443
f 469/469/469 443/443/443 472/472/472
f 423/423/423 464/464/464 422/422/422
f 424/424/424 464/464/464 423/423/423
f 464/464/464 424/424/424 462/462/462
f 425/425/425 462/462/462 424/424/424
f 466/466/466 462/462/462 426/426/426
f 425/425/425 426/426/426 462/462/462
f 466/466/466 427/427/427 428/428/428
f 429/429/429 466/466/466 428/428/428
f 430/430/430 465/465/465 429/429/429
f 466/466/466 429/429/429 465/465/465
f 465/465/465 430/430/430 431/431/431
f 432/432/432 465/465/465 431/431/431
f 427/427/427 466/466/466 426/426/426
f 442/442/442 469/469/469 470/470/470
f 440/440/440 470/470/470 467/467/467
f 441/441/441 442/442/442 470/470/470
f 470/470/470 440/440/440 441/441/441
f 467/467/467 439/439/439 440/440/440
f 439/439/439 467/467/467 438/438/438
f 443/443/443 469/469/469 442/442/442
f 465/465/465 434/434/434 435/435/435
f 465/465/465 433/433/433 434/434/434
f 465/465/465 435/435/435 468/468/468
f 468/468/468 437/437/437 438/438/438
f 437/437/437 468/468/468 436/436/436
f 435/435/435 436/436/436 468/468/468
f 468/468/468 438/438/438 467/467/467
f 433/433/433 465/465/465 432/432/432
f 422/422/422 464/464/464 458/458/458
f 549/549/549 547/547/547 517/517/517
f 517/517/517 548/548/548 549/549/549
f 546/546/546 549/549/549 548/548/548
f 548/548/548 542/542/542 546/546/546
f 544/544/544 542/542/542 548/548/548
f 548/548/548 517/517/517 516/516/516
f 516/516/516 533/533/533 544/544/544
f 544/544/544 548/548/548 516/516/516
f 543/543/543 542/542/542 544/544/544
f 544/544/544 545/545/545 543/543/543
f 545/545/545 544/544/544 533/533/533
f 533/533/533 539/539/539 545/545/545
f 552/552/552 550/550/550 519/519/519
f 519/519/519 551/551/551 552/552/552
f 547/547/547 552/552/552 551/551/551
f 551/551/551 517/517/517 547/547/547
f 519/519/519 521/521/521 523/523/523
f 523/523/523 520/520/520 519/519/519
f 520/520/520 523/523/523 522/522/522
f 522/522/522 518/518/518 520/520/520
f 551/551/551 519/519/519 520/520/520
f 520/520/520 518/518/518 516/516/516
f 516/516/516 517/517/517 551/551/551
f 551/551/551 520/520/520 516/516/516
f 526/526/526 525/525/525 531/531/531
f 531/531/531 524/524/524 516/516/516
f 516/516/516 518/518/518 526/526/526
f 526/526/526 531/531/531 516/516/516
f 518/518/518 522/522/522 528/528/528
f 528/528/528 526/526/526 518/518/518
f 526/526/526 528/528/528 527/527/527
f 527/527/527 525/525/525 526/526/526
f 524/524/524 531/531/531 532/532/532
f 532/532/532 530/530/530 524/524/524
f 531/531/531 525/525/525 529/529/529
f 529/529/529 532/532/532 531/531/531
f 539/539/539 533/533/533 540/540/540
f 540/540/540 541/541/541 539/539/539
f 541/541/541 540/540/540 534/534/534
f 534/534/534 538/538/538 541/541/541
f 536/536/536 534/534/534 540/540/540
f 540/540/540 533/533/533 516/516/516
f 516/516/516 524/524/524 536/536/536
f 536/536/536 540/540/540 516/516/516
f 534/534/534 536/536/536 537/537/537
f 537/537/537 535/535/535 534/534/534
f 536/536/536 524/524/524 530/530/530
f 530/530/530 537/537/537 536/536/536
f 477/477/477 478/478/478 527/527/527
f 479/479/479 527/527/527 478/478/478
f 525/525/525 527/527/527 479/479/479
f 528/528/528 475/475/475 476/476/476
f 476/476/476 477/477/477 528/528/528
f 527/527/527 528/528/528 477/477/477
f 522/522/522 475/475/475 528/528/528
f 480/480/480 529/529/529 479/479/479
f 482/482/482 529/529/529 481/481/481
f 532/532/532 482/482/482 483/483/483
f 483/483/483 484/484/484 532/532/532
f 529/529/529 525/525/525 479/479/479
f 484/484/484 530/530/530 532/532/532
f 532/532/532 529/529/529 482/482/482
f 530/530/530 484/484/484 485/485/485
f 481/481/481 529/529/529 480/480/480
f 522/522/522 515/515/515 474/474/474
f 515/515/515 522/522/522 523/523/523
f 522/522/522 474/474/474 475/475/475
f 514/514/514 515/515/515 523/523/523
f 513/513/513 514/514/514 523/523/523
f 511/511/511 512/512/512 521/521/521
f 513/513/513 521/521/521 512/512/512
f 513/513/513 523/523/523 521/521/521
f 550/550/550 511/511/511 519/519/519
f 521/521/521 519/519/519 511/511/511
f 508/508/508 550/550/550 552/552/552
f 510/510/510 511/511/511 550/550/550
f 509/509/509 510/510/510 550/550/550
f 508/508/508 552/552/552 507/507/507
f 508/508/508 509/509/509 550/550/550
f 552/552/552 506/506/506 507/507/507
f 506/506/506 552/552/552 547/547/547
f 486/486/486 537/537/537 485/485/485
f 487/487/487 537/537/537 486/486/486
f 488/488/488 535/535/535 487/487/487
f 535/535/535 537/537/537 487/487/487
f 489/489/489 490/490/490 535/535/535
f 534/534/534 535/535/535 490/490/490
f 535/535/535 488/488/488 489/489/489
f 491/491/491 538/538/538 490/490/490
f 538/538/538 491/491/491 492/492/492
f 541/541/541 538/538/538 492/492/492
f 494/494/494 539/539/539 541/541/541
f 541/541/541 493/493/493 494/494/494
f 493/493/493 541/541/541 492/492/492
f 495/495/495 539/539/539 494/494/494
f 538/538/538 534/534/534 490/490/490
f 505/505/505 547/547/547 549/549/549
f 501/501/501 502/502/502 546/546/546
f 503/503/503 549/549/549 546/546/546
f 504/504/504 505/505/505 549/549/549
f 549/549/549 503/503/503 504/504/504
f 546/546/546 502/502/502 503/503/503
f 500/500/500 546/546/546 542/542/542
f 506/506/506 547/547/547 505/505/505
f 498/498/498 545/545/545 497/497/497
f 496/496/496 497/497/497 545/545/545
f 539/539/539 496/496/496 545/545/545
f 500/500/500 501/501/501 546/546/546
f 499/499/499 543/543/543 498/498/498
f 545/545/545 498/498/498 543/543/543
f 500/500/500 543/543/543 499/499/499
f 542/542/542 543/543/543 500/500/500
f 539/539/539 495/495/495 496/496/496
f 485/485/485 537/537/537 530/530/530

