mtllib material.mtl
usemtl ??_(1).002
v 0.29074200 -0.01072200 0.16822700
v 0.29095200 -0.00713200 0.16794900
v 0.29107300 -0.00352800 0.16779400
v 0.29101500 -0.01095200 0.16641600
v 0.29122700 -0.00728700 0.16612100
v 0.29135000 -0.00360400 0.16595700
v 0.29128400 -0.01118100 0.16460600
v 0.29149800 -0.00744000 0.16429400
v 0.29162200 -0.00368100 0.16411900
v 0.29083800 0.00000000 0.16954000
v 0.29082700 -0.00206700 0.16953900
v 0.29079500 -0.00413400 0.16953600
v 0.29073900 -0.00620000 0.16953500
v 0.29065900 -0.00826500 0.16953800
v 0.29055100 -0.01033000 0.16955900
v 0.29049400 -0.01136600 0.16953000
v 0.29046300 -0.01236900 0.16931700
v 0.29048100 -0.01327400 0.16882300
v 0.29055000 -0.01398700 0.16808200
v 0.29066800 -0.01442400 0.16715600
v 0.29082300 -0.01456400 0.16614200
v 0.29099600 -0.01440000 0.16513700
v 0.29117200 -0.01394000 0.16423400
v 0.29133300 -0.01321600 0.16351600
v 0.29146200 -0.01230800 0.16303900
v 0.29154700 -0.01130500 0.16284600
v 0.29160100 -0.01027200 0.16283100
v 0.29168900 -0.00821900 0.16283700
v 0.29175600 -0.00616400 0.16283900
v 0.29180300 -0.00411000 0.16284000
v 0.29183100 -0.00205500 0.16284000
v 0.29184000 0.00000000 0.16283900
v 0.29145200 0.00000000 0.16547400
v 0.29114800 0.00000000 0.16750700
v 0.28903400 0.02912800 0.16686400
v 0.29083800 0.00000000 0.16954000
v 0.29114800 0.00000000 0.16750700
v 0.29145200 0.00000000 0.16547400
v 0.29184000 0.00000000 0.16283900
v 0.29180900 0.00359700 0.16283700
v 0.29171700 0.00719200 0.16283600
v 0.29156300 0.01078200 0.16283600
v 0.29134800 0.01436900 0.16283600
v 0.29107300 0.01795200 0.16283700
v 0.29073700 0.02153000 0.16283800
v 0.29034100 0.02510300 0.16283900
v 0.28988500 0.02867000 0.16284000
v 0.28937600 0.03223100 0.16283200
v 0.28881500 0.03578500 0.16283400
v 0.28865100 0.03667500 0.16291200
v 0.28844600 0.03752900 0.16318600
v 0.28820600 0.03827800 0.16368200
v 0.28794800 0.03886900 0.16435700
v 0.28769000 0.03925200 0.16517000
v 0.28745100 0.03940600 0.16605800
v 0.28725000 0.03932400 0.16696200
v 0.28710500 0.03899700 0.16782200
v 0.28703600 0.03843000 0.16855700
v 0.28704700 0.03768200 0.16911200
v 0.28713700 0.03682000 0.16943700
v 0.28728800 0.03590500 0.16954200
v 0.28796400 0.03221800 0.16954300
v 0.28857900 0.02852100 0.16954400
v 0.28912900 0.02481300 0.16954400
v 0.28953100 0.02172700 0.16954100
v 0.28987800 0.01863500 0.16954000
v 0.29017200 0.01553800 0.16953900
v 0.29041200 0.01243600 0.16953900
v 0.29059900 0.00933100 0.16953900
v 0.29073200 0.00622200 0.16953900
v 0.29081100 0.00311200 0.16954000
v 0.28950400 0.03019500 0.16370400
v 0.28840500 0.03487500 0.16544900
v 0.28851100 0.03142000 0.16764500
v 0.28897600 0.03255900 0.16455100
v 0.28920200 0.03312400 0.16301200
v 0.28862900 0.03547300 0.16394500
v 0.28869600 0.03372300 0.16499400
v 0.28892100 0.03430500 0.16347300
v 0.28777900 0.03719200 0.16641600
v 0.28800100 0.03782300 0.16495000
v 0.28809800 0.03604000 0.16592700
v 0.28832100 0.03665500 0.16444200
v 0.28745100 0.03833100 0.16691700
v 0.28755400 0.03655800 0.16789000
v 0.28722700 0.03768100 0.16837100
v 0.29068400 0.01962500 0.16432700
v 0.29123400 0.01478200 0.16346800
vn 0.98600000 -0.05600000 0.15690000
vn 0.98760000 -0.03620000 0.15270000
vn 0.98850000 -0.01730000 0.15050000
vn 0.98650000 -0.05480000 0.15460000
vn 0.98790000 -0.03560000 0.15080000
vn 0.98870000 -0.01730000 0.14860000
vn 0.98690000 -0.05380000 0.15240000
vn 0.98830000 -0.03470000 0.14840000
vn 0.98910000 -0.01670000 0.14610000
vn 0.98840000 -0.00000000 0.15170000
vn 0.98830000 -0.01050000 0.15190000
vn 0.98800000 -0.02130000 0.15270000
vn 0.98750000 -0.03240000 0.15390000
vn 0.98680000 -0.04390000 0.15580000
vn 0.98580000 -0.05560000 0.15820000
vn 0.98530000 -0.06150000 0.15960000
vn 0.98470000 -0.06690000 0.16070000
vn 0.98430000 -0.07120000 0.16140000
vn 0.98410000 -0.07390000 0.16150000
vn 0.98410000 -0.07480000 0.16080000
vn 0.98450000 -0.07370000 0.15940000
vn 0.98490000 -0.07120000 0.15760000
vn 0.98550000 -0.06740000 0.15550000
vn 0.98620000 -0.06270000 0.15330000
vn 0.98680000 -0.05750000 0.15150000
vn 0.98730000 -0.05230000 0.15000000
vn 0.98770000 -0.04720000 0.14890000
vn 0.98840000 -0.03730000 0.14710000
vn 0.98890000 -0.02760000 0.14570000
vn 0.98930000 -0.01810000 0.14470000
vn 0.98950000 -0.00890000 0.14410000
vn 0.98960000 -0.00000000 0.14390000
vn 0.98910000 -0.00010000 0.14710000
vn 0.98880000 -0.00000000 0.14940000
vn 0.96970000 0.14640000 0.19560000
vn 0.98840000 -0.00000000 0.15170000
vn 0.98880000 -0.00000000 0.14940000
vn 0.98910000 -0.00000000 0.14710000
vn 0.98960000 -0.00000000 0.14390000
vn 0.98940000 0.01570000 0.14450000
vn 0.98870000 0.03240000 0.14630000
vn 0.98750000 0.04990000 0.14940000
vn 0.98580000 0.06750000 0.15390000
vn 0.98360000 0.08470000 0.15940000
vn 0.98080000 0.10180000 0.16660000
vn 0.97760000 0.11780000 0.17460000
vn 0.97400000 0.13270000 0.18370000
vn 0.97010000 0.14630000 0.19360000
vn 0.96600000 0.15860000 0.20420000
vn 0.96480000 0.16170000 0.20730000
vn 0.96340000 0.16530000 0.21100000
vn 0.96180000 0.16930000 0.21520000
vn 0.96010000 0.17340000 0.21960000
vn 0.95830000 0.17740000 0.22410000
vn 0.95660000 0.18120000 0.22810000
vn 0.95530000 0.18430000 0.23120000
vn 0.95440000 0.18660000 0.23320000
vn 0.95400000 0.18770000 0.23390000
vn 0.95430000 0.18740000 0.23290000
vn 0.95510000 0.18580000 0.23070000
vn 0.95650000 0.18290000 0.22750000
vn 0.96230000 0.16860000 0.21370000
vn 0.96770000 0.15260000 0.20090000
vn 0.97260000 0.13500000 0.18940000
vn 0.97630000 0.11930000 0.18080000
vn 0.97950000 0.10260000 0.17310000
vn 0.98230000 0.08530000 0.16660000
vn 0.98460000 0.06770000 0.16110000
vn 0.98630000 0.05000000 0.15690000
vn 0.98750000 0.03250000 0.15400000
vn 0.98820000 0.01580000 0.15220000
vn 0.97150000 0.14120000 0.19020000
vn 0.96390000 0.16410000 0.20990000
vn 0.96580000 0.15860000 0.20520000
vn 0.96790000 0.15280000 0.19960000
vn 0.96890000 0.15000000 0.19670000
vn 0.96500000 0.16110000 0.20700000
vn 0.96590000 0.15840000 0.20470000
vn 0.96700000 0.15560000 0.20170000
vn 0.95930000 0.17540000 0.22130000
vn 0.96060000 0.17220000 0.21820000
vn 0.96160000 0.16980000 0.21550000
vn 0.96280000 0.16680000 0.21260000
vn 0.95690000 0.18090000 0.22710000
vn 0.95800000 0.17880000 0.22420000
vn 0.95550000 0.18450000 0.23020000
vn 0.98150000 0.09600000 0.16560000
vn 0.98530000 0.07050000 0.15550000
vt 0.04322600 0.09044000
vt 0.04322600 0.18046600
vt 0.04322600 0.27038000
vt 0.08646000 0.09044000
vt 0.08646000 0.18046600
vt 0.08646000 0.27038000
vt 0.12969600 0.09044000
vt 0.12969600 0.18046600
vt 0.12969600 0.27038000
vt 0.00102500 0.35815100
vt 0.00145900 0.30562900
vt 0.00267900 0.25314600
vt 0.00470300 0.20071800
vt 0.00754100 0.14836000
vt 0.01095800 0.09605700
vt 0.01402500 0.06997600
vt 0.02161700 0.04548000
vt 0.03584500 0.02473100
vt 0.05553500 0.01000900
vt 0.07883200 0.00290600
vt 0.10325600 0.00381900
vt 0.12644800 0.01177200
vt 0.14627600 0.02613800
vt 0.16097900 0.04580400
vt 0.16960400 0.06868000
vt 0.17169400 0.09276800
vt 0.16943500 0.11696100
vt 0.16526000 0.16506700
vt 0.16218200 0.21327000
vt 0.16008000 0.26153300
vt 0.15888500 0.30983500
vt 0.15851900 0.35815600
vt 0.09660700 0.35815100
vt 0.04881600 0.35815100
vt 0.34330000 0.25627100
vt 0.51014700 0.99853500
vt 0.46217100 0.99853500
vt 0.41419400 0.99853500
vt 0.35204100 0.99853000
vt 0.35073600 0.90959200
vt 0.34673700 0.82081000
vt 0.33971400 0.73232900
vt 0.32936600 0.64429400
vt 0.31543300 0.55684000
vt 0.29770800 0.47009800
vt 0.27603300 0.38416600
vt 0.25032900 0.29918600
vt 0.22038100 0.21535200
vt 0.18661300 0.13261600
vt 0.17925400 0.11134900
vt 0.17701000 0.08903100
vt 0.18098400 0.06688600
vt 0.19090900 0.04646800
vt 0.20626200 0.02906100
vt 0.22605100 0.01592000
vt 0.24897500 0.00814400
vt 0.27352000 0.00662400
vt 0.29763700 0.01198900
vt 0.31902700 0.02429600
vt 0.33598900 0.04182300
vt 0.34762400 0.06338500
vt 0.38204900 0.15528200
vt 0.41222700 0.24865800
vt 0.43814700 0.34349700
vt 0.45641900 0.42328100
vt 0.47176700 0.50388000
vt 0.48428500 0.58519000
vt 0.49410900 0.66711700
vt 0.50140100 0.74954200
vt 0.50635500 0.83234800
vt 0.50919100 0.91539000
vt 0.25884800 0.25627100
vt 0.25884800 0.12960100
vt 0.34330000 0.19293600
vt 0.25884800 0.19293600
vt 0.21662300 0.19293600
vt 0.21662300 0.12960100
vt 0.25884800 0.16126900
vt 0.21662300 0.16126900
vt 0.25884800 0.06480100
vt 0.21662300 0.06480100
vt 0.25884800 0.09720100
vt 0.21662300 0.09720100
vt 0.25884800 0.03240000
vt 0.30107400 0.06480100
vt 0.30107400 0.03240000
vt 0.34330000 0.50820600
vt 0.34330000 0.63160400
f 5/5/5 2/2/2 1/1/1
f 1/1/1 4/4/4 5/5/5
f 6/6/6 3/3/3 2/2/2
f 2/2/2 5/5/5 6/6/6
f 8/8/8 5/5/5 4/4/4
f 4/4/4 7/7/7 8/8/8
f 9/9/9 6/6/6 5/5/5
f 5/5/5 8/8/8 9/9/9
f 17/17/17 1/1/1 16/16/16
f 16/16/16 1/1/1 15/15/15
f 1/1/1 17/17/17 18/18/18
f 4/4/4 19/19/19 20/20/20
f 14/14/14 15/15/15 1/1/1
f 19/19/19 4/4/4 1/1/1
f 4/4/4 20/20/20 21/21/21
f 18/18/18 19/19/19 1/1/1
f 3/3/3 11/11/11 12/12/12
f 11/11/11 34/34/34 10/10/10
f 13/13/13 3/3/3 12/12/12
f 13/13/13 2/2/2 3/3/3
f 1/1/1 2/2/2 14/14/14
f 3/3/3 34/34/34 11/11/11
f 34/34/34 3/3/3 6/6/6
f 2/2/2 13/13/13 14/14/14
f 7/7/7 21/21/21 22/22/22
f 24/24/24 7/7/7 23/23/23
f 22/22/22 23/23/23 7/7/7
f 7/7/7 25/25/25 26/26/26
f 26/26/26 27/27/27 7/7/7
f 25/25/25 7/7/7 24/24/24
f 28/28/28 7/7/7 27/27/27
f 32/32/32 33/33/33 9/9/9
f 6/6/6 9/9/9 33/33/33
f 9/9/9 8/8/8 29/29/29
f 34/34/34 6/6/6 33/33/33
f 8/8/8 28/28/28 29/29/29
f 9/9/9 31/31/31 32/32/32
f 9/9/9 30/30/30 31/31/31
f 9/9/9 29/29/29 30/30/30
f 28/28/28 8/8/8 7/7/7
f 21/21/21 7/7/7 4/4/4
f 83/83/83 81/81/81 80/80/80
f 80/80/80 82/82/82 83/83/83
f 77/77/77 83/83/83 82/82/82
f 82/82/82 73/73/73 77/77/77
f 84/84/84 80/80/80 81/81/81
f 80/80/80 84/84/84 86/86/86
f 86/86/86 85/85/85 80/80/80
f 79/79/79 77/77/77 73/73/73
f 73/73/73 78/78/78 79/79/79
f 76/76/76 79/79/79 78/78/78
f 78/78/78 75/75/75 76/76/76
f 74/74/74 75/75/75 78/78/78
f 78/78/78 73/73/73 74/74/74
f 72/72/72 75/75/75 74/74/74
f 74/74/74 35/35/35 72/72/72
f 86/86/86 59/59/59 60/60/60
f 58/58/58 59/59/59 86/86/86
f 84/84/84 57/57/57 58/58/58
f 86/86/86 84/84/84 58/58/58
f 56/56/56 57/57/57 84/84/84
f 85/85/85 86/86/86 60/60/60
f 62/62/62 73/73/73 61/61/61
f 63/63/63 74/74/74 62/62/62
f 74/74/74 73/73/73 62/62/62
f 82/82/82 80/80/80 85/85/85
f 85/85/85 73/73/73 82/82/82
f 73/73/73 85/85/85 61/61/61
f 61/61/61 85/85/85 60/60/60
f 56/56/56 84/84/84 55/55/55
f 84/84/84 81/81/81 54/54/54
f 55/55/55 84/84/84 54/54/54
f 54/54/54 81/81/81 53/53/53
f 52/52/52 53/53/53 81/81/81
f 52/52/52 81/81/81 51/51/51
f 50/50/50 83/83/83 77/77/77
f 50/50/50 51/51/51 83/83/83
f 76/76/76 49/49/49 79/79/79
f 77/77/77 49/49/49 50/50/50
f 77/77/77 79/79/79 49/49/49
f 81/81/81 83/83/83 51/51/51
f 87/87/87 65/65/65 66/66/66
f 87/87/87 66/66/66 67/67/67
f 63/63/63 64/64/64 35/35/35
f 35/35/35 64/64/64 87/87/87
f 68/68/68 88/88/88 67/67/67
f 70/70/70 71/71/71 40/40/40
f 36/36/36 37/37/37 71/71/71
f 42/42/42 68/68/68 69/69/69
f 70/70/70 41/41/41 69/69/69
f 71/71/71 38/38/38 40/40/40
f 38/38/38 71/71/71 37/37/37
f 40/40/40 38/38/38 39/39/39
f 87/87/87 46/46/46 35/35/35
f 87/87/87 64/64/64 65/65/65
f 47/47/47 35/35/35 46/46/46
f 49/49/49 76/76/76 48/48/48
f 76/76/76 75/75/75 48/48/48
f 48/48/48 72/72/72 47/47/47
f 35/35/35 47/47/47 72/72/72
f 75/75/75 72/72/72 48/48/48
f 87/87/87 88/88/88 44/44/44
f 87/87/87 45/45/45 46/46/46
f 69/69/69 41/41/41 42/42/42
f 43/43/43 44/44/44 88/88/88
f 88/88/88 87/87/87 67/67/67
f 68/68/68 43/43/43 88/88/88
f 68/68/68 42/42/42 43/43/43
f 45/45/45 87/87/87 44/44/44
f 40/40/40 41/41/41 70/70/70
f 63/63/63 35/35/35 74/74/74

