mtllib material.mtl
usemtl ??_(2)
v 0.28499700 -0.04435300 0.16625100
v 0.28499700 -0.04426000 0.16748800
v 0.28499700 -0.04398400 0.16869700
v 0.28499700 -0.04353100 0.16985200
v 0.28499700 -0.04291100 0.17092600
v 0.28499700 -0.04213700 0.17189600
v 0.28499700 -0.04122800 0.17274000
v 0.28499700 -0.04020300 0.17343900
v 0.28499700 -0.03908500 0.17397700
v 0.28499700 -0.03790000 0.17434300
v 0.28499700 -0.03667300 0.17452700
v 0.28499700 -0.03543300 0.17452700
v 0.28499700 -0.03420600 0.17434300
v 0.28499700 -0.03302100 0.17397700
v 0.28499700 -0.03190300 0.17343900
v 0.28499700 -0.03087800 0.17274000
v 0.28499700 -0.02996900 0.17189600
v 0.28499700 -0.02919500 0.17092600
v 0.28499700 -0.02857500 0.16985200
v 0.28499700 -0.02812200 0.16869700
v 0.28499700 -0.02784600 0.16748800
v 0.28499700 -0.02775300 0.16625100
v 0.28499700 -0.02784600 0.16501400
v 0.28499700 -0.02812200 0.16380400
v 0.28499700 -0.02857500 0.16264900
v 0.28499700 -0.02919500 0.16157500
v 0.28499700 -0.02996900 0.16060500
v 0.28499700 -0.03087800 0.15976100
v 0.28499700 -0.03190300 0.15906300
v 0.28499700 -0.03302100 0.15852400
v 0.28499700 -0.03420600 0.15815900
v 0.28499700 -0.03543300 0.15797400
v 0.28499700 -0.03667300 0.15797400
v 0.28499700 -0.03790000 0.15815900
v 0.28499700 -0.03908500 0.15852400
v 0.28499700 -0.04020300 0.15906300
v 0.28499700 -0.04122800 0.15976100
v 0.28499700 -0.04213700 0.16060500
v 0.28499700 -0.04291100 0.16157500
v 0.28499700 -0.04353100 0.16264900
v 0.28499700 -0.04398400 0.16380400
v 0.28499700 -0.04426000 0.16501400
v 0.28499700 -0.04335300 0.16625100
v 0.28499700 -0.04326300 0.16510900
v 0.28499700 -0.04299600 0.16399500
v 0.28499700 -0.04255700 0.16293700
v 0.28499700 -0.04195900 0.16196000
v 0.28499700 -0.04121500 0.16108900
v 0.28499700 -0.04034400 0.16034500
v 0.28499700 -0.03936700 0.15974600
v 0.28499700 -0.03830900 0.15930800
v 0.28499700 -0.03719500 0.15904100
v 0.28499700 -0.03605300 0.15895100
v 0.28499700 -0.03491100 0.15904100
v 0.28499700 -0.03379700 0.15930800
v 0.28499700 -0.03273900 0.15974600
v 0.28499700 -0.03176200 0.16034500
v 0.28499700 -0.03089100 0.16108900
v 0.28499700 -0.03014700 0.16196000
v 0.28499700 -0.02954900 0.16293700
v 0.28499700 -0.02911000 0.16399500
v 0.28499700 -0.02884300 0.16510900
v 0.28499700 -0.02875300 0.16625100
v 0.28499700 -0.02884300 0.16739300
v 0.28499700 -0.02911000 0.16850600
v 0.28499700 -0.02954900 0.16956500
v 0.28499700 -0.03014700 0.17054100
v 0.28499700 -0.03089100 0.17141300
v 0.28499700 -0.03176200 0.17215600
v 0.28499700 -0.03273900 0.17275500
v 0.28499700 -0.03379700 0.17319300
v 0.28499700 -0.03491100 0.17346100
v 0.28499700 -0.03605300 0.17355100
v 0.28499700 -0.03719500 0.17346100
v 0.28499700 -0.03830900 0.17319300
v 0.28499700 -0.03936700 0.17275500
v 0.28499700 -0.04034400 0.17215600
v 0.28499700 -0.04121500 0.17141300
v 0.28499700 -0.04195900 0.17054100
v 0.28499700 -0.04255700 0.16956500
v 0.28499700 -0.04299600 0.16850600
v 0.28499700 -0.04326300 0.16739300
vn 1.00000000 -0.00000000 -0.00000000
vn 1.00000000 -0.00000000 -0.00000000
vn 1.00000000 -0.00000000 -0.00000000
vn 1.00000000 -0.00000000 -0.00000000
vn 1.00000000 -0.00000000 -0.00000000
vn 1.00000000 -0.00000000 -0.00000000
vn 1.00000000 -0.00000000 -0.00000000
vn 1.00000000 -0.00000000 -0.00000000
vn 1.00000000 -0.00000000 -0.00000000
vn 1.00000000 -0.00000000 -0.00000000
vn 1.00000000 -0.00000000 -0.00000000
vn 1.00000000 -0.00000000 -0.00000000
vn 1.00000000 -0.00000000 -0.00000000
vn 1.00000000 -0.00000000 -0.00000000
vn 1.00000000 -0.00000000 -0.00000000
vn 1.00000000 -0.00000000 -0.00000000
vn 1.00000000 -0.00000000 -0.00000000
vn 1.00000000 -0.00000000 -0.00000000
vn 1.00000000 -0.00000000 -0.00000000
vn 1.00000000 -0.00000000 -0.00000000
vn 1.00000000 -0.00000000 -0.00000000
vn 1.00000000 -0.00000000 -0.00000000
vn 1.00000000 -0.00000000 -0.00000000
vn 1.00000000 -0.00000000 -0.00000000
vn 1.00000000 -0.00000000 -0.00000000
vn 1.00000000 -0.00000000 -0.00000000
vn 1.00000000 -0.00000000 -0.00000000
vn 1.00000000 -0.00000000 -0.00000000
vn 1.00000000 -0.00000000 -0.00000000
vn 1.00000000 -0.00000000 -0.00000000
vn 1.00000000 -0.00000000 -0.00000000
vn 1.00000000 -0.00000000 -0.00000000
vn 1.00000000 -0.00000000 -0.00000000
vn 1.00000000 -0.00000000 -0.00000000
vn 1.00000000 -0.00000000 -0.00000000
vn 1.00000000 -0.00000000 -0.00000000
vn 1.00000000 -0.00000000 -0.00000000
vn 1.00000000 -0.00000000 -0.00000000
vn 1.00000000 -0.00000000 -0.00000000
vn 1.00000000 -0.00000000 -0.00000000
vn 1.00000000 -0.00000000 -0.00000000
vn 1.00000000 -0.00000000 -0.00000000
vn 1.00000000 -0.00000000 -0.00000000
vn 1.00000000 -0.00000000 -0.00000000
vn 1.00000000 -0.00000000 -0.00000000
vn 1.00000000 -0.00000000 -0.00000000
vn 1.00000000 -0.00000000 -0.00000000
vn 1.00000000 -0.00000000 -0.00000000
vn 1.00000000 -0.00000000 -0.00000000
vn 1.00000000 -0.00000000 -0.00000000
vn 1.00000000 -0.00000000 -0.00000000
vn 1.00000000 -0.00000000 -0.00000000
vn 1.00000000 -0.00000000 -0.00000000
vn 1.00000000 -0.00000000 -0.00000000
vn 1.00000000 -0.00000000 -0.00000000
vn 1.00000000 -0.00000000 -0.00000000
vn 1.00000000 -0.00000000 -0.00000000
vn 1.00000000 -0.00000000 -0.00000000
vn 1.00000000 -0.00000000 -0.00000000
vn 1.00000000 -0.00000000 -0.00000000
vn 1.00000000 -0.00000000 -0.00000000
vn 1.00000000 -0.00000000 -0.00000000
vn 1.00000000 -0.00000000 -0.00000000
vn 1.00000000 -0.00000000 -0.00000000
vn 1.00000000 -0.00000000 -0.00000000
vn 1.00000000 -0.00000000 -0.00000000
vn 1.00000000 -0.00000000 -0.00000000
vn 1.00000000 -0.00000000 -0.00000000
vn 1.00000000 -0.00000000 -0.00000000
vn 1.00000000 -0.00000000 -0.00000000
vn 1.00000000 -0.00000000 -0.00000000
vn 1.00000000 -0.00000000 -0.00000000
vn 1.00000000 -0.00000000 -0.00000000
vn 1.00000000 -0.00000000 -0.00000000
vn 1.00000000 -0.00000000 -0.00000000
vn 1.00000000 -0.00000000 -0.00000000
vn 1.00000000 -0.00000000 -0.00000000
vn 1.00000000 -0.00000000 -0.00000000
vn 1.00000000 -0.00000000 -0.00000000
vn 1.00000000 -0.00000000 -0.00000000
vn 1.00000000 -0.00000000 -0.00000000
vn 1.00000000 -0.00000000 -0.00000000
vt 1.00000000 0.50000000
vt 0.99441500 0.57473000
vt 0.97778600 0.64779100
vt 0.95048400 0.71755000
vt 0.91311900 0.78245000
vt 0.86652600 0.84104000
vt 0.81174500 0.89201200
vt 0.75000000 0.93422700
vt 0.68267100 0.96674200
vt 0.61126000 0.98883100
vt 0.53736500 1.00000000
vt 0.46263500 1.00000000
vt 0.38874000 0.98883100
vt 0.31732900 0.96674200
vt 0.25000000 0.93422700
vt 0.18825500 0.89201200
vt 0.13347400 0.84104000
vt 0.08688100 0.78245000
vt 0.04951600 0.71755000
vt 0.02221400 0.64779100
vt 0.00558500 0.57473000
vt 0.00000000 0.50000000
vt 0.00558500 0.42527000
vt 0.02221400 0.35220900
vt 0.04951600 0.28245000
vt 0.08688100 0.21755000
vt 0.13347400 0.15896000
vt 0.18825500 0.10798800
vt 0.25000000 0.06577300
vt 0.31732900 0.03325800
vt 0.38874000 0.01116900
vt 0.46263500 0.00000000
vt 0.53736500 0.00000000
vt 0.61126000 0.01116900
vt 0.68267100 0.03325800
vt 0.75000000 0.06577300
vt 0.81174500 0.10798800
vt 0.86652600 0.15896000
vt 0.91311900 0.21755000
vt 0.95048400 0.28245000
vt 0.97778600 0.35220900
vt 0.99441500 0.42527000
vt 0.93975900 0.50000000
vt 0.93434500 0.43101400
vt 0.91823600 0.36372600
vt 0.89182800 0.29979400
vt 0.85577300 0.24079100
vt 0.81095700 0.18817100
vt 0.75848400 0.14323000
vt 0.69964600 0.10707300
vt 0.63589300 0.08059200
vt 0.56879300 0.06443700
vt 0.50000000 0.05900800
vt 0.43120700 0.06443700
vt 0.36410700 0.08059200
vt 0.30035400 0.10707300
vt 0.24151600 0.14323000
vt 0.18904300 0.18817100
vt 0.14422700 0.24079100
vt 0.10817200 0.29979400
vt 0.08176400 0.36372600
vt 0.06565500 0.43101400
vt 0.06024100 0.50000000
vt 0.06565500 0.56898600
vt 0.08176400 0.63627400
vt 0.10817200 0.70020600
vt 0.14422700 0.75920900
vt 0.18904300 0.81182900
vt 0.24151600 0.85677000
vt 0.30035400 0.89292700
vt 0.36410700 0.91940800
vt 0.43120700 0.93556300
vt 0.50000000 0.94099200
vt 0.56879300 0.93556300
vt 0.63589300 0.91940800
vt 0.69964600 0.89292700
vt 0.75848400 0.85677000
vt 0.81095700 0.81182900
vt 0.85577300 0.75920900
vt 0.89182800 0.70020600
vt 0.91823600 0.63627400
vt 0.93434500 0.56898600
f 26/26/26 25/25/25 60/60/60
f 58/58/58 27/27/27 59/59/59
f 28/28/28 27/27/27 58/58/58
f 26/26/26 59/59/59 27/27/27
f 59/59/59 26/26/26 60/60/60
f 62/62/62 24/24/24 23/23/23
f 24/24/24 62/62/62 61/61/61
f 25/25/25 24/24/24 61/61/61
f 61/61/61 60/60/60 25/25/25
f 63/63/63 62/62/62 23/23/23
f 31/31/31 30/30/30 55/55/55
f 53/53/53 32/32/32 54/54/54
f 31/31/31 54/54/54 32/32/32
f 33/33/33 32/32/32 53/53/53
f 54/54/54 31/31/31 55/55/55
f 57/57/57 28/28/28 58/58/58
f 29/29/29 56/56/56 30/30/30
f 55/55/55 30/30/30 56/56/56
f 57/57/57 56/56/56 29/29/29
f 57/57/57 29/29/29 28/28/28
f 63/63/63 22/22/22 21/21/21
f 20/20/20 64/64/64 21/21/21
f 21/21/21 64/64/64 63/63/63
f 63/63/63 23/23/23 22/22/22
f 65/65/65 64/64/64 20/20/20
f 19/19/19 65/65/65 20/20/20
f 67/67/67 18/18/18 17/17/17
f 19/19/19 18/18/18 66/66/66
f 66/66/66 18/18/18 67/67/67
f 19/19/19 66/66/66 65/65/65
f 67/67/67 17/17/17 68/68/68
f 16/16/16 68/68/68 17/17/17
f 15/15/15 69/69/69 16/16/16
f 16/16/16 69/69/69 68/68/68
f 70/70/70 69/69/69 15/15/15
f 15/15/15 14/14/14 70/70/70
f 71/71/71 70/70/70 14/14/14
f 13/13/13 71/71/71 14/14/14
f 12/12/12 72/72/72 13/13/13
f 71/71/71 13/13/13 72/72/72
f 72/72/72 12/12/12 73/73/73
f 34/34/34 33/33/33 52/52/52
f 35/35/35 34/34/34 51/51/51
f 52/52/52 51/51/51 34/34/34
f 36/36/36 35/35/35 50/50/50
f 50/50/50 35/35/35 51/51/51
f 48/48/48 37/37/37 49/49/49
f 36/36/36 50/50/50 49/49/49
f 38/38/38 37/37/37 48/48/48
f 36/36/36 49/49/49 37/37/37
f 39/39/39 38/38/38 47/47/47
f 48/48/48 47/47/47 38/38/38
f 40/40/40 39/39/39 46/46/46
f 47/47/47 46/46/46 39/39/39
f 45/45/45 40/40/40 46/46/46
f 41/41/41 45/45/45 44/44/44
f 43/43/43 42/42/42 44/44/44
f 41/41/41 44/44/44 42/42/42
f 1/1/1 42/42/42 43/43/43
f 41/41/41 40/40/40 45/45/45
f 76/76/76 75/75/75 9/9/9
f 77/77/77 8/8/8 7/7/7
f 76/76/76 8/8/8 77/77/77
f 78/78/78 77/77/77 7/7/7
f 8/8/8 76/76/76 9/9/9
f 12/12/12 11/11/11 73/73/73
f 74/74/74 73/73/73 11/11/11
f 74/74/74 10/10/10 75/75/75
f 9/9/9 75/75/75 10/10/10
f 11/11/11 10/10/10 74/74/74
f 3/3/3 82/82/82 81/81/81
f 3/3/3 2/2/2 82/82/82
f 2/2/2 43/43/43 82/82/82
f 4/4/4 3/3/3 81/81/81
f 7/7/7 6/6/6 78/78/78
f 79/79/79 78/78/78 6/6/6
f 5/5/5 79/79/79 6/6/6
f 5/5/5 4/4/4 80/80/80
f 81/81/81 80/80/80 4/4/4
f 79/79/79 5/5/5 80/80/80
f 43/43/43 2/2/2 1/1/1
f 33/33/33 53/53/53 52/52/52

