####
#
# OBJ File Generated by Meshlab
#
####
# Object omni_chassis_base_link_2.obj
#
# Vertices: 274
# Faces: 105
#
####
mtllib ./omni_chassis_base_link_2.obj.mtl

vn -2.5104744618505146 41.6870821480706653 10.2330641800174789
v -0.0225704186046512 0.2922877674418605 0.1509999767441861
vn -0.0025900541724876 0.1603630420542459 0.0476745426364494
v -0.0102433333333333 0.2912968333333334 0.1567255625000001
vn -0.1963102093488873 4.4056508660047502 1.1675762968419410
v -0.0180759347826087 0.2915947826086956 0.1546235217391305
vn -0.0901367621475054 1.6385598285193561 0.4451106765050651
v -0.0230240943396226 0.2914306226415096 0.1542258113207547
vn -0.1064877012153752 2.5051137190702821 0.6502778244750766
v -0.0171352051282051 0.2924872115384615 0.1513396025641026
vn -0.0159408959240649 1.2254384280350445 0.3632947938430338
v -0.0016811578947368 0.2913498421052633 0.1570124210526316
vn -0.0699491465924725 1.9048289875287685 0.5088699048629209
v -0.0102961223021583 0.2926001223021579 0.1518832517985609
vn -0.0774748808813042 1.3934962125960544 0.3887295192292741
v -0.0221430000000000 0.2908264000000001 0.1565674000000000
vn -0.0293841021891728 1.8193148487557809 0.5408665376701527
v -0.0023560000000000 0.2917237407407408 0.1557180740740741
vn 15.0674914180449004 -1387.0498550545214584 -88.3362589624690457
v 0.0041780539568345 -0.2984150848920863 0.0509769654676258
vn 47.6721290731725418 -978.9910750387896314 -106.8745067919407177
v 0.0183797890466531 -0.2965706673427998 0.0345773255578093
vn 6.3733385787825299 -53.5987762833080694 -1.5929717329322342
v 0.0446650740740741 -0.2963661851851852 0.0632325555555556
vn 0.0722528275384123 -4.1255960230713473 100.9156010991222701
v 0.0042696831683168 -0.1285941584158416 0.2219467326732673
vn 0.0001232115483133 -0.0791405489590047 1.9710930503181627
v 0.0021292463768116 -0.1245800724637681 0.2221094057971015
vn -0.1240249597222857 -22.8304819213514527 539.5152784642598363
v -0.0023351907407407 -0.1369054351851851 0.2216016425925926
vn 38.2853894393312046 -1251.8623797879467929 -79.3246533829977807
v 0.0115749513944223 -0.2982744302788839 0.0512047067729085
vn 33.0060797845525542 -518.8728499305905189 -56.4896245679787583
v 0.0235735812619503 -0.2963291108986613 0.0349749139579350
vn 0.0000407034422189 -0.0261444061520210 0.6511587037087462
v 0.0027511428571429 -0.1266564285714285 0.2220260000000000
vn -0.6514386606143585 -22.4122328304184038 524.5196359461050406
v -0.0092521961904762 -0.1375616723809524 0.2215678742857144
vn 7.7922353100967845 -149.7216585028658926 -4.7110297163080164
v 0.0195843466666667 -0.2984871733333335 0.0626626133333333
vn 6.3319829627504181 -88.6877240669458331 -3.8958463401373491
v 0.0270330337078652 -0.2978560000000003 0.0581064943820224
vn 89.4533133143882111 -961.8593123724504039 -61.0335272502808976
v 0.0346962799586776 -0.2968587499999990 0.0511982592975208
vn 62.0160379235960519 -1249.8815759266888108 -79.5836897478739189
v 0.0186668309409888 -0.2979812503987240 0.0510528899521531
vn 15.2372117922111485 -1233.2095180719854852 -137.5626663642283916
v 0.0047084311039484 -0.2969094657534238 0.0338996027397260
vn 10.0619525168255475 -112.4989783164718347 -3.3895606143817760
v 0.0335814955752212 -0.2975196371681415 0.0632058495575221
vn 3.6943411123062244 -35.7756709580033174 -1.5605621799338205
v 0.0387217777777778 -0.2968179166666667 0.0576880555555555
vn 11.4872619465938346 -161.5100959913343956 -5.0754446618922300
v 0.0268400370370370 -0.2980396296296299 0.0626332222222222
vn 8.1321368709400570 -156.6342648850282444 -6.9240397859370368
v 0.0195337579617834 -0.2983127834394907 0.0579714076433122
vn 192.4115809681138956 -1729.3394235883527017 -110.3723560567649997
v 0.0412303721330275 -0.2961829667431188 0.0510350665137614
vn 57.2326067412019768 -851.3596704865601623 -53.7218071357366753
v 0.0252397146198831 -0.2976016783625725 0.0510930690058480
vn 23.8339504511157330 -772.7476095035661956 -86.7840737481343893
v 0.0116558573264782 -0.2967243419023138 0.0335859614395887
vn 17.0469369195559359 -155.9961537949100432 -4.7138227054620208
v 0.0410146942675159 -0.2967665732484079 0.0629673121019108
vn 2.8600397158186102 0.0580569944839743 -0.1764704508349934
v 0.2985636842105263 0.0064279473684211 0.0539981578947368
vn 77.6560281200536480 3.0484444301247664 -6.6377987256403737
v 0.2975661153846155 0.0148669615384615 0.0432058461538462
vn 1.3533759666390766 0.0628745717629754 -0.0863428287878635
v 0.2977317177700351 0.0210510766550523 0.0492099790940766
vn 1.7486840793439320 0.0796816445861903 -0.1134952090352924
v 0.2980601764705883 0.0204565882352941 0.0538533529411765
vn 3.6676704964632245 0.0382331521089782 -0.2726502881623722
v 0.2982997200000001 0.0024981600000000 0.0490135200000000
vn 6.2706006448134559 0.0886300387077193 -0.3830511761414924
v 0.2985160909090909 0.0045106363636364 0.0526114545454545
vn 1.6229003678990668 0.0138472024002532 -0.1281930668615841
v 0.2978444583333328 0.0062411166666667 0.0436543000000001
vn 2.0009597137196717 -0.3735261625367350 -0.1545992824321603
v 0.2910349436619717 -0.0719874788732394 0.0438711549295774
vn 0.0297083213154501 -1.4438394659876750 -0.0566996399950003
v 0.0039738571428571 -0.2988078109243696 0.0582916848739495
vn 0.0326678567377343 -1.5392741914844261 -0.0581559120634187
v 0.0117840225352113 -0.2987886112676056 0.0620277690140847
vn 0.6599850005731982 -76.9642140521112310 -2.2398702783872215
v 0.0032537532467532 -0.2990071558441559 0.0635139610389610
vn 0.2802297345885507 -0.0523114666786407 -0.0216512684320911
v 0.2909001865284969 -0.0745515569948185 0.0483220595854922
vn 0.0335512657750121 -1.5942759366686943 -0.0608871611211338
v 0.0117959362549801 -0.2986558207171314 0.0585197529880478
vn 0.0352614558811332 -1.6997672858539425 -0.0660891423142418
v 0.0043132827004219 -0.2989374894514765 0.0617717552742617
vn 17.9391991061332092 -1.0526329099795102 -1.0377392896262023
v 0.2979592777777779 -0.0221574444444444 0.0537483888888889
vn 0.0000000000000000 0.0000000000000000 0.0000000000000000
v 0.2921965454545455 -0.0651248701298701 0.0431432857142857
vn 1.0203332869731405 -0.1815922562222463 -0.0688662026130015
v 0.2915079329268290 -0.0719652743902440 0.0500589247967480
vn 0.7981870303205136 -0.1490003703612710 -0.0616699783049686
v 0.2914072340425534 -0.0700322978723404 0.0439657659574468
vn 3.3474876933918978 -0.5615238966260478 -0.2078203832145591
v 0.2927108187134504 -0.0653501140350877 0.0504376666666667
vn 210.7482434225547365 -32.5291180719905313 -17.9320069712741059
v 0.2934934205607478 -0.0573815280373832 0.0435704719626168
vn 1.8643158472453272 -0.1935939340550910 -0.1184558506442503
v 0.2963227777777779 -0.0413654444444444 0.0534937777777778
vn 2.4782202107532587 -0.2981704452674828 -0.1924873094398558
v 0.2951111428571428 -0.0473962857142857 0.0461147142857143
vn 66.6771797827739476 -3.5977169320848033 -5.4895128460267744
v 0.2973905074626865 -0.0204803731343284 0.0442049253731343
vn 3.0121770795176221 -0.5219217657980819 -0.1951735131674773
v 0.2925652235294115 -0.0673952882352941 0.0536597352941177
vn 2.4024708289965808 -0.2055315125790704 -0.1802377630436867
v 0.2969300000000000 -0.0309345000000000 0.0474135000000000
vn 2.7778713008069857 -0.2342052771677746 -0.2114232307640317
v 0.2966430000000000 -0.0326130000000000 0.0455020000000000
vn 1.6103001600326570 -0.1707604941676246 -0.1060375915102476
v 0.2960357447988909 -0.0421254479889044 0.0502183966712899
vn 1.3533925772868438 -0.2196077258614976 -0.0832035730583151
v 0.2943104871794873 -0.0567946666666667 0.0538766666666666
vn 1.5660866003236347 -0.1556191139308060 -0.1036492471690683
v 0.2967274049479168 -0.0354758151041667 0.0502637656250000
vn 2.7319713724973020 -0.3377590959419476 -0.2172985507714137
v 0.2950925000000000 -0.0463360909090909 0.0442324090909091
vn 1.5231424554457682 -0.2465243192464565 -0.0952012552805419
v 0.2938600815789477 -0.0576344710526317 0.0488452236842106
vn 1.9562485343270120 -0.2027722412987011 -0.1247951291050592
v 0.2967643750000000 -0.0372940625000000 0.0537899375000000
vn 0.7161807293984402 -0.0920394244258673 -0.0589337876674759
v 0.2947451208791208 -0.0482473186813187 0.0429958021978022
vn 48.7991076874249714 -2.8433469608228128 -3.3847752961233759
v 0.2976623061224490 -0.0219546326530612 0.0489571224489796
vn 2.1062392031902664 -0.3750209453882254 -0.1424400389451742
v 0.2920240063291138 -0.0703209493670886 0.0533692594936709
vn 0.5937001593503050 -0.0475140980137017 -0.0474180131925341
v 0.2966873442622951 -0.0296267540983606 0.0430649180327869
vn 3.0937326185094518 0.0967065719356709 -0.2215339374173343
v 0.2984870000000000 0.0104360000000000 0.0541480000000000
vn 2.5635529289271859 0.0281771244351505 -0.1478670869625320
v 0.2985530000000000 0.0035380000000000 0.0530660000000000
vn 3.2360772701124829 0.1231438262769745 -0.2018414043805259
v 0.2980552370370371 0.0149221333333333 0.0497194370370371
vn 107.4606446581935870 5.9327077858220658 -8.9882384988815787
v 0.2973399259259261 0.0208628981481481 0.0438531203703704
vn 1.5007141916580951 0.2816468343502345 -0.0892132768490051
v 0.2911820769230768 0.0747681153846154 0.0532180769230769
vn 3.0788222754467349 0.1179433629060741 -0.1996298595549950
v 0.2983313043478261 0.0149261304347826 0.0541480000000000
vn 2.6143795799553970 0.0294598798958104 -0.1699818819854777
v 0.2985240000000000 0.0030770000000000 0.0525030000000000
vn 0.8214465440949416 0.0042571189885901 -0.0668080263253968
v 0.2978567401574804 -0.0023724645669291 0.0432564409448819
vn 4.6721062243794087 0.0860764481550069 -0.3197615444223389
v 0.2982871722689079 0.0063079369747899 0.0495553655462186
vn 1.7732922718299022 0.3328003186963279 -0.1054237105347718
v 0.2911639411764706 0.0746150000000000 0.0524296176470588
vn -8.5943377768805931 -1241.2829664660662274 -137.7357671407923192
v -0.0026310112089672 -0.2969463466773429 0.0340228326661328
vn 3.2038070377837662 0.5857783416984002 -0.1898079507797663
v 0.2918152741312743 0.0710848687258687 0.0522418803088803
vn 3.0350081042031123 0.5274876248918305 -0.1844256246015463
v 0.2925996209150326 0.0672629803921569 0.0538679281045753
vn -52.7214846873809009 -1235.3070237262015780 -78.7175538982689602
v -0.0161370807102502 -0.2980928563357544 0.0509916142050037
vn -0.1316245088834332 -1.3926859286408113 -0.0561719873219099
v -0.0398451257861635 -0.2966991949685535 0.0577942389937107
vn -0.1841821656192187 -1.9076694940862338 -0.0841723843223726
v -0.0334787480314961 -0.2975128897637794 0.0627154251968504
vn -45.8782633230632797 -738.0713014641963809 -46.7985596568721292
v -0.0234009298245614 -0.2977248448043186 0.0511351943319838
vn 1.1765411160239980 0.1929691525093726 -0.0660435583122623
v 0.2941973414634146 0.0574885853658537 0.0537432439024390
vn -29.7282342242680713 -1147.4620381671613814 -127.7874267517091482
v -0.0098124744588745 -0.2968278675324680 0.0340194813852814
vn -0.1099427441927121 -1.1494708752021512 -0.0487896794876534
v -0.0312619254385965 -0.2975170263157896 0.0579584254385965
vn -0.1712318530441405 -1.7993507136147260 -0.0747563456864695
v -0.0391878058823529 -0.2969397764705881 0.0622187764705882
vn -0.0550977204506678 -1.2918378907290349 -0.0450537821628359
v -0.0191770099009901 -0.2984776633663367 0.0618516534653466
vn -87.6310515135525492 -1053.1645214843579197 -66.9641667216142196
v -0.0312091029272900 -0.2971573418319164 0.0511237724268176
vn 2.0537479997582460 0.3367340285686539 -0.1156427425464322
v 0.2940127058823530 0.0580920000000000 0.0522212745098039
vn 123.8072940715014596 20.8118501497334343 -10.6879380205683887
v 0.2923078015873015 0.0645329603174603 0.0432276984126984
vn -1.8349897912269806 -24.9100421194887716 -1.0573263807920319
v -0.0275922000000000 -0.2978355600000000 0.0584956800000000
vn -29.4705244925937713 654.9884157587216578 -41.7793912266251013
v -0.0169950608828006 0.2980550365296807 0.0509882709284627
vn -72.1136992344148524 695.1647159063395520 -31.9071930940126336
v -0.0386401528571430 0.2968031700000001 0.0573187114285715
vn -57.8679047747046980 699.1094353485217425 -22.0755922969121521
v -0.0308431623931624 0.2977306566951570 0.0626118276353276
vn -7.1439523143973904 1133.5870489957778773 -129.0377152994654182
v -0.0022773426818580 0.2968356327782659 0.0330141971954425
vn 0.1182456504660532 1.4587688441589459 0.1153407961979761
v 0.0262322020202020 0.2966548383838384 0.1210104646464646
vn 0.0271814949890608 0.8256182704024907 0.1182787331326344
v 0.0126469166666667 0.2953851180555555 0.1376212361111111
vn 0.1635455296320862 3.1250123578940743 0.2440385625578584
v 0.0188566825396826 0.2974934126984128 0.1159345793650794
vn 0.0329441215384233 1.5520922474260461 0.2204382233206766
v 0.0043440769230769 0.2963458615384617 0.1322327076923077
vn 55.7532156010106092 -2.1095422794788328 -4.7882901462647096
v 0.2975991607142857 -0.0145221964285714 0.0434593571428571
vn 1.9456276043917888 0.1754159116147400 -0.1295402303552187
v 0.2972718571428571 0.0315292857142857 0.0533891428571429
vn -28.7337147328861242 616.6279383329739403 -29.1079734811681803
v -0.0176141715210356 0.2983527669902910 0.0568605938511326
vn -52.3891798907379282 783.8330327029813134 -24.5118374269136901
v -0.0247584414758271 0.2981807684478368 0.0627043702290077
vn 3.5454401442832832 33.7130145229025686 2.6145124732823137
v 0.0396013529411765 0.2957444705882354 0.1177862352941177
vn 0.1065208224522972 1.3410788617585021 0.1082482014784858
v 0.0335660312500000 0.2960191458333335 0.1215318333333333
vn 0.3659209549443072 2.9867629163318625 0.4594439295109051
v 0.0470618494623656 0.2927202473118280 0.1369870430107526
vn -35.7224331430573940 568.2413364893284324 -26.5402494324776548
v -0.0240158596491228 0.2980129684210522 0.0570674684210526
vn -60.8084292259909418 742.9506431516495013 -47.8943745933785436
v -0.0308395435073627 0.2971658888888893 0.0507541030789826
vn -32.8391745699052393 706.8431163367488352 -21.6450752166686726
v -0.0179626737288135 0.2985728898305079 0.0628628262711865
vn 0.1381025350700376 1.2219507963953267 0.1308280218985012
v 0.0409561650000000 0.2951334950000001 0.1231462400000001
vn 0.1476182418875428 1.9011284422415502 0.1568837853881015
v 0.0328226323529412 0.2965006397058821 0.1163965514705883
vn 0.3553516955701409 2.9770257635339634 0.3714175320981828
v 0.0467857284768212 0.2937071059602651 0.1300553377483445
vn 39.2597230285410248 763.6129270976837233 -23.3379450522609311
v 0.0194230562091504 0.2985014522875816 0.0628695372549020
vn 59.2304137665083132 869.9598773880829867 -41.4450629194273219
v 0.0256871958762887 0.2978880538373430 0.0567697411225659
vn 31.4245670684106884 372.9067528089610164 -23.8469546920665678
v 0.0315333493333333 0.2971249520000001 0.0509781520000000
vn -0.4990235277500520 4.0588471005741118 0.5011939871054841
v -0.0462529050279330 0.2937465139664806 0.1302567318435755
vn -0.3275743513428018 2.5791428381947545 0.3865964651886139
v -0.0500000000000000 0.2923700000000000 0.1367929090909091
vn -0.1209591480932794 1.0178650539745731 0.1087897938325929
v -0.0420495937500000 0.2950719687500001 0.1225289375000000
vn -0.0960139458610853 113.9515680193643163 -3.2776172069284040
v -0.0004804473684211 0.2990299561403508 0.0637944561403508
vn -0.0307285453245205 2.0141100684337609 -0.0996133512020104
v -0.0075644888888889 0.2983553629629628 0.0508343333333334
vn -45.8728867825934685 701.0613915184676443 -79.0040308153657094
v -0.0246560325318246 0.2960950919377651 0.0335022461103255
vn 0.0254982899132041 1.1947190767119493 0.0909144790389295
v 0.0048489047619048 0.2975378571428570 0.1210108095238096
vn 0.0824558374823738 2.2818138977255229 0.1777193058117285
v 0.0124016842105263 0.2977261140350878 0.1164186140350877
vn 2.7450903775452726 64.1958904968091986 9.8039476512834245
v 0.0159682461538461 0.2953805692307692 0.1368775230769230
vn 75.7102254777516634 -1.1161150450699129 -6.5146906714583075
v 0.2978162368421052 -0.0054415526315789 0.0431736710526316
vn 3.1037284725206140 0.2975520493056770 -0.1862597885235195
v 0.2969676923076924 0.0350355641025641 0.0535687435897436
vn 8.7776657182198843 583.6510342422726580 -37.1365113064187184
v 0.0052539094017094 0.2984004017094020 0.0509578324786324
vn 46.4773771248988794 916.7853776324927821 -105.1991705502228882
v 0.0190734415584416 0.2963439220779218 0.0328476417748918
vn -0.0269911141320766 1.6412554547313767 0.1281315998253033
v -0.0024445882352941 0.2979419882352942 0.1161251529411765
vn -0.0288951670643411 1.7164333616538983 0.1330124756680716
v -0.0099133000000000 0.2974251833333335 0.1211716833333334
vn -0.0536392033274065 1.4068288617048892 0.1918871883488826
v -0.0165898615384616 0.2961480717948716 0.1310664974358975
vn -0.6826224233221575 11.8643464840053134 1.6638646187406732
v -0.0218676666666667 0.2953754166666667 0.1349085833333333
vn 42.6557694366834852 3.9988690751129035 -3.6618705371889644
v 0.2962388837209304 0.0350884418604651 0.0433971627906977
vn 0.7977072587396448 0.0705992026383198 -0.0513990056147888
v 0.2971514880952379 0.0302970000000000 0.0499125714285715
vn -39.7344981032277715 624.4412454311988085 -40.0610919528174776
v -0.0239710653907495 0.2976663221690589 0.0508009377990430
vn -80.4523887183480042 915.4401169212897003 -41.5968302846189744
v -0.0330674695652173 0.2973431239130438 0.0574612434782611
vn -126.6683328154388875 1243.8587209577790418 -36.1009150988516936
v -0.0383901326938450 0.2970621742605919 0.0635618848920860
vn -35.9054206929512816 1267.0371248475537413 -145.9324038766546892
v -0.0105375141065831 0.2966471050156731 0.0326162021943574
vn 0.1548455479278629 2.0562268769679770 0.1640761951995918
v 0.0272677053571428 0.2970214196428573 0.1153125580357142
vn 0.0510878880107819 1.7591337732929517 0.2512944646452057
v 0.0115745217391304 0.2961926086956519 0.1322311739130434
vn 0.0206719286357160 0.9739139693683548 0.1383215884434584
v 0.0043441363636364 0.2956667045454546 0.1370146022727272
vn 0.1266910632125892 2.5629245419576256 0.2006203569214424
v 0.0188624936708861 0.2971037088607595 0.1209210000000000
vn -28.3355787294228527 1007.0122726809418054 -29.3311782368673235
v -0.0107546061507937 0.2988631924603179 0.0636165238095239
vn -4.0645382716249374 763.0545633915489816 -36.9569016124920893
v -0.0021324057591623 0.2987425209424082 0.0566333285340314
vn 0.3774078337265341 3.2032020510673211 0.3911306974565517
v 0.0420646793893130 0.2942621221374047 0.1301148244274809
vn 0.2174647921380262 1.8873750948678014 0.2045768578586529
v 0.0457798666666666 0.2945022999999999 0.1239497666666667
vn 16.3222843509107278 332.2004023166381899 -16.0548318431204358
v 0.0185791111111111 0.2982985405405408 0.0566538048048050
vn 71.4697320479989884 1017.9305466249795700 -32.4189586410890342
v 0.0264345475024485 0.2980625396669934 0.0625405112634675
vn -0.4436016398376943 3.4559039050653335 0.5277951213572178
v -0.0463680798122065 0.2927229014084507 0.1375159906103288
vn -0.1151060278151460 0.8927448840118161 0.1424527891216261
v -0.0500000000000000 0.2918190000000000 0.1402460000000000
vn -0.1476664226447735 1.1628864617400718 0.1244486566611890
v -0.0500000000000000 0.2933031666666666 0.1299533333333333
vn -1.3510660070033034 11.8912888899879885 0.8774772273166291
v -0.0418928333333333 0.2955746666666667 0.1167469166666667
vn -0.0572243686012250 1.1395551176945315 0.0970757884329434
v -0.0228204743589744 0.2966854615384614 0.1231324102564102
vn -0.1174969408285849 2.8735462261424107 0.2409548644718494
v -0.0169109175257732 0.2975409072164950 0.1165740618556701
vn 31.4477429119617753 603.9285620959677772 -38.7327342388645874
v 0.0196090346534653 0.2979172920792084 0.0507836353135313
vn 67.7322544827866011 770.6323590467990243 -24.0636422915680761
v 0.0331964521963824 0.2975334379844964 0.0627022609819121
vn 73.7858202314283744 691.2479823339753011 -33.2833326414075685
v 0.0403005847701148 0.2966014827586210 0.0566580804597699
vn 0.0150371060586484 0.6760143672739729 -0.0719122953153534
v 0.0049592355154251 0.2967853054928510 0.0327966817155758
vn 0.0601538372757718 2.6854857471485163 -0.2849707933313351
v 0.0083860000000000 0.2964920000000000 0.0307560000000000
vn -0.0220704078299986 1.4317245608418918 0.2029814021282275
v -0.0017844022988506 0.2964189885057473 0.1318192528735632
vn -0.0237767028460971 1.5650370481294660 0.2225275240343253
v -0.0105603888888889 0.2956118666666666 0.1365580444444445
vn 3.2928704941233282 470.6913930523942327 -12.6856196093893967
v 0.0023186135881104 0.2990484946921436 0.0647264182590231
vn 44.5817440139180192 1311.3921406529698288 -81.0837218592157853
v 0.0128743095057034 0.2982340798479076 0.0512623513307983
vn 51.5890314316509091 776.2220427680864532 -88.7408972302991543
v 0.0249058837803321 0.2960073754789274 0.0328625236270754
vn -0.0239039516574522 1.5033480511469319 0.1185776901589208
v -0.0021819534883721 0.2975402093023257 0.1212719186046512
vn -0.0460836620743235 2.0212521377722785 0.1590492789342487
v -0.0106525308641975 0.2978160864197530 0.1159106543209878
vn -3.2409747616855893 53.5100738330812788 6.4726979625379331
v -0.0229609074074074 0.2959122777777777 0.1302659814814815
vn -0.0372836445098493 0.9778614131504307 0.1333773298743016
v -0.0167543961038961 0.2954303311688310 0.1362826493506493
vn 23.2749142136526821 725.6369133775187947 -36.4227591006133125
v 0.0119166987620358 0.2985146657496562 0.0556975337001375
vn 7.5875052766518483 485.7053875520541624 -14.6219374563871138
v 0.0060838415637860 0.2989517942386831 0.0629134279835390
vn -0.0577921000694773 0.4515217162492244 0.0367954452608667
v -0.0455676792452831 0.2951984150943397 0.1158955786163522
vn -0.0844306472887569 0.8254396871202654 0.1454865755998229
v -0.0421563076923077 0.2932502820512821 0.1373878205128205
vn -0.1233877364283326 0.9640113864914199 0.0785592961002087
v -0.0500000000000000 0.2940767142857142 0.1226985714285714
vn -5.4077974153164581 1274.2822711529242952 -40.1540735342549056
v -0.0016841121568627 0.2989809121568626 0.0624690313725489
vn -0.0056349079217548 0.3693414270036098 -0.0182667957715799
v -0.0111763047091413 0.2986128836565098 0.0571553822714682
vn 0.4061253904339902 3.3604102872514470 0.5290711831731855
v 0.0423913942307692 0.2932634519230770 0.1371280576923077
vn 7.2749401018271245 654.1766693733648026 -31.5200415634774522
v 0.0042959145038168 0.2987257725190839 0.0566646381679389
vn 13.7567953781539813 521.5307400221822718 -16.9178823534240337
v 0.0099631072796935 0.2988491781609195 0.0622182356321838
vn -0.5219133591132697 3.9541508037817348 0.3034965190894891
v -0.0499890000000000 0.2944805000000000 0.1180377500000000
vn -0.1198843635905733 0.9994014782090832 0.1390213905193961
v -0.0421195500000000 0.2942529500000000 0.1301804250000001
vn -0.4635527411568623 3.7383004736420062 0.3566960405421559
v -0.0463802383419689 0.2945426580310880 0.1226662279792746
vn -0.0946015525313658 2.1425262574697839 0.1942198703089564
v -0.0217688000000000 0.2971606000000000 0.1184032000000000
vn 38.6217556336379886 561.5477001306055627 -35.4129996095021582
v 0.0258604964539007 0.2975696648936163 0.0512319893617020
vn 52.8399581467460351 584.8938820304297224 -27.6103337544769261
v 0.0340880578231292 0.2972298741496593 0.0569429064625849
vn 55.4046704557092440 517.7935533630014788 -15.7188781822389814
v 0.0401010191938579 0.2968687274472169 0.0630269366602688
vn 0.0110077442173673 0.4786590242041438 -0.0503127818898871
v 0.0121625314787701 0.2965951559297223 0.0325636442166911
vn 0.0482246427619243 2.4055191260638180 -0.2647632286853119
v 0.0073391666666667 0.2965120416666667 0.0307474166666667
vn -0.0531619269609721 2.4349250557156630 0.3428973691331473
v -0.0101310357142857 0.2962298095238096 0.1322727023809524
vn -0.0236791813496459 1.5142136133985000 0.2140517647267920
v -0.0021723636363636 0.2956119292929290 0.1374855151515151
vn -0.1292828280417094 2.6067726303029959 0.2122342485017620
v -0.0175520192307692 0.2970632692307691 0.1220501346153846
vn -0.0115026143741154 0.7539416910090317 -0.0372882592810445
v -0.0037325170603675 0.2984274934383206 0.0511106797900261
vn -30.2011643938995817 262.1204238668029234 -8.5516821025230101
v -0.0430834090909090 0.2965202878787878 0.0622383143939394
vn -46.0530180002735392 984.4385928844832279 -112.7182159084121054
v -0.0175741451612903 0.2964229223790328 0.0329304647177422
vn 0.0282090437076633 1.3217310952251071 0.1005797063880954
v 0.0039361851851852 0.2979514444444443 0.1158317901234568
vn 0.0627557586471260 1.5163316009252301 0.1195631914831650
v 0.0122598560000000 0.2973659360000001 0.1210609280000000
vn 0.0364494531943489 1.1071258043586605 0.1586077273873227
v 0.0160660000000000 0.2959262500000000 0.1330582500000000
vn 31.7843196042241409 2.6283888396122652 -2.6149078250638085
v 0.2966858437500000 0.0308607187500000 0.0442302187500000
vn 3.7728241329991765 0.3569711077389615 -0.2242459397370171
v 0.2968774390243903 0.0350957804878049 0.0521242195121951
vn -0.0687603995042139 -1.7470286992279980 -0.0668771427543417
v -0.0127619600000000 -0.2987840800000000 0.0627924400000000
vn -0.7149168194831090 -83.9079928213764390 -3.8441655611646630
v -0.0031508928571429 -0.2987792261904761 0.0574142500000000
vn 1.1519969241446766 0.1373197282477149 -0.0865012235807549
v 0.2952967888888889 0.0441740333333333 0.0436055222222222
vn 2.1423849040332943 0.2658275488833081 -0.1488611414162468
v 0.2951843333333334 0.0485651666666667 0.0492673333333333
vn -0.0447235552681000 -1.1912998352405233 -0.0478417930689305
v -0.0110896541353383 -0.2986481954887218 0.0578454962406016
vn 2.0118105775661181 0.2426793603806150 -0.1495094829956920
v 0.2949511304347825 0.0477589565217391 0.0446931739130435
vn 4.5619449448546430 0.5475327127745382 -0.3022974626223647
v 0.2956774727272727 0.0449420909090909 0.0498946363636364
vn -31.9840767431182726 -270.5826874734250396 -16.9828627406321786
v -0.0440391904761903 -0.2958896886446887 0.0513664139194139
vn -39.1238247474368492 -1481.3728284767869354 -94.1438351773537505
v -0.0098278323232323 -0.2983177151515141 0.0510781656565655
vn 2.3274462971068601 0.2581141280857875 -0.1499693466423485
v 0.2960640833333333 0.0437858333333333 0.0538676666666667
vn -6.2466284455125463 -53.5872498000452637 -2.3146681842022545
v -0.0437497777777778 -0.2962975000000000 0.0584214259259259
vn -28.1555630456981412 -467.2943241485132262 -51.6489224215002238
v -0.0228272462845011 -0.2962944479830146 0.0342736645435244
vn -0.0031639084213690 -0.8048469450612133 19.9837959038664437
v -0.0023500500000000 -0.1263416000000000 0.2220386500000001
vn 0.7108372377816671 -20.1180990873915668 472.5647050442938166
v 0.0097684312896406 -0.1377083467230443 0.2215609746300213
vn -0.0829696523051897 -2.0435252609012364 -0.0756007082521065
v -0.0175245348837209 -0.2984203488372091 0.0581873953488372
vn 2.9846375876727231 0.5516237593886025 -0.1745155455110618
v 0.2918069914529917 0.0715859059829060 0.0536839145299146
vn 2.8013714507775438 0.4709608102072247 -0.1630873309288317
v 0.2927298370607027 0.0655903833865815 0.0512724174653889
vn -157.3382297505150973 -1530.8040900438809331 -97.2609589827972201
v -0.0386743352788586 -0.2964628391699088 0.0511037068741894
vn -82.8763737702759755 -1375.8724915818545469 -46.3188644639253155
v -0.0233901645746166 -0.2982406638772684 0.0617710083682006
vn -51.5823862469296941 -1121.8272938883860661 -125.1525689017744867
v -0.0173458725663716 -0.2965432345132757 0.0338888778761063
vn -38.5451123123324209 -329.5256231381714542 -11.1250299383057190
v -0.0437658885542169 -0.2964515572289154 0.0625641024096386
vn -6.9210402841911982 -1225.3318865445528445 -78.2198956711610265
v -0.0025751929967427 -0.2984197011400648 0.0508425627035828
vn 0.0000323055128667 -0.0207502953876727 0.5168117174910862
v -0.0005149848942598 -0.1242853383685801 0.2221214048338366
vn -0.0833781841422102 -5.2233304506584721 127.8932443158571317
v -0.0041372031250000 -0.1287502109375000 0.2219404374999999
vn 0.2894553582329786 -11.5834122928235193 273.7535194526522559
v 0.0060457262773722 -0.1366910364963504 0.2216081642335771
vn 0.4693359274084441 14.8922433267792975 351.6833179743780420
v 0.0099893437500000 0.1374957755681817 0.2215696704545452
vn 0.1021532031345627 5.2626352990239802 127.8915287834979466
v 0.0041372109375000 0.1287502109375000 0.2219404218750000
vn 0.2969954607900913 29.6444746187025459 699.3697716837713187
v 0.0036739700000000 0.1371058942857145 0.2215921128571431
vn -0.0000434656605761 0.0239466838077026 0.5941208689955280
v 0.0023117500000000 0.1263416500000000 0.2220386500000000
vn -0.0291645150874384 4.7789930601794666 111.8979185519359447
v -0.0024809910714286 0.1374092321428570 0.2215798660714285
vn -0.0025669106316769 0.5671259723576731 13.9885076597569196
v -0.0027511428571429 0.1266564285714286 0.2220257142857143
vn -0.9313306689613946 27.4360430490353089 647.4109814286487108
v -0.0092406558641975 0.1373092160493828 0.2215786496913578
vn -0.0712748017467697 4.1250742455375615 100.9156226733472579
v -0.0042696732673267 0.1285941584158416 0.2219467326732674
vn -0.0000278352334993 0.0153353596031410 0.3804726051816179
v -0.0004459774919614 0.1241902990353699 0.2221251607717040
vn -0.0001583503811496 0.0872405125784621 2.1644503915844626
v 0.0018277078651685 0.1248487752808988 0.2220987865168541
vn -0.1408165148527162 1.5008645517443280 0.3027184462187832
v -0.0391709298245614 0.2921625263157895 0.1452918771929824
vn -0.1474475788545727 1.4218058152877115 0.3530606818486541
v -0.0391112108843537 0.2907091224489796 0.1517384353741496
vn -0.1098785719798040 0.9541597029143778 0.2555058618901290
v -0.0447803157894737 0.2887639473684211 0.1565645263157895
vn -0.0761196368667809 0.7388582521360595 0.1732435457363889
v -0.0328700000000000 0.2919711176470589 0.1490984705882353
vn -0.5099420644955635 3.7639824516693490 0.6683274007099009
v -0.0448439583333333 0.2920884166666666 0.1424201041666666
vn -0.1571099667685463 1.3643060381629040 0.3653352673540866
v -0.0455934541484716 0.2899970611353714 0.1516099082969433
vn -0.3405101314346443 2.5970617270644567 0.5130275849892979
v -0.0500000000000000 0.2910206875000000 0.1444536875000000
vn -2.2346866149862179 20.0555856447319627 5.8100839515731550
v -0.0405100476190476 0.2893181428571429 0.1563775714285714
vn -0.4106819957454957 3.0291393294426721 0.5919838164687081
v -0.0467071393939394 0.2912352484848483 0.1455530909090909
vn -0.0737225506535189 0.5353442052189989 0.1163304587407288
v -0.0499843333333333 0.2896598333333334 0.1507261666666666
vn -3.1068496587714476 34.0838200737190675 7.3202195578598239
v -0.0335542857142857 0.2923933428571429 0.1469062285714286
vn -0.1591540735626981 1.8580209200977575 0.4203730465666963
v -0.0412755675675676 0.2915168648648647 0.1473488378378378
vn -0.2072819740467039 2.0119906419350793 0.4717608442344078
v -0.0337361333333333 0.2913897555555555 0.1511973333333334
vn 0.0106851030698218 0.4847191173766833 0.1273747994818551
v 0.0120479782608696 0.2926176159420288 0.1516028768115943
vn 0.1429929649722375 2.1288431465063780 0.5849054312576047
v 0.0273402988505747 0.2905429540229884 0.1563306436781610
vn 0.0281280246774969 2.3795689555621098 0.6640937026866864
v 0.0044747500000000 0.2916852500000000 0.1557862500000000
vn 0.1354929220032777 2.6210011086315586 0.6721093082144438
v 0.0187368039215686 0.2924455490196080 0.1511980294117647
vn 0.0903924902081973 1.4438886093507528 0.4024414034240438
v 0.0274789568965517 0.2911336551724137 0.1541684482758620
vn 0.0099217909856072 1.6960157367504960 0.4942291661679192
v 0.0044916666666667 0.2913312222222221 0.1569982500000000
vn 0.2490533184166198 4.5002632006223005 1.2110841427638357
v 0.0194702702702703 0.2915974594594594 0.1543574324324324
vn 0.0147241642227944 0.2677047615576508 0.0778776679701032
v 0.0259790434782609 0.2922174782608696 0.1503525072463768
vn 0.0877127590504281 2.7635057154835385 0.7910631195231093
v 0.0120782000000000 0.2912568500000000 0.1566740000000000
vn 0.0837633864095724 1.3049843775529930 0.3709799165807884
v 0.0190101515151515 0.2909913030303030 0.1565813636363636
vn 0.1143907327690805 3.2996974177425540 0.9327542366424753
v 0.0120266521739130 0.2916994782608696 0.1551334347826087
vn 0.0330365825817448 1.4986718467314049 0.3938219457892108
v 0.0043317564102564 0.2927506153846153 0.1517440448717947
vn 0.2843015419053720 2.4276073132754434 0.4508791981394782
v 0.0407469880952381 0.2923040952380951 0.1437428214285715
vn -0.0244335219891719 -1.0412173626106673 -0.1336362543912776
v 0.0320464827586207 0.2919792413793103 0.1493650000000000
vn 0.2161257788639971 2.2520833724906919 0.5035881612741308
v 0.0402852525252525 0.2906986767676766 0.1512783535353535
vn 0.0545260272266515 0.4437562937134663 0.1191059991605770
v 0.0349720967741936 0.2921770967741936 0.1472885161290323
vn 0.1833413200573420 1.6476592776672561 0.3426425123920350
v 0.0421050555555556 0.2915392222222224 0.1467940000000000
vn 0.1808564712807285 1.9477716046406106 0.4832672412806693
v 0.0339272264150943 0.2910808490566038 0.1523097830188679
vn 0.0714108083215493 0.5519611824552292 0.1052548001030897
v 0.0465250131578947 0.2912655131578949 0.1455534605263158
vn 0.1384747274400330 1.6940976016100004 0.4534774616761592
v 0.0330646000000000 0.2900792666666667 0.1563149000000000
vn 0.8735783574464046 5.3197506536547863 0.9374414705589531
v 0.0460724117647059 0.2920390588235294 0.1418730588235294
vn 0.2166337183861723 2.4816488786925990 0.4818310902092994
v 0.0451020000000000 0.2908190000000000 0.1484930000000000
vn -0.0669081394948530 1.9698450677931980 0.5363701876530906
v -0.0165920714285714 0.2910923428571431 0.1566352714285714
vn -0.0503876976555590 1.3423522078154528 0.3591594350956359
v -0.0089848000000000 0.2916549999999999 0.1555996000000000
vn -1.2615870042504800 189.0693192730687713 47.5997507218999942
v -0.0024312307692308 0.2927214051282052 0.1519215897435896
# 274 vertices, 0 vertices normals


usemtl material_0
vt 0.1428630053997040 0.2857240140438080
vt 0.1428630053997040 0.2678669989109039
vt 0.1250050067901611 0.2678669989109039
f 255/1/255 252/2/252 6/3/6
vt 0.1250050067901611 0.2857240140438080
f 263/3/263 257/4/257 265/1/265
vt 0.1071470007300377 0.2678669989109039
f 262/4/262 266/3/266 270/5/270
vt 0.1071470007300377 0.2857240140438080
f 143/5/143 102/6/102 144/4/144
vt 0.0714320018887520 0.2857240140438080
f 109/5/109 179/7/179 262/6/262
vt 0.0714320018887520 0.2500090003013611
vt 0.1071470007300377 0.2500090003013611
f 193/8/193 157/5/157 156/9/156
f 7/7/7 3/5/3 272/8/272
vt 0.1071470007300377 0.2321510016918182
f 254/10/254 259/8/259 251/9/251
vt 0.0714320018887520 0.2142940014600754
vt 0.1071470007300377 0.2142940014600754
f 7/11/7 272/10/272 273/12/273
f 253/8/253 256/10/256 257/11/257
vt 0.1250050067901611 0.2321510016918182
vt 0.1250050067901611 0.2142940014600754
f 171/13/171 191/14/191 134/12/134
f 157/12/157 185/10/185 156/13/156
vt 0.1428630053997040 0.2321510016918182
vt 0.1428630053997040 0.2142940014600754
f 7/15/7 5/16/5 3/14/3
f 9/14/9 2/13/2 6/15/6
vt 0.1428630053997040 0.7857180237770081
vt 0.1428630053997040 0.7678610086441040
vt 0.1250050067901611 0.7678610086441040
f 169/17/169 133/18/133 132/19/132
vt 0.1250050067901611 0.7857180237770081
f 115/19/115 179/20/179 109/17/109
vt 0.1071470007300377 0.7678610086441040
f 258/20/258 256/19/256 260/21/260
vt 0.1071470007300377 0.7857180237770081
f 253/21/253 260/22/260 256/20/256
vt 0.0714320018887520 0.7857180237770081
f 254/21/254 256/23/256 259/22/259
vt 0.0714320018887520 0.7500039935112000
vt 0.1071470007300377 0.7500039935112000
f 164/24/164 192/21/192 163/25/163
f 251/23/251 269/21/269 267/24/267
vt 0.1071470007300377 0.7321469783782959
f 198/26/198 145/24/145 126/25/126
vt 0.0714320018887520 0.7142900228500366
vt 0.1071470007300377 0.7142900228500366
f 142/27/142 101/26/101 145/28/145
f 268/24/268 264/26/264 271/27/271
vt 0.1250050067901611 0.7321469783782959
vt 0.1250050067901611 0.7142900228500366
f 169/29/169 157/30/157 193/28/193
f 148/28/148 179/26/179 115/29/115
vt 0.1428630053997040 0.7321469783782959
vt 0.1428630053997040 0.7142900228500366
f 250/31/250 261/32/261 252/30/252
f 132/30/132 133/29/133 168/31/168
vt 0.8571450114250183 0.5714349746704102
vt 0.8571450114250183 0.5357220172882080
vt 0.8214319944381714 0.5357220172882080
f 109/33/109 270/34/270 268/35/268
vt 0.8214319944381714 0.5714349746704102
f 258/35/258 260/36/260 255/33/255
vt 0.7857180237770081 0.5357220172882080
f 108/36/108 142/35/142 99/37/99
vt 0.7857180237770081 0.5714349746704102
f 108/37/108 114/38/114 142/36/142
vt 0.8214319944381714 0.4642939865589142
vt 0.8214319944381714 0.4285799860954285
vt 0.7857180237770081 0.4285799860954285
f 164/39/164 163/40/163 191/41/191
vt 0.7857180237770081 0.4642939865589142
f 174/41/174 176/42/176 184/39/184
vt 0.8571450114250183 0.4642939865589142
vt 0.8571450114250183 0.4285799860954285
f 152/43/152 119/44/119 120/40/120
f 119/40/119 184/39/184 154/43/154
vt 0.8928589820861816 0.5357220172882080
vt 0.8928589820861816 0.5178650021553040
vt 0.8750020265579224 0.5178650021553040
f 44/45/44 40/46/40 50/47/50
vt 0.8750020265579224 0.5357220172882080
f 245/47/245 152/48/152 243/45/243
vt 0.8571450114250183 0.5178650021553040
f 48/48/48 40/47/40 50/49/50
f 48/49/48 50/34/50 40/48/40
vt 0.8928589820861816 0.5000079870223999
f 35/50/35 36/47/36 74/46/74
vt 0.9285730123519897 0.5000079870223999
f 113/46/113 148/51/148 149/50/149
vt 0.9285730123519897 0.5357220172882080
f 41/52/41 45/46/45 46/45/46
f 51/51/51 60/46/60 56/52/56
vt 0.8928589820861816 0.4821510016918182
vt 0.9285730123519897 0.4642939865589142
vt 0.8928589820861816 0.4642939865589142
f 51/53/51 56/54/56 67/55/67
f 137/51/137 129/53/129 104/50/104
f 77/54/77 75/53/75 37/51/37
vt 0.8750020265579224 0.4821510016918182
vt 0.8750020265579224 0.4642939865589142
f 119/56/119 121/57/121 184/43/184
vt 0.8571450114250183 0.4821510016918182
f 51/43/51 67/58/67 49/56/49
f 64/53/64 59/55/59 61/57/61
f 161/57/161 162/56/162 190/53/190
vt 0.0001639999973122 0.1964550018310547
f 39/8/39 37/11/37 76/59/76
vt 0.1251370012760162 0.1718659996986389
f 54/60/54 65/11/65 62/12/62
f 137/14/137 201/60/201 129/12/129
vt 0.0001380000030622 0.2997809946537018
f 237/61/237 175/8/175 241/59/241
vt 0.1242209970951080 0.2484409958124161
f 61/10/61 58/62/58 57/13/57
f 263/59/263 267/11/267 265/60/265
f 235/62/235 236/10/236 230/9/230
vt 0.1242180019617081 0.2562949955463409
f 51/63/51 63/9/63 60/5/60
vt 0.1091469973325729 0.3241670131683350
f 237/64/237 248/7/248 238/61/238
f 242/7/242 239/8/239 238/61/238
f 152/63/152 183/3/183 119/2/119
f 152/7/152 120/64/120 153/6/153
f 241/6/241 152/64/152 245/4/245
f 68/63/68 57/5/57 58/3/58
f 5/63/5 4/62/4 3/9/3
f 100/15/100 199/13/199 143/62/143
vt 0.2501130104064941 0.1472869962453842
f 35/65/35 74/60/74 71/16/71
vt 0.2336850017309189 0.2278169989585876
f 218/66/218 86/15/86 92/62/92
f 218/15/218 81/66/81 86/16/86
vt 0.3431499898433685 0.2072010040283203
vt 0.3750909864902496 0.1227160021662712
f 217/67/217 78/68/78 73/65/73
vt 0.2336860001087189 0.2801840007305145
f 123/2/123 178/69/178 194/63/194
f 189/65/189 162/66/162 161/67/161
f 39/16/39 77/66/77 37/65/37
f 197/69/197 125/2/125 126/1/126
vt 0.2181529998779297 0.3485569953918457
f 81/1/81 80/64/80 217/70/217
f 207/69/207 205/1/205 208/70/208
vt 0.3271549940109253 0.3729529976844788
f 54/70/54 62/71/62 59/69/59
vt 0.4361540079116821 0.3973540067672729
vt 0.3431490063667297 0.3040769994258881
f 211/72/211 129/73/129 201/71/201
f 211/69/211 208/71/208 205/73/205
vt 0.5450630187988281 0.5773940086364746
vt 0.4360530078411102 0.6022509932518005
vt 0.4524610042572021 0.6747499704360962
f 109/74/109 262/75/262 270/76/270
vt 0.4526079893112183 0.3279770016670227
f 204/77/204 207/73/207 208/72/208
f 3/1/3 4/4/4 8/64/8
vt 0.4526169896125793 0.1865919977426529
f 211/78/211 201/68/201 208/67/208
f 218/16/218 80/60/80 81/14/81
vt 0.0000299999992421 0.7017549872398376
f 77/79/77 33/24/33 38/27/38
vt 0.1090330034494400 0.6768680214881897
f 77/80/77 38/27/38 75/28/75
f 101/80/101 126/79/126 145/27/145
f 266/32/266 267/80/267 264/30/264
vt 0.1240789964795113 0.7499020099639893
f 38/29/38 70/26/70 75/81/75
f 38/30/38 33/80/33 70/28/70
f 77/26/77 71/25/71 74/81/74
vt 0.1249699965119362 0.8296179771423340
vt 0.0000000000000000 0.8053079843521118
f 77/82/77 74/23/74 69/83/69
f 238/24/238 249/83/249 240/23/240
f 88/79/88 84/83/84 89/24/89
vt 0.1240769997239113 0.7577589750289917
f 77/25/77 69/21/69 33/84/33
f 206/23/206 202/82/202 216/22/216
f 80/22/80 78/82/78 217/20/217
f 202/21/202 90/19/90 216/84/216
f 148/84/148 115/81/115 149/25/149
f 83/29/83 88/81/88 89/31/89
vt 0.2335380017757416 0.7248439788818359
f 245/85/245 243/32/243 246/31/246
vt 0.2180379927158356 0.6519880294799805
f 45/80/45 42/32/42 46/86/46
f 64/84/64 53/19/53 59/18/59
f 224/81/224 18/85/18 14/31/14
# 105 faces, 86 coords texture

# End of File
